G04 #@! TF.GenerationSoftware,KiCad,Pcbnew,(2017-09-19 revision dddaa7e69)-makepkg*
G04 #@! TF.CreationDate,2017-12-07T22:33:37+10:30*
G04 #@! TF.ProjectId,din_power_atm90e26,64696E5F706F7765725F61746D393065,rev?*
G04 #@! TF.SameCoordinates,Original*
G04 #@! TF.FileFunction,Copper,L1,Top,Signal*
G04 #@! TF.FilePolarity,Positive*
%FSLAX46Y46*%
G04 Gerber Fmt 4.6, Leading zero omitted, Abs format (unit mm)*
G04 Created by KiCad (PCBNEW (2017-09-19 revision dddaa7e69)-makepkg) date 12/07/17 22:33:37*
%MOMM*%
%LPD*%
G01*
G04 APERTURE LIST*
%ADD10C,1.422400*%
%ADD11C,1.600000*%
%ADD12C,1.800000*%
%ADD13R,1.800000X1.800000*%
%ADD14R,1.308000X1.308000*%
%ADD15R,1.200000X1.800000*%
%ADD16R,0.600000X1.550000*%
%ADD17R,1.900000X1.900000*%
%ADD18C,1.900000*%
%ADD19O,3.600000X1.800000*%
%ADD20R,3.600000X1.800000*%
%ADD21R,1.060000X0.650000*%
%ADD22C,0.850000*%
%ADD23C,0.100000*%
%ADD24R,1.000000X1.500000*%
%ADD25R,1.000000X1.800000*%
%ADD26R,2.200000X1.840000*%
%ADD27C,1.000000*%
%ADD28R,0.900000X1.700000*%
%ADD29R,0.900000X0.500000*%
%ADD30R,0.500000X0.900000*%
%ADD31R,0.750000X0.800000*%
%ADD32R,0.800000X0.750000*%
%ADD33R,0.500000X0.500000*%
%ADD34R,0.800000X0.800000*%
%ADD35R,1.270000X3.302000*%
%ADD36C,0.800000*%
%ADD37C,1.000000*%
%ADD38C,0.500000*%
%ADD39C,0.250000*%
%ADD40C,0.300000*%
G04 APERTURE END LIST*
D10*
X169378000Y-62367400D03*
X169378000Y-64367400D03*
X169378000Y-66367400D03*
X169378000Y-68367400D03*
X169378000Y-70367400D03*
X169378000Y-72367400D03*
X171378000Y-71367400D03*
X171378000Y-69367400D03*
X171378000Y-67367400D03*
X171378000Y-65367400D03*
X171378000Y-63367400D03*
X166878000Y-72317400D03*
X166878000Y-70317400D03*
X166878000Y-68317400D03*
X166878000Y-66317400D03*
X166878000Y-64317400D03*
X166878000Y-62317400D03*
X164878000Y-63317400D03*
X164878000Y-65317400D03*
X164878000Y-67317400D03*
X164878000Y-69317400D03*
X164878000Y-71317400D03*
X171378000Y-53367400D03*
X171378000Y-55367400D03*
X171378000Y-57367400D03*
X171378000Y-59367400D03*
X169378000Y-58367400D03*
X169378000Y-56367400D03*
X169378000Y-54367400D03*
X164878000Y-59317400D03*
X164878000Y-57317400D03*
X164878000Y-55317400D03*
X164878000Y-53317400D03*
X166878000Y-54317400D03*
X166878000Y-56317400D03*
X166878000Y-58317400D03*
D11*
X117450000Y-74500000D03*
X122450000Y-74500000D03*
D12*
X135310000Y-51850000D03*
X132770000Y-51850000D03*
X130230000Y-51850000D03*
D13*
X127690000Y-51850000D03*
D14*
X159288000Y-73389000D03*
X159288000Y-57989000D03*
X129888000Y-68189000D03*
X129888000Y-63189000D03*
D15*
X163625000Y-47412500D03*
X160025000Y-47412500D03*
D16*
X162325000Y-49937500D03*
X161325000Y-49937500D03*
D17*
X179705000Y-50698400D03*
D18*
X179705000Y-53198400D03*
X179705000Y-55698400D03*
X179705000Y-58198400D03*
X182205000Y-50698400D03*
X182205000Y-53198400D03*
X182205000Y-55698400D03*
X182205000Y-58198400D03*
X182205000Y-72295400D03*
X182205000Y-69795400D03*
X182205000Y-67295400D03*
X182205000Y-64795400D03*
X179705000Y-72295400D03*
X179705000Y-69795400D03*
X179705000Y-67295400D03*
D17*
X179705000Y-64795400D03*
D19*
X110490000Y-74574400D03*
X110490000Y-69494400D03*
X110490000Y-64414400D03*
X110490000Y-59334400D03*
X110490000Y-54254400D03*
D20*
X110490000Y-49174400D03*
D21*
X153925000Y-50875000D03*
X153925000Y-48975000D03*
X156125000Y-48975000D03*
X156125000Y-49925000D03*
X156125000Y-50875000D03*
D22*
X148025000Y-46658000D03*
D23*
G36*
X146925000Y-47083000D02*
X147525000Y-46233000D01*
X148525000Y-46233000D01*
X149125000Y-47083000D01*
X146925000Y-47083000D01*
X146925000Y-47083000D01*
G37*
D24*
X146525000Y-50805000D03*
D25*
X148025000Y-50658500D03*
D24*
X149525000Y-50805000D03*
D26*
X148025000Y-47991500D03*
D27*
X148025000Y-49401200D03*
D23*
G36*
X149125000Y-48901200D02*
X148425000Y-49901200D01*
X147625000Y-49901200D01*
X146925000Y-48901200D01*
X149125000Y-48901200D01*
X149125000Y-48901200D01*
G37*
D27*
X141400000Y-50023800D03*
D23*
G36*
X140300000Y-50523800D02*
X141000000Y-49523800D01*
X141800000Y-49523800D01*
X142500000Y-50523800D01*
X140300000Y-50523800D01*
X140300000Y-50523800D01*
G37*
D26*
X141400000Y-51433500D03*
D24*
X139900000Y-48620000D03*
D25*
X141400000Y-48766500D03*
D24*
X142900000Y-48620000D03*
D22*
X141400000Y-52767000D03*
D23*
G36*
X142500000Y-52342000D02*
X141900000Y-53192000D01*
X140900000Y-53192000D01*
X140300000Y-52342000D01*
X142500000Y-52342000D01*
X142500000Y-52342000D01*
G37*
D28*
X120498000Y-47367400D03*
X123398000Y-47367400D03*
D29*
X152025000Y-49775000D03*
X152025000Y-51275000D03*
D30*
X156750000Y-52675000D03*
X155250000Y-52675000D03*
D31*
X152025000Y-46675000D03*
X152025000Y-48175000D03*
D32*
X140400000Y-46600000D03*
X138900000Y-46600000D03*
X149025000Y-52675000D03*
X150525000Y-52675000D03*
X145525000Y-52675000D03*
X147025000Y-52675000D03*
X143900000Y-46600000D03*
X142400000Y-46600000D03*
D31*
X157975000Y-48625000D03*
X157975000Y-50125000D03*
D33*
X155725000Y-46925000D03*
X153525000Y-46925000D03*
D34*
X153800000Y-52675000D03*
X152200000Y-52675000D03*
D35*
X115867000Y-55021000D03*
X123233000Y-55021000D03*
X123233000Y-61498000D03*
X115867000Y-61498000D03*
X115867000Y-67900000D03*
X123233000Y-67900000D03*
D36*
X142825000Y-55600000D03*
X145750000Y-57300000D03*
X148900000Y-60375000D03*
X153775000Y-60425000D03*
X157425000Y-64400000D03*
X178300000Y-61600000D03*
X182850000Y-61700000D03*
X172300000Y-50350000D03*
X168600000Y-46350000D03*
X182250000Y-46500000D03*
X192150000Y-46250000D03*
X191000000Y-53550000D03*
X191050000Y-61650000D03*
X191100000Y-68600000D03*
X192250000Y-77750000D03*
X185200000Y-77550000D03*
X157450000Y-77600000D03*
X163500000Y-77600000D03*
X169000000Y-77650000D03*
X167250000Y-74750000D03*
X175050000Y-64800000D03*
X175050000Y-67300000D03*
X175050000Y-50700000D03*
X186850000Y-72300000D03*
X175050000Y-53200000D03*
X175050000Y-55700000D03*
X175050000Y-58200000D03*
X186850000Y-50700000D03*
X186850000Y-53200000D03*
X186850000Y-55700000D03*
X186850000Y-58200000D03*
X175050000Y-72300000D03*
X186850000Y-64800000D03*
X186850000Y-67300000D03*
X186850000Y-69800000D03*
X175050000Y-69800000D03*
X137150000Y-50600000D03*
X134700000Y-48025000D03*
X139650000Y-52600000D03*
X140150000Y-56150000D03*
X143175000Y-50200000D03*
X139650000Y-50250000D03*
X143175000Y-51425000D03*
X143175000Y-52675000D03*
X139650000Y-51450000D03*
X163100000Y-65000000D03*
X164100000Y-75000000D03*
X164200000Y-73100000D03*
X162900000Y-66800000D03*
X163300000Y-68500000D03*
X163100000Y-70300000D03*
X155875000Y-57275000D03*
X153525000Y-56450000D03*
X150525000Y-53800000D03*
X152375000Y-54725000D03*
X150775000Y-50775000D03*
X150875000Y-48475000D03*
X145875000Y-46925000D03*
X149825000Y-47975000D03*
X149825000Y-46725000D03*
X145875000Y-49025000D03*
X145866500Y-47991500D03*
X154650000Y-46500000D03*
X154875000Y-49925000D03*
X157775000Y-46500000D03*
X145350000Y-46300000D03*
X148025000Y-52025000D03*
X149875000Y-49150000D03*
X158325000Y-51275000D03*
X159550000Y-54100000D03*
X170400000Y-74650000D03*
X172100000Y-72500000D03*
X171400000Y-74650000D03*
X172850000Y-73200000D03*
X170500000Y-73100000D03*
X172300000Y-70350000D03*
X168840000Y-74230000D03*
X178100000Y-63850000D03*
X178350000Y-68100000D03*
X173750000Y-61550000D03*
X174550000Y-60800000D03*
X143975000Y-55600000D03*
X144350000Y-52800000D03*
X164000000Y-49700000D03*
X162275000Y-48425000D03*
D37*
X115867000Y-55021000D02*
X114636000Y-55021000D01*
X113174400Y-49174400D02*
X110490000Y-49174400D01*
X114636000Y-55021000D02*
X114636000Y-50636000D01*
X114636000Y-50636000D02*
X113174400Y-49174400D01*
X123233000Y-55021000D02*
X123233000Y-50033000D01*
X123233000Y-50033000D02*
X123050000Y-49850000D01*
X123050000Y-49850000D02*
X118900000Y-49850000D01*
X118900000Y-49850000D02*
X118400000Y-49350000D01*
X118400000Y-49350000D02*
X118400000Y-47900000D01*
X118400000Y-47900000D02*
X118932600Y-47367400D01*
X118932600Y-47367400D02*
X120498000Y-47367400D01*
X123233000Y-61498000D02*
X123233000Y-55021000D01*
X117450000Y-74500000D02*
X120700000Y-71250000D01*
X123233000Y-70917000D02*
X123233000Y-67900000D01*
X122900000Y-71250000D02*
X123233000Y-70917000D01*
X120700000Y-71250000D02*
X122900000Y-71250000D01*
X123233000Y-67900000D02*
X123233000Y-60300000D01*
X110490000Y-74574400D02*
X117375600Y-74574400D01*
X115867000Y-61498000D02*
X114232000Y-61498000D01*
X114232000Y-61498000D02*
X113700000Y-60966000D01*
X113700000Y-60966000D02*
X113700000Y-59700000D01*
X110490000Y-59334400D02*
X113334400Y-59334400D01*
X113334400Y-59334400D02*
X113700000Y-59700000D01*
X110490000Y-69494400D02*
X113555600Y-69494400D01*
X113950000Y-67900000D02*
X115867000Y-67900000D01*
X113700000Y-68150000D02*
X113950000Y-67900000D01*
X113700000Y-69350000D02*
X113700000Y-68150000D01*
X113555600Y-69494400D02*
X113700000Y-69350000D01*
D38*
X140700000Y-55600000D02*
X142825000Y-55600000D01*
X145750000Y-57300000D02*
X148825000Y-60375000D01*
X148825000Y-60375000D02*
X148900000Y-60375000D01*
X140150000Y-56150000D02*
X140700000Y-55600000D01*
X182750000Y-61600000D02*
X178300000Y-61600000D01*
X182850000Y-61700000D02*
X182750000Y-61600000D01*
X182100000Y-46350000D02*
X168600000Y-46350000D01*
X182250000Y-46500000D02*
X182100000Y-46350000D01*
X192150000Y-52400000D02*
X192150000Y-46250000D01*
X191000000Y-53550000D02*
X192150000Y-52400000D01*
X191050000Y-68550000D02*
X191050000Y-61650000D01*
X191100000Y-68600000D02*
X191050000Y-68550000D01*
X185400000Y-77750000D02*
X192250000Y-77750000D01*
X185200000Y-77550000D02*
X185400000Y-77750000D01*
X157425000Y-64400000D02*
X157425000Y-77575000D01*
X157425000Y-77575000D02*
X157450000Y-77600000D01*
X163500000Y-77600000D02*
X163550000Y-77650000D01*
X163550000Y-77650000D02*
X169000000Y-77650000D01*
X175050000Y-69800000D02*
X175050000Y-67300000D01*
X175050000Y-67300000D02*
X175050000Y-64800000D01*
X175050000Y-53200000D02*
X175050000Y-50700000D01*
X175050000Y-53200000D02*
X175050000Y-55700000D01*
X175050000Y-55700000D02*
X175050000Y-58200000D01*
X186850000Y-69800000D02*
X186850000Y-72300000D01*
X186850000Y-69800000D02*
X186850000Y-67300000D01*
X186850000Y-67300000D02*
X186850000Y-64800000D01*
X186850000Y-64800000D02*
X186850000Y-58200000D01*
X186850000Y-58200000D02*
X186850000Y-55700000D01*
X186850000Y-55700000D02*
X186850000Y-53200000D01*
X186850000Y-53200000D02*
X186850000Y-50700000D01*
X175050000Y-69800000D02*
X175050000Y-72300000D01*
X143166500Y-51433500D02*
X143175000Y-51425000D01*
X143166500Y-51433500D02*
X141400000Y-51433500D01*
X139666500Y-51433500D02*
X139650000Y-51450000D01*
X139666500Y-51433500D02*
X141400000Y-51433500D01*
X142400000Y-46600000D02*
X141300000Y-46600000D01*
X141400000Y-48766500D02*
X141400000Y-46700000D01*
X141300000Y-46600000D02*
X140400000Y-46600000D01*
X141400000Y-46700000D02*
X141300000Y-46600000D01*
X132770000Y-51850000D02*
X132770000Y-48270000D01*
X131867400Y-47367400D02*
X123398000Y-47367400D01*
X132770000Y-48270000D02*
X131867400Y-47367400D01*
X159288000Y-73389000D02*
X159288000Y-62549774D01*
X159288000Y-62549774D02*
X155875000Y-59136774D01*
X155875000Y-59136774D02*
X155875000Y-57840685D01*
X155875000Y-57840685D02*
X155875000Y-57275000D01*
X140200000Y-54625000D02*
X144400000Y-54625000D01*
X131755000Y-53375000D02*
X137625000Y-53375000D01*
X137625000Y-53375000D02*
X138875000Y-54625000D01*
X138875000Y-54625000D02*
X140200000Y-54625000D01*
X130230000Y-51850000D02*
X131755000Y-53375000D01*
X153425000Y-56550000D02*
X153525000Y-56450000D01*
X149450000Y-56550000D02*
X153425000Y-56550000D01*
X148375000Y-55475000D02*
X149450000Y-56550000D01*
X145250000Y-55475000D02*
X148375000Y-55475000D01*
X144400000Y-54625000D02*
X145250000Y-55475000D01*
X164878000Y-57317400D02*
X163350000Y-55789400D01*
X150525000Y-53275000D02*
X150525000Y-52675000D01*
X150525000Y-53800000D02*
X150525000Y-53275000D01*
X152500000Y-54600000D02*
X152375000Y-54725000D01*
X157675000Y-54600000D02*
X152500000Y-54600000D01*
X159150000Y-53125000D02*
X157675000Y-54600000D01*
X161400000Y-53125000D02*
X159150000Y-53125000D01*
X163350000Y-55075000D02*
X161400000Y-53125000D01*
X163350000Y-55789400D02*
X163350000Y-55075000D01*
X150525000Y-52675000D02*
X150525000Y-52075000D01*
X150525000Y-52075000D02*
X150775000Y-51825000D01*
X150775000Y-51825000D02*
X150775000Y-50775000D01*
X152200000Y-52675000D02*
X150525000Y-52675000D01*
X150875000Y-47175000D02*
X150875000Y-48475000D01*
X152025000Y-46675000D02*
X151375000Y-46675000D01*
X151375000Y-46675000D02*
X150875000Y-47175000D01*
X150775000Y-50775000D02*
X149555000Y-50775000D01*
X149555000Y-50775000D02*
X149525000Y-50805000D01*
X152025000Y-46675000D02*
X152575000Y-46675000D01*
X152825000Y-46925000D02*
X153525000Y-46925000D01*
X152575000Y-46675000D02*
X152825000Y-46925000D01*
X153525000Y-46925000D02*
X153525000Y-46325000D01*
X153525000Y-46925000D02*
X153525000Y-47825000D01*
X153525000Y-47825000D02*
X153625000Y-47925000D01*
X153925000Y-48225000D02*
X153925000Y-48975000D01*
X153625000Y-47925000D02*
X153925000Y-48225000D01*
X149891500Y-47991500D02*
X149875000Y-47975000D01*
X149875000Y-47975000D02*
X149825000Y-47975000D01*
X149891500Y-47991500D02*
X148025000Y-47991500D01*
X155025000Y-49775000D02*
X155025000Y-48200000D01*
X155025000Y-48200000D02*
X154650000Y-47825000D01*
X154650000Y-47825000D02*
X154650000Y-46500000D01*
X154875000Y-49925000D02*
X155125000Y-49925000D01*
X154875000Y-49925000D02*
X155025000Y-49775000D01*
X145350000Y-46300000D02*
X145350000Y-47475000D01*
X145350000Y-47475000D02*
X145866500Y-47991500D01*
X148025000Y-47991500D02*
X145866500Y-47991500D01*
X149950000Y-49401200D02*
X149950000Y-49225000D01*
X149950000Y-49225000D02*
X149875000Y-49150000D01*
X159288000Y-56807400D02*
X159288000Y-54362000D01*
X159288000Y-54362000D02*
X159550000Y-54100000D01*
X164878000Y-59317400D02*
X163325000Y-57764400D01*
X157975000Y-50850000D02*
X158325000Y-51200000D01*
X158325000Y-51200000D02*
X158325000Y-51275000D01*
X157975000Y-50850000D02*
X157975000Y-50125000D01*
X159700000Y-53950000D02*
X159550000Y-54100000D01*
X161050000Y-53950000D02*
X159700000Y-53950000D01*
X162500000Y-55400000D02*
X161050000Y-53950000D01*
X162500000Y-56175000D02*
X162500000Y-55400000D01*
X163325000Y-57000000D02*
X162500000Y-56175000D01*
X163325000Y-57764400D02*
X163325000Y-57000000D01*
X147025000Y-52675000D02*
X148125000Y-52675000D01*
X149025000Y-52675000D02*
X148125000Y-52675000D01*
X148025000Y-52575000D02*
X148025000Y-52025000D01*
X148025000Y-52025000D02*
X148025000Y-50658500D01*
X148125000Y-52675000D02*
X148025000Y-52575000D01*
X148025000Y-49401200D02*
X149950000Y-49401200D01*
X149950000Y-49401200D02*
X150451200Y-49401200D01*
X151275000Y-49775000D02*
X152025000Y-49775000D01*
X150825000Y-49775000D02*
X151275000Y-49775000D01*
X150451200Y-49401200D02*
X150825000Y-49775000D01*
X158625000Y-50125000D02*
X158925000Y-50125000D01*
X157975000Y-50125000D02*
X158625000Y-50125000D01*
X162325000Y-51225000D02*
X162325000Y-49937500D01*
X162175000Y-51375000D02*
X162325000Y-51225000D01*
X160175000Y-51375000D02*
X162175000Y-51375000D01*
X158925000Y-50125000D02*
X160175000Y-51375000D01*
X152025000Y-49775000D02*
X152975000Y-49775000D01*
X155125000Y-49925000D02*
X156125000Y-49925000D01*
X153125000Y-49925000D02*
X155125000Y-49925000D01*
X152975000Y-49775000D02*
X153125000Y-49925000D01*
X152025000Y-48175000D02*
X152025000Y-49775000D01*
X156125000Y-49925000D02*
X157025000Y-49925000D01*
X157025000Y-49925000D02*
X157225000Y-50125000D01*
X157225000Y-50125000D02*
X157975000Y-50125000D01*
X138650000Y-48620000D02*
X138770000Y-48500000D01*
X157700000Y-57650000D02*
X157700000Y-56150000D01*
X157700000Y-56150000D02*
X157000000Y-55450000D01*
X152800000Y-55700000D02*
X149825000Y-55700000D01*
X138650000Y-53200000D02*
X138650000Y-48620000D01*
X164878000Y-63317400D02*
X164878000Y-61178000D01*
X164563000Y-60863000D02*
X160913000Y-60863000D01*
X164878000Y-61178000D02*
X164563000Y-60863000D01*
X158193999Y-59193001D02*
X158083999Y-59083001D01*
X138770000Y-48500000D02*
X138800000Y-48500000D01*
X160913000Y-60863000D02*
X159243001Y-59193001D01*
X158083999Y-59083001D02*
X158083999Y-58033999D01*
X159243001Y-59193001D02*
X158193999Y-59193001D01*
X158083999Y-58033999D02*
X157700000Y-57650000D01*
X157000000Y-55450000D02*
X153050000Y-55450000D01*
X153050000Y-55450000D02*
X152800000Y-55700000D01*
X149825000Y-55700000D02*
X148775000Y-54650000D01*
X148775000Y-54650000D02*
X145625000Y-54650000D01*
X145625000Y-54650000D02*
X144775000Y-53800000D01*
X144775000Y-53800000D02*
X139250000Y-53800000D01*
X139250000Y-53800000D02*
X138650000Y-53200000D01*
X135310000Y-51850000D02*
X135310000Y-50290000D01*
X136980000Y-48620000D02*
X138920000Y-48620000D01*
X135310000Y-50290000D02*
X136980000Y-48620000D01*
X138900000Y-46600000D02*
X138900000Y-47300000D01*
X138920000Y-48620000D02*
X139900000Y-48620000D01*
X138800000Y-48500000D02*
X138920000Y-48620000D01*
X138800000Y-47400000D02*
X138800000Y-48500000D01*
X138900000Y-47300000D02*
X138800000Y-47400000D01*
D39*
X179350000Y-76150000D02*
X183000000Y-76150000D01*
X170400000Y-74650000D02*
X170400000Y-74750000D01*
X170400000Y-74750000D02*
X171050000Y-75400000D01*
X171050000Y-75400000D02*
X171800000Y-75400000D01*
X171800000Y-75400000D02*
X172550000Y-76150000D01*
X172550000Y-76150000D02*
X179350000Y-76150000D01*
X171378000Y-71778000D02*
X172100000Y-72500000D01*
X181053400Y-49350000D02*
X179705000Y-50698400D01*
X182700000Y-49350000D02*
X181053400Y-49350000D01*
X185500000Y-52150000D02*
X182700000Y-49350000D01*
X185500000Y-73650000D02*
X185500000Y-52150000D01*
X183000000Y-76150000D02*
X185500000Y-73650000D01*
X171378000Y-71367400D02*
X171378000Y-71778000D01*
X179603400Y-50800000D02*
X179705000Y-50698400D01*
X179200000Y-76650000D02*
X183200000Y-76650000D01*
X170550000Y-75900000D02*
X171600000Y-75900000D01*
X171600000Y-75900000D02*
X172350000Y-76650000D01*
X172350000Y-76650000D02*
X179200000Y-76650000D01*
X169600000Y-74950000D02*
X170500000Y-75850000D01*
X169600000Y-72589400D02*
X169600000Y-74950000D01*
X170500000Y-75850000D02*
X170550000Y-75900000D01*
X178250000Y-51743400D02*
X179705000Y-53198400D01*
X178250000Y-49300000D02*
X178250000Y-51743400D01*
X178700000Y-48850000D02*
X178250000Y-49300000D01*
X182900000Y-48850000D02*
X178700000Y-48850000D01*
X186000000Y-51950000D02*
X182900000Y-48850000D01*
X186000000Y-71200000D02*
X186000000Y-51950000D01*
X186000000Y-73850000D02*
X186000000Y-71200000D01*
X183200000Y-76650000D02*
X186000000Y-73850000D01*
X169378000Y-72367400D02*
X169600000Y-72589400D01*
X169378000Y-72367400D02*
X169000000Y-72745400D01*
X169378000Y-72367400D02*
X169522400Y-72367400D01*
X179563400Y-53340000D02*
X179705000Y-53198400D01*
X179550000Y-75650000D02*
X182800000Y-75650000D01*
X185000000Y-53493400D02*
X182205000Y-50698400D01*
X185000000Y-73450000D02*
X185000000Y-53493400D01*
X182800000Y-75650000D02*
X185000000Y-73450000D01*
X171378000Y-67367400D02*
X173050000Y-69039400D01*
X172750000Y-75650000D02*
X179550000Y-75650000D01*
X179550000Y-75650000D02*
X179450000Y-75650000D01*
X171750000Y-74650000D02*
X172750000Y-75650000D01*
X171400000Y-74650000D02*
X171750000Y-74650000D01*
X172850000Y-72150000D02*
X172850000Y-73200000D01*
X172450000Y-71750000D02*
X172850000Y-72150000D01*
X172450000Y-71300000D02*
X172450000Y-71750000D01*
X173050000Y-70700000D02*
X172450000Y-71300000D01*
X173050000Y-69039400D02*
X173050000Y-70700000D01*
X180250000Y-75150000D02*
X182600000Y-75150000D01*
X170500000Y-73100000D02*
X170900000Y-73100000D01*
X170900000Y-73100000D02*
X172950000Y-75150000D01*
X172950000Y-75150000D02*
X180250000Y-75150000D01*
X184500000Y-55493400D02*
X182205000Y-53198400D01*
X184500000Y-73250000D02*
X184500000Y-55493400D01*
X182600000Y-75150000D02*
X184500000Y-73250000D01*
X171378000Y-69428000D02*
X172300000Y-70350000D01*
X171380000Y-76400000D02*
X171630000Y-76650000D01*
X170310000Y-76400000D02*
X171380000Y-76400000D01*
X168840000Y-74930000D02*
X170310000Y-76400000D01*
X168840000Y-74230000D02*
X168840000Y-74930000D01*
X177600000Y-77150000D02*
X183400000Y-77150000D01*
X183400000Y-77150000D02*
X187700000Y-72850000D01*
X187700000Y-72850000D02*
X187700000Y-50250000D01*
X187700000Y-50250000D02*
X185800000Y-48350000D01*
X185800000Y-48350000D02*
X178500000Y-48350000D01*
X178500000Y-48350000D02*
X177750000Y-49100000D01*
X177750000Y-49100000D02*
X177750000Y-53743400D01*
X177750000Y-53743400D02*
X179705000Y-55698400D01*
X172150000Y-77150000D02*
X177600000Y-77150000D01*
X171650000Y-76650000D02*
X172150000Y-77150000D01*
X171630000Y-76650000D02*
X171650000Y-76650000D01*
X171378000Y-69367400D02*
X171378000Y-69428000D01*
X179523400Y-55880000D02*
X179705000Y-55698400D01*
X178100000Y-65690400D02*
X179705000Y-67295400D01*
X178100000Y-63850000D02*
X178100000Y-65690400D01*
X180509600Y-63100000D02*
X182205000Y-64795400D01*
X177800000Y-63100000D02*
X180509600Y-63100000D01*
X177350000Y-63550000D02*
X177800000Y-63100000D01*
X177350000Y-65650000D02*
X177350000Y-63550000D01*
X178350000Y-66650000D02*
X177350000Y-65650000D01*
X178350000Y-68100000D02*
X178350000Y-66650000D01*
X184000000Y-70850000D02*
X184000000Y-69090400D01*
X182400000Y-74650000D02*
X184000000Y-73050000D01*
X184000000Y-73050000D02*
X184000000Y-70850000D01*
X182205000Y-67295400D02*
X183500000Y-68590400D01*
X170250000Y-67239400D02*
X169378000Y-66367400D01*
X173150000Y-74650000D02*
X180950000Y-74650000D01*
X170100000Y-71600000D02*
X173150000Y-74650000D01*
X170100000Y-71200000D02*
X170100000Y-71600000D01*
X170500000Y-70800000D02*
X170100000Y-71200000D01*
X170500000Y-70000000D02*
X170500000Y-70800000D01*
X170300000Y-69800000D02*
X170500000Y-70000000D01*
X170300000Y-69000000D02*
X170300000Y-69800000D01*
X170450000Y-68850000D02*
X170300000Y-69000000D01*
X170450000Y-67900000D02*
X170450000Y-68850000D01*
X170250000Y-67700000D02*
X170450000Y-67900000D01*
X170250000Y-67239400D02*
X170250000Y-67700000D01*
X180950000Y-74650000D02*
X182400000Y-74650000D01*
X184000000Y-69090400D02*
X183500000Y-68590400D01*
X176350000Y-66050000D02*
X176350000Y-68940400D01*
X175150000Y-61550000D02*
X176000000Y-61550000D01*
X176000000Y-61550000D02*
X176350000Y-61900000D01*
X176350000Y-61900000D02*
X176350000Y-66050000D01*
X173750000Y-61550000D02*
X175150000Y-61550000D01*
X176350000Y-68940400D02*
X179705000Y-72295400D01*
X168100000Y-74600000D02*
X168100000Y-74890000D01*
X168100000Y-71300000D02*
X168100000Y-74600000D01*
X169032600Y-70367400D02*
X168100000Y-71300000D01*
X171940000Y-77650000D02*
X171950000Y-77650000D01*
X171170000Y-76880000D02*
X171940000Y-77650000D01*
X170090000Y-76880000D02*
X171170000Y-76880000D01*
X168100000Y-74890000D02*
X170090000Y-76880000D01*
X177250000Y-55743400D02*
X179705000Y-58198400D01*
X171950000Y-77650000D02*
X183600000Y-77650000D01*
X183600000Y-77650000D02*
X188200000Y-73050000D01*
X188200000Y-73050000D02*
X188200000Y-49950000D01*
X188200000Y-49950000D02*
X186100000Y-47850000D01*
X186100000Y-47850000D02*
X178300000Y-47850000D01*
X178300000Y-47850000D02*
X177250000Y-48900000D01*
X177250000Y-48900000D02*
X177250000Y-55743400D01*
X169378000Y-70367400D02*
X169032600Y-70367400D01*
X173450000Y-62300000D02*
X174150000Y-63000000D01*
X173000000Y-61100000D02*
X173000000Y-61850000D01*
X173000000Y-54989400D02*
X173000000Y-61100000D01*
X171378000Y-53367400D02*
X173000000Y-54989400D01*
X173000000Y-61850000D02*
X173450000Y-62300000D01*
X180850400Y-73650000D02*
X182205000Y-72295400D01*
X175150000Y-73650000D02*
X180850400Y-73650000D01*
X174150000Y-72650000D02*
X175150000Y-73650000D01*
X174150000Y-63000000D02*
X174150000Y-72650000D01*
X176850000Y-65850000D02*
X176850000Y-67750000D01*
X174600000Y-60750000D02*
X176050000Y-60750000D01*
X176050000Y-60750000D02*
X176850000Y-61550000D01*
X176850000Y-61550000D02*
X176850000Y-65850000D01*
X174550000Y-60800000D02*
X174600000Y-60750000D01*
X176850000Y-67750000D02*
X178895400Y-69795400D01*
X178895400Y-69795400D02*
X179705000Y-69795400D01*
X178995400Y-69795400D02*
X179705000Y-69795400D01*
X174550000Y-60800000D02*
X174500000Y-60850000D01*
X169378000Y-58367400D02*
X169378000Y-58928000D01*
X173200000Y-62800000D02*
X173650000Y-63250000D01*
X172500000Y-56489400D02*
X172500000Y-62100000D01*
X172500000Y-62100000D02*
X173200000Y-62800000D01*
X171378000Y-55367400D02*
X172500000Y-56489400D01*
X183500000Y-71090400D02*
X182205000Y-69795400D01*
X183500000Y-72850000D02*
X183500000Y-71090400D01*
X182200000Y-74150000D02*
X183500000Y-72850000D01*
X174950000Y-74150000D02*
X182200000Y-74150000D01*
X173650000Y-72850000D02*
X174950000Y-74150000D01*
X173650000Y-63250000D02*
X173650000Y-72850000D01*
D38*
X161900000Y-74225000D02*
X161900000Y-64030388D01*
X166878000Y-72317400D02*
X166878000Y-73622000D01*
X156850000Y-58980388D02*
X156850000Y-56525000D01*
X166878000Y-73622000D02*
X164500000Y-76000000D01*
X156625000Y-56300000D02*
X155075000Y-56300000D01*
X144374999Y-55999999D02*
X143975000Y-55600000D01*
X161900000Y-64030388D02*
X156850000Y-58980388D01*
X156850000Y-56525000D02*
X156625000Y-56300000D01*
X163675000Y-76000000D02*
X161900000Y-74225000D01*
X153925000Y-57450000D02*
X149175000Y-57450000D01*
X149175000Y-57450000D02*
X148025000Y-56300000D01*
X144675000Y-56300000D02*
X144374999Y-55999999D01*
X155075000Y-56300000D02*
X153925000Y-57450000D01*
X148025000Y-56300000D02*
X144675000Y-56300000D01*
X164500000Y-76000000D02*
X163675000Y-76000000D01*
X144350000Y-49140000D02*
X143830000Y-48620000D01*
X144350000Y-52800000D02*
X144350000Y-49140000D01*
X142900000Y-48620000D02*
X143830000Y-48620000D01*
X143900000Y-47350000D02*
X143900000Y-46600000D01*
X144000000Y-47450000D02*
X143900000Y-47350000D01*
X144000000Y-48450000D02*
X144000000Y-47450000D01*
X143830000Y-48620000D02*
X144000000Y-48450000D01*
X152175000Y-53750000D02*
X151975000Y-53750000D01*
X145525000Y-52675000D02*
X145525000Y-53325000D01*
X161810600Y-52250000D02*
X158775000Y-52250000D01*
X158775000Y-52250000D02*
X157275000Y-53750000D01*
X157275000Y-53750000D02*
X152175000Y-53750000D01*
X161810600Y-52250000D02*
X164878000Y-55317400D01*
X146025000Y-53825000D02*
X145525000Y-53325000D01*
X149150000Y-53825000D02*
X146025000Y-53825000D01*
X150100000Y-54775000D02*
X149150000Y-53825000D01*
X150950000Y-54775000D02*
X150100000Y-54775000D01*
X151975000Y-53750000D02*
X150950000Y-54775000D01*
X146525000Y-50805000D02*
X145645000Y-50805000D01*
X145525000Y-52025000D02*
X145525000Y-52675000D01*
X145425000Y-51925000D02*
X145525000Y-52025000D01*
X145425000Y-51025000D02*
X145425000Y-51925000D01*
X145645000Y-50805000D02*
X145425000Y-51025000D01*
D39*
X153925000Y-50875000D02*
X153125000Y-50875000D01*
X152725000Y-51275000D02*
X152025000Y-51275000D01*
X153125000Y-50875000D02*
X152725000Y-51275000D01*
X156750000Y-52675000D02*
X157300000Y-52675000D01*
X157000000Y-50875000D02*
X156125000Y-50875000D01*
X157425000Y-51300000D02*
X157000000Y-50875000D01*
X157425000Y-52550000D02*
X157425000Y-51300000D01*
X157300000Y-52675000D02*
X157425000Y-52550000D01*
X156150000Y-50900000D02*
X156125000Y-50875000D01*
X155250000Y-52675000D02*
X153800000Y-52675000D01*
D38*
X161325000Y-49937500D02*
X161325000Y-48725000D01*
X163850000Y-52289400D02*
X163850000Y-49850000D01*
X163850000Y-49850000D02*
X164000000Y-49700000D01*
X163850000Y-52289400D02*
X164878000Y-53317400D01*
X161625000Y-48425000D02*
X162275000Y-48425000D01*
X161325000Y-48725000D02*
X161625000Y-48425000D01*
X157975000Y-48625000D02*
X158775000Y-48625000D01*
X160087500Y-49937500D02*
X161325000Y-49937500D01*
X158775000Y-48625000D02*
X160087500Y-49937500D01*
X155725000Y-46925000D02*
X155725000Y-46375000D01*
X156125000Y-48975000D02*
X156125000Y-48175000D01*
X155725000Y-47775000D02*
X155725000Y-46925000D01*
X156125000Y-48175000D02*
X155725000Y-47775000D01*
X156125000Y-48975000D02*
X156925000Y-48975000D01*
X157275000Y-48625000D02*
X157975000Y-48625000D01*
X156925000Y-48975000D02*
X157275000Y-48625000D01*
D37*
X129888000Y-68189000D02*
X126211000Y-68189000D01*
X126211000Y-68189000D02*
X125950000Y-68450000D01*
X125950000Y-71350000D02*
X122800000Y-74500000D01*
X125950000Y-68450000D02*
X125950000Y-71350000D01*
X122800000Y-74500000D02*
X122450000Y-74500000D01*
D40*
G36*
X192293000Y-77741000D02*
X184322172Y-77741000D01*
X188606586Y-73456587D01*
X188675291Y-73353763D01*
X188676007Y-73354481D01*
X189135269Y-73545183D01*
X189632550Y-73545617D01*
X190092143Y-73355716D01*
X190444081Y-73004393D01*
X190634783Y-72545131D01*
X190635217Y-72047850D01*
X190445316Y-71588257D01*
X190093993Y-71236319D01*
X189634731Y-71045617D01*
X189137450Y-71045183D01*
X188775000Y-71194945D01*
X188775000Y-65895586D01*
X189135269Y-66045183D01*
X189632550Y-66045617D01*
X190092143Y-65855716D01*
X190444081Y-65504393D01*
X190634783Y-65045131D01*
X190635217Y-64547850D01*
X190445316Y-64088257D01*
X190093993Y-63736319D01*
X189634731Y-63545617D01*
X189137450Y-63545183D01*
X188775000Y-63694945D01*
X188775000Y-59298586D01*
X189135269Y-59448183D01*
X189632550Y-59448617D01*
X190092143Y-59258716D01*
X190444081Y-58907393D01*
X190634783Y-58448131D01*
X190635217Y-57950850D01*
X190445316Y-57491257D01*
X190093993Y-57139319D01*
X189634731Y-56948617D01*
X189137450Y-56948183D01*
X188775000Y-57097945D01*
X188775000Y-51798586D01*
X189135269Y-51948183D01*
X189632550Y-51948617D01*
X190092143Y-51758716D01*
X190444081Y-51407393D01*
X190634783Y-50948131D01*
X190635217Y-50450850D01*
X190445316Y-49991257D01*
X190093993Y-49639319D01*
X189634731Y-49448617D01*
X189137450Y-49448183D01*
X188677857Y-49638084D01*
X188673050Y-49642883D01*
X188606586Y-49543413D01*
X186506586Y-47443414D01*
X186320043Y-47318769D01*
X186307047Y-47316184D01*
X186100000Y-47275000D01*
X178300000Y-47275000D01*
X178092953Y-47316184D01*
X178079957Y-47318769D01*
X177893413Y-47443414D01*
X176843414Y-48493414D01*
X176718769Y-48679957D01*
X176675000Y-48900000D01*
X176675000Y-55743400D01*
X176705150Y-55894975D01*
X176718769Y-55963443D01*
X176843414Y-56149986D01*
X178395285Y-57701857D01*
X178305243Y-57918701D01*
X178304757Y-58475656D01*
X178517445Y-58990400D01*
X178910928Y-59384570D01*
X179425301Y-59598157D01*
X179982256Y-59598643D01*
X180497000Y-59385955D01*
X180891170Y-58992472D01*
X180954893Y-58839012D01*
X181017445Y-58990400D01*
X181410928Y-59384570D01*
X181925301Y-59598157D01*
X182482256Y-59598643D01*
X182997000Y-59385955D01*
X183391170Y-58992472D01*
X183604757Y-58478099D01*
X183605243Y-57921144D01*
X183392555Y-57406400D01*
X182999072Y-57012230D01*
X182845612Y-56948507D01*
X182997000Y-56885955D01*
X183391170Y-56492472D01*
X183604757Y-55978099D01*
X183605243Y-55421144D01*
X183598674Y-55405246D01*
X183925000Y-55731572D01*
X183925000Y-68202228D01*
X183906589Y-68183817D01*
X183906587Y-68183814D01*
X183514715Y-67791943D01*
X183604757Y-67575099D01*
X183605243Y-67018144D01*
X183392555Y-66503400D01*
X182999072Y-66109230D01*
X182845612Y-66045507D01*
X182997000Y-65982955D01*
X183391170Y-65589472D01*
X183604757Y-65075099D01*
X183605243Y-64518144D01*
X183392555Y-64003400D01*
X182999072Y-63609230D01*
X182484699Y-63395643D01*
X181927744Y-63395157D01*
X181708514Y-63485741D01*
X180916186Y-62693414D01*
X180729643Y-62568769D01*
X180509600Y-62525000D01*
X177800000Y-62525000D01*
X177579957Y-62568769D01*
X177425000Y-62672309D01*
X177425000Y-61550000D01*
X177381231Y-61329957D01*
X177348423Y-61280857D01*
X177256587Y-61143414D01*
X176456586Y-60343414D01*
X176270043Y-60218769D01*
X176257550Y-60216284D01*
X176050000Y-60175000D01*
X175127123Y-60175000D01*
X175032115Y-60079826D01*
X174719817Y-59950148D01*
X174381666Y-59949853D01*
X174069143Y-60078985D01*
X173829826Y-60317885D01*
X173700148Y-60630183D01*
X173700087Y-60699956D01*
X173581666Y-60699853D01*
X173575000Y-60702607D01*
X173575000Y-54989400D01*
X173531231Y-54769357D01*
X173516103Y-54746716D01*
X173406586Y-54582813D01*
X172505011Y-53681239D01*
X172538998Y-53599390D01*
X172539401Y-53137436D01*
X172362991Y-52710492D01*
X172036626Y-52383557D01*
X171609990Y-52206402D01*
X171148036Y-52205999D01*
X170721092Y-52382409D01*
X170394157Y-52708774D01*
X170217002Y-53135410D01*
X170216628Y-53563874D01*
X170036626Y-53383557D01*
X169609990Y-53206402D01*
X169148036Y-53205999D01*
X168721092Y-53382409D01*
X168394157Y-53708774D01*
X168217002Y-54135410D01*
X168216599Y-54597364D01*
X168393009Y-55024308D01*
X168719374Y-55351243D01*
X168757851Y-55367220D01*
X168721092Y-55382409D01*
X168394157Y-55708774D01*
X168217002Y-56135410D01*
X168216599Y-56597364D01*
X168393009Y-57024308D01*
X168719374Y-57351243D01*
X168757851Y-57367220D01*
X168721092Y-57382409D01*
X168394157Y-57708774D01*
X168217002Y-58135410D01*
X168216599Y-58597364D01*
X168393009Y-59024308D01*
X168467361Y-59098790D01*
X168452651Y-59092682D01*
X167900000Y-59092200D01*
X167900000Y-58884134D01*
X168038998Y-58549390D01*
X168039401Y-58087436D01*
X167900000Y-57750060D01*
X167900000Y-56884134D01*
X168038998Y-56549390D01*
X168039401Y-56087436D01*
X167900000Y-55750060D01*
X167900000Y-54884134D01*
X168038998Y-54549390D01*
X168039401Y-54087436D01*
X167900000Y-53750060D01*
X167900000Y-53192202D01*
X168449814Y-53192682D01*
X169047286Y-52945812D01*
X169504805Y-52489091D01*
X169752718Y-51892051D01*
X169753282Y-51245586D01*
X169506412Y-50648114D01*
X169049691Y-50190595D01*
X168452651Y-49942682D01*
X167900000Y-49942200D01*
X167900000Y-45991000D01*
X192293000Y-45991000D01*
X192293000Y-77741000D01*
X192293000Y-77741000D01*
G37*
X192293000Y-77741000D02*
X184322172Y-77741000D01*
X188606586Y-73456587D01*
X188675291Y-73353763D01*
X188676007Y-73354481D01*
X189135269Y-73545183D01*
X189632550Y-73545617D01*
X190092143Y-73355716D01*
X190444081Y-73004393D01*
X190634783Y-72545131D01*
X190635217Y-72047850D01*
X190445316Y-71588257D01*
X190093993Y-71236319D01*
X189634731Y-71045617D01*
X189137450Y-71045183D01*
X188775000Y-71194945D01*
X188775000Y-65895586D01*
X189135269Y-66045183D01*
X189632550Y-66045617D01*
X190092143Y-65855716D01*
X190444081Y-65504393D01*
X190634783Y-65045131D01*
X190635217Y-64547850D01*
X190445316Y-64088257D01*
X190093993Y-63736319D01*
X189634731Y-63545617D01*
X189137450Y-63545183D01*
X188775000Y-63694945D01*
X188775000Y-59298586D01*
X189135269Y-59448183D01*
X189632550Y-59448617D01*
X190092143Y-59258716D01*
X190444081Y-58907393D01*
X190634783Y-58448131D01*
X190635217Y-57950850D01*
X190445316Y-57491257D01*
X190093993Y-57139319D01*
X189634731Y-56948617D01*
X189137450Y-56948183D01*
X188775000Y-57097945D01*
X188775000Y-51798586D01*
X189135269Y-51948183D01*
X189632550Y-51948617D01*
X190092143Y-51758716D01*
X190444081Y-51407393D01*
X190634783Y-50948131D01*
X190635217Y-50450850D01*
X190445316Y-49991257D01*
X190093993Y-49639319D01*
X189634731Y-49448617D01*
X189137450Y-49448183D01*
X188677857Y-49638084D01*
X188673050Y-49642883D01*
X188606586Y-49543413D01*
X186506586Y-47443414D01*
X186320043Y-47318769D01*
X186307047Y-47316184D01*
X186100000Y-47275000D01*
X178300000Y-47275000D01*
X178092953Y-47316184D01*
X178079957Y-47318769D01*
X177893413Y-47443414D01*
X176843414Y-48493414D01*
X176718769Y-48679957D01*
X176675000Y-48900000D01*
X176675000Y-55743400D01*
X176705150Y-55894975D01*
X176718769Y-55963443D01*
X176843414Y-56149986D01*
X178395285Y-57701857D01*
X178305243Y-57918701D01*
X178304757Y-58475656D01*
X178517445Y-58990400D01*
X178910928Y-59384570D01*
X179425301Y-59598157D01*
X179982256Y-59598643D01*
X180497000Y-59385955D01*
X180891170Y-58992472D01*
X180954893Y-58839012D01*
X181017445Y-58990400D01*
X181410928Y-59384570D01*
X181925301Y-59598157D01*
X182482256Y-59598643D01*
X182997000Y-59385955D01*
X183391170Y-58992472D01*
X183604757Y-58478099D01*
X183605243Y-57921144D01*
X183392555Y-57406400D01*
X182999072Y-57012230D01*
X182845612Y-56948507D01*
X182997000Y-56885955D01*
X183391170Y-56492472D01*
X183604757Y-55978099D01*
X183605243Y-55421144D01*
X183598674Y-55405246D01*
X183925000Y-55731572D01*
X183925000Y-68202228D01*
X183906589Y-68183817D01*
X183906587Y-68183814D01*
X183514715Y-67791943D01*
X183604757Y-67575099D01*
X183605243Y-67018144D01*
X183392555Y-66503400D01*
X182999072Y-66109230D01*
X182845612Y-66045507D01*
X182997000Y-65982955D01*
X183391170Y-65589472D01*
X183604757Y-65075099D01*
X183605243Y-64518144D01*
X183392555Y-64003400D01*
X182999072Y-63609230D01*
X182484699Y-63395643D01*
X181927744Y-63395157D01*
X181708514Y-63485741D01*
X180916186Y-62693414D01*
X180729643Y-62568769D01*
X180509600Y-62525000D01*
X177800000Y-62525000D01*
X177579957Y-62568769D01*
X177425000Y-62672309D01*
X177425000Y-61550000D01*
X177381231Y-61329957D01*
X177348423Y-61280857D01*
X177256587Y-61143414D01*
X176456586Y-60343414D01*
X176270043Y-60218769D01*
X176257550Y-60216284D01*
X176050000Y-60175000D01*
X175127123Y-60175000D01*
X175032115Y-60079826D01*
X174719817Y-59950148D01*
X174381666Y-59949853D01*
X174069143Y-60078985D01*
X173829826Y-60317885D01*
X173700148Y-60630183D01*
X173700087Y-60699956D01*
X173581666Y-60699853D01*
X173575000Y-60702607D01*
X173575000Y-54989400D01*
X173531231Y-54769357D01*
X173516103Y-54746716D01*
X173406586Y-54582813D01*
X172505011Y-53681239D01*
X172538998Y-53599390D01*
X172539401Y-53137436D01*
X172362991Y-52710492D01*
X172036626Y-52383557D01*
X171609990Y-52206402D01*
X171148036Y-52205999D01*
X170721092Y-52382409D01*
X170394157Y-52708774D01*
X170217002Y-53135410D01*
X170216628Y-53563874D01*
X170036626Y-53383557D01*
X169609990Y-53206402D01*
X169148036Y-53205999D01*
X168721092Y-53382409D01*
X168394157Y-53708774D01*
X168217002Y-54135410D01*
X168216599Y-54597364D01*
X168393009Y-55024308D01*
X168719374Y-55351243D01*
X168757851Y-55367220D01*
X168721092Y-55382409D01*
X168394157Y-55708774D01*
X168217002Y-56135410D01*
X168216599Y-56597364D01*
X168393009Y-57024308D01*
X168719374Y-57351243D01*
X168757851Y-57367220D01*
X168721092Y-57382409D01*
X168394157Y-57708774D01*
X168217002Y-58135410D01*
X168216599Y-58597364D01*
X168393009Y-59024308D01*
X168467361Y-59098790D01*
X168452651Y-59092682D01*
X167900000Y-59092200D01*
X167900000Y-58884134D01*
X168038998Y-58549390D01*
X168039401Y-58087436D01*
X167900000Y-57750060D01*
X167900000Y-56884134D01*
X168038998Y-56549390D01*
X168039401Y-56087436D01*
X167900000Y-55750060D01*
X167900000Y-54884134D01*
X168038998Y-54549390D01*
X168039401Y-54087436D01*
X167900000Y-53750060D01*
X167900000Y-53192202D01*
X168449814Y-53192682D01*
X169047286Y-52945812D01*
X169504805Y-52489091D01*
X169752718Y-51892051D01*
X169753282Y-51245586D01*
X169506412Y-50648114D01*
X169049691Y-50190595D01*
X168452651Y-49942682D01*
X167900000Y-49942200D01*
X167900000Y-45991000D01*
X192293000Y-45991000D01*
X192293000Y-77741000D01*
G36*
X138380025Y-55119975D02*
X138607121Y-55271716D01*
X138875000Y-55325000D01*
X143168824Y-55325000D01*
X143125148Y-55430183D01*
X143124853Y-55768334D01*
X143253985Y-56080857D01*
X143492885Y-56320174D01*
X143805183Y-56449852D01*
X143834928Y-56449878D01*
X143880024Y-56494974D01*
X144180023Y-56794972D01*
X144180025Y-56794975D01*
X144407122Y-56946716D01*
X144675000Y-57000000D01*
X146287868Y-57000000D01*
X149068934Y-59781066D01*
X149117597Y-59813582D01*
X149175000Y-59825000D01*
X153962868Y-59825000D01*
X156493934Y-62356066D01*
X156542597Y-62388582D01*
X156600000Y-62400000D01*
X158148276Y-62400000D01*
X158588000Y-62839724D01*
X158588000Y-72285334D01*
X158458419Y-72311109D01*
X158309568Y-72410568D01*
X158210109Y-72559419D01*
X158175184Y-72735000D01*
X158175184Y-74043000D01*
X158210109Y-74218581D01*
X158309568Y-74367432D01*
X158458419Y-74466891D01*
X158634000Y-74501816D01*
X159942000Y-74501816D01*
X160117581Y-74466891D01*
X160266432Y-74367432D01*
X160365891Y-74218581D01*
X160400816Y-74043000D01*
X160400816Y-72735000D01*
X160365891Y-72559419D01*
X160266432Y-72410568D01*
X160117581Y-72311109D01*
X159988000Y-72285334D01*
X159988000Y-63108337D01*
X161200000Y-64320337D01*
X161200000Y-74225000D01*
X161253284Y-74492879D01*
X161405025Y-74719975D01*
X163180025Y-76494975D01*
X163407121Y-76646716D01*
X163675000Y-76700000D01*
X164500000Y-76700000D01*
X164767879Y-76646716D01*
X164994975Y-76494975D01*
X167372975Y-74116975D01*
X167524716Y-73889879D01*
X167525000Y-73888451D01*
X167525000Y-74890000D01*
X167558136Y-75056586D01*
X167568769Y-75110043D01*
X167693414Y-75296586D01*
X169683414Y-77286586D01*
X169869957Y-77411231D01*
X170090000Y-77455000D01*
X170931828Y-77455000D01*
X171217827Y-77741000D01*
X157000000Y-77741000D01*
X157000000Y-64700000D01*
X156988582Y-64642597D01*
X156956066Y-64593934D01*
X154981066Y-62618934D01*
X154932403Y-62586418D01*
X154875000Y-62575000D01*
X145687132Y-62575000D01*
X137187132Y-54075000D01*
X137335050Y-54075000D01*
X138380025Y-55119975D01*
X138380025Y-55119975D01*
G37*
X138380025Y-55119975D02*
X138607121Y-55271716D01*
X138875000Y-55325000D01*
X143168824Y-55325000D01*
X143125148Y-55430183D01*
X143124853Y-55768334D01*
X143253985Y-56080857D01*
X143492885Y-56320174D01*
X143805183Y-56449852D01*
X143834928Y-56449878D01*
X143880024Y-56494974D01*
X144180023Y-56794972D01*
X144180025Y-56794975D01*
X144407122Y-56946716D01*
X144675000Y-57000000D01*
X146287868Y-57000000D01*
X149068934Y-59781066D01*
X149117597Y-59813582D01*
X149175000Y-59825000D01*
X153962868Y-59825000D01*
X156493934Y-62356066D01*
X156542597Y-62388582D01*
X156600000Y-62400000D01*
X158148276Y-62400000D01*
X158588000Y-62839724D01*
X158588000Y-72285334D01*
X158458419Y-72311109D01*
X158309568Y-72410568D01*
X158210109Y-72559419D01*
X158175184Y-72735000D01*
X158175184Y-74043000D01*
X158210109Y-74218581D01*
X158309568Y-74367432D01*
X158458419Y-74466891D01*
X158634000Y-74501816D01*
X159942000Y-74501816D01*
X160117581Y-74466891D01*
X160266432Y-74367432D01*
X160365891Y-74218581D01*
X160400816Y-74043000D01*
X160400816Y-72735000D01*
X160365891Y-72559419D01*
X160266432Y-72410568D01*
X160117581Y-72311109D01*
X159988000Y-72285334D01*
X159988000Y-63108337D01*
X161200000Y-64320337D01*
X161200000Y-74225000D01*
X161253284Y-74492879D01*
X161405025Y-74719975D01*
X163180025Y-76494975D01*
X163407121Y-76646716D01*
X163675000Y-76700000D01*
X164500000Y-76700000D01*
X164767879Y-76646716D01*
X164994975Y-76494975D01*
X167372975Y-74116975D01*
X167524716Y-73889879D01*
X167525000Y-73888451D01*
X167525000Y-74890000D01*
X167558136Y-75056586D01*
X167568769Y-75110043D01*
X167693414Y-75296586D01*
X169683414Y-77286586D01*
X169869957Y-77411231D01*
X170090000Y-77455000D01*
X170931828Y-77455000D01*
X171217827Y-77741000D01*
X157000000Y-77741000D01*
X157000000Y-64700000D01*
X156988582Y-64642597D01*
X156956066Y-64593934D01*
X154981066Y-62618934D01*
X154932403Y-62586418D01*
X154875000Y-62575000D01*
X145687132Y-62575000D01*
X137187132Y-54075000D01*
X137335050Y-54075000D01*
X138380025Y-55119975D01*
G36*
X163894157Y-62658774D02*
X163717002Y-63085410D01*
X163716599Y-63547364D01*
X163893009Y-63974308D01*
X164219374Y-64301243D01*
X164386681Y-64370715D01*
X164283153Y-64413598D01*
X164211034Y-64579724D01*
X164878000Y-65246689D01*
X165544966Y-64579724D01*
X165472847Y-64413598D01*
X165368409Y-64371187D01*
X165534908Y-64302391D01*
X165716971Y-64120645D01*
X165716599Y-64547364D01*
X165893009Y-64974308D01*
X166219374Y-65301243D01*
X166257851Y-65317220D01*
X166221092Y-65332409D01*
X165894157Y-65658774D01*
X165717002Y-66085410D01*
X165716628Y-66513874D01*
X165536626Y-66333557D01*
X165369319Y-66264085D01*
X165472847Y-66221202D01*
X165544966Y-66055076D01*
X164878000Y-65388111D01*
X164211034Y-66055076D01*
X164283153Y-66221202D01*
X164387591Y-66263613D01*
X164221092Y-66332409D01*
X163894157Y-66658774D01*
X163717002Y-67085410D01*
X163716599Y-67547364D01*
X163893009Y-67974308D01*
X164219374Y-68301243D01*
X164257851Y-68317220D01*
X164221092Y-68332409D01*
X163894157Y-68658774D01*
X163717002Y-69085410D01*
X163716599Y-69547364D01*
X163893009Y-69974308D01*
X164219374Y-70301243D01*
X164257851Y-70317220D01*
X164221092Y-70332409D01*
X163894157Y-70658774D01*
X163717002Y-71085410D01*
X163716599Y-71547364D01*
X163893009Y-71974308D01*
X164219374Y-72301243D01*
X164646010Y-72478398D01*
X165107964Y-72478801D01*
X165534908Y-72302391D01*
X165716971Y-72120645D01*
X165716599Y-72547364D01*
X165893009Y-72974308D01*
X166178000Y-73259797D01*
X166178000Y-73332050D01*
X164210050Y-75300000D01*
X163964950Y-75300000D01*
X162600000Y-73935050D01*
X162600000Y-65113703D01*
X163815358Y-65113703D01*
X163818295Y-65535864D01*
X163974198Y-65912247D01*
X164140324Y-65984366D01*
X164807289Y-65317400D01*
X164948711Y-65317400D01*
X165615676Y-65984366D01*
X165781802Y-65912247D01*
X165940642Y-65521097D01*
X165937705Y-65098936D01*
X165781802Y-64722553D01*
X165615676Y-64650434D01*
X164948711Y-65317400D01*
X164807289Y-65317400D01*
X164140324Y-64650434D01*
X163974198Y-64722553D01*
X163815358Y-65113703D01*
X162600000Y-65113703D01*
X162600000Y-64030388D01*
X162546716Y-63762510D01*
X162394975Y-63535413D01*
X162394972Y-63535411D01*
X161259561Y-62400000D01*
X164153383Y-62400000D01*
X163894157Y-62658774D01*
X163894157Y-62658774D01*
G37*
X163894157Y-62658774D02*
X163717002Y-63085410D01*
X163716599Y-63547364D01*
X163893009Y-63974308D01*
X164219374Y-64301243D01*
X164386681Y-64370715D01*
X164283153Y-64413598D01*
X164211034Y-64579724D01*
X164878000Y-65246689D01*
X165544966Y-64579724D01*
X165472847Y-64413598D01*
X165368409Y-64371187D01*
X165534908Y-64302391D01*
X165716971Y-64120645D01*
X165716599Y-64547364D01*
X165893009Y-64974308D01*
X166219374Y-65301243D01*
X166257851Y-65317220D01*
X166221092Y-65332409D01*
X165894157Y-65658774D01*
X165717002Y-66085410D01*
X165716628Y-66513874D01*
X165536626Y-66333557D01*
X165369319Y-66264085D01*
X165472847Y-66221202D01*
X165544966Y-66055076D01*
X164878000Y-65388111D01*
X164211034Y-66055076D01*
X164283153Y-66221202D01*
X164387591Y-66263613D01*
X164221092Y-66332409D01*
X163894157Y-66658774D01*
X163717002Y-67085410D01*
X163716599Y-67547364D01*
X163893009Y-67974308D01*
X164219374Y-68301243D01*
X164257851Y-68317220D01*
X164221092Y-68332409D01*
X163894157Y-68658774D01*
X163717002Y-69085410D01*
X163716599Y-69547364D01*
X163893009Y-69974308D01*
X164219374Y-70301243D01*
X164257851Y-70317220D01*
X164221092Y-70332409D01*
X163894157Y-70658774D01*
X163717002Y-71085410D01*
X163716599Y-71547364D01*
X163893009Y-71974308D01*
X164219374Y-72301243D01*
X164646010Y-72478398D01*
X165107964Y-72478801D01*
X165534908Y-72302391D01*
X165716971Y-72120645D01*
X165716599Y-72547364D01*
X165893009Y-72974308D01*
X166178000Y-73259797D01*
X166178000Y-73332050D01*
X164210050Y-75300000D01*
X163964950Y-75300000D01*
X162600000Y-73935050D01*
X162600000Y-65113703D01*
X163815358Y-65113703D01*
X163818295Y-65535864D01*
X163974198Y-65912247D01*
X164140324Y-65984366D01*
X164807289Y-65317400D01*
X164948711Y-65317400D01*
X165615676Y-65984366D01*
X165781802Y-65912247D01*
X165940642Y-65521097D01*
X165937705Y-65098936D01*
X165781802Y-64722553D01*
X165615676Y-64650434D01*
X164948711Y-65317400D01*
X164807289Y-65317400D01*
X164140324Y-64650434D01*
X163974198Y-64722553D01*
X163815358Y-65113703D01*
X162600000Y-65113703D01*
X162600000Y-64030388D01*
X162546716Y-63762510D01*
X162394975Y-63535413D01*
X162394972Y-63535411D01*
X161259561Y-62400000D01*
X164153383Y-62400000D01*
X163894157Y-62658774D01*
G36*
X187125000Y-50488173D02*
X187125000Y-72611827D01*
X186575000Y-73161827D01*
X186575000Y-51950000D01*
X186531231Y-51729957D01*
X186406586Y-51543414D01*
X183788172Y-48925000D01*
X185561828Y-48925000D01*
X187125000Y-50488173D01*
X187125000Y-50488173D01*
G37*
X187125000Y-50488173D02*
X187125000Y-72611827D01*
X186575000Y-73161827D01*
X186575000Y-51950000D01*
X186531231Y-51729957D01*
X186406586Y-51543414D01*
X183788172Y-48925000D01*
X185561828Y-48925000D01*
X187125000Y-50488173D01*
G36*
X175775000Y-62138173D02*
X175775000Y-68940400D01*
X175803844Y-69085410D01*
X175818769Y-69160443D01*
X175943414Y-69346986D01*
X178395285Y-71798857D01*
X178305243Y-72015701D01*
X178304757Y-72572656D01*
X178512321Y-73075000D01*
X175388173Y-73075000D01*
X174725000Y-72411828D01*
X174725000Y-63000000D01*
X174681231Y-62779957D01*
X174632206Y-62706586D01*
X174556586Y-62593413D01*
X174232524Y-62269351D01*
X174377127Y-62125000D01*
X175761828Y-62125000D01*
X175775000Y-62138173D01*
X175775000Y-62138173D01*
G37*
X175775000Y-62138173D02*
X175775000Y-68940400D01*
X175803844Y-69085410D01*
X175818769Y-69160443D01*
X175943414Y-69346986D01*
X178395285Y-71798857D01*
X178305243Y-72015701D01*
X178304757Y-72572656D01*
X178512321Y-73075000D01*
X175388173Y-73075000D01*
X174725000Y-72411828D01*
X174725000Y-63000000D01*
X174681231Y-62779957D01*
X174632206Y-62706586D01*
X174556586Y-62593413D01*
X174232524Y-62269351D01*
X174377127Y-62125000D01*
X175761828Y-62125000D01*
X175775000Y-62138173D01*
G36*
X141976109Y-47694419D02*
X141941184Y-47870000D01*
X141941184Y-49370000D01*
X141976109Y-49545581D01*
X142075568Y-49694432D01*
X142224419Y-49793891D01*
X142400000Y-49828816D01*
X143150000Y-49828816D01*
X143150000Y-53100000D01*
X139539950Y-53100000D01*
X139350000Y-52910050D01*
X139350000Y-49818870D01*
X139400000Y-49828816D01*
X140400000Y-49828816D01*
X140575581Y-49793891D01*
X140724432Y-49694432D01*
X140823891Y-49545581D01*
X140858816Y-49370000D01*
X140858816Y-47870000D01*
X140823891Y-47694419D01*
X140794211Y-47650000D01*
X142005789Y-47650000D01*
X141976109Y-47694419D01*
X141976109Y-47694419D01*
G37*
X141976109Y-47694419D02*
X141941184Y-47870000D01*
X141941184Y-49370000D01*
X141976109Y-49545581D01*
X142075568Y-49694432D01*
X142224419Y-49793891D01*
X142400000Y-49828816D01*
X143150000Y-49828816D01*
X143150000Y-53100000D01*
X139539950Y-53100000D01*
X139350000Y-52910050D01*
X139350000Y-49818870D01*
X139400000Y-49828816D01*
X140400000Y-49828816D01*
X140575581Y-49793891D01*
X140724432Y-49694432D01*
X140823891Y-49545581D01*
X140858816Y-49370000D01*
X140858816Y-47870000D01*
X140823891Y-47694419D01*
X140794211Y-47650000D01*
X142005789Y-47650000D01*
X141976109Y-47694419D01*
G36*
X137950000Y-52766451D02*
X137892879Y-52728284D01*
X137625000Y-52675000D01*
X136394416Y-52675000D01*
X136453807Y-52615712D01*
X136659765Y-52119710D01*
X136660234Y-51582647D01*
X136455142Y-51086285D01*
X136075712Y-50706193D01*
X136010000Y-50678907D01*
X136010000Y-50579950D01*
X137269949Y-49320000D01*
X137950000Y-49320000D01*
X137950000Y-52766451D01*
X137950000Y-52766451D01*
G37*
X137950000Y-52766451D02*
X137892879Y-52728284D01*
X137625000Y-52675000D01*
X136394416Y-52675000D01*
X136453807Y-52615712D01*
X136659765Y-52119710D01*
X136660234Y-51582647D01*
X136455142Y-51086285D01*
X136075712Y-50706193D01*
X136010000Y-50678907D01*
X136010000Y-50579950D01*
X137269949Y-49320000D01*
X137950000Y-49320000D01*
X137950000Y-52766451D01*
G36*
X138100000Y-47920000D02*
X136980005Y-47920000D01*
X136980000Y-47919999D01*
X136712121Y-47973284D01*
X136664618Y-48005025D01*
X136485025Y-48125025D01*
X136485023Y-48125028D01*
X134815025Y-49795025D01*
X134663284Y-50022121D01*
X134627786Y-50200581D01*
X134610000Y-50290000D01*
X134610000Y-50678532D01*
X134546285Y-50704858D01*
X134166193Y-51084288D01*
X133985783Y-51518764D01*
X133829719Y-51141962D01*
X133829679Y-51141902D01*
X133643938Y-51046773D01*
X133010711Y-51680000D01*
X132869289Y-51680000D01*
X133573227Y-50976062D01*
X133478098Y-50790321D01*
X133018676Y-50600007D01*
X132521395Y-50599993D01*
X132061962Y-50790281D01*
X132061902Y-50790321D01*
X131966773Y-50976062D01*
X132670711Y-51680000D01*
X132529289Y-51680000D01*
X131896062Y-51046773D01*
X131710321Y-51141902D01*
X131625000Y-51347868D01*
X131625000Y-47650000D01*
X138100000Y-47650000D01*
X138100000Y-47920000D01*
X138100000Y-47920000D01*
G37*
X138100000Y-47920000D02*
X136980005Y-47920000D01*
X136980000Y-47919999D01*
X136712121Y-47973284D01*
X136664618Y-48005025D01*
X136485025Y-48125025D01*
X136485023Y-48125028D01*
X134815025Y-49795025D01*
X134663284Y-50022121D01*
X134627786Y-50200581D01*
X134610000Y-50290000D01*
X134610000Y-50678532D01*
X134546285Y-50704858D01*
X134166193Y-51084288D01*
X133985783Y-51518764D01*
X133829719Y-51141962D01*
X133829679Y-51141902D01*
X133643938Y-51046773D01*
X133010711Y-51680000D01*
X132869289Y-51680000D01*
X133573227Y-50976062D01*
X133478098Y-50790321D01*
X133018676Y-50600007D01*
X132521395Y-50599993D01*
X132061962Y-50790281D01*
X132061902Y-50790321D01*
X131966773Y-50976062D01*
X132670711Y-51680000D01*
X132529289Y-51680000D01*
X131896062Y-51046773D01*
X131710321Y-51141902D01*
X131625000Y-51347868D01*
X131625000Y-47650000D01*
X138100000Y-47650000D01*
X138100000Y-47920000D01*
G36*
X162650000Y-55364949D02*
X162650000Y-55789400D01*
X162703284Y-56057279D01*
X162855025Y-56284375D01*
X163716949Y-57146299D01*
X163716599Y-57547364D01*
X163893009Y-57974308D01*
X164219374Y-58301243D01*
X164386681Y-58370715D01*
X164283153Y-58413598D01*
X164211034Y-58579724D01*
X164878000Y-59246689D01*
X165544966Y-58579724D01*
X165472847Y-58413598D01*
X165368409Y-58371187D01*
X165534908Y-58302391D01*
X165716971Y-58120645D01*
X165716599Y-58547364D01*
X165800000Y-58749209D01*
X165800000Y-58766487D01*
X165781802Y-58722553D01*
X165615676Y-58650434D01*
X164948711Y-59317400D01*
X165615676Y-59984366D01*
X165781802Y-59912247D01*
X165800000Y-59867434D01*
X165800000Y-60425000D01*
X165114950Y-60425000D01*
X165067258Y-60377308D01*
X165096464Y-60377105D01*
X165472847Y-60221202D01*
X165544966Y-60055076D01*
X164878000Y-59388111D01*
X164211034Y-60055076D01*
X164257886Y-60163000D01*
X161202950Y-60163000D01*
X160153653Y-59113703D01*
X163815358Y-59113703D01*
X163818295Y-59535864D01*
X163974198Y-59912247D01*
X164140324Y-59984366D01*
X164807289Y-59317400D01*
X164140324Y-58650434D01*
X163974198Y-58722553D01*
X163815358Y-59113703D01*
X160153653Y-59113703D01*
X160026702Y-58986752D01*
X160140259Y-58939716D01*
X160238715Y-58841259D01*
X160292000Y-58712620D01*
X160292000Y-58126500D01*
X160204500Y-58039000D01*
X159338000Y-58039000D01*
X159338000Y-58059000D01*
X159238000Y-58059000D01*
X159238000Y-58039000D01*
X159218000Y-58039000D01*
X159218000Y-57939000D01*
X159238000Y-57939000D01*
X159238000Y-57072500D01*
X159338000Y-57072500D01*
X159338000Y-57939000D01*
X160204500Y-57939000D01*
X160292000Y-57851500D01*
X160292000Y-57265380D01*
X160238715Y-57136741D01*
X160140259Y-57038284D01*
X160011619Y-56985000D01*
X159425500Y-56985000D01*
X159338000Y-57072500D01*
X159238000Y-57072500D01*
X159150500Y-56985000D01*
X158564381Y-56985000D01*
X158435741Y-57038284D01*
X158400000Y-57074025D01*
X158400000Y-56150000D01*
X158346716Y-55882122D01*
X158194975Y-55655025D01*
X158194972Y-55655023D01*
X157812583Y-55272633D01*
X157942879Y-55246716D01*
X158169975Y-55094975D01*
X159439950Y-53825000D01*
X161110050Y-53825000D01*
X162650000Y-55364949D01*
X162650000Y-55364949D01*
G37*
X162650000Y-55364949D02*
X162650000Y-55789400D01*
X162703284Y-56057279D01*
X162855025Y-56284375D01*
X163716949Y-57146299D01*
X163716599Y-57547364D01*
X163893009Y-57974308D01*
X164219374Y-58301243D01*
X164386681Y-58370715D01*
X164283153Y-58413598D01*
X164211034Y-58579724D01*
X164878000Y-59246689D01*
X165544966Y-58579724D01*
X165472847Y-58413598D01*
X165368409Y-58371187D01*
X165534908Y-58302391D01*
X165716971Y-58120645D01*
X165716599Y-58547364D01*
X165800000Y-58749209D01*
X165800000Y-58766487D01*
X165781802Y-58722553D01*
X165615676Y-58650434D01*
X164948711Y-59317400D01*
X165615676Y-59984366D01*
X165781802Y-59912247D01*
X165800000Y-59867434D01*
X165800000Y-60425000D01*
X165114950Y-60425000D01*
X165067258Y-60377308D01*
X165096464Y-60377105D01*
X165472847Y-60221202D01*
X165544966Y-60055076D01*
X164878000Y-59388111D01*
X164211034Y-60055076D01*
X164257886Y-60163000D01*
X161202950Y-60163000D01*
X160153653Y-59113703D01*
X163815358Y-59113703D01*
X163818295Y-59535864D01*
X163974198Y-59912247D01*
X164140324Y-59984366D01*
X164807289Y-59317400D01*
X164140324Y-58650434D01*
X163974198Y-58722553D01*
X163815358Y-59113703D01*
X160153653Y-59113703D01*
X160026702Y-58986752D01*
X160140259Y-58939716D01*
X160238715Y-58841259D01*
X160292000Y-58712620D01*
X160292000Y-58126500D01*
X160204500Y-58039000D01*
X159338000Y-58039000D01*
X159338000Y-58059000D01*
X159238000Y-58059000D01*
X159238000Y-58039000D01*
X159218000Y-58039000D01*
X159218000Y-57939000D01*
X159238000Y-57939000D01*
X159238000Y-57072500D01*
X159338000Y-57072500D01*
X159338000Y-57939000D01*
X160204500Y-57939000D01*
X160292000Y-57851500D01*
X160292000Y-57265380D01*
X160238715Y-57136741D01*
X160140259Y-57038284D01*
X160011619Y-56985000D01*
X159425500Y-56985000D01*
X159338000Y-57072500D01*
X159238000Y-57072500D01*
X159150500Y-56985000D01*
X158564381Y-56985000D01*
X158435741Y-57038284D01*
X158400000Y-57074025D01*
X158400000Y-56150000D01*
X158346716Y-55882122D01*
X158194975Y-55655025D01*
X158194972Y-55655023D01*
X157812583Y-55272633D01*
X157942879Y-55246716D01*
X158169975Y-55094975D01*
X159439950Y-53825000D01*
X161110050Y-53825000D01*
X162650000Y-55364949D01*
G36*
X151107121Y-46028284D02*
X150880025Y-46180025D01*
X150380025Y-46680025D01*
X150228284Y-46907121D01*
X150214782Y-46975000D01*
X150175000Y-47175000D01*
X150175000Y-47972746D01*
X150154826Y-47992885D01*
X150025148Y-48305183D01*
X150024853Y-48643334D01*
X150153985Y-48955857D01*
X150392885Y-49195174D01*
X150705183Y-49324852D01*
X151043334Y-49325147D01*
X151355857Y-49196015D01*
X151595174Y-48957115D01*
X151608509Y-48925000D01*
X151887500Y-48925000D01*
X151975000Y-48837500D01*
X151975000Y-48225000D01*
X152075000Y-48225000D01*
X152075000Y-48837500D01*
X152162500Y-48925000D01*
X152469620Y-48925000D01*
X152598259Y-48871715D01*
X152696716Y-48773259D01*
X152750000Y-48644619D01*
X152750000Y-48312500D01*
X152662500Y-48225000D01*
X152075000Y-48225000D01*
X151975000Y-48225000D01*
X151955000Y-48225000D01*
X151955000Y-48125000D01*
X151975000Y-48125000D01*
X151975000Y-48105000D01*
X152075000Y-48105000D01*
X152075000Y-48125000D01*
X152662500Y-48125000D01*
X152750000Y-48037500D01*
X152750000Y-47705381D01*
X152706982Y-47601525D01*
X152825000Y-47625000D01*
X152825000Y-47825000D01*
X152878284Y-48092879D01*
X153030025Y-48319975D01*
X153056569Y-48346519D01*
X152971109Y-48474419D01*
X152936184Y-48650000D01*
X152936184Y-49300000D01*
X152971109Y-49475581D01*
X153070568Y-49624432D01*
X153219419Y-49723891D01*
X153395000Y-49758816D01*
X154455000Y-49758816D01*
X154630581Y-49723891D01*
X154779432Y-49624432D01*
X154878891Y-49475581D01*
X154913816Y-49300000D01*
X154913816Y-48650000D01*
X154878891Y-48474419D01*
X154779432Y-48325568D01*
X154630581Y-48226109D01*
X154625000Y-48224999D01*
X154598720Y-48092879D01*
X154571716Y-47957121D01*
X154419975Y-47730025D01*
X154225000Y-47535050D01*
X154225000Y-47219321D01*
X154233816Y-47175000D01*
X154233816Y-46675000D01*
X154225000Y-46630679D01*
X154225000Y-46325000D01*
X154171716Y-46057122D01*
X154127535Y-45991000D01*
X155155874Y-45991000D01*
X155078284Y-46107122D01*
X155025000Y-46375000D01*
X155025000Y-46630679D01*
X155016184Y-46675000D01*
X155016184Y-47175000D01*
X155025000Y-47219321D01*
X155025000Y-47775000D01*
X155078284Y-48042879D01*
X155230025Y-48269975D01*
X155279590Y-48319540D01*
X155270568Y-48325568D01*
X155171109Y-48474419D01*
X155136184Y-48650000D01*
X155136184Y-49300000D01*
X155171109Y-49475581D01*
X155245000Y-49586167D01*
X155245000Y-49787500D01*
X155332500Y-49875000D01*
X156075000Y-49875000D01*
X156075000Y-49855000D01*
X156175000Y-49855000D01*
X156175000Y-49875000D01*
X156917500Y-49875000D01*
X157005000Y-49787500D01*
X157005000Y-49659087D01*
X157192879Y-49621716D01*
X157291140Y-49556060D01*
X157250000Y-49655381D01*
X157250000Y-49987500D01*
X157337500Y-50075000D01*
X157925000Y-50075000D01*
X157925000Y-50055000D01*
X158025000Y-50055000D01*
X158025000Y-50075000D01*
X158612500Y-50075000D01*
X158700000Y-49987500D01*
X158700000Y-49655381D01*
X158646716Y-49526741D01*
X158551528Y-49431554D01*
X158575552Y-49415502D01*
X159592525Y-50432475D01*
X159819622Y-50584216D01*
X160087500Y-50637500D01*
X160566184Y-50637500D01*
X160566184Y-50712500D01*
X160601109Y-50888081D01*
X160700568Y-51036932D01*
X160849419Y-51136391D01*
X161025000Y-51171316D01*
X161625000Y-51171316D01*
X161800581Y-51136391D01*
X161928087Y-51051194D01*
X161955381Y-51062500D01*
X162187500Y-51062500D01*
X162275000Y-50975000D01*
X162275000Y-49987500D01*
X162375000Y-49987500D01*
X162375000Y-50975000D01*
X162462500Y-51062500D01*
X162694619Y-51062500D01*
X162823259Y-51009216D01*
X162921715Y-50910759D01*
X162975000Y-50782120D01*
X162975000Y-50075000D01*
X162887500Y-49987500D01*
X162375000Y-49987500D01*
X162275000Y-49987500D01*
X162255000Y-49987500D01*
X162255000Y-49887500D01*
X162275000Y-49887500D01*
X162275000Y-49867500D01*
X162375000Y-49867500D01*
X162375000Y-49887500D01*
X162887500Y-49887500D01*
X162975000Y-49800000D01*
X162975000Y-49092880D01*
X162926464Y-48975705D01*
X162995174Y-48907115D01*
X163051563Y-48771316D01*
X164225000Y-48771316D01*
X164400581Y-48736391D01*
X164549432Y-48636932D01*
X164648891Y-48488081D01*
X164683816Y-48312500D01*
X164683816Y-46512500D01*
X164648891Y-46336919D01*
X164549432Y-46188068D01*
X164400581Y-46088609D01*
X164225000Y-46053684D01*
X163025000Y-46053684D01*
X162849419Y-46088609D01*
X162700568Y-46188068D01*
X162601109Y-46336919D01*
X162566184Y-46512500D01*
X162566184Y-47625544D01*
X162444817Y-47575148D01*
X162106666Y-47574853D01*
X161794143Y-47703985D01*
X161773091Y-47725000D01*
X161625000Y-47725000D01*
X161357121Y-47778284D01*
X161130025Y-47930025D01*
X161083816Y-47976234D01*
X161083816Y-46512500D01*
X161048891Y-46336919D01*
X160949432Y-46188068D01*
X160800581Y-46088609D01*
X160625000Y-46053684D01*
X159425000Y-46053684D01*
X159249419Y-46088609D01*
X159100568Y-46188068D01*
X159001109Y-46336919D01*
X158966184Y-46512500D01*
X158966184Y-47963029D01*
X158775000Y-47925000D01*
X158690757Y-47925000D01*
X158674432Y-47900568D01*
X158525581Y-47801109D01*
X158350000Y-47766184D01*
X157600000Y-47766184D01*
X157424419Y-47801109D01*
X157275568Y-47900568D01*
X157256829Y-47928614D01*
X157007121Y-47978284D01*
X156811827Y-48108775D01*
X156771716Y-47907122D01*
X156619975Y-47680025D01*
X156619972Y-47680023D01*
X156425000Y-47485051D01*
X156425000Y-47219321D01*
X156433816Y-47175000D01*
X156433816Y-46675000D01*
X156425000Y-46630679D01*
X156425000Y-46375000D01*
X156371716Y-46107122D01*
X156294126Y-45991000D01*
X165800000Y-45991000D01*
X165800000Y-52597391D01*
X165536626Y-52333557D01*
X165109990Y-52156402D01*
X164706600Y-52156050D01*
X164550000Y-51999450D01*
X164550000Y-50351992D01*
X164720174Y-50182115D01*
X164849852Y-49869817D01*
X164850147Y-49531666D01*
X164721015Y-49219143D01*
X164482115Y-48979826D01*
X164169817Y-48850148D01*
X163831666Y-48849853D01*
X163519143Y-48978985D01*
X163279826Y-49217885D01*
X163150148Y-49530183D01*
X163149853Y-49868334D01*
X163150000Y-49868690D01*
X163150000Y-52289400D01*
X163203284Y-52557279D01*
X163355025Y-52784375D01*
X163716949Y-53146299D01*
X163716931Y-53166381D01*
X162305575Y-51755025D01*
X162078479Y-51603284D01*
X161810600Y-51550000D01*
X158775000Y-51550000D01*
X158507122Y-51603284D01*
X158352518Y-51706587D01*
X158280025Y-51755025D01*
X158000000Y-52035050D01*
X158000000Y-51300000D01*
X157956231Y-51079957D01*
X157944567Y-51062500D01*
X157831587Y-50893414D01*
X157813173Y-50875000D01*
X157837500Y-50875000D01*
X157925000Y-50787500D01*
X157925000Y-50175000D01*
X158025000Y-50175000D01*
X158025000Y-50787500D01*
X158112500Y-50875000D01*
X158419620Y-50875000D01*
X158548259Y-50821715D01*
X158646716Y-50723259D01*
X158700000Y-50594619D01*
X158700000Y-50262500D01*
X158612500Y-50175000D01*
X158025000Y-50175000D01*
X157925000Y-50175000D01*
X157337500Y-50175000D01*
X157250000Y-50262500D01*
X157250000Y-50363786D01*
X157220043Y-50343769D01*
X157033636Y-50306691D01*
X157005000Y-50263833D01*
X157005000Y-50062500D01*
X156917500Y-49975000D01*
X156175000Y-49975000D01*
X156175000Y-49995000D01*
X156075000Y-49995000D01*
X156075000Y-49975000D01*
X155332500Y-49975000D01*
X155245000Y-50062500D01*
X155245000Y-50263833D01*
X155171109Y-50374419D01*
X155136184Y-50550000D01*
X155136184Y-51200000D01*
X155171109Y-51375581D01*
X155270568Y-51524432D01*
X155419419Y-51623891D01*
X155595000Y-51658816D01*
X156655000Y-51658816D01*
X156830581Y-51623891D01*
X156850000Y-51610916D01*
X156850000Y-51766184D01*
X156500000Y-51766184D01*
X156324419Y-51801109D01*
X156175568Y-51900568D01*
X156076109Y-52049419D01*
X156041184Y-52225000D01*
X156041184Y-53050000D01*
X155958816Y-53050000D01*
X155958816Y-52225000D01*
X155923891Y-52049419D01*
X155824432Y-51900568D01*
X155675581Y-51801109D01*
X155500000Y-51766184D01*
X155000000Y-51766184D01*
X154824419Y-51801109D01*
X154675568Y-51900568D01*
X154583296Y-52038664D01*
X154524432Y-51950568D01*
X154375581Y-51851109D01*
X154200000Y-51816184D01*
X153400000Y-51816184D01*
X153224419Y-51851109D01*
X153075568Y-51950568D01*
X153000000Y-52063664D01*
X152924432Y-51950568D01*
X152786252Y-51858239D01*
X152799432Y-51849432D01*
X152810403Y-51833012D01*
X152945043Y-51806231D01*
X153131586Y-51681586D01*
X153201353Y-51611819D01*
X153219419Y-51623891D01*
X153395000Y-51658816D01*
X154455000Y-51658816D01*
X154630581Y-51623891D01*
X154779432Y-51524432D01*
X154878891Y-51375581D01*
X154913816Y-51200000D01*
X154913816Y-50550000D01*
X154878891Y-50374419D01*
X154779432Y-50225568D01*
X154630581Y-50126109D01*
X154455000Y-50091184D01*
X153395000Y-50091184D01*
X153219419Y-50126109D01*
X153070568Y-50225568D01*
X153004868Y-50323896D01*
X152904957Y-50343769D01*
X152718413Y-50468414D01*
X152596480Y-50590348D01*
X152475000Y-50566184D01*
X151608420Y-50566184D01*
X151529424Y-50375000D01*
X151887500Y-50375000D01*
X151975000Y-50287500D01*
X151975000Y-49825000D01*
X152075000Y-49825000D01*
X152075000Y-50287500D01*
X152162500Y-50375000D01*
X152544620Y-50375000D01*
X152673259Y-50321715D01*
X152771716Y-50223259D01*
X152825000Y-50094619D01*
X152825000Y-49912500D01*
X152737500Y-49825000D01*
X152075000Y-49825000D01*
X151975000Y-49825000D01*
X151312500Y-49825000D01*
X151225000Y-49912500D01*
X151225000Y-50041491D01*
X150944817Y-49925148D01*
X150606666Y-49924853D01*
X150469224Y-49981643D01*
X150448891Y-49879419D01*
X150349432Y-49730568D01*
X150200581Y-49631109D01*
X150025000Y-49596184D01*
X149025000Y-49596184D01*
X148849419Y-49631109D01*
X148700568Y-49730568D01*
X148601109Y-49879419D01*
X148566184Y-50055000D01*
X148566184Y-51555000D01*
X148601109Y-51730581D01*
X148700568Y-51879432D01*
X148806181Y-51950000D01*
X148555381Y-51950000D01*
X148426741Y-52003284D01*
X148328285Y-52101741D01*
X148275000Y-52230380D01*
X148275000Y-52537500D01*
X148362500Y-52625000D01*
X148975000Y-52625000D01*
X148975000Y-52605000D01*
X149075000Y-52605000D01*
X149075000Y-52625000D01*
X149095000Y-52625000D01*
X149095000Y-52725000D01*
X149075000Y-52725000D01*
X149075000Y-52745000D01*
X148975000Y-52745000D01*
X148975000Y-52725000D01*
X148362500Y-52725000D01*
X148275000Y-52812500D01*
X148275000Y-53119620D01*
X148277229Y-53125000D01*
X147772771Y-53125000D01*
X147775000Y-53119620D01*
X147775000Y-52812500D01*
X147687500Y-52725000D01*
X147075000Y-52725000D01*
X147075000Y-52745000D01*
X146975000Y-52745000D01*
X146975000Y-52725000D01*
X146955000Y-52725000D01*
X146955000Y-52625000D01*
X146975000Y-52625000D01*
X146975000Y-52605000D01*
X147075000Y-52605000D01*
X147075000Y-52625000D01*
X147687500Y-52625000D01*
X147775000Y-52537500D01*
X147775000Y-52230380D01*
X147721715Y-52101741D01*
X147623259Y-52003284D01*
X147494619Y-51950000D01*
X147243819Y-51950000D01*
X147349432Y-51879432D01*
X147448891Y-51730581D01*
X147483816Y-51555000D01*
X147483816Y-50055000D01*
X147448891Y-49879419D01*
X147349432Y-49730568D01*
X147200581Y-49631109D01*
X147025000Y-49596184D01*
X146025000Y-49596184D01*
X145849419Y-49631109D01*
X145700568Y-49730568D01*
X145601109Y-49879419D01*
X145566184Y-50055000D01*
X145566184Y-50120677D01*
X145377121Y-50158284D01*
X145150025Y-50310025D01*
X145050000Y-50410050D01*
X145050000Y-49455381D01*
X151225000Y-49455381D01*
X151225000Y-49637500D01*
X151312500Y-49725000D01*
X151975000Y-49725000D01*
X151975000Y-49262500D01*
X152075000Y-49262500D01*
X152075000Y-49725000D01*
X152737500Y-49725000D01*
X152825000Y-49637500D01*
X152825000Y-49455381D01*
X152771716Y-49326741D01*
X152673259Y-49228285D01*
X152544620Y-49175000D01*
X152162500Y-49175000D01*
X152075000Y-49262500D01*
X151975000Y-49262500D01*
X151887500Y-49175000D01*
X151505380Y-49175000D01*
X151376741Y-49228285D01*
X151278284Y-49326741D01*
X151225000Y-49455381D01*
X145050000Y-49455381D01*
X145050000Y-49140000D01*
X145027125Y-49025000D01*
X144996716Y-48872121D01*
X144975000Y-48839621D01*
X144975000Y-45991000D01*
X151294558Y-45991000D01*
X151107121Y-46028284D01*
X151107121Y-46028284D01*
G37*
X151107121Y-46028284D02*
X150880025Y-46180025D01*
X150380025Y-46680025D01*
X150228284Y-46907121D01*
X150214782Y-46975000D01*
X150175000Y-47175000D01*
X150175000Y-47972746D01*
X150154826Y-47992885D01*
X150025148Y-48305183D01*
X150024853Y-48643334D01*
X150153985Y-48955857D01*
X150392885Y-49195174D01*
X150705183Y-49324852D01*
X151043334Y-49325147D01*
X151355857Y-49196015D01*
X151595174Y-48957115D01*
X151608509Y-48925000D01*
X151887500Y-48925000D01*
X151975000Y-48837500D01*
X151975000Y-48225000D01*
X152075000Y-48225000D01*
X152075000Y-48837500D01*
X152162500Y-48925000D01*
X152469620Y-48925000D01*
X152598259Y-48871715D01*
X152696716Y-48773259D01*
X152750000Y-48644619D01*
X152750000Y-48312500D01*
X152662500Y-48225000D01*
X152075000Y-48225000D01*
X151975000Y-48225000D01*
X151955000Y-48225000D01*
X151955000Y-48125000D01*
X151975000Y-48125000D01*
X151975000Y-48105000D01*
X152075000Y-48105000D01*
X152075000Y-48125000D01*
X152662500Y-48125000D01*
X152750000Y-48037500D01*
X152750000Y-47705381D01*
X152706982Y-47601525D01*
X152825000Y-47625000D01*
X152825000Y-47825000D01*
X152878284Y-48092879D01*
X153030025Y-48319975D01*
X153056569Y-48346519D01*
X152971109Y-48474419D01*
X152936184Y-48650000D01*
X152936184Y-49300000D01*
X152971109Y-49475581D01*
X153070568Y-49624432D01*
X153219419Y-49723891D01*
X153395000Y-49758816D01*
X154455000Y-49758816D01*
X154630581Y-49723891D01*
X154779432Y-49624432D01*
X154878891Y-49475581D01*
X154913816Y-49300000D01*
X154913816Y-48650000D01*
X154878891Y-48474419D01*
X154779432Y-48325568D01*
X154630581Y-48226109D01*
X154625000Y-48224999D01*
X154598720Y-48092879D01*
X154571716Y-47957121D01*
X154419975Y-47730025D01*
X154225000Y-47535050D01*
X154225000Y-47219321D01*
X154233816Y-47175000D01*
X154233816Y-46675000D01*
X154225000Y-46630679D01*
X154225000Y-46325000D01*
X154171716Y-46057122D01*
X154127535Y-45991000D01*
X155155874Y-45991000D01*
X155078284Y-46107122D01*
X155025000Y-46375000D01*
X155025000Y-46630679D01*
X155016184Y-46675000D01*
X155016184Y-47175000D01*
X155025000Y-47219321D01*
X155025000Y-47775000D01*
X155078284Y-48042879D01*
X155230025Y-48269975D01*
X155279590Y-48319540D01*
X155270568Y-48325568D01*
X155171109Y-48474419D01*
X155136184Y-48650000D01*
X155136184Y-49300000D01*
X155171109Y-49475581D01*
X155245000Y-49586167D01*
X155245000Y-49787500D01*
X155332500Y-49875000D01*
X156075000Y-49875000D01*
X156075000Y-49855000D01*
X156175000Y-49855000D01*
X156175000Y-49875000D01*
X156917500Y-49875000D01*
X157005000Y-49787500D01*
X157005000Y-49659087D01*
X157192879Y-49621716D01*
X157291140Y-49556060D01*
X157250000Y-49655381D01*
X157250000Y-49987500D01*
X157337500Y-50075000D01*
X157925000Y-50075000D01*
X157925000Y-50055000D01*
X158025000Y-50055000D01*
X158025000Y-50075000D01*
X158612500Y-50075000D01*
X158700000Y-49987500D01*
X158700000Y-49655381D01*
X158646716Y-49526741D01*
X158551528Y-49431554D01*
X158575552Y-49415502D01*
X159592525Y-50432475D01*
X159819622Y-50584216D01*
X160087500Y-50637500D01*
X160566184Y-50637500D01*
X160566184Y-50712500D01*
X160601109Y-50888081D01*
X160700568Y-51036932D01*
X160849419Y-51136391D01*
X161025000Y-51171316D01*
X161625000Y-51171316D01*
X161800581Y-51136391D01*
X161928087Y-51051194D01*
X161955381Y-51062500D01*
X162187500Y-51062500D01*
X162275000Y-50975000D01*
X162275000Y-49987500D01*
X162375000Y-49987500D01*
X162375000Y-50975000D01*
X162462500Y-51062500D01*
X162694619Y-51062500D01*
X162823259Y-51009216D01*
X162921715Y-50910759D01*
X162975000Y-50782120D01*
X162975000Y-50075000D01*
X162887500Y-49987500D01*
X162375000Y-49987500D01*
X162275000Y-49987500D01*
X162255000Y-49987500D01*
X162255000Y-49887500D01*
X162275000Y-49887500D01*
X162275000Y-49867500D01*
X162375000Y-49867500D01*
X162375000Y-49887500D01*
X162887500Y-49887500D01*
X162975000Y-49800000D01*
X162975000Y-49092880D01*
X162926464Y-48975705D01*
X162995174Y-48907115D01*
X163051563Y-48771316D01*
X164225000Y-48771316D01*
X164400581Y-48736391D01*
X164549432Y-48636932D01*
X164648891Y-48488081D01*
X164683816Y-48312500D01*
X164683816Y-46512500D01*
X164648891Y-46336919D01*
X164549432Y-46188068D01*
X164400581Y-46088609D01*
X164225000Y-46053684D01*
X163025000Y-46053684D01*
X162849419Y-46088609D01*
X162700568Y-46188068D01*
X162601109Y-46336919D01*
X162566184Y-46512500D01*
X162566184Y-47625544D01*
X162444817Y-47575148D01*
X162106666Y-47574853D01*
X161794143Y-47703985D01*
X161773091Y-47725000D01*
X161625000Y-47725000D01*
X161357121Y-47778284D01*
X161130025Y-47930025D01*
X161083816Y-47976234D01*
X161083816Y-46512500D01*
X161048891Y-46336919D01*
X160949432Y-46188068D01*
X160800581Y-46088609D01*
X160625000Y-46053684D01*
X159425000Y-46053684D01*
X159249419Y-46088609D01*
X159100568Y-46188068D01*
X159001109Y-46336919D01*
X158966184Y-46512500D01*
X158966184Y-47963029D01*
X158775000Y-47925000D01*
X158690757Y-47925000D01*
X158674432Y-47900568D01*
X158525581Y-47801109D01*
X158350000Y-47766184D01*
X157600000Y-47766184D01*
X157424419Y-47801109D01*
X157275568Y-47900568D01*
X157256829Y-47928614D01*
X157007121Y-47978284D01*
X156811827Y-48108775D01*
X156771716Y-47907122D01*
X156619975Y-47680025D01*
X156619972Y-47680023D01*
X156425000Y-47485051D01*
X156425000Y-47219321D01*
X156433816Y-47175000D01*
X156433816Y-46675000D01*
X156425000Y-46630679D01*
X156425000Y-46375000D01*
X156371716Y-46107122D01*
X156294126Y-45991000D01*
X165800000Y-45991000D01*
X165800000Y-52597391D01*
X165536626Y-52333557D01*
X165109990Y-52156402D01*
X164706600Y-52156050D01*
X164550000Y-51999450D01*
X164550000Y-50351992D01*
X164720174Y-50182115D01*
X164849852Y-49869817D01*
X164850147Y-49531666D01*
X164721015Y-49219143D01*
X164482115Y-48979826D01*
X164169817Y-48850148D01*
X163831666Y-48849853D01*
X163519143Y-48978985D01*
X163279826Y-49217885D01*
X163150148Y-49530183D01*
X163149853Y-49868334D01*
X163150000Y-49868690D01*
X163150000Y-52289400D01*
X163203284Y-52557279D01*
X163355025Y-52784375D01*
X163716949Y-53146299D01*
X163716931Y-53166381D01*
X162305575Y-51755025D01*
X162078479Y-51603284D01*
X161810600Y-51550000D01*
X158775000Y-51550000D01*
X158507122Y-51603284D01*
X158352518Y-51706587D01*
X158280025Y-51755025D01*
X158000000Y-52035050D01*
X158000000Y-51300000D01*
X157956231Y-51079957D01*
X157944567Y-51062500D01*
X157831587Y-50893414D01*
X157813173Y-50875000D01*
X157837500Y-50875000D01*
X157925000Y-50787500D01*
X157925000Y-50175000D01*
X158025000Y-50175000D01*
X158025000Y-50787500D01*
X158112500Y-50875000D01*
X158419620Y-50875000D01*
X158548259Y-50821715D01*
X158646716Y-50723259D01*
X158700000Y-50594619D01*
X158700000Y-50262500D01*
X158612500Y-50175000D01*
X158025000Y-50175000D01*
X157925000Y-50175000D01*
X157337500Y-50175000D01*
X157250000Y-50262500D01*
X157250000Y-50363786D01*
X157220043Y-50343769D01*
X157033636Y-50306691D01*
X157005000Y-50263833D01*
X157005000Y-50062500D01*
X156917500Y-49975000D01*
X156175000Y-49975000D01*
X156175000Y-49995000D01*
X156075000Y-49995000D01*
X156075000Y-49975000D01*
X155332500Y-49975000D01*
X155245000Y-50062500D01*
X155245000Y-50263833D01*
X155171109Y-50374419D01*
X155136184Y-50550000D01*
X155136184Y-51200000D01*
X155171109Y-51375581D01*
X155270568Y-51524432D01*
X155419419Y-51623891D01*
X155595000Y-51658816D01*
X156655000Y-51658816D01*
X156830581Y-51623891D01*
X156850000Y-51610916D01*
X156850000Y-51766184D01*
X156500000Y-51766184D01*
X156324419Y-51801109D01*
X156175568Y-51900568D01*
X156076109Y-52049419D01*
X156041184Y-52225000D01*
X156041184Y-53050000D01*
X155958816Y-53050000D01*
X155958816Y-52225000D01*
X155923891Y-52049419D01*
X155824432Y-51900568D01*
X155675581Y-51801109D01*
X155500000Y-51766184D01*
X155000000Y-51766184D01*
X154824419Y-51801109D01*
X154675568Y-51900568D01*
X154583296Y-52038664D01*
X154524432Y-51950568D01*
X154375581Y-51851109D01*
X154200000Y-51816184D01*
X153400000Y-51816184D01*
X153224419Y-51851109D01*
X153075568Y-51950568D01*
X153000000Y-52063664D01*
X152924432Y-51950568D01*
X152786252Y-51858239D01*
X152799432Y-51849432D01*
X152810403Y-51833012D01*
X152945043Y-51806231D01*
X153131586Y-51681586D01*
X153201353Y-51611819D01*
X153219419Y-51623891D01*
X153395000Y-51658816D01*
X154455000Y-51658816D01*
X154630581Y-51623891D01*
X154779432Y-51524432D01*
X154878891Y-51375581D01*
X154913816Y-51200000D01*
X154913816Y-50550000D01*
X154878891Y-50374419D01*
X154779432Y-50225568D01*
X154630581Y-50126109D01*
X154455000Y-50091184D01*
X153395000Y-50091184D01*
X153219419Y-50126109D01*
X153070568Y-50225568D01*
X153004868Y-50323896D01*
X152904957Y-50343769D01*
X152718413Y-50468414D01*
X152596480Y-50590348D01*
X152475000Y-50566184D01*
X151608420Y-50566184D01*
X151529424Y-50375000D01*
X151887500Y-50375000D01*
X151975000Y-50287500D01*
X151975000Y-49825000D01*
X152075000Y-49825000D01*
X152075000Y-50287500D01*
X152162500Y-50375000D01*
X152544620Y-50375000D01*
X152673259Y-50321715D01*
X152771716Y-50223259D01*
X152825000Y-50094619D01*
X152825000Y-49912500D01*
X152737500Y-49825000D01*
X152075000Y-49825000D01*
X151975000Y-49825000D01*
X151312500Y-49825000D01*
X151225000Y-49912500D01*
X151225000Y-50041491D01*
X150944817Y-49925148D01*
X150606666Y-49924853D01*
X150469224Y-49981643D01*
X150448891Y-49879419D01*
X150349432Y-49730568D01*
X150200581Y-49631109D01*
X150025000Y-49596184D01*
X149025000Y-49596184D01*
X148849419Y-49631109D01*
X148700568Y-49730568D01*
X148601109Y-49879419D01*
X148566184Y-50055000D01*
X148566184Y-51555000D01*
X148601109Y-51730581D01*
X148700568Y-51879432D01*
X148806181Y-51950000D01*
X148555381Y-51950000D01*
X148426741Y-52003284D01*
X148328285Y-52101741D01*
X148275000Y-52230380D01*
X148275000Y-52537500D01*
X148362500Y-52625000D01*
X148975000Y-52625000D01*
X148975000Y-52605000D01*
X149075000Y-52605000D01*
X149075000Y-52625000D01*
X149095000Y-52625000D01*
X149095000Y-52725000D01*
X149075000Y-52725000D01*
X149075000Y-52745000D01*
X148975000Y-52745000D01*
X148975000Y-52725000D01*
X148362500Y-52725000D01*
X148275000Y-52812500D01*
X148275000Y-53119620D01*
X148277229Y-53125000D01*
X147772771Y-53125000D01*
X147775000Y-53119620D01*
X147775000Y-52812500D01*
X147687500Y-52725000D01*
X147075000Y-52725000D01*
X147075000Y-52745000D01*
X146975000Y-52745000D01*
X146975000Y-52725000D01*
X146955000Y-52725000D01*
X146955000Y-52625000D01*
X146975000Y-52625000D01*
X146975000Y-52605000D01*
X147075000Y-52605000D01*
X147075000Y-52625000D01*
X147687500Y-52625000D01*
X147775000Y-52537500D01*
X147775000Y-52230380D01*
X147721715Y-52101741D01*
X147623259Y-52003284D01*
X147494619Y-51950000D01*
X147243819Y-51950000D01*
X147349432Y-51879432D01*
X147448891Y-51730581D01*
X147483816Y-51555000D01*
X147483816Y-50055000D01*
X147448891Y-49879419D01*
X147349432Y-49730568D01*
X147200581Y-49631109D01*
X147025000Y-49596184D01*
X146025000Y-49596184D01*
X145849419Y-49631109D01*
X145700568Y-49730568D01*
X145601109Y-49879419D01*
X145566184Y-50055000D01*
X145566184Y-50120677D01*
X145377121Y-50158284D01*
X145150025Y-50310025D01*
X145050000Y-50410050D01*
X145050000Y-49455381D01*
X151225000Y-49455381D01*
X151225000Y-49637500D01*
X151312500Y-49725000D01*
X151975000Y-49725000D01*
X151975000Y-49262500D01*
X152075000Y-49262500D01*
X152075000Y-49725000D01*
X152737500Y-49725000D01*
X152825000Y-49637500D01*
X152825000Y-49455381D01*
X152771716Y-49326741D01*
X152673259Y-49228285D01*
X152544620Y-49175000D01*
X152162500Y-49175000D01*
X152075000Y-49262500D01*
X151975000Y-49262500D01*
X151887500Y-49175000D01*
X151505380Y-49175000D01*
X151376741Y-49228285D01*
X151278284Y-49326741D01*
X151225000Y-49455381D01*
X145050000Y-49455381D01*
X145050000Y-49140000D01*
X145027125Y-49025000D01*
X144996716Y-48872121D01*
X144975000Y-48839621D01*
X144975000Y-45991000D01*
X151294558Y-45991000D01*
X151107121Y-46028284D01*
M02*
