M48
INCH,TZ
T1C0.016
T2C0.028
T3C0.031
T4C0.035
T5C0.047
%
G90
G05
T1
X46794Y-25456
X55531Y-20019
X56129Y-19941
X56600Y-20896
X56677Y-19960
X57435Y-19625
X58169Y-20520
X58650Y-21000
X59900Y-21050
X59987Y-25373
X59995Y-24503
X60023Y-21655
X60550Y-20900
X61071Y-20577
X61153Y-23298
X61613Y-25357
X61613Y-27204
X61621Y-19649
X62015Y-21920
X62113Y-28680
X62267Y-20574
X62767Y-24082
X62779Y-23495
X62787Y-20145
X62814Y-21011
X63050Y-27223
X63184Y-25365
X63212Y-18696
X63582Y-19082
X63641Y-29798
X64495Y-19129
X65944Y-19125
X65960Y-18330
X66696Y-19023
X67087Y-23870
X67890Y-30008
X67909Y-29220
X68087Y-21031
X68508Y-24189
X69075Y-25988
X69094Y-25516
X69106Y-27461
X69110Y-26484
X69386Y-23531
X69575Y-30362
X69642Y-29957
X70039Y-29839
X70059Y-25965
X70217Y-24193
X70445Y-29819
X71559Y-24189
X72150Y-24189
X72579Y-20594
X72598Y-26173
X72598Y-26831
X72992Y-26205
X72992Y-26795
X73402Y-26791
X73433Y-26185
X73535Y-24197
X73709Y-20555
X74094Y-30343
X74827Y-26870
X74969Y-18783
X75138Y-27189
X75453Y-26496
X75535Y-30539
T2
X64913Y-20991
X64913Y-21779
X64913Y-22566
X64913Y-23353
X64913Y-24928
X64913Y-25716
X64913Y-26503
X64913Y-27290
X64913Y-28078
X65700Y-21385
X65700Y-22172
X65700Y-22960
X65700Y-24534
X65700Y-25322
X65700Y-26109
X65700Y-26897
X65700Y-27684
X65700Y-28471
X66684Y-21404
X66684Y-22192
X66684Y-22979
X66684Y-24554
X66684Y-25341
X66684Y-26129
X66684Y-26916
X66684Y-27704
X66684Y-28491
X67472Y-21011
X67472Y-21798
X67472Y-22586
X67472Y-23373
X67472Y-24948
X67472Y-25735
X67472Y-26523
X67472Y-27310
X67472Y-28097
T3
X51137Y-24412
X51137Y-26381
X62712Y-22365
X62712Y-28428
X46918Y-29466
X48310Y-28074
T4
X50150Y-18950
X51150Y-18950
X52150Y-18950
X53150Y-18950
T5
X70750Y-25510
X70750Y-26494
X70750Y-27479
X70750Y-28463
X71734Y-25510
X71734Y-26494
X71734Y-27479
X71734Y-28463
X43500Y-19360
X43500Y-21360
X43500Y-23360
X43500Y-25360
X43500Y-27360
X43500Y-29360
X70750Y-19960
X70750Y-20944
X70750Y-21929
X70750Y-22913
X71734Y-19960
X71734Y-20944
X71734Y-21929
X71734Y-22913
T0
M30
