G04 #@! TF.GenerationSoftware,KiCad,Pcbnew,(2017-09-19 revision dddaa7e69)-makepkg*
G04 #@! TF.CreationDate,2017-12-07T22:33:37+10:30*
G04 #@! TF.ProjectId,din_power_atm90e26,64696E5F706F7765725F61746D393065,rev?*
G04 #@! TF.SameCoordinates,Original*
G04 #@! TF.FileFunction,Soldermask,Top*
G04 #@! TF.FilePolarity,Negative*
%FSLAX46Y46*%
G04 Gerber Fmt 4.6, Leading zero omitted, Abs format (unit mm)*
G04 Created by KiCad (PCBNEW (2017-09-19 revision dddaa7e69)-makepkg) date 12/07/17 22:33:37*
%MOMM*%
%LPD*%
G01*
G04 APERTURE LIST*
%ADD10C,1.822400*%
%ADD11C,2.000000*%
%ADD12C,2.200000*%
%ADD13R,2.200000X2.200000*%
%ADD14R,1.708000X1.708000*%
%ADD15R,1.600000X2.200000*%
%ADD16R,1.000000X1.950000*%
%ADD17R,2.300000X2.300000*%
%ADD18C,2.300000*%
%ADD19O,4.000000X2.200000*%
%ADD20R,4.000000X2.200000*%
%ADD21R,1.460000X1.050000*%
%ADD22C,1.250000*%
%ADD23C,0.100000*%
%ADD24R,1.400000X1.900000*%
%ADD25R,1.400000X2.200000*%
%ADD26R,2.600000X2.240000*%
%ADD27C,1.400000*%
%ADD28R,1.300000X2.100000*%
%ADD29R,1.300000X0.900000*%
%ADD30R,0.900000X1.300000*%
%ADD31R,1.150000X1.200000*%
%ADD32R,1.200000X1.150000*%
%ADD33R,0.900000X0.900000*%
%ADD34R,1.200000X1.200000*%
%ADD35R,1.670000X3.702000*%
G04 APERTURE END LIST*
D10*
X169378000Y-62367400D03*
X169378000Y-64367400D03*
X169378000Y-66367400D03*
X169378000Y-68367400D03*
X169378000Y-70367400D03*
X169378000Y-72367400D03*
X171378000Y-71367400D03*
X171378000Y-69367400D03*
X171378000Y-67367400D03*
X171378000Y-65367400D03*
X171378000Y-63367400D03*
X166878000Y-72317400D03*
X166878000Y-70317400D03*
X166878000Y-68317400D03*
X166878000Y-66317400D03*
X166878000Y-64317400D03*
X166878000Y-62317400D03*
X164878000Y-63317400D03*
X164878000Y-65317400D03*
X164878000Y-67317400D03*
X164878000Y-69317400D03*
X164878000Y-71317400D03*
X171378000Y-53367400D03*
X171378000Y-55367400D03*
X171378000Y-57367400D03*
X171378000Y-59367400D03*
X169378000Y-58367400D03*
X169378000Y-56367400D03*
X169378000Y-54367400D03*
X164878000Y-59317400D03*
X164878000Y-57317400D03*
X164878000Y-55317400D03*
X164878000Y-53317400D03*
X166878000Y-54317400D03*
X166878000Y-56317400D03*
X166878000Y-58317400D03*
D11*
X117450000Y-74500000D03*
X122450000Y-74500000D03*
D12*
X135310000Y-51850000D03*
X132770000Y-51850000D03*
X130230000Y-51850000D03*
D13*
X127690000Y-51850000D03*
D14*
X159288000Y-73389000D03*
X159288000Y-57989000D03*
X129888000Y-68189000D03*
X129888000Y-63189000D03*
D15*
X163625000Y-47412500D03*
X160025000Y-47412500D03*
D16*
X162325000Y-49937500D03*
X161325000Y-49937500D03*
D17*
X179705000Y-50698400D03*
D18*
X179705000Y-53198400D03*
X179705000Y-55698400D03*
X179705000Y-58198400D03*
X182205000Y-50698400D03*
X182205000Y-53198400D03*
X182205000Y-55698400D03*
X182205000Y-58198400D03*
D11*
X189385000Y-50698400D03*
X189385000Y-58198400D03*
X189385000Y-72295400D03*
X189385000Y-64795400D03*
D18*
X182205000Y-72295400D03*
X182205000Y-69795400D03*
X182205000Y-67295400D03*
X182205000Y-64795400D03*
X179705000Y-72295400D03*
X179705000Y-69795400D03*
X179705000Y-67295400D03*
D17*
X179705000Y-64795400D03*
D19*
X110490000Y-74574400D03*
X110490000Y-69494400D03*
X110490000Y-64414400D03*
X110490000Y-59334400D03*
X110490000Y-54254400D03*
D20*
X110490000Y-49174400D03*
D21*
X153925000Y-50875000D03*
X153925000Y-48975000D03*
X156125000Y-48975000D03*
X156125000Y-49925000D03*
X156125000Y-50875000D03*
D22*
X148025000Y-46658000D03*
D23*
G36*
X146539016Y-47283000D02*
X147421368Y-46033000D01*
X148628632Y-46033000D01*
X149510984Y-47283000D01*
X146539016Y-47283000D01*
X146539016Y-47283000D01*
G37*
D24*
X146525000Y-50805000D03*
D25*
X148025000Y-50658500D03*
D24*
X149525000Y-50805000D03*
D26*
X148025000Y-47991500D03*
D27*
X148025000Y-49401200D03*
D23*
G36*
X149509131Y-48701200D02*
X148529131Y-50101200D01*
X147520869Y-50101200D01*
X146540869Y-48701200D01*
X149509131Y-48701200D01*
X149509131Y-48701200D01*
G37*
D27*
X141400000Y-50023800D03*
D23*
G36*
X139915869Y-50723800D02*
X140895869Y-49323800D01*
X141904131Y-49323800D01*
X142884131Y-50723800D01*
X139915869Y-50723800D01*
X139915869Y-50723800D01*
G37*
D26*
X141400000Y-51433500D03*
D24*
X139900000Y-48620000D03*
D25*
X141400000Y-48766500D03*
D24*
X142900000Y-48620000D03*
D22*
X141400000Y-52767000D03*
D23*
G36*
X142885984Y-52142000D02*
X142003632Y-53392000D01*
X140796368Y-53392000D01*
X139914016Y-52142000D01*
X142885984Y-52142000D01*
X142885984Y-52142000D01*
G37*
D28*
X120498000Y-47367400D03*
X123398000Y-47367400D03*
D29*
X152025000Y-49775000D03*
X152025000Y-51275000D03*
D30*
X156750000Y-52675000D03*
X155250000Y-52675000D03*
D31*
X152025000Y-46675000D03*
X152025000Y-48175000D03*
D32*
X140400000Y-46600000D03*
X138900000Y-46600000D03*
X149025000Y-52675000D03*
X150525000Y-52675000D03*
X145525000Y-52675000D03*
X147025000Y-52675000D03*
X143900000Y-46600000D03*
X142400000Y-46600000D03*
D31*
X157975000Y-48625000D03*
X157975000Y-50125000D03*
D33*
X155725000Y-46925000D03*
X153525000Y-46925000D03*
D34*
X153800000Y-52675000D03*
X152200000Y-52675000D03*
D35*
X115867000Y-55021000D03*
X123233000Y-55021000D03*
X123233000Y-61498000D03*
X115867000Y-61498000D03*
X115867000Y-67900000D03*
X123233000Y-67900000D03*
M02*
