%TF.GenerationSoftware,KiCad,Pcbnew,(5.1.5)-3*%
%TF.CreationDate,2020-03-19T09:51:26+11:00*%
%TF.ProjectId,din_power_atm90e26,64696e5f-706f-4776-9572-5f61746d3930,rev?*%
%TF.SameCoordinates,Original*%
%TF.FileFunction,Copper,L1,Top*%
%TF.FilePolarity,Positive*%
%FSLAX46Y46*%
G04 Gerber Fmt 4.6, Leading zero omitted, Abs format (unit mm)*
G04 Created by KiCad (PCBNEW (5.1.5)-3) date 2020-03-19 09:51:26*
%MOMM*%
%LPD*%
G04 APERTURE LIST*
%TA.AperFunction,ComponentPad*%
%ADD10C,1.422400*%
%TD*%
%TA.AperFunction,ComponentPad*%
%ADD11C,1.600000*%
%TD*%
%TA.AperFunction,ComponentPad*%
%ADD12C,1.800000*%
%TD*%
%TA.AperFunction,ComponentPad*%
%ADD13R,1.800000X1.800000*%
%TD*%
%TA.AperFunction,ComponentPad*%
%ADD14R,1.308000X1.308000*%
%TD*%
%TA.AperFunction,SMDPad,CuDef*%
%ADD15R,1.200000X1.800000*%
%TD*%
%TA.AperFunction,SMDPad,CuDef*%
%ADD16R,0.600000X1.550000*%
%TD*%
%TA.AperFunction,ComponentPad*%
%ADD17R,1.900000X1.900000*%
%TD*%
%TA.AperFunction,ComponentPad*%
%ADD18C,1.900000*%
%TD*%
%TA.AperFunction,ComponentPad*%
%ADD19O,3.600000X1.800000*%
%TD*%
%TA.AperFunction,ComponentPad*%
%ADD20R,3.600000X1.800000*%
%TD*%
%TA.AperFunction,SMDPad,CuDef*%
%ADD21R,1.060000X0.650000*%
%TD*%
%TA.AperFunction,SMDPad,CuDef*%
%ADD22C,0.100000*%
%TD*%
%TA.AperFunction,SMDPad,CuDef*%
%ADD23R,1.000000X1.500000*%
%TD*%
%TA.AperFunction,SMDPad,CuDef*%
%ADD24R,1.000000X1.800000*%
%TD*%
%TA.AperFunction,SMDPad,CuDef*%
%ADD25R,2.200000X1.840000*%
%TD*%
%TA.AperFunction,SMDPad,CuDef*%
%ADD26R,0.900000X1.700000*%
%TD*%
%TA.AperFunction,SMDPad,CuDef*%
%ADD27R,0.900000X0.500000*%
%TD*%
%TA.AperFunction,SMDPad,CuDef*%
%ADD28R,0.500000X0.900000*%
%TD*%
%TA.AperFunction,SMDPad,CuDef*%
%ADD29R,0.750000X0.800000*%
%TD*%
%TA.AperFunction,SMDPad,CuDef*%
%ADD30R,0.800000X0.750000*%
%TD*%
%TA.AperFunction,SMDPad,CuDef*%
%ADD31R,0.500000X0.500000*%
%TD*%
%TA.AperFunction,SMDPad,CuDef*%
%ADD32R,0.800000X0.800000*%
%TD*%
%TA.AperFunction,SMDPad,CuDef*%
%ADD33R,1.270000X3.302000*%
%TD*%
%TA.AperFunction,ViaPad*%
%ADD34C,0.800000*%
%TD*%
%TA.AperFunction,Conductor*%
%ADD35C,1.000000*%
%TD*%
%TA.AperFunction,Conductor*%
%ADD36C,0.500000*%
%TD*%
%TA.AperFunction,Conductor*%
%ADD37C,0.250000*%
%TD*%
%TA.AperFunction,Conductor*%
%ADD38C,0.300000*%
%TD*%
G04 APERTURE END LIST*
D10*
%TO.P,J4,10*%
%TO.N,Net-(J4-Pad10)*%
X169378000Y-62367400D03*
%TO.P,J4,29*%
%TO.N,IA2-*%
X169378000Y-64367400D03*
%TO.P,J4,2*%
%TO.N,IC2-*%
X169378000Y-66367400D03*
%TO.P,J4,21*%
%TO.N,IC1-*%
X169378000Y-68367400D03*
%TO.P,J4,17*%
%TO.N,IB1-*%
X169378000Y-70367400D03*
%TO.P,J4,13*%
%TO.N,IA1-*%
X169378000Y-72367400D03*
%TO.P,J4,11*%
%TO.N,IA1+*%
X171378000Y-71367400D03*
%TO.P,J4,15*%
%TO.N,IB1+*%
X171378000Y-69367400D03*
%TO.P,J4,19*%
%TO.N,IC1+*%
X171378000Y-67367400D03*
%TO.P,J4,35*%
%TO.N,IC2+*%
X171378000Y-65367400D03*
%TO.P,J4,27*%
%TO.N,IA2+*%
X171378000Y-63367400D03*
%TO.P,J4,8*%
%TO.N,+3.3V_ISO*%
X166878000Y-72317400D03*
%TO.P,J4,14*%
%TO.N,Net-(J4-Pad14)*%
X166878000Y-70317400D03*
%TO.P,J4,16*%
%TO.N,Net-(J4-Pad16)*%
X166878000Y-68317400D03*
%TO.P,J4,18*%
%TO.N,Net-(J4-Pad18)*%
X166878000Y-66317400D03*
%TO.P,J4,20*%
%TO.N,Net-(J4-Pad20)*%
X166878000Y-64317400D03*
%TO.P,J4,12*%
%TO.N,Net-(J4-Pad12)*%
X166878000Y-62317400D03*
%TO.P,J4,9*%
%TO.N,+5V_ISO*%
X164878000Y-63317400D03*
%TO.P,J4,7*%
%TO.N,GNDA*%
X164878000Y-65317400D03*
%TO.P,J4,5*%
%TO.N,UA_SAMP*%
X164878000Y-67317400D03*
%TO.P,J4,3*%
%TO.N,UB_SAMP*%
X164878000Y-69317400D03*
%TO.P,J4,1*%
%TO.N,UC_SAMP*%
X164878000Y-71317400D03*
%TO.P,J4,6*%
%TO.N,IN2-*%
X171378000Y-53367400D03*
%TO.P,J4,4*%
%TO.N,IN2+*%
X171378000Y-55367400D03*
%TO.P,J4,25*%
%TO.N,IN1-*%
X171378000Y-57367400D03*
%TO.P,J4,23*%
%TO.N,IN1+*%
X171378000Y-59367400D03*
%TO.P,J4,31*%
%TO.N,IB2+*%
X169378000Y-58367400D03*
%TO.P,J4,33*%
%TO.N,IB2-*%
X169378000Y-56367400D03*
%TO.P,J4,22*%
%TO.N,Net-(J4-Pad22)*%
X169378000Y-54367400D03*
%TO.P,J4,36*%
%TO.N,GNDPWR*%
X164878000Y-59317400D03*
%TO.P,J4,34*%
%TO.N,+5V*%
X164878000Y-57317400D03*
%TO.P,J4,32*%
%TO.N,+3V3*%
X164878000Y-55317400D03*
%TO.P,J4,30*%
%TO.N,VBAT*%
X164878000Y-53317400D03*
%TO.P,J4,28*%
%TO.N,Net-(J4-Pad28)*%
X166878000Y-54317400D03*
%TO.P,J4,26*%
%TO.N,Net-(J4-Pad26)*%
X166878000Y-56317400D03*
%TO.P,J4,24*%
%TO.N,Net-(J4-Pad24)*%
X166878000Y-58317400D03*
%TD*%
D11*
%TO.P,F1,2*%
%TO.N,UN*%
X117450000Y-74500000D03*
%TO.P,F1,1*%
%TO.N,/UN_IN*%
X122450000Y-74500000D03*
%TD*%
D12*
%TO.P,U5,4*%
%TO.N,+5V_ISO*%
X135310000Y-51850000D03*
%TO.P,U5,3*%
%TO.N,GNDA*%
X132770000Y-51850000D03*
%TO.P,U5,2*%
%TO.N,+5V*%
X130230000Y-51850000D03*
D13*
%TO.P,U5,1*%
%TO.N,GNDPWR*%
X127690000Y-51850000D03*
%TD*%
D14*
%TO.P,U4,4*%
%TO.N,+5V*%
X159288000Y-73389000D03*
%TO.P,U4,3*%
%TO.N,GNDPWR*%
X159288000Y-57989000D03*
%TO.P,U4,2*%
%TO.N,/UN_IN*%
X129888000Y-68189000D03*
%TO.P,U4,1*%
%TO.N,UC*%
X129888000Y-63189000D03*
%TD*%
D15*
%TO.P,J2,*%
%TO.N,*%
X163625000Y-47412500D03*
X160025000Y-47412500D03*
D16*
%TO.P,J2,2*%
%TO.N,GNDPWR*%
X162325000Y-49937500D03*
%TO.P,J2,1*%
%TO.N,VBAT*%
X161325000Y-49937500D03*
%TD*%
D17*
%TO.P,J5,1*%
%TO.N,IA1+*%
X179705000Y-50698400D03*
D18*
%TO.P,J5,2*%
%TO.N,IA1-*%
X179705000Y-53198400D03*
%TO.P,J5,3*%
%TO.N,IB1+*%
X179705000Y-55698400D03*
%TO.P,J5,4*%
%TO.N,IB1-*%
X179705000Y-58198400D03*
%TO.P,J5,5*%
%TO.N,IC1+*%
X182205000Y-50698400D03*
%TO.P,J5,6*%
%TO.N,IC1-*%
X182205000Y-53198400D03*
%TO.P,J5,7*%
%TO.N,IN1+*%
X182205000Y-55698400D03*
%TO.P,J5,8*%
%TO.N,IN1-*%
X182205000Y-58198400D03*
%TD*%
%TO.P,J3,8*%
%TO.N,IN2-*%
X182205000Y-72295400D03*
%TO.P,J3,7*%
%TO.N,IN2+*%
X182205000Y-69795400D03*
%TO.P,J3,6*%
%TO.N,IC2-*%
X182205000Y-67295400D03*
%TO.P,J3,5*%
%TO.N,IC2+*%
X182205000Y-64795400D03*
%TO.P,J3,4*%
%TO.N,IB2-*%
X179705000Y-72295400D03*
%TO.P,J3,3*%
%TO.N,IB2+*%
X179705000Y-69795400D03*
%TO.P,J3,2*%
%TO.N,IA2-*%
X179705000Y-67295400D03*
D17*
%TO.P,J3,1*%
%TO.N,IA2+*%
X179705000Y-64795400D03*
%TD*%
D19*
%TO.P,J1,6*%
%TO.N,UN*%
X110490000Y-74574400D03*
%TO.P,J1,5*%
%TO.N,UC*%
X110490000Y-69494400D03*
%TO.P,J1,4*%
%TO.N,Net-(J1-Pad4)*%
X110490000Y-64414400D03*
%TO.P,J1,3*%
%TO.N,UB*%
X110490000Y-59334400D03*
%TO.P,J1,2*%
%TO.N,Net-(J1-Pad2)*%
X110490000Y-54254400D03*
D20*
%TO.P,J1,1*%
%TO.N,UA*%
X110490000Y-49174400D03*
%TD*%
D21*
%TO.P,U1,5*%
%TO.N,Net-(R32-Pad1)*%
X153925000Y-50875000D03*
%TO.P,U1,4*%
%TO.N,+5V*%
X153925000Y-48975000D03*
%TO.P,U1,3*%
%TO.N,VBAT*%
X156125000Y-48975000D03*
%TO.P,U1,2*%
%TO.N,GNDPWR*%
X156125000Y-49925000D03*
%TO.P,U1,1*%
%TO.N,Net-(R33-Pad2)*%
X156125000Y-50875000D03*
%TD*%
%TA.AperFunction,SMDPad,CuDef*%
D22*
%TO.P,U2,2*%
%TO.N,GNDPWR*%
G36*
X146925000Y-47083000D02*
G01*
X147525000Y-46233000D01*
X148525000Y-46233000D01*
X149125000Y-47083000D01*
X146925000Y-47083000D01*
G37*
%TD.AperFunction*%
D23*
%TO.P,U2,1*%
%TO.N,+3V3*%
X146525000Y-50805000D03*
D24*
%TO.P,U2,2*%
%TO.N,GNDPWR*%
X148025000Y-50658500D03*
D23*
%TO.P,U2,3*%
%TO.N,+5V*%
X149525000Y-50805000D03*
D25*
%TO.P,U2,2*%
%TO.N,GNDPWR*%
X148025000Y-47991500D03*
%TA.AperFunction,SMDPad,CuDef*%
D22*
G36*
X149125000Y-48901200D02*
G01*
X148425000Y-49901200D01*
X147625000Y-49901200D01*
X146925000Y-48901200D01*
X149125000Y-48901200D01*
G37*
%TD.AperFunction*%
%TD*%
%TA.AperFunction,SMDPad,CuDef*%
%TO.P,U3,2*%
%TO.N,GNDA*%
G36*
X140300000Y-50523800D02*
G01*
X141000000Y-49523800D01*
X141800000Y-49523800D01*
X142500000Y-50523800D01*
X140300000Y-50523800D01*
G37*
%TD.AperFunction*%
D25*
X141400000Y-51433500D03*
D23*
%TO.P,U3,3*%
%TO.N,+5V_ISO*%
X139900000Y-48620000D03*
D24*
%TO.P,U3,2*%
%TO.N,GNDA*%
X141400000Y-48766500D03*
D23*
%TO.P,U3,1*%
%TO.N,+3.3V_ISO*%
X142900000Y-48620000D03*
%TA.AperFunction,SMDPad,CuDef*%
D22*
%TO.P,U3,2*%
%TO.N,GNDA*%
G36*
X142500000Y-52342000D02*
G01*
X141900000Y-53192000D01*
X140900000Y-53192000D01*
X140300000Y-52342000D01*
X142500000Y-52342000D01*
G37*
%TD.AperFunction*%
%TD*%
D26*
%TO.P,L1,2*%
%TO.N,UN*%
X120498000Y-47367400D03*
%TO.P,L1,1*%
%TO.N,GNDA*%
X123398000Y-47367400D03*
%TD*%
D27*
%TO.P,R32,2*%
%TO.N,GNDPWR*%
X152025000Y-49775000D03*
%TO.P,R32,1*%
%TO.N,Net-(R32-Pad1)*%
X152025000Y-51275000D03*
%TD*%
D28*
%TO.P,R33,2*%
%TO.N,Net-(R33-Pad2)*%
X156750000Y-52675000D03*
%TO.P,R33,1*%
%TO.N,Net-(D2-Pad1)*%
X155250000Y-52675000D03*
%TD*%
D29*
%TO.P,C4,2*%
%TO.N,GNDPWR*%
X152025000Y-48175000D03*
%TO.P,C4,1*%
%TO.N,+5V*%
X152025000Y-46675000D03*
%TD*%
D30*
%TO.P,C5,2*%
%TO.N,GNDA*%
X140400000Y-46600000D03*
%TO.P,C5,1*%
%TO.N,+5V_ISO*%
X138900000Y-46600000D03*
%TD*%
%TO.P,C6,2*%
%TO.N,GNDPWR*%
X149025000Y-52675000D03*
%TO.P,C6,1*%
%TO.N,+5V*%
X150525000Y-52675000D03*
%TD*%
%TO.P,C7,1*%
%TO.N,+3V3*%
X145525000Y-52675000D03*
%TO.P,C7,2*%
%TO.N,GNDPWR*%
X147025000Y-52675000D03*
%TD*%
%TO.P,C8,1*%
%TO.N,+3.3V_ISO*%
X143900000Y-46600000D03*
%TO.P,C8,2*%
%TO.N,GNDA*%
X142400000Y-46600000D03*
%TD*%
D29*
%TO.P,C9,2*%
%TO.N,VBAT*%
X157975000Y-48625000D03*
%TO.P,C9,1*%
%TO.N,GNDPWR*%
X157975000Y-50125000D03*
%TD*%
D31*
%TO.P,D1,2*%
%TO.N,VBAT*%
X155725000Y-46925000D03*
%TO.P,D1,1*%
%TO.N,+5V*%
X153525000Y-46925000D03*
%TD*%
D32*
%TO.P,D2,1*%
%TO.N,Net-(D2-Pad1)*%
X153800000Y-52675000D03*
%TO.P,D2,2*%
%TO.N,+5V*%
X152200000Y-52675000D03*
%TD*%
D33*
%TO.P,RV1,2*%
%TO.N,UA*%
X115867000Y-55021000D03*
%TO.P,RV1,1*%
%TO.N,UN*%
X123233000Y-55021000D03*
%TD*%
%TO.P,RV2,1*%
%TO.N,UN*%
X123233000Y-61498000D03*
%TO.P,RV2,2*%
%TO.N,UB*%
X115867000Y-61498000D03*
%TD*%
%TO.P,RV3,2*%
%TO.N,UC*%
X115867000Y-67900000D03*
%TO.P,RV3,1*%
%TO.N,UN*%
X123233000Y-67900000D03*
%TD*%
D34*
%TO.N,GNDA*%
X142825000Y-55600000D03*
X145750000Y-57300000D03*
X148900000Y-60375000D03*
X153775000Y-60425000D03*
X157425000Y-64400000D03*
X178300000Y-61600000D03*
X182850000Y-61700000D03*
X172300000Y-50350000D03*
X168600000Y-46350000D03*
X182250000Y-46500000D03*
X192150000Y-46250000D03*
X191000000Y-53550000D03*
X191050000Y-61650000D03*
X191100000Y-68600000D03*
X192250000Y-77750000D03*
X185200000Y-77550000D03*
X157450000Y-77600000D03*
X163500000Y-77600000D03*
X169000000Y-77650000D03*
X167250000Y-74750000D03*
X175050000Y-64800000D03*
X175050000Y-67300000D03*
X175050000Y-50700000D03*
X186850000Y-72300000D03*
X175050000Y-53200000D03*
X175050000Y-55700000D03*
X175050000Y-58200000D03*
X186850000Y-50700000D03*
X186850000Y-53200000D03*
X186850000Y-55700000D03*
X186850000Y-58200000D03*
X175050000Y-72300000D03*
X186850000Y-64800000D03*
X186850000Y-67300000D03*
X186850000Y-69800000D03*
X175050000Y-69800000D03*
X137150000Y-50600000D03*
X134700000Y-48025000D03*
X139650000Y-52600000D03*
X140150000Y-56150000D03*
X143175000Y-50200000D03*
X139650000Y-50250000D03*
X143175000Y-51425000D03*
X143175000Y-52675000D03*
X139650000Y-51450000D03*
X163100000Y-65000000D03*
X164100000Y-75000000D03*
X164200000Y-73100000D03*
X162900000Y-66800000D03*
X163300000Y-68500000D03*
X163100000Y-70300000D03*
%TO.N,+5V*%
X155875000Y-57275000D03*
X153525000Y-56450000D03*
X150525000Y-53800000D03*
X152375000Y-54725000D03*
X150775000Y-50775000D03*
X150875000Y-48475000D03*
%TO.N,GNDPWR*%
X145875000Y-46925000D03*
X149825000Y-47975000D03*
X149825000Y-46725000D03*
X145875000Y-49025000D03*
X145866500Y-47991500D03*
X154650000Y-46500000D03*
X154875000Y-49925000D03*
X157775000Y-46500000D03*
X145350000Y-46300000D03*
X148025000Y-52025000D03*
X149875000Y-49150000D03*
X158325000Y-51275000D03*
X159550000Y-54100000D03*
%TO.N,IA1+*%
X170400000Y-74650000D03*
X172100000Y-72500000D03*
%TO.N,IC1+*%
X171400000Y-74650000D03*
X172850000Y-73200000D03*
%TO.N,IC1-*%
X170500000Y-73100000D03*
%TO.N,IB1+*%
X172300000Y-70350000D03*
X168840000Y-74230000D03*
%TO.N,IA2-*%
X178100000Y-63850000D03*
%TO.N,IC2+*%
X178350000Y-68100000D03*
%TO.N,IB2-*%
X173750000Y-61550000D03*
%TO.N,IB2+*%
X174550000Y-60800000D03*
%TO.N,+3.3V_ISO*%
X143975000Y-55600000D03*
X144350000Y-52800000D03*
%TO.N,VBAT*%
X164000000Y-49700000D03*
X162275000Y-48425000D03*
%TD*%
D35*
%TO.N,UA*%
X115867000Y-55021000D02*
X114636000Y-55021000D01*
X113174400Y-49174400D02*
X110490000Y-49174400D01*
X114636000Y-55021000D02*
X114636000Y-50636000D01*
X114636000Y-50636000D02*
X113174400Y-49174400D01*
%TO.N,UN*%
X123233000Y-55021000D02*
X123233000Y-50033000D01*
X123233000Y-50033000D02*
X123050000Y-49850000D01*
X123050000Y-49850000D02*
X118900000Y-49850000D01*
X118900000Y-49850000D02*
X118400000Y-49350000D01*
X118400000Y-49350000D02*
X118400000Y-47900000D01*
X118400000Y-47900000D02*
X118932600Y-47367400D01*
X118932600Y-47367400D02*
X120498000Y-47367400D01*
X123233000Y-61498000D02*
X123233000Y-55021000D01*
X117450000Y-74500000D02*
X120700000Y-71250000D01*
X123233000Y-70917000D02*
X123233000Y-67900000D01*
X122900000Y-71250000D02*
X123233000Y-70917000D01*
X120700000Y-71250000D02*
X122900000Y-71250000D01*
X123233000Y-67900000D02*
X123233000Y-60300000D01*
X110490000Y-74574400D02*
X117375600Y-74574400D01*
%TO.N,UB*%
X115867000Y-61498000D02*
X114232000Y-61498000D01*
X114232000Y-61498000D02*
X113700000Y-60966000D01*
X113700000Y-60966000D02*
X113700000Y-59700000D01*
X110490000Y-59334400D02*
X113334400Y-59334400D01*
X113334400Y-59334400D02*
X113700000Y-59700000D01*
%TO.N,UC*%
X110490000Y-69494400D02*
X113555600Y-69494400D01*
X113950000Y-67900000D02*
X115867000Y-67900000D01*
X113700000Y-68150000D02*
X113950000Y-67900000D01*
X113700000Y-69350000D02*
X113700000Y-68150000D01*
X113555600Y-69494400D02*
X113700000Y-69350000D01*
D36*
%TO.N,GNDA*%
X140700000Y-55600000D02*
X142825000Y-55600000D01*
X145750000Y-57300000D02*
X148825000Y-60375000D01*
X148825000Y-60375000D02*
X148900000Y-60375000D01*
X140150000Y-56150000D02*
X140700000Y-55600000D01*
X182750000Y-61600000D02*
X178300000Y-61600000D01*
X182850000Y-61700000D02*
X182750000Y-61600000D01*
X182100000Y-46350000D02*
X168600000Y-46350000D01*
X182250000Y-46500000D02*
X182100000Y-46350000D01*
X192150000Y-52400000D02*
X192150000Y-46250000D01*
X191000000Y-53550000D02*
X192150000Y-52400000D01*
X191050000Y-68550000D02*
X191050000Y-61650000D01*
X191100000Y-68600000D02*
X191050000Y-68550000D01*
X185400000Y-77750000D02*
X192250000Y-77750000D01*
X185200000Y-77550000D02*
X185400000Y-77750000D01*
X157425000Y-64400000D02*
X157425000Y-77575000D01*
X157425000Y-77575000D02*
X157450000Y-77600000D01*
X163500000Y-77600000D02*
X163550000Y-77650000D01*
X163550000Y-77650000D02*
X169000000Y-77650000D01*
X175050000Y-69800000D02*
X175050000Y-67300000D01*
X175050000Y-67300000D02*
X175050000Y-64800000D01*
X175050000Y-53200000D02*
X175050000Y-50700000D01*
X175050000Y-53200000D02*
X175050000Y-55700000D01*
X175050000Y-55700000D02*
X175050000Y-58200000D01*
X186850000Y-69800000D02*
X186850000Y-72300000D01*
X186850000Y-69800000D02*
X186850000Y-67300000D01*
X186850000Y-67300000D02*
X186850000Y-64800000D01*
X186850000Y-64800000D02*
X186850000Y-58200000D01*
X186850000Y-58200000D02*
X186850000Y-55700000D01*
X186850000Y-55700000D02*
X186850000Y-53200000D01*
X186850000Y-53200000D02*
X186850000Y-50700000D01*
X175050000Y-69800000D02*
X175050000Y-72300000D01*
X143166500Y-51433500D02*
X143175000Y-51425000D01*
X143166500Y-51433500D02*
X141400000Y-51433500D01*
X139666500Y-51433500D02*
X139650000Y-51450000D01*
X139666500Y-51433500D02*
X141400000Y-51433500D01*
X142400000Y-46600000D02*
X141300000Y-46600000D01*
X141400000Y-48766500D02*
X141400000Y-46700000D01*
X141300000Y-46600000D02*
X140400000Y-46600000D01*
X141400000Y-46700000D02*
X141300000Y-46600000D01*
X132770000Y-51850000D02*
X132770000Y-48270000D01*
X131867400Y-47367400D02*
X123398000Y-47367400D01*
X132770000Y-48270000D02*
X131867400Y-47367400D01*
%TO.N,+5V*%
X159288000Y-73389000D02*
X159288000Y-62549774D01*
X159288000Y-62549774D02*
X155875000Y-59136774D01*
X155875000Y-59136774D02*
X155875000Y-57840685D01*
X155875000Y-57840685D02*
X155875000Y-57275000D01*
X140200000Y-54625000D02*
X144400000Y-54625000D01*
X131755000Y-53375000D02*
X137625000Y-53375000D01*
X137625000Y-53375000D02*
X138875000Y-54625000D01*
X138875000Y-54625000D02*
X140200000Y-54625000D01*
X130230000Y-51850000D02*
X131755000Y-53375000D01*
X153425000Y-56550000D02*
X153525000Y-56450000D01*
X149450000Y-56550000D02*
X153425000Y-56550000D01*
X148375000Y-55475000D02*
X149450000Y-56550000D01*
X145250000Y-55475000D02*
X148375000Y-55475000D01*
X144400000Y-54625000D02*
X145250000Y-55475000D01*
X164878000Y-57317400D02*
X163350000Y-55789400D01*
X150525000Y-53275000D02*
X150525000Y-52675000D01*
X150525000Y-53800000D02*
X150525000Y-53275000D01*
X152500000Y-54600000D02*
X152375000Y-54725000D01*
X157675000Y-54600000D02*
X152500000Y-54600000D01*
X159150000Y-53125000D02*
X157675000Y-54600000D01*
X161400000Y-53125000D02*
X159150000Y-53125000D01*
X163350000Y-55075000D02*
X161400000Y-53125000D01*
X163350000Y-55789400D02*
X163350000Y-55075000D01*
X150525000Y-52675000D02*
X150525000Y-52075000D01*
X150525000Y-52075000D02*
X150775000Y-51825000D01*
X150775000Y-51825000D02*
X150775000Y-50775000D01*
X152200000Y-52675000D02*
X150525000Y-52675000D01*
X150875000Y-47175000D02*
X150875000Y-48475000D01*
X152025000Y-46675000D02*
X151375000Y-46675000D01*
X151375000Y-46675000D02*
X150875000Y-47175000D01*
X150775000Y-50775000D02*
X149555000Y-50775000D01*
X149555000Y-50775000D02*
X149525000Y-50805000D01*
X152025000Y-46675000D02*
X152575000Y-46675000D01*
X152825000Y-46925000D02*
X153525000Y-46925000D01*
X152575000Y-46675000D02*
X152825000Y-46925000D01*
X153525000Y-46925000D02*
X153525000Y-46325000D01*
X153525000Y-46925000D02*
X153525000Y-47825000D01*
X153525000Y-47825000D02*
X153625000Y-47925000D01*
X153925000Y-48225000D02*
X153925000Y-48975000D01*
X153625000Y-47925000D02*
X153925000Y-48225000D01*
%TO.N,GNDPWR*%
X149891500Y-47991500D02*
X149875000Y-47975000D01*
X149875000Y-47975000D02*
X149825000Y-47975000D01*
X149891500Y-47991500D02*
X148025000Y-47991500D01*
X155025000Y-49775000D02*
X155025000Y-48200000D01*
X155025000Y-48200000D02*
X154650000Y-47825000D01*
X154650000Y-47825000D02*
X154650000Y-46500000D01*
X154875000Y-49925000D02*
X155125000Y-49925000D01*
X154875000Y-49925000D02*
X155025000Y-49775000D01*
X145350000Y-46300000D02*
X145350000Y-47475000D01*
X145350000Y-47475000D02*
X145866500Y-47991500D01*
X148025000Y-47991500D02*
X145866500Y-47991500D01*
X149950000Y-49401200D02*
X149950000Y-49225000D01*
X149950000Y-49225000D02*
X149875000Y-49150000D01*
X159288000Y-56807400D02*
X159288000Y-54362000D01*
X159288000Y-54362000D02*
X159550000Y-54100000D01*
X164878000Y-59317400D02*
X163325000Y-57764400D01*
X157975000Y-50850000D02*
X158325000Y-51200000D01*
X158325000Y-51200000D02*
X158325000Y-51275000D01*
X157975000Y-50850000D02*
X157975000Y-50125000D01*
X159700000Y-53950000D02*
X159550000Y-54100000D01*
X161050000Y-53950000D02*
X159700000Y-53950000D01*
X162500000Y-55400000D02*
X161050000Y-53950000D01*
X162500000Y-56175000D02*
X162500000Y-55400000D01*
X163325000Y-57000000D02*
X162500000Y-56175000D01*
X163325000Y-57764400D02*
X163325000Y-57000000D01*
X147025000Y-52675000D02*
X148125000Y-52675000D01*
X149025000Y-52675000D02*
X148125000Y-52675000D01*
X148025000Y-52575000D02*
X148025000Y-52025000D01*
X148025000Y-52025000D02*
X148025000Y-50658500D01*
X148125000Y-52675000D02*
X148025000Y-52575000D01*
X148025000Y-49401200D02*
X149950000Y-49401200D01*
X149950000Y-49401200D02*
X150451200Y-49401200D01*
X151275000Y-49775000D02*
X152025000Y-49775000D01*
X150825000Y-49775000D02*
X151275000Y-49775000D01*
X150451200Y-49401200D02*
X150825000Y-49775000D01*
X158625000Y-50125000D02*
X158925000Y-50125000D01*
X157975000Y-50125000D02*
X158625000Y-50125000D01*
X162325000Y-51225000D02*
X162325000Y-49937500D01*
X162175000Y-51375000D02*
X162325000Y-51225000D01*
X160175000Y-51375000D02*
X162175000Y-51375000D01*
X158925000Y-50125000D02*
X160175000Y-51375000D01*
X152025000Y-49775000D02*
X152975000Y-49775000D01*
X155125000Y-49925000D02*
X156125000Y-49925000D01*
X153125000Y-49925000D02*
X155125000Y-49925000D01*
X152975000Y-49775000D02*
X153125000Y-49925000D01*
X152025000Y-48175000D02*
X152025000Y-49775000D01*
X156125000Y-49925000D02*
X157025000Y-49925000D01*
X157025000Y-49925000D02*
X157225000Y-50125000D01*
X157225000Y-50125000D02*
X157975000Y-50125000D01*
%TO.N,+5V_ISO*%
X138650000Y-48620000D02*
X138770000Y-48500000D01*
X157700000Y-57650000D02*
X157700000Y-56150000D01*
X157700000Y-56150000D02*
X157000000Y-55450000D01*
X152800000Y-55700000D02*
X149825000Y-55700000D01*
X138650000Y-53200000D02*
X138650000Y-48620000D01*
X164878000Y-63317400D02*
X164878000Y-61178000D01*
X164563000Y-60863000D02*
X160913000Y-60863000D01*
X164878000Y-61178000D02*
X164563000Y-60863000D01*
X158193999Y-59193001D02*
X158083999Y-59083001D01*
X138770000Y-48500000D02*
X138800000Y-48500000D01*
X160913000Y-60863000D02*
X159243001Y-59193001D01*
X158083999Y-59083001D02*
X158083999Y-58033999D01*
X159243001Y-59193001D02*
X158193999Y-59193001D01*
X158083999Y-58033999D02*
X157700000Y-57650000D01*
X157000000Y-55450000D02*
X153050000Y-55450000D01*
X153050000Y-55450000D02*
X152800000Y-55700000D01*
X149825000Y-55700000D02*
X148775000Y-54650000D01*
X148775000Y-54650000D02*
X145625000Y-54650000D01*
X145625000Y-54650000D02*
X144775000Y-53800000D01*
X144775000Y-53800000D02*
X139250000Y-53800000D01*
X139250000Y-53800000D02*
X138650000Y-53200000D01*
X135310000Y-51850000D02*
X135310000Y-50290000D01*
X136980000Y-48620000D02*
X138920000Y-48620000D01*
X135310000Y-50290000D02*
X136980000Y-48620000D01*
X138900000Y-46600000D02*
X138900000Y-47300000D01*
X138920000Y-48620000D02*
X139900000Y-48620000D01*
X138800000Y-48500000D02*
X138920000Y-48620000D01*
X138800000Y-47400000D02*
X138800000Y-48500000D01*
X138900000Y-47300000D02*
X138800000Y-47400000D01*
D37*
%TO.N,IA1+*%
X179350000Y-76150000D02*
X183000000Y-76150000D01*
X170400000Y-74650000D02*
X170400000Y-74750000D01*
X170400000Y-74750000D02*
X171050000Y-75400000D01*
X171050000Y-75400000D02*
X171800000Y-75400000D01*
X171800000Y-75400000D02*
X172550000Y-76150000D01*
X172550000Y-76150000D02*
X179350000Y-76150000D01*
X171378000Y-71778000D02*
X172100000Y-72500000D01*
X181053400Y-49350000D02*
X179705000Y-50698400D01*
X182700000Y-49350000D02*
X181053400Y-49350000D01*
X185500000Y-52150000D02*
X182700000Y-49350000D01*
X185500000Y-73650000D02*
X185500000Y-52150000D01*
X183000000Y-76150000D02*
X185500000Y-73650000D01*
X171378000Y-71367400D02*
X171378000Y-71778000D01*
X179603400Y-50800000D02*
X179705000Y-50698400D01*
%TO.N,IA1-*%
X179200000Y-76650000D02*
X183200000Y-76650000D01*
X170550000Y-75900000D02*
X171600000Y-75900000D01*
X171600000Y-75900000D02*
X172350000Y-76650000D01*
X172350000Y-76650000D02*
X179200000Y-76650000D01*
X169600000Y-74950000D02*
X170500000Y-75850000D01*
X169600000Y-72589400D02*
X169600000Y-74950000D01*
X170500000Y-75850000D02*
X170550000Y-75900000D01*
X178250000Y-51743400D02*
X179705000Y-53198400D01*
X178250000Y-49300000D02*
X178250000Y-51743400D01*
X178700000Y-48850000D02*
X178250000Y-49300000D01*
X182900000Y-48850000D02*
X178700000Y-48850000D01*
X186000000Y-51950000D02*
X182900000Y-48850000D01*
X186000000Y-71200000D02*
X186000000Y-51950000D01*
X186000000Y-73850000D02*
X186000000Y-71200000D01*
X183200000Y-76650000D02*
X186000000Y-73850000D01*
X169378000Y-72367400D02*
X169600000Y-72589400D01*
X169378000Y-72367400D02*
X169000000Y-72745400D01*
X169378000Y-72367400D02*
X169522400Y-72367400D01*
X179563400Y-53340000D02*
X179705000Y-53198400D01*
%TO.N,IC1+*%
X179550000Y-75650000D02*
X182800000Y-75650000D01*
X185000000Y-53493400D02*
X182205000Y-50698400D01*
X185000000Y-73450000D02*
X185000000Y-53493400D01*
X182800000Y-75650000D02*
X185000000Y-73450000D01*
X171378000Y-67367400D02*
X173050000Y-69039400D01*
X172750000Y-75650000D02*
X179550000Y-75650000D01*
X179550000Y-75650000D02*
X179450000Y-75650000D01*
X171750000Y-74650000D02*
X172750000Y-75650000D01*
X171400000Y-74650000D02*
X171750000Y-74650000D01*
X172850000Y-72150000D02*
X172850000Y-73200000D01*
X172450000Y-71750000D02*
X172850000Y-72150000D01*
X172450000Y-71300000D02*
X172450000Y-71750000D01*
X173050000Y-70700000D02*
X172450000Y-71300000D01*
X173050000Y-69039400D02*
X173050000Y-70700000D01*
%TO.N,IC1-*%
X180250000Y-75150000D02*
X182600000Y-75150000D01*
X170500000Y-73100000D02*
X170900000Y-73100000D01*
X170900000Y-73100000D02*
X172950000Y-75150000D01*
X172950000Y-75150000D02*
X180250000Y-75150000D01*
X184500000Y-55493400D02*
X182205000Y-53198400D01*
X184500000Y-73250000D02*
X184500000Y-55493400D01*
X182600000Y-75150000D02*
X184500000Y-73250000D01*
%TO.N,IB1+*%
X171378000Y-69428000D02*
X172300000Y-70350000D01*
X171380000Y-76400000D02*
X171630000Y-76650000D01*
X170310000Y-76400000D02*
X171380000Y-76400000D01*
X168840000Y-74930000D02*
X170310000Y-76400000D01*
X168840000Y-74230000D02*
X168840000Y-74930000D01*
X177600000Y-77150000D02*
X183400000Y-77150000D01*
X183400000Y-77150000D02*
X187700000Y-72850000D01*
X187700000Y-72850000D02*
X187700000Y-50250000D01*
X187700000Y-50250000D02*
X185800000Y-48350000D01*
X185800000Y-48350000D02*
X178500000Y-48350000D01*
X178500000Y-48350000D02*
X177750000Y-49100000D01*
X177750000Y-49100000D02*
X177750000Y-53743400D01*
X177750000Y-53743400D02*
X179705000Y-55698400D01*
X172150000Y-77150000D02*
X177600000Y-77150000D01*
X171650000Y-76650000D02*
X172150000Y-77150000D01*
X171630000Y-76650000D02*
X171650000Y-76650000D01*
X171378000Y-69367400D02*
X171378000Y-69428000D01*
X179523400Y-55880000D02*
X179705000Y-55698400D01*
%TO.N,IA2-*%
X178100000Y-65690400D02*
X179705000Y-67295400D01*
X178100000Y-63850000D02*
X178100000Y-65690400D01*
%TO.N,IC2+*%
X180509600Y-63100000D02*
X182205000Y-64795400D01*
X177800000Y-63100000D02*
X180509600Y-63100000D01*
X177350000Y-63550000D02*
X177800000Y-63100000D01*
X177350000Y-65650000D02*
X177350000Y-63550000D01*
X178350000Y-66650000D02*
X177350000Y-65650000D01*
X178350000Y-68100000D02*
X178350000Y-66650000D01*
%TO.N,IC2-*%
X184000000Y-70850000D02*
X184000000Y-69090400D01*
X182400000Y-74650000D02*
X184000000Y-73050000D01*
X184000000Y-73050000D02*
X184000000Y-70850000D01*
X182205000Y-67295400D02*
X183500000Y-68590400D01*
X170250000Y-67239400D02*
X169378000Y-66367400D01*
X173150000Y-74650000D02*
X180950000Y-74650000D01*
X170100000Y-71600000D02*
X173150000Y-74650000D01*
X170100000Y-71200000D02*
X170100000Y-71600000D01*
X170500000Y-70800000D02*
X170100000Y-71200000D01*
X170500000Y-70000000D02*
X170500000Y-70800000D01*
X170300000Y-69800000D02*
X170500000Y-70000000D01*
X170300000Y-69000000D02*
X170300000Y-69800000D01*
X170450000Y-68850000D02*
X170300000Y-69000000D01*
X170450000Y-67900000D02*
X170450000Y-68850000D01*
X170250000Y-67700000D02*
X170450000Y-67900000D01*
X170250000Y-67239400D02*
X170250000Y-67700000D01*
X180950000Y-74650000D02*
X182400000Y-74650000D01*
X184000000Y-69090400D02*
X183500000Y-68590400D01*
%TO.N,IB2-*%
X176350000Y-66050000D02*
X176350000Y-68940400D01*
X175150000Y-61550000D02*
X176000000Y-61550000D01*
X176000000Y-61550000D02*
X176350000Y-61900000D01*
X176350000Y-61900000D02*
X176350000Y-66050000D01*
X173750000Y-61550000D02*
X175150000Y-61550000D01*
X176350000Y-68940400D02*
X179705000Y-72295400D01*
%TO.N,IB1-*%
X168100000Y-74600000D02*
X168100000Y-74890000D01*
X168100000Y-71300000D02*
X168100000Y-74600000D01*
X169032600Y-70367400D02*
X168100000Y-71300000D01*
X171940000Y-77650000D02*
X171950000Y-77650000D01*
X171170000Y-76880000D02*
X171940000Y-77650000D01*
X170090000Y-76880000D02*
X171170000Y-76880000D01*
X168100000Y-74890000D02*
X170090000Y-76880000D01*
X177250000Y-55743400D02*
X179705000Y-58198400D01*
X171950000Y-77650000D02*
X183600000Y-77650000D01*
X183600000Y-77650000D02*
X188200000Y-73050000D01*
X188200000Y-73050000D02*
X188200000Y-49950000D01*
X188200000Y-49950000D02*
X186100000Y-47850000D01*
X186100000Y-47850000D02*
X178300000Y-47850000D01*
X178300000Y-47850000D02*
X177250000Y-48900000D01*
X177250000Y-48900000D02*
X177250000Y-55743400D01*
X169378000Y-70367400D02*
X169032600Y-70367400D01*
%TO.N,IN2-*%
X173450000Y-62300000D02*
X174150000Y-63000000D01*
X173000000Y-61100000D02*
X173000000Y-61850000D01*
X173000000Y-54989400D02*
X173000000Y-61100000D01*
X171378000Y-53367400D02*
X173000000Y-54989400D01*
X173000000Y-61850000D02*
X173450000Y-62300000D01*
X180850400Y-73650000D02*
X182205000Y-72295400D01*
X175150000Y-73650000D02*
X180850400Y-73650000D01*
X174150000Y-72650000D02*
X175150000Y-73650000D01*
X174150000Y-63000000D02*
X174150000Y-72650000D01*
%TO.N,IB2+*%
X176850000Y-65850000D02*
X176850000Y-67750000D01*
X174600000Y-60750000D02*
X176050000Y-60750000D01*
X176050000Y-60750000D02*
X176850000Y-61550000D01*
X176850000Y-61550000D02*
X176850000Y-65850000D01*
X174550000Y-60800000D02*
X174600000Y-60750000D01*
X176850000Y-67750000D02*
X178895400Y-69795400D01*
X178895400Y-69795400D02*
X179705000Y-69795400D01*
X178995400Y-69795400D02*
X179705000Y-69795400D01*
X174550000Y-60800000D02*
X174500000Y-60850000D01*
X169378000Y-58367400D02*
X169378000Y-58928000D01*
%TO.N,IN2+*%
X173200000Y-62800000D02*
X173650000Y-63250000D01*
X172500000Y-56489400D02*
X172500000Y-62100000D01*
X172500000Y-62100000D02*
X173200000Y-62800000D01*
X171378000Y-55367400D02*
X172500000Y-56489400D01*
X183500000Y-71090400D02*
X182205000Y-69795400D01*
X183500000Y-72850000D02*
X183500000Y-71090400D01*
X182200000Y-74150000D02*
X183500000Y-72850000D01*
X174950000Y-74150000D02*
X182200000Y-74150000D01*
X173650000Y-72850000D02*
X174950000Y-74150000D01*
X173650000Y-63250000D02*
X173650000Y-72850000D01*
D36*
%TO.N,+3.3V_ISO*%
X161900000Y-74225000D02*
X161900000Y-64030388D01*
X166878000Y-72317400D02*
X166878000Y-73622000D01*
X156850000Y-58980388D02*
X156850000Y-56525000D01*
X166878000Y-73622000D02*
X164500000Y-76000000D01*
X156625000Y-56300000D02*
X155075000Y-56300000D01*
X144374999Y-55999999D02*
X143975000Y-55600000D01*
X161900000Y-64030388D02*
X156850000Y-58980388D01*
X156850000Y-56525000D02*
X156625000Y-56300000D01*
X163675000Y-76000000D02*
X161900000Y-74225000D01*
X153925000Y-57450000D02*
X149175000Y-57450000D01*
X149175000Y-57450000D02*
X148025000Y-56300000D01*
X144675000Y-56300000D02*
X144374999Y-55999999D01*
X155075000Y-56300000D02*
X153925000Y-57450000D01*
X148025000Y-56300000D02*
X144675000Y-56300000D01*
X164500000Y-76000000D02*
X163675000Y-76000000D01*
X144350000Y-49140000D02*
X143830000Y-48620000D01*
X144350000Y-52800000D02*
X144350000Y-49140000D01*
X142900000Y-48620000D02*
X143830000Y-48620000D01*
X143900000Y-47350000D02*
X143900000Y-46600000D01*
X144000000Y-47450000D02*
X143900000Y-47350000D01*
X144000000Y-48450000D02*
X144000000Y-47450000D01*
X143830000Y-48620000D02*
X144000000Y-48450000D01*
%TO.N,+3V3*%
X152175000Y-53750000D02*
X151975000Y-53750000D01*
X145525000Y-52675000D02*
X145525000Y-53325000D01*
X161810600Y-52250000D02*
X158775000Y-52250000D01*
X158775000Y-52250000D02*
X157275000Y-53750000D01*
X157275000Y-53750000D02*
X152175000Y-53750000D01*
X161810600Y-52250000D02*
X164878000Y-55317400D01*
X146025000Y-53825000D02*
X145525000Y-53325000D01*
X149150000Y-53825000D02*
X146025000Y-53825000D01*
X150100000Y-54775000D02*
X149150000Y-53825000D01*
X150950000Y-54775000D02*
X150100000Y-54775000D01*
X151975000Y-53750000D02*
X150950000Y-54775000D01*
X146525000Y-50805000D02*
X145645000Y-50805000D01*
X145525000Y-52025000D02*
X145525000Y-52675000D01*
X145425000Y-51925000D02*
X145525000Y-52025000D01*
X145425000Y-51025000D02*
X145425000Y-51925000D01*
X145645000Y-50805000D02*
X145425000Y-51025000D01*
D37*
%TO.N,Net-(R32-Pad1)*%
X153925000Y-50875000D02*
X153125000Y-50875000D01*
X152725000Y-51275000D02*
X152025000Y-51275000D01*
X153125000Y-50875000D02*
X152725000Y-51275000D01*
%TO.N,Net-(R33-Pad2)*%
X156750000Y-52675000D02*
X157300000Y-52675000D01*
X157000000Y-50875000D02*
X156125000Y-50875000D01*
X157425000Y-51300000D02*
X157000000Y-50875000D01*
X157425000Y-52550000D02*
X157425000Y-51300000D01*
X157300000Y-52675000D02*
X157425000Y-52550000D01*
X156150000Y-50900000D02*
X156125000Y-50875000D01*
%TO.N,Net-(D2-Pad1)*%
X155250000Y-52675000D02*
X153800000Y-52675000D01*
D36*
%TO.N,VBAT*%
X161325000Y-49937500D02*
X161325000Y-48725000D01*
X163850000Y-52289400D02*
X163850000Y-49850000D01*
X163850000Y-49850000D02*
X164000000Y-49700000D01*
X163850000Y-52289400D02*
X164878000Y-53317400D01*
X161625000Y-48425000D02*
X162275000Y-48425000D01*
X161325000Y-48725000D02*
X161625000Y-48425000D01*
X157975000Y-48625000D02*
X158775000Y-48625000D01*
X160087500Y-49937500D02*
X161325000Y-49937500D01*
X158775000Y-48625000D02*
X160087500Y-49937500D01*
X155725000Y-46925000D02*
X155725000Y-46375000D01*
X156125000Y-48975000D02*
X156125000Y-48175000D01*
X155725000Y-47775000D02*
X155725000Y-46925000D01*
X156125000Y-48175000D02*
X155725000Y-47775000D01*
X156125000Y-48975000D02*
X156925000Y-48975000D01*
X157275000Y-48625000D02*
X157975000Y-48625000D01*
X156925000Y-48975000D02*
X157275000Y-48625000D01*
D35*
%TO.N,/UN_IN*%
X129888000Y-68189000D02*
X126211000Y-68189000D01*
X126211000Y-68189000D02*
X125950000Y-68450000D01*
X125950000Y-71350000D02*
X122800000Y-74500000D01*
X125950000Y-68450000D02*
X125950000Y-71350000D01*
X122800000Y-74500000D02*
X122450000Y-74500000D01*
%TD*%
D38*
%TO.N,GNDA*%
G36*
X138355707Y-55095657D02*
G01*
X138377630Y-55122370D01*
X138404341Y-55144291D01*
X138404342Y-55144292D01*
X138484218Y-55209845D01*
X138590856Y-55266844D01*
X138605825Y-55274845D01*
X138737776Y-55314872D01*
X138840610Y-55325000D01*
X138840613Y-55325000D01*
X138875000Y-55328387D01*
X138909387Y-55325000D01*
X143168875Y-55325000D01*
X143157665Y-55352064D01*
X143125000Y-55516282D01*
X143125000Y-55683718D01*
X143157665Y-55847936D01*
X143221740Y-56002626D01*
X143314762Y-56141844D01*
X143433156Y-56260238D01*
X143572374Y-56353260D01*
X143727064Y-56417335D01*
X143821089Y-56436038D01*
X143855707Y-56470656D01*
X144155700Y-56770648D01*
X144177630Y-56797370D01*
X144284219Y-56884845D01*
X144405825Y-56949845D01*
X144537776Y-56989872D01*
X144640610Y-57000000D01*
X144640612Y-57000000D01*
X144674999Y-57003387D01*
X144709386Y-57000000D01*
X146287868Y-57000000D01*
X149068934Y-59781066D01*
X149091664Y-59799720D01*
X149117597Y-59813582D01*
X149145736Y-59822118D01*
X149175000Y-59825000D01*
X153962868Y-59825000D01*
X156493934Y-62356066D01*
X156516664Y-62374720D01*
X156542597Y-62388582D01*
X156570736Y-62397118D01*
X156600000Y-62400000D01*
X158148276Y-62400000D01*
X158588001Y-62839725D01*
X158588000Y-72287353D01*
X158545785Y-72291511D01*
X158460959Y-72317243D01*
X158382784Y-72359029D01*
X158314263Y-72415263D01*
X158258029Y-72483784D01*
X158216243Y-72561959D01*
X158190511Y-72646785D01*
X158181823Y-72735000D01*
X158181823Y-74043000D01*
X158190511Y-74131215D01*
X158216243Y-74216041D01*
X158258029Y-74294216D01*
X158314263Y-74362737D01*
X158382784Y-74418971D01*
X158460959Y-74460757D01*
X158545785Y-74486489D01*
X158634000Y-74495177D01*
X159942000Y-74495177D01*
X160030215Y-74486489D01*
X160115041Y-74460757D01*
X160193216Y-74418971D01*
X160261737Y-74362737D01*
X160317971Y-74294216D01*
X160359757Y-74216041D01*
X160385489Y-74131215D01*
X160394177Y-74043000D01*
X160394177Y-72735000D01*
X160385489Y-72646785D01*
X160359757Y-72561959D01*
X160317971Y-72483784D01*
X160261737Y-72415263D01*
X160193216Y-72359029D01*
X160115041Y-72317243D01*
X160030215Y-72291511D01*
X159988000Y-72287353D01*
X159988000Y-63108337D01*
X161200001Y-64320338D01*
X161200000Y-74190613D01*
X161196613Y-74225000D01*
X161200000Y-74259387D01*
X161200000Y-74259389D01*
X161210128Y-74362223D01*
X161240018Y-74460757D01*
X161250155Y-74494174D01*
X161315155Y-74615781D01*
X161359317Y-74669592D01*
X161402630Y-74722369D01*
X161429343Y-74744292D01*
X163155708Y-76470658D01*
X163177630Y-76497370D01*
X163204341Y-76519291D01*
X163204342Y-76519292D01*
X163284218Y-76584845D01*
X163352060Y-76621107D01*
X163405825Y-76649845D01*
X163537776Y-76689872D01*
X163640610Y-76700000D01*
X163640612Y-76700000D01*
X163674999Y-76703387D01*
X163709386Y-76700000D01*
X164465613Y-76700000D01*
X164500000Y-76703387D01*
X164534387Y-76700000D01*
X164534390Y-76700000D01*
X164637224Y-76689872D01*
X164769175Y-76649845D01*
X164890781Y-76584845D01*
X164997370Y-76497370D01*
X165019296Y-76470653D01*
X167348659Y-74141291D01*
X167375370Y-74119370D01*
X167404955Y-74083321D01*
X167462845Y-74012782D01*
X167525001Y-73896496D01*
X167525001Y-74571745D01*
X167525000Y-74571755D01*
X167525000Y-74861757D01*
X167522218Y-74890000D01*
X167525000Y-74918243D01*
X167525000Y-74918246D01*
X167533320Y-75002720D01*
X167566199Y-75111108D01*
X167578329Y-75133801D01*
X167619592Y-75210998D01*
X167662039Y-75262720D01*
X167691447Y-75298554D01*
X167713389Y-75316561D01*
X169663439Y-77266612D01*
X169681446Y-77288554D01*
X169703386Y-77306559D01*
X169769001Y-77360408D01*
X169868892Y-77413801D01*
X169977280Y-77446680D01*
X170061754Y-77455000D01*
X170061757Y-77455000D01*
X170090000Y-77457782D01*
X170118243Y-77455000D01*
X170931828Y-77455000D01*
X171217827Y-77741000D01*
X157000000Y-77741000D01*
X157000000Y-64700000D01*
X156997118Y-64670736D01*
X156988582Y-64642597D01*
X156974720Y-64616664D01*
X156956066Y-64593934D01*
X154981066Y-62618934D01*
X154958336Y-62600280D01*
X154932403Y-62586418D01*
X154904264Y-62577882D01*
X154875000Y-62575000D01*
X145687132Y-62575000D01*
X137187132Y-54075000D01*
X137335051Y-54075000D01*
X138355707Y-55095657D01*
G37*
X138355707Y-55095657D02*
X138377630Y-55122370D01*
X138404341Y-55144291D01*
X138404342Y-55144292D01*
X138484218Y-55209845D01*
X138590856Y-55266844D01*
X138605825Y-55274845D01*
X138737776Y-55314872D01*
X138840610Y-55325000D01*
X138840613Y-55325000D01*
X138875000Y-55328387D01*
X138909387Y-55325000D01*
X143168875Y-55325000D01*
X143157665Y-55352064D01*
X143125000Y-55516282D01*
X143125000Y-55683718D01*
X143157665Y-55847936D01*
X143221740Y-56002626D01*
X143314762Y-56141844D01*
X143433156Y-56260238D01*
X143572374Y-56353260D01*
X143727064Y-56417335D01*
X143821089Y-56436038D01*
X143855707Y-56470656D01*
X144155700Y-56770648D01*
X144177630Y-56797370D01*
X144284219Y-56884845D01*
X144405825Y-56949845D01*
X144537776Y-56989872D01*
X144640610Y-57000000D01*
X144640612Y-57000000D01*
X144674999Y-57003387D01*
X144709386Y-57000000D01*
X146287868Y-57000000D01*
X149068934Y-59781066D01*
X149091664Y-59799720D01*
X149117597Y-59813582D01*
X149145736Y-59822118D01*
X149175000Y-59825000D01*
X153962868Y-59825000D01*
X156493934Y-62356066D01*
X156516664Y-62374720D01*
X156542597Y-62388582D01*
X156570736Y-62397118D01*
X156600000Y-62400000D01*
X158148276Y-62400000D01*
X158588001Y-62839725D01*
X158588000Y-72287353D01*
X158545785Y-72291511D01*
X158460959Y-72317243D01*
X158382784Y-72359029D01*
X158314263Y-72415263D01*
X158258029Y-72483784D01*
X158216243Y-72561959D01*
X158190511Y-72646785D01*
X158181823Y-72735000D01*
X158181823Y-74043000D01*
X158190511Y-74131215D01*
X158216243Y-74216041D01*
X158258029Y-74294216D01*
X158314263Y-74362737D01*
X158382784Y-74418971D01*
X158460959Y-74460757D01*
X158545785Y-74486489D01*
X158634000Y-74495177D01*
X159942000Y-74495177D01*
X160030215Y-74486489D01*
X160115041Y-74460757D01*
X160193216Y-74418971D01*
X160261737Y-74362737D01*
X160317971Y-74294216D01*
X160359757Y-74216041D01*
X160385489Y-74131215D01*
X160394177Y-74043000D01*
X160394177Y-72735000D01*
X160385489Y-72646785D01*
X160359757Y-72561959D01*
X160317971Y-72483784D01*
X160261737Y-72415263D01*
X160193216Y-72359029D01*
X160115041Y-72317243D01*
X160030215Y-72291511D01*
X159988000Y-72287353D01*
X159988000Y-63108337D01*
X161200001Y-64320338D01*
X161200000Y-74190613D01*
X161196613Y-74225000D01*
X161200000Y-74259387D01*
X161200000Y-74259389D01*
X161210128Y-74362223D01*
X161240018Y-74460757D01*
X161250155Y-74494174D01*
X161315155Y-74615781D01*
X161359317Y-74669592D01*
X161402630Y-74722369D01*
X161429343Y-74744292D01*
X163155708Y-76470658D01*
X163177630Y-76497370D01*
X163204341Y-76519291D01*
X163204342Y-76519292D01*
X163284218Y-76584845D01*
X163352060Y-76621107D01*
X163405825Y-76649845D01*
X163537776Y-76689872D01*
X163640610Y-76700000D01*
X163640612Y-76700000D01*
X163674999Y-76703387D01*
X163709386Y-76700000D01*
X164465613Y-76700000D01*
X164500000Y-76703387D01*
X164534387Y-76700000D01*
X164534390Y-76700000D01*
X164637224Y-76689872D01*
X164769175Y-76649845D01*
X164890781Y-76584845D01*
X164997370Y-76497370D01*
X165019296Y-76470653D01*
X167348659Y-74141291D01*
X167375370Y-74119370D01*
X167404955Y-74083321D01*
X167462845Y-74012782D01*
X167525001Y-73896496D01*
X167525001Y-74571745D01*
X167525000Y-74571755D01*
X167525000Y-74861757D01*
X167522218Y-74890000D01*
X167525000Y-74918243D01*
X167525000Y-74918246D01*
X167533320Y-75002720D01*
X167566199Y-75111108D01*
X167578329Y-75133801D01*
X167619592Y-75210998D01*
X167662039Y-75262720D01*
X167691447Y-75298554D01*
X167713389Y-75316561D01*
X169663439Y-77266612D01*
X169681446Y-77288554D01*
X169703386Y-77306559D01*
X169769001Y-77360408D01*
X169868892Y-77413801D01*
X169977280Y-77446680D01*
X170061754Y-77455000D01*
X170061757Y-77455000D01*
X170090000Y-77457782D01*
X170118243Y-77455000D01*
X170931828Y-77455000D01*
X171217827Y-77741000D01*
X157000000Y-77741000D01*
X157000000Y-64700000D01*
X156997118Y-64670736D01*
X156988582Y-64642597D01*
X156974720Y-64616664D01*
X156956066Y-64593934D01*
X154981066Y-62618934D01*
X154958336Y-62600280D01*
X154932403Y-62586418D01*
X154904264Y-62577882D01*
X154875000Y-62575000D01*
X145687132Y-62575000D01*
X137187132Y-54075000D01*
X137335051Y-54075000D01*
X138355707Y-55095657D01*
G36*
X192293001Y-77741000D02*
G01*
X184322172Y-77741000D01*
X188586613Y-73476560D01*
X188608554Y-73458554D01*
X188646213Y-73412665D01*
X188680408Y-73370999D01*
X188697355Y-73339292D01*
X188792903Y-73403135D01*
X189020389Y-73497363D01*
X189261886Y-73545400D01*
X189508114Y-73545400D01*
X189749611Y-73497363D01*
X189977097Y-73403135D01*
X190181828Y-73266338D01*
X190355938Y-73092228D01*
X190492735Y-72887497D01*
X190586963Y-72660011D01*
X190635000Y-72418514D01*
X190635000Y-72172286D01*
X190586963Y-71930789D01*
X190492735Y-71703303D01*
X190355938Y-71498572D01*
X190181828Y-71324462D01*
X189977097Y-71187665D01*
X189749611Y-71093437D01*
X189508114Y-71045400D01*
X189261886Y-71045400D01*
X189020389Y-71093437D01*
X188792903Y-71187665D01*
X188775000Y-71199627D01*
X188775000Y-65891173D01*
X188792903Y-65903135D01*
X189020389Y-65997363D01*
X189261886Y-66045400D01*
X189508114Y-66045400D01*
X189749611Y-65997363D01*
X189977097Y-65903135D01*
X190181828Y-65766338D01*
X190355938Y-65592228D01*
X190492735Y-65387497D01*
X190586963Y-65160011D01*
X190635000Y-64918514D01*
X190635000Y-64672286D01*
X190586963Y-64430789D01*
X190492735Y-64203303D01*
X190355938Y-63998572D01*
X190181828Y-63824462D01*
X189977097Y-63687665D01*
X189749611Y-63593437D01*
X189508114Y-63545400D01*
X189261886Y-63545400D01*
X189020389Y-63593437D01*
X188792903Y-63687665D01*
X188775000Y-63699627D01*
X188775000Y-59294173D01*
X188792903Y-59306135D01*
X189020389Y-59400363D01*
X189261886Y-59448400D01*
X189508114Y-59448400D01*
X189749611Y-59400363D01*
X189977097Y-59306135D01*
X190181828Y-59169338D01*
X190355938Y-58995228D01*
X190492735Y-58790497D01*
X190586963Y-58563011D01*
X190635000Y-58321514D01*
X190635000Y-58075286D01*
X190586963Y-57833789D01*
X190492735Y-57606303D01*
X190355938Y-57401572D01*
X190181828Y-57227462D01*
X189977097Y-57090665D01*
X189749611Y-56996437D01*
X189508114Y-56948400D01*
X189261886Y-56948400D01*
X189020389Y-56996437D01*
X188792903Y-57090665D01*
X188775000Y-57102627D01*
X188775000Y-51794173D01*
X188792903Y-51806135D01*
X189020389Y-51900363D01*
X189261886Y-51948400D01*
X189508114Y-51948400D01*
X189749611Y-51900363D01*
X189977097Y-51806135D01*
X190181828Y-51669338D01*
X190355938Y-51495228D01*
X190492735Y-51290497D01*
X190586963Y-51063011D01*
X190635000Y-50821514D01*
X190635000Y-50575286D01*
X190586963Y-50333789D01*
X190492735Y-50106303D01*
X190355938Y-49901572D01*
X190181828Y-49727462D01*
X189977097Y-49590665D01*
X189749611Y-49496437D01*
X189508114Y-49448400D01*
X189261886Y-49448400D01*
X189020389Y-49496437D01*
X188792903Y-49590665D01*
X188694914Y-49656140D01*
X188693953Y-49654343D01*
X188680408Y-49629001D01*
X188648946Y-49590665D01*
X188608554Y-49541446D01*
X188586606Y-49523434D01*
X186526566Y-47463394D01*
X186508554Y-47441446D01*
X186420998Y-47369592D01*
X186321108Y-47316199D01*
X186212720Y-47283320D01*
X186128246Y-47275000D01*
X186128243Y-47275000D01*
X186100000Y-47272218D01*
X186071757Y-47275000D01*
X178328242Y-47275000D01*
X178299999Y-47272218D01*
X178271756Y-47275000D01*
X178271754Y-47275000D01*
X178187280Y-47283320D01*
X178091999Y-47312223D01*
X178078892Y-47316199D01*
X177979001Y-47369592D01*
X177948719Y-47394444D01*
X177891446Y-47441446D01*
X177873439Y-47463388D01*
X176863393Y-48473435D01*
X176841446Y-48491446D01*
X176794287Y-48548911D01*
X176769592Y-48579002D01*
X176727264Y-48658192D01*
X176716199Y-48678893D01*
X176683320Y-48787281D01*
X176675213Y-48869592D01*
X176672218Y-48900000D01*
X176675000Y-48928243D01*
X176675001Y-55715147D01*
X176672218Y-55743400D01*
X176681460Y-55837223D01*
X176683321Y-55856120D01*
X176687281Y-55869174D01*
X176716199Y-55964507D01*
X176769592Y-56064398D01*
X176801590Y-56103387D01*
X176841447Y-56151954D01*
X176863389Y-56169961D01*
X178395313Y-57701886D01*
X178358801Y-57790035D01*
X178305000Y-58060512D01*
X178305000Y-58336288D01*
X178358801Y-58606765D01*
X178464336Y-58861549D01*
X178617549Y-59090848D01*
X178812552Y-59285851D01*
X179041851Y-59439064D01*
X179296635Y-59544599D01*
X179567112Y-59598400D01*
X179842888Y-59598400D01*
X180113365Y-59544599D01*
X180368149Y-59439064D01*
X180597448Y-59285851D01*
X180792451Y-59090848D01*
X180945664Y-58861549D01*
X180955000Y-58839010D01*
X180964336Y-58861549D01*
X181117549Y-59090848D01*
X181312552Y-59285851D01*
X181541851Y-59439064D01*
X181796635Y-59544599D01*
X182067112Y-59598400D01*
X182342888Y-59598400D01*
X182613365Y-59544599D01*
X182868149Y-59439064D01*
X183097448Y-59285851D01*
X183292451Y-59090848D01*
X183445664Y-58861549D01*
X183551199Y-58606765D01*
X183605000Y-58336288D01*
X183605000Y-58060512D01*
X183551199Y-57790035D01*
X183445664Y-57535251D01*
X183292451Y-57305952D01*
X183097448Y-57110949D01*
X182868149Y-56957736D01*
X182845610Y-56948400D01*
X182868149Y-56939064D01*
X183097448Y-56785851D01*
X183292451Y-56590848D01*
X183445664Y-56361549D01*
X183551199Y-56106765D01*
X183605000Y-55836288D01*
X183605000Y-55560512D01*
X183568018Y-55374591D01*
X183925001Y-55731574D01*
X183925000Y-68202227D01*
X183514687Y-67791914D01*
X183551199Y-67703765D01*
X183605000Y-67433288D01*
X183605000Y-67157512D01*
X183551199Y-66887035D01*
X183445664Y-66632251D01*
X183292451Y-66402952D01*
X183097448Y-66207949D01*
X182868149Y-66054736D01*
X182845610Y-66045400D01*
X182868149Y-66036064D01*
X183097448Y-65882851D01*
X183292451Y-65687848D01*
X183445664Y-65458549D01*
X183551199Y-65203765D01*
X183605000Y-64933288D01*
X183605000Y-64657512D01*
X183551199Y-64387035D01*
X183445664Y-64132251D01*
X183292451Y-63902952D01*
X183097448Y-63707949D01*
X182868149Y-63554736D01*
X182613365Y-63449201D01*
X182342888Y-63395400D01*
X182067112Y-63395400D01*
X181796635Y-63449201D01*
X181708486Y-63485714D01*
X180936165Y-62713393D01*
X180918154Y-62691446D01*
X180830598Y-62619592D01*
X180730708Y-62566199D01*
X180622320Y-62533320D01*
X180537846Y-62525000D01*
X180537843Y-62525000D01*
X180509600Y-62522218D01*
X180481357Y-62525000D01*
X177828242Y-62525000D01*
X177799999Y-62522218D01*
X177771756Y-62525000D01*
X177771754Y-62525000D01*
X177687280Y-62533320D01*
X177578892Y-62566199D01*
X177479001Y-62619592D01*
X177434504Y-62656110D01*
X177425000Y-62663909D01*
X177425000Y-61578243D01*
X177427782Y-61550000D01*
X177424176Y-61513387D01*
X177416680Y-61437280D01*
X177383801Y-61328892D01*
X177379640Y-61321108D01*
X177330408Y-61229001D01*
X177276559Y-61163386D01*
X177258554Y-61141446D01*
X177236613Y-61123440D01*
X176476565Y-60363393D01*
X176458554Y-60341446D01*
X176370998Y-60269592D01*
X176271108Y-60216199D01*
X176162720Y-60183320D01*
X176078246Y-60175000D01*
X176078243Y-60175000D01*
X176050000Y-60172218D01*
X176021757Y-60175000D01*
X175127082Y-60175000D01*
X175091844Y-60139762D01*
X174952626Y-60046740D01*
X174797936Y-59982665D01*
X174633718Y-59950000D01*
X174466282Y-59950000D01*
X174302064Y-59982665D01*
X174147374Y-60046740D01*
X174008156Y-60139762D01*
X173889762Y-60258156D01*
X173796740Y-60397374D01*
X173732665Y-60552064D01*
X173703239Y-60700000D01*
X173666282Y-60700000D01*
X173575000Y-60718157D01*
X173575000Y-55017642D01*
X173577782Y-54989399D01*
X173574773Y-54958847D01*
X173566680Y-54876680D01*
X173533801Y-54768292D01*
X173489197Y-54684845D01*
X173480408Y-54668401D01*
X173426559Y-54602786D01*
X173408554Y-54580846D01*
X173386613Y-54562840D01*
X172500434Y-53676661D01*
X172539200Y-53481768D01*
X172539200Y-53253032D01*
X172494576Y-53028690D01*
X172407042Y-52817365D01*
X172279963Y-52627178D01*
X172118222Y-52465437D01*
X171928035Y-52338358D01*
X171716710Y-52250824D01*
X171492368Y-52206200D01*
X171263632Y-52206200D01*
X171039290Y-52250824D01*
X170827965Y-52338358D01*
X170637778Y-52465437D01*
X170476037Y-52627178D01*
X170348958Y-52817365D01*
X170261424Y-53028690D01*
X170216800Y-53253032D01*
X170216800Y-53481768D01*
X170237222Y-53584437D01*
X170118222Y-53465437D01*
X169928035Y-53338358D01*
X169716710Y-53250824D01*
X169492368Y-53206200D01*
X169263632Y-53206200D01*
X169039290Y-53250824D01*
X168827965Y-53338358D01*
X168637778Y-53465437D01*
X168476037Y-53627178D01*
X168348958Y-53817365D01*
X168261424Y-54028690D01*
X168216800Y-54253032D01*
X168216800Y-54481768D01*
X168261424Y-54706110D01*
X168348958Y-54917435D01*
X168476037Y-55107622D01*
X168637778Y-55269363D01*
X168784501Y-55367400D01*
X168637778Y-55465437D01*
X168476037Y-55627178D01*
X168348958Y-55817365D01*
X168261424Y-56028690D01*
X168216800Y-56253032D01*
X168216800Y-56481768D01*
X168261424Y-56706110D01*
X168348958Y-56917435D01*
X168476037Y-57107622D01*
X168637778Y-57269363D01*
X168784501Y-57367400D01*
X168637778Y-57465437D01*
X168476037Y-57627178D01*
X168348958Y-57817365D01*
X168261424Y-58028690D01*
X168216800Y-58253032D01*
X168216800Y-58481768D01*
X168261424Y-58706110D01*
X168348958Y-58917435D01*
X168476037Y-59107622D01*
X168503714Y-59135299D01*
X168288049Y-59092400D01*
X167967951Y-59092400D01*
X167900000Y-59105916D01*
X167900000Y-58877974D01*
X167907042Y-58867435D01*
X167994576Y-58656110D01*
X168039200Y-58431768D01*
X168039200Y-58203032D01*
X167994576Y-57978690D01*
X167907042Y-57767365D01*
X167900000Y-57756826D01*
X167900000Y-56877974D01*
X167907042Y-56867435D01*
X167994576Y-56656110D01*
X168039200Y-56431768D01*
X168039200Y-56203032D01*
X167994576Y-55978690D01*
X167907042Y-55767365D01*
X167900000Y-55756826D01*
X167900000Y-54877974D01*
X167907042Y-54867435D01*
X167994576Y-54656110D01*
X168039200Y-54431768D01*
X168039200Y-54203032D01*
X167994576Y-53978690D01*
X167907042Y-53767365D01*
X167900000Y-53756826D01*
X167900000Y-53178884D01*
X167967951Y-53192400D01*
X168288049Y-53192400D01*
X168601995Y-53129952D01*
X168897726Y-53007457D01*
X169163877Y-52829620D01*
X169390220Y-52603277D01*
X169568057Y-52337126D01*
X169690552Y-52041395D01*
X169753000Y-51727449D01*
X169753000Y-51407351D01*
X169690552Y-51093405D01*
X169568057Y-50797674D01*
X169390220Y-50531523D01*
X169163877Y-50305180D01*
X168897726Y-50127343D01*
X168601995Y-50004848D01*
X168288049Y-49942400D01*
X167967951Y-49942400D01*
X167900000Y-49955916D01*
X167900000Y-45991000D01*
X192293000Y-45991000D01*
X192293001Y-77741000D01*
G37*
X192293001Y-77741000D02*
X184322172Y-77741000D01*
X188586613Y-73476560D01*
X188608554Y-73458554D01*
X188646213Y-73412665D01*
X188680408Y-73370999D01*
X188697355Y-73339292D01*
X188792903Y-73403135D01*
X189020389Y-73497363D01*
X189261886Y-73545400D01*
X189508114Y-73545400D01*
X189749611Y-73497363D01*
X189977097Y-73403135D01*
X190181828Y-73266338D01*
X190355938Y-73092228D01*
X190492735Y-72887497D01*
X190586963Y-72660011D01*
X190635000Y-72418514D01*
X190635000Y-72172286D01*
X190586963Y-71930789D01*
X190492735Y-71703303D01*
X190355938Y-71498572D01*
X190181828Y-71324462D01*
X189977097Y-71187665D01*
X189749611Y-71093437D01*
X189508114Y-71045400D01*
X189261886Y-71045400D01*
X189020389Y-71093437D01*
X188792903Y-71187665D01*
X188775000Y-71199627D01*
X188775000Y-65891173D01*
X188792903Y-65903135D01*
X189020389Y-65997363D01*
X189261886Y-66045400D01*
X189508114Y-66045400D01*
X189749611Y-65997363D01*
X189977097Y-65903135D01*
X190181828Y-65766338D01*
X190355938Y-65592228D01*
X190492735Y-65387497D01*
X190586963Y-65160011D01*
X190635000Y-64918514D01*
X190635000Y-64672286D01*
X190586963Y-64430789D01*
X190492735Y-64203303D01*
X190355938Y-63998572D01*
X190181828Y-63824462D01*
X189977097Y-63687665D01*
X189749611Y-63593437D01*
X189508114Y-63545400D01*
X189261886Y-63545400D01*
X189020389Y-63593437D01*
X188792903Y-63687665D01*
X188775000Y-63699627D01*
X188775000Y-59294173D01*
X188792903Y-59306135D01*
X189020389Y-59400363D01*
X189261886Y-59448400D01*
X189508114Y-59448400D01*
X189749611Y-59400363D01*
X189977097Y-59306135D01*
X190181828Y-59169338D01*
X190355938Y-58995228D01*
X190492735Y-58790497D01*
X190586963Y-58563011D01*
X190635000Y-58321514D01*
X190635000Y-58075286D01*
X190586963Y-57833789D01*
X190492735Y-57606303D01*
X190355938Y-57401572D01*
X190181828Y-57227462D01*
X189977097Y-57090665D01*
X189749611Y-56996437D01*
X189508114Y-56948400D01*
X189261886Y-56948400D01*
X189020389Y-56996437D01*
X188792903Y-57090665D01*
X188775000Y-57102627D01*
X188775000Y-51794173D01*
X188792903Y-51806135D01*
X189020389Y-51900363D01*
X189261886Y-51948400D01*
X189508114Y-51948400D01*
X189749611Y-51900363D01*
X189977097Y-51806135D01*
X190181828Y-51669338D01*
X190355938Y-51495228D01*
X190492735Y-51290497D01*
X190586963Y-51063011D01*
X190635000Y-50821514D01*
X190635000Y-50575286D01*
X190586963Y-50333789D01*
X190492735Y-50106303D01*
X190355938Y-49901572D01*
X190181828Y-49727462D01*
X189977097Y-49590665D01*
X189749611Y-49496437D01*
X189508114Y-49448400D01*
X189261886Y-49448400D01*
X189020389Y-49496437D01*
X188792903Y-49590665D01*
X188694914Y-49656140D01*
X188693953Y-49654343D01*
X188680408Y-49629001D01*
X188648946Y-49590665D01*
X188608554Y-49541446D01*
X188586606Y-49523434D01*
X186526566Y-47463394D01*
X186508554Y-47441446D01*
X186420998Y-47369592D01*
X186321108Y-47316199D01*
X186212720Y-47283320D01*
X186128246Y-47275000D01*
X186128243Y-47275000D01*
X186100000Y-47272218D01*
X186071757Y-47275000D01*
X178328242Y-47275000D01*
X178299999Y-47272218D01*
X178271756Y-47275000D01*
X178271754Y-47275000D01*
X178187280Y-47283320D01*
X178091999Y-47312223D01*
X178078892Y-47316199D01*
X177979001Y-47369592D01*
X177948719Y-47394444D01*
X177891446Y-47441446D01*
X177873439Y-47463388D01*
X176863393Y-48473435D01*
X176841446Y-48491446D01*
X176794287Y-48548911D01*
X176769592Y-48579002D01*
X176727264Y-48658192D01*
X176716199Y-48678893D01*
X176683320Y-48787281D01*
X176675213Y-48869592D01*
X176672218Y-48900000D01*
X176675000Y-48928243D01*
X176675001Y-55715147D01*
X176672218Y-55743400D01*
X176681460Y-55837223D01*
X176683321Y-55856120D01*
X176687281Y-55869174D01*
X176716199Y-55964507D01*
X176769592Y-56064398D01*
X176801590Y-56103387D01*
X176841447Y-56151954D01*
X176863389Y-56169961D01*
X178395313Y-57701886D01*
X178358801Y-57790035D01*
X178305000Y-58060512D01*
X178305000Y-58336288D01*
X178358801Y-58606765D01*
X178464336Y-58861549D01*
X178617549Y-59090848D01*
X178812552Y-59285851D01*
X179041851Y-59439064D01*
X179296635Y-59544599D01*
X179567112Y-59598400D01*
X179842888Y-59598400D01*
X180113365Y-59544599D01*
X180368149Y-59439064D01*
X180597448Y-59285851D01*
X180792451Y-59090848D01*
X180945664Y-58861549D01*
X180955000Y-58839010D01*
X180964336Y-58861549D01*
X181117549Y-59090848D01*
X181312552Y-59285851D01*
X181541851Y-59439064D01*
X181796635Y-59544599D01*
X182067112Y-59598400D01*
X182342888Y-59598400D01*
X182613365Y-59544599D01*
X182868149Y-59439064D01*
X183097448Y-59285851D01*
X183292451Y-59090848D01*
X183445664Y-58861549D01*
X183551199Y-58606765D01*
X183605000Y-58336288D01*
X183605000Y-58060512D01*
X183551199Y-57790035D01*
X183445664Y-57535251D01*
X183292451Y-57305952D01*
X183097448Y-57110949D01*
X182868149Y-56957736D01*
X182845610Y-56948400D01*
X182868149Y-56939064D01*
X183097448Y-56785851D01*
X183292451Y-56590848D01*
X183445664Y-56361549D01*
X183551199Y-56106765D01*
X183605000Y-55836288D01*
X183605000Y-55560512D01*
X183568018Y-55374591D01*
X183925001Y-55731574D01*
X183925000Y-68202227D01*
X183514687Y-67791914D01*
X183551199Y-67703765D01*
X183605000Y-67433288D01*
X183605000Y-67157512D01*
X183551199Y-66887035D01*
X183445664Y-66632251D01*
X183292451Y-66402952D01*
X183097448Y-66207949D01*
X182868149Y-66054736D01*
X182845610Y-66045400D01*
X182868149Y-66036064D01*
X183097448Y-65882851D01*
X183292451Y-65687848D01*
X183445664Y-65458549D01*
X183551199Y-65203765D01*
X183605000Y-64933288D01*
X183605000Y-64657512D01*
X183551199Y-64387035D01*
X183445664Y-64132251D01*
X183292451Y-63902952D01*
X183097448Y-63707949D01*
X182868149Y-63554736D01*
X182613365Y-63449201D01*
X182342888Y-63395400D01*
X182067112Y-63395400D01*
X181796635Y-63449201D01*
X181708486Y-63485714D01*
X180936165Y-62713393D01*
X180918154Y-62691446D01*
X180830598Y-62619592D01*
X180730708Y-62566199D01*
X180622320Y-62533320D01*
X180537846Y-62525000D01*
X180537843Y-62525000D01*
X180509600Y-62522218D01*
X180481357Y-62525000D01*
X177828242Y-62525000D01*
X177799999Y-62522218D01*
X177771756Y-62525000D01*
X177771754Y-62525000D01*
X177687280Y-62533320D01*
X177578892Y-62566199D01*
X177479001Y-62619592D01*
X177434504Y-62656110D01*
X177425000Y-62663909D01*
X177425000Y-61578243D01*
X177427782Y-61550000D01*
X177424176Y-61513387D01*
X177416680Y-61437280D01*
X177383801Y-61328892D01*
X177379640Y-61321108D01*
X177330408Y-61229001D01*
X177276559Y-61163386D01*
X177258554Y-61141446D01*
X177236613Y-61123440D01*
X176476565Y-60363393D01*
X176458554Y-60341446D01*
X176370998Y-60269592D01*
X176271108Y-60216199D01*
X176162720Y-60183320D01*
X176078246Y-60175000D01*
X176078243Y-60175000D01*
X176050000Y-60172218D01*
X176021757Y-60175000D01*
X175127082Y-60175000D01*
X175091844Y-60139762D01*
X174952626Y-60046740D01*
X174797936Y-59982665D01*
X174633718Y-59950000D01*
X174466282Y-59950000D01*
X174302064Y-59982665D01*
X174147374Y-60046740D01*
X174008156Y-60139762D01*
X173889762Y-60258156D01*
X173796740Y-60397374D01*
X173732665Y-60552064D01*
X173703239Y-60700000D01*
X173666282Y-60700000D01*
X173575000Y-60718157D01*
X173575000Y-55017642D01*
X173577782Y-54989399D01*
X173574773Y-54958847D01*
X173566680Y-54876680D01*
X173533801Y-54768292D01*
X173489197Y-54684845D01*
X173480408Y-54668401D01*
X173426559Y-54602786D01*
X173408554Y-54580846D01*
X173386613Y-54562840D01*
X172500434Y-53676661D01*
X172539200Y-53481768D01*
X172539200Y-53253032D01*
X172494576Y-53028690D01*
X172407042Y-52817365D01*
X172279963Y-52627178D01*
X172118222Y-52465437D01*
X171928035Y-52338358D01*
X171716710Y-52250824D01*
X171492368Y-52206200D01*
X171263632Y-52206200D01*
X171039290Y-52250824D01*
X170827965Y-52338358D01*
X170637778Y-52465437D01*
X170476037Y-52627178D01*
X170348958Y-52817365D01*
X170261424Y-53028690D01*
X170216800Y-53253032D01*
X170216800Y-53481768D01*
X170237222Y-53584437D01*
X170118222Y-53465437D01*
X169928035Y-53338358D01*
X169716710Y-53250824D01*
X169492368Y-53206200D01*
X169263632Y-53206200D01*
X169039290Y-53250824D01*
X168827965Y-53338358D01*
X168637778Y-53465437D01*
X168476037Y-53627178D01*
X168348958Y-53817365D01*
X168261424Y-54028690D01*
X168216800Y-54253032D01*
X168216800Y-54481768D01*
X168261424Y-54706110D01*
X168348958Y-54917435D01*
X168476037Y-55107622D01*
X168637778Y-55269363D01*
X168784501Y-55367400D01*
X168637778Y-55465437D01*
X168476037Y-55627178D01*
X168348958Y-55817365D01*
X168261424Y-56028690D01*
X168216800Y-56253032D01*
X168216800Y-56481768D01*
X168261424Y-56706110D01*
X168348958Y-56917435D01*
X168476037Y-57107622D01*
X168637778Y-57269363D01*
X168784501Y-57367400D01*
X168637778Y-57465437D01*
X168476037Y-57627178D01*
X168348958Y-57817365D01*
X168261424Y-58028690D01*
X168216800Y-58253032D01*
X168216800Y-58481768D01*
X168261424Y-58706110D01*
X168348958Y-58917435D01*
X168476037Y-59107622D01*
X168503714Y-59135299D01*
X168288049Y-59092400D01*
X167967951Y-59092400D01*
X167900000Y-59105916D01*
X167900000Y-58877974D01*
X167907042Y-58867435D01*
X167994576Y-58656110D01*
X168039200Y-58431768D01*
X168039200Y-58203032D01*
X167994576Y-57978690D01*
X167907042Y-57767365D01*
X167900000Y-57756826D01*
X167900000Y-56877974D01*
X167907042Y-56867435D01*
X167994576Y-56656110D01*
X168039200Y-56431768D01*
X168039200Y-56203032D01*
X167994576Y-55978690D01*
X167907042Y-55767365D01*
X167900000Y-55756826D01*
X167900000Y-54877974D01*
X167907042Y-54867435D01*
X167994576Y-54656110D01*
X168039200Y-54431768D01*
X168039200Y-54203032D01*
X167994576Y-53978690D01*
X167907042Y-53767365D01*
X167900000Y-53756826D01*
X167900000Y-53178884D01*
X167967951Y-53192400D01*
X168288049Y-53192400D01*
X168601995Y-53129952D01*
X168897726Y-53007457D01*
X169163877Y-52829620D01*
X169390220Y-52603277D01*
X169568057Y-52337126D01*
X169690552Y-52041395D01*
X169753000Y-51727449D01*
X169753000Y-51407351D01*
X169690552Y-51093405D01*
X169568057Y-50797674D01*
X169390220Y-50531523D01*
X169163877Y-50305180D01*
X168897726Y-50127343D01*
X168601995Y-50004848D01*
X168288049Y-49942400D01*
X167967951Y-49942400D01*
X167900000Y-49955916D01*
X167900000Y-45991000D01*
X192293000Y-45991000D01*
X192293001Y-77741000D01*
G36*
X164137778Y-62415437D02*
G01*
X163976037Y-62577178D01*
X163848958Y-62767365D01*
X163761424Y-62978690D01*
X163716800Y-63203032D01*
X163716800Y-63431768D01*
X163761424Y-63656110D01*
X163848958Y-63867435D01*
X163976037Y-64057622D01*
X164137778Y-64219363D01*
X164327965Y-64346442D01*
X164392057Y-64372990D01*
X164292364Y-64426277D01*
X164222118Y-64590807D01*
X164878000Y-65246689D01*
X165533882Y-64590807D01*
X165463636Y-64426277D01*
X165362905Y-64373420D01*
X165428035Y-64346442D01*
X165618222Y-64219363D01*
X165737222Y-64100363D01*
X165716800Y-64203032D01*
X165716800Y-64431768D01*
X165761424Y-64656110D01*
X165848958Y-64867435D01*
X165976037Y-65057622D01*
X166137778Y-65219363D01*
X166284501Y-65317400D01*
X166137778Y-65415437D01*
X165976037Y-65577178D01*
X165848958Y-65767365D01*
X165761424Y-65978690D01*
X165716800Y-66203032D01*
X165716800Y-66431768D01*
X165737222Y-66534437D01*
X165618222Y-66415437D01*
X165428035Y-66288358D01*
X165363943Y-66261810D01*
X165463636Y-66208523D01*
X165533882Y-66043993D01*
X164878000Y-65388111D01*
X164222118Y-66043993D01*
X164292364Y-66208523D01*
X164393095Y-66261380D01*
X164327965Y-66288358D01*
X164137778Y-66415437D01*
X163976037Y-66577178D01*
X163848958Y-66767365D01*
X163761424Y-66978690D01*
X163716800Y-67203032D01*
X163716800Y-67431768D01*
X163761424Y-67656110D01*
X163848958Y-67867435D01*
X163976037Y-68057622D01*
X164137778Y-68219363D01*
X164284501Y-68317400D01*
X164137778Y-68415437D01*
X163976037Y-68577178D01*
X163848958Y-68767365D01*
X163761424Y-68978690D01*
X163716800Y-69203032D01*
X163716800Y-69431768D01*
X163761424Y-69656110D01*
X163848958Y-69867435D01*
X163976037Y-70057622D01*
X164137778Y-70219363D01*
X164284501Y-70317400D01*
X164137778Y-70415437D01*
X163976037Y-70577178D01*
X163848958Y-70767365D01*
X163761424Y-70978690D01*
X163716800Y-71203032D01*
X163716800Y-71431768D01*
X163761424Y-71656110D01*
X163848958Y-71867435D01*
X163976037Y-72057622D01*
X164137778Y-72219363D01*
X164327965Y-72346442D01*
X164539290Y-72433976D01*
X164763632Y-72478600D01*
X164992368Y-72478600D01*
X165216710Y-72433976D01*
X165428035Y-72346442D01*
X165618222Y-72219363D01*
X165737222Y-72100363D01*
X165716800Y-72203032D01*
X165716800Y-72431768D01*
X165761424Y-72656110D01*
X165848958Y-72867435D01*
X165976037Y-73057622D01*
X166137778Y-73219363D01*
X166178001Y-73246239D01*
X166178001Y-73332049D01*
X164210051Y-75300000D01*
X163964950Y-75300000D01*
X162600000Y-73935051D01*
X162600000Y-65325542D01*
X163811696Y-65325542D01*
X163833774Y-65533412D01*
X163895980Y-65732979D01*
X163986877Y-65903036D01*
X164151407Y-65973282D01*
X164807289Y-65317400D01*
X164948711Y-65317400D01*
X165604593Y-65973282D01*
X165769123Y-65903036D01*
X165866252Y-65717934D01*
X165925403Y-65517439D01*
X165944304Y-65309258D01*
X165922226Y-65101388D01*
X165860020Y-64901821D01*
X165769123Y-64731764D01*
X165604593Y-64661518D01*
X164948711Y-65317400D01*
X164807289Y-65317400D01*
X164151407Y-64661518D01*
X163986877Y-64731764D01*
X163889748Y-64916866D01*
X163830597Y-65117361D01*
X163811696Y-65325542D01*
X162600000Y-65325542D01*
X162600000Y-64064774D01*
X162603387Y-64030387D01*
X162592262Y-63917435D01*
X162589872Y-63893164D01*
X162549845Y-63761213D01*
X162484845Y-63639607D01*
X162397370Y-63533018D01*
X162370653Y-63511092D01*
X161259561Y-62400000D01*
X164160881Y-62400000D01*
X164137778Y-62415437D01*
G37*
X164137778Y-62415437D02*
X163976037Y-62577178D01*
X163848958Y-62767365D01*
X163761424Y-62978690D01*
X163716800Y-63203032D01*
X163716800Y-63431768D01*
X163761424Y-63656110D01*
X163848958Y-63867435D01*
X163976037Y-64057622D01*
X164137778Y-64219363D01*
X164327965Y-64346442D01*
X164392057Y-64372990D01*
X164292364Y-64426277D01*
X164222118Y-64590807D01*
X164878000Y-65246689D01*
X165533882Y-64590807D01*
X165463636Y-64426277D01*
X165362905Y-64373420D01*
X165428035Y-64346442D01*
X165618222Y-64219363D01*
X165737222Y-64100363D01*
X165716800Y-64203032D01*
X165716800Y-64431768D01*
X165761424Y-64656110D01*
X165848958Y-64867435D01*
X165976037Y-65057622D01*
X166137778Y-65219363D01*
X166284501Y-65317400D01*
X166137778Y-65415437D01*
X165976037Y-65577178D01*
X165848958Y-65767365D01*
X165761424Y-65978690D01*
X165716800Y-66203032D01*
X165716800Y-66431768D01*
X165737222Y-66534437D01*
X165618222Y-66415437D01*
X165428035Y-66288358D01*
X165363943Y-66261810D01*
X165463636Y-66208523D01*
X165533882Y-66043993D01*
X164878000Y-65388111D01*
X164222118Y-66043993D01*
X164292364Y-66208523D01*
X164393095Y-66261380D01*
X164327965Y-66288358D01*
X164137778Y-66415437D01*
X163976037Y-66577178D01*
X163848958Y-66767365D01*
X163761424Y-66978690D01*
X163716800Y-67203032D01*
X163716800Y-67431768D01*
X163761424Y-67656110D01*
X163848958Y-67867435D01*
X163976037Y-68057622D01*
X164137778Y-68219363D01*
X164284501Y-68317400D01*
X164137778Y-68415437D01*
X163976037Y-68577178D01*
X163848958Y-68767365D01*
X163761424Y-68978690D01*
X163716800Y-69203032D01*
X163716800Y-69431768D01*
X163761424Y-69656110D01*
X163848958Y-69867435D01*
X163976037Y-70057622D01*
X164137778Y-70219363D01*
X164284501Y-70317400D01*
X164137778Y-70415437D01*
X163976037Y-70577178D01*
X163848958Y-70767365D01*
X163761424Y-70978690D01*
X163716800Y-71203032D01*
X163716800Y-71431768D01*
X163761424Y-71656110D01*
X163848958Y-71867435D01*
X163976037Y-72057622D01*
X164137778Y-72219363D01*
X164327965Y-72346442D01*
X164539290Y-72433976D01*
X164763632Y-72478600D01*
X164992368Y-72478600D01*
X165216710Y-72433976D01*
X165428035Y-72346442D01*
X165618222Y-72219363D01*
X165737222Y-72100363D01*
X165716800Y-72203032D01*
X165716800Y-72431768D01*
X165761424Y-72656110D01*
X165848958Y-72867435D01*
X165976037Y-73057622D01*
X166137778Y-73219363D01*
X166178001Y-73246239D01*
X166178001Y-73332049D01*
X164210051Y-75300000D01*
X163964950Y-75300000D01*
X162600000Y-73935051D01*
X162600000Y-65325542D01*
X163811696Y-65325542D01*
X163833774Y-65533412D01*
X163895980Y-65732979D01*
X163986877Y-65903036D01*
X164151407Y-65973282D01*
X164807289Y-65317400D01*
X164948711Y-65317400D01*
X165604593Y-65973282D01*
X165769123Y-65903036D01*
X165866252Y-65717934D01*
X165925403Y-65517439D01*
X165944304Y-65309258D01*
X165922226Y-65101388D01*
X165860020Y-64901821D01*
X165769123Y-64731764D01*
X165604593Y-64661518D01*
X164948711Y-65317400D01*
X164807289Y-65317400D01*
X164151407Y-64661518D01*
X163986877Y-64731764D01*
X163889748Y-64916866D01*
X163830597Y-65117361D01*
X163811696Y-65325542D01*
X162600000Y-65325542D01*
X162600000Y-64064774D01*
X162603387Y-64030387D01*
X162592262Y-63917435D01*
X162589872Y-63893164D01*
X162549845Y-63761213D01*
X162484845Y-63639607D01*
X162397370Y-63533018D01*
X162370653Y-63511092D01*
X161259561Y-62400000D01*
X164160881Y-62400000D01*
X164137778Y-62415437D01*
G36*
X187125001Y-50488174D02*
G01*
X187125000Y-72611827D01*
X186575000Y-73161827D01*
X186575000Y-51978242D01*
X186577782Y-51949999D01*
X186574322Y-51914872D01*
X186566680Y-51837280D01*
X186533801Y-51728892D01*
X186525187Y-51712777D01*
X186480408Y-51629001D01*
X186426559Y-51563386D01*
X186408554Y-51541446D01*
X186386612Y-51523439D01*
X183788172Y-48925000D01*
X185561828Y-48925000D01*
X187125001Y-50488174D01*
G37*
X187125001Y-50488174D02*
X187125000Y-72611827D01*
X186575000Y-73161827D01*
X186575000Y-51978242D01*
X186577782Y-51949999D01*
X186574322Y-51914872D01*
X186566680Y-51837280D01*
X186533801Y-51728892D01*
X186525187Y-51712777D01*
X186480408Y-51629001D01*
X186426559Y-51563386D01*
X186408554Y-51541446D01*
X186386612Y-51523439D01*
X183788172Y-48925000D01*
X185561828Y-48925000D01*
X187125001Y-50488174D01*
G36*
X175775000Y-62138172D02*
G01*
X175775001Y-66021745D01*
X175775000Y-66021755D01*
X175775001Y-68912147D01*
X175772218Y-68940400D01*
X175779759Y-69016959D01*
X175783321Y-69053120D01*
X175787968Y-69068439D01*
X175816199Y-69161507D01*
X175869592Y-69261398D01*
X175891718Y-69288358D01*
X175941447Y-69348954D01*
X175963389Y-69366961D01*
X178395313Y-71798886D01*
X178358801Y-71887035D01*
X178305000Y-72157512D01*
X178305000Y-72433288D01*
X178358801Y-72703765D01*
X178464336Y-72958549D01*
X178542146Y-73075000D01*
X175388173Y-73075000D01*
X174725000Y-72411828D01*
X174725000Y-63028242D01*
X174727782Y-62999999D01*
X174720789Y-62929001D01*
X174716680Y-62887280D01*
X174683801Y-62778892D01*
X174630408Y-62679002D01*
X174558554Y-62591446D01*
X174536608Y-62573436D01*
X174220848Y-62257676D01*
X174291844Y-62210238D01*
X174377082Y-62125000D01*
X175761828Y-62125000D01*
X175775000Y-62138172D01*
G37*
X175775000Y-62138172D02*
X175775001Y-66021745D01*
X175775000Y-66021755D01*
X175775001Y-68912147D01*
X175772218Y-68940400D01*
X175779759Y-69016959D01*
X175783321Y-69053120D01*
X175787968Y-69068439D01*
X175816199Y-69161507D01*
X175869592Y-69261398D01*
X175891718Y-69288358D01*
X175941447Y-69348954D01*
X175963389Y-69366961D01*
X178395313Y-71798886D01*
X178358801Y-71887035D01*
X178305000Y-72157512D01*
X178305000Y-72433288D01*
X178358801Y-72703765D01*
X178464336Y-72958549D01*
X178542146Y-73075000D01*
X175388173Y-73075000D01*
X174725000Y-72411828D01*
X174725000Y-63028242D01*
X174727782Y-62999999D01*
X174720789Y-62929001D01*
X174716680Y-62887280D01*
X174683801Y-62778892D01*
X174630408Y-62679002D01*
X174558554Y-62591446D01*
X174536608Y-62573436D01*
X174220848Y-62257676D01*
X174291844Y-62210238D01*
X174377082Y-62125000D01*
X175761828Y-62125000D01*
X175775000Y-62138172D01*
G36*
X141982243Y-47696959D02*
G01*
X141956511Y-47781785D01*
X141947823Y-47870000D01*
X141947823Y-49370000D01*
X141956511Y-49458215D01*
X141982243Y-49543041D01*
X142024029Y-49621216D01*
X142080263Y-49689737D01*
X142148784Y-49745971D01*
X142226959Y-49787757D01*
X142311785Y-49813489D01*
X142400000Y-49822177D01*
X143150000Y-49822177D01*
X143150000Y-53100000D01*
X139539950Y-53100000D01*
X139350000Y-52910051D01*
X139350000Y-49817253D01*
X139400000Y-49822177D01*
X140400000Y-49822177D01*
X140488215Y-49813489D01*
X140573041Y-49787757D01*
X140651216Y-49745971D01*
X140719737Y-49689737D01*
X140775971Y-49621216D01*
X140817757Y-49543041D01*
X140843489Y-49458215D01*
X140852177Y-49370000D01*
X140852177Y-47870000D01*
X140843489Y-47781785D01*
X140817757Y-47696959D01*
X140792657Y-47650000D01*
X142007343Y-47650000D01*
X141982243Y-47696959D01*
G37*
X141982243Y-47696959D02*
X141956511Y-47781785D01*
X141947823Y-47870000D01*
X141947823Y-49370000D01*
X141956511Y-49458215D01*
X141982243Y-49543041D01*
X142024029Y-49621216D01*
X142080263Y-49689737D01*
X142148784Y-49745971D01*
X142226959Y-49787757D01*
X142311785Y-49813489D01*
X142400000Y-49822177D01*
X143150000Y-49822177D01*
X143150000Y-53100000D01*
X139539950Y-53100000D01*
X139350000Y-52910051D01*
X139350000Y-49817253D01*
X139400000Y-49822177D01*
X140400000Y-49822177D01*
X140488215Y-49813489D01*
X140573041Y-49787757D01*
X140651216Y-49745971D01*
X140719737Y-49689737D01*
X140775971Y-49621216D01*
X140817757Y-49543041D01*
X140843489Y-49458215D01*
X140852177Y-49370000D01*
X140852177Y-47870000D01*
X140843489Y-47781785D01*
X140817757Y-47696959D01*
X140792657Y-47650000D01*
X142007343Y-47650000D01*
X141982243Y-47696959D01*
G36*
X137950000Y-52754994D02*
G01*
X137894175Y-52725155D01*
X137762224Y-52685128D01*
X137659390Y-52675000D01*
X137659387Y-52675000D01*
X137625000Y-52671613D01*
X137590613Y-52675000D01*
X136382383Y-52675000D01*
X136506354Y-52489465D01*
X136608120Y-52243780D01*
X136660000Y-51982963D01*
X136660000Y-51717037D01*
X136608120Y-51456220D01*
X136506354Y-51210535D01*
X136358613Y-50989425D01*
X136170575Y-50801387D01*
X136010000Y-50694094D01*
X136010000Y-50579949D01*
X137269950Y-49320000D01*
X137950001Y-49320000D01*
X137950000Y-52754994D01*
G37*
X137950000Y-52754994D02*
X137894175Y-52725155D01*
X137762224Y-52685128D01*
X137659390Y-52675000D01*
X137659387Y-52675000D01*
X137625000Y-52671613D01*
X137590613Y-52675000D01*
X136382383Y-52675000D01*
X136506354Y-52489465D01*
X136608120Y-52243780D01*
X136660000Y-51982963D01*
X136660000Y-51717037D01*
X136608120Y-51456220D01*
X136506354Y-51210535D01*
X136358613Y-50989425D01*
X136170575Y-50801387D01*
X136010000Y-50694094D01*
X136010000Y-50579949D01*
X137269950Y-49320000D01*
X137950001Y-49320000D01*
X137950000Y-52754994D01*
G36*
X138100000Y-47920000D02*
G01*
X137014390Y-47920000D01*
X136980000Y-47916613D01*
X136945610Y-47920000D01*
X136842776Y-47930128D01*
X136710825Y-47970155D01*
X136589219Y-48035155D01*
X136482630Y-48122630D01*
X136460708Y-48149342D01*
X134839342Y-49770709D01*
X134812631Y-49792630D01*
X134790710Y-49819341D01*
X134790708Y-49819343D01*
X134725155Y-49899219D01*
X134660155Y-50020826D01*
X134638987Y-50090610D01*
X134628508Y-50125156D01*
X134620129Y-50152777D01*
X134606613Y-50290000D01*
X134610001Y-50324397D01*
X134610001Y-50694094D01*
X134449425Y-50801387D01*
X134261387Y-50989425D01*
X134113646Y-51210535D01*
X134011880Y-51456220D01*
X133990083Y-51565799D01*
X133930174Y-51368695D01*
X133814748Y-51152750D01*
X133630887Y-51059824D01*
X133010711Y-51680000D01*
X132869289Y-51680000D01*
X133560176Y-50989113D01*
X133467250Y-50805252D01*
X133250033Y-50689299D01*
X133014368Y-50617951D01*
X132769311Y-50593951D01*
X132524282Y-50618220D01*
X132288695Y-50689826D01*
X132072750Y-50805252D01*
X131979824Y-50989113D01*
X132670711Y-51680000D01*
X132529289Y-51680000D01*
X131909113Y-51059824D01*
X131725252Y-51152750D01*
X131625000Y-51340554D01*
X131625000Y-47650000D01*
X138100000Y-47650000D01*
X138100000Y-47920000D01*
G37*
X138100000Y-47920000D02*
X137014390Y-47920000D01*
X136980000Y-47916613D01*
X136945610Y-47920000D01*
X136842776Y-47930128D01*
X136710825Y-47970155D01*
X136589219Y-48035155D01*
X136482630Y-48122630D01*
X136460708Y-48149342D01*
X134839342Y-49770709D01*
X134812631Y-49792630D01*
X134790710Y-49819341D01*
X134790708Y-49819343D01*
X134725155Y-49899219D01*
X134660155Y-50020826D01*
X134638987Y-50090610D01*
X134628508Y-50125156D01*
X134620129Y-50152777D01*
X134606613Y-50290000D01*
X134610001Y-50324397D01*
X134610001Y-50694094D01*
X134449425Y-50801387D01*
X134261387Y-50989425D01*
X134113646Y-51210535D01*
X134011880Y-51456220D01*
X133990083Y-51565799D01*
X133930174Y-51368695D01*
X133814748Y-51152750D01*
X133630887Y-51059824D01*
X133010711Y-51680000D01*
X132869289Y-51680000D01*
X133560176Y-50989113D01*
X133467250Y-50805252D01*
X133250033Y-50689299D01*
X133014368Y-50617951D01*
X132769311Y-50593951D01*
X132524282Y-50618220D01*
X132288695Y-50689826D01*
X132072750Y-50805252D01*
X131979824Y-50989113D01*
X132670711Y-51680000D01*
X132529289Y-51680000D01*
X131909113Y-51059824D01*
X131725252Y-51152750D01*
X131625000Y-51340554D01*
X131625000Y-47650000D01*
X138100000Y-47650000D01*
X138100000Y-47920000D01*
%TO.N,GNDPWR*%
G36*
X162650000Y-55364949D02*
G01*
X162650000Y-55755013D01*
X162646613Y-55789400D01*
X162650000Y-55823787D01*
X162650000Y-55823789D01*
X162660128Y-55926623D01*
X162691738Y-56030826D01*
X162700155Y-56058574D01*
X162765155Y-56180181D01*
X162827235Y-56255825D01*
X162852630Y-56286769D01*
X162879343Y-56308692D01*
X163726237Y-57155586D01*
X163716800Y-57203032D01*
X163716800Y-57431768D01*
X163761424Y-57656110D01*
X163848958Y-57867435D01*
X163976037Y-58057622D01*
X164137778Y-58219363D01*
X164327965Y-58346442D01*
X164392057Y-58372990D01*
X164292364Y-58426277D01*
X164222118Y-58590807D01*
X164878000Y-59246689D01*
X165533882Y-58590807D01*
X165463636Y-58426277D01*
X165362905Y-58373420D01*
X165428035Y-58346442D01*
X165618222Y-58219363D01*
X165737222Y-58100363D01*
X165716800Y-58203032D01*
X165716800Y-58431768D01*
X165761424Y-58656110D01*
X165800000Y-58749240D01*
X165800000Y-58789531D01*
X165769123Y-58731764D01*
X165604593Y-58661518D01*
X164948711Y-59317400D01*
X165604593Y-59973282D01*
X165769123Y-59903036D01*
X165800000Y-59844193D01*
X165800000Y-60425000D01*
X165114949Y-60425000D01*
X165082297Y-60392348D01*
X165060370Y-60365630D01*
X165059905Y-60365249D01*
X165094012Y-60361626D01*
X165293579Y-60299420D01*
X165463636Y-60208523D01*
X165533882Y-60043993D01*
X164878000Y-59388111D01*
X164222118Y-60043993D01*
X164272928Y-60163000D01*
X161202949Y-60163000D01*
X160365491Y-59325542D01*
X163811696Y-59325542D01*
X163833774Y-59533412D01*
X163895980Y-59732979D01*
X163986877Y-59903036D01*
X164151407Y-59973282D01*
X164807289Y-59317400D01*
X164151407Y-58661518D01*
X163986877Y-58731764D01*
X163889748Y-58916866D01*
X163830597Y-59117361D01*
X163811696Y-59325542D01*
X160365491Y-59325542D01*
X160023865Y-58983916D01*
X160076587Y-58967923D01*
X160137391Y-58935423D01*
X160190685Y-58891685D01*
X160234423Y-58838391D01*
X160266923Y-58777587D01*
X160286936Y-58711612D01*
X160293694Y-58643000D01*
X160292000Y-58126500D01*
X160204500Y-58039000D01*
X159338000Y-58039000D01*
X159338000Y-58059000D01*
X159238000Y-58059000D01*
X159238000Y-58039000D01*
X159218000Y-58039000D01*
X159218000Y-57939000D01*
X159238000Y-57939000D01*
X159238000Y-57072500D01*
X159338000Y-57072500D01*
X159338000Y-57939000D01*
X160204500Y-57939000D01*
X160292000Y-57851500D01*
X160293694Y-57335000D01*
X160286936Y-57266388D01*
X160266923Y-57200413D01*
X160234423Y-57139609D01*
X160190685Y-57086315D01*
X160137391Y-57042577D01*
X160076587Y-57010077D01*
X160010612Y-56990064D01*
X159942000Y-56983306D01*
X159425500Y-56985000D01*
X159338000Y-57072500D01*
X159238000Y-57072500D01*
X159150500Y-56985000D01*
X158634000Y-56983306D01*
X158565388Y-56990064D01*
X158499413Y-57010077D01*
X158438609Y-57042577D01*
X158400000Y-57074263D01*
X158400000Y-56184386D01*
X158403387Y-56149999D01*
X158398447Y-56099845D01*
X158389872Y-56012776D01*
X158349845Y-55880825D01*
X158284845Y-55759219D01*
X158197370Y-55652630D01*
X158170653Y-55630704D01*
X157825725Y-55285776D01*
X157944175Y-55249845D01*
X158065781Y-55184845D01*
X158172370Y-55097370D01*
X158194296Y-55070653D01*
X159439950Y-53825000D01*
X161110051Y-53825000D01*
X162650000Y-55364949D01*
G37*
X162650000Y-55364949D02*
X162650000Y-55755013D01*
X162646613Y-55789400D01*
X162650000Y-55823787D01*
X162650000Y-55823789D01*
X162660128Y-55926623D01*
X162691738Y-56030826D01*
X162700155Y-56058574D01*
X162765155Y-56180181D01*
X162827235Y-56255825D01*
X162852630Y-56286769D01*
X162879343Y-56308692D01*
X163726237Y-57155586D01*
X163716800Y-57203032D01*
X163716800Y-57431768D01*
X163761424Y-57656110D01*
X163848958Y-57867435D01*
X163976037Y-58057622D01*
X164137778Y-58219363D01*
X164327965Y-58346442D01*
X164392057Y-58372990D01*
X164292364Y-58426277D01*
X164222118Y-58590807D01*
X164878000Y-59246689D01*
X165533882Y-58590807D01*
X165463636Y-58426277D01*
X165362905Y-58373420D01*
X165428035Y-58346442D01*
X165618222Y-58219363D01*
X165737222Y-58100363D01*
X165716800Y-58203032D01*
X165716800Y-58431768D01*
X165761424Y-58656110D01*
X165800000Y-58749240D01*
X165800000Y-58789531D01*
X165769123Y-58731764D01*
X165604593Y-58661518D01*
X164948711Y-59317400D01*
X165604593Y-59973282D01*
X165769123Y-59903036D01*
X165800000Y-59844193D01*
X165800000Y-60425000D01*
X165114949Y-60425000D01*
X165082297Y-60392348D01*
X165060370Y-60365630D01*
X165059905Y-60365249D01*
X165094012Y-60361626D01*
X165293579Y-60299420D01*
X165463636Y-60208523D01*
X165533882Y-60043993D01*
X164878000Y-59388111D01*
X164222118Y-60043993D01*
X164272928Y-60163000D01*
X161202949Y-60163000D01*
X160365491Y-59325542D01*
X163811696Y-59325542D01*
X163833774Y-59533412D01*
X163895980Y-59732979D01*
X163986877Y-59903036D01*
X164151407Y-59973282D01*
X164807289Y-59317400D01*
X164151407Y-58661518D01*
X163986877Y-58731764D01*
X163889748Y-58916866D01*
X163830597Y-59117361D01*
X163811696Y-59325542D01*
X160365491Y-59325542D01*
X160023865Y-58983916D01*
X160076587Y-58967923D01*
X160137391Y-58935423D01*
X160190685Y-58891685D01*
X160234423Y-58838391D01*
X160266923Y-58777587D01*
X160286936Y-58711612D01*
X160293694Y-58643000D01*
X160292000Y-58126500D01*
X160204500Y-58039000D01*
X159338000Y-58039000D01*
X159338000Y-58059000D01*
X159238000Y-58059000D01*
X159238000Y-58039000D01*
X159218000Y-58039000D01*
X159218000Y-57939000D01*
X159238000Y-57939000D01*
X159238000Y-57072500D01*
X159338000Y-57072500D01*
X159338000Y-57939000D01*
X160204500Y-57939000D01*
X160292000Y-57851500D01*
X160293694Y-57335000D01*
X160286936Y-57266388D01*
X160266923Y-57200413D01*
X160234423Y-57139609D01*
X160190685Y-57086315D01*
X160137391Y-57042577D01*
X160076587Y-57010077D01*
X160010612Y-56990064D01*
X159942000Y-56983306D01*
X159425500Y-56985000D01*
X159338000Y-57072500D01*
X159238000Y-57072500D01*
X159150500Y-56985000D01*
X158634000Y-56983306D01*
X158565388Y-56990064D01*
X158499413Y-57010077D01*
X158438609Y-57042577D01*
X158400000Y-57074263D01*
X158400000Y-56184386D01*
X158403387Y-56149999D01*
X158398447Y-56099845D01*
X158389872Y-56012776D01*
X158349845Y-55880825D01*
X158284845Y-55759219D01*
X158197370Y-55652630D01*
X158170653Y-55630704D01*
X157825725Y-55285776D01*
X157944175Y-55249845D01*
X158065781Y-55184845D01*
X158172370Y-55097370D01*
X158194296Y-55070653D01*
X159439950Y-53825000D01*
X161110051Y-53825000D01*
X162650000Y-55364949D01*
G36*
X151105825Y-46025155D02*
G01*
X150984219Y-46090155D01*
X150877630Y-46177630D01*
X150855708Y-46204342D01*
X150404342Y-46655709D01*
X150377630Y-46677631D01*
X150355709Y-46704342D01*
X150355708Y-46704343D01*
X150290155Y-46784219D01*
X150253588Y-46852631D01*
X150225155Y-46905826D01*
X150185128Y-47037777D01*
X150175540Y-47135129D01*
X150171613Y-47175000D01*
X150175000Y-47209387D01*
X150175001Y-47992663D01*
X150121740Y-48072374D01*
X150057665Y-48227064D01*
X150025000Y-48391282D01*
X150025000Y-48558718D01*
X150057665Y-48722936D01*
X150121740Y-48877626D01*
X150214762Y-49016844D01*
X150333156Y-49135238D01*
X150472374Y-49228260D01*
X150627064Y-49292335D01*
X150791282Y-49325000D01*
X150958718Y-49325000D01*
X151122936Y-49292335D01*
X151277626Y-49228260D01*
X151416844Y-49135238D01*
X151535238Y-49016844D01*
X151598841Y-48921655D01*
X151650000Y-48926694D01*
X151887500Y-48925000D01*
X151975000Y-48837500D01*
X151975000Y-48225000D01*
X152075000Y-48225000D01*
X152075000Y-48837500D01*
X152162500Y-48925000D01*
X152400000Y-48926694D01*
X152468612Y-48919936D01*
X152534587Y-48899923D01*
X152595391Y-48867423D01*
X152648685Y-48823685D01*
X152692423Y-48770391D01*
X152724923Y-48709587D01*
X152744936Y-48643612D01*
X152751694Y-48575000D01*
X152750000Y-48312500D01*
X152662500Y-48225000D01*
X152075000Y-48225000D01*
X151975000Y-48225000D01*
X151955000Y-48225000D01*
X151955000Y-48125000D01*
X151975000Y-48125000D01*
X151975000Y-48105000D01*
X152075000Y-48105000D01*
X152075000Y-48125000D01*
X152662500Y-48125000D01*
X152750000Y-48037500D01*
X152751694Y-47775000D01*
X152744936Y-47706388D01*
X152724923Y-47640413D01*
X152712577Y-47617315D01*
X152790610Y-47625000D01*
X152790612Y-47625000D01*
X152824999Y-47628387D01*
X152825000Y-47628387D01*
X152825000Y-47790613D01*
X152821613Y-47825000D01*
X152825000Y-47859387D01*
X152825000Y-47859390D01*
X152831722Y-47927630D01*
X152835129Y-47962223D01*
X152875155Y-48094174D01*
X152940155Y-48215781D01*
X152999241Y-48287777D01*
X153027631Y-48322370D01*
X153054344Y-48344293D01*
X153059510Y-48349458D01*
X153019029Y-48398784D01*
X152977243Y-48476959D01*
X152951511Y-48561785D01*
X152942823Y-48650000D01*
X152942823Y-49300000D01*
X152951511Y-49388215D01*
X152977243Y-49473041D01*
X153019029Y-49551216D01*
X153075263Y-49619737D01*
X153143784Y-49675971D01*
X153221959Y-49717757D01*
X153306785Y-49743489D01*
X153395000Y-49752177D01*
X154455000Y-49752177D01*
X154543215Y-49743489D01*
X154628041Y-49717757D01*
X154706216Y-49675971D01*
X154774737Y-49619737D01*
X154830971Y-49551216D01*
X154872757Y-49473041D01*
X154898489Y-49388215D01*
X154907177Y-49300000D01*
X154907177Y-48650000D01*
X154898489Y-48561785D01*
X154872757Y-48476959D01*
X154830971Y-48398784D01*
X154774737Y-48330263D01*
X154706216Y-48274029D01*
X154628041Y-48232243D01*
X154627684Y-48232135D01*
X154628387Y-48224999D01*
X154623462Y-48174999D01*
X154614872Y-48087776D01*
X154574845Y-47955825D01*
X154509845Y-47834219D01*
X154422369Y-47727630D01*
X154395658Y-47705709D01*
X154225000Y-47535051D01*
X154225000Y-47197105D01*
X154227177Y-47175000D01*
X154227177Y-46937286D01*
X154228387Y-46925000D01*
X154227177Y-46912714D01*
X154227177Y-46675000D01*
X154225000Y-46652895D01*
X154225000Y-46290610D01*
X154214872Y-46187776D01*
X154174845Y-46055825D01*
X154140195Y-45991000D01*
X155136530Y-45991000D01*
X155075155Y-46105825D01*
X155035128Y-46237776D01*
X155025000Y-46340610D01*
X155025000Y-46652895D01*
X155022823Y-46675000D01*
X155022823Y-47175000D01*
X155025000Y-47197105D01*
X155025000Y-47740613D01*
X155021613Y-47775000D01*
X155025000Y-47809387D01*
X155025000Y-47809389D01*
X155035128Y-47912223D01*
X155073214Y-48037775D01*
X155075155Y-48044174D01*
X155140155Y-48165781D01*
X155196321Y-48234219D01*
X155227630Y-48272369D01*
X155254343Y-48294292D01*
X155283530Y-48323479D01*
X155275263Y-48330263D01*
X155219029Y-48398784D01*
X155177243Y-48476959D01*
X155151511Y-48561785D01*
X155142823Y-48650000D01*
X155142823Y-49300000D01*
X155151511Y-49388215D01*
X155177243Y-49473041D01*
X155219029Y-49551216D01*
X155244995Y-49582855D01*
X155243306Y-49600000D01*
X155245000Y-49787500D01*
X155332500Y-49875000D01*
X156075000Y-49875000D01*
X156075000Y-49855000D01*
X156175000Y-49855000D01*
X156175000Y-49875000D01*
X156917500Y-49875000D01*
X157005000Y-49787500D01*
X157006058Y-49670404D01*
X157062224Y-49664872D01*
X157194175Y-49624845D01*
X157281670Y-49578078D01*
X157275077Y-49590413D01*
X157255064Y-49656388D01*
X157248306Y-49725000D01*
X157250000Y-49987500D01*
X157337500Y-50075000D01*
X157925000Y-50075000D01*
X157925000Y-50055000D01*
X158025000Y-50055000D01*
X158025000Y-50075000D01*
X158612500Y-50075000D01*
X158700000Y-49987500D01*
X158701694Y-49725000D01*
X158694936Y-49656388D01*
X158674923Y-49590413D01*
X158642423Y-49529609D01*
X158598685Y-49476315D01*
X158545391Y-49432577D01*
X158543739Y-49431694D01*
X158575023Y-49414972D01*
X159568204Y-50408153D01*
X159590130Y-50434870D01*
X159696719Y-50522345D01*
X159818325Y-50587345D01*
X159950276Y-50627372D01*
X160053110Y-50637500D01*
X160053112Y-50637500D01*
X160087499Y-50640887D01*
X160121886Y-50637500D01*
X160572823Y-50637500D01*
X160572823Y-50712500D01*
X160581511Y-50800715D01*
X160607243Y-50885541D01*
X160649029Y-50963716D01*
X160705263Y-51032237D01*
X160773784Y-51088471D01*
X160851959Y-51130257D01*
X160936785Y-51155989D01*
X161025000Y-51164677D01*
X161625000Y-51164677D01*
X161713215Y-51155989D01*
X161798041Y-51130257D01*
X161876216Y-51088471D01*
X161925463Y-51048055D01*
X161956388Y-51057436D01*
X162025000Y-51064194D01*
X162187500Y-51062500D01*
X162275000Y-50975000D01*
X162275000Y-49987500D01*
X162375000Y-49987500D01*
X162375000Y-50975000D01*
X162462500Y-51062500D01*
X162625000Y-51064194D01*
X162693612Y-51057436D01*
X162759587Y-51037423D01*
X162820391Y-51004923D01*
X162873685Y-50961185D01*
X162917423Y-50907891D01*
X162949923Y-50847087D01*
X162969936Y-50781112D01*
X162976694Y-50712500D01*
X162975000Y-50075000D01*
X162887500Y-49987500D01*
X162375000Y-49987500D01*
X162275000Y-49987500D01*
X162255000Y-49987500D01*
X162255000Y-49887500D01*
X162275000Y-49887500D01*
X162275000Y-49867500D01*
X162375000Y-49867500D01*
X162375000Y-49887500D01*
X162887500Y-49887500D01*
X162975000Y-49800000D01*
X162976694Y-49162500D01*
X162969936Y-49093888D01*
X162949923Y-49027913D01*
X162923536Y-48978546D01*
X162935238Y-48966844D01*
X163028260Y-48827626D01*
X163054334Y-48764677D01*
X164225000Y-48764677D01*
X164313215Y-48755989D01*
X164398041Y-48730257D01*
X164476216Y-48688471D01*
X164544737Y-48632237D01*
X164600971Y-48563716D01*
X164642757Y-48485541D01*
X164668489Y-48400715D01*
X164677177Y-48312500D01*
X164677177Y-46512500D01*
X164668489Y-46424285D01*
X164642757Y-46339459D01*
X164600971Y-46261284D01*
X164544737Y-46192763D01*
X164476216Y-46136529D01*
X164398041Y-46094743D01*
X164313215Y-46069011D01*
X164225000Y-46060323D01*
X163025000Y-46060323D01*
X162936785Y-46069011D01*
X162851959Y-46094743D01*
X162773784Y-46136529D01*
X162705263Y-46192763D01*
X162649029Y-46261284D01*
X162607243Y-46339459D01*
X162581511Y-46424285D01*
X162572823Y-46512500D01*
X162572823Y-47628329D01*
X162522936Y-47607665D01*
X162358718Y-47575000D01*
X162191282Y-47575000D01*
X162027064Y-47607665D01*
X161872374Y-47671740D01*
X161792664Y-47725000D01*
X161659386Y-47725000D01*
X161624999Y-47721613D01*
X161590612Y-47725000D01*
X161590610Y-47725000D01*
X161487776Y-47735128D01*
X161355825Y-47775155D01*
X161234219Y-47840155D01*
X161127630Y-47927630D01*
X161105704Y-47954347D01*
X161077177Y-47982874D01*
X161077177Y-46512500D01*
X161068489Y-46424285D01*
X161042757Y-46339459D01*
X161000971Y-46261284D01*
X160944737Y-46192763D01*
X160876216Y-46136529D01*
X160798041Y-46094743D01*
X160713215Y-46069011D01*
X160625000Y-46060323D01*
X159425000Y-46060323D01*
X159336785Y-46069011D01*
X159251959Y-46094743D01*
X159173784Y-46136529D01*
X159105263Y-46192763D01*
X159049029Y-46261284D01*
X159007243Y-46339459D01*
X158981511Y-46424285D01*
X158972823Y-46512500D01*
X158972823Y-47953511D01*
X158912224Y-47935128D01*
X158809390Y-47925000D01*
X158809387Y-47925000D01*
X158775000Y-47921613D01*
X158740613Y-47925000D01*
X158685935Y-47925000D01*
X158669737Y-47905263D01*
X158601216Y-47849029D01*
X158523041Y-47807243D01*
X158438215Y-47781511D01*
X158350000Y-47772823D01*
X157600000Y-47772823D01*
X157511785Y-47781511D01*
X157426959Y-47807243D01*
X157348784Y-47849029D01*
X157280263Y-47905263D01*
X157266128Y-47922487D01*
X157240613Y-47925000D01*
X157240610Y-47925000D01*
X157137776Y-47935128D01*
X157005825Y-47975155D01*
X156884219Y-48040155D01*
X156820275Y-48092632D01*
X156814872Y-48037776D01*
X156774845Y-47905825D01*
X156709845Y-47784219D01*
X156622370Y-47677630D01*
X156595648Y-47655700D01*
X156425000Y-47485052D01*
X156425000Y-47197105D01*
X156427177Y-47175000D01*
X156427177Y-46675000D01*
X156425000Y-46652895D01*
X156425000Y-46340610D01*
X156414872Y-46237776D01*
X156374845Y-46105825D01*
X156313470Y-45991000D01*
X165800000Y-45991000D01*
X165800000Y-52607165D01*
X165779963Y-52577178D01*
X165618222Y-52415437D01*
X165428035Y-52288358D01*
X165216710Y-52200824D01*
X164992368Y-52156200D01*
X164763632Y-52156200D01*
X164716187Y-52165637D01*
X164550000Y-51999451D01*
X164550000Y-50352082D01*
X164660238Y-50241844D01*
X164753260Y-50102626D01*
X164817335Y-49947936D01*
X164850000Y-49783718D01*
X164850000Y-49616282D01*
X164817335Y-49452064D01*
X164753260Y-49297374D01*
X164660238Y-49158156D01*
X164541844Y-49039762D01*
X164402626Y-48946740D01*
X164247936Y-48882665D01*
X164083718Y-48850000D01*
X163916282Y-48850000D01*
X163752064Y-48882665D01*
X163597374Y-48946740D01*
X163458156Y-49039762D01*
X163339762Y-49158156D01*
X163246740Y-49297374D01*
X163182665Y-49452064D01*
X163150000Y-49616282D01*
X163150000Y-49783718D01*
X163152101Y-49794281D01*
X163146613Y-49850000D01*
X163150001Y-49884397D01*
X163150000Y-52255013D01*
X163146613Y-52289400D01*
X163150000Y-52323787D01*
X163150000Y-52323789D01*
X163160128Y-52426623D01*
X163190998Y-52528387D01*
X163200155Y-52558574D01*
X163265155Y-52680181D01*
X163304717Y-52728387D01*
X163352630Y-52786769D01*
X163379343Y-52808692D01*
X163726237Y-53155587D01*
X163722902Y-53172353D01*
X162329896Y-51779347D01*
X162307970Y-51752630D01*
X162201381Y-51665155D01*
X162079775Y-51600155D01*
X161947824Y-51560128D01*
X161844990Y-51550000D01*
X161844987Y-51550000D01*
X161810600Y-51546613D01*
X161776213Y-51550000D01*
X158809386Y-51550000D01*
X158774999Y-51546613D01*
X158740612Y-51550000D01*
X158740610Y-51550000D01*
X158637776Y-51560128D01*
X158505825Y-51600155D01*
X158384219Y-51665155D01*
X158277630Y-51752630D01*
X158255704Y-51779347D01*
X158000000Y-52035051D01*
X158000000Y-51328243D01*
X158002782Y-51300000D01*
X157999001Y-51261613D01*
X157991680Y-51187280D01*
X157958801Y-51078892D01*
X157928892Y-51022936D01*
X157905408Y-50979001D01*
X157851559Y-50913386D01*
X157833554Y-50891446D01*
X157813721Y-50875170D01*
X157837500Y-50875000D01*
X157925000Y-50787500D01*
X157925000Y-50175000D01*
X158025000Y-50175000D01*
X158025000Y-50787500D01*
X158112500Y-50875000D01*
X158350000Y-50876694D01*
X158418612Y-50869936D01*
X158484587Y-50849923D01*
X158545391Y-50817423D01*
X158598685Y-50773685D01*
X158642423Y-50720391D01*
X158674923Y-50659587D01*
X158694936Y-50593612D01*
X158701694Y-50525000D01*
X158700000Y-50262500D01*
X158612500Y-50175000D01*
X158025000Y-50175000D01*
X157925000Y-50175000D01*
X157337500Y-50175000D01*
X157250000Y-50262500D01*
X157249395Y-50356319D01*
X157221108Y-50341199D01*
X157112720Y-50308320D01*
X157031809Y-50300351D01*
X157030971Y-50298784D01*
X157005005Y-50267145D01*
X157006694Y-50250000D01*
X157005000Y-50062500D01*
X156917500Y-49975000D01*
X156175000Y-49975000D01*
X156175000Y-49995000D01*
X156075000Y-49995000D01*
X156075000Y-49975000D01*
X155332500Y-49975000D01*
X155245000Y-50062500D01*
X155243306Y-50250000D01*
X155244995Y-50267145D01*
X155219029Y-50298784D01*
X155177243Y-50376959D01*
X155151511Y-50461785D01*
X155142823Y-50550000D01*
X155142823Y-51200000D01*
X155151511Y-51288215D01*
X155177243Y-51373041D01*
X155219029Y-51451216D01*
X155275263Y-51519737D01*
X155343784Y-51575971D01*
X155421959Y-51617757D01*
X155506785Y-51643489D01*
X155595000Y-51652177D01*
X156655000Y-51652177D01*
X156743215Y-51643489D01*
X156828041Y-51617757D01*
X156850001Y-51606019D01*
X156850001Y-51772823D01*
X156500000Y-51772823D01*
X156411785Y-51781511D01*
X156326959Y-51807243D01*
X156248784Y-51849029D01*
X156180263Y-51905263D01*
X156124029Y-51973784D01*
X156082243Y-52051959D01*
X156056511Y-52136785D01*
X156047823Y-52225000D01*
X156047823Y-53050000D01*
X155952177Y-53050000D01*
X155952177Y-52225000D01*
X155943489Y-52136785D01*
X155917757Y-52051959D01*
X155875971Y-51973784D01*
X155819737Y-51905263D01*
X155751216Y-51849029D01*
X155673041Y-51807243D01*
X155588215Y-51781511D01*
X155500000Y-51772823D01*
X155000000Y-51772823D01*
X154911785Y-51781511D01*
X154826959Y-51807243D01*
X154748784Y-51849029D01*
X154680263Y-51905263D01*
X154624029Y-51973784D01*
X154586637Y-52043738D01*
X154575971Y-52023784D01*
X154519737Y-51955263D01*
X154451216Y-51899029D01*
X154373041Y-51857243D01*
X154288215Y-51831511D01*
X154200000Y-51822823D01*
X153400000Y-51822823D01*
X153311785Y-51831511D01*
X153226959Y-51857243D01*
X153148784Y-51899029D01*
X153080263Y-51955263D01*
X153024029Y-52023784D01*
X153000000Y-52068738D01*
X152975971Y-52023784D01*
X152919737Y-51955263D01*
X152851216Y-51899029D01*
X152776952Y-51859333D01*
X152793108Y-51846074D01*
X152837720Y-51841680D01*
X152946108Y-51808801D01*
X153045998Y-51755408D01*
X153133554Y-51683554D01*
X153151565Y-51661607D01*
X153204661Y-51608511D01*
X153221959Y-51617757D01*
X153306785Y-51643489D01*
X153395000Y-51652177D01*
X154455000Y-51652177D01*
X154543215Y-51643489D01*
X154628041Y-51617757D01*
X154706216Y-51575971D01*
X154774737Y-51519737D01*
X154830971Y-51451216D01*
X154872757Y-51373041D01*
X154898489Y-51288215D01*
X154907177Y-51200000D01*
X154907177Y-50550000D01*
X154898489Y-50461785D01*
X154872757Y-50376959D01*
X154830971Y-50298784D01*
X154774737Y-50230263D01*
X154706216Y-50174029D01*
X154628041Y-50132243D01*
X154543215Y-50106511D01*
X154455000Y-50097823D01*
X153395000Y-50097823D01*
X153306785Y-50106511D01*
X153221959Y-50132243D01*
X153143784Y-50174029D01*
X153075263Y-50230263D01*
X153019029Y-50298784D01*
X153014024Y-50308148D01*
X153012280Y-50308320D01*
X152903892Y-50341199D01*
X152840656Y-50375000D01*
X152804001Y-50394592D01*
X152780086Y-50414219D01*
X152716446Y-50466446D01*
X152698439Y-50488388D01*
X152595517Y-50591310D01*
X152563215Y-50581511D01*
X152475000Y-50572823D01*
X151601437Y-50572823D01*
X151592335Y-50527064D01*
X151528260Y-50372374D01*
X151528057Y-50372070D01*
X151575000Y-50376694D01*
X151887500Y-50375000D01*
X151975000Y-50287500D01*
X151975000Y-49825000D01*
X152075000Y-49825000D01*
X152075000Y-50287500D01*
X152162500Y-50375000D01*
X152475000Y-50376694D01*
X152543612Y-50369936D01*
X152609587Y-50349923D01*
X152670391Y-50317423D01*
X152723685Y-50273685D01*
X152767423Y-50220391D01*
X152799923Y-50159587D01*
X152819936Y-50093612D01*
X152826694Y-50025000D01*
X152825000Y-49912500D01*
X152737500Y-49825000D01*
X152075000Y-49825000D01*
X151975000Y-49825000D01*
X151312500Y-49825000D01*
X151225000Y-49912500D01*
X151223306Y-50025000D01*
X151226180Y-50054183D01*
X151177626Y-50021740D01*
X151022936Y-49957665D01*
X150858718Y-49925000D01*
X150691282Y-49925000D01*
X150527064Y-49957665D01*
X150469922Y-49981334D01*
X150468489Y-49966785D01*
X150442757Y-49881959D01*
X150400971Y-49803784D01*
X150344737Y-49735263D01*
X150276216Y-49679029D01*
X150198041Y-49637243D01*
X150113215Y-49611511D01*
X150025000Y-49602823D01*
X149025000Y-49602823D01*
X148936785Y-49611511D01*
X148851959Y-49637243D01*
X148773784Y-49679029D01*
X148705263Y-49735263D01*
X148649029Y-49803784D01*
X148607243Y-49881959D01*
X148581511Y-49966785D01*
X148572823Y-50055000D01*
X148572823Y-51555000D01*
X148581511Y-51643215D01*
X148607243Y-51728041D01*
X148649029Y-51806216D01*
X148705263Y-51874737D01*
X148773784Y-51930971D01*
X148808430Y-51949490D01*
X148625000Y-51948306D01*
X148556388Y-51955064D01*
X148490413Y-51975077D01*
X148429609Y-52007577D01*
X148376315Y-52051315D01*
X148332577Y-52104609D01*
X148300077Y-52165413D01*
X148280064Y-52231388D01*
X148273306Y-52300000D01*
X148275000Y-52537500D01*
X148362500Y-52625000D01*
X148975000Y-52625000D01*
X148975000Y-52605000D01*
X149075000Y-52605000D01*
X149075000Y-52625000D01*
X149095000Y-52625000D01*
X149095000Y-52725000D01*
X149075000Y-52725000D01*
X149075000Y-52745000D01*
X148975000Y-52745000D01*
X148975000Y-52725000D01*
X148362500Y-52725000D01*
X148275000Y-52812500D01*
X148273306Y-53050000D01*
X148280064Y-53118612D01*
X148282002Y-53125000D01*
X147767998Y-53125000D01*
X147769936Y-53118612D01*
X147776694Y-53050000D01*
X147775000Y-52812500D01*
X147687500Y-52725000D01*
X147075000Y-52725000D01*
X147075000Y-52745000D01*
X146975000Y-52745000D01*
X146975000Y-52725000D01*
X146955000Y-52725000D01*
X146955000Y-52625000D01*
X146975000Y-52625000D01*
X146975000Y-52605000D01*
X147075000Y-52605000D01*
X147075000Y-52625000D01*
X147687500Y-52625000D01*
X147775000Y-52537500D01*
X147776694Y-52300000D01*
X147769936Y-52231388D01*
X147749923Y-52165413D01*
X147717423Y-52104609D01*
X147673685Y-52051315D01*
X147620391Y-52007577D01*
X147559587Y-51975077D01*
X147493612Y-51955064D01*
X147425000Y-51948306D01*
X147241570Y-51949490D01*
X147276216Y-51930971D01*
X147344737Y-51874737D01*
X147400971Y-51806216D01*
X147442757Y-51728041D01*
X147468489Y-51643215D01*
X147477177Y-51555000D01*
X147477177Y-50055000D01*
X147468489Y-49966785D01*
X147442757Y-49881959D01*
X147400971Y-49803784D01*
X147344737Y-49735263D01*
X147276216Y-49679029D01*
X147198041Y-49637243D01*
X147113215Y-49611511D01*
X147025000Y-49602823D01*
X146025000Y-49602823D01*
X145936785Y-49611511D01*
X145851959Y-49637243D01*
X145773784Y-49679029D01*
X145705263Y-49735263D01*
X145649029Y-49803784D01*
X145607243Y-49881959D01*
X145581511Y-49966785D01*
X145572823Y-50055000D01*
X145572823Y-50108722D01*
X145507776Y-50115128D01*
X145375825Y-50155155D01*
X145254219Y-50220155D01*
X145147630Y-50307630D01*
X145125704Y-50334347D01*
X145050000Y-50410051D01*
X145050000Y-49525000D01*
X151223306Y-49525000D01*
X151225000Y-49637500D01*
X151312500Y-49725000D01*
X151975000Y-49725000D01*
X151975000Y-49262500D01*
X152075000Y-49262500D01*
X152075000Y-49725000D01*
X152737500Y-49725000D01*
X152825000Y-49637500D01*
X152826694Y-49525000D01*
X152819936Y-49456388D01*
X152799923Y-49390413D01*
X152767423Y-49329609D01*
X152723685Y-49276315D01*
X152670391Y-49232577D01*
X152609587Y-49200077D01*
X152543612Y-49180064D01*
X152475000Y-49173306D01*
X152162500Y-49175000D01*
X152075000Y-49262500D01*
X151975000Y-49262500D01*
X151887500Y-49175000D01*
X151575000Y-49173306D01*
X151506388Y-49180064D01*
X151440413Y-49200077D01*
X151379609Y-49232577D01*
X151326315Y-49276315D01*
X151282577Y-49329609D01*
X151250077Y-49390413D01*
X151230064Y-49456388D01*
X151223306Y-49525000D01*
X145050000Y-49525000D01*
X145050000Y-49174386D01*
X145053387Y-49139999D01*
X145049432Y-49099845D01*
X145039872Y-49002776D01*
X144999845Y-48870825D01*
X144988714Y-48850000D01*
X144975000Y-48824343D01*
X144975000Y-45991000D01*
X151218419Y-45991000D01*
X151105825Y-46025155D01*
G37*
X151105825Y-46025155D02*
X150984219Y-46090155D01*
X150877630Y-46177630D01*
X150855708Y-46204342D01*
X150404342Y-46655709D01*
X150377630Y-46677631D01*
X150355709Y-46704342D01*
X150355708Y-46704343D01*
X150290155Y-46784219D01*
X150253588Y-46852631D01*
X150225155Y-46905826D01*
X150185128Y-47037777D01*
X150175540Y-47135129D01*
X150171613Y-47175000D01*
X150175000Y-47209387D01*
X150175001Y-47992663D01*
X150121740Y-48072374D01*
X150057665Y-48227064D01*
X150025000Y-48391282D01*
X150025000Y-48558718D01*
X150057665Y-48722936D01*
X150121740Y-48877626D01*
X150214762Y-49016844D01*
X150333156Y-49135238D01*
X150472374Y-49228260D01*
X150627064Y-49292335D01*
X150791282Y-49325000D01*
X150958718Y-49325000D01*
X151122936Y-49292335D01*
X151277626Y-49228260D01*
X151416844Y-49135238D01*
X151535238Y-49016844D01*
X151598841Y-48921655D01*
X151650000Y-48926694D01*
X151887500Y-48925000D01*
X151975000Y-48837500D01*
X151975000Y-48225000D01*
X152075000Y-48225000D01*
X152075000Y-48837500D01*
X152162500Y-48925000D01*
X152400000Y-48926694D01*
X152468612Y-48919936D01*
X152534587Y-48899923D01*
X152595391Y-48867423D01*
X152648685Y-48823685D01*
X152692423Y-48770391D01*
X152724923Y-48709587D01*
X152744936Y-48643612D01*
X152751694Y-48575000D01*
X152750000Y-48312500D01*
X152662500Y-48225000D01*
X152075000Y-48225000D01*
X151975000Y-48225000D01*
X151955000Y-48225000D01*
X151955000Y-48125000D01*
X151975000Y-48125000D01*
X151975000Y-48105000D01*
X152075000Y-48105000D01*
X152075000Y-48125000D01*
X152662500Y-48125000D01*
X152750000Y-48037500D01*
X152751694Y-47775000D01*
X152744936Y-47706388D01*
X152724923Y-47640413D01*
X152712577Y-47617315D01*
X152790610Y-47625000D01*
X152790612Y-47625000D01*
X152824999Y-47628387D01*
X152825000Y-47628387D01*
X152825000Y-47790613D01*
X152821613Y-47825000D01*
X152825000Y-47859387D01*
X152825000Y-47859390D01*
X152831722Y-47927630D01*
X152835129Y-47962223D01*
X152875155Y-48094174D01*
X152940155Y-48215781D01*
X152999241Y-48287777D01*
X153027631Y-48322370D01*
X153054344Y-48344293D01*
X153059510Y-48349458D01*
X153019029Y-48398784D01*
X152977243Y-48476959D01*
X152951511Y-48561785D01*
X152942823Y-48650000D01*
X152942823Y-49300000D01*
X152951511Y-49388215D01*
X152977243Y-49473041D01*
X153019029Y-49551216D01*
X153075263Y-49619737D01*
X153143784Y-49675971D01*
X153221959Y-49717757D01*
X153306785Y-49743489D01*
X153395000Y-49752177D01*
X154455000Y-49752177D01*
X154543215Y-49743489D01*
X154628041Y-49717757D01*
X154706216Y-49675971D01*
X154774737Y-49619737D01*
X154830971Y-49551216D01*
X154872757Y-49473041D01*
X154898489Y-49388215D01*
X154907177Y-49300000D01*
X154907177Y-48650000D01*
X154898489Y-48561785D01*
X154872757Y-48476959D01*
X154830971Y-48398784D01*
X154774737Y-48330263D01*
X154706216Y-48274029D01*
X154628041Y-48232243D01*
X154627684Y-48232135D01*
X154628387Y-48224999D01*
X154623462Y-48174999D01*
X154614872Y-48087776D01*
X154574845Y-47955825D01*
X154509845Y-47834219D01*
X154422369Y-47727630D01*
X154395658Y-47705709D01*
X154225000Y-47535051D01*
X154225000Y-47197105D01*
X154227177Y-47175000D01*
X154227177Y-46937286D01*
X154228387Y-46925000D01*
X154227177Y-46912714D01*
X154227177Y-46675000D01*
X154225000Y-46652895D01*
X154225000Y-46290610D01*
X154214872Y-46187776D01*
X154174845Y-46055825D01*
X154140195Y-45991000D01*
X155136530Y-45991000D01*
X155075155Y-46105825D01*
X155035128Y-46237776D01*
X155025000Y-46340610D01*
X155025000Y-46652895D01*
X155022823Y-46675000D01*
X155022823Y-47175000D01*
X155025000Y-47197105D01*
X155025000Y-47740613D01*
X155021613Y-47775000D01*
X155025000Y-47809387D01*
X155025000Y-47809389D01*
X155035128Y-47912223D01*
X155073214Y-48037775D01*
X155075155Y-48044174D01*
X155140155Y-48165781D01*
X155196321Y-48234219D01*
X155227630Y-48272369D01*
X155254343Y-48294292D01*
X155283530Y-48323479D01*
X155275263Y-48330263D01*
X155219029Y-48398784D01*
X155177243Y-48476959D01*
X155151511Y-48561785D01*
X155142823Y-48650000D01*
X155142823Y-49300000D01*
X155151511Y-49388215D01*
X155177243Y-49473041D01*
X155219029Y-49551216D01*
X155244995Y-49582855D01*
X155243306Y-49600000D01*
X155245000Y-49787500D01*
X155332500Y-49875000D01*
X156075000Y-49875000D01*
X156075000Y-49855000D01*
X156175000Y-49855000D01*
X156175000Y-49875000D01*
X156917500Y-49875000D01*
X157005000Y-49787500D01*
X157006058Y-49670404D01*
X157062224Y-49664872D01*
X157194175Y-49624845D01*
X157281670Y-49578078D01*
X157275077Y-49590413D01*
X157255064Y-49656388D01*
X157248306Y-49725000D01*
X157250000Y-49987500D01*
X157337500Y-50075000D01*
X157925000Y-50075000D01*
X157925000Y-50055000D01*
X158025000Y-50055000D01*
X158025000Y-50075000D01*
X158612500Y-50075000D01*
X158700000Y-49987500D01*
X158701694Y-49725000D01*
X158694936Y-49656388D01*
X158674923Y-49590413D01*
X158642423Y-49529609D01*
X158598685Y-49476315D01*
X158545391Y-49432577D01*
X158543739Y-49431694D01*
X158575023Y-49414972D01*
X159568204Y-50408153D01*
X159590130Y-50434870D01*
X159696719Y-50522345D01*
X159818325Y-50587345D01*
X159950276Y-50627372D01*
X160053110Y-50637500D01*
X160053112Y-50637500D01*
X160087499Y-50640887D01*
X160121886Y-50637500D01*
X160572823Y-50637500D01*
X160572823Y-50712500D01*
X160581511Y-50800715D01*
X160607243Y-50885541D01*
X160649029Y-50963716D01*
X160705263Y-51032237D01*
X160773784Y-51088471D01*
X160851959Y-51130257D01*
X160936785Y-51155989D01*
X161025000Y-51164677D01*
X161625000Y-51164677D01*
X161713215Y-51155989D01*
X161798041Y-51130257D01*
X161876216Y-51088471D01*
X161925463Y-51048055D01*
X161956388Y-51057436D01*
X162025000Y-51064194D01*
X162187500Y-51062500D01*
X162275000Y-50975000D01*
X162275000Y-49987500D01*
X162375000Y-49987500D01*
X162375000Y-50975000D01*
X162462500Y-51062500D01*
X162625000Y-51064194D01*
X162693612Y-51057436D01*
X162759587Y-51037423D01*
X162820391Y-51004923D01*
X162873685Y-50961185D01*
X162917423Y-50907891D01*
X162949923Y-50847087D01*
X162969936Y-50781112D01*
X162976694Y-50712500D01*
X162975000Y-50075000D01*
X162887500Y-49987500D01*
X162375000Y-49987500D01*
X162275000Y-49987500D01*
X162255000Y-49987500D01*
X162255000Y-49887500D01*
X162275000Y-49887500D01*
X162275000Y-49867500D01*
X162375000Y-49867500D01*
X162375000Y-49887500D01*
X162887500Y-49887500D01*
X162975000Y-49800000D01*
X162976694Y-49162500D01*
X162969936Y-49093888D01*
X162949923Y-49027913D01*
X162923536Y-48978546D01*
X162935238Y-48966844D01*
X163028260Y-48827626D01*
X163054334Y-48764677D01*
X164225000Y-48764677D01*
X164313215Y-48755989D01*
X164398041Y-48730257D01*
X164476216Y-48688471D01*
X164544737Y-48632237D01*
X164600971Y-48563716D01*
X164642757Y-48485541D01*
X164668489Y-48400715D01*
X164677177Y-48312500D01*
X164677177Y-46512500D01*
X164668489Y-46424285D01*
X164642757Y-46339459D01*
X164600971Y-46261284D01*
X164544737Y-46192763D01*
X164476216Y-46136529D01*
X164398041Y-46094743D01*
X164313215Y-46069011D01*
X164225000Y-46060323D01*
X163025000Y-46060323D01*
X162936785Y-46069011D01*
X162851959Y-46094743D01*
X162773784Y-46136529D01*
X162705263Y-46192763D01*
X162649029Y-46261284D01*
X162607243Y-46339459D01*
X162581511Y-46424285D01*
X162572823Y-46512500D01*
X162572823Y-47628329D01*
X162522936Y-47607665D01*
X162358718Y-47575000D01*
X162191282Y-47575000D01*
X162027064Y-47607665D01*
X161872374Y-47671740D01*
X161792664Y-47725000D01*
X161659386Y-47725000D01*
X161624999Y-47721613D01*
X161590612Y-47725000D01*
X161590610Y-47725000D01*
X161487776Y-47735128D01*
X161355825Y-47775155D01*
X161234219Y-47840155D01*
X161127630Y-47927630D01*
X161105704Y-47954347D01*
X161077177Y-47982874D01*
X161077177Y-46512500D01*
X161068489Y-46424285D01*
X161042757Y-46339459D01*
X161000971Y-46261284D01*
X160944737Y-46192763D01*
X160876216Y-46136529D01*
X160798041Y-46094743D01*
X160713215Y-46069011D01*
X160625000Y-46060323D01*
X159425000Y-46060323D01*
X159336785Y-46069011D01*
X159251959Y-46094743D01*
X159173784Y-46136529D01*
X159105263Y-46192763D01*
X159049029Y-46261284D01*
X159007243Y-46339459D01*
X158981511Y-46424285D01*
X158972823Y-46512500D01*
X158972823Y-47953511D01*
X158912224Y-47935128D01*
X158809390Y-47925000D01*
X158809387Y-47925000D01*
X158775000Y-47921613D01*
X158740613Y-47925000D01*
X158685935Y-47925000D01*
X158669737Y-47905263D01*
X158601216Y-47849029D01*
X158523041Y-47807243D01*
X158438215Y-47781511D01*
X158350000Y-47772823D01*
X157600000Y-47772823D01*
X157511785Y-47781511D01*
X157426959Y-47807243D01*
X157348784Y-47849029D01*
X157280263Y-47905263D01*
X157266128Y-47922487D01*
X157240613Y-47925000D01*
X157240610Y-47925000D01*
X157137776Y-47935128D01*
X157005825Y-47975155D01*
X156884219Y-48040155D01*
X156820275Y-48092632D01*
X156814872Y-48037776D01*
X156774845Y-47905825D01*
X156709845Y-47784219D01*
X156622370Y-47677630D01*
X156595648Y-47655700D01*
X156425000Y-47485052D01*
X156425000Y-47197105D01*
X156427177Y-47175000D01*
X156427177Y-46675000D01*
X156425000Y-46652895D01*
X156425000Y-46340610D01*
X156414872Y-46237776D01*
X156374845Y-46105825D01*
X156313470Y-45991000D01*
X165800000Y-45991000D01*
X165800000Y-52607165D01*
X165779963Y-52577178D01*
X165618222Y-52415437D01*
X165428035Y-52288358D01*
X165216710Y-52200824D01*
X164992368Y-52156200D01*
X164763632Y-52156200D01*
X164716187Y-52165637D01*
X164550000Y-51999451D01*
X164550000Y-50352082D01*
X164660238Y-50241844D01*
X164753260Y-50102626D01*
X164817335Y-49947936D01*
X164850000Y-49783718D01*
X164850000Y-49616282D01*
X164817335Y-49452064D01*
X164753260Y-49297374D01*
X164660238Y-49158156D01*
X164541844Y-49039762D01*
X164402626Y-48946740D01*
X164247936Y-48882665D01*
X164083718Y-48850000D01*
X163916282Y-48850000D01*
X163752064Y-48882665D01*
X163597374Y-48946740D01*
X163458156Y-49039762D01*
X163339762Y-49158156D01*
X163246740Y-49297374D01*
X163182665Y-49452064D01*
X163150000Y-49616282D01*
X163150000Y-49783718D01*
X163152101Y-49794281D01*
X163146613Y-49850000D01*
X163150001Y-49884397D01*
X163150000Y-52255013D01*
X163146613Y-52289400D01*
X163150000Y-52323787D01*
X163150000Y-52323789D01*
X163160128Y-52426623D01*
X163190998Y-52528387D01*
X163200155Y-52558574D01*
X163265155Y-52680181D01*
X163304717Y-52728387D01*
X163352630Y-52786769D01*
X163379343Y-52808692D01*
X163726237Y-53155587D01*
X163722902Y-53172353D01*
X162329896Y-51779347D01*
X162307970Y-51752630D01*
X162201381Y-51665155D01*
X162079775Y-51600155D01*
X161947824Y-51560128D01*
X161844990Y-51550000D01*
X161844987Y-51550000D01*
X161810600Y-51546613D01*
X161776213Y-51550000D01*
X158809386Y-51550000D01*
X158774999Y-51546613D01*
X158740612Y-51550000D01*
X158740610Y-51550000D01*
X158637776Y-51560128D01*
X158505825Y-51600155D01*
X158384219Y-51665155D01*
X158277630Y-51752630D01*
X158255704Y-51779347D01*
X158000000Y-52035051D01*
X158000000Y-51328243D01*
X158002782Y-51300000D01*
X157999001Y-51261613D01*
X157991680Y-51187280D01*
X157958801Y-51078892D01*
X157928892Y-51022936D01*
X157905408Y-50979001D01*
X157851559Y-50913386D01*
X157833554Y-50891446D01*
X157813721Y-50875170D01*
X157837500Y-50875000D01*
X157925000Y-50787500D01*
X157925000Y-50175000D01*
X158025000Y-50175000D01*
X158025000Y-50787500D01*
X158112500Y-50875000D01*
X158350000Y-50876694D01*
X158418612Y-50869936D01*
X158484587Y-50849923D01*
X158545391Y-50817423D01*
X158598685Y-50773685D01*
X158642423Y-50720391D01*
X158674923Y-50659587D01*
X158694936Y-50593612D01*
X158701694Y-50525000D01*
X158700000Y-50262500D01*
X158612500Y-50175000D01*
X158025000Y-50175000D01*
X157925000Y-50175000D01*
X157337500Y-50175000D01*
X157250000Y-50262500D01*
X157249395Y-50356319D01*
X157221108Y-50341199D01*
X157112720Y-50308320D01*
X157031809Y-50300351D01*
X157030971Y-50298784D01*
X157005005Y-50267145D01*
X157006694Y-50250000D01*
X157005000Y-50062500D01*
X156917500Y-49975000D01*
X156175000Y-49975000D01*
X156175000Y-49995000D01*
X156075000Y-49995000D01*
X156075000Y-49975000D01*
X155332500Y-49975000D01*
X155245000Y-50062500D01*
X155243306Y-50250000D01*
X155244995Y-50267145D01*
X155219029Y-50298784D01*
X155177243Y-50376959D01*
X155151511Y-50461785D01*
X155142823Y-50550000D01*
X155142823Y-51200000D01*
X155151511Y-51288215D01*
X155177243Y-51373041D01*
X155219029Y-51451216D01*
X155275263Y-51519737D01*
X155343784Y-51575971D01*
X155421959Y-51617757D01*
X155506785Y-51643489D01*
X155595000Y-51652177D01*
X156655000Y-51652177D01*
X156743215Y-51643489D01*
X156828041Y-51617757D01*
X156850001Y-51606019D01*
X156850001Y-51772823D01*
X156500000Y-51772823D01*
X156411785Y-51781511D01*
X156326959Y-51807243D01*
X156248784Y-51849029D01*
X156180263Y-51905263D01*
X156124029Y-51973784D01*
X156082243Y-52051959D01*
X156056511Y-52136785D01*
X156047823Y-52225000D01*
X156047823Y-53050000D01*
X155952177Y-53050000D01*
X155952177Y-52225000D01*
X155943489Y-52136785D01*
X155917757Y-52051959D01*
X155875971Y-51973784D01*
X155819737Y-51905263D01*
X155751216Y-51849029D01*
X155673041Y-51807243D01*
X155588215Y-51781511D01*
X155500000Y-51772823D01*
X155000000Y-51772823D01*
X154911785Y-51781511D01*
X154826959Y-51807243D01*
X154748784Y-51849029D01*
X154680263Y-51905263D01*
X154624029Y-51973784D01*
X154586637Y-52043738D01*
X154575971Y-52023784D01*
X154519737Y-51955263D01*
X154451216Y-51899029D01*
X154373041Y-51857243D01*
X154288215Y-51831511D01*
X154200000Y-51822823D01*
X153400000Y-51822823D01*
X153311785Y-51831511D01*
X153226959Y-51857243D01*
X153148784Y-51899029D01*
X153080263Y-51955263D01*
X153024029Y-52023784D01*
X153000000Y-52068738D01*
X152975971Y-52023784D01*
X152919737Y-51955263D01*
X152851216Y-51899029D01*
X152776952Y-51859333D01*
X152793108Y-51846074D01*
X152837720Y-51841680D01*
X152946108Y-51808801D01*
X153045998Y-51755408D01*
X153133554Y-51683554D01*
X153151565Y-51661607D01*
X153204661Y-51608511D01*
X153221959Y-51617757D01*
X153306785Y-51643489D01*
X153395000Y-51652177D01*
X154455000Y-51652177D01*
X154543215Y-51643489D01*
X154628041Y-51617757D01*
X154706216Y-51575971D01*
X154774737Y-51519737D01*
X154830971Y-51451216D01*
X154872757Y-51373041D01*
X154898489Y-51288215D01*
X154907177Y-51200000D01*
X154907177Y-50550000D01*
X154898489Y-50461785D01*
X154872757Y-50376959D01*
X154830971Y-50298784D01*
X154774737Y-50230263D01*
X154706216Y-50174029D01*
X154628041Y-50132243D01*
X154543215Y-50106511D01*
X154455000Y-50097823D01*
X153395000Y-50097823D01*
X153306785Y-50106511D01*
X153221959Y-50132243D01*
X153143784Y-50174029D01*
X153075263Y-50230263D01*
X153019029Y-50298784D01*
X153014024Y-50308148D01*
X153012280Y-50308320D01*
X152903892Y-50341199D01*
X152840656Y-50375000D01*
X152804001Y-50394592D01*
X152780086Y-50414219D01*
X152716446Y-50466446D01*
X152698439Y-50488388D01*
X152595517Y-50591310D01*
X152563215Y-50581511D01*
X152475000Y-50572823D01*
X151601437Y-50572823D01*
X151592335Y-50527064D01*
X151528260Y-50372374D01*
X151528057Y-50372070D01*
X151575000Y-50376694D01*
X151887500Y-50375000D01*
X151975000Y-50287500D01*
X151975000Y-49825000D01*
X152075000Y-49825000D01*
X152075000Y-50287500D01*
X152162500Y-50375000D01*
X152475000Y-50376694D01*
X152543612Y-50369936D01*
X152609587Y-50349923D01*
X152670391Y-50317423D01*
X152723685Y-50273685D01*
X152767423Y-50220391D01*
X152799923Y-50159587D01*
X152819936Y-50093612D01*
X152826694Y-50025000D01*
X152825000Y-49912500D01*
X152737500Y-49825000D01*
X152075000Y-49825000D01*
X151975000Y-49825000D01*
X151312500Y-49825000D01*
X151225000Y-49912500D01*
X151223306Y-50025000D01*
X151226180Y-50054183D01*
X151177626Y-50021740D01*
X151022936Y-49957665D01*
X150858718Y-49925000D01*
X150691282Y-49925000D01*
X150527064Y-49957665D01*
X150469922Y-49981334D01*
X150468489Y-49966785D01*
X150442757Y-49881959D01*
X150400971Y-49803784D01*
X150344737Y-49735263D01*
X150276216Y-49679029D01*
X150198041Y-49637243D01*
X150113215Y-49611511D01*
X150025000Y-49602823D01*
X149025000Y-49602823D01*
X148936785Y-49611511D01*
X148851959Y-49637243D01*
X148773784Y-49679029D01*
X148705263Y-49735263D01*
X148649029Y-49803784D01*
X148607243Y-49881959D01*
X148581511Y-49966785D01*
X148572823Y-50055000D01*
X148572823Y-51555000D01*
X148581511Y-51643215D01*
X148607243Y-51728041D01*
X148649029Y-51806216D01*
X148705263Y-51874737D01*
X148773784Y-51930971D01*
X148808430Y-51949490D01*
X148625000Y-51948306D01*
X148556388Y-51955064D01*
X148490413Y-51975077D01*
X148429609Y-52007577D01*
X148376315Y-52051315D01*
X148332577Y-52104609D01*
X148300077Y-52165413D01*
X148280064Y-52231388D01*
X148273306Y-52300000D01*
X148275000Y-52537500D01*
X148362500Y-52625000D01*
X148975000Y-52625000D01*
X148975000Y-52605000D01*
X149075000Y-52605000D01*
X149075000Y-52625000D01*
X149095000Y-52625000D01*
X149095000Y-52725000D01*
X149075000Y-52725000D01*
X149075000Y-52745000D01*
X148975000Y-52745000D01*
X148975000Y-52725000D01*
X148362500Y-52725000D01*
X148275000Y-52812500D01*
X148273306Y-53050000D01*
X148280064Y-53118612D01*
X148282002Y-53125000D01*
X147767998Y-53125000D01*
X147769936Y-53118612D01*
X147776694Y-53050000D01*
X147775000Y-52812500D01*
X147687500Y-52725000D01*
X147075000Y-52725000D01*
X147075000Y-52745000D01*
X146975000Y-52745000D01*
X146975000Y-52725000D01*
X146955000Y-52725000D01*
X146955000Y-52625000D01*
X146975000Y-52625000D01*
X146975000Y-52605000D01*
X147075000Y-52605000D01*
X147075000Y-52625000D01*
X147687500Y-52625000D01*
X147775000Y-52537500D01*
X147776694Y-52300000D01*
X147769936Y-52231388D01*
X147749923Y-52165413D01*
X147717423Y-52104609D01*
X147673685Y-52051315D01*
X147620391Y-52007577D01*
X147559587Y-51975077D01*
X147493612Y-51955064D01*
X147425000Y-51948306D01*
X147241570Y-51949490D01*
X147276216Y-51930971D01*
X147344737Y-51874737D01*
X147400971Y-51806216D01*
X147442757Y-51728041D01*
X147468489Y-51643215D01*
X147477177Y-51555000D01*
X147477177Y-50055000D01*
X147468489Y-49966785D01*
X147442757Y-49881959D01*
X147400971Y-49803784D01*
X147344737Y-49735263D01*
X147276216Y-49679029D01*
X147198041Y-49637243D01*
X147113215Y-49611511D01*
X147025000Y-49602823D01*
X146025000Y-49602823D01*
X145936785Y-49611511D01*
X145851959Y-49637243D01*
X145773784Y-49679029D01*
X145705263Y-49735263D01*
X145649029Y-49803784D01*
X145607243Y-49881959D01*
X145581511Y-49966785D01*
X145572823Y-50055000D01*
X145572823Y-50108722D01*
X145507776Y-50115128D01*
X145375825Y-50155155D01*
X145254219Y-50220155D01*
X145147630Y-50307630D01*
X145125704Y-50334347D01*
X145050000Y-50410051D01*
X145050000Y-49525000D01*
X151223306Y-49525000D01*
X151225000Y-49637500D01*
X151312500Y-49725000D01*
X151975000Y-49725000D01*
X151975000Y-49262500D01*
X152075000Y-49262500D01*
X152075000Y-49725000D01*
X152737500Y-49725000D01*
X152825000Y-49637500D01*
X152826694Y-49525000D01*
X152819936Y-49456388D01*
X152799923Y-49390413D01*
X152767423Y-49329609D01*
X152723685Y-49276315D01*
X152670391Y-49232577D01*
X152609587Y-49200077D01*
X152543612Y-49180064D01*
X152475000Y-49173306D01*
X152162500Y-49175000D01*
X152075000Y-49262500D01*
X151975000Y-49262500D01*
X151887500Y-49175000D01*
X151575000Y-49173306D01*
X151506388Y-49180064D01*
X151440413Y-49200077D01*
X151379609Y-49232577D01*
X151326315Y-49276315D01*
X151282577Y-49329609D01*
X151250077Y-49390413D01*
X151230064Y-49456388D01*
X151223306Y-49525000D01*
X145050000Y-49525000D01*
X145050000Y-49174386D01*
X145053387Y-49139999D01*
X145049432Y-49099845D01*
X145039872Y-49002776D01*
X144999845Y-48870825D01*
X144988714Y-48850000D01*
X144975000Y-48824343D01*
X144975000Y-45991000D01*
X151218419Y-45991000D01*
X151105825Y-46025155D01*
%TD*%
M02*
