G04 #@! TF.GenerationSoftware,KiCad,Pcbnew,(2017-09-19 revision dddaa7e69)-makepkg*
G04 #@! TF.CreationDate,2017-12-07T22:33:37+10:30*
G04 #@! TF.ProjectId,din_power_atm90e26,64696E5F706F7765725F61746D393065,rev?*
G04 #@! TF.SameCoordinates,Original*
G04 #@! TF.FileFunction,Soldermask,Bot*
G04 #@! TF.FilePolarity,Negative*
%FSLAX46Y46*%
G04 Gerber Fmt 4.6, Leading zero omitted, Abs format (unit mm)*
G04 Created by KiCad (PCBNEW (2017-09-19 revision dddaa7e69)-makepkg) date 12/07/17 22:33:37*
%MOMM*%
%LPD*%
G01*
G04 APERTURE LIST*
%ADD10C,1.822400*%
%ADD11C,2.000000*%
%ADD12C,2.200000*%
%ADD13R,2.200000X2.200000*%
%ADD14R,1.708000X1.708000*%
%ADD15R,2.300000X2.300000*%
%ADD16C,2.300000*%
%ADD17O,4.000000X2.200000*%
%ADD18R,4.000000X2.200000*%
%ADD19R,0.900000X1.300000*%
%ADD20R,1.300000X2.100000*%
%ADD21R,1.200000X1.150000*%
G04 APERTURE END LIST*
D10*
X169378000Y-62367400D03*
X169378000Y-64367400D03*
X169378000Y-66367400D03*
X169378000Y-68367400D03*
X169378000Y-70367400D03*
X169378000Y-72367400D03*
X171378000Y-71367400D03*
X171378000Y-69367400D03*
X171378000Y-67367400D03*
X171378000Y-65367400D03*
X171378000Y-63367400D03*
X166878000Y-72317400D03*
X166878000Y-70317400D03*
X166878000Y-68317400D03*
X166878000Y-66317400D03*
X166878000Y-64317400D03*
X166878000Y-62317400D03*
X164878000Y-63317400D03*
X164878000Y-65317400D03*
X164878000Y-67317400D03*
X164878000Y-69317400D03*
X164878000Y-71317400D03*
X171378000Y-53367400D03*
X171378000Y-55367400D03*
X171378000Y-57367400D03*
X171378000Y-59367400D03*
X169378000Y-58367400D03*
X169378000Y-56367400D03*
X169378000Y-54367400D03*
X164878000Y-59317400D03*
X164878000Y-57317400D03*
X164878000Y-55317400D03*
X164878000Y-53317400D03*
X166878000Y-54317400D03*
X166878000Y-56317400D03*
X166878000Y-58317400D03*
D11*
X117450000Y-74500000D03*
X122450000Y-74500000D03*
D12*
X135310000Y-51850000D03*
X132770000Y-51850000D03*
X130230000Y-51850000D03*
D13*
X127690000Y-51850000D03*
D14*
X159288000Y-73389000D03*
X159288000Y-57989000D03*
X129888000Y-68189000D03*
X129888000Y-63189000D03*
D15*
X179705000Y-50698400D03*
D16*
X179705000Y-53198400D03*
X179705000Y-55698400D03*
X179705000Y-58198400D03*
X182205000Y-50698400D03*
X182205000Y-53198400D03*
X182205000Y-55698400D03*
X182205000Y-58198400D03*
D11*
X189385000Y-50698400D03*
X189385000Y-58198400D03*
X189385000Y-72295400D03*
X189385000Y-64795400D03*
D16*
X182205000Y-72295400D03*
X182205000Y-69795400D03*
X182205000Y-67295400D03*
X182205000Y-64795400D03*
X179705000Y-72295400D03*
X179705000Y-69795400D03*
X179705000Y-67295400D03*
D15*
X179705000Y-64795400D03*
D17*
X110490000Y-74574400D03*
X110490000Y-69494400D03*
X110490000Y-64414400D03*
X110490000Y-59334400D03*
X110490000Y-54254400D03*
D18*
X110490000Y-49174400D03*
D19*
X185950000Y-50700000D03*
X184450000Y-50700000D03*
X185950000Y-58200000D03*
X184450000Y-58200000D03*
X185950000Y-55700000D03*
X184450000Y-55700000D03*
X175950000Y-58200000D03*
X177450000Y-58200000D03*
X175950000Y-55700000D03*
X177450000Y-55700000D03*
X175950000Y-53200000D03*
X177450000Y-53200000D03*
X184450000Y-53200000D03*
X185950000Y-53200000D03*
X175950000Y-50700000D03*
X177450000Y-50700000D03*
D20*
X144750000Y-65100000D03*
X147650000Y-65100000D03*
X150550000Y-75550000D03*
X153450000Y-75550000D03*
X153450000Y-70450000D03*
X150550000Y-70450000D03*
X153450000Y-65100000D03*
X150550000Y-65100000D03*
X147650000Y-75550000D03*
X144750000Y-75550000D03*
X144750000Y-70450000D03*
X147650000Y-70450000D03*
X141850000Y-70450000D03*
X138950000Y-70450000D03*
X138950000Y-75550000D03*
X141850000Y-75550000D03*
X118950000Y-67950000D03*
X116050000Y-67950000D03*
X118950000Y-52700000D03*
X116050000Y-52700000D03*
X138950000Y-65100000D03*
X141850000Y-65100000D03*
X118950000Y-60300000D03*
X116050000Y-60300000D03*
D21*
X163050000Y-73150000D03*
X161550000Y-73150000D03*
X162000000Y-65050000D03*
X160500000Y-65050000D03*
X162200000Y-68550000D03*
X160700000Y-68550000D03*
D19*
X163050000Y-75050000D03*
X161550000Y-75050000D03*
X175950000Y-67300000D03*
X177450000Y-67300000D03*
X185950000Y-64800000D03*
X184450000Y-64800000D03*
X185950000Y-67300000D03*
X184450000Y-67300000D03*
X162000000Y-66800000D03*
X160500000Y-66800000D03*
X162200000Y-70300000D03*
X160700000Y-70300000D03*
X177450000Y-69800000D03*
X175950000Y-69800000D03*
X184450000Y-72300000D03*
X185950000Y-72300000D03*
X184450000Y-69800000D03*
X185950000Y-69800000D03*
X177450000Y-72300000D03*
X175950000Y-72300000D03*
X177450000Y-64800000D03*
X175950000Y-64800000D03*
M02*
