G04 #@! TF.GenerationSoftware,KiCad,Pcbnew,(2017-09-19 revision dddaa7e69)-makepkg*
G04 #@! TF.CreationDate,2017-11-22T18:58:21+10:30*
G04 #@! TF.ProjectId,din_power_atm90e26,64696E5F706F7765725F61746D393065,rev?*
G04 #@! TF.SameCoordinates,Original*
G04 #@! TF.FileFunction,Soldermask,Top*
G04 #@! TF.FilePolarity,Negative*
%FSLAX46Y46*%
G04 Gerber Fmt 4.6, Leading zero omitted, Abs format (unit mm)*
G04 Created by KiCad (PCBNEW (2017-09-19 revision dddaa7e69)-makepkg) date 11/22/17 18:58:21*
%MOMM*%
%LPD*%
G01*
G04 APERTURE LIST*
%ADD10R,1.600000X2.200000*%
%ADD11R,1.000000X1.950000*%
%ADD12R,2.300000X2.300000*%
%ADD13C,2.300000*%
%ADD14C,2.000000*%
%ADD15O,4.000000X2.200000*%
%ADD16R,4.000000X2.200000*%
%ADD17R,0.900000X1.300000*%
%ADD18R,1.050000X1.460000*%
%ADD19C,1.250000*%
%ADD20C,0.100000*%
%ADD21R,1.400000X1.900000*%
%ADD22R,1.400000X2.200000*%
%ADD23R,2.600000X2.240000*%
%ADD24C,1.400000*%
%ADD25R,1.708000X1.708000*%
%ADD26C,1.822400*%
%ADD27C,2.200000*%
%ADD28R,2.200000X2.200000*%
%ADD29R,1.300000X2.100000*%
%ADD30R,1.200000X1.150000*%
%ADD31R,1.150000X1.200000*%
%ADD32R,0.900000X0.900000*%
%ADD33R,1.200000X1.200000*%
%ADD34R,1.670000X3.702000*%
G04 APERTURE END LIST*
D10*
X156978000Y-47494900D03*
X153378000Y-47494900D03*
D11*
X155678000Y-50019900D03*
X154678000Y-50019900D03*
D12*
X179705000Y-50698400D03*
D13*
X179705000Y-53198400D03*
X179705000Y-55698400D03*
X179705000Y-58198400D03*
X182205000Y-50698400D03*
X182205000Y-53198400D03*
X182205000Y-55698400D03*
X182205000Y-58198400D03*
D14*
X189385000Y-50698400D03*
X189385000Y-58198400D03*
X189385000Y-72295400D03*
X189385000Y-64795400D03*
D13*
X182205000Y-72295400D03*
X182205000Y-69795400D03*
X182205000Y-67295400D03*
X182205000Y-64795400D03*
X179705000Y-72295400D03*
X179705000Y-69795400D03*
X179705000Y-67295400D03*
D12*
X179705000Y-64795400D03*
D15*
X110490000Y-74574400D03*
X110490000Y-69494400D03*
X110490000Y-64414400D03*
X110490000Y-59334400D03*
X110490000Y-54254400D03*
D16*
X110490000Y-49174400D03*
D17*
X174020000Y-48320000D03*
X175520000Y-48320000D03*
X174020000Y-61450000D03*
X175520000Y-61450000D03*
X181760000Y-61440000D03*
X183260000Y-61440000D03*
X174020000Y-58200000D03*
X175520000Y-58200000D03*
X174020000Y-55680000D03*
X175520000Y-55680000D03*
X174018000Y-53067400D03*
X175518000Y-53067400D03*
X175520000Y-46420000D03*
X174020000Y-46420000D03*
X174020000Y-50500000D03*
X175520000Y-50500000D03*
D18*
X161378000Y-51167400D03*
X159478000Y-51167400D03*
X159478000Y-48967400D03*
X160428000Y-48967400D03*
X161378000Y-48967400D03*
D19*
X142568000Y-46193000D03*
D20*
G36*
X141082016Y-46818000D02*
X141964368Y-45568000D01*
X143171632Y-45568000D01*
X144053984Y-46818000D01*
X141082016Y-46818000D01*
X141082016Y-46818000D01*
G37*
D21*
X141068000Y-50340000D03*
D22*
X142568000Y-50193500D03*
D21*
X144068000Y-50340000D03*
D23*
X142568000Y-47526500D03*
D24*
X142568000Y-48936200D03*
D20*
G36*
X144052131Y-48236200D02*
X143072131Y-49636200D01*
X142063869Y-49636200D01*
X141083869Y-48236200D01*
X144052131Y-48236200D01*
X144052131Y-48236200D01*
G37*
D24*
X149290000Y-48936200D03*
D20*
G36*
X150774131Y-48236200D02*
X149794131Y-49636200D01*
X148785869Y-49636200D01*
X147805869Y-48236200D01*
X150774131Y-48236200D01*
X150774131Y-48236200D01*
G37*
D23*
X149290000Y-47526500D03*
D21*
X150790000Y-50340000D03*
D22*
X149290000Y-50193500D03*
D21*
X147790000Y-50340000D03*
D19*
X149290000Y-46193000D03*
D20*
G36*
X147804016Y-46818000D02*
X148686368Y-45568000D01*
X149893632Y-45568000D01*
X150775984Y-46818000D01*
X147804016Y-46818000D01*
X147804016Y-46818000D01*
G37*
D25*
X159288000Y-72207400D03*
X159288000Y-56807400D03*
X129888000Y-67007400D03*
X129888000Y-62007400D03*
D26*
X169378000Y-62367400D03*
X169378000Y-64367400D03*
X169378000Y-66367400D03*
X169378000Y-68367400D03*
X169378000Y-70367400D03*
X169378000Y-72367400D03*
X171378000Y-71367400D03*
X171378000Y-69367400D03*
X171378000Y-67367400D03*
X171378000Y-65367400D03*
X171378000Y-63367400D03*
X166878000Y-72317400D03*
X166878000Y-70317400D03*
X166878000Y-68317400D03*
X166878000Y-66317400D03*
X166878000Y-64317400D03*
X166878000Y-62317400D03*
X164878000Y-63317400D03*
X164878000Y-65317400D03*
X164878000Y-67317400D03*
X164878000Y-69317400D03*
X164878000Y-71317400D03*
X171378000Y-53367400D03*
X171378000Y-55367400D03*
X171378000Y-57367400D03*
X171378000Y-59367400D03*
X169378000Y-58367400D03*
X169378000Y-56367400D03*
X169378000Y-54367400D03*
X164878000Y-59317400D03*
X164878000Y-57317400D03*
X164878000Y-55317400D03*
X164878000Y-53317400D03*
X166878000Y-54317400D03*
X166878000Y-56317400D03*
X166878000Y-58317400D03*
D27*
X127381000Y-48133000D03*
X129921000Y-48133000D03*
X132461000Y-48133000D03*
D28*
X135001000Y-48133000D03*
D29*
X120498000Y-47367400D03*
X123398000Y-47367400D03*
D17*
X164118000Y-46637400D03*
X162618000Y-46637400D03*
X169468000Y-48327400D03*
X170968000Y-48327400D03*
D30*
X167518000Y-46587400D03*
X166018000Y-46587400D03*
X152230000Y-52080000D03*
X150730000Y-52080000D03*
X143522000Y-52070000D03*
X145022000Y-52070000D03*
X141593000Y-52070000D03*
X140093000Y-52070000D03*
X149230000Y-52080000D03*
X147730000Y-52080000D03*
D31*
X163818000Y-50087400D03*
X163818000Y-48587400D03*
D32*
X165318000Y-48627400D03*
X167518000Y-48627400D03*
D33*
X170958000Y-46587400D03*
X169358000Y-46587400D03*
D17*
X174020000Y-67280000D03*
X175520000Y-67280000D03*
X178350000Y-61450000D03*
X179850000Y-61450000D03*
X186740000Y-61440000D03*
X185240000Y-61440000D03*
X175520000Y-69810000D03*
X174020000Y-69810000D03*
X175520000Y-74500000D03*
X174020000Y-74500000D03*
X175520000Y-76410000D03*
X174020000Y-76410000D03*
X175520000Y-72280000D03*
X174020000Y-72280000D03*
X175520000Y-64820000D03*
X174020000Y-64820000D03*
D14*
X119172466Y-74842934D03*
X122708000Y-71307400D03*
D34*
X115443000Y-52349400D03*
X122809000Y-52349400D03*
X122809000Y-58953400D03*
X115443000Y-58953400D03*
X115443000Y-65557400D03*
X122809000Y-65557400D03*
M02*
