%TF.GenerationSoftware,KiCad,Pcbnew,(5.1.5)-3*%
%TF.CreationDate,2020-03-19T09:51:26+11:00*%
%TF.ProjectId,din_power_atm90e26,64696e5f-706f-4776-9572-5f61746d3930,rev?*%
%TF.SameCoordinates,Original*%
%TF.FileFunction,Legend,Top*%
%TF.FilePolarity,Positive*%
%FSLAX46Y46*%
G04 Gerber Fmt 4.6, Leading zero omitted, Abs format (unit mm)*
G04 Created by KiCad (PCBNEW (5.1.5)-3) date 2020-03-19 09:51:26*
%MOMM*%
%LPD*%
G04 APERTURE LIST*
%ADD10C,0.200000*%
%ADD11C,0.120000*%
%ADD12C,0.150000*%
G04 APERTURE END LIST*
D10*
%TO.C,J4*%
X163628000Y-75217400D02*
X163628000Y-50217400D01*
X163628000Y-75217400D02*
X172628000Y-75217400D01*
X172628000Y-50217400D02*
X163628000Y-50217400D01*
X172628000Y-50217400D02*
X172628000Y-75217400D01*
D11*
%TO.C,F1*%
X114890000Y-75810000D02*
X114890000Y-73190000D01*
X125009999Y-75810000D02*
X125009999Y-73190000D01*
X125009999Y-73190000D02*
X114890000Y-73190000D01*
X125009999Y-75810000D02*
X114890000Y-75810000D01*
D10*
%TO.C,U5*%
X125750000Y-53100000D02*
X125750000Y-46600000D01*
X125750000Y-46600000D02*
X137250000Y-46600000D01*
X137250000Y-46600000D02*
X137250000Y-53100000D01*
X137250000Y-53100000D02*
X125750000Y-53100000D01*
%TO.C,U4*%
X131588000Y-63189000D02*
X132088000Y-62689000D01*
X132088000Y-62689000D02*
X132588000Y-63689000D01*
X132588000Y-63689000D02*
X133088000Y-63189000D01*
X131588000Y-68189000D02*
X132088000Y-67689000D01*
X132088000Y-67689000D02*
X132588000Y-68689000D01*
X132588000Y-68689000D02*
X133088000Y-68189000D01*
X157588000Y-72689000D02*
X157588000Y-73689000D01*
X158088000Y-73189000D02*
X157088000Y-73189000D01*
X158088000Y-58189000D02*
X157088000Y-58189000D01*
X127688000Y-75589000D02*
X161488000Y-75589000D01*
X161488000Y-75589000D02*
X161488000Y-55789000D01*
X161488000Y-55789000D02*
X127688000Y-55789000D01*
X127688000Y-55789000D02*
X127688000Y-75589000D01*
D11*
%TO.C,J2*%
X162325000Y-47612500D02*
X162325000Y-47812500D01*
X161325000Y-47612500D02*
X161325000Y-47812500D01*
X162725000Y-48862500D02*
X162725000Y-48212500D01*
X160925000Y-48862500D02*
X162725000Y-48862500D01*
X160925000Y-48212500D02*
X160925000Y-48862500D01*
X162725000Y-47112500D02*
X162725000Y-47612500D01*
X160925000Y-47112500D02*
X162725000Y-47112500D01*
X160925000Y-47612500D02*
X160925000Y-47112500D01*
X163825000Y-49012500D02*
X163325000Y-49012500D01*
X163825000Y-49012500D02*
X163825000Y-49012500D01*
X163325000Y-49012500D02*
X163825000Y-49012500D01*
X163325000Y-49012500D02*
X163325000Y-49012500D01*
X163325000Y-49612500D02*
X163325000Y-49612500D01*
X163325000Y-48612500D02*
X163325000Y-49612500D01*
X163325000Y-48612500D02*
X163325000Y-48612500D01*
X163325000Y-49612500D02*
X163325000Y-48612500D01*
X163825000Y-49612500D02*
X162925000Y-49612500D01*
X163825000Y-48612500D02*
X163825000Y-49612500D01*
X159825000Y-49012500D02*
X160325000Y-49012500D01*
X159825000Y-49012500D02*
X159825000Y-49012500D01*
X160325000Y-49012500D02*
X159825000Y-49012500D01*
X160325000Y-49012500D02*
X160325000Y-49012500D01*
X160325000Y-49612500D02*
X160325000Y-49612500D01*
X160325000Y-48612500D02*
X160325000Y-49612500D01*
X160325000Y-48612500D02*
X160325000Y-48612500D01*
X160325000Y-49612500D02*
X160325000Y-48612500D01*
X159825000Y-49612500D02*
X160725000Y-49612500D01*
X159825000Y-48612500D02*
X159825000Y-49612500D01*
X160925000Y-46712500D02*
X162725000Y-46712500D01*
X160575000Y-50262500D02*
G75*
G03X160575000Y-50262500I-250000J0D01*
G01*
%TO.C,J5*%
X192735000Y-48828400D02*
X183975000Y-48828400D01*
X183975000Y-48828400D02*
X183975000Y-60068400D01*
X183975000Y-60068400D02*
X192735000Y-60068400D01*
X192735000Y-60068400D02*
X192735000Y-48828400D01*
X183975000Y-50548400D02*
X183505000Y-50548400D01*
X183505000Y-50548400D02*
X183505000Y-50848400D01*
X183505000Y-50848400D02*
X183975000Y-50848400D01*
X183975000Y-50848400D02*
X183975000Y-50548400D01*
X183975000Y-53048400D02*
X183505000Y-53048400D01*
X183505000Y-53048400D02*
X183505000Y-53348400D01*
X183505000Y-53348400D02*
X183975000Y-53348400D01*
X183975000Y-53348400D02*
X183975000Y-53048400D01*
X183975000Y-55548400D02*
X183505000Y-55548400D01*
X183505000Y-55548400D02*
X183505000Y-55848400D01*
X183505000Y-55848400D02*
X183975000Y-55848400D01*
X183975000Y-55848400D02*
X183975000Y-55548400D01*
X183975000Y-58048400D02*
X183505000Y-58048400D01*
X183505000Y-58048400D02*
X183505000Y-58348400D01*
X183505000Y-58348400D02*
X183975000Y-58348400D01*
X183975000Y-58348400D02*
X183975000Y-58048400D01*
X179705000Y-49298400D02*
X179405000Y-48698400D01*
X179405000Y-48698400D02*
X180005000Y-48698400D01*
X180005000Y-48698400D02*
X179705000Y-49298400D01*
%TO.C,J3*%
X180005000Y-62795400D02*
X179705000Y-63395400D01*
X179405000Y-62795400D02*
X180005000Y-62795400D01*
X179705000Y-63395400D02*
X179405000Y-62795400D01*
X183975000Y-72445400D02*
X183975000Y-72145400D01*
X183505000Y-72445400D02*
X183975000Y-72445400D01*
X183505000Y-72145400D02*
X183505000Y-72445400D01*
X183975000Y-72145400D02*
X183505000Y-72145400D01*
X183975000Y-69945400D02*
X183975000Y-69645400D01*
X183505000Y-69945400D02*
X183975000Y-69945400D01*
X183505000Y-69645400D02*
X183505000Y-69945400D01*
X183975000Y-69645400D02*
X183505000Y-69645400D01*
X183975000Y-67445400D02*
X183975000Y-67145400D01*
X183505000Y-67445400D02*
X183975000Y-67445400D01*
X183505000Y-67145400D02*
X183505000Y-67445400D01*
X183975000Y-67145400D02*
X183505000Y-67145400D01*
X183975000Y-64945400D02*
X183975000Y-64645400D01*
X183505000Y-64945400D02*
X183975000Y-64945400D01*
X183505000Y-64645400D02*
X183505000Y-64945400D01*
X183975000Y-64645400D02*
X183505000Y-64645400D01*
X192735000Y-74165400D02*
X192735000Y-62925400D01*
X183975000Y-74165400D02*
X192735000Y-74165400D01*
X183975000Y-62925400D02*
X183975000Y-74165400D01*
X192735000Y-62925400D02*
X183975000Y-62925400D01*
%TO.C,J1*%
X113090000Y-48874400D02*
X113090000Y-49474400D01*
X112490000Y-49174400D02*
X113090000Y-48874400D01*
X113090000Y-49474400D02*
X112490000Y-49174400D01*
X105690000Y-46554400D02*
X105690000Y-77194400D01*
X111770000Y-70544400D02*
X111770000Y-73524400D01*
X111770000Y-65464400D02*
X111770000Y-68444400D01*
X111770000Y-60384400D02*
X111770000Y-63364400D01*
X111770000Y-55304400D02*
X111770000Y-58284400D01*
X111770000Y-50224400D02*
X111770000Y-53204400D01*
X111770000Y-77194400D02*
X111770000Y-75624400D01*
X111770000Y-46554400D02*
X111770000Y-48124400D01*
X102410000Y-77194400D02*
X111770000Y-77194400D01*
X102410000Y-46554400D02*
X102410000Y-77194400D01*
X111770000Y-46554400D02*
X102410000Y-46554400D01*
%TO.C,U1*%
X154125000Y-51535000D02*
X156575000Y-51535000D01*
X155925000Y-48315000D02*
X154125000Y-48315000D01*
%TO.C,U2*%
X149225000Y-47545000D02*
X150425000Y-47545000D01*
X150425000Y-47545000D02*
X150425000Y-50245000D01*
X145625000Y-51545000D02*
X145625000Y-47545000D01*
X145625000Y-47545000D02*
X146825000Y-47545000D01*
%TO.C,U3*%
X143800000Y-51880000D02*
X142600000Y-51880000D01*
X143800000Y-47880000D02*
X143800000Y-51880000D01*
X139000000Y-51880000D02*
X139000000Y-49180000D01*
X140200000Y-51880000D02*
X139000000Y-51880000D01*
%TO.C,L1*%
X122948000Y-48437400D02*
X120948000Y-48437400D01*
X120948000Y-46297400D02*
X122948000Y-46297400D01*
%TO.C,R32*%
X151345000Y-51025000D02*
X151345000Y-50025000D01*
X152705000Y-50025000D02*
X152705000Y-51025000D01*
%TO.C,R33*%
X155500000Y-51995000D02*
X156500000Y-51995000D01*
X156500000Y-53355000D02*
X155500000Y-53355000D01*
%TO.C,C4*%
X151425000Y-47775000D02*
X151425000Y-47075000D01*
X152625000Y-47075000D02*
X152625000Y-47775000D01*
%TO.C,C5*%
X140000000Y-47200000D02*
X139300000Y-47200000D01*
X139300000Y-46000000D02*
X140000000Y-46000000D01*
%TO.C,C6*%
X149425000Y-52075000D02*
X150125000Y-52075000D01*
X150125000Y-53275000D02*
X149425000Y-53275000D01*
%TO.C,C7*%
X145925000Y-52075000D02*
X146625000Y-52075000D01*
X146625000Y-53275000D02*
X145925000Y-53275000D01*
%TO.C,C8*%
X143500000Y-47200000D02*
X142800000Y-47200000D01*
X142800000Y-46000000D02*
X143500000Y-46000000D01*
%TO.C,C9*%
X158575000Y-49025000D02*
X158575000Y-49725000D01*
X157375000Y-49725000D02*
X157375000Y-49025000D01*
%TO.C,D1*%
X153125000Y-46075000D02*
X155675000Y-46075000D01*
X153125000Y-47775000D02*
X155675000Y-47775000D01*
X153125000Y-46075000D02*
X153125000Y-47775000D01*
%TO.C,D2*%
X154300000Y-53175000D02*
X152200000Y-53175000D01*
X154300000Y-52175000D02*
X152200000Y-52175000D01*
X154300000Y-53175000D02*
X154300000Y-52175000D01*
D12*
%TO.C,RV1*%
X115994000Y-51973000D02*
X123106000Y-51973000D01*
X123106000Y-58069000D02*
X115994000Y-58069000D01*
X116502000Y-56672000D02*
X117137000Y-56037000D01*
X115994000Y-56672000D02*
X116502000Y-56672000D01*
X117137000Y-54005000D02*
X117137000Y-56037000D01*
X116502000Y-53370000D02*
X117137000Y-54005000D01*
X115994000Y-53370000D02*
X116502000Y-53370000D01*
X123106000Y-58069000D02*
X123106000Y-56799000D01*
X123106000Y-51973000D02*
X123106000Y-53243000D01*
X115994000Y-51973000D02*
X115994000Y-53370000D01*
X115994000Y-56672000D02*
X115994000Y-58069000D01*
X116629000Y-56545000D02*
X116629000Y-53497000D01*
%TO.C,RV2*%
X116629000Y-63022000D02*
X116629000Y-59974000D01*
X115994000Y-63149000D02*
X115994000Y-64546000D01*
X115994000Y-58450000D02*
X115994000Y-59847000D01*
X123106000Y-58450000D02*
X123106000Y-59720000D01*
X123106000Y-64546000D02*
X123106000Y-63276000D01*
X115994000Y-59847000D02*
X116502000Y-59847000D01*
X116502000Y-59847000D02*
X117137000Y-60482000D01*
X117137000Y-60482000D02*
X117137000Y-62514000D01*
X115994000Y-63149000D02*
X116502000Y-63149000D01*
X116502000Y-63149000D02*
X117137000Y-62514000D01*
X123106000Y-64546000D02*
X115994000Y-64546000D01*
X115994000Y-58450000D02*
X123106000Y-58450000D01*
%TO.C,RV3*%
X115994000Y-64852000D02*
X123106000Y-64852000D01*
X123106000Y-70948000D02*
X115994000Y-70948000D01*
X116502000Y-69551000D02*
X117137000Y-68916000D01*
X115994000Y-69551000D02*
X116502000Y-69551000D01*
X117137000Y-66884000D02*
X117137000Y-68916000D01*
X116502000Y-66249000D02*
X117137000Y-66884000D01*
X115994000Y-66249000D02*
X116502000Y-66249000D01*
X123106000Y-70948000D02*
X123106000Y-69678000D01*
X123106000Y-64852000D02*
X123106000Y-66122000D01*
X115994000Y-64852000D02*
X115994000Y-66249000D01*
X115994000Y-69551000D02*
X115994000Y-70948000D01*
X116629000Y-69424000D02*
X116629000Y-66376000D01*
%TO.C,F1*%
D11*
X119783333Y-76774285D02*
X119616666Y-76774285D01*
X119616666Y-77036190D02*
X119616666Y-76536190D01*
X119854761Y-76536190D01*
X120307142Y-77036190D02*
X120021428Y-77036190D01*
X120164285Y-77036190D02*
X120164285Y-76536190D01*
X120116666Y-76607619D01*
X120069047Y-76655238D01*
X120021428Y-76679047D01*
%TO.C,U5*%
X138485047Y-50433190D02*
X138485047Y-50837952D01*
X138508857Y-50885571D01*
X138532666Y-50909380D01*
X138580285Y-50933190D01*
X138675523Y-50933190D01*
X138723142Y-50909380D01*
X138746952Y-50885571D01*
X138770761Y-50837952D01*
X138770761Y-50433190D01*
X139246952Y-50433190D02*
X139008857Y-50433190D01*
X138985047Y-50671285D01*
X139008857Y-50647476D01*
X139056476Y-50623666D01*
X139175523Y-50623666D01*
X139223142Y-50647476D01*
X139246952Y-50671285D01*
X139270761Y-50718904D01*
X139270761Y-50837952D01*
X139246952Y-50885571D01*
X139223142Y-50909380D01*
X139175523Y-50933190D01*
X139056476Y-50933190D01*
X139008857Y-50909380D01*
X138985047Y-50885571D01*
D12*
X134762380Y-50024285D02*
X134762380Y-49833809D01*
X134810000Y-49738571D01*
X134905238Y-49643333D01*
X135095714Y-49595714D01*
X135429047Y-49595714D01*
X135619523Y-49643333D01*
X135714761Y-49738571D01*
X135762380Y-49833809D01*
X135762380Y-50024285D01*
X135714761Y-50119523D01*
X135619523Y-50214761D01*
X135429047Y-50262380D01*
X135095714Y-50262380D01*
X134905238Y-50214761D01*
X134810000Y-50119523D01*
X134762380Y-50024285D01*
X135381428Y-49167142D02*
X135381428Y-48405238D01*
X135762380Y-48786190D02*
X135000476Y-48786190D01*
X132222380Y-50024285D02*
X132222380Y-49833809D01*
X132270000Y-49738571D01*
X132365238Y-49643333D01*
X132555714Y-49595714D01*
X132889047Y-49595714D01*
X133079523Y-49643333D01*
X133174761Y-49738571D01*
X133222380Y-49833809D01*
X133222380Y-50024285D01*
X133174761Y-50119523D01*
X133079523Y-50214761D01*
X132889047Y-50262380D01*
X132555714Y-50262380D01*
X132365238Y-50214761D01*
X132270000Y-50119523D01*
X132222380Y-50024285D01*
X132841428Y-49167142D02*
X132841428Y-48405238D01*
X130682380Y-49929047D02*
X129682380Y-49929047D01*
X130301428Y-49452857D02*
X130301428Y-48690952D01*
X130682380Y-49071904D02*
X129920476Y-49071904D01*
X128142380Y-49929047D02*
X127142380Y-49929047D01*
X127761428Y-49452857D02*
X127761428Y-48690952D01*
%TO.C,U4*%
D11*
X129545047Y-57545190D02*
X129545047Y-57949952D01*
X129568857Y-57997571D01*
X129592666Y-58021380D01*
X129640285Y-58045190D01*
X129735523Y-58045190D01*
X129783142Y-58021380D01*
X129806952Y-57997571D01*
X129830761Y-57949952D01*
X129830761Y-57545190D01*
X130283142Y-57711857D02*
X130283142Y-58045190D01*
X130164095Y-57521380D02*
X130045047Y-57878523D01*
X130354571Y-57878523D01*
D12*
X138642948Y-65672308D02*
X138642948Y-64148308D01*
X138642948Y-64874022D02*
X139513805Y-64874022D01*
X139513805Y-65672308D02*
X139513805Y-64148308D01*
X140239520Y-65672308D02*
X140239520Y-64656308D01*
X140239520Y-64148308D02*
X140166948Y-64220880D01*
X140239520Y-64293451D01*
X140312091Y-64220880D01*
X140239520Y-64148308D01*
X140239520Y-64293451D01*
X140965234Y-65091737D02*
X142126377Y-65091737D01*
X143577805Y-65672308D02*
X142852091Y-65672308D01*
X142852091Y-64148308D01*
X144085805Y-65672308D02*
X144085805Y-64656308D01*
X144085805Y-64148308D02*
X144013234Y-64220880D01*
X144085805Y-64293451D01*
X144158377Y-64220880D01*
X144085805Y-64148308D01*
X144085805Y-64293451D01*
X144811520Y-64656308D02*
X144811520Y-65672308D01*
X144811520Y-64801451D02*
X144884091Y-64728880D01*
X145029234Y-64656308D01*
X145246948Y-64656308D01*
X145392091Y-64728880D01*
X145464662Y-64874022D01*
X145464662Y-65672308D01*
X146190377Y-65672308D02*
X146190377Y-64148308D01*
X146335520Y-65091737D02*
X146770948Y-65672308D01*
X146770948Y-64656308D02*
X146190377Y-65236880D01*
X147061234Y-65817451D02*
X148222377Y-65817451D01*
X148512662Y-65599737D02*
X148730377Y-65672308D01*
X149093234Y-65672308D01*
X149238377Y-65599737D01*
X149310948Y-65527165D01*
X149383520Y-65382022D01*
X149383520Y-65236880D01*
X149310948Y-65091737D01*
X149238377Y-65019165D01*
X149093234Y-64946594D01*
X148802948Y-64874022D01*
X148657805Y-64801451D01*
X148585234Y-64728880D01*
X148512662Y-64583737D01*
X148512662Y-64438594D01*
X148585234Y-64293451D01*
X148657805Y-64220880D01*
X148802948Y-64148308D01*
X149165805Y-64148308D01*
X149383520Y-64220880D01*
X150036662Y-65672308D02*
X150036662Y-64148308D01*
X150544662Y-65236880D01*
X151052662Y-64148308D01*
X151052662Y-65672308D01*
X151778377Y-65672308D02*
X151778377Y-64148308D01*
X152358948Y-64148308D01*
X152504091Y-64220880D01*
X152576662Y-64293451D01*
X152649234Y-64438594D01*
X152649234Y-64656308D01*
X152576662Y-64801451D01*
X152504091Y-64874022D01*
X152358948Y-64946594D01*
X151778377Y-64946594D01*
X153229805Y-65599737D02*
X153447520Y-65672308D01*
X153810377Y-65672308D01*
X153955520Y-65599737D01*
X154028091Y-65527165D01*
X154100662Y-65382022D01*
X154100662Y-65236880D01*
X154028091Y-65091737D01*
X153955520Y-65019165D01*
X153810377Y-64946594D01*
X153520091Y-64874022D01*
X153374948Y-64801451D01*
X153302377Y-64728880D01*
X153229805Y-64583737D01*
X153229805Y-64438594D01*
X153302377Y-64293451D01*
X153374948Y-64220880D01*
X153520091Y-64148308D01*
X153882948Y-64148308D01*
X154100662Y-64220880D01*
%TO.C,J2*%
D11*
X159978333Y-51611190D02*
X159978333Y-51968333D01*
X159954523Y-52039761D01*
X159906904Y-52087380D01*
X159835476Y-52111190D01*
X159787857Y-52111190D01*
X160192619Y-51658809D02*
X160216428Y-51635000D01*
X160264047Y-51611190D01*
X160383095Y-51611190D01*
X160430714Y-51635000D01*
X160454523Y-51658809D01*
X160478333Y-51706428D01*
X160478333Y-51754047D01*
X160454523Y-51825476D01*
X160168809Y-52111190D01*
X160478333Y-52111190D01*
%TO.C,J5*%
X191783333Y-47776190D02*
X191783333Y-48133333D01*
X191759523Y-48204761D01*
X191711904Y-48252380D01*
X191640476Y-48276190D01*
X191592857Y-48276190D01*
X192259523Y-47776190D02*
X192021428Y-47776190D01*
X191997619Y-48014285D01*
X192021428Y-47990476D01*
X192069047Y-47966666D01*
X192188095Y-47966666D01*
X192235714Y-47990476D01*
X192259523Y-48014285D01*
X192283333Y-48061904D01*
X192283333Y-48180952D01*
X192259523Y-48228571D01*
X192235714Y-48252380D01*
X192188095Y-48276190D01*
X192069047Y-48276190D01*
X192021428Y-48252380D01*
X191997619Y-48228571D01*
%TO.C,J3*%
X192033333Y-74526190D02*
X192033333Y-74883333D01*
X192009523Y-74954761D01*
X191961904Y-75002380D01*
X191890476Y-75026190D01*
X191842857Y-75026190D01*
X192223809Y-74526190D02*
X192533333Y-74526190D01*
X192366666Y-74716666D01*
X192438095Y-74716666D01*
X192485714Y-74740476D01*
X192509523Y-74764285D01*
X192533333Y-74811904D01*
X192533333Y-74930952D01*
X192509523Y-74978571D01*
X192485714Y-75002380D01*
X192438095Y-75026190D01*
X192295238Y-75026190D01*
X192247619Y-75002380D01*
X192223809Y-74978571D01*
%TO.C,J1*%
X113016190Y-62041066D02*
X113373333Y-62041066D01*
X113444761Y-62064876D01*
X113492380Y-62112495D01*
X113516190Y-62183923D01*
X113516190Y-62231542D01*
X113516190Y-61541066D02*
X113516190Y-61826780D01*
X113516190Y-61683923D02*
X113016190Y-61683923D01*
X113087619Y-61731542D01*
X113135238Y-61779161D01*
X113159047Y-61826780D01*
%TO.C,U1*%
X157051190Y-51805952D02*
X157455952Y-51805952D01*
X157503571Y-51782142D01*
X157527380Y-51758333D01*
X157551190Y-51710714D01*
X157551190Y-51615476D01*
X157527380Y-51567857D01*
X157503571Y-51544047D01*
X157455952Y-51520238D01*
X157051190Y-51520238D01*
X157551190Y-51020238D02*
X157551190Y-51305952D01*
X157551190Y-51163095D02*
X157051190Y-51163095D01*
X157122619Y-51210714D01*
X157170238Y-51258333D01*
X157194047Y-51305952D01*
%TO.C,U2*%
X145664047Y-46311190D02*
X145664047Y-46715952D01*
X145687857Y-46763571D01*
X145711666Y-46787380D01*
X145759285Y-46811190D01*
X145854523Y-46811190D01*
X145902142Y-46787380D01*
X145925952Y-46763571D01*
X145949761Y-46715952D01*
X145949761Y-46311190D01*
X146164047Y-46358809D02*
X146187857Y-46335000D01*
X146235476Y-46311190D01*
X146354523Y-46311190D01*
X146402142Y-46335000D01*
X146425952Y-46358809D01*
X146449761Y-46406428D01*
X146449761Y-46454047D01*
X146425952Y-46525476D01*
X146140238Y-46811190D01*
X146449761Y-46811190D01*
%TO.C,U3*%
X143029047Y-52596190D02*
X143029047Y-53000952D01*
X143052857Y-53048571D01*
X143076666Y-53072380D01*
X143124285Y-53096190D01*
X143219523Y-53096190D01*
X143267142Y-53072380D01*
X143290952Y-53048571D01*
X143314761Y-53000952D01*
X143314761Y-52596190D01*
X143505238Y-52596190D02*
X143814761Y-52596190D01*
X143648095Y-52786666D01*
X143719523Y-52786666D01*
X143767142Y-52810476D01*
X143790952Y-52834285D01*
X143814761Y-52881904D01*
X143814761Y-53000952D01*
X143790952Y-53048571D01*
X143767142Y-53072380D01*
X143719523Y-53096190D01*
X143576666Y-53096190D01*
X143529047Y-53072380D01*
X143505238Y-53048571D01*
%TO.C,L1*%
X118254666Y-47163590D02*
X118016571Y-47163590D01*
X118016571Y-46663590D01*
X118683238Y-47163590D02*
X118397523Y-47163590D01*
X118540380Y-47163590D02*
X118540380Y-46663590D01*
X118492761Y-46735019D01*
X118445142Y-46782638D01*
X118397523Y-46806447D01*
%TO.C,R32*%
X151126190Y-49921428D02*
X150888095Y-50088095D01*
X151126190Y-50207142D02*
X150626190Y-50207142D01*
X150626190Y-50016666D01*
X150650000Y-49969047D01*
X150673809Y-49945238D01*
X150721428Y-49921428D01*
X150792857Y-49921428D01*
X150840476Y-49945238D01*
X150864285Y-49969047D01*
X150888095Y-50016666D01*
X150888095Y-50207142D01*
X150626190Y-49754761D02*
X150626190Y-49445238D01*
X150816666Y-49611904D01*
X150816666Y-49540476D01*
X150840476Y-49492857D01*
X150864285Y-49469047D01*
X150911904Y-49445238D01*
X151030952Y-49445238D01*
X151078571Y-49469047D01*
X151102380Y-49492857D01*
X151126190Y-49540476D01*
X151126190Y-49683333D01*
X151102380Y-49730952D01*
X151078571Y-49754761D01*
X150673809Y-49254761D02*
X150650000Y-49230952D01*
X150626190Y-49183333D01*
X150626190Y-49064285D01*
X150650000Y-49016666D01*
X150673809Y-48992857D01*
X150721428Y-48969047D01*
X150769047Y-48969047D01*
X150840476Y-48992857D01*
X151126190Y-49278571D01*
X151126190Y-48969047D01*
%TO.C,R33*%
X155053571Y-54026190D02*
X154886904Y-53788095D01*
X154767857Y-54026190D02*
X154767857Y-53526190D01*
X154958333Y-53526190D01*
X155005952Y-53550000D01*
X155029761Y-53573809D01*
X155053571Y-53621428D01*
X155053571Y-53692857D01*
X155029761Y-53740476D01*
X155005952Y-53764285D01*
X154958333Y-53788095D01*
X154767857Y-53788095D01*
X155220238Y-53526190D02*
X155529761Y-53526190D01*
X155363095Y-53716666D01*
X155434523Y-53716666D01*
X155482142Y-53740476D01*
X155505952Y-53764285D01*
X155529761Y-53811904D01*
X155529761Y-53930952D01*
X155505952Y-53978571D01*
X155482142Y-54002380D01*
X155434523Y-54026190D01*
X155291666Y-54026190D01*
X155244047Y-54002380D01*
X155220238Y-53978571D01*
X155696428Y-53526190D02*
X156005952Y-53526190D01*
X155839285Y-53716666D01*
X155910714Y-53716666D01*
X155958333Y-53740476D01*
X155982142Y-53764285D01*
X156005952Y-53811904D01*
X156005952Y-53930952D01*
X155982142Y-53978571D01*
X155958333Y-54002380D01*
X155910714Y-54026190D01*
X155767857Y-54026190D01*
X155720238Y-54002380D01*
X155696428Y-53978571D01*
%TO.C,C4*%
X151103571Y-47308333D02*
X151127380Y-47332142D01*
X151151190Y-47403571D01*
X151151190Y-47451190D01*
X151127380Y-47522619D01*
X151079761Y-47570238D01*
X151032142Y-47594047D01*
X150936904Y-47617857D01*
X150865476Y-47617857D01*
X150770238Y-47594047D01*
X150722619Y-47570238D01*
X150675000Y-47522619D01*
X150651190Y-47451190D01*
X150651190Y-47403571D01*
X150675000Y-47332142D01*
X150698809Y-47308333D01*
X150817857Y-46879761D02*
X151151190Y-46879761D01*
X150627380Y-46998809D02*
X150984523Y-47117857D01*
X150984523Y-46808333D01*
%TO.C,C5*%
X138166666Y-48028571D02*
X138142857Y-48052380D01*
X138071428Y-48076190D01*
X138023809Y-48076190D01*
X137952380Y-48052380D01*
X137904761Y-48004761D01*
X137880952Y-47957142D01*
X137857142Y-47861904D01*
X137857142Y-47790476D01*
X137880952Y-47695238D01*
X137904761Y-47647619D01*
X137952380Y-47600000D01*
X138023809Y-47576190D01*
X138071428Y-47576190D01*
X138142857Y-47600000D01*
X138166666Y-47623809D01*
X138619047Y-47576190D02*
X138380952Y-47576190D01*
X138357142Y-47814285D01*
X138380952Y-47790476D01*
X138428571Y-47766666D01*
X138547619Y-47766666D01*
X138595238Y-47790476D01*
X138619047Y-47814285D01*
X138642857Y-47861904D01*
X138642857Y-47980952D01*
X138619047Y-48028571D01*
X138595238Y-48052380D01*
X138547619Y-48076190D01*
X138428571Y-48076190D01*
X138380952Y-48052380D01*
X138357142Y-48028571D01*
%TO.C,C6*%
X149679666Y-54123571D02*
X149655857Y-54147380D01*
X149584428Y-54171190D01*
X149536809Y-54171190D01*
X149465380Y-54147380D01*
X149417761Y-54099761D01*
X149393952Y-54052142D01*
X149370142Y-53956904D01*
X149370142Y-53885476D01*
X149393952Y-53790238D01*
X149417761Y-53742619D01*
X149465380Y-53695000D01*
X149536809Y-53671190D01*
X149584428Y-53671190D01*
X149655857Y-53695000D01*
X149679666Y-53718809D01*
X150108238Y-53671190D02*
X150013000Y-53671190D01*
X149965380Y-53695000D01*
X149941571Y-53718809D01*
X149893952Y-53790238D01*
X149870142Y-53885476D01*
X149870142Y-54075952D01*
X149893952Y-54123571D01*
X149917761Y-54147380D01*
X149965380Y-54171190D01*
X150060619Y-54171190D01*
X150108238Y-54147380D01*
X150132047Y-54123571D01*
X150155857Y-54075952D01*
X150155857Y-53956904D01*
X150132047Y-53909285D01*
X150108238Y-53885476D01*
X150060619Y-53861666D01*
X149965380Y-53861666D01*
X149917761Y-53885476D01*
X149893952Y-53909285D01*
X149870142Y-53956904D01*
%TO.C,C7*%
X146445666Y-54123571D02*
X146421857Y-54147380D01*
X146350428Y-54171190D01*
X146302809Y-54171190D01*
X146231380Y-54147380D01*
X146183761Y-54099761D01*
X146159952Y-54052142D01*
X146136142Y-53956904D01*
X146136142Y-53885476D01*
X146159952Y-53790238D01*
X146183761Y-53742619D01*
X146231380Y-53695000D01*
X146302809Y-53671190D01*
X146350428Y-53671190D01*
X146421857Y-53695000D01*
X146445666Y-53718809D01*
X146612333Y-53671190D02*
X146945666Y-53671190D01*
X146731380Y-54171190D01*
%TO.C,C8*%
X144516666Y-47978571D02*
X144492857Y-48002380D01*
X144421428Y-48026190D01*
X144373809Y-48026190D01*
X144302380Y-48002380D01*
X144254761Y-47954761D01*
X144230952Y-47907142D01*
X144207142Y-47811904D01*
X144207142Y-47740476D01*
X144230952Y-47645238D01*
X144254761Y-47597619D01*
X144302380Y-47550000D01*
X144373809Y-47526190D01*
X144421428Y-47526190D01*
X144492857Y-47550000D01*
X144516666Y-47573809D01*
X144802380Y-47740476D02*
X144754761Y-47716666D01*
X144730952Y-47692857D01*
X144707142Y-47645238D01*
X144707142Y-47621428D01*
X144730952Y-47573809D01*
X144754761Y-47550000D01*
X144802380Y-47526190D01*
X144897619Y-47526190D01*
X144945238Y-47550000D01*
X144969047Y-47573809D01*
X144992857Y-47621428D01*
X144992857Y-47645238D01*
X144969047Y-47692857D01*
X144945238Y-47716666D01*
X144897619Y-47740476D01*
X144802380Y-47740476D01*
X144754761Y-47764285D01*
X144730952Y-47788095D01*
X144707142Y-47835714D01*
X144707142Y-47930952D01*
X144730952Y-47978571D01*
X144754761Y-48002380D01*
X144802380Y-48026190D01*
X144897619Y-48026190D01*
X144945238Y-48002380D01*
X144969047Y-47978571D01*
X144992857Y-47930952D01*
X144992857Y-47835714D01*
X144969047Y-47788095D01*
X144945238Y-47764285D01*
X144897619Y-47740476D01*
%TO.C,C9*%
X157921666Y-47683571D02*
X157897857Y-47707380D01*
X157826428Y-47731190D01*
X157778809Y-47731190D01*
X157707380Y-47707380D01*
X157659761Y-47659761D01*
X157635952Y-47612142D01*
X157612142Y-47516904D01*
X157612142Y-47445476D01*
X157635952Y-47350238D01*
X157659761Y-47302619D01*
X157707380Y-47255000D01*
X157778809Y-47231190D01*
X157826428Y-47231190D01*
X157897857Y-47255000D01*
X157921666Y-47278809D01*
X158159761Y-47731190D02*
X158255000Y-47731190D01*
X158302619Y-47707380D01*
X158326428Y-47683571D01*
X158374047Y-47612142D01*
X158397857Y-47516904D01*
X158397857Y-47326428D01*
X158374047Y-47278809D01*
X158350238Y-47255000D01*
X158302619Y-47231190D01*
X158207380Y-47231190D01*
X158159761Y-47255000D01*
X158135952Y-47278809D01*
X158112142Y-47326428D01*
X158112142Y-47445476D01*
X158135952Y-47493095D01*
X158159761Y-47516904D01*
X158207380Y-47540714D01*
X158302619Y-47540714D01*
X158350238Y-47516904D01*
X158374047Y-47493095D01*
X158397857Y-47445476D01*
%TO.C,D1*%
X156851190Y-47344047D02*
X156351190Y-47344047D01*
X156351190Y-47225000D01*
X156375000Y-47153571D01*
X156422619Y-47105952D01*
X156470238Y-47082142D01*
X156565476Y-47058333D01*
X156636904Y-47058333D01*
X156732142Y-47082142D01*
X156779761Y-47105952D01*
X156827380Y-47153571D01*
X156851190Y-47225000D01*
X156851190Y-47344047D01*
X156851190Y-46582142D02*
X156851190Y-46867857D01*
X156851190Y-46725000D02*
X156351190Y-46725000D01*
X156422619Y-46772619D01*
X156470238Y-46820238D01*
X156494047Y-46867857D01*
%TO.C,D2*%
X151805952Y-54001190D02*
X151805952Y-53501190D01*
X151925000Y-53501190D01*
X151996428Y-53525000D01*
X152044047Y-53572619D01*
X152067857Y-53620238D01*
X152091666Y-53715476D01*
X152091666Y-53786904D01*
X152067857Y-53882142D01*
X152044047Y-53929761D01*
X151996428Y-53977380D01*
X151925000Y-54001190D01*
X151805952Y-54001190D01*
X152282142Y-53548809D02*
X152305952Y-53525000D01*
X152353571Y-53501190D01*
X152472619Y-53501190D01*
X152520238Y-53525000D01*
X152544047Y-53548809D01*
X152567857Y-53596428D01*
X152567857Y-53644047D01*
X152544047Y-53715476D01*
X152258333Y-54001190D01*
X152567857Y-54001190D01*
%TO.C,RV1*%
X121041110Y-55318619D02*
X120803015Y-55485285D01*
X121041110Y-55604333D02*
X120541110Y-55604333D01*
X120541110Y-55413857D01*
X120564920Y-55366238D01*
X120588729Y-55342428D01*
X120636348Y-55318619D01*
X120707777Y-55318619D01*
X120755396Y-55342428D01*
X120779205Y-55366238D01*
X120803015Y-55413857D01*
X120803015Y-55604333D01*
X120541110Y-55175761D02*
X121041110Y-55009095D01*
X120541110Y-54842428D01*
X121041110Y-54413857D02*
X121041110Y-54699571D01*
X121041110Y-54556714D02*
X120541110Y-54556714D01*
X120612539Y-54604333D01*
X120660158Y-54651952D01*
X120683967Y-54699571D01*
%TO.C,RV2*%
X121041110Y-61795619D02*
X120803015Y-61962285D01*
X121041110Y-62081333D02*
X120541110Y-62081333D01*
X120541110Y-61890857D01*
X120564920Y-61843238D01*
X120588729Y-61819428D01*
X120636348Y-61795619D01*
X120707777Y-61795619D01*
X120755396Y-61819428D01*
X120779205Y-61843238D01*
X120803015Y-61890857D01*
X120803015Y-62081333D01*
X120541110Y-61652761D02*
X121041110Y-61486095D01*
X120541110Y-61319428D01*
X120588729Y-61176571D02*
X120564920Y-61152761D01*
X120541110Y-61105142D01*
X120541110Y-60986095D01*
X120564920Y-60938476D01*
X120588729Y-60914666D01*
X120636348Y-60890857D01*
X120683967Y-60890857D01*
X120755396Y-60914666D01*
X121041110Y-61200380D01*
X121041110Y-60890857D01*
%TO.C,RV3*%
X121041110Y-68197619D02*
X120803015Y-68364285D01*
X121041110Y-68483333D02*
X120541110Y-68483333D01*
X120541110Y-68292857D01*
X120564920Y-68245238D01*
X120588729Y-68221428D01*
X120636348Y-68197619D01*
X120707777Y-68197619D01*
X120755396Y-68221428D01*
X120779205Y-68245238D01*
X120803015Y-68292857D01*
X120803015Y-68483333D01*
X120541110Y-68054761D02*
X121041110Y-67888095D01*
X120541110Y-67721428D01*
X120541110Y-67602380D02*
X120541110Y-67292857D01*
X120731586Y-67459523D01*
X120731586Y-67388095D01*
X120755396Y-67340476D01*
X120779205Y-67316666D01*
X120826824Y-67292857D01*
X120945872Y-67292857D01*
X120993491Y-67316666D01*
X121017300Y-67340476D01*
X121041110Y-67388095D01*
X121041110Y-67530952D01*
X121017300Y-67578571D01*
X120993491Y-67602380D01*
%TD*%
M02*
