%TF.GenerationSoftware,KiCad,Pcbnew,(5.1.5)-3*%
%TF.CreationDate,2020-03-19T09:51:26+11:00*%
%TF.ProjectId,din_power_atm90e26,64696e5f-706f-4776-9572-5f61746d3930,rev?*%
%TF.SameCoordinates,Original*%
%TF.FileFunction,Paste,Bot*%
%TF.FilePolarity,Positive*%
%FSLAX46Y46*%
G04 Gerber Fmt 4.6, Leading zero omitted, Abs format (unit mm)*
G04 Created by KiCad (PCBNEW (5.1.5)-3) date 2020-03-19 09:51:26*
%MOMM*%
%LPD*%
G04 APERTURE LIST*
%ADD10R,0.500000X0.900000*%
%ADD11R,0.900000X1.700000*%
%ADD12R,0.800000X0.750000*%
G04 APERTURE END LIST*
D10*
%TO.C,R3*%
X185950000Y-50700000D03*
X184450000Y-50700000D03*
%TD*%
%TO.C,R11*%
X185950000Y-58200000D03*
X184450000Y-58200000D03*
%TD*%
%TO.C,R10*%
X185950000Y-55700000D03*
X184450000Y-55700000D03*
%TD*%
%TO.C,R9*%
X175950000Y-58200000D03*
X177450000Y-58200000D03*
%TD*%
%TO.C,R8*%
X175950000Y-55700000D03*
X177450000Y-55700000D03*
%TD*%
%TO.C,R2*%
X175950000Y-53200000D03*
X177450000Y-53200000D03*
%TD*%
%TO.C,R4*%
X184450000Y-53200000D03*
X185950000Y-53200000D03*
%TD*%
%TO.C,R1*%
X175950000Y-50700000D03*
X177450000Y-50700000D03*
%TD*%
D11*
%TO.C,R15*%
X144750000Y-65100000D03*
X147650000Y-65100000D03*
%TD*%
%TO.C,R24*%
X150550000Y-75550000D03*
X153450000Y-75550000D03*
%TD*%
%TO.C,R23*%
X153450000Y-70450000D03*
X150550000Y-70450000D03*
%TD*%
%TO.C,R22*%
X153450000Y-65100000D03*
X150550000Y-65100000D03*
%TD*%
%TO.C,R17*%
X147650000Y-75550000D03*
X144750000Y-75550000D03*
%TD*%
%TO.C,R16*%
X144750000Y-70450000D03*
X147650000Y-70450000D03*
%TD*%
%TO.C,R13*%
X141850000Y-70450000D03*
X138950000Y-70450000D03*
%TD*%
%TO.C,R14*%
X138950000Y-75550000D03*
X141850000Y-75550000D03*
%TD*%
%TO.C,R7*%
X118950000Y-67950000D03*
X116050000Y-67950000D03*
%TD*%
%TO.C,R5*%
X118950000Y-52700000D03*
X116050000Y-52700000D03*
%TD*%
%TO.C,R12*%
X138950000Y-65100000D03*
X141850000Y-65100000D03*
%TD*%
%TO.C,R6*%
X118950000Y-60300000D03*
X116050000Y-60300000D03*
%TD*%
D12*
%TO.C,C2*%
X163050000Y-73150000D03*
X161550000Y-73150000D03*
%TD*%
%TO.C,C3*%
X162000000Y-65050000D03*
X160500000Y-65050000D03*
%TD*%
%TO.C,C1*%
X162200000Y-68550000D03*
X160700000Y-68550000D03*
%TD*%
D10*
%TO.C,R27*%
X163050000Y-75050000D03*
X161550000Y-75050000D03*
%TD*%
%TO.C,R19*%
X175950000Y-67300000D03*
X177450000Y-67300000D03*
%TD*%
%TO.C,R20*%
X185950000Y-64800000D03*
X184450000Y-64800000D03*
%TD*%
%TO.C,R21*%
X185950000Y-67300000D03*
X184450000Y-67300000D03*
%TD*%
%TO.C,R25*%
X162000000Y-66800000D03*
X160500000Y-66800000D03*
%TD*%
%TO.C,R26*%
X162200000Y-70300000D03*
X160700000Y-70300000D03*
%TD*%
%TO.C,R28*%
X177450000Y-69800000D03*
X175950000Y-69800000D03*
%TD*%
%TO.C,R31*%
X184450000Y-72300000D03*
X185950000Y-72300000D03*
%TD*%
%TO.C,R30*%
X184450000Y-69800000D03*
X185950000Y-69800000D03*
%TD*%
%TO.C,R29*%
X177450000Y-72300000D03*
X175950000Y-72300000D03*
%TD*%
%TO.C,R18*%
X177450000Y-64800000D03*
X175950000Y-64800000D03*
%TD*%
M02*
