G04 #@! TF.GenerationSoftware,KiCad,Pcbnew,(2017-09-19 revision dddaa7e69)-makepkg*
G04 #@! TF.CreationDate,2017-11-22T18:58:21+10:30*
G04 #@! TF.ProjectId,din_power_atm90e26,64696E5F706F7765725F61746D393065,rev?*
G04 #@! TF.SameCoordinates,Original*
G04 #@! TF.FileFunction,Copper,L2,Bot,Signal*
G04 #@! TF.FilePolarity,Positive*
%FSLAX46Y46*%
G04 Gerber Fmt 4.6, Leading zero omitted, Abs format (unit mm)*
G04 Created by KiCad (PCBNEW (2017-09-19 revision dddaa7e69)-makepkg) date 11/22/17 18:58:21*
%MOMM*%
%LPD*%
G01*
G04 APERTURE LIST*
%ADD10R,1.900000X1.900000*%
%ADD11C,1.900000*%
%ADD12O,3.600000X1.800000*%
%ADD13R,3.600000X1.800000*%
%ADD14R,0.900000X1.700000*%
%ADD15R,1.308000X1.308000*%
%ADD16C,1.422400*%
%ADD17C,1.800000*%
%ADD18R,1.800000X1.800000*%
%ADD19R,1.700000X0.900000*%
%ADD20R,0.800000X0.750000*%
%ADD21R,0.750000X0.800000*%
%ADD22R,0.500000X0.900000*%
%ADD23R,0.900000X0.500000*%
%ADD24C,1.600000*%
%ADD25C,0.800000*%
%ADD26C,0.500000*%
%ADD27C,1.000000*%
%ADD28C,0.250000*%
G04 APERTURE END LIST*
D10*
X179705000Y-50698400D03*
D11*
X179705000Y-53198400D03*
X179705000Y-55698400D03*
X179705000Y-58198400D03*
X182205000Y-50698400D03*
X182205000Y-53198400D03*
X182205000Y-55698400D03*
X182205000Y-58198400D03*
X182205000Y-72295400D03*
X182205000Y-69795400D03*
X182205000Y-67295400D03*
X182205000Y-64795400D03*
X179705000Y-72295400D03*
X179705000Y-69795400D03*
X179705000Y-67295400D03*
D10*
X179705000Y-64795400D03*
D12*
X110490000Y-74574400D03*
X110490000Y-69494400D03*
X110490000Y-64414400D03*
X110490000Y-59334400D03*
X110490000Y-54254400D03*
D13*
X110490000Y-49174400D03*
D14*
X138838000Y-57147400D03*
X141738000Y-57147400D03*
X153888000Y-67097400D03*
X156788000Y-67097400D03*
X153388000Y-75777400D03*
X150488000Y-75777400D03*
X147868000Y-57147400D03*
X144968000Y-57147400D03*
X150598000Y-67107400D03*
X147698000Y-67107400D03*
X144078000Y-75777400D03*
X146978000Y-75777400D03*
X140098000Y-75777400D03*
X137198000Y-75777400D03*
X140998000Y-67107400D03*
X143898000Y-67107400D03*
D15*
X159288000Y-72207400D03*
X159288000Y-56807400D03*
X129888000Y-67007400D03*
X129888000Y-62007400D03*
D16*
X169378000Y-62367400D03*
X169378000Y-64367400D03*
X169378000Y-66367400D03*
X169378000Y-68367400D03*
X169378000Y-70367400D03*
X169378000Y-72367400D03*
X171378000Y-71367400D03*
X171378000Y-69367400D03*
X171378000Y-67367400D03*
X171378000Y-65367400D03*
X171378000Y-63367400D03*
X166878000Y-72317400D03*
X166878000Y-70317400D03*
X166878000Y-68317400D03*
X166878000Y-66317400D03*
X166878000Y-64317400D03*
X166878000Y-62317400D03*
X164878000Y-63317400D03*
X164878000Y-65317400D03*
X164878000Y-67317400D03*
X164878000Y-69317400D03*
X164878000Y-71317400D03*
X171378000Y-53367400D03*
X171378000Y-55367400D03*
X171378000Y-57367400D03*
X171378000Y-59367400D03*
X169378000Y-58367400D03*
X169378000Y-56367400D03*
X169378000Y-54367400D03*
X164878000Y-59317400D03*
X164878000Y-57317400D03*
X164878000Y-55317400D03*
X164878000Y-53317400D03*
X166878000Y-54317400D03*
X166878000Y-56317400D03*
X166878000Y-58317400D03*
D17*
X127381000Y-48133000D03*
X129921000Y-48133000D03*
X132461000Y-48133000D03*
D18*
X135001000Y-48133000D03*
D19*
X133731000Y-64823000D03*
X133731000Y-61923000D03*
X115570000Y-53520000D03*
X115570000Y-50620000D03*
D14*
X132738000Y-57147400D03*
X135638000Y-57147400D03*
D19*
X118872000Y-69522000D03*
X118872000Y-66622000D03*
D20*
X161668000Y-69127400D03*
X160168000Y-69127400D03*
D21*
X161788000Y-61077400D03*
X161788000Y-59577400D03*
D20*
X159328000Y-77377400D03*
X157828000Y-77377400D03*
D22*
X161668000Y-67167400D03*
X160168000Y-67167400D03*
D23*
X159448000Y-61077400D03*
X159448000Y-59577400D03*
D22*
X159328000Y-75777400D03*
X157828000Y-75777400D03*
D24*
X119172466Y-74842934D03*
X122708000Y-71307400D03*
D25*
X148971000Y-53340000D03*
X118858000Y-64657400D03*
X152146000Y-53467000D03*
X161648000Y-75687400D03*
X181760000Y-61440000D03*
X174010000Y-61440000D03*
X178350000Y-61450000D03*
X186780000Y-61460000D03*
X159428000Y-61167400D03*
X147750000Y-52120000D03*
X145885422Y-49848488D03*
X143959625Y-50699006D03*
X157518000Y-55677400D03*
X156498000Y-64407400D03*
X156498000Y-69097400D03*
X167538000Y-46557400D03*
X167498000Y-48577400D03*
X159478000Y-51167400D03*
X159548000Y-53367400D03*
X143764000Y-53075968D03*
X141048000Y-50847400D03*
X156518000Y-49907400D03*
X163818000Y-48587400D03*
X160558000Y-47487400D03*
X187220000Y-52210000D03*
X186520000Y-66510000D03*
X186440000Y-68050000D03*
X176890000Y-76090000D03*
X190060000Y-68250000D03*
X176720000Y-77120000D03*
X184350000Y-52310000D03*
X178930000Y-75740000D03*
X184400000Y-68150000D03*
X184400000Y-66480000D03*
X190420000Y-47710000D03*
X185400000Y-66560000D03*
X185400000Y-68060000D03*
X177900000Y-75790000D03*
X183260000Y-61440000D03*
X176240000Y-59770000D03*
X175500000Y-64810000D03*
X175540000Y-67270000D03*
X177950000Y-65950000D03*
X175450000Y-66010000D03*
X191650000Y-67300000D03*
X172940000Y-53420000D03*
X188200000Y-77070000D03*
X191860000Y-77570000D03*
X190850000Y-69060000D03*
X172440000Y-76220000D03*
X172490000Y-74220000D03*
X175530000Y-69750000D03*
X170400000Y-60630000D03*
X159458000Y-59677400D03*
X155328000Y-59177400D03*
X160488000Y-64427400D03*
X160148000Y-69147400D03*
X157768000Y-72847400D03*
X152457522Y-55004045D03*
X153797022Y-53086000D03*
X152388000Y-62237400D03*
X152368000Y-64447400D03*
X142568000Y-50650900D03*
X169408000Y-48317400D03*
X161498000Y-48467400D03*
X155121490Y-52266445D03*
X158158000Y-52257400D03*
D26*
X149098000Y-53467000D02*
X148971000Y-53340000D01*
X152146000Y-53467000D02*
X149098000Y-53467000D01*
D27*
X115508000Y-49847400D02*
X115508000Y-50558000D01*
X115508000Y-50558000D02*
X115570000Y-50620000D01*
X114835000Y-49174400D02*
X110490000Y-49174400D01*
X115508000Y-49847400D02*
X114835000Y-49174400D01*
X119172466Y-74842934D02*
X110758534Y-74842934D01*
X110758534Y-74842934D02*
X110490000Y-74574400D01*
X118858000Y-64657400D02*
X118858000Y-66608000D01*
X118858000Y-66608000D02*
X118872000Y-66622000D01*
X129888000Y-62007400D02*
X133646600Y-62007400D01*
X133646600Y-62007400D02*
X133731000Y-61923000D01*
X129888000Y-62007400D02*
X117088000Y-62007400D01*
X113851000Y-69494400D02*
X110490000Y-69494400D01*
X115308000Y-68037400D02*
X113851000Y-69494400D01*
X115308000Y-63787400D02*
X115308000Y-68037400D01*
X117088000Y-62007400D02*
X115308000Y-63787400D01*
D26*
X161668000Y-75587400D02*
X161668000Y-75667400D01*
X161648000Y-75687400D02*
X161668000Y-75667400D01*
X181760000Y-61440000D02*
X181760000Y-62140000D01*
X178340000Y-61440000D02*
X178350000Y-61450000D01*
X178340000Y-61440000D02*
X174010000Y-61440000D01*
X181750000Y-61450000D02*
X178350000Y-61450000D01*
X181750000Y-61450000D02*
X181760000Y-61440000D01*
X186780000Y-62190000D02*
X186780000Y-61460000D01*
X186230000Y-62740000D02*
X186780000Y-62190000D01*
X182360000Y-62740000D02*
X186230000Y-62740000D01*
X181760000Y-62140000D02*
X182360000Y-62740000D01*
X186760000Y-61440000D02*
X186780000Y-61460000D01*
X159448000Y-61147400D02*
X159428000Y-61167400D01*
X159448000Y-61147400D02*
X159448000Y-61077400D01*
X159328000Y-77377400D02*
X159328000Y-75777400D01*
X161668000Y-69127400D02*
X161668000Y-75587400D01*
X161478000Y-75777400D02*
X159328000Y-75777400D01*
X161668000Y-75587400D02*
X161478000Y-75777400D01*
X161668000Y-69127400D02*
X161668000Y-67167400D01*
X161668000Y-67167400D02*
X161668000Y-66017400D01*
X162538000Y-65147400D02*
X162538000Y-65317400D01*
X161668000Y-66017400D02*
X162538000Y-65147400D01*
X164878000Y-65317400D02*
X162538000Y-65317400D01*
X162538000Y-65317400D02*
X162708000Y-65317400D01*
X161788000Y-64397400D02*
X161788000Y-61077400D01*
X162708000Y-65317400D02*
X161788000Y-64397400D01*
X161788000Y-61077400D02*
X159448000Y-61077400D01*
X149576509Y-46157401D02*
X145885422Y-49848488D01*
X167538000Y-46557400D02*
X167138001Y-46157401D01*
X167138001Y-46157401D02*
X149576509Y-46157401D01*
X159288000Y-72207400D02*
X159288000Y-71307400D01*
X156468000Y-56727400D02*
X157518000Y-55677400D01*
X156468000Y-64377400D02*
X156468000Y-56727400D01*
X156498000Y-64407400D02*
X156468000Y-64377400D01*
X157828000Y-70427400D02*
X156498000Y-69097400D01*
X158408000Y-70427400D02*
X157828000Y-70427400D01*
X159288000Y-71307400D02*
X158408000Y-70427400D01*
X159488000Y-51157400D02*
X159478000Y-51167400D01*
X159488000Y-51157400D02*
X164918000Y-51157400D01*
X164918000Y-51157400D02*
X167498000Y-48577400D01*
X159478000Y-53297400D02*
X159478000Y-51167400D01*
X159548000Y-53367400D02*
X159478000Y-53297400D01*
X144163999Y-52675969D02*
X143764000Y-53075968D01*
X144417999Y-52675969D02*
X144163999Y-52675969D01*
X147186568Y-49907400D02*
X144417999Y-52675969D01*
X156518000Y-49907400D02*
X147186568Y-49907400D01*
X141048000Y-50057400D02*
X141048000Y-50847400D01*
X156728000Y-48397400D02*
X157638000Y-47487400D01*
X156728000Y-49697400D02*
X156728000Y-48397400D01*
X156518000Y-49907400D02*
X156728000Y-49697400D01*
X160558000Y-47487400D02*
X157638000Y-47487400D01*
X160608000Y-47437400D02*
X160558000Y-47487400D01*
X163338000Y-47437400D02*
X160608000Y-47437400D01*
X163828000Y-47927400D02*
X163338000Y-47437400D01*
X163828000Y-48577400D02*
X163828000Y-47927400D01*
X163818000Y-48587400D02*
X163828000Y-48577400D01*
D28*
X190609994Y-51710006D02*
X190110000Y-52210000D01*
X190110000Y-52210000D02*
X187220000Y-52210000D01*
X186520000Y-67970000D02*
X186520000Y-66510000D01*
X186440000Y-68050000D02*
X186520000Y-67970000D01*
X172840000Y-48120010D02*
X189130004Y-48120010D01*
X173221196Y-50698400D02*
X172453201Y-49930405D01*
X172453201Y-49930405D02*
X172453201Y-48506809D01*
X172453201Y-48506809D02*
X172840000Y-48120010D01*
X179705000Y-50698400D02*
X173221196Y-50698400D01*
X189130004Y-48120010D02*
X190609994Y-49600000D01*
X190609994Y-49600000D02*
X190609994Y-51710006D01*
X174437400Y-71367400D02*
X174870000Y-71800000D01*
X174870000Y-71800000D02*
X176370000Y-71800000D01*
X176370000Y-71800000D02*
X176890000Y-72320000D01*
X176890000Y-72320000D02*
X176890000Y-76090000D01*
X174437400Y-71367400D02*
X171378000Y-71367400D01*
X191059996Y-65970004D02*
X190380000Y-66650000D01*
X190380000Y-66650000D02*
X190380000Y-67930000D01*
X191059996Y-64950000D02*
X191059996Y-65970004D01*
X190380000Y-67930000D02*
X190060000Y-68250000D01*
X169378000Y-72367400D02*
X170637400Y-72367400D01*
X176100000Y-76500000D02*
X176720000Y-77120000D01*
X176100000Y-73050000D02*
X176100000Y-76500000D01*
X175670000Y-72620000D02*
X176100000Y-73050000D01*
X170890000Y-72620000D02*
X175670000Y-72620000D01*
X170637400Y-72367400D02*
X170890000Y-72620000D01*
X191059996Y-65010004D02*
X191059996Y-64950000D01*
X191059996Y-64950000D02*
X191059996Y-53810000D01*
X189350008Y-47670008D02*
X189350008Y-47670012D01*
X187800000Y-47670008D02*
X189350008Y-47670008D01*
X191059996Y-49380000D02*
X191059996Y-53810000D01*
X191059996Y-53810000D02*
X191059996Y-53930000D01*
X189350008Y-47670012D02*
X191059996Y-49380000D01*
X172003199Y-50116801D02*
X172003199Y-48006809D01*
X173986398Y-52100000D02*
X172003199Y-50116801D01*
X179705000Y-53198400D02*
X175098400Y-53198400D01*
X175098400Y-53198400D02*
X174000000Y-52100000D01*
X174000000Y-52100000D02*
X173986398Y-52100000D01*
X172340000Y-47670008D02*
X187800000Y-47670008D01*
X187800000Y-47670008D02*
X187910000Y-47670008D01*
X172003199Y-48006809D02*
X172340000Y-47670008D01*
X182670000Y-48570012D02*
X187210012Y-48570012D01*
X182205000Y-49035012D02*
X182670000Y-48570012D01*
X182205000Y-50698400D02*
X182205000Y-49035012D01*
X185610000Y-51050000D02*
X184350000Y-52310000D01*
X187120000Y-51050000D02*
X185610000Y-51050000D01*
X187800000Y-50370000D02*
X187120000Y-51050000D01*
X187800000Y-49160000D02*
X187800000Y-50370000D01*
X187210012Y-48570012D02*
X187800000Y-49160000D01*
X171378000Y-67367400D02*
X174027400Y-67367400D01*
X174027400Y-67367400D02*
X174690000Y-68030000D01*
X174690000Y-68030000D02*
X174690000Y-70250000D01*
X174690000Y-70250000D02*
X175260000Y-70820000D01*
X175260000Y-70820000D02*
X177050000Y-70820000D01*
X177050000Y-70820000D02*
X178110000Y-71880000D01*
X178110000Y-71880000D02*
X178110000Y-73970000D01*
X178110000Y-73970000D02*
X178930000Y-74790000D01*
X178930000Y-74790000D02*
X178930000Y-75740000D01*
X184400000Y-68150000D02*
X184400000Y-66480000D01*
X189180000Y-67140000D02*
X189180000Y-69230000D01*
X190609994Y-59480000D02*
X190609994Y-65710006D01*
X190609994Y-65710006D02*
X189180000Y-67140000D01*
X189180000Y-69230000D02*
X191190000Y-71240000D01*
X186260000Y-53198400D02*
X190018394Y-53198400D01*
X190018394Y-53198400D02*
X190609994Y-53790000D01*
X190609994Y-53790000D02*
X190609994Y-59480000D01*
X190609994Y-59480000D02*
X190609994Y-59540000D01*
X168188000Y-69147400D02*
X168188000Y-75848000D01*
X168968000Y-68367400D02*
X168188000Y-69147400D01*
X191190000Y-76250000D02*
X191190000Y-71240000D01*
X189530000Y-77910000D02*
X191190000Y-76250000D01*
X170250000Y-77910000D02*
X189530000Y-77910000D01*
X168188000Y-75848000D02*
X170250000Y-77910000D01*
X182205000Y-53198400D02*
X186260000Y-53198400D01*
X186260000Y-53198400D02*
X186268400Y-53198400D01*
X182205000Y-53198400D02*
X182205000Y-53145000D01*
X169378000Y-68367400D02*
X168968000Y-68367400D01*
X171770000Y-47220006D02*
X189930006Y-47220006D01*
X189930006Y-47220006D02*
X190420000Y-47710000D01*
X185400000Y-68060000D02*
X185400000Y-66560000D01*
X179705000Y-55698400D02*
X174968404Y-55698400D01*
X171520006Y-47470000D02*
X171770000Y-47220006D01*
X171520006Y-50270006D02*
X171520006Y-47470000D01*
X174300000Y-53050000D02*
X171520006Y-50270006D01*
X174300000Y-55029996D02*
X174300000Y-53050000D01*
X174968404Y-55698400D02*
X174300000Y-55029996D01*
X177571801Y-75461801D02*
X177900000Y-75790000D01*
X171378000Y-69367400D02*
X173157400Y-69367400D01*
X176873602Y-71280000D02*
X177571801Y-71978199D01*
X175070000Y-71280000D02*
X176873602Y-71280000D01*
X173157400Y-69367400D02*
X175070000Y-71280000D01*
X177571801Y-71978199D02*
X177571801Y-75461801D01*
X182350000Y-60530000D02*
X172920000Y-60530000D01*
X183260000Y-61440000D02*
X182350000Y-60530000D01*
X171757400Y-59367400D02*
X172920000Y-60530000D01*
X171378000Y-59367400D02*
X171757400Y-59367400D01*
X171378000Y-57367400D02*
X171378000Y-57538000D01*
X171378000Y-57538000D02*
X172810000Y-58970000D01*
X172810000Y-58970000D02*
X172810000Y-59620000D01*
X172810000Y-59620000D02*
X173269998Y-60079998D01*
X173269998Y-60079998D02*
X175930002Y-60079998D01*
X175930002Y-60079998D02*
X176240000Y-59770000D01*
X171378000Y-63367400D02*
X175017400Y-63367400D01*
X175500000Y-63850000D02*
X175500000Y-64810000D01*
X175017400Y-63367400D02*
X175500000Y-63850000D01*
X172725000Y-62665000D02*
X173115000Y-62665000D01*
X176350000Y-66460000D02*
X175540000Y-67270000D01*
X176350000Y-63570000D02*
X176350000Y-66460000D01*
X175650000Y-62870000D02*
X176350000Y-63570000D01*
X173320000Y-62870000D02*
X175650000Y-62870000D01*
X173115000Y-62665000D02*
X173320000Y-62870000D01*
X169378000Y-64367400D02*
X169642600Y-64367400D01*
X169642600Y-64367400D02*
X170140000Y-63870000D01*
X170140000Y-63870000D02*
X170140000Y-63110000D01*
X170140000Y-63110000D02*
X170520000Y-62730000D01*
X170520000Y-62730000D02*
X170520000Y-62350000D01*
X170520000Y-62350000D02*
X170740000Y-62130000D01*
X170740000Y-62130000D02*
X172190000Y-62130000D01*
X172190000Y-62130000D02*
X172725000Y-62665000D01*
X172725000Y-62665000D02*
X172740000Y-62680000D01*
X171378000Y-65367400D02*
X174807400Y-65367400D01*
X180649600Y-63240000D02*
X182205000Y-64795400D01*
X178550000Y-63240000D02*
X180649600Y-63240000D01*
X178000000Y-63790000D02*
X178550000Y-63240000D01*
X178000000Y-65900000D02*
X178000000Y-63790000D01*
X177950000Y-65950000D02*
X178000000Y-65900000D01*
X174807400Y-65367400D02*
X175450000Y-66010000D01*
X191650000Y-67300000D02*
X191650000Y-67150000D01*
X191650000Y-67150000D02*
X191960000Y-66840000D01*
X170999998Y-46320002D02*
X191670002Y-46320002D01*
X170620002Y-46699998D02*
X170999998Y-46320002D01*
X170620002Y-51490002D02*
X170620002Y-46699998D01*
X171110000Y-51980000D02*
X170620002Y-51490002D01*
X171670000Y-51980000D02*
X171110000Y-51980000D01*
X172500000Y-52810000D02*
X171670000Y-51980000D01*
X172500000Y-52980000D02*
X172500000Y-52810000D01*
X172940000Y-53420000D02*
X172500000Y-52980000D01*
X191960000Y-46610000D02*
X191960000Y-66840000D01*
X191670002Y-46320002D02*
X191960000Y-46610000D01*
X192420000Y-70700000D02*
X192420000Y-77010000D01*
X179705000Y-76895000D02*
X179705000Y-72295400D01*
X180220000Y-77410000D02*
X179705000Y-76895000D01*
X187860000Y-77410000D02*
X180220000Y-77410000D01*
X188200000Y-77070000D02*
X187860000Y-77410000D01*
X192420000Y-77010000D02*
X191860000Y-77570000D01*
X192420000Y-70770000D02*
X192420000Y-70700000D01*
X192420000Y-70700000D02*
X192420000Y-46130000D01*
X192160000Y-45870000D02*
X192420000Y-46130000D01*
X192160000Y-45870000D02*
X189100000Y-45870000D01*
X169580000Y-52977400D02*
X169712600Y-52977400D01*
X170390000Y-45870000D02*
X189100000Y-45870000D01*
X189100000Y-45870000D02*
X189110000Y-45870000D01*
X170170000Y-46090000D02*
X170390000Y-45870000D01*
X170170000Y-52520000D02*
X170170000Y-46090000D01*
X169712600Y-52977400D02*
X170170000Y-52520000D01*
X168678000Y-56367400D02*
X168128000Y-55817400D01*
X168128000Y-55817400D02*
X168128000Y-53847400D01*
X168128000Y-53847400D02*
X168998000Y-52977400D01*
X168998000Y-52977400D02*
X169580000Y-52977400D01*
X169580000Y-52977400D02*
X169618000Y-52977400D01*
X169378000Y-56367400D02*
X168678000Y-56367400D01*
X190850000Y-66860000D02*
X190850000Y-69060000D01*
X191509998Y-66200002D02*
X191509998Y-48980000D01*
X191509998Y-66200002D02*
X190850000Y-66860000D01*
X172450000Y-76210000D02*
X172440000Y-76220000D01*
X172450000Y-74260000D02*
X172450000Y-76210000D01*
X172490000Y-74220000D02*
X172450000Y-74260000D01*
X191509998Y-49000000D02*
X191509998Y-48980000D01*
X191509998Y-48980000D02*
X191509998Y-47039998D01*
X171240000Y-46770004D02*
X191240004Y-46770004D01*
X173840002Y-53250002D02*
X172090000Y-51500000D01*
X172090000Y-51500000D02*
X171290004Y-51500000D01*
X171290004Y-51500000D02*
X171070004Y-51280000D01*
X171070004Y-51280000D02*
X171070004Y-46940000D01*
X171070004Y-46940000D02*
X171240000Y-46770004D01*
X173840002Y-53250002D02*
X173840002Y-55260000D01*
X191240004Y-46770004D02*
X191509998Y-47039998D01*
X179705000Y-58198400D02*
X177508400Y-58198400D01*
X173840002Y-57230002D02*
X173840002Y-55260000D01*
X173840002Y-55260000D02*
X173840002Y-55200000D01*
X174060000Y-57450000D02*
X173840002Y-57230002D01*
X176760000Y-57450000D02*
X174060000Y-57450000D01*
X177508400Y-58198400D02*
X176760000Y-57450000D01*
X182205000Y-72295400D02*
X187804600Y-72295400D01*
X188160002Y-71939998D02*
X188160002Y-65700000D01*
X187804600Y-72295400D02*
X188160002Y-71939998D01*
X178079998Y-59529998D02*
X182870000Y-59529998D01*
X182870000Y-59529998D02*
X183430002Y-60090000D01*
X183430002Y-60090000D02*
X187550000Y-60090000D01*
X187550000Y-60090000D02*
X188160002Y-60700002D01*
X188160002Y-60700002D02*
X188160002Y-65700000D01*
X171587400Y-53367400D02*
X173390000Y-55170000D01*
X173390000Y-55170000D02*
X173390000Y-57480000D01*
X173390000Y-57480000D02*
X173860000Y-57950000D01*
X173860000Y-57950000D02*
X176500000Y-57950000D01*
X176500000Y-57950000D02*
X178079998Y-59529998D01*
X188160002Y-65700000D02*
X188160002Y-65860000D01*
X171378000Y-53367400D02*
X171587400Y-53367400D01*
X175280000Y-62280000D02*
X176180000Y-62280000D01*
X176860000Y-68420000D02*
X175530000Y-69750000D01*
X176860000Y-62960000D02*
X176860000Y-68420000D01*
X176180000Y-62280000D02*
X176860000Y-62960000D01*
X173480000Y-62280000D02*
X175280000Y-62280000D01*
X175280000Y-62280000D02*
X175420000Y-62280000D01*
X172950000Y-61420000D02*
X172950000Y-61750000D01*
X172280000Y-60750000D02*
X172950000Y-61420000D01*
X170520000Y-60750000D02*
X172280000Y-60750000D01*
X170400000Y-60630000D02*
X170520000Y-60750000D01*
X172950000Y-61750000D02*
X173480000Y-62280000D01*
X147868000Y-57147400D02*
X153298000Y-57147400D01*
X159458000Y-59677400D02*
X159448000Y-59667400D01*
X153298000Y-57147400D02*
X155328000Y-59177400D01*
X159448000Y-59667400D02*
X159448000Y-59577400D01*
X158518000Y-59577400D02*
X159448000Y-59577400D01*
X158198000Y-59897400D02*
X158518000Y-59577400D01*
X158198000Y-62137400D02*
X158198000Y-59897400D01*
X160488000Y-64427400D02*
X158198000Y-62137400D01*
X161788000Y-59577400D02*
X159448000Y-59577400D01*
X160148000Y-69147400D02*
X160168000Y-69127400D01*
X160168000Y-67167400D02*
X156858000Y-67167400D01*
X156858000Y-67167400D02*
X156788000Y-67097400D01*
X160168000Y-69127400D02*
X160168000Y-67167400D01*
X157828000Y-72907400D02*
X157828000Y-75777400D01*
X157768000Y-72847400D02*
X157828000Y-72907400D01*
X157828000Y-77377400D02*
X157828000Y-75777400D01*
X157828000Y-75777400D02*
X153388000Y-75777400D01*
X182205000Y-69795400D02*
X187404600Y-69795400D01*
X182560000Y-59980000D02*
X183150000Y-60570000D01*
X183150000Y-60570000D02*
X187340000Y-60570000D01*
X172087400Y-55367400D02*
X172740000Y-56020000D01*
X172740000Y-56020000D02*
X172740000Y-57950000D01*
X172740000Y-57950000D02*
X173390000Y-58600000D01*
X173390000Y-58600000D02*
X176160000Y-58600000D01*
X176160000Y-58600000D02*
X177540000Y-59980000D01*
X177540000Y-59980000D02*
X182560000Y-59980000D01*
X187340000Y-60570000D02*
X187710000Y-60940000D01*
X187710000Y-60940000D02*
X187710000Y-69490000D01*
X187404600Y-69795400D02*
X187710000Y-69490000D01*
X171378000Y-55367400D02*
X172087400Y-55367400D01*
D26*
X153797022Y-53664545D02*
X153797022Y-53086000D01*
X152457522Y-55004045D02*
X153797022Y-53664545D01*
X152388000Y-62237400D02*
X152368000Y-62257400D01*
X152368000Y-62257400D02*
X152368000Y-64447400D01*
X150548000Y-54638000D02*
X150520000Y-54610000D01*
X150520000Y-54610000D02*
X142865996Y-54610000D01*
X142168001Y-51050899D02*
X142568000Y-50650900D01*
X142865996Y-54610000D02*
X142168001Y-53912005D01*
X142168001Y-53912005D02*
X142168001Y-51050899D01*
X150548000Y-54617400D02*
X150548000Y-54638000D01*
X164878000Y-55317400D02*
X164178000Y-54617400D01*
X156532600Y-54617400D02*
X164178000Y-54617400D01*
X154990000Y-56160000D02*
X156532600Y-54617400D01*
X152070000Y-56160000D02*
X154990000Y-56160000D01*
X150548000Y-54638000D02*
X152070000Y-56160000D01*
X142568000Y-50650900D02*
X142548000Y-50670900D01*
D28*
X161728000Y-48807400D02*
X161728000Y-48697400D01*
X168618000Y-47527400D02*
X169408000Y-48317400D01*
X166238000Y-47527400D02*
X168618000Y-47527400D01*
X165748000Y-48017400D02*
X166238000Y-47527400D01*
X165748000Y-48397400D02*
X165748000Y-48017400D01*
X164468000Y-49677400D02*
X165748000Y-48397400D01*
X162598000Y-49677400D02*
X164468000Y-49677400D01*
X161728000Y-48807400D02*
X162598000Y-49677400D01*
X161728000Y-48697400D02*
X161498000Y-48467400D01*
D26*
X158158000Y-52257400D02*
X155130535Y-52257400D01*
X155130535Y-52257400D02*
X155121490Y-52266445D01*
D27*
X129428000Y-57147400D02*
X125800600Y-53520000D01*
X125800600Y-53520000D02*
X115570000Y-53520000D01*
X129428000Y-57147400D02*
X132738000Y-57147400D01*
X135638000Y-57147400D02*
X138798000Y-57147400D01*
X138798000Y-57147400D02*
X138838000Y-57187400D01*
X147698000Y-67107400D02*
X143898000Y-67107400D01*
X140998000Y-67107400D02*
X138430000Y-67107400D01*
X138430000Y-67107400D02*
X137878000Y-67107400D01*
X133731000Y-64823000D02*
X133731000Y-66273000D01*
X133731000Y-66273000D02*
X134565400Y-67107400D01*
X134565400Y-67107400D02*
X138430000Y-67107400D01*
X137198000Y-75777400D02*
X123677400Y-75777400D01*
X123677400Y-75777400D02*
X118872000Y-70972000D01*
X118872000Y-70972000D02*
X118872000Y-69522000D01*
X153888000Y-67097400D02*
X150608000Y-67097400D01*
X150608000Y-67097400D02*
X150598000Y-67107400D01*
X140098000Y-75777400D02*
X144078000Y-75777400D01*
X144968000Y-57147400D02*
X141738000Y-57147400D01*
X146978000Y-75777400D02*
X150488000Y-75777400D01*
M02*
