G04 #@! TF.GenerationSoftware,KiCad,Pcbnew,(2017-09-19 revision dddaa7e69)-makepkg*
G04 #@! TF.CreationDate,2017-11-22T18:58:21+10:30*
G04 #@! TF.ProjectId,din_power_atm90e26,64696E5F706F7765725F61746D393065,rev?*
G04 #@! TF.SameCoordinates,Original*
G04 #@! TF.FileFunction,Soldermask,Bot*
G04 #@! TF.FilePolarity,Negative*
%FSLAX46Y46*%
G04 Gerber Fmt 4.6, Leading zero omitted, Abs format (unit mm)*
G04 Created by KiCad (PCBNEW (2017-09-19 revision dddaa7e69)-makepkg) date 11/22/17 18:58:21*
%MOMM*%
%LPD*%
G01*
G04 APERTURE LIST*
%ADD10R,2.300000X2.300000*%
%ADD11C,2.300000*%
%ADD12C,2.000000*%
%ADD13O,4.000000X2.200000*%
%ADD14R,4.000000X2.200000*%
%ADD15R,1.300000X2.100000*%
%ADD16R,1.708000X1.708000*%
%ADD17C,1.822400*%
%ADD18C,2.200000*%
%ADD19R,2.200000X2.200000*%
%ADD20R,2.100000X1.300000*%
%ADD21R,1.200000X1.150000*%
%ADD22R,1.150000X1.200000*%
%ADD23R,0.900000X1.300000*%
%ADD24R,1.300000X0.900000*%
G04 APERTURE END LIST*
D10*
X179705000Y-50698400D03*
D11*
X179705000Y-53198400D03*
X179705000Y-55698400D03*
X179705000Y-58198400D03*
X182205000Y-50698400D03*
X182205000Y-53198400D03*
X182205000Y-55698400D03*
X182205000Y-58198400D03*
D12*
X189385000Y-50698400D03*
X189385000Y-58198400D03*
X189385000Y-72295400D03*
X189385000Y-64795400D03*
D11*
X182205000Y-72295400D03*
X182205000Y-69795400D03*
X182205000Y-67295400D03*
X182205000Y-64795400D03*
X179705000Y-72295400D03*
X179705000Y-69795400D03*
X179705000Y-67295400D03*
D10*
X179705000Y-64795400D03*
D13*
X110490000Y-74574400D03*
X110490000Y-69494400D03*
X110490000Y-64414400D03*
X110490000Y-59334400D03*
X110490000Y-54254400D03*
D14*
X110490000Y-49174400D03*
D15*
X138838000Y-57147400D03*
X141738000Y-57147400D03*
X153888000Y-67097400D03*
X156788000Y-67097400D03*
X153388000Y-75777400D03*
X150488000Y-75777400D03*
X147868000Y-57147400D03*
X144968000Y-57147400D03*
X150598000Y-67107400D03*
X147698000Y-67107400D03*
X144078000Y-75777400D03*
X146978000Y-75777400D03*
X140098000Y-75777400D03*
X137198000Y-75777400D03*
X140998000Y-67107400D03*
X143898000Y-67107400D03*
D16*
X159288000Y-72207400D03*
X159288000Y-56807400D03*
X129888000Y-67007400D03*
X129888000Y-62007400D03*
D17*
X169378000Y-62367400D03*
X169378000Y-64367400D03*
X169378000Y-66367400D03*
X169378000Y-68367400D03*
X169378000Y-70367400D03*
X169378000Y-72367400D03*
X171378000Y-71367400D03*
X171378000Y-69367400D03*
X171378000Y-67367400D03*
X171378000Y-65367400D03*
X171378000Y-63367400D03*
X166878000Y-72317400D03*
X166878000Y-70317400D03*
X166878000Y-68317400D03*
X166878000Y-66317400D03*
X166878000Y-64317400D03*
X166878000Y-62317400D03*
X164878000Y-63317400D03*
X164878000Y-65317400D03*
X164878000Y-67317400D03*
X164878000Y-69317400D03*
X164878000Y-71317400D03*
X171378000Y-53367400D03*
X171378000Y-55367400D03*
X171378000Y-57367400D03*
X171378000Y-59367400D03*
X169378000Y-58367400D03*
X169378000Y-56367400D03*
X169378000Y-54367400D03*
X164878000Y-59317400D03*
X164878000Y-57317400D03*
X164878000Y-55317400D03*
X164878000Y-53317400D03*
X166878000Y-54317400D03*
X166878000Y-56317400D03*
X166878000Y-58317400D03*
D18*
X127381000Y-48133000D03*
X129921000Y-48133000D03*
X132461000Y-48133000D03*
D19*
X135001000Y-48133000D03*
D20*
X133731000Y-64823000D03*
X133731000Y-61923000D03*
X115570000Y-53520000D03*
X115570000Y-50620000D03*
D15*
X132738000Y-57147400D03*
X135638000Y-57147400D03*
D20*
X118872000Y-69522000D03*
X118872000Y-66622000D03*
D21*
X161668000Y-69127400D03*
X160168000Y-69127400D03*
D22*
X161788000Y-61077400D03*
X161788000Y-59577400D03*
D21*
X159328000Y-77377400D03*
X157828000Y-77377400D03*
D23*
X161668000Y-67167400D03*
X160168000Y-67167400D03*
D24*
X159448000Y-61077400D03*
X159448000Y-59577400D03*
D23*
X159328000Y-75777400D03*
X157828000Y-75777400D03*
D12*
X119172466Y-74842934D03*
X122708000Y-71307400D03*
M02*
