%TF.GenerationSoftware,KiCad,Pcbnew,(5.1.5)-3*%
%TF.CreationDate,2020-03-19T09:51:27+11:00*%
%TF.ProjectId,din_power_atm90e26,64696e5f-706f-4776-9572-5f61746d3930,rev?*%
%TF.SameCoordinates,Original*%
%TF.FileFunction,Legend,Bot*%
%TF.FilePolarity,Positive*%
%FSLAX46Y46*%
G04 Gerber Fmt 4.6, Leading zero omitted, Abs format (unit mm)*
G04 Created by KiCad (PCBNEW (5.1.5)-3) date 2020-03-19 09:51:27*
%MOMM*%
%LPD*%
G04 APERTURE LIST*
%ADD10C,0.250000*%
%ADD11C,0.381000*%
%ADD12C,0.127000*%
%ADD13C,0.010000*%
%ADD14C,0.120000*%
G04 APERTURE END LIST*
D10*
X138664285Y-62302380D02*
X138092857Y-62302380D01*
X138378571Y-63302380D02*
X138378571Y-62302380D01*
X137807142Y-63016666D02*
X137330952Y-63016666D01*
X137902380Y-63302380D02*
X137569047Y-62302380D01*
X137235714Y-63302380D01*
X136902380Y-63302380D02*
X136902380Y-62302380D01*
X136521428Y-62302380D01*
X136426190Y-62350000D01*
X136378571Y-62397619D01*
X136330952Y-62492857D01*
X136330952Y-62635714D01*
X136378571Y-62730952D01*
X136426190Y-62778571D01*
X136521428Y-62826190D01*
X136902380Y-62826190D01*
X135330952Y-63302380D02*
X135664285Y-62826190D01*
X135902380Y-63302380D02*
X135902380Y-62302380D01*
X135521428Y-62302380D01*
X135426190Y-62350000D01*
X135378571Y-62397619D01*
X135330952Y-62492857D01*
X135330952Y-62635714D01*
X135378571Y-62730952D01*
X135426190Y-62778571D01*
X135521428Y-62826190D01*
X135902380Y-62826190D01*
X163336666Y-48894780D02*
X163098571Y-49894780D01*
X162908095Y-49180495D01*
X162717619Y-49894780D01*
X162479523Y-48894780D01*
X162098571Y-49894780D02*
X162098571Y-48894780D01*
X161670000Y-49894780D02*
X161670000Y-49370971D01*
X161717619Y-49275733D01*
X161812857Y-49228114D01*
X161955714Y-49228114D01*
X162050952Y-49275733D01*
X162098571Y-49323352D01*
X160765238Y-49894780D02*
X160765238Y-49370971D01*
X160812857Y-49275733D01*
X160908095Y-49228114D01*
X161098571Y-49228114D01*
X161193809Y-49275733D01*
X160765238Y-49847161D02*
X160860476Y-49894780D01*
X161098571Y-49894780D01*
X161193809Y-49847161D01*
X161241428Y-49751923D01*
X161241428Y-49656685D01*
X161193809Y-49561447D01*
X161098571Y-49513828D01*
X160860476Y-49513828D01*
X160765238Y-49466209D01*
X160431904Y-49228114D02*
X160050952Y-49228114D01*
X160289047Y-48894780D02*
X160289047Y-49751923D01*
X160241428Y-49847161D01*
X160146190Y-49894780D01*
X160050952Y-49894780D01*
X159717619Y-49228114D02*
X159717619Y-49894780D01*
X159717619Y-49323352D02*
X159670000Y-49275733D01*
X159574761Y-49228114D01*
X159431904Y-49228114D01*
X159336666Y-49275733D01*
X159289047Y-49370971D01*
X159289047Y-49894780D01*
X158812857Y-49894780D02*
X158812857Y-49228114D01*
X158812857Y-48894780D02*
X158860476Y-48942400D01*
X158812857Y-48990019D01*
X158765238Y-48942400D01*
X158812857Y-48894780D01*
X158812857Y-48990019D01*
X157908095Y-49847161D02*
X158003333Y-49894780D01*
X158193809Y-49894780D01*
X158289047Y-49847161D01*
X158336666Y-49799542D01*
X158384285Y-49704304D01*
X158384285Y-49418590D01*
X158336666Y-49323352D01*
X158289047Y-49275733D01*
X158193809Y-49228114D01*
X158003333Y-49228114D01*
X157908095Y-49275733D01*
X157479523Y-49894780D02*
X157479523Y-48894780D01*
X157384285Y-49513828D02*
X157098571Y-49894780D01*
X157098571Y-49228114D02*
X157479523Y-49609066D01*
X155908095Y-49370971D02*
X155574761Y-49370971D01*
X155431904Y-49894780D02*
X155908095Y-49894780D01*
X155908095Y-48894780D01*
X155431904Y-48894780D01*
X155003333Y-49894780D02*
X155003333Y-49228114D01*
X155003333Y-49323352D02*
X154955714Y-49275733D01*
X154860476Y-49228114D01*
X154717619Y-49228114D01*
X154622380Y-49275733D01*
X154574761Y-49370971D01*
X154574761Y-49894780D01*
X154574761Y-49370971D02*
X154527142Y-49275733D01*
X154431904Y-49228114D01*
X154289047Y-49228114D01*
X154193809Y-49275733D01*
X154146190Y-49370971D01*
X154146190Y-49894780D01*
X153527142Y-49894780D02*
X153622380Y-49847161D01*
X153670000Y-49799542D01*
X153717619Y-49704304D01*
X153717619Y-49418590D01*
X153670000Y-49323352D01*
X153622380Y-49275733D01*
X153527142Y-49228114D01*
X153384285Y-49228114D01*
X153289047Y-49275733D01*
X153241428Y-49323352D01*
X153193809Y-49418590D01*
X153193809Y-49704304D01*
X153241428Y-49799542D01*
X153289047Y-49847161D01*
X153384285Y-49894780D01*
X153527142Y-49894780D01*
X152765238Y-49228114D02*
X152765238Y-49894780D01*
X152765238Y-49323352D02*
X152717619Y-49275733D01*
X152622380Y-49228114D01*
X152479523Y-49228114D01*
X152384285Y-49275733D01*
X152336666Y-49370971D01*
X152336666Y-49894780D01*
X150765238Y-49370971D02*
X150622380Y-49418590D01*
X150574761Y-49466209D01*
X150527142Y-49561447D01*
X150527142Y-49704304D01*
X150574761Y-49799542D01*
X150622380Y-49847161D01*
X150717619Y-49894780D01*
X151098571Y-49894780D01*
X151098571Y-48894780D01*
X150765238Y-48894780D01*
X150670000Y-48942400D01*
X150622380Y-48990019D01*
X150574761Y-49085257D01*
X150574761Y-49180495D01*
X150622380Y-49275733D01*
X150670000Y-49323352D01*
X150765238Y-49370971D01*
X151098571Y-49370971D01*
X149670000Y-49894780D02*
X149670000Y-49370971D01*
X149717619Y-49275733D01*
X149812857Y-49228114D01*
X150003333Y-49228114D01*
X150098571Y-49275733D01*
X149670000Y-49847161D02*
X149765238Y-49894780D01*
X150003333Y-49894780D01*
X150098571Y-49847161D01*
X150146190Y-49751923D01*
X150146190Y-49656685D01*
X150098571Y-49561447D01*
X150003333Y-49513828D01*
X149765238Y-49513828D01*
X149670000Y-49466209D01*
X149241428Y-49847161D02*
X149146190Y-49894780D01*
X148955714Y-49894780D01*
X148860476Y-49847161D01*
X148812857Y-49751923D01*
X148812857Y-49704304D01*
X148860476Y-49609066D01*
X148955714Y-49561447D01*
X149098571Y-49561447D01*
X149193809Y-49513828D01*
X149241428Y-49418590D01*
X149241428Y-49370971D01*
X149193809Y-49275733D01*
X149098571Y-49228114D01*
X148955714Y-49228114D01*
X148860476Y-49275733D01*
X148003333Y-49847161D02*
X148098571Y-49894780D01*
X148289047Y-49894780D01*
X148384285Y-49847161D01*
X148431904Y-49751923D01*
X148431904Y-49370971D01*
X148384285Y-49275733D01*
X148289047Y-49228114D01*
X148098571Y-49228114D01*
X148003333Y-49275733D01*
X147955714Y-49370971D01*
X147955714Y-49466209D01*
X148431904Y-49561447D01*
X146860476Y-49228114D02*
X146622380Y-49894780D01*
X146384285Y-49228114D01*
X145479523Y-49894780D02*
X146050952Y-49894780D01*
X145765238Y-49894780D02*
X145765238Y-48894780D01*
X145860476Y-49037638D01*
X145955714Y-49132876D01*
X146050952Y-49180495D01*
X145050952Y-49799542D02*
X145003333Y-49847161D01*
X145050952Y-49894780D01*
X145098571Y-49847161D01*
X145050952Y-49799542D01*
X145050952Y-49894780D01*
X144622380Y-48990019D02*
X144574761Y-48942400D01*
X144479523Y-48894780D01*
X144241428Y-48894780D01*
X144146190Y-48942400D01*
X144098571Y-48990019D01*
X144050952Y-49085257D01*
X144050952Y-49180495D01*
X144098571Y-49323352D01*
X144670000Y-49894780D01*
X144050952Y-49894780D01*
X158098571Y-50644780D02*
X158003333Y-50644780D01*
X157908095Y-50692400D01*
X157860476Y-50740019D01*
X157812857Y-50835257D01*
X157765238Y-51025733D01*
X157765238Y-51263828D01*
X157812857Y-51454304D01*
X157860476Y-51549542D01*
X157908095Y-51597161D01*
X158003333Y-51644780D01*
X158098571Y-51644780D01*
X158193809Y-51597161D01*
X158241428Y-51549542D01*
X158289047Y-51454304D01*
X158336666Y-51263828D01*
X158336666Y-51025733D01*
X158289047Y-50835257D01*
X158241428Y-50740019D01*
X158193809Y-50692400D01*
X158098571Y-50644780D01*
X157431904Y-50644780D02*
X156765238Y-50644780D01*
X157193809Y-51644780D01*
X155670000Y-50597161D02*
X156527142Y-51882876D01*
X154812857Y-51644780D02*
X155384285Y-51644780D01*
X155098571Y-51644780D02*
X155098571Y-50644780D01*
X155193809Y-50787638D01*
X155289047Y-50882876D01*
X155384285Y-50930495D01*
X154431904Y-50740019D02*
X154384285Y-50692400D01*
X154289047Y-50644780D01*
X154050952Y-50644780D01*
X153955714Y-50692400D01*
X153908095Y-50740019D01*
X153860476Y-50835257D01*
X153860476Y-50930495D01*
X153908095Y-51073352D01*
X154479523Y-51644780D01*
X153860476Y-51644780D01*
X152717619Y-50597161D02*
X153574761Y-51882876D01*
X152431904Y-50740019D02*
X152384285Y-50692400D01*
X152289047Y-50644780D01*
X152050952Y-50644780D01*
X151955714Y-50692400D01*
X151908095Y-50740019D01*
X151860476Y-50835257D01*
X151860476Y-50930495D01*
X151908095Y-51073352D01*
X152479523Y-51644780D01*
X151860476Y-51644780D01*
X151241428Y-50644780D02*
X151146190Y-50644780D01*
X151050952Y-50692400D01*
X151003333Y-50740019D01*
X150955714Y-50835257D01*
X150908095Y-51025733D01*
X150908095Y-51263828D01*
X150955714Y-51454304D01*
X151003333Y-51549542D01*
X151050952Y-51597161D01*
X151146190Y-51644780D01*
X151241428Y-51644780D01*
X151336666Y-51597161D01*
X151384285Y-51549542D01*
X151431904Y-51454304D01*
X151479523Y-51263828D01*
X151479523Y-51025733D01*
X151431904Y-50835257D01*
X151384285Y-50740019D01*
X151336666Y-50692400D01*
X151241428Y-50644780D01*
X149955714Y-51644780D02*
X150527142Y-51644780D01*
X150241428Y-51644780D02*
X150241428Y-50644780D01*
X150336666Y-50787638D01*
X150431904Y-50882876D01*
X150527142Y-50930495D01*
X149622380Y-50644780D02*
X148955714Y-50644780D01*
X149384285Y-51644780D01*
D11*
%TO.C,SYM1*%
X136988000Y-76738000D02*
X132289000Y-69753000D01*
X127590000Y-76738000D02*
X136988000Y-76738000D01*
X132289000Y-69753000D02*
X127590000Y-76738000D01*
X132786840Y-76143640D02*
X132888440Y-75244480D01*
X131989280Y-73344560D02*
X132786840Y-76143640D01*
X133188160Y-74144660D02*
X131989280Y-73344560D01*
X132388060Y-71144920D02*
X133188160Y-74144660D01*
X132786840Y-76143640D02*
X132187400Y-75445140D01*
X133188160Y-74144660D02*
X131887680Y-71343040D01*
X131587960Y-73044840D02*
X132187400Y-73443620D01*
X132786840Y-76143640D02*
X131587960Y-73044840D01*
D12*
%TO.C,J4*%
X168128000Y-60717400D02*
X168128000Y-60717400D01*
X168128000Y-60717400D02*
X168128000Y-60717400D01*
X168128000Y-60717400D02*
X168128000Y-60717400D01*
X168128000Y-60717400D02*
X168128000Y-60717400D01*
X168128000Y-60717400D02*
X168128000Y-60717400D01*
X168128000Y-60717400D02*
X168128000Y-60717400D01*
X168128000Y-60717400D02*
X168128000Y-60717400D01*
X168128000Y-60717400D02*
X168128000Y-60717400D01*
D13*
%TO.C,LOGO_OSHW1*%
G36*
X136444186Y-56468931D02*
G01*
X136360365Y-56913555D01*
X136051080Y-57041053D01*
X135741794Y-57168551D01*
X135370754Y-56916246D01*
X135266843Y-56845996D01*
X135172913Y-56783272D01*
X135093348Y-56730938D01*
X135032530Y-56691857D01*
X134994843Y-56668893D01*
X134984579Y-56663942D01*
X134966090Y-56676676D01*
X134926580Y-56711882D01*
X134870478Y-56765062D01*
X134802213Y-56831718D01*
X134726214Y-56907354D01*
X134646908Y-56987472D01*
X134568725Y-57067574D01*
X134496093Y-57143164D01*
X134433441Y-57209745D01*
X134385197Y-57262818D01*
X134355790Y-57297887D01*
X134348759Y-57309623D01*
X134358877Y-57331260D01*
X134387241Y-57378662D01*
X134430871Y-57447193D01*
X134486782Y-57532215D01*
X134551994Y-57629093D01*
X134589781Y-57684350D01*
X134658657Y-57785248D01*
X134719860Y-57876299D01*
X134770422Y-57952970D01*
X134807372Y-58010728D01*
X134827742Y-58045043D01*
X134830803Y-58052254D01*
X134823864Y-58072748D01*
X134804949Y-58120513D01*
X134776913Y-58188832D01*
X134742609Y-58270989D01*
X134704891Y-58360270D01*
X134666613Y-58449958D01*
X134630630Y-58533338D01*
X134599794Y-58603694D01*
X134576961Y-58654310D01*
X134564983Y-58678471D01*
X134564276Y-58679422D01*
X134545469Y-58684036D01*
X134495382Y-58694328D01*
X134419207Y-58709287D01*
X134322135Y-58727901D01*
X134209357Y-58749159D01*
X134143558Y-58761418D01*
X134023050Y-58784362D01*
X133914203Y-58806195D01*
X133822524Y-58825722D01*
X133753519Y-58841748D01*
X133712696Y-58853079D01*
X133704489Y-58856674D01*
X133696452Y-58881006D01*
X133689967Y-58935959D01*
X133685030Y-59015108D01*
X133681636Y-59112026D01*
X133679782Y-59220287D01*
X133679462Y-59333465D01*
X133680673Y-59445135D01*
X133683410Y-59548868D01*
X133687669Y-59638241D01*
X133693445Y-59706826D01*
X133700733Y-59748197D01*
X133705105Y-59756810D01*
X133731236Y-59767133D01*
X133786607Y-59781892D01*
X133863893Y-59799352D01*
X133955770Y-59817780D01*
X133987842Y-59823741D01*
X134142476Y-59852066D01*
X134264625Y-59874876D01*
X134358327Y-59893080D01*
X134427616Y-59907583D01*
X134476529Y-59919292D01*
X134509103Y-59929115D01*
X134529372Y-59937956D01*
X134541374Y-59946724D01*
X134543053Y-59948457D01*
X134559816Y-59976371D01*
X134585386Y-60030695D01*
X134617212Y-60104777D01*
X134652740Y-60191965D01*
X134689417Y-60285608D01*
X134724689Y-60379052D01*
X134756004Y-60465647D01*
X134780807Y-60538740D01*
X134796546Y-60591678D01*
X134800668Y-60617811D01*
X134800324Y-60618726D01*
X134786359Y-60640086D01*
X134754678Y-60687084D01*
X134708609Y-60754827D01*
X134651482Y-60838423D01*
X134586627Y-60932982D01*
X134568157Y-60959854D01*
X134502301Y-61057275D01*
X134444350Y-61146163D01*
X134397462Y-61221412D01*
X134364793Y-61277920D01*
X134349500Y-61310581D01*
X134348759Y-61314593D01*
X134361608Y-61335684D01*
X134397112Y-61377464D01*
X134450707Y-61435445D01*
X134517829Y-61505135D01*
X134593913Y-61582045D01*
X134674396Y-61661683D01*
X134754713Y-61739561D01*
X134830301Y-61811186D01*
X134896595Y-61872070D01*
X134949031Y-61917721D01*
X134983045Y-61943650D01*
X134992455Y-61947883D01*
X135014357Y-61937912D01*
X135059200Y-61911020D01*
X135119679Y-61871736D01*
X135166211Y-61840117D01*
X135250525Y-61782098D01*
X135350374Y-61713784D01*
X135450527Y-61645579D01*
X135504373Y-61609075D01*
X135686629Y-61485800D01*
X135839619Y-61568520D01*
X135909318Y-61604759D01*
X135968586Y-61632926D01*
X136008689Y-61648991D01*
X136018897Y-61651226D01*
X136031171Y-61634722D01*
X136055387Y-61588082D01*
X136089737Y-61515609D01*
X136132412Y-61421606D01*
X136181606Y-61310374D01*
X136235510Y-61186215D01*
X136292316Y-61053432D01*
X136350218Y-60916327D01*
X136407407Y-60779202D01*
X136462076Y-60646358D01*
X136512416Y-60522098D01*
X136556620Y-60410725D01*
X136592881Y-60316539D01*
X136619391Y-60243844D01*
X136634342Y-60196941D01*
X136636746Y-60180833D01*
X136617689Y-60160286D01*
X136575964Y-60126933D01*
X136520294Y-60087702D01*
X136515622Y-60084599D01*
X136371736Y-59969423D01*
X136255717Y-59835053D01*
X136168570Y-59685784D01*
X136111301Y-59525913D01*
X136084914Y-59359737D01*
X136090415Y-59191552D01*
X136128810Y-59025655D01*
X136201105Y-58866342D01*
X136222374Y-58831487D01*
X136333004Y-58690737D01*
X136463698Y-58577714D01*
X136609936Y-58493003D01*
X136767192Y-58437194D01*
X136930943Y-58410874D01*
X137096667Y-58414630D01*
X137259838Y-58449050D01*
X137415935Y-58514723D01*
X137560433Y-58612235D01*
X137605131Y-58651813D01*
X137718888Y-58775703D01*
X137801782Y-58906124D01*
X137858644Y-59052315D01*
X137890313Y-59197088D01*
X137898131Y-59359860D01*
X137872062Y-59523440D01*
X137814755Y-59682298D01*
X137728856Y-59830906D01*
X137617014Y-59963735D01*
X137481877Y-60075256D01*
X137464117Y-60087011D01*
X137407850Y-60125508D01*
X137365077Y-60158863D01*
X137344628Y-60180160D01*
X137344331Y-60180833D01*
X137348721Y-60203871D01*
X137366124Y-60256157D01*
X137394732Y-60333390D01*
X137432735Y-60431268D01*
X137478326Y-60545491D01*
X137529697Y-60671758D01*
X137585038Y-60805767D01*
X137642542Y-60943218D01*
X137700399Y-61079808D01*
X137756802Y-61211237D01*
X137809942Y-61333205D01*
X137858010Y-61441409D01*
X137899199Y-61531549D01*
X137931699Y-61599323D01*
X137953703Y-61640430D01*
X137962564Y-61651226D01*
X137989640Y-61642819D01*
X138040303Y-61620272D01*
X138105817Y-61587613D01*
X138141841Y-61568520D01*
X138294832Y-61485800D01*
X138477088Y-61609075D01*
X138570125Y-61672228D01*
X138671985Y-61741727D01*
X138767438Y-61807165D01*
X138815250Y-61840117D01*
X138882495Y-61885273D01*
X138939436Y-61921057D01*
X138978646Y-61942938D01*
X138991381Y-61947563D01*
X139009917Y-61935085D01*
X139050941Y-61900252D01*
X139110475Y-61846678D01*
X139184542Y-61777983D01*
X139269165Y-61697781D01*
X139322685Y-61646286D01*
X139416319Y-61554286D01*
X139497241Y-61471999D01*
X139562177Y-61402945D01*
X139607858Y-61350644D01*
X139631011Y-61318616D01*
X139633232Y-61312116D01*
X139622924Y-61287394D01*
X139594439Y-61237405D01*
X139550937Y-61167212D01*
X139495577Y-61081875D01*
X139431520Y-60986456D01*
X139413303Y-60959854D01*
X139346927Y-60863167D01*
X139287378Y-60776117D01*
X139237984Y-60703595D01*
X139202075Y-60650493D01*
X139182981Y-60621703D01*
X139181136Y-60618726D01*
X139183895Y-60595782D01*
X139198538Y-60545336D01*
X139222513Y-60474041D01*
X139253266Y-60388547D01*
X139288244Y-60295507D01*
X139324893Y-60201574D01*
X139360661Y-60113399D01*
X139392994Y-60037634D01*
X139419338Y-59980931D01*
X139437142Y-59949943D01*
X139438407Y-59948457D01*
X139449294Y-59939601D01*
X139467682Y-59930843D01*
X139497606Y-59921277D01*
X139543103Y-59909996D01*
X139608209Y-59896093D01*
X139696961Y-59878663D01*
X139813393Y-59856798D01*
X139961542Y-59829591D01*
X139993618Y-59823741D01*
X140088686Y-59805374D01*
X140171565Y-59787405D01*
X140234930Y-59771569D01*
X140271458Y-59759600D01*
X140276356Y-59756810D01*
X140284427Y-59732072D01*
X140290987Y-59676790D01*
X140296033Y-59597389D01*
X140299559Y-59500296D01*
X140301561Y-59391938D01*
X140302036Y-59278740D01*
X140300977Y-59167128D01*
X140298382Y-59063529D01*
X140294246Y-58974368D01*
X140288563Y-58906072D01*
X140281331Y-58865066D01*
X140276971Y-58856674D01*
X140252698Y-58848208D01*
X140197426Y-58834435D01*
X140116662Y-58816550D01*
X140015912Y-58795748D01*
X139900683Y-58773223D01*
X139837902Y-58761418D01*
X139718787Y-58739151D01*
X139612565Y-58718979D01*
X139524427Y-58701915D01*
X139459566Y-58688969D01*
X139423174Y-58681155D01*
X139417184Y-58679422D01*
X139407061Y-58659890D01*
X139385662Y-58612843D01*
X139355839Y-58545003D01*
X139320445Y-58463091D01*
X139282332Y-58373828D01*
X139244353Y-58283935D01*
X139209360Y-58200135D01*
X139180206Y-58129147D01*
X139159743Y-58077694D01*
X139150823Y-58052497D01*
X139150657Y-58051396D01*
X139160769Y-58031519D01*
X139189117Y-57985777D01*
X139232723Y-57918717D01*
X139288606Y-57834884D01*
X139353787Y-57738826D01*
X139391679Y-57683650D01*
X139460725Y-57582481D01*
X139522050Y-57490630D01*
X139572663Y-57412744D01*
X139609571Y-57353469D01*
X139629782Y-57317451D01*
X139632701Y-57309377D01*
X139620153Y-57290584D01*
X139585463Y-57250457D01*
X139533063Y-57193493D01*
X139467384Y-57124185D01*
X139392856Y-57047031D01*
X139313913Y-56966525D01*
X139234983Y-56887163D01*
X139160500Y-56813440D01*
X139094894Y-56749852D01*
X139042596Y-56700894D01*
X139008039Y-56671061D01*
X138996478Y-56663942D01*
X138977654Y-56673953D01*
X138932631Y-56702078D01*
X138865787Y-56745454D01*
X138781499Y-56801218D01*
X138684144Y-56866506D01*
X138610707Y-56916246D01*
X138239667Y-57168551D01*
X137621095Y-56913555D01*
X137537275Y-56468931D01*
X137453454Y-56024307D01*
X136528006Y-56024307D01*
X136444186Y-56468931D01*
G37*
X136444186Y-56468931D02*
X136360365Y-56913555D01*
X136051080Y-57041053D01*
X135741794Y-57168551D01*
X135370754Y-56916246D01*
X135266843Y-56845996D01*
X135172913Y-56783272D01*
X135093348Y-56730938D01*
X135032530Y-56691857D01*
X134994843Y-56668893D01*
X134984579Y-56663942D01*
X134966090Y-56676676D01*
X134926580Y-56711882D01*
X134870478Y-56765062D01*
X134802213Y-56831718D01*
X134726214Y-56907354D01*
X134646908Y-56987472D01*
X134568725Y-57067574D01*
X134496093Y-57143164D01*
X134433441Y-57209745D01*
X134385197Y-57262818D01*
X134355790Y-57297887D01*
X134348759Y-57309623D01*
X134358877Y-57331260D01*
X134387241Y-57378662D01*
X134430871Y-57447193D01*
X134486782Y-57532215D01*
X134551994Y-57629093D01*
X134589781Y-57684350D01*
X134658657Y-57785248D01*
X134719860Y-57876299D01*
X134770422Y-57952970D01*
X134807372Y-58010728D01*
X134827742Y-58045043D01*
X134830803Y-58052254D01*
X134823864Y-58072748D01*
X134804949Y-58120513D01*
X134776913Y-58188832D01*
X134742609Y-58270989D01*
X134704891Y-58360270D01*
X134666613Y-58449958D01*
X134630630Y-58533338D01*
X134599794Y-58603694D01*
X134576961Y-58654310D01*
X134564983Y-58678471D01*
X134564276Y-58679422D01*
X134545469Y-58684036D01*
X134495382Y-58694328D01*
X134419207Y-58709287D01*
X134322135Y-58727901D01*
X134209357Y-58749159D01*
X134143558Y-58761418D01*
X134023050Y-58784362D01*
X133914203Y-58806195D01*
X133822524Y-58825722D01*
X133753519Y-58841748D01*
X133712696Y-58853079D01*
X133704489Y-58856674D01*
X133696452Y-58881006D01*
X133689967Y-58935959D01*
X133685030Y-59015108D01*
X133681636Y-59112026D01*
X133679782Y-59220287D01*
X133679462Y-59333465D01*
X133680673Y-59445135D01*
X133683410Y-59548868D01*
X133687669Y-59638241D01*
X133693445Y-59706826D01*
X133700733Y-59748197D01*
X133705105Y-59756810D01*
X133731236Y-59767133D01*
X133786607Y-59781892D01*
X133863893Y-59799352D01*
X133955770Y-59817780D01*
X133987842Y-59823741D01*
X134142476Y-59852066D01*
X134264625Y-59874876D01*
X134358327Y-59893080D01*
X134427616Y-59907583D01*
X134476529Y-59919292D01*
X134509103Y-59929115D01*
X134529372Y-59937956D01*
X134541374Y-59946724D01*
X134543053Y-59948457D01*
X134559816Y-59976371D01*
X134585386Y-60030695D01*
X134617212Y-60104777D01*
X134652740Y-60191965D01*
X134689417Y-60285608D01*
X134724689Y-60379052D01*
X134756004Y-60465647D01*
X134780807Y-60538740D01*
X134796546Y-60591678D01*
X134800668Y-60617811D01*
X134800324Y-60618726D01*
X134786359Y-60640086D01*
X134754678Y-60687084D01*
X134708609Y-60754827D01*
X134651482Y-60838423D01*
X134586627Y-60932982D01*
X134568157Y-60959854D01*
X134502301Y-61057275D01*
X134444350Y-61146163D01*
X134397462Y-61221412D01*
X134364793Y-61277920D01*
X134349500Y-61310581D01*
X134348759Y-61314593D01*
X134361608Y-61335684D01*
X134397112Y-61377464D01*
X134450707Y-61435445D01*
X134517829Y-61505135D01*
X134593913Y-61582045D01*
X134674396Y-61661683D01*
X134754713Y-61739561D01*
X134830301Y-61811186D01*
X134896595Y-61872070D01*
X134949031Y-61917721D01*
X134983045Y-61943650D01*
X134992455Y-61947883D01*
X135014357Y-61937912D01*
X135059200Y-61911020D01*
X135119679Y-61871736D01*
X135166211Y-61840117D01*
X135250525Y-61782098D01*
X135350374Y-61713784D01*
X135450527Y-61645579D01*
X135504373Y-61609075D01*
X135686629Y-61485800D01*
X135839619Y-61568520D01*
X135909318Y-61604759D01*
X135968586Y-61632926D01*
X136008689Y-61648991D01*
X136018897Y-61651226D01*
X136031171Y-61634722D01*
X136055387Y-61588082D01*
X136089737Y-61515609D01*
X136132412Y-61421606D01*
X136181606Y-61310374D01*
X136235510Y-61186215D01*
X136292316Y-61053432D01*
X136350218Y-60916327D01*
X136407407Y-60779202D01*
X136462076Y-60646358D01*
X136512416Y-60522098D01*
X136556620Y-60410725D01*
X136592881Y-60316539D01*
X136619391Y-60243844D01*
X136634342Y-60196941D01*
X136636746Y-60180833D01*
X136617689Y-60160286D01*
X136575964Y-60126933D01*
X136520294Y-60087702D01*
X136515622Y-60084599D01*
X136371736Y-59969423D01*
X136255717Y-59835053D01*
X136168570Y-59685784D01*
X136111301Y-59525913D01*
X136084914Y-59359737D01*
X136090415Y-59191552D01*
X136128810Y-59025655D01*
X136201105Y-58866342D01*
X136222374Y-58831487D01*
X136333004Y-58690737D01*
X136463698Y-58577714D01*
X136609936Y-58493003D01*
X136767192Y-58437194D01*
X136930943Y-58410874D01*
X137096667Y-58414630D01*
X137259838Y-58449050D01*
X137415935Y-58514723D01*
X137560433Y-58612235D01*
X137605131Y-58651813D01*
X137718888Y-58775703D01*
X137801782Y-58906124D01*
X137858644Y-59052315D01*
X137890313Y-59197088D01*
X137898131Y-59359860D01*
X137872062Y-59523440D01*
X137814755Y-59682298D01*
X137728856Y-59830906D01*
X137617014Y-59963735D01*
X137481877Y-60075256D01*
X137464117Y-60087011D01*
X137407850Y-60125508D01*
X137365077Y-60158863D01*
X137344628Y-60180160D01*
X137344331Y-60180833D01*
X137348721Y-60203871D01*
X137366124Y-60256157D01*
X137394732Y-60333390D01*
X137432735Y-60431268D01*
X137478326Y-60545491D01*
X137529697Y-60671758D01*
X137585038Y-60805767D01*
X137642542Y-60943218D01*
X137700399Y-61079808D01*
X137756802Y-61211237D01*
X137809942Y-61333205D01*
X137858010Y-61441409D01*
X137899199Y-61531549D01*
X137931699Y-61599323D01*
X137953703Y-61640430D01*
X137962564Y-61651226D01*
X137989640Y-61642819D01*
X138040303Y-61620272D01*
X138105817Y-61587613D01*
X138141841Y-61568520D01*
X138294832Y-61485800D01*
X138477088Y-61609075D01*
X138570125Y-61672228D01*
X138671985Y-61741727D01*
X138767438Y-61807165D01*
X138815250Y-61840117D01*
X138882495Y-61885273D01*
X138939436Y-61921057D01*
X138978646Y-61942938D01*
X138991381Y-61947563D01*
X139009917Y-61935085D01*
X139050941Y-61900252D01*
X139110475Y-61846678D01*
X139184542Y-61777983D01*
X139269165Y-61697781D01*
X139322685Y-61646286D01*
X139416319Y-61554286D01*
X139497241Y-61471999D01*
X139562177Y-61402945D01*
X139607858Y-61350644D01*
X139631011Y-61318616D01*
X139633232Y-61312116D01*
X139622924Y-61287394D01*
X139594439Y-61237405D01*
X139550937Y-61167212D01*
X139495577Y-61081875D01*
X139431520Y-60986456D01*
X139413303Y-60959854D01*
X139346927Y-60863167D01*
X139287378Y-60776117D01*
X139237984Y-60703595D01*
X139202075Y-60650493D01*
X139182981Y-60621703D01*
X139181136Y-60618726D01*
X139183895Y-60595782D01*
X139198538Y-60545336D01*
X139222513Y-60474041D01*
X139253266Y-60388547D01*
X139288244Y-60295507D01*
X139324893Y-60201574D01*
X139360661Y-60113399D01*
X139392994Y-60037634D01*
X139419338Y-59980931D01*
X139437142Y-59949943D01*
X139438407Y-59948457D01*
X139449294Y-59939601D01*
X139467682Y-59930843D01*
X139497606Y-59921277D01*
X139543103Y-59909996D01*
X139608209Y-59896093D01*
X139696961Y-59878663D01*
X139813393Y-59856798D01*
X139961542Y-59829591D01*
X139993618Y-59823741D01*
X140088686Y-59805374D01*
X140171565Y-59787405D01*
X140234930Y-59771569D01*
X140271458Y-59759600D01*
X140276356Y-59756810D01*
X140284427Y-59732072D01*
X140290987Y-59676790D01*
X140296033Y-59597389D01*
X140299559Y-59500296D01*
X140301561Y-59391938D01*
X140302036Y-59278740D01*
X140300977Y-59167128D01*
X140298382Y-59063529D01*
X140294246Y-58974368D01*
X140288563Y-58906072D01*
X140281331Y-58865066D01*
X140276971Y-58856674D01*
X140252698Y-58848208D01*
X140197426Y-58834435D01*
X140116662Y-58816550D01*
X140015912Y-58795748D01*
X139900683Y-58773223D01*
X139837902Y-58761418D01*
X139718787Y-58739151D01*
X139612565Y-58718979D01*
X139524427Y-58701915D01*
X139459566Y-58688969D01*
X139423174Y-58681155D01*
X139417184Y-58679422D01*
X139407061Y-58659890D01*
X139385662Y-58612843D01*
X139355839Y-58545003D01*
X139320445Y-58463091D01*
X139282332Y-58373828D01*
X139244353Y-58283935D01*
X139209360Y-58200135D01*
X139180206Y-58129147D01*
X139159743Y-58077694D01*
X139150823Y-58052497D01*
X139150657Y-58051396D01*
X139160769Y-58031519D01*
X139189117Y-57985777D01*
X139232723Y-57918717D01*
X139288606Y-57834884D01*
X139353787Y-57738826D01*
X139391679Y-57683650D01*
X139460725Y-57582481D01*
X139522050Y-57490630D01*
X139572663Y-57412744D01*
X139609571Y-57353469D01*
X139629782Y-57317451D01*
X139632701Y-57309377D01*
X139620153Y-57290584D01*
X139585463Y-57250457D01*
X139533063Y-57193493D01*
X139467384Y-57124185D01*
X139392856Y-57047031D01*
X139313913Y-56966525D01*
X139234983Y-56887163D01*
X139160500Y-56813440D01*
X139094894Y-56749852D01*
X139042596Y-56700894D01*
X139008039Y-56671061D01*
X138996478Y-56663942D01*
X138977654Y-56673953D01*
X138932631Y-56702078D01*
X138865787Y-56745454D01*
X138781499Y-56801218D01*
X138684144Y-56866506D01*
X138610707Y-56916246D01*
X138239667Y-57168551D01*
X137621095Y-56913555D01*
X137537275Y-56468931D01*
X137453454Y-56024307D01*
X136528006Y-56024307D01*
X136444186Y-56468931D01*
D14*
%TO.C,R3*%
X184700000Y-51380000D02*
X185700000Y-51380000D01*
X185700000Y-50020000D02*
X184700000Y-50020000D01*
%TO.C,R11*%
X184700000Y-58880000D02*
X185700000Y-58880000D01*
X185700000Y-57520000D02*
X184700000Y-57520000D01*
%TO.C,R10*%
X184700000Y-56380000D02*
X185700000Y-56380000D01*
X185700000Y-55020000D02*
X184700000Y-55020000D01*
%TO.C,R9*%
X177200000Y-57520000D02*
X176200000Y-57520000D01*
X176200000Y-58880000D02*
X177200000Y-58880000D01*
%TO.C,R8*%
X177200000Y-55020000D02*
X176200000Y-55020000D01*
X176200000Y-56380000D02*
X177200000Y-56380000D01*
%TO.C,R2*%
X177200000Y-52520000D02*
X176200000Y-52520000D01*
X176200000Y-53880000D02*
X177200000Y-53880000D01*
%TO.C,R4*%
X185700000Y-52520000D02*
X184700000Y-52520000D01*
X184700000Y-53880000D02*
X185700000Y-53880000D01*
%TO.C,R1*%
X177200000Y-50020000D02*
X176200000Y-50020000D01*
X176200000Y-51380000D02*
X177200000Y-51380000D01*
%TO.C,R15*%
X147200000Y-64030000D02*
X145200000Y-64030000D01*
X145200000Y-66170000D02*
X147200000Y-66170000D01*
%TO.C,R24*%
X153000000Y-74480000D02*
X151000000Y-74480000D01*
X151000000Y-76620000D02*
X153000000Y-76620000D01*
%TO.C,R23*%
X151000000Y-71520000D02*
X153000000Y-71520000D01*
X153000000Y-69380000D02*
X151000000Y-69380000D01*
%TO.C,R22*%
X151000000Y-66170000D02*
X153000000Y-66170000D01*
X153000000Y-64030000D02*
X151000000Y-64030000D01*
%TO.C,R17*%
X145200000Y-76620000D02*
X147200000Y-76620000D01*
X147200000Y-74480000D02*
X145200000Y-74480000D01*
%TO.C,R16*%
X147200000Y-69380000D02*
X145200000Y-69380000D01*
X145200000Y-71520000D02*
X147200000Y-71520000D01*
%TO.C,R13*%
X139400000Y-71520000D02*
X141400000Y-71520000D01*
X141400000Y-69380000D02*
X139400000Y-69380000D01*
%TO.C,R14*%
X141400000Y-74480000D02*
X139400000Y-74480000D01*
X139400000Y-76620000D02*
X141400000Y-76620000D01*
D13*
%TO.C,G1*%
G36*
X155189967Y-60900986D02*
G01*
X155177412Y-60982220D01*
X155188411Y-61024875D01*
X155223829Y-61151354D01*
X155281098Y-61361273D01*
X155349515Y-61615312D01*
X155369914Y-61691625D01*
X155462672Y-61993069D01*
X155548898Y-62169439D01*
X155632272Y-62222245D01*
X155716477Y-62153001D01*
X155805194Y-61963220D01*
X155833532Y-61882125D01*
X155944270Y-61548750D01*
X156050455Y-61866250D01*
X156146008Y-62095617D01*
X156237310Y-62198071D01*
X156325109Y-62173590D01*
X156410155Y-62022154D01*
X156464639Y-61854460D01*
X156539523Y-61593171D01*
X156618487Y-61330099D01*
X156658100Y-61204063D01*
X156711910Y-61033617D01*
X156744518Y-60922631D01*
X156749000Y-60902438D01*
X156694426Y-60887124D01*
X156588258Y-60882000D01*
X156489541Y-60890694D01*
X156426950Y-60934640D01*
X156385896Y-61040629D01*
X156351792Y-61235454D01*
X156336916Y-61343604D01*
X156303461Y-61511535D01*
X156262961Y-61605060D01*
X156241090Y-61612305D01*
X156194699Y-61536966D01*
X156131852Y-61377402D01*
X156082180Y-61221611D01*
X156020187Y-61041931D01*
X155963690Y-60934832D01*
X155930487Y-60921159D01*
X155886589Y-61007822D01*
X155820979Y-61176456D01*
X155760097Y-61353701D01*
X155637750Y-61730152D01*
X155544280Y-61306076D01*
X155489798Y-61079966D01*
X155441181Y-60951957D01*
X155382760Y-60894989D01*
X155298868Y-60882000D01*
X155298749Y-60882000D01*
X155189967Y-60900986D01*
G37*
X155189967Y-60900986D02*
X155177412Y-60982220D01*
X155188411Y-61024875D01*
X155223829Y-61151354D01*
X155281098Y-61361273D01*
X155349515Y-61615312D01*
X155369914Y-61691625D01*
X155462672Y-61993069D01*
X155548898Y-62169439D01*
X155632272Y-62222245D01*
X155716477Y-62153001D01*
X155805194Y-61963220D01*
X155833532Y-61882125D01*
X155944270Y-61548750D01*
X156050455Y-61866250D01*
X156146008Y-62095617D01*
X156237310Y-62198071D01*
X156325109Y-62173590D01*
X156410155Y-62022154D01*
X156464639Y-61854460D01*
X156539523Y-61593171D01*
X156618487Y-61330099D01*
X156658100Y-61204063D01*
X156711910Y-61033617D01*
X156744518Y-60922631D01*
X156749000Y-60902438D01*
X156694426Y-60887124D01*
X156588258Y-60882000D01*
X156489541Y-60890694D01*
X156426950Y-60934640D01*
X156385896Y-61040629D01*
X156351792Y-61235454D01*
X156336916Y-61343604D01*
X156303461Y-61511535D01*
X156262961Y-61605060D01*
X156241090Y-61612305D01*
X156194699Y-61536966D01*
X156131852Y-61377402D01*
X156082180Y-61221611D01*
X156020187Y-61041931D01*
X155963690Y-60934832D01*
X155930487Y-60921159D01*
X155886589Y-61007822D01*
X155820979Y-61176456D01*
X155760097Y-61353701D01*
X155637750Y-61730152D01*
X155544280Y-61306076D01*
X155489798Y-61079966D01*
X155441181Y-60951957D01*
X155382760Y-60894989D01*
X155298868Y-60882000D01*
X155298749Y-60882000D01*
X155189967Y-60900986D01*
G36*
X154102282Y-60886458D02*
G01*
X154058744Y-60914917D01*
X154033715Y-60990000D01*
X154022071Y-61134331D01*
X154018692Y-61370534D01*
X154018500Y-61548750D01*
X154019510Y-61845433D01*
X154025953Y-62037741D01*
X154042951Y-62148298D01*
X154075627Y-62199727D01*
X154129103Y-62214653D01*
X154169450Y-62215500D01*
X154260942Y-62205299D01*
X154299081Y-62152216D01*
X154297881Y-62022524D01*
X154288192Y-61929750D01*
X154255984Y-61644000D01*
X154797017Y-61644000D01*
X154764809Y-61929750D01*
X154750430Y-62105121D01*
X154769058Y-62188645D01*
X154834705Y-62214046D01*
X154883551Y-62215500D01*
X154950719Y-62211041D01*
X154994257Y-62182582D01*
X155019286Y-62107499D01*
X155030930Y-61963168D01*
X155034309Y-61726965D01*
X155034500Y-61548750D01*
X155033491Y-61252066D01*
X155027048Y-61059758D01*
X155010050Y-60949201D01*
X154977374Y-60897772D01*
X154923898Y-60882846D01*
X154883551Y-60882000D01*
X154792059Y-60892200D01*
X154753920Y-60945283D01*
X154755120Y-61074975D01*
X154764809Y-61167750D01*
X154797017Y-61453500D01*
X154255984Y-61453500D01*
X154288192Y-61167750D01*
X154302571Y-60992378D01*
X154283943Y-60908854D01*
X154218296Y-60883453D01*
X154169450Y-60882000D01*
X154102282Y-60886458D01*
G37*
X154102282Y-60886458D02*
X154058744Y-60914917D01*
X154033715Y-60990000D01*
X154022071Y-61134331D01*
X154018692Y-61370534D01*
X154018500Y-61548750D01*
X154019510Y-61845433D01*
X154025953Y-62037741D01*
X154042951Y-62148298D01*
X154075627Y-62199727D01*
X154129103Y-62214653D01*
X154169450Y-62215500D01*
X154260942Y-62205299D01*
X154299081Y-62152216D01*
X154297881Y-62022524D01*
X154288192Y-61929750D01*
X154255984Y-61644000D01*
X154797017Y-61644000D01*
X154764809Y-61929750D01*
X154750430Y-62105121D01*
X154769058Y-62188645D01*
X154834705Y-62214046D01*
X154883551Y-62215500D01*
X154950719Y-62211041D01*
X154994257Y-62182582D01*
X155019286Y-62107499D01*
X155030930Y-61963168D01*
X155034309Y-61726965D01*
X155034500Y-61548750D01*
X155033491Y-61252066D01*
X155027048Y-61059758D01*
X155010050Y-60949201D01*
X154977374Y-60897772D01*
X154923898Y-60882846D01*
X154883551Y-60882000D01*
X154792059Y-60892200D01*
X154753920Y-60945283D01*
X154755120Y-61074975D01*
X154764809Y-61167750D01*
X154797017Y-61453500D01*
X154255984Y-61453500D01*
X154288192Y-61167750D01*
X154302571Y-60992378D01*
X154283943Y-60908854D01*
X154218296Y-60883453D01*
X154169450Y-60882000D01*
X154102282Y-60886458D01*
G36*
X153171452Y-60974131D02*
G01*
X153089022Y-61133140D01*
X152977622Y-61357192D01*
X152870307Y-61578692D01*
X152565165Y-62215500D01*
X152744145Y-62215500D01*
X152876971Y-62193007D01*
X152942367Y-62099950D01*
X152962002Y-62021118D01*
X152999458Y-61894022D01*
X153071008Y-61844643D01*
X153220564Y-61845127D01*
X153237306Y-61846493D01*
X153403572Y-61877228D01*
X153485150Y-61950291D01*
X153510504Y-62025000D01*
X153583056Y-62155275D01*
X153726307Y-62204510D01*
X153845182Y-62203725D01*
X153879212Y-62172760D01*
X153842393Y-62097108D01*
X153762901Y-61932866D01*
X153653214Y-61705841D01*
X153565815Y-61524749D01*
X153315854Y-61524749D01*
X153264931Y-61577735D01*
X153230695Y-61580500D01*
X153168527Y-61533959D01*
X153176005Y-61448132D01*
X153213634Y-61363053D01*
X153261111Y-61395513D01*
X153264338Y-61400507D01*
X153315854Y-61524749D01*
X153565815Y-61524749D01*
X153551091Y-61494242D01*
X153426648Y-61245871D01*
X153320130Y-61051069D01*
X153243958Y-60931437D01*
X153212273Y-60905060D01*
X153171452Y-60974131D01*
G37*
X153171452Y-60974131D02*
X153089022Y-61133140D01*
X152977622Y-61357192D01*
X152870307Y-61578692D01*
X152565165Y-62215500D01*
X152744145Y-62215500D01*
X152876971Y-62193007D01*
X152942367Y-62099950D01*
X152962002Y-62021118D01*
X152999458Y-61894022D01*
X153071008Y-61844643D01*
X153220564Y-61845127D01*
X153237306Y-61846493D01*
X153403572Y-61877228D01*
X153485150Y-61950291D01*
X153510504Y-62025000D01*
X153583056Y-62155275D01*
X153726307Y-62204510D01*
X153845182Y-62203725D01*
X153879212Y-62172760D01*
X153842393Y-62097108D01*
X153762901Y-61932866D01*
X153653214Y-61705841D01*
X153565815Y-61524749D01*
X153315854Y-61524749D01*
X153264931Y-61577735D01*
X153230695Y-61580500D01*
X153168527Y-61533959D01*
X153176005Y-61448132D01*
X153213634Y-61363053D01*
X153261111Y-61395513D01*
X153264338Y-61400507D01*
X153315854Y-61524749D01*
X153565815Y-61524749D01*
X153551091Y-61494242D01*
X153426648Y-61245871D01*
X153320130Y-61051069D01*
X153243958Y-60931437D01*
X153212273Y-60905060D01*
X153171452Y-60974131D01*
G36*
X150847929Y-61326500D02*
G01*
X150695785Y-61525835D01*
X150571482Y-61678921D01*
X150494356Y-61762356D01*
X150480738Y-61771000D01*
X150467560Y-61713142D01*
X150467246Y-61560826D01*
X150479752Y-61345933D01*
X150481346Y-61326500D01*
X150498485Y-61094562D01*
X150496989Y-60961584D01*
X150470567Y-60900128D01*
X150412926Y-60882753D01*
X150379431Y-60882000D01*
X150317459Y-60888103D01*
X150277283Y-60921469D01*
X150254189Y-61004678D01*
X150243464Y-61160314D01*
X150240392Y-61410957D01*
X150240250Y-61548750D01*
X150241709Y-61845908D01*
X150249053Y-62038594D01*
X150266738Y-62149328D01*
X150299216Y-62200628D01*
X150350942Y-62215014D01*
X150372118Y-62215500D01*
X150495545Y-62158495D01*
X150662807Y-61986297D01*
X150784868Y-61827115D01*
X151065750Y-61438731D01*
X151084656Y-61827115D01*
X151100403Y-62043639D01*
X151127787Y-62161483D01*
X151177224Y-62208959D01*
X151227531Y-62215500D01*
X151286643Y-62205179D01*
X151323310Y-62158102D01*
X151342810Y-62050094D01*
X151350420Y-61856983D01*
X151351500Y-61647747D01*
X151362417Y-61328493D01*
X151393849Y-61115206D01*
X151443822Y-61013820D01*
X151510361Y-61030272D01*
X151542600Y-61073470D01*
X151637412Y-61124591D01*
X151726001Y-61119300D01*
X151789453Y-61109458D01*
X151828767Y-61135699D01*
X151849706Y-61220926D01*
X151858029Y-61388039D01*
X151859500Y-61649944D01*
X151860986Y-61918854D01*
X151869806Y-62085315D01*
X151892506Y-62173877D01*
X151935629Y-62209087D01*
X152005721Y-62215495D01*
X152010278Y-62215500D01*
X152081129Y-62211138D01*
X152123732Y-62181867D01*
X152143056Y-62103406D01*
X152144074Y-61951472D01*
X152131754Y-61701786D01*
X152128209Y-61639421D01*
X152095363Y-61063342D01*
X152322373Y-61105930D01*
X152470014Y-61126924D01*
X152524543Y-61103714D01*
X152516278Y-61021994D01*
X152514536Y-61015258D01*
X152490113Y-60955101D01*
X152438676Y-60916379D01*
X152336151Y-60894413D01*
X152158462Y-60884522D01*
X151881535Y-60882026D01*
X151829075Y-60882000D01*
X151178463Y-60882000D01*
X150847929Y-61326500D01*
G37*
X150847929Y-61326500D02*
X150695785Y-61525835D01*
X150571482Y-61678921D01*
X150494356Y-61762356D01*
X150480738Y-61771000D01*
X150467560Y-61713142D01*
X150467246Y-61560826D01*
X150479752Y-61345933D01*
X150481346Y-61326500D01*
X150498485Y-61094562D01*
X150496989Y-60961584D01*
X150470567Y-60900128D01*
X150412926Y-60882753D01*
X150379431Y-60882000D01*
X150317459Y-60888103D01*
X150277283Y-60921469D01*
X150254189Y-61004678D01*
X150243464Y-61160314D01*
X150240392Y-61410957D01*
X150240250Y-61548750D01*
X150241709Y-61845908D01*
X150249053Y-62038594D01*
X150266738Y-62149328D01*
X150299216Y-62200628D01*
X150350942Y-62215014D01*
X150372118Y-62215500D01*
X150495545Y-62158495D01*
X150662807Y-61986297D01*
X150784868Y-61827115D01*
X151065750Y-61438731D01*
X151084656Y-61827115D01*
X151100403Y-62043639D01*
X151127787Y-62161483D01*
X151177224Y-62208959D01*
X151227531Y-62215500D01*
X151286643Y-62205179D01*
X151323310Y-62158102D01*
X151342810Y-62050094D01*
X151350420Y-61856983D01*
X151351500Y-61647747D01*
X151362417Y-61328493D01*
X151393849Y-61115206D01*
X151443822Y-61013820D01*
X151510361Y-61030272D01*
X151542600Y-61073470D01*
X151637412Y-61124591D01*
X151726001Y-61119300D01*
X151789453Y-61109458D01*
X151828767Y-61135699D01*
X151849706Y-61220926D01*
X151858029Y-61388039D01*
X151859500Y-61649944D01*
X151860986Y-61918854D01*
X151869806Y-62085315D01*
X151892506Y-62173877D01*
X151935629Y-62209087D01*
X152005721Y-62215495D01*
X152010278Y-62215500D01*
X152081129Y-62211138D01*
X152123732Y-62181867D01*
X152143056Y-62103406D01*
X152144074Y-61951472D01*
X152131754Y-61701786D01*
X152128209Y-61639421D01*
X152095363Y-61063342D01*
X152322373Y-61105930D01*
X152470014Y-61126924D01*
X152524543Y-61103714D01*
X152516278Y-61021994D01*
X152514536Y-61015258D01*
X152490113Y-60955101D01*
X152438676Y-60916379D01*
X152336151Y-60894413D01*
X152158462Y-60884522D01*
X151881535Y-60882026D01*
X151829075Y-60882000D01*
X151178463Y-60882000D01*
X150847929Y-61326500D01*
G36*
X149811528Y-60887540D02*
G01*
X149770301Y-60919230D01*
X149746601Y-60999670D01*
X149735586Y-61151462D01*
X149732411Y-61397207D01*
X149732250Y-61548750D01*
X149733438Y-61845539D01*
X149740228Y-62037932D01*
X149757466Y-62148531D01*
X149789992Y-62199936D01*
X149842652Y-62214749D01*
X149875125Y-62215500D01*
X149938723Y-62209959D01*
X149979950Y-62178269D01*
X150003650Y-62097829D01*
X150014665Y-61946037D01*
X150017840Y-61700292D01*
X150018000Y-61548750D01*
X150016813Y-61251960D01*
X150010023Y-61059567D01*
X149992785Y-60948968D01*
X149960259Y-60897563D01*
X149907599Y-60882750D01*
X149875125Y-60882000D01*
X149811528Y-60887540D01*
G37*
X149811528Y-60887540D02*
X149770301Y-60919230D01*
X149746601Y-60999670D01*
X149735586Y-61151462D01*
X149732411Y-61397207D01*
X149732250Y-61548750D01*
X149733438Y-61845539D01*
X149740228Y-62037932D01*
X149757466Y-62148531D01*
X149789992Y-62199936D01*
X149842652Y-62214749D01*
X149875125Y-62215500D01*
X149938723Y-62209959D01*
X149979950Y-62178269D01*
X150003650Y-62097829D01*
X150014665Y-61946037D01*
X150017840Y-61700292D01*
X150018000Y-61548750D01*
X150016813Y-61251960D01*
X150010023Y-61059567D01*
X149992785Y-60948968D01*
X149960259Y-60897563D01*
X149907599Y-60882750D01*
X149875125Y-60882000D01*
X149811528Y-60887540D01*
G36*
X148659311Y-60905656D02*
G01*
X148533655Y-60976785D01*
X148494000Y-61080503D01*
X148517267Y-61174778D01*
X148603526Y-61167046D01*
X148605125Y-61166377D01*
X148867580Y-61102206D01*
X149077894Y-61142299D01*
X149220671Y-61278211D01*
X149280514Y-61501495D01*
X149281400Y-61537410D01*
X149231820Y-61781644D01*
X149099018Y-61948107D01*
X148906906Y-62021833D01*
X148679394Y-61987857D01*
X148611761Y-61956555D01*
X148518578Y-61921041D01*
X148498316Y-61977873D01*
X148504811Y-62035930D01*
X148532353Y-62124046D01*
X148605121Y-62172134D01*
X148756516Y-62195955D01*
X148858708Y-62202928D01*
X149071998Y-62205098D01*
X149210824Y-62171319D01*
X149325850Y-62087372D01*
X149348250Y-62065522D01*
X149518088Y-61820243D01*
X149564489Y-61554765D01*
X149487058Y-61280361D01*
X149381629Y-61116928D01*
X149233180Y-60992413D01*
X149041616Y-60914805D01*
X148839479Y-60885441D01*
X148659311Y-60905656D01*
G37*
X148659311Y-60905656D02*
X148533655Y-60976785D01*
X148494000Y-61080503D01*
X148517267Y-61174778D01*
X148603526Y-61167046D01*
X148605125Y-61166377D01*
X148867580Y-61102206D01*
X149077894Y-61142299D01*
X149220671Y-61278211D01*
X149280514Y-61501495D01*
X149281400Y-61537410D01*
X149231820Y-61781644D01*
X149099018Y-61948107D01*
X148906906Y-62021833D01*
X148679394Y-61987857D01*
X148611761Y-61956555D01*
X148518578Y-61921041D01*
X148498316Y-61977873D01*
X148504811Y-62035930D01*
X148532353Y-62124046D01*
X148605121Y-62172134D01*
X148756516Y-62195955D01*
X148858708Y-62202928D01*
X149071998Y-62205098D01*
X149210824Y-62171319D01*
X149325850Y-62087372D01*
X149348250Y-62065522D01*
X149518088Y-61820243D01*
X149564489Y-61554765D01*
X149487058Y-61280361D01*
X149381629Y-61116928D01*
X149233180Y-60992413D01*
X149041616Y-60914805D01*
X148839479Y-60885441D01*
X148659311Y-60905656D01*
G36*
X148101406Y-60890658D02*
G01*
X148061274Y-60939720D01*
X148066411Y-61063813D01*
X148079040Y-61151875D01*
X148119743Y-61421750D01*
X147927580Y-61199500D01*
X147812560Y-61057390D01*
X147742974Y-60953938D01*
X147733709Y-60929625D01*
X147677063Y-60896504D01*
X147542463Y-60882024D01*
X147536104Y-60882000D01*
X147340207Y-60882000D01*
X147599787Y-61176898D01*
X147744342Y-61361371D01*
X147810837Y-61493231D01*
X147807044Y-61542023D01*
X147741092Y-61627057D01*
X147623944Y-61775263D01*
X147513461Y-61913875D01*
X147272202Y-62215500D01*
X147465172Y-62215500D01*
X147618489Y-62186585D01*
X147737912Y-62079291D01*
X147791089Y-62000388D01*
X147904857Y-61837088D01*
X148013378Y-61712645D01*
X148029017Y-61698763D01*
X148090091Y-61658698D01*
X148113684Y-61688415D01*
X148106375Y-61810039D01*
X148092965Y-61913875D01*
X148072573Y-62095072D01*
X148084755Y-62183769D01*
X148142230Y-62212902D01*
X148209465Y-62215500D01*
X148367000Y-62215500D01*
X148367000Y-60882000D01*
X148202669Y-60882000D01*
X148101406Y-60890658D01*
G37*
X148101406Y-60890658D02*
X148061274Y-60939720D01*
X148066411Y-61063813D01*
X148079040Y-61151875D01*
X148119743Y-61421750D01*
X147927580Y-61199500D01*
X147812560Y-61057390D01*
X147742974Y-60953938D01*
X147733709Y-60929625D01*
X147677063Y-60896504D01*
X147542463Y-60882024D01*
X147536104Y-60882000D01*
X147340207Y-60882000D01*
X147599787Y-61176898D01*
X147744342Y-61361371D01*
X147810837Y-61493231D01*
X147807044Y-61542023D01*
X147741092Y-61627057D01*
X147623944Y-61775263D01*
X147513461Y-61913875D01*
X147272202Y-62215500D01*
X147465172Y-62215500D01*
X147618489Y-62186585D01*
X147737912Y-62079291D01*
X147791089Y-62000388D01*
X147904857Y-61837088D01*
X148013378Y-61712645D01*
X148029017Y-61698763D01*
X148090091Y-61658698D01*
X148113684Y-61688415D01*
X148106375Y-61810039D01*
X148092965Y-61913875D01*
X148072573Y-62095072D01*
X148084755Y-62183769D01*
X148142230Y-62212902D01*
X148209465Y-62215500D01*
X148367000Y-62215500D01*
X148367000Y-60882000D01*
X148202669Y-60882000D01*
X148101406Y-60890658D01*
G36*
X152432034Y-56456447D02*
G01*
X152384221Y-56570933D01*
X152368210Y-56793977D01*
X152367500Y-56885779D01*
X152369576Y-57118501D01*
X152381622Y-57249031D01*
X152412369Y-57302172D01*
X152470545Y-57302724D01*
X152510375Y-57291714D01*
X152665577Y-57220279D01*
X152743099Y-57163568D01*
X152822474Y-57117097D01*
X152919612Y-57145319D01*
X153012690Y-57206255D01*
X153192433Y-57334243D01*
X152809327Y-57837511D01*
X152555609Y-58143070D01*
X152336868Y-58332834D01*
X152136733Y-58406754D01*
X151938838Y-58364776D01*
X151726812Y-58206850D01*
X151484288Y-57932926D01*
X151406928Y-57833118D01*
X151239956Y-57610562D01*
X151140799Y-57464640D01*
X151099629Y-57371480D01*
X151106621Y-57307214D01*
X151151949Y-57247971D01*
X151161808Y-57237667D01*
X151242546Y-57166522D01*
X151324163Y-57150898D01*
X151454003Y-57188831D01*
X151538745Y-57222038D01*
X151703704Y-57282011D01*
X151789143Y-57289334D01*
X151830624Y-57245077D01*
X151836443Y-57230995D01*
X151923124Y-57150474D01*
X151993294Y-57135500D01*
X152092459Y-57093921D01*
X152113500Y-57040250D01*
X152060561Y-56962678D01*
X151986500Y-56945000D01*
X151883315Y-56918407D01*
X151859500Y-56881500D01*
X151912685Y-56829907D01*
X151986500Y-56818000D01*
X152089929Y-56778295D01*
X152113500Y-56722750D01*
X152060561Y-56645178D01*
X151986500Y-56627500D01*
X151880846Y-56584894D01*
X151859500Y-56525366D01*
X151814989Y-56457752D01*
X151699972Y-56461888D01*
X151542223Y-56529088D01*
X151369516Y-56650666D01*
X151322086Y-56693435D01*
X151158143Y-56844822D01*
X150957138Y-57024094D01*
X150854777Y-57113121D01*
X150549772Y-57450580D01*
X150350857Y-57832713D01*
X150253847Y-58241202D01*
X150254555Y-58657728D01*
X150348795Y-59063975D01*
X150532379Y-59441624D01*
X150801122Y-59772357D01*
X151150837Y-60037858D01*
X151563917Y-60215875D01*
X152042818Y-60299995D01*
X152507288Y-60260635D01*
X152670917Y-60217172D01*
X153081295Y-60024308D01*
X153444305Y-59723384D01*
X153741924Y-59329904D01*
X153780424Y-59262750D01*
X153855062Y-59099573D01*
X153898605Y-58918742D01*
X153918338Y-58679374D01*
X153921858Y-58469000D01*
X153904427Y-58229923D01*
X153628965Y-58229923D01*
X153624046Y-58622634D01*
X153531271Y-59008645D01*
X153359082Y-59354094D01*
X153115920Y-59625116D01*
X153094424Y-59641981D01*
X152713842Y-59858873D01*
X152298775Y-59967196D01*
X151875185Y-59965019D01*
X151469036Y-59850410D01*
X151319601Y-59774019D01*
X150994056Y-59516477D01*
X150752953Y-59188254D01*
X150604047Y-58813923D01*
X150555091Y-58418056D01*
X150613841Y-58025226D01*
X150699706Y-57809680D01*
X150791995Y-57626611D01*
X150950924Y-57904930D01*
X151162455Y-58290147D01*
X151315764Y-58609877D01*
X151426522Y-58901923D01*
X151510395Y-59204093D01*
X151535443Y-59315258D01*
X151592516Y-59568257D01*
X151640425Y-59724462D01*
X151694698Y-59811654D01*
X151770863Y-59857617D01*
X151852122Y-59881855D01*
X152052864Y-59904139D01*
X152281725Y-59890215D01*
X152320586Y-59883463D01*
X152582761Y-59831615D01*
X152663561Y-59393820D01*
X152759249Y-59030485D01*
X152915359Y-58612791D01*
X153113271Y-58185781D01*
X153305586Y-57840747D01*
X153437669Y-57625244D01*
X153537585Y-57864377D01*
X153628965Y-58229923D01*
X153904427Y-58229923D01*
X153888663Y-58013722D01*
X153779544Y-57642198D01*
X153584109Y-57329394D01*
X153353840Y-57100568D01*
X153160661Y-56937405D01*
X152971627Y-56776581D01*
X152907250Y-56721413D01*
X152679452Y-56535979D01*
X152525745Y-56446226D01*
X152432034Y-56456447D01*
G37*
X152432034Y-56456447D02*
X152384221Y-56570933D01*
X152368210Y-56793977D01*
X152367500Y-56885779D01*
X152369576Y-57118501D01*
X152381622Y-57249031D01*
X152412369Y-57302172D01*
X152470545Y-57302724D01*
X152510375Y-57291714D01*
X152665577Y-57220279D01*
X152743099Y-57163568D01*
X152822474Y-57117097D01*
X152919612Y-57145319D01*
X153012690Y-57206255D01*
X153192433Y-57334243D01*
X152809327Y-57837511D01*
X152555609Y-58143070D01*
X152336868Y-58332834D01*
X152136733Y-58406754D01*
X151938838Y-58364776D01*
X151726812Y-58206850D01*
X151484288Y-57932926D01*
X151406928Y-57833118D01*
X151239956Y-57610562D01*
X151140799Y-57464640D01*
X151099629Y-57371480D01*
X151106621Y-57307214D01*
X151151949Y-57247971D01*
X151161808Y-57237667D01*
X151242546Y-57166522D01*
X151324163Y-57150898D01*
X151454003Y-57188831D01*
X151538745Y-57222038D01*
X151703704Y-57282011D01*
X151789143Y-57289334D01*
X151830624Y-57245077D01*
X151836443Y-57230995D01*
X151923124Y-57150474D01*
X151993294Y-57135500D01*
X152092459Y-57093921D01*
X152113500Y-57040250D01*
X152060561Y-56962678D01*
X151986500Y-56945000D01*
X151883315Y-56918407D01*
X151859500Y-56881500D01*
X151912685Y-56829907D01*
X151986500Y-56818000D01*
X152089929Y-56778295D01*
X152113500Y-56722750D01*
X152060561Y-56645178D01*
X151986500Y-56627500D01*
X151880846Y-56584894D01*
X151859500Y-56525366D01*
X151814989Y-56457752D01*
X151699972Y-56461888D01*
X151542223Y-56529088D01*
X151369516Y-56650666D01*
X151322086Y-56693435D01*
X151158143Y-56844822D01*
X150957138Y-57024094D01*
X150854777Y-57113121D01*
X150549772Y-57450580D01*
X150350857Y-57832713D01*
X150253847Y-58241202D01*
X150254555Y-58657728D01*
X150348795Y-59063975D01*
X150532379Y-59441624D01*
X150801122Y-59772357D01*
X151150837Y-60037858D01*
X151563917Y-60215875D01*
X152042818Y-60299995D01*
X152507288Y-60260635D01*
X152670917Y-60217172D01*
X153081295Y-60024308D01*
X153444305Y-59723384D01*
X153741924Y-59329904D01*
X153780424Y-59262750D01*
X153855062Y-59099573D01*
X153898605Y-58918742D01*
X153918338Y-58679374D01*
X153921858Y-58469000D01*
X153904427Y-58229923D01*
X153628965Y-58229923D01*
X153624046Y-58622634D01*
X153531271Y-59008645D01*
X153359082Y-59354094D01*
X153115920Y-59625116D01*
X153094424Y-59641981D01*
X152713842Y-59858873D01*
X152298775Y-59967196D01*
X151875185Y-59965019D01*
X151469036Y-59850410D01*
X151319601Y-59774019D01*
X150994056Y-59516477D01*
X150752953Y-59188254D01*
X150604047Y-58813923D01*
X150555091Y-58418056D01*
X150613841Y-58025226D01*
X150699706Y-57809680D01*
X150791995Y-57626611D01*
X150950924Y-57904930D01*
X151162455Y-58290147D01*
X151315764Y-58609877D01*
X151426522Y-58901923D01*
X151510395Y-59204093D01*
X151535443Y-59315258D01*
X151592516Y-59568257D01*
X151640425Y-59724462D01*
X151694698Y-59811654D01*
X151770863Y-59857617D01*
X151852122Y-59881855D01*
X152052864Y-59904139D01*
X152281725Y-59890215D01*
X152320586Y-59883463D01*
X152582761Y-59831615D01*
X152663561Y-59393820D01*
X152759249Y-59030485D01*
X152915359Y-58612791D01*
X153113271Y-58185781D01*
X153305586Y-57840747D01*
X153437669Y-57625244D01*
X153537585Y-57864377D01*
X153628965Y-58229923D01*
X153904427Y-58229923D01*
X153888663Y-58013722D01*
X153779544Y-57642198D01*
X153584109Y-57329394D01*
X153353840Y-57100568D01*
X153160661Y-56937405D01*
X152971627Y-56776581D01*
X152907250Y-56721413D01*
X152679452Y-56535979D01*
X152525745Y-56446226D01*
X152432034Y-56456447D01*
G36*
X151921753Y-57549818D02*
G01*
X151793372Y-57664325D01*
X151741998Y-57750467D01*
X151700996Y-57934860D01*
X151758163Y-58097096D01*
X151884723Y-58218867D01*
X152051903Y-58281867D01*
X152230929Y-58267789D01*
X152389409Y-58162374D01*
X152483383Y-57980547D01*
X152475282Y-57790893D01*
X152380703Y-57629214D01*
X152215238Y-57531311D01*
X152108500Y-57517472D01*
X151921753Y-57549818D01*
G37*
X151921753Y-57549818D02*
X151793372Y-57664325D01*
X151741998Y-57750467D01*
X151700996Y-57934860D01*
X151758163Y-58097096D01*
X151884723Y-58218867D01*
X152051903Y-58281867D01*
X152230929Y-58267789D01*
X152389409Y-58162374D01*
X152483383Y-57980547D01*
X152475282Y-57790893D01*
X152380703Y-57629214D01*
X152215238Y-57531311D01*
X152108500Y-57517472D01*
X151921753Y-57549818D01*
G36*
X152947461Y-55648002D02*
G01*
X152760143Y-55760484D01*
X152622906Y-55865778D01*
X152573028Y-55927252D01*
X152509054Y-56036957D01*
X152396364Y-56178681D01*
X152378062Y-56198875D01*
X152281627Y-56317216D01*
X152279645Y-56363115D01*
X152374906Y-56336393D01*
X152570202Y-56236867D01*
X152671309Y-56179872D01*
X152842145Y-56068534D01*
X152947398Y-55973253D01*
X152965997Y-55921308D01*
X152979863Y-55838434D01*
X153063620Y-55709987D01*
X153106689Y-55660465D01*
X153288250Y-55465752D01*
X152947461Y-55648002D01*
G37*
X152947461Y-55648002D02*
X152760143Y-55760484D01*
X152622906Y-55865778D01*
X152573028Y-55927252D01*
X152509054Y-56036957D01*
X152396364Y-56178681D01*
X152378062Y-56198875D01*
X152281627Y-56317216D01*
X152279645Y-56363115D01*
X152374906Y-56336393D01*
X152570202Y-56236867D01*
X152671309Y-56179872D01*
X152842145Y-56068534D01*
X152947398Y-55973253D01*
X152965997Y-55921308D01*
X152979863Y-55838434D01*
X153063620Y-55709987D01*
X153106689Y-55660465D01*
X153288250Y-55465752D01*
X152947461Y-55648002D01*
G36*
X150945979Y-55524812D02*
G01*
X151022410Y-55625546D01*
X151090582Y-55699612D01*
X151214692Y-55848105D01*
X151235109Y-55929676D01*
X151217653Y-55941865D01*
X151231757Y-55980684D01*
X151326472Y-56059359D01*
X151470400Y-56157882D01*
X151632147Y-56256245D01*
X151780317Y-56334442D01*
X151883512Y-56372466D01*
X151894985Y-56373500D01*
X151888556Y-56333820D01*
X151811255Y-56234002D01*
X151764885Y-56183662D01*
X151662135Y-56056809D01*
X151622255Y-55966026D01*
X151627627Y-55949206D01*
X151600012Y-55899427D01*
X151494280Y-55809342D01*
X151342980Y-55700950D01*
X151178662Y-55596250D01*
X151033876Y-55517240D01*
X150942169Y-55485934D01*
X150945979Y-55524812D01*
G37*
X150945979Y-55524812D02*
X151022410Y-55625546D01*
X151090582Y-55699612D01*
X151214692Y-55848105D01*
X151235109Y-55929676D01*
X151217653Y-55941865D01*
X151231757Y-55980684D01*
X151326472Y-56059359D01*
X151470400Y-56157882D01*
X151632147Y-56256245D01*
X151780317Y-56334442D01*
X151883512Y-56372466D01*
X151894985Y-56373500D01*
X151888556Y-56333820D01*
X151811255Y-56234002D01*
X151764885Y-56183662D01*
X151662135Y-56056809D01*
X151622255Y-55966026D01*
X151627627Y-55949206D01*
X151600012Y-55899427D01*
X151494280Y-55809342D01*
X151342980Y-55700950D01*
X151178662Y-55596250D01*
X151033876Y-55517240D01*
X150942169Y-55485934D01*
X150945979Y-55524812D01*
D14*
%TO.C,R7*%
X116500000Y-69020000D02*
X118500000Y-69020000D01*
X118500000Y-66880000D02*
X116500000Y-66880000D01*
%TO.C,R5*%
X116500000Y-53770000D02*
X118500000Y-53770000D01*
X118500000Y-51630000D02*
X116500000Y-51630000D01*
%TO.C,R12*%
X141400000Y-64030000D02*
X139400000Y-64030000D01*
X139400000Y-66170000D02*
X141400000Y-66170000D01*
%TO.C,R6*%
X116500000Y-61370000D02*
X118500000Y-61370000D01*
X118500000Y-59230000D02*
X116500000Y-59230000D01*
%TO.C,C2*%
X162650000Y-72550000D02*
X161950000Y-72550000D01*
X161950000Y-73750000D02*
X162650000Y-73750000D01*
%TO.C,C3*%
X161600000Y-64450000D02*
X160900000Y-64450000D01*
X160900000Y-65650000D02*
X161600000Y-65650000D01*
%TO.C,C1*%
X161800000Y-67950000D02*
X161100000Y-67950000D01*
X161100000Y-69150000D02*
X161800000Y-69150000D01*
%TO.C,R27*%
X161800000Y-75730000D02*
X162800000Y-75730000D01*
X162800000Y-74370000D02*
X161800000Y-74370000D01*
%TO.C,R19*%
X177200000Y-66620000D02*
X176200000Y-66620000D01*
X176200000Y-67980000D02*
X177200000Y-67980000D01*
%TO.C,R20*%
X184700000Y-65480000D02*
X185700000Y-65480000D01*
X185700000Y-64120000D02*
X184700000Y-64120000D01*
%TO.C,R21*%
X184700000Y-67980000D02*
X185700000Y-67980000D01*
X185700000Y-66620000D02*
X184700000Y-66620000D01*
%TO.C,R25*%
X160750000Y-67480000D02*
X161750000Y-67480000D01*
X161750000Y-66120000D02*
X160750000Y-66120000D01*
%TO.C,R26*%
X160950000Y-70980000D02*
X161950000Y-70980000D01*
X161950000Y-69620000D02*
X160950000Y-69620000D01*
%TO.C,R28*%
X176200000Y-70480000D02*
X177200000Y-70480000D01*
X177200000Y-69120000D02*
X176200000Y-69120000D01*
%TO.C,R31*%
X185700000Y-71620000D02*
X184700000Y-71620000D01*
X184700000Y-72980000D02*
X185700000Y-72980000D01*
%TO.C,R30*%
X185700000Y-69120000D02*
X184700000Y-69120000D01*
X184700000Y-70480000D02*
X185700000Y-70480000D01*
%TO.C,R29*%
X176200000Y-72980000D02*
X177200000Y-72980000D01*
X177200000Y-71620000D02*
X176200000Y-71620000D01*
%TO.C,R18*%
X176200000Y-65480000D02*
X177200000Y-65480000D01*
X177200000Y-64120000D02*
X176200000Y-64120000D01*
%TO.C,J4*%
X168316095Y-74939590D02*
X168316095Y-75296733D01*
X168339904Y-75368161D01*
X168387523Y-75415780D01*
X168458952Y-75439590D01*
X168506571Y-75439590D01*
X167863714Y-75106257D02*
X167863714Y-75439590D01*
X167982761Y-74915780D02*
X168101809Y-75272923D01*
X167792285Y-75272923D01*
%TO.C,R3*%
X184233333Y-49926190D02*
X184400000Y-49688095D01*
X184519047Y-49926190D02*
X184519047Y-49426190D01*
X184328571Y-49426190D01*
X184280952Y-49450000D01*
X184257142Y-49473809D01*
X184233333Y-49521428D01*
X184233333Y-49592857D01*
X184257142Y-49640476D01*
X184280952Y-49664285D01*
X184328571Y-49688095D01*
X184519047Y-49688095D01*
X184066666Y-49426190D02*
X183757142Y-49426190D01*
X183923809Y-49616666D01*
X183852380Y-49616666D01*
X183804761Y-49640476D01*
X183780952Y-49664285D01*
X183757142Y-49711904D01*
X183757142Y-49830952D01*
X183780952Y-49878571D01*
X183804761Y-49902380D01*
X183852380Y-49926190D01*
X183995238Y-49926190D01*
X184042857Y-49902380D01*
X184066666Y-49878571D01*
%TO.C,R11*%
X184121428Y-57426190D02*
X184288095Y-57188095D01*
X184407142Y-57426190D02*
X184407142Y-56926190D01*
X184216666Y-56926190D01*
X184169047Y-56950000D01*
X184145238Y-56973809D01*
X184121428Y-57021428D01*
X184121428Y-57092857D01*
X184145238Y-57140476D01*
X184169047Y-57164285D01*
X184216666Y-57188095D01*
X184407142Y-57188095D01*
X183645238Y-57426190D02*
X183930952Y-57426190D01*
X183788095Y-57426190D02*
X183788095Y-56926190D01*
X183835714Y-56997619D01*
X183883333Y-57045238D01*
X183930952Y-57069047D01*
X183169047Y-57426190D02*
X183454761Y-57426190D01*
X183311904Y-57426190D02*
X183311904Y-56926190D01*
X183359523Y-56997619D01*
X183407142Y-57045238D01*
X183454761Y-57069047D01*
%TO.C,R10*%
X184171428Y-54926190D02*
X184338095Y-54688095D01*
X184457142Y-54926190D02*
X184457142Y-54426190D01*
X184266666Y-54426190D01*
X184219047Y-54450000D01*
X184195238Y-54473809D01*
X184171428Y-54521428D01*
X184171428Y-54592857D01*
X184195238Y-54640476D01*
X184219047Y-54664285D01*
X184266666Y-54688095D01*
X184457142Y-54688095D01*
X183695238Y-54926190D02*
X183980952Y-54926190D01*
X183838095Y-54926190D02*
X183838095Y-54426190D01*
X183885714Y-54497619D01*
X183933333Y-54545238D01*
X183980952Y-54569047D01*
X183385714Y-54426190D02*
X183338095Y-54426190D01*
X183290476Y-54450000D01*
X183266666Y-54473809D01*
X183242857Y-54521428D01*
X183219047Y-54616666D01*
X183219047Y-54735714D01*
X183242857Y-54830952D01*
X183266666Y-54878571D01*
X183290476Y-54902380D01*
X183338095Y-54926190D01*
X183385714Y-54926190D01*
X183433333Y-54902380D01*
X183457142Y-54878571D01*
X183480952Y-54830952D01*
X183504761Y-54735714D01*
X183504761Y-54616666D01*
X183480952Y-54521428D01*
X183457142Y-54473809D01*
X183433333Y-54450000D01*
X183385714Y-54426190D01*
%TO.C,R9*%
X174933333Y-57626190D02*
X175100000Y-57388095D01*
X175219047Y-57626190D02*
X175219047Y-57126190D01*
X175028571Y-57126190D01*
X174980952Y-57150000D01*
X174957142Y-57173809D01*
X174933333Y-57221428D01*
X174933333Y-57292857D01*
X174957142Y-57340476D01*
X174980952Y-57364285D01*
X175028571Y-57388095D01*
X175219047Y-57388095D01*
X174695238Y-57626190D02*
X174600000Y-57626190D01*
X174552380Y-57602380D01*
X174528571Y-57578571D01*
X174480952Y-57507142D01*
X174457142Y-57411904D01*
X174457142Y-57221428D01*
X174480952Y-57173809D01*
X174504761Y-57150000D01*
X174552380Y-57126190D01*
X174647619Y-57126190D01*
X174695238Y-57150000D01*
X174719047Y-57173809D01*
X174742857Y-57221428D01*
X174742857Y-57340476D01*
X174719047Y-57388095D01*
X174695238Y-57411904D01*
X174647619Y-57435714D01*
X174552380Y-57435714D01*
X174504761Y-57411904D01*
X174480952Y-57388095D01*
X174457142Y-57340476D01*
%TO.C,R8*%
X174933333Y-55176190D02*
X175100000Y-54938095D01*
X175219047Y-55176190D02*
X175219047Y-54676190D01*
X175028571Y-54676190D01*
X174980952Y-54700000D01*
X174957142Y-54723809D01*
X174933333Y-54771428D01*
X174933333Y-54842857D01*
X174957142Y-54890476D01*
X174980952Y-54914285D01*
X175028571Y-54938095D01*
X175219047Y-54938095D01*
X174647619Y-54890476D02*
X174695238Y-54866666D01*
X174719047Y-54842857D01*
X174742857Y-54795238D01*
X174742857Y-54771428D01*
X174719047Y-54723809D01*
X174695238Y-54700000D01*
X174647619Y-54676190D01*
X174552380Y-54676190D01*
X174504761Y-54700000D01*
X174480952Y-54723809D01*
X174457142Y-54771428D01*
X174457142Y-54795238D01*
X174480952Y-54842857D01*
X174504761Y-54866666D01*
X174552380Y-54890476D01*
X174647619Y-54890476D01*
X174695238Y-54914285D01*
X174719047Y-54938095D01*
X174742857Y-54985714D01*
X174742857Y-55080952D01*
X174719047Y-55128571D01*
X174695238Y-55152380D01*
X174647619Y-55176190D01*
X174552380Y-55176190D01*
X174504761Y-55152380D01*
X174480952Y-55128571D01*
X174457142Y-55080952D01*
X174457142Y-54985714D01*
X174480952Y-54938095D01*
X174504761Y-54914285D01*
X174552380Y-54890476D01*
%TO.C,R2*%
X174933333Y-52676190D02*
X175100000Y-52438095D01*
X175219047Y-52676190D02*
X175219047Y-52176190D01*
X175028571Y-52176190D01*
X174980952Y-52200000D01*
X174957142Y-52223809D01*
X174933333Y-52271428D01*
X174933333Y-52342857D01*
X174957142Y-52390476D01*
X174980952Y-52414285D01*
X175028571Y-52438095D01*
X175219047Y-52438095D01*
X174742857Y-52223809D02*
X174719047Y-52200000D01*
X174671428Y-52176190D01*
X174552380Y-52176190D01*
X174504761Y-52200000D01*
X174480952Y-52223809D01*
X174457142Y-52271428D01*
X174457142Y-52319047D01*
X174480952Y-52390476D01*
X174766666Y-52676190D01*
X174457142Y-52676190D01*
%TO.C,R4*%
X184233333Y-52426190D02*
X184400000Y-52188095D01*
X184519047Y-52426190D02*
X184519047Y-51926190D01*
X184328571Y-51926190D01*
X184280952Y-51950000D01*
X184257142Y-51973809D01*
X184233333Y-52021428D01*
X184233333Y-52092857D01*
X184257142Y-52140476D01*
X184280952Y-52164285D01*
X184328571Y-52188095D01*
X184519047Y-52188095D01*
X183804761Y-52092857D02*
X183804761Y-52426190D01*
X183923809Y-51902380D02*
X184042857Y-52259523D01*
X183733333Y-52259523D01*
%TO.C,R1*%
X174933333Y-50126190D02*
X175100000Y-49888095D01*
X175219047Y-50126190D02*
X175219047Y-49626190D01*
X175028571Y-49626190D01*
X174980952Y-49650000D01*
X174957142Y-49673809D01*
X174933333Y-49721428D01*
X174933333Y-49792857D01*
X174957142Y-49840476D01*
X174980952Y-49864285D01*
X175028571Y-49888095D01*
X175219047Y-49888095D01*
X174457142Y-50126190D02*
X174742857Y-50126190D01*
X174600000Y-50126190D02*
X174600000Y-49626190D01*
X174647619Y-49697619D01*
X174695238Y-49745238D01*
X174742857Y-49769047D01*
%TO.C,R15*%
X146511428Y-67021190D02*
X146678095Y-66783095D01*
X146797142Y-67021190D02*
X146797142Y-66521190D01*
X146606666Y-66521190D01*
X146559047Y-66545000D01*
X146535238Y-66568809D01*
X146511428Y-66616428D01*
X146511428Y-66687857D01*
X146535238Y-66735476D01*
X146559047Y-66759285D01*
X146606666Y-66783095D01*
X146797142Y-66783095D01*
X146035238Y-67021190D02*
X146320952Y-67021190D01*
X146178095Y-67021190D02*
X146178095Y-66521190D01*
X146225714Y-66592619D01*
X146273333Y-66640238D01*
X146320952Y-66664047D01*
X145582857Y-66521190D02*
X145820952Y-66521190D01*
X145844761Y-66759285D01*
X145820952Y-66735476D01*
X145773333Y-66711666D01*
X145654285Y-66711666D01*
X145606666Y-66735476D01*
X145582857Y-66759285D01*
X145559047Y-66806904D01*
X145559047Y-66925952D01*
X145582857Y-66973571D01*
X145606666Y-66997380D01*
X145654285Y-67021190D01*
X145773333Y-67021190D01*
X145820952Y-66997380D01*
X145844761Y-66973571D01*
%TO.C,R24*%
X152304428Y-74210790D02*
X152471095Y-73972695D01*
X152590142Y-74210790D02*
X152590142Y-73710790D01*
X152399666Y-73710790D01*
X152352047Y-73734600D01*
X152328238Y-73758409D01*
X152304428Y-73806028D01*
X152304428Y-73877457D01*
X152328238Y-73925076D01*
X152352047Y-73948885D01*
X152399666Y-73972695D01*
X152590142Y-73972695D01*
X152113952Y-73758409D02*
X152090142Y-73734600D01*
X152042523Y-73710790D01*
X151923476Y-73710790D01*
X151875857Y-73734600D01*
X151852047Y-73758409D01*
X151828238Y-73806028D01*
X151828238Y-73853647D01*
X151852047Y-73925076D01*
X152137761Y-74210790D01*
X151828238Y-74210790D01*
X151399666Y-73877457D02*
X151399666Y-74210790D01*
X151518714Y-73686980D02*
X151637761Y-74044123D01*
X151328238Y-74044123D01*
%TO.C,R23*%
X152321428Y-69066790D02*
X152488095Y-68828695D01*
X152607142Y-69066790D02*
X152607142Y-68566790D01*
X152416666Y-68566790D01*
X152369047Y-68590600D01*
X152345238Y-68614409D01*
X152321428Y-68662028D01*
X152321428Y-68733457D01*
X152345238Y-68781076D01*
X152369047Y-68804885D01*
X152416666Y-68828695D01*
X152607142Y-68828695D01*
X152130952Y-68614409D02*
X152107142Y-68590600D01*
X152059523Y-68566790D01*
X151940476Y-68566790D01*
X151892857Y-68590600D01*
X151869047Y-68614409D01*
X151845238Y-68662028D01*
X151845238Y-68709647D01*
X151869047Y-68781076D01*
X152154761Y-69066790D01*
X151845238Y-69066790D01*
X151678571Y-68566790D02*
X151369047Y-68566790D01*
X151535714Y-68757266D01*
X151464285Y-68757266D01*
X151416666Y-68781076D01*
X151392857Y-68804885D01*
X151369047Y-68852504D01*
X151369047Y-68971552D01*
X151392857Y-69019171D01*
X151416666Y-69042980D01*
X151464285Y-69066790D01*
X151607142Y-69066790D01*
X151654761Y-69042980D01*
X151678571Y-69019171D01*
%TO.C,R22*%
X152671428Y-67021190D02*
X152838095Y-66783095D01*
X152957142Y-67021190D02*
X152957142Y-66521190D01*
X152766666Y-66521190D01*
X152719047Y-66545000D01*
X152695238Y-66568809D01*
X152671428Y-66616428D01*
X152671428Y-66687857D01*
X152695238Y-66735476D01*
X152719047Y-66759285D01*
X152766666Y-66783095D01*
X152957142Y-66783095D01*
X152480952Y-66568809D02*
X152457142Y-66545000D01*
X152409523Y-66521190D01*
X152290476Y-66521190D01*
X152242857Y-66545000D01*
X152219047Y-66568809D01*
X152195238Y-66616428D01*
X152195238Y-66664047D01*
X152219047Y-66735476D01*
X152504761Y-67021190D01*
X152195238Y-67021190D01*
X152004761Y-66568809D02*
X151980952Y-66545000D01*
X151933333Y-66521190D01*
X151814285Y-66521190D01*
X151766666Y-66545000D01*
X151742857Y-66568809D01*
X151719047Y-66616428D01*
X151719047Y-66664047D01*
X151742857Y-66735476D01*
X152028571Y-67021190D01*
X151719047Y-67021190D01*
%TO.C,R17*%
X146521428Y-74200790D02*
X146688095Y-73962695D01*
X146807142Y-74200790D02*
X146807142Y-73700790D01*
X146616666Y-73700790D01*
X146569047Y-73724600D01*
X146545238Y-73748409D01*
X146521428Y-73796028D01*
X146521428Y-73867457D01*
X146545238Y-73915076D01*
X146569047Y-73938885D01*
X146616666Y-73962695D01*
X146807142Y-73962695D01*
X146045238Y-74200790D02*
X146330952Y-74200790D01*
X146188095Y-74200790D02*
X146188095Y-73700790D01*
X146235714Y-73772219D01*
X146283333Y-73819838D01*
X146330952Y-73843647D01*
X145878571Y-73700790D02*
X145545238Y-73700790D01*
X145759523Y-74200790D01*
%TO.C,R16*%
X146521428Y-69066790D02*
X146688095Y-68828695D01*
X146807142Y-69066790D02*
X146807142Y-68566790D01*
X146616666Y-68566790D01*
X146569047Y-68590600D01*
X146545238Y-68614409D01*
X146521428Y-68662028D01*
X146521428Y-68733457D01*
X146545238Y-68781076D01*
X146569047Y-68804885D01*
X146616666Y-68828695D01*
X146807142Y-68828695D01*
X146045238Y-69066790D02*
X146330952Y-69066790D01*
X146188095Y-69066790D02*
X146188095Y-68566790D01*
X146235714Y-68638219D01*
X146283333Y-68685838D01*
X146330952Y-68709647D01*
X145616666Y-68566790D02*
X145711904Y-68566790D01*
X145759523Y-68590600D01*
X145783333Y-68614409D01*
X145830952Y-68685838D01*
X145854761Y-68781076D01*
X145854761Y-68971552D01*
X145830952Y-69019171D01*
X145807142Y-69042980D01*
X145759523Y-69066790D01*
X145664285Y-69066790D01*
X145616666Y-69042980D01*
X145592857Y-69019171D01*
X145569047Y-68971552D01*
X145569047Y-68852504D01*
X145592857Y-68804885D01*
X145616666Y-68781076D01*
X145664285Y-68757266D01*
X145759523Y-68757266D01*
X145807142Y-68781076D01*
X145830952Y-68804885D01*
X145854761Y-68852504D01*
%TO.C,R13*%
X140721428Y-69066790D02*
X140888095Y-68828695D01*
X141007142Y-69066790D02*
X141007142Y-68566790D01*
X140816666Y-68566790D01*
X140769047Y-68590600D01*
X140745238Y-68614409D01*
X140721428Y-68662028D01*
X140721428Y-68733457D01*
X140745238Y-68781076D01*
X140769047Y-68804885D01*
X140816666Y-68828695D01*
X141007142Y-68828695D01*
X140245238Y-69066790D02*
X140530952Y-69066790D01*
X140388095Y-69066790D02*
X140388095Y-68566790D01*
X140435714Y-68638219D01*
X140483333Y-68685838D01*
X140530952Y-68709647D01*
X140078571Y-68566790D02*
X139769047Y-68566790D01*
X139935714Y-68757266D01*
X139864285Y-68757266D01*
X139816666Y-68781076D01*
X139792857Y-68804885D01*
X139769047Y-68852504D01*
X139769047Y-68971552D01*
X139792857Y-69019171D01*
X139816666Y-69042980D01*
X139864285Y-69066790D01*
X140007142Y-69066790D01*
X140054761Y-69042980D01*
X140078571Y-69019171D01*
%TO.C,R14*%
X140721428Y-74200790D02*
X140888095Y-73962695D01*
X141007142Y-74200790D02*
X141007142Y-73700790D01*
X140816666Y-73700790D01*
X140769047Y-73724600D01*
X140745238Y-73748409D01*
X140721428Y-73796028D01*
X140721428Y-73867457D01*
X140745238Y-73915076D01*
X140769047Y-73938885D01*
X140816666Y-73962695D01*
X141007142Y-73962695D01*
X140245238Y-74200790D02*
X140530952Y-74200790D01*
X140388095Y-74200790D02*
X140388095Y-73700790D01*
X140435714Y-73772219D01*
X140483333Y-73819838D01*
X140530952Y-73843647D01*
X139816666Y-73867457D02*
X139816666Y-74200790D01*
X139935714Y-73676980D02*
X140054761Y-74034123D01*
X139745238Y-74034123D01*
%TO.C,R7*%
X117583333Y-66326190D02*
X117750000Y-66088095D01*
X117869047Y-66326190D02*
X117869047Y-65826190D01*
X117678571Y-65826190D01*
X117630952Y-65850000D01*
X117607142Y-65873809D01*
X117583333Y-65921428D01*
X117583333Y-65992857D01*
X117607142Y-66040476D01*
X117630952Y-66064285D01*
X117678571Y-66088095D01*
X117869047Y-66088095D01*
X117416666Y-65826190D02*
X117083333Y-65826190D01*
X117297619Y-66326190D01*
%TO.C,R5*%
X117583333Y-51021190D02*
X117750000Y-50783095D01*
X117869047Y-51021190D02*
X117869047Y-50521190D01*
X117678571Y-50521190D01*
X117630952Y-50545000D01*
X117607142Y-50568809D01*
X117583333Y-50616428D01*
X117583333Y-50687857D01*
X117607142Y-50735476D01*
X117630952Y-50759285D01*
X117678571Y-50783095D01*
X117869047Y-50783095D01*
X117130952Y-50521190D02*
X117369047Y-50521190D01*
X117392857Y-50759285D01*
X117369047Y-50735476D01*
X117321428Y-50711666D01*
X117202380Y-50711666D01*
X117154761Y-50735476D01*
X117130952Y-50759285D01*
X117107142Y-50806904D01*
X117107142Y-50925952D01*
X117130952Y-50973571D01*
X117154761Y-50997380D01*
X117202380Y-51021190D01*
X117321428Y-51021190D01*
X117369047Y-50997380D01*
X117392857Y-50973571D01*
%TO.C,R12*%
X140681428Y-67021190D02*
X140848095Y-66783095D01*
X140967142Y-67021190D02*
X140967142Y-66521190D01*
X140776666Y-66521190D01*
X140729047Y-66545000D01*
X140705238Y-66568809D01*
X140681428Y-66616428D01*
X140681428Y-66687857D01*
X140705238Y-66735476D01*
X140729047Y-66759285D01*
X140776666Y-66783095D01*
X140967142Y-66783095D01*
X140205238Y-67021190D02*
X140490952Y-67021190D01*
X140348095Y-67021190D02*
X140348095Y-66521190D01*
X140395714Y-66592619D01*
X140443333Y-66640238D01*
X140490952Y-66664047D01*
X140014761Y-66568809D02*
X139990952Y-66545000D01*
X139943333Y-66521190D01*
X139824285Y-66521190D01*
X139776666Y-66545000D01*
X139752857Y-66568809D01*
X139729047Y-66616428D01*
X139729047Y-66664047D01*
X139752857Y-66735476D01*
X140038571Y-67021190D01*
X139729047Y-67021190D01*
%TO.C,R6*%
X117456333Y-58748190D02*
X117623000Y-58510095D01*
X117742047Y-58748190D02*
X117742047Y-58248190D01*
X117551571Y-58248190D01*
X117503952Y-58272000D01*
X117480142Y-58295809D01*
X117456333Y-58343428D01*
X117456333Y-58414857D01*
X117480142Y-58462476D01*
X117503952Y-58486285D01*
X117551571Y-58510095D01*
X117742047Y-58510095D01*
X117027761Y-58248190D02*
X117123000Y-58248190D01*
X117170619Y-58272000D01*
X117194428Y-58295809D01*
X117242047Y-58367238D01*
X117265857Y-58462476D01*
X117265857Y-58652952D01*
X117242047Y-58700571D01*
X117218238Y-58724380D01*
X117170619Y-58748190D01*
X117075380Y-58748190D01*
X117027761Y-58724380D01*
X117003952Y-58700571D01*
X116980142Y-58652952D01*
X116980142Y-58533904D01*
X117003952Y-58486285D01*
X117027761Y-58462476D01*
X117075380Y-58438666D01*
X117170619Y-58438666D01*
X117218238Y-58462476D01*
X117242047Y-58486285D01*
X117265857Y-58533904D01*
%TO.C,C2*%
X164503333Y-73360571D02*
X164527142Y-73384380D01*
X164598571Y-73408190D01*
X164646190Y-73408190D01*
X164717619Y-73384380D01*
X164765238Y-73336761D01*
X164789047Y-73289142D01*
X164812857Y-73193904D01*
X164812857Y-73122476D01*
X164789047Y-73027238D01*
X164765238Y-72979619D01*
X164717619Y-72932000D01*
X164646190Y-72908190D01*
X164598571Y-72908190D01*
X164527142Y-72932000D01*
X164503333Y-72955809D01*
X164312857Y-72955809D02*
X164289047Y-72932000D01*
X164241428Y-72908190D01*
X164122380Y-72908190D01*
X164074761Y-72932000D01*
X164050952Y-72955809D01*
X164027142Y-73003428D01*
X164027142Y-73051047D01*
X164050952Y-73122476D01*
X164336666Y-73408190D01*
X164027142Y-73408190D01*
%TO.C,C3*%
X159433333Y-65298571D02*
X159457142Y-65322380D01*
X159528571Y-65346190D01*
X159576190Y-65346190D01*
X159647619Y-65322380D01*
X159695238Y-65274761D01*
X159719047Y-65227142D01*
X159742857Y-65131904D01*
X159742857Y-65060476D01*
X159719047Y-64965238D01*
X159695238Y-64917619D01*
X159647619Y-64870000D01*
X159576190Y-64846190D01*
X159528571Y-64846190D01*
X159457142Y-64870000D01*
X159433333Y-64893809D01*
X159266666Y-64846190D02*
X158957142Y-64846190D01*
X159123809Y-65036666D01*
X159052380Y-65036666D01*
X159004761Y-65060476D01*
X158980952Y-65084285D01*
X158957142Y-65131904D01*
X158957142Y-65250952D01*
X158980952Y-65298571D01*
X159004761Y-65322380D01*
X159052380Y-65346190D01*
X159195238Y-65346190D01*
X159242857Y-65322380D01*
X159266666Y-65298571D01*
%TO.C,C1*%
X159343333Y-68698571D02*
X159367142Y-68722380D01*
X159438571Y-68746190D01*
X159486190Y-68746190D01*
X159557619Y-68722380D01*
X159605238Y-68674761D01*
X159629047Y-68627142D01*
X159652857Y-68531904D01*
X159652857Y-68460476D01*
X159629047Y-68365238D01*
X159605238Y-68317619D01*
X159557619Y-68270000D01*
X159486190Y-68246190D01*
X159438571Y-68246190D01*
X159367142Y-68270000D01*
X159343333Y-68293809D01*
X158867142Y-68746190D02*
X159152857Y-68746190D01*
X159010000Y-68746190D02*
X159010000Y-68246190D01*
X159057619Y-68317619D01*
X159105238Y-68365238D01*
X159152857Y-68389047D01*
%TO.C,R27*%
X164868428Y-75313190D02*
X165035095Y-75075095D01*
X165154142Y-75313190D02*
X165154142Y-74813190D01*
X164963666Y-74813190D01*
X164916047Y-74837000D01*
X164892238Y-74860809D01*
X164868428Y-74908428D01*
X164868428Y-74979857D01*
X164892238Y-75027476D01*
X164916047Y-75051285D01*
X164963666Y-75075095D01*
X165154142Y-75075095D01*
X164677952Y-74860809D02*
X164654142Y-74837000D01*
X164606523Y-74813190D01*
X164487476Y-74813190D01*
X164439857Y-74837000D01*
X164416047Y-74860809D01*
X164392238Y-74908428D01*
X164392238Y-74956047D01*
X164416047Y-75027476D01*
X164701761Y-75313190D01*
X164392238Y-75313190D01*
X164225571Y-74813190D02*
X163892238Y-74813190D01*
X164106523Y-75313190D01*
%TO.C,R19*%
X174921428Y-66776190D02*
X175088095Y-66538095D01*
X175207142Y-66776190D02*
X175207142Y-66276190D01*
X175016666Y-66276190D01*
X174969047Y-66300000D01*
X174945238Y-66323809D01*
X174921428Y-66371428D01*
X174921428Y-66442857D01*
X174945238Y-66490476D01*
X174969047Y-66514285D01*
X175016666Y-66538095D01*
X175207142Y-66538095D01*
X174445238Y-66776190D02*
X174730952Y-66776190D01*
X174588095Y-66776190D02*
X174588095Y-66276190D01*
X174635714Y-66347619D01*
X174683333Y-66395238D01*
X174730952Y-66419047D01*
X174207142Y-66776190D02*
X174111904Y-66776190D01*
X174064285Y-66752380D01*
X174040476Y-66728571D01*
X173992857Y-66657142D01*
X173969047Y-66561904D01*
X173969047Y-66371428D01*
X173992857Y-66323809D01*
X174016666Y-66300000D01*
X174064285Y-66276190D01*
X174159523Y-66276190D01*
X174207142Y-66300000D01*
X174230952Y-66323809D01*
X174254761Y-66371428D01*
X174254761Y-66490476D01*
X174230952Y-66538095D01*
X174207142Y-66561904D01*
X174159523Y-66585714D01*
X174064285Y-66585714D01*
X174016666Y-66561904D01*
X173992857Y-66538095D01*
X173969047Y-66490476D01*
%TO.C,R20*%
X184071428Y-64026190D02*
X184238095Y-63788095D01*
X184357142Y-64026190D02*
X184357142Y-63526190D01*
X184166666Y-63526190D01*
X184119047Y-63550000D01*
X184095238Y-63573809D01*
X184071428Y-63621428D01*
X184071428Y-63692857D01*
X184095238Y-63740476D01*
X184119047Y-63764285D01*
X184166666Y-63788095D01*
X184357142Y-63788095D01*
X183880952Y-63573809D02*
X183857142Y-63550000D01*
X183809523Y-63526190D01*
X183690476Y-63526190D01*
X183642857Y-63550000D01*
X183619047Y-63573809D01*
X183595238Y-63621428D01*
X183595238Y-63669047D01*
X183619047Y-63740476D01*
X183904761Y-64026190D01*
X183595238Y-64026190D01*
X183285714Y-63526190D02*
X183238095Y-63526190D01*
X183190476Y-63550000D01*
X183166666Y-63573809D01*
X183142857Y-63621428D01*
X183119047Y-63716666D01*
X183119047Y-63835714D01*
X183142857Y-63930952D01*
X183166666Y-63978571D01*
X183190476Y-64002380D01*
X183238095Y-64026190D01*
X183285714Y-64026190D01*
X183333333Y-64002380D01*
X183357142Y-63978571D01*
X183380952Y-63930952D01*
X183404761Y-63835714D01*
X183404761Y-63716666D01*
X183380952Y-63621428D01*
X183357142Y-63573809D01*
X183333333Y-63550000D01*
X183285714Y-63526190D01*
%TO.C,R21*%
X184021428Y-66526190D02*
X184188095Y-66288095D01*
X184307142Y-66526190D02*
X184307142Y-66026190D01*
X184116666Y-66026190D01*
X184069047Y-66050000D01*
X184045238Y-66073809D01*
X184021428Y-66121428D01*
X184021428Y-66192857D01*
X184045238Y-66240476D01*
X184069047Y-66264285D01*
X184116666Y-66288095D01*
X184307142Y-66288095D01*
X183830952Y-66073809D02*
X183807142Y-66050000D01*
X183759523Y-66026190D01*
X183640476Y-66026190D01*
X183592857Y-66050000D01*
X183569047Y-66073809D01*
X183545238Y-66121428D01*
X183545238Y-66169047D01*
X183569047Y-66240476D01*
X183854761Y-66526190D01*
X183545238Y-66526190D01*
X183069047Y-66526190D02*
X183354761Y-66526190D01*
X183211904Y-66526190D02*
X183211904Y-66026190D01*
X183259523Y-66097619D01*
X183307142Y-66145238D01*
X183354761Y-66169047D01*
%TO.C,R25*%
X159561428Y-67056190D02*
X159728095Y-66818095D01*
X159847142Y-67056190D02*
X159847142Y-66556190D01*
X159656666Y-66556190D01*
X159609047Y-66580000D01*
X159585238Y-66603809D01*
X159561428Y-66651428D01*
X159561428Y-66722857D01*
X159585238Y-66770476D01*
X159609047Y-66794285D01*
X159656666Y-66818095D01*
X159847142Y-66818095D01*
X159370952Y-66603809D02*
X159347142Y-66580000D01*
X159299523Y-66556190D01*
X159180476Y-66556190D01*
X159132857Y-66580000D01*
X159109047Y-66603809D01*
X159085238Y-66651428D01*
X159085238Y-66699047D01*
X159109047Y-66770476D01*
X159394761Y-67056190D01*
X159085238Y-67056190D01*
X158632857Y-66556190D02*
X158870952Y-66556190D01*
X158894761Y-66794285D01*
X158870952Y-66770476D01*
X158823333Y-66746666D01*
X158704285Y-66746666D01*
X158656666Y-66770476D01*
X158632857Y-66794285D01*
X158609047Y-66841904D01*
X158609047Y-66960952D01*
X158632857Y-67008571D01*
X158656666Y-67032380D01*
X158704285Y-67056190D01*
X158823333Y-67056190D01*
X158870952Y-67032380D01*
X158894761Y-67008571D01*
%TO.C,R26*%
X159621428Y-70516190D02*
X159788095Y-70278095D01*
X159907142Y-70516190D02*
X159907142Y-70016190D01*
X159716666Y-70016190D01*
X159669047Y-70040000D01*
X159645238Y-70063809D01*
X159621428Y-70111428D01*
X159621428Y-70182857D01*
X159645238Y-70230476D01*
X159669047Y-70254285D01*
X159716666Y-70278095D01*
X159907142Y-70278095D01*
X159430952Y-70063809D02*
X159407142Y-70040000D01*
X159359523Y-70016190D01*
X159240476Y-70016190D01*
X159192857Y-70040000D01*
X159169047Y-70063809D01*
X159145238Y-70111428D01*
X159145238Y-70159047D01*
X159169047Y-70230476D01*
X159454761Y-70516190D01*
X159145238Y-70516190D01*
X158716666Y-70016190D02*
X158811904Y-70016190D01*
X158859523Y-70040000D01*
X158883333Y-70063809D01*
X158930952Y-70135238D01*
X158954761Y-70230476D01*
X158954761Y-70420952D01*
X158930952Y-70468571D01*
X158907142Y-70492380D01*
X158859523Y-70516190D01*
X158764285Y-70516190D01*
X158716666Y-70492380D01*
X158692857Y-70468571D01*
X158669047Y-70420952D01*
X158669047Y-70301904D01*
X158692857Y-70254285D01*
X158716666Y-70230476D01*
X158764285Y-70206666D01*
X158859523Y-70206666D01*
X158907142Y-70230476D01*
X158930952Y-70254285D01*
X158954761Y-70301904D01*
%TO.C,R28*%
X174921428Y-69276190D02*
X175088095Y-69038095D01*
X175207142Y-69276190D02*
X175207142Y-68776190D01*
X175016666Y-68776190D01*
X174969047Y-68800000D01*
X174945238Y-68823809D01*
X174921428Y-68871428D01*
X174921428Y-68942857D01*
X174945238Y-68990476D01*
X174969047Y-69014285D01*
X175016666Y-69038095D01*
X175207142Y-69038095D01*
X174730952Y-68823809D02*
X174707142Y-68800000D01*
X174659523Y-68776190D01*
X174540476Y-68776190D01*
X174492857Y-68800000D01*
X174469047Y-68823809D01*
X174445238Y-68871428D01*
X174445238Y-68919047D01*
X174469047Y-68990476D01*
X174754761Y-69276190D01*
X174445238Y-69276190D01*
X174159523Y-68990476D02*
X174207142Y-68966666D01*
X174230952Y-68942857D01*
X174254761Y-68895238D01*
X174254761Y-68871428D01*
X174230952Y-68823809D01*
X174207142Y-68800000D01*
X174159523Y-68776190D01*
X174064285Y-68776190D01*
X174016666Y-68800000D01*
X173992857Y-68823809D01*
X173969047Y-68871428D01*
X173969047Y-68895238D01*
X173992857Y-68942857D01*
X174016666Y-68966666D01*
X174064285Y-68990476D01*
X174159523Y-68990476D01*
X174207142Y-69014285D01*
X174230952Y-69038095D01*
X174254761Y-69085714D01*
X174254761Y-69180952D01*
X174230952Y-69228571D01*
X174207142Y-69252380D01*
X174159523Y-69276190D01*
X174064285Y-69276190D01*
X174016666Y-69252380D01*
X173992857Y-69228571D01*
X173969047Y-69180952D01*
X173969047Y-69085714D01*
X173992857Y-69038095D01*
X174016666Y-69014285D01*
X174064285Y-68990476D01*
%TO.C,R31*%
X184071428Y-71526190D02*
X184238095Y-71288095D01*
X184357142Y-71526190D02*
X184357142Y-71026190D01*
X184166666Y-71026190D01*
X184119047Y-71050000D01*
X184095238Y-71073809D01*
X184071428Y-71121428D01*
X184071428Y-71192857D01*
X184095238Y-71240476D01*
X184119047Y-71264285D01*
X184166666Y-71288095D01*
X184357142Y-71288095D01*
X183904761Y-71026190D02*
X183595238Y-71026190D01*
X183761904Y-71216666D01*
X183690476Y-71216666D01*
X183642857Y-71240476D01*
X183619047Y-71264285D01*
X183595238Y-71311904D01*
X183595238Y-71430952D01*
X183619047Y-71478571D01*
X183642857Y-71502380D01*
X183690476Y-71526190D01*
X183833333Y-71526190D01*
X183880952Y-71502380D01*
X183904761Y-71478571D01*
X183119047Y-71526190D02*
X183404761Y-71526190D01*
X183261904Y-71526190D02*
X183261904Y-71026190D01*
X183309523Y-71097619D01*
X183357142Y-71145238D01*
X183404761Y-71169047D01*
%TO.C,R30*%
X184071428Y-69026190D02*
X184238095Y-68788095D01*
X184357142Y-69026190D02*
X184357142Y-68526190D01*
X184166666Y-68526190D01*
X184119047Y-68550000D01*
X184095238Y-68573809D01*
X184071428Y-68621428D01*
X184071428Y-68692857D01*
X184095238Y-68740476D01*
X184119047Y-68764285D01*
X184166666Y-68788095D01*
X184357142Y-68788095D01*
X183904761Y-68526190D02*
X183595238Y-68526190D01*
X183761904Y-68716666D01*
X183690476Y-68716666D01*
X183642857Y-68740476D01*
X183619047Y-68764285D01*
X183595238Y-68811904D01*
X183595238Y-68930952D01*
X183619047Y-68978571D01*
X183642857Y-69002380D01*
X183690476Y-69026190D01*
X183833333Y-69026190D01*
X183880952Y-69002380D01*
X183904761Y-68978571D01*
X183285714Y-68526190D02*
X183238095Y-68526190D01*
X183190476Y-68550000D01*
X183166666Y-68573809D01*
X183142857Y-68621428D01*
X183119047Y-68716666D01*
X183119047Y-68835714D01*
X183142857Y-68930952D01*
X183166666Y-68978571D01*
X183190476Y-69002380D01*
X183238095Y-69026190D01*
X183285714Y-69026190D01*
X183333333Y-69002380D01*
X183357142Y-68978571D01*
X183380952Y-68930952D01*
X183404761Y-68835714D01*
X183404761Y-68716666D01*
X183380952Y-68621428D01*
X183357142Y-68573809D01*
X183333333Y-68550000D01*
X183285714Y-68526190D01*
%TO.C,R29*%
X174921428Y-71726190D02*
X175088095Y-71488095D01*
X175207142Y-71726190D02*
X175207142Y-71226190D01*
X175016666Y-71226190D01*
X174969047Y-71250000D01*
X174945238Y-71273809D01*
X174921428Y-71321428D01*
X174921428Y-71392857D01*
X174945238Y-71440476D01*
X174969047Y-71464285D01*
X175016666Y-71488095D01*
X175207142Y-71488095D01*
X174730952Y-71273809D02*
X174707142Y-71250000D01*
X174659523Y-71226190D01*
X174540476Y-71226190D01*
X174492857Y-71250000D01*
X174469047Y-71273809D01*
X174445238Y-71321428D01*
X174445238Y-71369047D01*
X174469047Y-71440476D01*
X174754761Y-71726190D01*
X174445238Y-71726190D01*
X174207142Y-71726190D02*
X174111904Y-71726190D01*
X174064285Y-71702380D01*
X174040476Y-71678571D01*
X173992857Y-71607142D01*
X173969047Y-71511904D01*
X173969047Y-71321428D01*
X173992857Y-71273809D01*
X174016666Y-71250000D01*
X174064285Y-71226190D01*
X174159523Y-71226190D01*
X174207142Y-71250000D01*
X174230952Y-71273809D01*
X174254761Y-71321428D01*
X174254761Y-71440476D01*
X174230952Y-71488095D01*
X174207142Y-71511904D01*
X174159523Y-71535714D01*
X174064285Y-71535714D01*
X174016666Y-71511904D01*
X173992857Y-71488095D01*
X173969047Y-71440476D01*
%TO.C,R18*%
X174921428Y-64276190D02*
X175088095Y-64038095D01*
X175207142Y-64276190D02*
X175207142Y-63776190D01*
X175016666Y-63776190D01*
X174969047Y-63800000D01*
X174945238Y-63823809D01*
X174921428Y-63871428D01*
X174921428Y-63942857D01*
X174945238Y-63990476D01*
X174969047Y-64014285D01*
X175016666Y-64038095D01*
X175207142Y-64038095D01*
X174445238Y-64276190D02*
X174730952Y-64276190D01*
X174588095Y-64276190D02*
X174588095Y-63776190D01*
X174635714Y-63847619D01*
X174683333Y-63895238D01*
X174730952Y-63919047D01*
X174159523Y-63990476D02*
X174207142Y-63966666D01*
X174230952Y-63942857D01*
X174254761Y-63895238D01*
X174254761Y-63871428D01*
X174230952Y-63823809D01*
X174207142Y-63800000D01*
X174159523Y-63776190D01*
X174064285Y-63776190D01*
X174016666Y-63800000D01*
X173992857Y-63823809D01*
X173969047Y-63871428D01*
X173969047Y-63895238D01*
X173992857Y-63942857D01*
X174016666Y-63966666D01*
X174064285Y-63990476D01*
X174159523Y-63990476D01*
X174207142Y-64014285D01*
X174230952Y-64038095D01*
X174254761Y-64085714D01*
X174254761Y-64180952D01*
X174230952Y-64228571D01*
X174207142Y-64252380D01*
X174159523Y-64276190D01*
X174064285Y-64276190D01*
X174016666Y-64252380D01*
X173992857Y-64228571D01*
X173969047Y-64180952D01*
X173969047Y-64085714D01*
X173992857Y-64038095D01*
X174016666Y-64014285D01*
X174064285Y-63990476D01*
%TD*%
M02*
