M48
INCH,TZ
T1C0.0157
T2C0.0276
T3C0.0315
T4C0.0354
T5C0.0472
T6C0.0630
T7C0.0925
%
G90
G05
T1
X53031Y-18907
X53996Y-19921
X54980Y-19783
X54980Y-20256
X54980Y-20709
X55177Y-22106
X56230Y-21890
X56368Y-19764
X56368Y-20246
X56368Y-20738
X56683Y-21890
X56831Y-20787
X57224Y-18228
X57382Y-22559
X57428Y-18894
X57431Y-18474
X57431Y-19301
X58278Y-20482
X58622Y-23770
X58986Y-18396
X58986Y-18888
X59006Y-19350
X59262Y-21181
X59360Y-19990
X59400Y-19085
X59990Y-21545
X60443Y-22224
X60541Y-23789
X60886Y-18307
X60974Y-19656
X61368Y-22549
X61978Y-25354
X61988Y-30551
X62116Y-18307
X62333Y-20187
X62815Y-21299
X63888Y-19065
X64134Y-26299
X64213Y-25591
X64213Y-27677
X64291Y-26969
X64370Y-30551
X64567Y-19567
X64606Y-29528
X64646Y-28780
X65846Y-29429
X66378Y-18248
X66472Y-29224
X66535Y-30571
X67087Y-29390
X67126Y-28780
X67480Y-29390
X67756Y-28543
X67835Y-19823
X67835Y-27697
X68051Y-28819
X68406Y-24232
X68720Y-23937
X68917Y-19961
X68917Y-20945
X68917Y-21929
X68917Y-22913
X68917Y-25512
X68917Y-26496
X68917Y-27480
X68917Y-28465
X70118Y-25138
X70197Y-24252
X70217Y-26811
X71752Y-18307
X71988Y-24291
X72913Y-30531
X73563Y-19961
X73563Y-20945
X73563Y-21929
X73563Y-22913
X73563Y-25512
X73563Y-26496
X73563Y-27480
X73563Y-28465
X75197Y-21083
X75217Y-24272
X75236Y-27008
X75650Y-18209
X75689Y-30610
T2
X64913Y-20991
X64913Y-21779
X64913Y-22566
X64913Y-23353
X64913Y-24928
X64913Y-25716
X64913Y-26503
X64913Y-27290
X64913Y-28078
X65700Y-21385
X65700Y-22172
X65700Y-22960
X65700Y-24534
X65700Y-25322
X65700Y-26109
X65700Y-26897
X65700Y-27684
X65700Y-28471
X66684Y-21404
X66684Y-22192
X66684Y-22979
X66684Y-24554
X66684Y-25341
X66684Y-26129
X66684Y-26916
X66684Y-27704
X66684Y-28491
X67472Y-21011
X67472Y-21798
X67472Y-22586
X67472Y-23373
X67472Y-24948
X67472Y-25735
X67472Y-26523
X67472Y-27310
X67472Y-28097
T3
X46240Y-29331
X48209Y-29331
X51137Y-24878
X51137Y-26846
X62712Y-22830
X62712Y-28893
T4
X50272Y-20413
X51272Y-20413
X52272Y-20413
X53272Y-20413
T5
X43500Y-19360
X43500Y-21360
X43500Y-23360
X43500Y-25360
X43500Y-27360
X43500Y-29360
X70750Y-25510
X70750Y-26494
X70750Y-27479
X70750Y-28463
X71734Y-25510
X71734Y-26494
X71734Y-27479
X71734Y-28463
X70750Y-19960
X70750Y-20944
X70750Y-21929
X70750Y-22913
X71734Y-19960
X71734Y-20944
X71734Y-21929
X71734Y-22913
T6
X74561Y-25510
X74561Y-28463
X74561Y-19960
X74561Y-22913
T7
X66192Y-20302
X66192Y-23904
T0
M30
