G04 #@! TF.GenerationSoftware,KiCad,Pcbnew,(2017-09-19 revision dddaa7e69)-makepkg*
G04 #@! TF.CreationDate,2017-12-07T22:33:37+10:30*
G04 #@! TF.ProjectId,din_power_atm90e26,64696E5F706F7765725F61746D393065,rev?*
G04 #@! TF.SameCoordinates,Original*
G04 #@! TF.FileFunction,Paste,Top*
G04 #@! TF.FilePolarity,Positive*
%FSLAX46Y46*%
G04 Gerber Fmt 4.6, Leading zero omitted, Abs format (unit mm)*
G04 Created by KiCad (PCBNEW (2017-09-19 revision dddaa7e69)-makepkg) date 12/07/17 22:33:37*
%MOMM*%
%LPD*%
G01*
G04 APERTURE LIST*
%ADD10R,1.200000X1.800000*%
%ADD11R,0.600000X1.550000*%
%ADD12R,1.060000X0.650000*%
%ADD13C,0.850000*%
%ADD14C,0.100000*%
%ADD15R,1.000000X1.500000*%
%ADD16R,1.000000X1.800000*%
%ADD17R,2.200000X1.840000*%
%ADD18C,1.000000*%
%ADD19R,0.900000X1.700000*%
%ADD20R,0.900000X0.500000*%
%ADD21R,0.500000X0.900000*%
%ADD22R,0.750000X0.800000*%
%ADD23R,0.800000X0.750000*%
%ADD24R,0.500000X0.500000*%
%ADD25R,0.800000X0.800000*%
%ADD26R,1.270000X3.302000*%
G04 APERTURE END LIST*
D10*
X163625000Y-47412500D03*
X160025000Y-47412500D03*
D11*
X162325000Y-49937500D03*
X161325000Y-49937500D03*
D12*
X153925000Y-50875000D03*
X153925000Y-48975000D03*
X156125000Y-48975000D03*
X156125000Y-49925000D03*
X156125000Y-50875000D03*
D13*
X148025000Y-46658000D03*
D14*
G36*
X146925000Y-47083000D02*
X147525000Y-46233000D01*
X148525000Y-46233000D01*
X149125000Y-47083000D01*
X146925000Y-47083000D01*
X146925000Y-47083000D01*
G37*
D15*
X146525000Y-50805000D03*
D16*
X148025000Y-50658500D03*
D15*
X149525000Y-50805000D03*
D17*
X148025000Y-47991500D03*
D18*
X148025000Y-49401200D03*
D14*
G36*
X149125000Y-48901200D02*
X148425000Y-49901200D01*
X147625000Y-49901200D01*
X146925000Y-48901200D01*
X149125000Y-48901200D01*
X149125000Y-48901200D01*
G37*
D18*
X141400000Y-50023800D03*
D14*
G36*
X140300000Y-50523800D02*
X141000000Y-49523800D01*
X141800000Y-49523800D01*
X142500000Y-50523800D01*
X140300000Y-50523800D01*
X140300000Y-50523800D01*
G37*
D17*
X141400000Y-51433500D03*
D15*
X139900000Y-48620000D03*
D16*
X141400000Y-48766500D03*
D15*
X142900000Y-48620000D03*
D13*
X141400000Y-52767000D03*
D14*
G36*
X142500000Y-52342000D02*
X141900000Y-53192000D01*
X140900000Y-53192000D01*
X140300000Y-52342000D01*
X142500000Y-52342000D01*
X142500000Y-52342000D01*
G37*
D19*
X120498000Y-47367400D03*
X123398000Y-47367400D03*
D20*
X152025000Y-49775000D03*
X152025000Y-51275000D03*
D21*
X156750000Y-52675000D03*
X155250000Y-52675000D03*
D22*
X152025000Y-46675000D03*
X152025000Y-48175000D03*
D23*
X140400000Y-46600000D03*
X138900000Y-46600000D03*
X149025000Y-52675000D03*
X150525000Y-52675000D03*
X145525000Y-52675000D03*
X147025000Y-52675000D03*
X143900000Y-46600000D03*
X142400000Y-46600000D03*
D22*
X157975000Y-48625000D03*
X157975000Y-50125000D03*
D24*
X155725000Y-46925000D03*
X153525000Y-46925000D03*
D25*
X153800000Y-52675000D03*
X152200000Y-52675000D03*
D26*
X115867000Y-55021000D03*
X123233000Y-55021000D03*
X123233000Y-61498000D03*
X115867000Y-61498000D03*
X115867000Y-67900000D03*
X123233000Y-67900000D03*
M02*
