%TF.GenerationSoftware,KiCad,Pcbnew,(5.1.5)-3*%
%TF.CreationDate,2020-03-19T09:51:26+11:00*%
%TF.ProjectId,din_power_atm90e26,64696e5f-706f-4776-9572-5f61746d3930,rev?*%
%TF.SameCoordinates,Original*%
%TF.FileFunction,Copper,L2,Bot*%
%TF.FilePolarity,Positive*%
%FSLAX46Y46*%
G04 Gerber Fmt 4.6, Leading zero omitted, Abs format (unit mm)*
G04 Created by KiCad (PCBNEW (5.1.5)-3) date 2020-03-19 09:51:26*
%MOMM*%
%LPD*%
G04 APERTURE LIST*
%TA.AperFunction,ComponentPad*%
%ADD10C,1.422400*%
%TD*%
%TA.AperFunction,ComponentPad*%
%ADD11C,1.600000*%
%TD*%
%TA.AperFunction,ComponentPad*%
%ADD12C,1.800000*%
%TD*%
%TA.AperFunction,ComponentPad*%
%ADD13R,1.800000X1.800000*%
%TD*%
%TA.AperFunction,ComponentPad*%
%ADD14R,1.308000X1.308000*%
%TD*%
%TA.AperFunction,ComponentPad*%
%ADD15R,1.900000X1.900000*%
%TD*%
%TA.AperFunction,ComponentPad*%
%ADD16C,1.900000*%
%TD*%
%TA.AperFunction,ComponentPad*%
%ADD17O,3.600000X1.800000*%
%TD*%
%TA.AperFunction,ComponentPad*%
%ADD18R,3.600000X1.800000*%
%TD*%
%TA.AperFunction,SMDPad,CuDef*%
%ADD19R,0.500000X0.900000*%
%TD*%
%TA.AperFunction,SMDPad,CuDef*%
%ADD20R,0.900000X1.700000*%
%TD*%
%TA.AperFunction,SMDPad,CuDef*%
%ADD21R,0.800000X0.750000*%
%TD*%
%TA.AperFunction,ViaPad*%
%ADD22C,0.800000*%
%TD*%
%TA.AperFunction,Conductor*%
%ADD23C,1.000000*%
%TD*%
%TA.AperFunction,Conductor*%
%ADD24C,0.500000*%
%TD*%
%TA.AperFunction,Conductor*%
%ADD25C,0.250000*%
%TD*%
%TA.AperFunction,Conductor*%
%ADD26C,0.300000*%
%TD*%
G04 APERTURE END LIST*
D10*
%TO.P,J4,10*%
%TO.N,Net-(J4-Pad10)*%
X169378000Y-62367400D03*
%TO.P,J4,29*%
%TO.N,IA2-*%
X169378000Y-64367400D03*
%TO.P,J4,2*%
%TO.N,IC2-*%
X169378000Y-66367400D03*
%TO.P,J4,21*%
%TO.N,IC1-*%
X169378000Y-68367400D03*
%TO.P,J4,17*%
%TO.N,IB1-*%
X169378000Y-70367400D03*
%TO.P,J4,13*%
%TO.N,IA1-*%
X169378000Y-72367400D03*
%TO.P,J4,11*%
%TO.N,IA1+*%
X171378000Y-71367400D03*
%TO.P,J4,15*%
%TO.N,IB1+*%
X171378000Y-69367400D03*
%TO.P,J4,19*%
%TO.N,IC1+*%
X171378000Y-67367400D03*
%TO.P,J4,35*%
%TO.N,IC2+*%
X171378000Y-65367400D03*
%TO.P,J4,27*%
%TO.N,IA2+*%
X171378000Y-63367400D03*
%TO.P,J4,8*%
%TO.N,+3.3V_ISO*%
X166878000Y-72317400D03*
%TO.P,J4,14*%
%TO.N,Net-(J4-Pad14)*%
X166878000Y-70317400D03*
%TO.P,J4,16*%
%TO.N,Net-(J4-Pad16)*%
X166878000Y-68317400D03*
%TO.P,J4,18*%
%TO.N,Net-(J4-Pad18)*%
X166878000Y-66317400D03*
%TO.P,J4,20*%
%TO.N,Net-(J4-Pad20)*%
X166878000Y-64317400D03*
%TO.P,J4,12*%
%TO.N,Net-(J4-Pad12)*%
X166878000Y-62317400D03*
%TO.P,J4,9*%
%TO.N,+5V_ISO*%
X164878000Y-63317400D03*
%TO.P,J4,7*%
%TO.N,GNDA*%
X164878000Y-65317400D03*
%TO.P,J4,5*%
%TO.N,UA_SAMP*%
X164878000Y-67317400D03*
%TO.P,J4,3*%
%TO.N,UB_SAMP*%
X164878000Y-69317400D03*
%TO.P,J4,1*%
%TO.N,UC_SAMP*%
X164878000Y-71317400D03*
%TO.P,J4,6*%
%TO.N,IN2-*%
X171378000Y-53367400D03*
%TO.P,J4,4*%
%TO.N,IN2+*%
X171378000Y-55367400D03*
%TO.P,J4,25*%
%TO.N,IN1-*%
X171378000Y-57367400D03*
%TO.P,J4,23*%
%TO.N,IN1+*%
X171378000Y-59367400D03*
%TO.P,J4,31*%
%TO.N,IB2+*%
X169378000Y-58367400D03*
%TO.P,J4,33*%
%TO.N,IB2-*%
X169378000Y-56367400D03*
%TO.P,J4,22*%
%TO.N,Net-(J4-Pad22)*%
X169378000Y-54367400D03*
%TO.P,J4,36*%
%TO.N,GNDPWR*%
X164878000Y-59317400D03*
%TO.P,J4,34*%
%TO.N,+5V*%
X164878000Y-57317400D03*
%TO.P,J4,32*%
%TO.N,+3V3*%
X164878000Y-55317400D03*
%TO.P,J4,30*%
%TO.N,VBAT*%
X164878000Y-53317400D03*
%TO.P,J4,28*%
%TO.N,Net-(J4-Pad28)*%
X166878000Y-54317400D03*
%TO.P,J4,26*%
%TO.N,Net-(J4-Pad26)*%
X166878000Y-56317400D03*
%TO.P,J4,24*%
%TO.N,Net-(J4-Pad24)*%
X166878000Y-58317400D03*
%TD*%
D11*
%TO.P,F1,2*%
%TO.N,UN*%
X117450000Y-74500000D03*
%TO.P,F1,1*%
%TO.N,/UN_IN*%
X122450000Y-74500000D03*
%TD*%
D12*
%TO.P,U5,4*%
%TO.N,+5V_ISO*%
X135310000Y-51850000D03*
%TO.P,U5,3*%
%TO.N,GNDA*%
X132770000Y-51850000D03*
%TO.P,U5,2*%
%TO.N,+5V*%
X130230000Y-51850000D03*
D13*
%TO.P,U5,1*%
%TO.N,GNDPWR*%
X127690000Y-51850000D03*
%TD*%
D14*
%TO.P,U4,4*%
%TO.N,+5V*%
X159288000Y-73389000D03*
%TO.P,U4,3*%
%TO.N,GNDPWR*%
X159288000Y-57989000D03*
%TO.P,U4,2*%
%TO.N,/UN_IN*%
X129888000Y-68189000D03*
%TO.P,U4,1*%
%TO.N,UC*%
X129888000Y-63189000D03*
%TD*%
D15*
%TO.P,J5,1*%
%TO.N,IA1+*%
X179705000Y-50698400D03*
D16*
%TO.P,J5,2*%
%TO.N,IA1-*%
X179705000Y-53198400D03*
%TO.P,J5,3*%
%TO.N,IB1+*%
X179705000Y-55698400D03*
%TO.P,J5,4*%
%TO.N,IB1-*%
X179705000Y-58198400D03*
%TO.P,J5,5*%
%TO.N,IC1+*%
X182205000Y-50698400D03*
%TO.P,J5,6*%
%TO.N,IC1-*%
X182205000Y-53198400D03*
%TO.P,J5,7*%
%TO.N,IN1+*%
X182205000Y-55698400D03*
%TO.P,J5,8*%
%TO.N,IN1-*%
X182205000Y-58198400D03*
%TD*%
%TO.P,J3,8*%
%TO.N,IN2-*%
X182205000Y-72295400D03*
%TO.P,J3,7*%
%TO.N,IN2+*%
X182205000Y-69795400D03*
%TO.P,J3,6*%
%TO.N,IC2-*%
X182205000Y-67295400D03*
%TO.P,J3,5*%
%TO.N,IC2+*%
X182205000Y-64795400D03*
%TO.P,J3,4*%
%TO.N,IB2-*%
X179705000Y-72295400D03*
%TO.P,J3,3*%
%TO.N,IB2+*%
X179705000Y-69795400D03*
%TO.P,J3,2*%
%TO.N,IA2-*%
X179705000Y-67295400D03*
D15*
%TO.P,J3,1*%
%TO.N,IA2+*%
X179705000Y-64795400D03*
%TD*%
D17*
%TO.P,J1,6*%
%TO.N,UN*%
X110490000Y-74574400D03*
%TO.P,J1,5*%
%TO.N,UC*%
X110490000Y-69494400D03*
%TO.P,J1,4*%
%TO.N,Net-(J1-Pad4)*%
X110490000Y-64414400D03*
%TO.P,J1,3*%
%TO.N,UB*%
X110490000Y-59334400D03*
%TO.P,J1,2*%
%TO.N,Net-(J1-Pad2)*%
X110490000Y-54254400D03*
D18*
%TO.P,J1,1*%
%TO.N,UA*%
X110490000Y-49174400D03*
%TD*%
D19*
%TO.P,R3,1*%
%TO.N,GNDA*%
X185950000Y-50700000D03*
%TO.P,R3,2*%
%TO.N,IC1+*%
X184450000Y-50700000D03*
%TD*%
%TO.P,R11,2*%
%TO.N,GNDA*%
X185950000Y-58200000D03*
%TO.P,R11,1*%
%TO.N,IN1-*%
X184450000Y-58200000D03*
%TD*%
%TO.P,R10,1*%
%TO.N,GNDA*%
X185950000Y-55700000D03*
%TO.P,R10,2*%
%TO.N,IN1+*%
X184450000Y-55700000D03*
%TD*%
%TO.P,R9,2*%
%TO.N,GNDA*%
X175950000Y-58200000D03*
%TO.P,R9,1*%
%TO.N,IB1-*%
X177450000Y-58200000D03*
%TD*%
%TO.P,R8,1*%
%TO.N,GNDA*%
X175950000Y-55700000D03*
%TO.P,R8,2*%
%TO.N,IB1+*%
X177450000Y-55700000D03*
%TD*%
%TO.P,R2,2*%
%TO.N,GNDA*%
X175950000Y-53200000D03*
%TO.P,R2,1*%
%TO.N,IA1-*%
X177450000Y-53200000D03*
%TD*%
%TO.P,R4,1*%
%TO.N,IC1-*%
X184450000Y-53200000D03*
%TO.P,R4,2*%
%TO.N,GNDA*%
X185950000Y-53200000D03*
%TD*%
%TO.P,R1,1*%
%TO.N,GNDA*%
X175950000Y-50700000D03*
%TO.P,R1,2*%
%TO.N,IA1+*%
X177450000Y-50700000D03*
%TD*%
D20*
%TO.P,R15,2*%
%TO.N,/ua_2*%
X144750000Y-65100000D03*
%TO.P,R15,1*%
%TO.N,/ua_3*%
X147650000Y-65100000D03*
%TD*%
%TO.P,R24,2*%
%TO.N,/uc_3*%
X150550000Y-75550000D03*
%TO.P,R24,1*%
%TO.N,UC_SAMP*%
X153450000Y-75550000D03*
%TD*%
%TO.P,R23,1*%
%TO.N,UB_SAMP*%
X153450000Y-70450000D03*
%TO.P,R23,2*%
%TO.N,/ub_3*%
X150550000Y-70450000D03*
%TD*%
%TO.P,R22,1*%
%TO.N,UA_SAMP*%
X153450000Y-65100000D03*
%TO.P,R22,2*%
%TO.N,/ua_3*%
X150550000Y-65100000D03*
%TD*%
%TO.P,R17,1*%
%TO.N,/uc_3*%
X147650000Y-75550000D03*
%TO.P,R17,2*%
%TO.N,/uc_2*%
X144750000Y-75550000D03*
%TD*%
%TO.P,R16,2*%
%TO.N,/ub_2*%
X144750000Y-70450000D03*
%TO.P,R16,1*%
%TO.N,/ub_3*%
X147650000Y-70450000D03*
%TD*%
%TO.P,R13,1*%
%TO.N,/ub_2*%
X141850000Y-70450000D03*
%TO.P,R13,2*%
%TO.N,/ub_1*%
X138950000Y-70450000D03*
%TD*%
%TO.P,R14,2*%
%TO.N,/uc_1*%
X138950000Y-75550000D03*
%TO.P,R14,1*%
%TO.N,/uc_2*%
X141850000Y-75550000D03*
%TD*%
%TO.P,R7,1*%
%TO.N,/uc_1*%
X118950000Y-67950000D03*
%TO.P,R7,2*%
%TO.N,UC*%
X116050000Y-67950000D03*
%TD*%
%TO.P,R5,1*%
%TO.N,/ua_1*%
X118950000Y-52700000D03*
%TO.P,R5,2*%
%TO.N,UA*%
X116050000Y-52700000D03*
%TD*%
%TO.P,R12,2*%
%TO.N,/ua_1*%
X138950000Y-65100000D03*
%TO.P,R12,1*%
%TO.N,/ua_2*%
X141850000Y-65100000D03*
%TD*%
%TO.P,R6,1*%
%TO.N,/ub_1*%
X118950000Y-60300000D03*
%TO.P,R6,2*%
%TO.N,UB*%
X116050000Y-60300000D03*
%TD*%
D21*
%TO.P,C2,2*%
%TO.N,GNDA*%
X163050000Y-73150000D03*
%TO.P,C2,1*%
%TO.N,UC_SAMP*%
X161550000Y-73150000D03*
%TD*%
%TO.P,C3,2*%
%TO.N,GNDA*%
X162000000Y-65050000D03*
%TO.P,C3,1*%
%TO.N,UA_SAMP*%
X160500000Y-65050000D03*
%TD*%
%TO.P,C1,2*%
%TO.N,GNDA*%
X162200000Y-68550000D03*
%TO.P,C1,1*%
%TO.N,UB_SAMP*%
X160700000Y-68550000D03*
%TD*%
D19*
%TO.P,R27,1*%
%TO.N,GNDA*%
X163050000Y-75050000D03*
%TO.P,R27,2*%
%TO.N,UC_SAMP*%
X161550000Y-75050000D03*
%TD*%
%TO.P,R19,2*%
%TO.N,GNDA*%
X175950000Y-67300000D03*
%TO.P,R19,1*%
%TO.N,IA2-*%
X177450000Y-67300000D03*
%TD*%
%TO.P,R20,1*%
%TO.N,GNDA*%
X185950000Y-64800000D03*
%TO.P,R20,2*%
%TO.N,IC2+*%
X184450000Y-64800000D03*
%TD*%
%TO.P,R21,2*%
%TO.N,GNDA*%
X185950000Y-67300000D03*
%TO.P,R21,1*%
%TO.N,IC2-*%
X184450000Y-67300000D03*
%TD*%
%TO.P,R25,1*%
%TO.N,GNDA*%
X162000000Y-66800000D03*
%TO.P,R25,2*%
%TO.N,UA_SAMP*%
X160500000Y-66800000D03*
%TD*%
%TO.P,R26,1*%
%TO.N,GNDA*%
X162200000Y-70300000D03*
%TO.P,R26,2*%
%TO.N,UB_SAMP*%
X160700000Y-70300000D03*
%TD*%
%TO.P,R28,2*%
%TO.N,IB2+*%
X177450000Y-69800000D03*
%TO.P,R28,1*%
%TO.N,GNDA*%
X175950000Y-69800000D03*
%TD*%
%TO.P,R31,1*%
%TO.N,IN2-*%
X184450000Y-72300000D03*
%TO.P,R31,2*%
%TO.N,GNDA*%
X185950000Y-72300000D03*
%TD*%
%TO.P,R30,2*%
%TO.N,IN2+*%
X184450000Y-69800000D03*
%TO.P,R30,1*%
%TO.N,GNDA*%
X185950000Y-69800000D03*
%TD*%
%TO.P,R29,1*%
%TO.N,IB2-*%
X177450000Y-72300000D03*
%TO.P,R29,2*%
%TO.N,GNDA*%
X175950000Y-72300000D03*
%TD*%
%TO.P,R18,2*%
%TO.N,IA2+*%
X177450000Y-64800000D03*
%TO.P,R18,1*%
%TO.N,GNDA*%
X175950000Y-64800000D03*
%TD*%
D22*
%TO.N,GNDA*%
X142825000Y-55600000D03*
X145750000Y-57300000D03*
X148900000Y-60375000D03*
X153775000Y-60425000D03*
X157425000Y-64400000D03*
X178300000Y-61600000D03*
X182850000Y-61700000D03*
X172300000Y-50350000D03*
X168600000Y-46350000D03*
X182250000Y-46500000D03*
X192150000Y-46250000D03*
X191000000Y-53550000D03*
X191050000Y-61650000D03*
X191100000Y-68600000D03*
X192250000Y-77750000D03*
X185200000Y-77550000D03*
X157450000Y-77600000D03*
X163500000Y-77600000D03*
X169000000Y-77650000D03*
X167250000Y-74750000D03*
X175050000Y-64800000D03*
X175050000Y-67300000D03*
X175050000Y-50700000D03*
X186850000Y-72300000D03*
X175050000Y-53200000D03*
X175050000Y-55700000D03*
X175050000Y-58200000D03*
X186850000Y-50700000D03*
X186850000Y-53200000D03*
X186850000Y-55700000D03*
X186850000Y-58200000D03*
X175050000Y-72300000D03*
X186850000Y-64800000D03*
X186850000Y-67300000D03*
X186850000Y-69800000D03*
X175050000Y-69800000D03*
X137150000Y-50600000D03*
X134700000Y-48025000D03*
X139650000Y-52600000D03*
X140150000Y-56150000D03*
X143175000Y-50200000D03*
X139650000Y-50250000D03*
X143175000Y-51425000D03*
X143175000Y-52675000D03*
X139650000Y-51450000D03*
X163100000Y-65000000D03*
X164100000Y-75000000D03*
X164200000Y-73100000D03*
X162900000Y-66800000D03*
X163300000Y-68500000D03*
X163100000Y-70300000D03*
%TO.N,+5V*%
X155875000Y-57275000D03*
X153525000Y-56450000D03*
X150525000Y-53800000D03*
X152375000Y-54725000D03*
X150775000Y-50775000D03*
X150875000Y-48475000D03*
%TO.N,GNDPWR*%
X145875000Y-46925000D03*
X149825000Y-47975000D03*
X149825000Y-46725000D03*
X145875000Y-49025000D03*
X145866500Y-47991500D03*
X154650000Y-46500000D03*
X154875000Y-49925000D03*
X157775000Y-46500000D03*
X145350000Y-46300000D03*
X148025000Y-52025000D03*
X149875000Y-49150000D03*
X158325000Y-51275000D03*
X159550000Y-54100000D03*
%TO.N,IA1+*%
X170400000Y-74650000D03*
X172100000Y-72500000D03*
%TO.N,IC1+*%
X171400000Y-74650000D03*
X172850000Y-73200000D03*
%TO.N,IC1-*%
X170500000Y-73100000D03*
%TO.N,IB1+*%
X172300000Y-70350000D03*
X168840000Y-74230000D03*
%TO.N,IA2-*%
X178100000Y-63850000D03*
%TO.N,IC2+*%
X178350000Y-68100000D03*
%TO.N,IB2-*%
X173750000Y-61550000D03*
%TO.N,IB2+*%
X174550000Y-60800000D03*
%TO.N,+3.3V_ISO*%
X143975000Y-55600000D03*
X144350000Y-52800000D03*
%TO.N,VBAT*%
X164000000Y-49700000D03*
X162275000Y-48425000D03*
%TD*%
D23*
%TO.N,UA*%
X116050000Y-52700000D02*
X114000000Y-52700000D01*
X113174400Y-49174400D02*
X110490000Y-49174400D01*
X113750000Y-49750000D02*
X113174400Y-49174400D01*
X113750000Y-52450000D02*
X113750000Y-49750000D01*
X114000000Y-52700000D02*
X113750000Y-52450000D01*
%TO.N,UN*%
X110758534Y-74842934D02*
X110490000Y-74574400D01*
%TO.N,UB*%
X116050000Y-60300000D02*
X113850000Y-60300000D01*
X113334400Y-59334400D02*
X110490000Y-59334400D01*
X113700000Y-59700000D02*
X113334400Y-59334400D01*
X113700000Y-60150000D02*
X113700000Y-59700000D01*
X113850000Y-60300000D02*
X113700000Y-60150000D01*
%TO.N,UC*%
X125850000Y-64150000D02*
X126811000Y-63189000D01*
X126811000Y-63189000D02*
X129888000Y-63189000D01*
X113950000Y-64800000D02*
X113950000Y-67950000D01*
X114600000Y-64150000D02*
X113950000Y-64800000D01*
X125850000Y-64150000D02*
X114600000Y-64150000D01*
X116050000Y-67950000D02*
X113950000Y-67950000D01*
X113505600Y-69494400D02*
X110490000Y-69494400D01*
X113750000Y-69250000D02*
X113505600Y-69494400D01*
X113750000Y-68150000D02*
X113750000Y-69250000D01*
X113950000Y-67950000D02*
X113750000Y-68150000D01*
D24*
%TO.N,GNDA*%
X153775000Y-60425000D02*
X153775000Y-60750000D01*
X142825000Y-55600000D02*
X142825000Y-55950000D01*
X142825000Y-55950000D02*
X144175000Y-57300000D01*
X144175000Y-57300000D02*
X145750000Y-57300000D01*
X148900000Y-60375000D02*
X148950000Y-60425000D01*
X148950000Y-60425000D02*
X153775000Y-60425000D01*
X153775000Y-60750000D02*
X157425000Y-64400000D01*
X186850000Y-64800000D02*
X186850000Y-62600000D01*
X178300000Y-61600000D02*
X178350000Y-61600000D01*
X185950000Y-61700000D02*
X182850000Y-61700000D01*
X186850000Y-62600000D02*
X185950000Y-61700000D01*
X169000000Y-77650000D02*
X185100000Y-77650000D01*
X172300000Y-50050000D02*
X172300000Y-50350000D01*
X168600000Y-46350000D02*
X172300000Y-50050000D01*
X191900000Y-46500000D02*
X182250000Y-46500000D01*
X192150000Y-46250000D02*
X191900000Y-46500000D01*
X191000000Y-61600000D02*
X191000000Y-53550000D01*
X191050000Y-61650000D02*
X191000000Y-61600000D01*
X191100000Y-76600000D02*
X191100000Y-68600000D01*
X192250000Y-77750000D02*
X191100000Y-76600000D01*
X185100000Y-77650000D02*
X185200000Y-77550000D01*
X157450000Y-77600000D02*
X163500000Y-77600000D01*
X167250000Y-75900000D02*
X167250000Y-74750000D01*
X169000000Y-77650000D02*
X167250000Y-75900000D01*
X175950000Y-64800000D02*
X175050000Y-64800000D01*
X175950000Y-67300000D02*
X175050000Y-67300000D01*
X175050000Y-50700000D02*
X175950000Y-50700000D01*
X186850000Y-72300000D02*
X185950000Y-72300000D01*
X175950000Y-53200000D02*
X175050000Y-53200000D01*
X175950000Y-55700000D02*
X175050000Y-55700000D01*
X175950000Y-58200000D02*
X175050000Y-58200000D01*
X185950000Y-50700000D02*
X186850000Y-50700000D01*
X185950000Y-53200000D02*
X186850000Y-53200000D01*
X185950000Y-55700000D02*
X186850000Y-55700000D01*
X185950000Y-58200000D02*
X186850000Y-58200000D01*
X175050000Y-72300000D02*
X175950000Y-72300000D01*
X185950000Y-64800000D02*
X186850000Y-64800000D01*
X185950000Y-67300000D02*
X186850000Y-67300000D01*
X185950000Y-69800000D02*
X186850000Y-69800000D01*
X175950000Y-69800000D02*
X175050000Y-69800000D01*
X137150000Y-50600000D02*
X137150000Y-50475000D01*
X138000000Y-51450000D02*
X137150000Y-50600000D01*
X139650000Y-51450000D02*
X138000000Y-51450000D01*
X137150000Y-50475000D02*
X134700000Y-48025000D01*
X139650000Y-52600000D02*
X139650000Y-55650000D01*
X139650000Y-51450000D02*
X139650000Y-52600000D01*
X139650000Y-55650000D02*
X140150000Y-56150000D01*
X143175000Y-51425000D02*
X143175000Y-50200000D01*
X139650000Y-51450000D02*
X139650000Y-50250000D01*
X143175000Y-52675000D02*
X143175000Y-51425000D01*
X162000000Y-65050000D02*
X163050000Y-65050000D01*
X163050000Y-65050000D02*
X163100000Y-65000000D01*
X163050000Y-75050000D02*
X164050000Y-75050000D01*
X164050000Y-75050000D02*
X164100000Y-75000000D01*
X163050000Y-73150000D02*
X164150000Y-73150000D01*
X164150000Y-73150000D02*
X164200000Y-73100000D01*
X162000000Y-66800000D02*
X162900000Y-66800000D01*
X162200000Y-68550000D02*
X163250000Y-68550000D01*
X163250000Y-68550000D02*
X163300000Y-68500000D01*
X162200000Y-70300000D02*
X163100000Y-70300000D01*
%TO.N,+5V*%
X155875000Y-57275000D02*
X155050000Y-56450000D01*
X155050000Y-56450000D02*
X153525000Y-56450000D01*
X152375000Y-55300000D02*
X152375000Y-54725000D01*
X153525000Y-56450000D02*
X152375000Y-55300000D01*
X151450000Y-53800000D02*
X150525000Y-53800000D01*
X152375000Y-54725000D02*
X151450000Y-53800000D01*
X150875000Y-48475000D02*
X150875000Y-50675000D01*
X150875000Y-50675000D02*
X150775000Y-50775000D01*
%TO.N,GNDPWR*%
X145866500Y-47991500D02*
X145866500Y-46933500D01*
X145866500Y-46933500D02*
X145875000Y-46925000D01*
X149825000Y-46725000D02*
X149825000Y-47975000D01*
X145866500Y-47991500D02*
X145866500Y-49016500D01*
X145866500Y-49016500D02*
X145875000Y-49025000D01*
X145866500Y-47991500D02*
X145875000Y-48000000D01*
X157775000Y-46500000D02*
X154650000Y-46500000D01*
X127675000Y-48350000D02*
X127690000Y-48365000D01*
X127675000Y-48350000D02*
X127675000Y-46375000D01*
X127675000Y-46375000D02*
X127900000Y-46150000D01*
X127900000Y-46150000D02*
X145200000Y-46150000D01*
X145200000Y-46150000D02*
X145350000Y-46300000D01*
X127690000Y-48365000D02*
X127690000Y-51850000D01*
X158325000Y-52875000D02*
X158325000Y-51275000D01*
X159550000Y-54100000D02*
X158325000Y-52875000D01*
D25*
%TO.N,IA1+*%
X172100000Y-72900000D02*
X170400000Y-74600000D01*
X170400000Y-74600000D02*
X170400000Y-74650000D01*
X172100000Y-72500000D02*
X172100000Y-72900000D01*
X177450000Y-50700000D02*
X179703400Y-50700000D01*
X179703400Y-50700000D02*
X179705000Y-50698400D01*
%TO.N,IA1-*%
X177450000Y-53200000D02*
X179703400Y-53200000D01*
X179703400Y-53200000D02*
X179705000Y-53198400D01*
%TO.N,IC1+*%
X172850000Y-73200000D02*
X171400000Y-74650000D01*
X182205000Y-50698400D02*
X184448400Y-50698400D01*
X184448400Y-50698400D02*
X184450000Y-50700000D01*
%TO.N,IC1-*%
X168100000Y-69645400D02*
X168100000Y-72600000D01*
X168100000Y-72600000D02*
X168950000Y-73450000D01*
X168950000Y-73450000D02*
X170150000Y-73450000D01*
X170150000Y-73450000D02*
X170500000Y-73100000D01*
X169378000Y-68367400D02*
X168100000Y-69645400D01*
X169378000Y-68367400D02*
X169378000Y-68728000D01*
X182205000Y-53198400D02*
X184448400Y-53198400D01*
X184448400Y-53198400D02*
X184450000Y-53200000D01*
%TO.N,IB1+*%
X173600000Y-73550000D02*
X171750000Y-75400000D01*
X172500000Y-70550000D02*
X172500000Y-71800000D01*
X172500000Y-71800000D02*
X173600000Y-72900000D01*
X173600000Y-72900000D02*
X173600000Y-73550000D01*
X172300000Y-70350000D02*
X172500000Y-70550000D01*
X170010000Y-75400000D02*
X168840000Y-74230000D01*
X170100000Y-75400000D02*
X170010000Y-75400000D01*
X171750000Y-75400000D02*
X170100000Y-75400000D01*
X177450000Y-55700000D02*
X179703400Y-55700000D01*
X179703400Y-55700000D02*
X179705000Y-55698400D01*
%TO.N,IN1+*%
X181050000Y-60050000D02*
X183950000Y-60050000D01*
X171378000Y-59367400D02*
X172667400Y-59367400D01*
X172667400Y-59367400D02*
X173350000Y-60050000D01*
X173350000Y-60050000D02*
X181050000Y-60050000D01*
X184950000Y-55700000D02*
X184450000Y-55700000D01*
X185050000Y-55800000D02*
X184950000Y-55700000D01*
X185050000Y-57450000D02*
X185050000Y-55800000D01*
X185050000Y-58950000D02*
X185050000Y-57450000D01*
X183950000Y-60050000D02*
X185050000Y-58950000D01*
X182205000Y-55698400D02*
X184448400Y-55698400D01*
X184448400Y-55698400D02*
X184450000Y-55700000D01*
%TO.N,IN1-*%
X171378000Y-57367400D02*
X173560600Y-59550000D01*
X180853400Y-59550000D02*
X182205000Y-58198400D01*
X173560600Y-59550000D02*
X180853400Y-59550000D01*
X182205000Y-58198400D02*
X184448400Y-58198400D01*
X184448400Y-58198400D02*
X184450000Y-58200000D01*
%TO.N,IA2+*%
X171378000Y-63367400D02*
X171910600Y-63900000D01*
X176900000Y-64800000D02*
X177450000Y-64800000D01*
X176700000Y-64600000D02*
X176900000Y-64800000D01*
X176700000Y-64050000D02*
X176700000Y-64600000D01*
X176550000Y-63900000D02*
X176700000Y-64050000D01*
X171910600Y-63900000D02*
X176550000Y-63900000D01*
X177450000Y-64800000D02*
X179700400Y-64800000D01*
X179700400Y-64800000D02*
X179705000Y-64795400D01*
%TO.N,IA2-*%
X175200000Y-63400000D02*
X177650000Y-63400000D01*
X170300000Y-63445400D02*
X170300000Y-62900000D01*
X170300000Y-62900000D02*
X170900000Y-62300000D01*
X170900000Y-62300000D02*
X171850000Y-62300000D01*
X171850000Y-62300000D02*
X172950000Y-63400000D01*
X172950000Y-63400000D02*
X175200000Y-63400000D01*
X169378000Y-64367400D02*
X170300000Y-63445400D01*
X177650000Y-63400000D02*
X178100000Y-63850000D01*
X169378000Y-64367400D02*
X169378000Y-64072000D01*
X179705000Y-67295400D02*
X178250000Y-67295400D01*
X178250000Y-67295400D02*
X177454600Y-67295400D01*
X177454600Y-67295400D02*
X177450000Y-67300000D01*
%TO.N,IC2+*%
X171378000Y-65367400D02*
X171760600Y-65750000D01*
X171760600Y-65750000D02*
X176500000Y-65750000D01*
X176850000Y-68100000D02*
X178350000Y-68100000D01*
X176800000Y-68050000D02*
X176850000Y-68100000D01*
X176800000Y-66050000D02*
X176800000Y-68050000D01*
X176500000Y-65750000D02*
X176800000Y-66050000D01*
X182205000Y-64795400D02*
X184445400Y-64795400D01*
X184445400Y-64795400D02*
X184450000Y-64800000D01*
%TO.N,IC2-*%
X184450000Y-67300000D02*
X182209600Y-67300000D01*
X182209600Y-67300000D02*
X182205000Y-67295400D01*
%TO.N,IB2-*%
X173050000Y-61050000D02*
X173250000Y-61050000D01*
X173250000Y-61050000D02*
X173750000Y-61550000D01*
X169378000Y-56367400D02*
X168300000Y-57445400D01*
X168800000Y-59350000D02*
X168950000Y-59350000D01*
X168300000Y-58850000D02*
X168800000Y-59350000D01*
X168300000Y-57445400D02*
X168300000Y-58850000D01*
X173050000Y-61050000D02*
X173050000Y-61050000D01*
X170650000Y-61050000D02*
X173050000Y-61050000D01*
X168950000Y-59350000D02*
X170650000Y-61050000D01*
X179705000Y-72295400D02*
X177454600Y-72295400D01*
X177454600Y-72295400D02*
X177450000Y-72300000D01*
%TO.N,IB1-*%
X169378000Y-70367400D02*
X169378000Y-70878000D01*
X177450000Y-58200000D02*
X179703400Y-58200000D01*
X179703400Y-58200000D02*
X179705000Y-58198400D01*
%TO.N,IN2-*%
X184450000Y-72300000D02*
X182209600Y-72300000D01*
X182209600Y-72300000D02*
X182205000Y-72295400D01*
%TO.N,IB2+*%
X169378000Y-58367400D02*
X169378000Y-58878000D01*
X169378000Y-58878000D02*
X171050000Y-60550000D01*
X174300000Y-60550000D02*
X174550000Y-60800000D01*
X173200000Y-60550000D02*
X174300000Y-60550000D01*
X173200000Y-60550000D02*
X173200000Y-60550000D01*
X171050000Y-60550000D02*
X173200000Y-60550000D01*
X169378000Y-58367400D02*
X169378000Y-58978000D01*
X179705000Y-69795400D02*
X177454600Y-69795400D01*
X177454600Y-69795400D02*
X177450000Y-69800000D01*
%TO.N,UA_SAMP*%
X153450000Y-65100000D02*
X154900000Y-65100000D01*
X158900000Y-65900000D02*
X159600000Y-65900000D01*
X155700000Y-65900000D02*
X158900000Y-65900000D01*
X154900000Y-65100000D02*
X155700000Y-65900000D01*
X160500000Y-65050000D02*
X159750000Y-65050000D01*
X159600000Y-65200000D02*
X159600000Y-65900000D01*
X159750000Y-65050000D02*
X159600000Y-65200000D01*
X160500000Y-66800000D02*
X159900000Y-66800000D01*
X159600000Y-66500000D02*
X159600000Y-65900000D01*
X159900000Y-66800000D02*
X159600000Y-66500000D01*
X164878000Y-67317400D02*
X163460600Y-65900000D01*
X163460600Y-65900000D02*
X159600000Y-65900000D01*
%TO.N,UC_SAMP*%
X153450000Y-75550000D02*
X154450000Y-75550000D01*
X154450000Y-75550000D02*
X154913000Y-75087000D01*
X154913000Y-75087000D02*
X160113000Y-75087000D01*
X160113000Y-75087000D02*
X160500000Y-74700000D01*
X161550000Y-75050000D02*
X160850000Y-75050000D01*
X160500000Y-74700000D02*
X160500000Y-74100000D01*
X160850000Y-75050000D02*
X160500000Y-74700000D01*
X161550000Y-73150000D02*
X160650000Y-73150000D01*
X160500000Y-73300000D02*
X160500000Y-74100000D01*
X160650000Y-73150000D02*
X160500000Y-73300000D01*
X164878000Y-71317400D02*
X164878000Y-72478000D01*
X164500000Y-74100000D02*
X160500000Y-74100000D01*
X165100000Y-73500000D02*
X164500000Y-74100000D01*
X165100000Y-72700000D02*
X165100000Y-73500000D01*
X164878000Y-72478000D02*
X165100000Y-72700000D01*
%TO.N,UB_SAMP*%
X153450000Y-70450000D02*
X154650000Y-70450000D01*
X159300000Y-69400000D02*
X159700000Y-69400000D01*
X155700000Y-69400000D02*
X159300000Y-69400000D01*
X154650000Y-70450000D02*
X155700000Y-69400000D01*
X160700000Y-70300000D02*
X159900000Y-70300000D01*
X159700000Y-70100000D02*
X159700000Y-69400000D01*
X159900000Y-70300000D02*
X159700000Y-70100000D01*
X160700000Y-68550000D02*
X159850000Y-68550000D01*
X159700000Y-68700000D02*
X159700000Y-69400000D01*
X159850000Y-68550000D02*
X159700000Y-68700000D01*
X164878000Y-69317400D02*
X164795400Y-69400000D01*
X164795400Y-69400000D02*
X159700000Y-69400000D01*
%TO.N,IN2+*%
X184450000Y-69800000D02*
X182209600Y-69800000D01*
X182209600Y-69800000D02*
X182205000Y-69795400D01*
D24*
%TO.N,+3.3V_ISO*%
X143975000Y-55600000D02*
X144350000Y-55225000D01*
X144350000Y-54750000D02*
X144350000Y-55225000D01*
X144350000Y-54750000D02*
X144350000Y-52800000D01*
X144325000Y-54775000D02*
X144350000Y-54750000D01*
%TO.N,VBAT*%
X163550000Y-49700000D02*
X164000000Y-49700000D01*
X162275000Y-48425000D02*
X163550000Y-49700000D01*
D23*
%TO.N,/ua_1*%
X137000000Y-65100000D02*
X136600000Y-64700000D01*
X138950000Y-65100000D02*
X137000000Y-65100000D01*
X133420000Y-55500000D02*
X124500000Y-55500000D01*
X136600000Y-58680000D02*
X133420000Y-55500000D01*
X136600000Y-64700000D02*
X136600000Y-58680000D01*
X124500000Y-55500000D02*
X121700000Y-52700000D01*
X121700000Y-52700000D02*
X118950000Y-52700000D01*
X138950000Y-65100000D02*
X138900000Y-65150000D01*
%TO.N,/ua_2*%
X141850000Y-65100000D02*
X144750000Y-65100000D01*
%TO.N,/uc_2*%
X141850000Y-75550000D02*
X144750000Y-75550000D01*
%TO.N,/uc_1*%
X127350000Y-69300000D02*
X127350000Y-73350000D01*
X138950000Y-75550000D02*
X135600000Y-75550000D01*
X125550000Y-67950000D02*
X126000000Y-67950000D01*
X126000000Y-67950000D02*
X127350000Y-69300000D01*
X125550000Y-67950000D02*
X118950000Y-67950000D01*
X129550000Y-75550000D02*
X135600000Y-75550000D01*
X127350000Y-73350000D02*
X129550000Y-75550000D01*
%TO.N,/ub_1*%
X133450000Y-70450000D02*
X135450000Y-70450000D01*
X125850000Y-60300000D02*
X127750000Y-58400000D01*
X118950000Y-60300000D02*
X125850000Y-60300000D01*
X132900000Y-69900000D02*
X133450000Y-70450000D01*
X132900000Y-59800000D02*
X132900000Y-69900000D01*
X131500000Y-58400000D02*
X132900000Y-59800000D01*
X127750000Y-58400000D02*
X131500000Y-58400000D01*
X135450000Y-70450000D02*
X138950000Y-70450000D01*
%TO.N,/uc_3*%
X147650000Y-75550000D02*
X150550000Y-75550000D01*
%TO.N,/ub_2*%
X141850000Y-70450000D02*
X144750000Y-70450000D01*
%TO.N,/ua_3*%
X147650000Y-65100000D02*
X150550000Y-65100000D01*
%TO.N,/ub_3*%
X147650000Y-70450000D02*
X150550000Y-70450000D01*
%TD*%
D26*
%TO.N,GNDPWR*%
G36*
X165800000Y-52607165D02*
G01*
X165779963Y-52577178D01*
X165618222Y-52415437D01*
X165428035Y-52288358D01*
X165216710Y-52200824D01*
X164992368Y-52156200D01*
X164763632Y-52156200D01*
X164539290Y-52200824D01*
X164327965Y-52288358D01*
X164137778Y-52415437D01*
X163976037Y-52577178D01*
X163848958Y-52767365D01*
X163761424Y-52978690D01*
X163716800Y-53203032D01*
X163716800Y-53431768D01*
X163761424Y-53656110D01*
X163848958Y-53867435D01*
X163976037Y-54057622D01*
X164137778Y-54219363D01*
X164284501Y-54317400D01*
X164137778Y-54415437D01*
X163976037Y-54577178D01*
X163848958Y-54767365D01*
X163761424Y-54978690D01*
X163716800Y-55203032D01*
X163716800Y-55431768D01*
X163761424Y-55656110D01*
X163848958Y-55867435D01*
X163976037Y-56057622D01*
X164137778Y-56219363D01*
X164284501Y-56317400D01*
X164137778Y-56415437D01*
X163976037Y-56577178D01*
X163848958Y-56767365D01*
X163761424Y-56978690D01*
X163716800Y-57203032D01*
X163716800Y-57431768D01*
X163761424Y-57656110D01*
X163848958Y-57867435D01*
X163976037Y-58057622D01*
X164137778Y-58219363D01*
X164327965Y-58346442D01*
X164392057Y-58372990D01*
X164292364Y-58426277D01*
X164222118Y-58590807D01*
X164878000Y-59246689D01*
X165533882Y-58590807D01*
X165463636Y-58426277D01*
X165362905Y-58373420D01*
X165428035Y-58346442D01*
X165618222Y-58219363D01*
X165737222Y-58100363D01*
X165716800Y-58203032D01*
X165716800Y-58431768D01*
X165761424Y-58656110D01*
X165800000Y-58749240D01*
X165800000Y-58789531D01*
X165769123Y-58731764D01*
X165604593Y-58661518D01*
X164948711Y-59317400D01*
X165604593Y-59973282D01*
X165769123Y-59903036D01*
X165800000Y-59844193D01*
X165800000Y-60425000D01*
X157112132Y-60425000D01*
X156731125Y-60043993D01*
X164222118Y-60043993D01*
X164292364Y-60208523D01*
X164477466Y-60305652D01*
X164677961Y-60364803D01*
X164886142Y-60383704D01*
X165094012Y-60361626D01*
X165293579Y-60299420D01*
X165463636Y-60208523D01*
X165533882Y-60043993D01*
X164878000Y-59388111D01*
X164222118Y-60043993D01*
X156731125Y-60043993D01*
X156012674Y-59325542D01*
X163811696Y-59325542D01*
X163833774Y-59533412D01*
X163895980Y-59732979D01*
X163986877Y-59903036D01*
X164151407Y-59973282D01*
X164807289Y-59317400D01*
X164151407Y-58661518D01*
X163986877Y-58731764D01*
X163889748Y-58916866D01*
X163830597Y-59117361D01*
X163811696Y-59325542D01*
X156012674Y-59325542D01*
X155330132Y-58643000D01*
X158282306Y-58643000D01*
X158289064Y-58711612D01*
X158309077Y-58777587D01*
X158341577Y-58838391D01*
X158385315Y-58891685D01*
X158438609Y-58935423D01*
X158499413Y-58967923D01*
X158565388Y-58987936D01*
X158634000Y-58994694D01*
X159150500Y-58993000D01*
X159238000Y-58905500D01*
X159238000Y-58039000D01*
X159338000Y-58039000D01*
X159338000Y-58905500D01*
X159425500Y-58993000D01*
X159942000Y-58994694D01*
X160010612Y-58987936D01*
X160076587Y-58967923D01*
X160137391Y-58935423D01*
X160190685Y-58891685D01*
X160234423Y-58838391D01*
X160266923Y-58777587D01*
X160286936Y-58711612D01*
X160293694Y-58643000D01*
X160292000Y-58126500D01*
X160204500Y-58039000D01*
X159338000Y-58039000D01*
X159238000Y-58039000D01*
X158371500Y-58039000D01*
X158284000Y-58126500D01*
X158282306Y-58643000D01*
X155330132Y-58643000D01*
X154756066Y-58068934D01*
X154733336Y-58050280D01*
X154707403Y-58036418D01*
X154679264Y-58027882D01*
X154650000Y-58025000D01*
X149837132Y-58025000D01*
X145528414Y-53716282D01*
X149675000Y-53716282D01*
X149675000Y-53883718D01*
X149707665Y-54047936D01*
X149771740Y-54202626D01*
X149864762Y-54341844D01*
X149983156Y-54460238D01*
X150122374Y-54553260D01*
X150277064Y-54617335D01*
X150441282Y-54650000D01*
X150608718Y-54650000D01*
X150772936Y-54617335D01*
X150927626Y-54553260D01*
X151007336Y-54500000D01*
X151160051Y-54500000D01*
X151538962Y-54878912D01*
X151557665Y-54972936D01*
X151621740Y-55127626D01*
X151675000Y-55207336D01*
X151675000Y-55265613D01*
X151671613Y-55300000D01*
X151675000Y-55334387D01*
X151675000Y-55334389D01*
X151685128Y-55437223D01*
X151722135Y-55559219D01*
X151725155Y-55569174D01*
X151790155Y-55690781D01*
X151838755Y-55750000D01*
X151877630Y-55797369D01*
X151904343Y-55819292D01*
X152688962Y-56603912D01*
X152707665Y-56697936D01*
X152771740Y-56852626D01*
X152864762Y-56991844D01*
X152983156Y-57110238D01*
X153122374Y-57203260D01*
X153277064Y-57267335D01*
X153441282Y-57300000D01*
X153608718Y-57300000D01*
X153772936Y-57267335D01*
X153927626Y-57203260D01*
X154007336Y-57150000D01*
X154760051Y-57150000D01*
X155038962Y-57428912D01*
X155057665Y-57522936D01*
X155121740Y-57677626D01*
X155214762Y-57816844D01*
X155333156Y-57935238D01*
X155472374Y-58028260D01*
X155627064Y-58092335D01*
X155791282Y-58125000D01*
X155958718Y-58125000D01*
X156122936Y-58092335D01*
X156277626Y-58028260D01*
X156416844Y-57935238D01*
X156535238Y-57816844D01*
X156628260Y-57677626D01*
X156692335Y-57522936D01*
X156725000Y-57358718D01*
X156725000Y-57335000D01*
X158282306Y-57335000D01*
X158284000Y-57851500D01*
X158371500Y-57939000D01*
X159238000Y-57939000D01*
X159238000Y-57072500D01*
X159338000Y-57072500D01*
X159338000Y-57939000D01*
X160204500Y-57939000D01*
X160292000Y-57851500D01*
X160293694Y-57335000D01*
X160286936Y-57266388D01*
X160266923Y-57200413D01*
X160234423Y-57139609D01*
X160190685Y-57086315D01*
X160137391Y-57042577D01*
X160076587Y-57010077D01*
X160010612Y-56990064D01*
X159942000Y-56983306D01*
X159425500Y-56985000D01*
X159338000Y-57072500D01*
X159238000Y-57072500D01*
X159150500Y-56985000D01*
X158634000Y-56983306D01*
X158565388Y-56990064D01*
X158499413Y-57010077D01*
X158438609Y-57042577D01*
X158385315Y-57086315D01*
X158341577Y-57139609D01*
X158309077Y-57200413D01*
X158289064Y-57266388D01*
X158282306Y-57335000D01*
X156725000Y-57335000D01*
X156725000Y-57191282D01*
X156692335Y-57027064D01*
X156628260Y-56872374D01*
X156535238Y-56733156D01*
X156416844Y-56614762D01*
X156277626Y-56521740D01*
X156122936Y-56457665D01*
X156028912Y-56438962D01*
X155569296Y-55979347D01*
X155547370Y-55952630D01*
X155440781Y-55865155D01*
X155319175Y-55800155D01*
X155187224Y-55760128D01*
X155084390Y-55750000D01*
X155084387Y-55750000D01*
X155050000Y-55746613D01*
X155015613Y-55750000D01*
X154007336Y-55750000D01*
X153927626Y-55696740D01*
X153772936Y-55632665D01*
X153678912Y-55613962D01*
X153147098Y-55082148D01*
X153192335Y-54972936D01*
X153225000Y-54808718D01*
X153225000Y-54641282D01*
X153192335Y-54477064D01*
X153128260Y-54322374D01*
X153035238Y-54183156D01*
X152916844Y-54064762D01*
X152777626Y-53971740D01*
X152622936Y-53907665D01*
X152528912Y-53888962D01*
X151969296Y-53329347D01*
X151947370Y-53302630D01*
X151840781Y-53215155D01*
X151719175Y-53150155D01*
X151587224Y-53110128D01*
X151484390Y-53100000D01*
X151484387Y-53100000D01*
X151450000Y-53096613D01*
X151415613Y-53100000D01*
X151007336Y-53100000D01*
X150927626Y-53046740D01*
X150772936Y-52982665D01*
X150608718Y-52950000D01*
X150441282Y-52950000D01*
X150277064Y-52982665D01*
X150122374Y-53046740D01*
X149983156Y-53139762D01*
X149864762Y-53258156D01*
X149771740Y-53397374D01*
X149707665Y-53552064D01*
X149675000Y-53716282D01*
X145528414Y-53716282D01*
X145067811Y-53255679D01*
X145103260Y-53202626D01*
X145167335Y-53047936D01*
X145200000Y-52883718D01*
X145200000Y-52716282D01*
X145167335Y-52552064D01*
X145103260Y-52397374D01*
X145010238Y-52258156D01*
X144975000Y-52222918D01*
X144975000Y-50691282D01*
X149925000Y-50691282D01*
X149925000Y-50858718D01*
X149957665Y-51022936D01*
X150021740Y-51177626D01*
X150114762Y-51316844D01*
X150233156Y-51435238D01*
X150372374Y-51528260D01*
X150527064Y-51592335D01*
X150691282Y-51625000D01*
X150858718Y-51625000D01*
X151022936Y-51592335D01*
X151177626Y-51528260D01*
X151316844Y-51435238D01*
X151435238Y-51316844D01*
X151528260Y-51177626D01*
X151592335Y-51022936D01*
X151625000Y-50858718D01*
X151625000Y-50691282D01*
X151592335Y-50527064D01*
X151575000Y-50485214D01*
X151575000Y-48957336D01*
X151628260Y-48877626D01*
X151692335Y-48722936D01*
X151725000Y-48558718D01*
X151725000Y-48391282D01*
X151715055Y-48341282D01*
X161425000Y-48341282D01*
X161425000Y-48508718D01*
X161457665Y-48672936D01*
X161521740Y-48827626D01*
X161614762Y-48966844D01*
X161733156Y-49085238D01*
X161872374Y-49178260D01*
X162027064Y-49242335D01*
X162121089Y-49261038D01*
X163030704Y-50170653D01*
X163052630Y-50197370D01*
X163159219Y-50284845D01*
X163280825Y-50349845D01*
X163412776Y-50389872D01*
X163515610Y-50400000D01*
X163515612Y-50400000D01*
X163518019Y-50400237D01*
X163597374Y-50453260D01*
X163752064Y-50517335D01*
X163916282Y-50550000D01*
X164083718Y-50550000D01*
X164247936Y-50517335D01*
X164402626Y-50453260D01*
X164541844Y-50360238D01*
X164660238Y-50241844D01*
X164753260Y-50102626D01*
X164817335Y-49947936D01*
X164850000Y-49783718D01*
X164850000Y-49616282D01*
X164817335Y-49452064D01*
X164753260Y-49297374D01*
X164660238Y-49158156D01*
X164541844Y-49039762D01*
X164402626Y-48946740D01*
X164247936Y-48882665D01*
X164083718Y-48850000D01*
X163916282Y-48850000D01*
X163752064Y-48882665D01*
X163731240Y-48891291D01*
X163111038Y-48271089D01*
X163092335Y-48177064D01*
X163028260Y-48022374D01*
X162935238Y-47883156D01*
X162816844Y-47764762D01*
X162677626Y-47671740D01*
X162522936Y-47607665D01*
X162358718Y-47575000D01*
X162191282Y-47575000D01*
X162027064Y-47607665D01*
X161872374Y-47671740D01*
X161733156Y-47764762D01*
X161614762Y-47883156D01*
X161521740Y-48022374D01*
X161457665Y-48177064D01*
X161425000Y-48341282D01*
X151715055Y-48341282D01*
X151692335Y-48227064D01*
X151628260Y-48072374D01*
X151535238Y-47933156D01*
X151416844Y-47814762D01*
X151277626Y-47721740D01*
X151122936Y-47657665D01*
X150958718Y-47625000D01*
X150791282Y-47625000D01*
X150627064Y-47657665D01*
X150472374Y-47721740D01*
X150333156Y-47814762D01*
X150214762Y-47933156D01*
X150121740Y-48072374D01*
X150057665Y-48227064D01*
X150025000Y-48391282D01*
X150025000Y-48558718D01*
X150057665Y-48722936D01*
X150121740Y-48877626D01*
X150175000Y-48957336D01*
X150175001Y-50172917D01*
X150114762Y-50233156D01*
X150021740Y-50372374D01*
X149957665Y-50527064D01*
X149925000Y-50691282D01*
X144975000Y-50691282D01*
X144975000Y-45991000D01*
X165800000Y-45991000D01*
X165800000Y-52607165D01*
G37*
X165800000Y-52607165D02*
X165779963Y-52577178D01*
X165618222Y-52415437D01*
X165428035Y-52288358D01*
X165216710Y-52200824D01*
X164992368Y-52156200D01*
X164763632Y-52156200D01*
X164539290Y-52200824D01*
X164327965Y-52288358D01*
X164137778Y-52415437D01*
X163976037Y-52577178D01*
X163848958Y-52767365D01*
X163761424Y-52978690D01*
X163716800Y-53203032D01*
X163716800Y-53431768D01*
X163761424Y-53656110D01*
X163848958Y-53867435D01*
X163976037Y-54057622D01*
X164137778Y-54219363D01*
X164284501Y-54317400D01*
X164137778Y-54415437D01*
X163976037Y-54577178D01*
X163848958Y-54767365D01*
X163761424Y-54978690D01*
X163716800Y-55203032D01*
X163716800Y-55431768D01*
X163761424Y-55656110D01*
X163848958Y-55867435D01*
X163976037Y-56057622D01*
X164137778Y-56219363D01*
X164284501Y-56317400D01*
X164137778Y-56415437D01*
X163976037Y-56577178D01*
X163848958Y-56767365D01*
X163761424Y-56978690D01*
X163716800Y-57203032D01*
X163716800Y-57431768D01*
X163761424Y-57656110D01*
X163848958Y-57867435D01*
X163976037Y-58057622D01*
X164137778Y-58219363D01*
X164327965Y-58346442D01*
X164392057Y-58372990D01*
X164292364Y-58426277D01*
X164222118Y-58590807D01*
X164878000Y-59246689D01*
X165533882Y-58590807D01*
X165463636Y-58426277D01*
X165362905Y-58373420D01*
X165428035Y-58346442D01*
X165618222Y-58219363D01*
X165737222Y-58100363D01*
X165716800Y-58203032D01*
X165716800Y-58431768D01*
X165761424Y-58656110D01*
X165800000Y-58749240D01*
X165800000Y-58789531D01*
X165769123Y-58731764D01*
X165604593Y-58661518D01*
X164948711Y-59317400D01*
X165604593Y-59973282D01*
X165769123Y-59903036D01*
X165800000Y-59844193D01*
X165800000Y-60425000D01*
X157112132Y-60425000D01*
X156731125Y-60043993D01*
X164222118Y-60043993D01*
X164292364Y-60208523D01*
X164477466Y-60305652D01*
X164677961Y-60364803D01*
X164886142Y-60383704D01*
X165094012Y-60361626D01*
X165293579Y-60299420D01*
X165463636Y-60208523D01*
X165533882Y-60043993D01*
X164878000Y-59388111D01*
X164222118Y-60043993D01*
X156731125Y-60043993D01*
X156012674Y-59325542D01*
X163811696Y-59325542D01*
X163833774Y-59533412D01*
X163895980Y-59732979D01*
X163986877Y-59903036D01*
X164151407Y-59973282D01*
X164807289Y-59317400D01*
X164151407Y-58661518D01*
X163986877Y-58731764D01*
X163889748Y-58916866D01*
X163830597Y-59117361D01*
X163811696Y-59325542D01*
X156012674Y-59325542D01*
X155330132Y-58643000D01*
X158282306Y-58643000D01*
X158289064Y-58711612D01*
X158309077Y-58777587D01*
X158341577Y-58838391D01*
X158385315Y-58891685D01*
X158438609Y-58935423D01*
X158499413Y-58967923D01*
X158565388Y-58987936D01*
X158634000Y-58994694D01*
X159150500Y-58993000D01*
X159238000Y-58905500D01*
X159238000Y-58039000D01*
X159338000Y-58039000D01*
X159338000Y-58905500D01*
X159425500Y-58993000D01*
X159942000Y-58994694D01*
X160010612Y-58987936D01*
X160076587Y-58967923D01*
X160137391Y-58935423D01*
X160190685Y-58891685D01*
X160234423Y-58838391D01*
X160266923Y-58777587D01*
X160286936Y-58711612D01*
X160293694Y-58643000D01*
X160292000Y-58126500D01*
X160204500Y-58039000D01*
X159338000Y-58039000D01*
X159238000Y-58039000D01*
X158371500Y-58039000D01*
X158284000Y-58126500D01*
X158282306Y-58643000D01*
X155330132Y-58643000D01*
X154756066Y-58068934D01*
X154733336Y-58050280D01*
X154707403Y-58036418D01*
X154679264Y-58027882D01*
X154650000Y-58025000D01*
X149837132Y-58025000D01*
X145528414Y-53716282D01*
X149675000Y-53716282D01*
X149675000Y-53883718D01*
X149707665Y-54047936D01*
X149771740Y-54202626D01*
X149864762Y-54341844D01*
X149983156Y-54460238D01*
X150122374Y-54553260D01*
X150277064Y-54617335D01*
X150441282Y-54650000D01*
X150608718Y-54650000D01*
X150772936Y-54617335D01*
X150927626Y-54553260D01*
X151007336Y-54500000D01*
X151160051Y-54500000D01*
X151538962Y-54878912D01*
X151557665Y-54972936D01*
X151621740Y-55127626D01*
X151675000Y-55207336D01*
X151675000Y-55265613D01*
X151671613Y-55300000D01*
X151675000Y-55334387D01*
X151675000Y-55334389D01*
X151685128Y-55437223D01*
X151722135Y-55559219D01*
X151725155Y-55569174D01*
X151790155Y-55690781D01*
X151838755Y-55750000D01*
X151877630Y-55797369D01*
X151904343Y-55819292D01*
X152688962Y-56603912D01*
X152707665Y-56697936D01*
X152771740Y-56852626D01*
X152864762Y-56991844D01*
X152983156Y-57110238D01*
X153122374Y-57203260D01*
X153277064Y-57267335D01*
X153441282Y-57300000D01*
X153608718Y-57300000D01*
X153772936Y-57267335D01*
X153927626Y-57203260D01*
X154007336Y-57150000D01*
X154760051Y-57150000D01*
X155038962Y-57428912D01*
X155057665Y-57522936D01*
X155121740Y-57677626D01*
X155214762Y-57816844D01*
X155333156Y-57935238D01*
X155472374Y-58028260D01*
X155627064Y-58092335D01*
X155791282Y-58125000D01*
X155958718Y-58125000D01*
X156122936Y-58092335D01*
X156277626Y-58028260D01*
X156416844Y-57935238D01*
X156535238Y-57816844D01*
X156628260Y-57677626D01*
X156692335Y-57522936D01*
X156725000Y-57358718D01*
X156725000Y-57335000D01*
X158282306Y-57335000D01*
X158284000Y-57851500D01*
X158371500Y-57939000D01*
X159238000Y-57939000D01*
X159238000Y-57072500D01*
X159338000Y-57072500D01*
X159338000Y-57939000D01*
X160204500Y-57939000D01*
X160292000Y-57851500D01*
X160293694Y-57335000D01*
X160286936Y-57266388D01*
X160266923Y-57200413D01*
X160234423Y-57139609D01*
X160190685Y-57086315D01*
X160137391Y-57042577D01*
X160076587Y-57010077D01*
X160010612Y-56990064D01*
X159942000Y-56983306D01*
X159425500Y-56985000D01*
X159338000Y-57072500D01*
X159238000Y-57072500D01*
X159150500Y-56985000D01*
X158634000Y-56983306D01*
X158565388Y-56990064D01*
X158499413Y-57010077D01*
X158438609Y-57042577D01*
X158385315Y-57086315D01*
X158341577Y-57139609D01*
X158309077Y-57200413D01*
X158289064Y-57266388D01*
X158282306Y-57335000D01*
X156725000Y-57335000D01*
X156725000Y-57191282D01*
X156692335Y-57027064D01*
X156628260Y-56872374D01*
X156535238Y-56733156D01*
X156416844Y-56614762D01*
X156277626Y-56521740D01*
X156122936Y-56457665D01*
X156028912Y-56438962D01*
X155569296Y-55979347D01*
X155547370Y-55952630D01*
X155440781Y-55865155D01*
X155319175Y-55800155D01*
X155187224Y-55760128D01*
X155084390Y-55750000D01*
X155084387Y-55750000D01*
X155050000Y-55746613D01*
X155015613Y-55750000D01*
X154007336Y-55750000D01*
X153927626Y-55696740D01*
X153772936Y-55632665D01*
X153678912Y-55613962D01*
X153147098Y-55082148D01*
X153192335Y-54972936D01*
X153225000Y-54808718D01*
X153225000Y-54641282D01*
X153192335Y-54477064D01*
X153128260Y-54322374D01*
X153035238Y-54183156D01*
X152916844Y-54064762D01*
X152777626Y-53971740D01*
X152622936Y-53907665D01*
X152528912Y-53888962D01*
X151969296Y-53329347D01*
X151947370Y-53302630D01*
X151840781Y-53215155D01*
X151719175Y-53150155D01*
X151587224Y-53110128D01*
X151484390Y-53100000D01*
X151484387Y-53100000D01*
X151450000Y-53096613D01*
X151415613Y-53100000D01*
X151007336Y-53100000D01*
X150927626Y-53046740D01*
X150772936Y-52982665D01*
X150608718Y-52950000D01*
X150441282Y-52950000D01*
X150277064Y-52982665D01*
X150122374Y-53046740D01*
X149983156Y-53139762D01*
X149864762Y-53258156D01*
X149771740Y-53397374D01*
X149707665Y-53552064D01*
X149675000Y-53716282D01*
X145528414Y-53716282D01*
X145067811Y-53255679D01*
X145103260Y-53202626D01*
X145167335Y-53047936D01*
X145200000Y-52883718D01*
X145200000Y-52716282D01*
X145167335Y-52552064D01*
X145103260Y-52397374D01*
X145010238Y-52258156D01*
X144975000Y-52222918D01*
X144975000Y-50691282D01*
X149925000Y-50691282D01*
X149925000Y-50858718D01*
X149957665Y-51022936D01*
X150021740Y-51177626D01*
X150114762Y-51316844D01*
X150233156Y-51435238D01*
X150372374Y-51528260D01*
X150527064Y-51592335D01*
X150691282Y-51625000D01*
X150858718Y-51625000D01*
X151022936Y-51592335D01*
X151177626Y-51528260D01*
X151316844Y-51435238D01*
X151435238Y-51316844D01*
X151528260Y-51177626D01*
X151592335Y-51022936D01*
X151625000Y-50858718D01*
X151625000Y-50691282D01*
X151592335Y-50527064D01*
X151575000Y-50485214D01*
X151575000Y-48957336D01*
X151628260Y-48877626D01*
X151692335Y-48722936D01*
X151725000Y-48558718D01*
X151725000Y-48391282D01*
X151715055Y-48341282D01*
X161425000Y-48341282D01*
X161425000Y-48508718D01*
X161457665Y-48672936D01*
X161521740Y-48827626D01*
X161614762Y-48966844D01*
X161733156Y-49085238D01*
X161872374Y-49178260D01*
X162027064Y-49242335D01*
X162121089Y-49261038D01*
X163030704Y-50170653D01*
X163052630Y-50197370D01*
X163159219Y-50284845D01*
X163280825Y-50349845D01*
X163412776Y-50389872D01*
X163515610Y-50400000D01*
X163515612Y-50400000D01*
X163518019Y-50400237D01*
X163597374Y-50453260D01*
X163752064Y-50517335D01*
X163916282Y-50550000D01*
X164083718Y-50550000D01*
X164247936Y-50517335D01*
X164402626Y-50453260D01*
X164541844Y-50360238D01*
X164660238Y-50241844D01*
X164753260Y-50102626D01*
X164817335Y-49947936D01*
X164850000Y-49783718D01*
X164850000Y-49616282D01*
X164817335Y-49452064D01*
X164753260Y-49297374D01*
X164660238Y-49158156D01*
X164541844Y-49039762D01*
X164402626Y-48946740D01*
X164247936Y-48882665D01*
X164083718Y-48850000D01*
X163916282Y-48850000D01*
X163752064Y-48882665D01*
X163731240Y-48891291D01*
X163111038Y-48271089D01*
X163092335Y-48177064D01*
X163028260Y-48022374D01*
X162935238Y-47883156D01*
X162816844Y-47764762D01*
X162677626Y-47671740D01*
X162522936Y-47607665D01*
X162358718Y-47575000D01*
X162191282Y-47575000D01*
X162027064Y-47607665D01*
X161872374Y-47671740D01*
X161733156Y-47764762D01*
X161614762Y-47883156D01*
X161521740Y-48022374D01*
X161457665Y-48177064D01*
X161425000Y-48341282D01*
X151715055Y-48341282D01*
X151692335Y-48227064D01*
X151628260Y-48072374D01*
X151535238Y-47933156D01*
X151416844Y-47814762D01*
X151277626Y-47721740D01*
X151122936Y-47657665D01*
X150958718Y-47625000D01*
X150791282Y-47625000D01*
X150627064Y-47657665D01*
X150472374Y-47721740D01*
X150333156Y-47814762D01*
X150214762Y-47933156D01*
X150121740Y-48072374D01*
X150057665Y-48227064D01*
X150025000Y-48391282D01*
X150025000Y-48558718D01*
X150057665Y-48722936D01*
X150121740Y-48877626D01*
X150175000Y-48957336D01*
X150175001Y-50172917D01*
X150114762Y-50233156D01*
X150021740Y-50372374D01*
X149957665Y-50527064D01*
X149925000Y-50691282D01*
X144975000Y-50691282D01*
X144975000Y-45991000D01*
X165800000Y-45991000D01*
X165800000Y-52607165D01*
%TO.N,GNDA*%
G36*
X192293001Y-77741000D02*
G01*
X157000000Y-77741000D01*
X157000000Y-75662000D01*
X160084757Y-75662000D01*
X160113000Y-75664782D01*
X160141243Y-75662000D01*
X160141246Y-75662000D01*
X160225720Y-75653680D01*
X160334108Y-75620801D01*
X160433998Y-75567408D01*
X160504043Y-75509925D01*
X160529001Y-75530408D01*
X160628892Y-75583801D01*
X160737280Y-75616680D01*
X160821754Y-75625000D01*
X160821757Y-75625000D01*
X160850000Y-75627782D01*
X160867977Y-75626011D01*
X160882243Y-75673041D01*
X160924029Y-75751216D01*
X160980263Y-75819737D01*
X161048784Y-75875971D01*
X161126959Y-75917757D01*
X161211785Y-75943489D01*
X161300000Y-75952177D01*
X161800000Y-75952177D01*
X161888215Y-75943489D01*
X161973041Y-75917757D01*
X162051216Y-75875971D01*
X162119737Y-75819737D01*
X162175971Y-75751216D01*
X162217757Y-75673041D01*
X162243489Y-75588215D01*
X162252177Y-75500000D01*
X162448306Y-75500000D01*
X162455064Y-75568612D01*
X162475077Y-75634587D01*
X162507577Y-75695391D01*
X162551315Y-75748685D01*
X162604609Y-75792423D01*
X162665413Y-75824923D01*
X162731388Y-75844936D01*
X162800000Y-75851694D01*
X162912500Y-75850000D01*
X163000000Y-75762500D01*
X163000000Y-75100000D01*
X163100000Y-75100000D01*
X163100000Y-75762500D01*
X163187500Y-75850000D01*
X163300000Y-75851694D01*
X163368612Y-75844936D01*
X163434587Y-75824923D01*
X163495391Y-75792423D01*
X163548685Y-75748685D01*
X163592423Y-75695391D01*
X163624923Y-75634587D01*
X163644936Y-75568612D01*
X163651694Y-75500000D01*
X163650000Y-75187500D01*
X163562500Y-75100000D01*
X163100000Y-75100000D01*
X163000000Y-75100000D01*
X162537500Y-75100000D01*
X162450000Y-75187500D01*
X162448306Y-75500000D01*
X162252177Y-75500000D01*
X162252177Y-74675000D01*
X162448713Y-74675000D01*
X162450000Y-74912500D01*
X162537500Y-75000000D01*
X163000000Y-75000000D01*
X163000000Y-74980000D01*
X163100000Y-74980000D01*
X163100000Y-75000000D01*
X163562500Y-75000000D01*
X163650000Y-74912500D01*
X163651287Y-74675000D01*
X164471757Y-74675000D01*
X164500000Y-74677782D01*
X164528243Y-74675000D01*
X164528246Y-74675000D01*
X164612720Y-74666680D01*
X164721108Y-74633801D01*
X164820998Y-74580408D01*
X164908554Y-74508554D01*
X164926565Y-74486607D01*
X165486612Y-73926561D01*
X165508554Y-73908554D01*
X165553932Y-73853260D01*
X165580408Y-73820999D01*
X165633801Y-73721108D01*
X165636143Y-73713387D01*
X165666680Y-73612720D01*
X165675000Y-73528246D01*
X165675000Y-73528244D01*
X165677782Y-73500001D01*
X165675000Y-73471758D01*
X165675000Y-72728242D01*
X165677782Y-72699999D01*
X165673843Y-72660011D01*
X165666680Y-72587280D01*
X165633801Y-72478892D01*
X165580408Y-72379002D01*
X165509187Y-72292218D01*
X165618222Y-72219363D01*
X165737222Y-72100363D01*
X165716800Y-72203032D01*
X165716800Y-72431768D01*
X165761424Y-72656110D01*
X165848958Y-72867435D01*
X165976037Y-73057622D01*
X166137778Y-73219363D01*
X166327965Y-73346442D01*
X166539290Y-73433976D01*
X166763632Y-73478600D01*
X166992368Y-73478600D01*
X167216710Y-73433976D01*
X167428035Y-73346442D01*
X167618222Y-73219363D01*
X167762206Y-73075379D01*
X168277373Y-73590545D01*
X168179762Y-73688156D01*
X168086740Y-73827374D01*
X168022665Y-73982064D01*
X167990000Y-74146282D01*
X167990000Y-74313718D01*
X168022665Y-74477936D01*
X168086740Y-74632626D01*
X168179762Y-74771844D01*
X168298156Y-74890238D01*
X168437374Y-74983260D01*
X168592064Y-75047335D01*
X168756282Y-75080000D01*
X168876828Y-75080000D01*
X169583439Y-75786612D01*
X169601446Y-75808554D01*
X169623386Y-75826559D01*
X169689001Y-75880408D01*
X169758876Y-75917757D01*
X169788892Y-75933801D01*
X169897280Y-75966680D01*
X169981754Y-75975000D01*
X169981757Y-75975000D01*
X170010000Y-75977782D01*
X170038243Y-75975000D01*
X171721757Y-75975000D01*
X171750000Y-75977782D01*
X171778243Y-75975000D01*
X171778246Y-75975000D01*
X171862720Y-75966680D01*
X171971108Y-75933801D01*
X172070998Y-75880408D01*
X172158554Y-75808554D01*
X172176565Y-75786607D01*
X173986612Y-73976561D01*
X174008554Y-73958554D01*
X174049587Y-73908554D01*
X174080408Y-73870999D01*
X174133801Y-73771108D01*
X174143485Y-73739184D01*
X174166680Y-73662720D01*
X174175000Y-73578246D01*
X174175000Y-73578244D01*
X174177782Y-73550001D01*
X174175000Y-73521758D01*
X174175000Y-72928243D01*
X174177782Y-72900000D01*
X174175000Y-72871754D01*
X174166680Y-72787280D01*
X174155372Y-72750000D01*
X175348306Y-72750000D01*
X175355064Y-72818612D01*
X175375077Y-72884587D01*
X175407577Y-72945391D01*
X175451315Y-72998685D01*
X175504609Y-73042423D01*
X175565413Y-73074923D01*
X175631388Y-73094936D01*
X175700000Y-73101694D01*
X175812500Y-73100000D01*
X175900000Y-73012500D01*
X175900000Y-72350000D01*
X176000000Y-72350000D01*
X176000000Y-73012500D01*
X176087500Y-73100000D01*
X176200000Y-73101694D01*
X176268612Y-73094936D01*
X176334587Y-73074923D01*
X176395391Y-73042423D01*
X176448685Y-72998685D01*
X176492423Y-72945391D01*
X176524923Y-72884587D01*
X176544936Y-72818612D01*
X176551694Y-72750000D01*
X176550000Y-72437500D01*
X176462500Y-72350000D01*
X176000000Y-72350000D01*
X175900000Y-72350000D01*
X175437500Y-72350000D01*
X175350000Y-72437500D01*
X175348306Y-72750000D01*
X174155372Y-72750000D01*
X174133801Y-72678892D01*
X174113233Y-72640413D01*
X174080408Y-72579001D01*
X174037170Y-72526315D01*
X174008554Y-72491446D01*
X173986613Y-72473440D01*
X173363173Y-71850000D01*
X175348306Y-71850000D01*
X175350000Y-72162500D01*
X175437500Y-72250000D01*
X175900000Y-72250000D01*
X175900000Y-71587500D01*
X176000000Y-71587500D01*
X176000000Y-72250000D01*
X176462500Y-72250000D01*
X176550000Y-72162500D01*
X176551694Y-71850000D01*
X176544936Y-71781388D01*
X176524923Y-71715413D01*
X176492423Y-71654609D01*
X176448685Y-71601315D01*
X176395391Y-71557577D01*
X176334587Y-71525077D01*
X176268612Y-71505064D01*
X176200000Y-71498306D01*
X176087500Y-71500000D01*
X176000000Y-71587500D01*
X175900000Y-71587500D01*
X175812500Y-71500000D01*
X175700000Y-71498306D01*
X175631388Y-71505064D01*
X175565413Y-71525077D01*
X175504609Y-71557577D01*
X175451315Y-71601315D01*
X175407577Y-71654609D01*
X175375077Y-71715413D01*
X175355064Y-71781388D01*
X175348306Y-71850000D01*
X173363173Y-71850000D01*
X173075000Y-71561828D01*
X173075000Y-70700141D01*
X173117335Y-70597936D01*
X173150000Y-70433718D01*
X173150000Y-70266282D01*
X173146762Y-70250000D01*
X175348306Y-70250000D01*
X175355064Y-70318612D01*
X175375077Y-70384587D01*
X175407577Y-70445391D01*
X175451315Y-70498685D01*
X175504609Y-70542423D01*
X175565413Y-70574923D01*
X175631388Y-70594936D01*
X175700000Y-70601694D01*
X175812500Y-70600000D01*
X175900000Y-70512500D01*
X175900000Y-69850000D01*
X176000000Y-69850000D01*
X176000000Y-70512500D01*
X176087500Y-70600000D01*
X176200000Y-70601694D01*
X176268612Y-70594936D01*
X176334587Y-70574923D01*
X176395391Y-70542423D01*
X176448685Y-70498685D01*
X176492423Y-70445391D01*
X176524923Y-70384587D01*
X176544936Y-70318612D01*
X176551694Y-70250000D01*
X176550000Y-69937500D01*
X176462500Y-69850000D01*
X176000000Y-69850000D01*
X175900000Y-69850000D01*
X175437500Y-69850000D01*
X175350000Y-69937500D01*
X175348306Y-70250000D01*
X173146762Y-70250000D01*
X173117335Y-70102064D01*
X173053260Y-69947374D01*
X172960238Y-69808156D01*
X172841844Y-69689762D01*
X172702626Y-69596740D01*
X172547936Y-69532665D01*
X172529794Y-69529056D01*
X172539200Y-69481768D01*
X172539200Y-69350000D01*
X175348306Y-69350000D01*
X175350000Y-69662500D01*
X175437500Y-69750000D01*
X175900000Y-69750000D01*
X175900000Y-69087500D01*
X176000000Y-69087500D01*
X176000000Y-69750000D01*
X176462500Y-69750000D01*
X176550000Y-69662500D01*
X176551694Y-69350000D01*
X176544936Y-69281388D01*
X176524923Y-69215413D01*
X176492423Y-69154609D01*
X176448685Y-69101315D01*
X176395391Y-69057577D01*
X176334587Y-69025077D01*
X176268612Y-69005064D01*
X176200000Y-68998306D01*
X176087500Y-69000000D01*
X176000000Y-69087500D01*
X175900000Y-69087500D01*
X175812500Y-69000000D01*
X175700000Y-68998306D01*
X175631388Y-69005064D01*
X175565413Y-69025077D01*
X175504609Y-69057577D01*
X175451315Y-69101315D01*
X175407577Y-69154609D01*
X175375077Y-69215413D01*
X175355064Y-69281388D01*
X175348306Y-69350000D01*
X172539200Y-69350000D01*
X172539200Y-69253032D01*
X172494576Y-69028690D01*
X172407042Y-68817365D01*
X172279963Y-68627178D01*
X172118222Y-68465437D01*
X171971499Y-68367400D01*
X172118222Y-68269363D01*
X172279963Y-68107622D01*
X172407042Y-67917435D01*
X172476396Y-67750000D01*
X175348306Y-67750000D01*
X175355064Y-67818612D01*
X175375077Y-67884587D01*
X175407577Y-67945391D01*
X175451315Y-67998685D01*
X175504609Y-68042423D01*
X175565413Y-68074923D01*
X175631388Y-68094936D01*
X175700000Y-68101694D01*
X175812500Y-68100000D01*
X175900000Y-68012500D01*
X175900000Y-67350000D01*
X175437500Y-67350000D01*
X175350000Y-67437500D01*
X175348306Y-67750000D01*
X172476396Y-67750000D01*
X172494576Y-67706110D01*
X172539200Y-67481768D01*
X172539200Y-67253032D01*
X172494576Y-67028690D01*
X172420560Y-66850000D01*
X175348306Y-66850000D01*
X175350000Y-67162500D01*
X175437500Y-67250000D01*
X175900000Y-67250000D01*
X175900000Y-66587500D01*
X175812500Y-66500000D01*
X175700000Y-66498306D01*
X175631388Y-66505064D01*
X175565413Y-66525077D01*
X175504609Y-66557577D01*
X175451315Y-66601315D01*
X175407577Y-66654609D01*
X175375077Y-66715413D01*
X175355064Y-66781388D01*
X175348306Y-66850000D01*
X172420560Y-66850000D01*
X172407042Y-66817365D01*
X172279963Y-66627178D01*
X172118222Y-66465437D01*
X171971499Y-66367400D01*
X172034955Y-66325000D01*
X176225000Y-66325000D01*
X176225000Y-66500768D01*
X176200000Y-66498306D01*
X176087500Y-66500000D01*
X176000000Y-66587500D01*
X176000000Y-67250000D01*
X176020000Y-67250000D01*
X176020000Y-67350000D01*
X176000000Y-67350000D01*
X176000000Y-68012500D01*
X176087500Y-68100000D01*
X176200000Y-68101694D01*
X176227048Y-68099030D01*
X176230425Y-68133320D01*
X176233321Y-68162720D01*
X176242655Y-68193489D01*
X176266199Y-68271107D01*
X176319592Y-68370998D01*
X176353652Y-68412500D01*
X176391447Y-68458554D01*
X176413389Y-68476561D01*
X176423434Y-68486606D01*
X176441446Y-68508554D01*
X176529002Y-68580408D01*
X176628892Y-68633801D01*
X176737280Y-68666680D01*
X176821754Y-68675000D01*
X176821757Y-68675000D01*
X176850000Y-68677782D01*
X176878243Y-68675000D01*
X177722918Y-68675000D01*
X177808156Y-68760238D01*
X177947374Y-68853260D01*
X178102064Y-68917335D01*
X178266282Y-68950000D01*
X178433718Y-68950000D01*
X178597936Y-68917335D01*
X178611766Y-68911606D01*
X178464336Y-69132251D01*
X178427823Y-69220400D01*
X178130935Y-69220400D01*
X178117757Y-69176959D01*
X178075971Y-69098784D01*
X178019737Y-69030263D01*
X177951216Y-68974029D01*
X177873041Y-68932243D01*
X177788215Y-68906511D01*
X177700000Y-68897823D01*
X177200000Y-68897823D01*
X177111785Y-68906511D01*
X177026959Y-68932243D01*
X176948784Y-68974029D01*
X176880263Y-69030263D01*
X176824029Y-69098784D01*
X176782243Y-69176959D01*
X176756511Y-69261785D01*
X176747823Y-69350000D01*
X176747823Y-70250000D01*
X176756511Y-70338215D01*
X176782243Y-70423041D01*
X176824029Y-70501216D01*
X176880263Y-70569737D01*
X176948784Y-70625971D01*
X177026959Y-70667757D01*
X177111785Y-70693489D01*
X177200000Y-70702177D01*
X177700000Y-70702177D01*
X177788215Y-70693489D01*
X177873041Y-70667757D01*
X177951216Y-70625971D01*
X178019737Y-70569737D01*
X178075971Y-70501216D01*
X178117757Y-70423041D01*
X178133726Y-70370400D01*
X178427823Y-70370400D01*
X178464336Y-70458549D01*
X178617549Y-70687848D01*
X178812552Y-70882851D01*
X179041851Y-71036064D01*
X179064390Y-71045400D01*
X179041851Y-71054736D01*
X178812552Y-71207949D01*
X178617549Y-71402952D01*
X178464336Y-71632251D01*
X178427823Y-71720400D01*
X178130935Y-71720400D01*
X178117757Y-71676959D01*
X178075971Y-71598784D01*
X178019737Y-71530263D01*
X177951216Y-71474029D01*
X177873041Y-71432243D01*
X177788215Y-71406511D01*
X177700000Y-71397823D01*
X177200000Y-71397823D01*
X177111785Y-71406511D01*
X177026959Y-71432243D01*
X176948784Y-71474029D01*
X176880263Y-71530263D01*
X176824029Y-71598784D01*
X176782243Y-71676959D01*
X176756511Y-71761785D01*
X176747823Y-71850000D01*
X176747823Y-72750000D01*
X176756511Y-72838215D01*
X176782243Y-72923041D01*
X176824029Y-73001216D01*
X176880263Y-73069737D01*
X176948784Y-73125971D01*
X177026959Y-73167757D01*
X177111785Y-73193489D01*
X177200000Y-73202177D01*
X177700000Y-73202177D01*
X177788215Y-73193489D01*
X177873041Y-73167757D01*
X177951216Y-73125971D01*
X178019737Y-73069737D01*
X178075971Y-73001216D01*
X178117757Y-72923041D01*
X178133726Y-72870400D01*
X178427823Y-72870400D01*
X178464336Y-72958549D01*
X178617549Y-73187848D01*
X178812552Y-73382851D01*
X179041851Y-73536064D01*
X179296635Y-73641599D01*
X179567112Y-73695400D01*
X179842888Y-73695400D01*
X180113365Y-73641599D01*
X180368149Y-73536064D01*
X180597448Y-73382851D01*
X180792451Y-73187848D01*
X180945664Y-72958549D01*
X180955000Y-72936010D01*
X180964336Y-72958549D01*
X181117549Y-73187848D01*
X181312552Y-73382851D01*
X181541851Y-73536064D01*
X181796635Y-73641599D01*
X182067112Y-73695400D01*
X182342888Y-73695400D01*
X182613365Y-73641599D01*
X182868149Y-73536064D01*
X183097448Y-73382851D01*
X183292451Y-73187848D01*
X183445664Y-72958549D01*
X183480271Y-72875000D01*
X183767670Y-72875000D01*
X183782243Y-72923041D01*
X183824029Y-73001216D01*
X183880263Y-73069737D01*
X183948784Y-73125971D01*
X184026959Y-73167757D01*
X184111785Y-73193489D01*
X184200000Y-73202177D01*
X184700000Y-73202177D01*
X184788215Y-73193489D01*
X184873041Y-73167757D01*
X184951216Y-73125971D01*
X185019737Y-73069737D01*
X185075971Y-73001216D01*
X185117757Y-72923041D01*
X185143489Y-72838215D01*
X185152177Y-72750000D01*
X185348306Y-72750000D01*
X185355064Y-72818612D01*
X185375077Y-72884587D01*
X185407577Y-72945391D01*
X185451315Y-72998685D01*
X185504609Y-73042423D01*
X185565413Y-73074923D01*
X185631388Y-73094936D01*
X185700000Y-73101694D01*
X185812500Y-73100000D01*
X185900000Y-73012500D01*
X185900000Y-72350000D01*
X186000000Y-72350000D01*
X186000000Y-73012500D01*
X186087500Y-73100000D01*
X186200000Y-73101694D01*
X186268612Y-73094936D01*
X186334587Y-73074923D01*
X186395391Y-73042423D01*
X186448685Y-72998685D01*
X186492423Y-72945391D01*
X186524923Y-72884587D01*
X186544936Y-72818612D01*
X186551694Y-72750000D01*
X186550000Y-72437500D01*
X186462500Y-72350000D01*
X186000000Y-72350000D01*
X185900000Y-72350000D01*
X185437500Y-72350000D01*
X185350000Y-72437500D01*
X185348306Y-72750000D01*
X185152177Y-72750000D01*
X185152177Y-71850000D01*
X185348306Y-71850000D01*
X185350000Y-72162500D01*
X185437500Y-72250000D01*
X185900000Y-72250000D01*
X185900000Y-71587500D01*
X186000000Y-71587500D01*
X186000000Y-72250000D01*
X186462500Y-72250000D01*
X186540214Y-72172286D01*
X188135000Y-72172286D01*
X188135000Y-72418514D01*
X188183037Y-72660011D01*
X188277265Y-72887497D01*
X188414062Y-73092228D01*
X188588172Y-73266338D01*
X188792903Y-73403135D01*
X189020389Y-73497363D01*
X189261886Y-73545400D01*
X189508114Y-73545400D01*
X189749611Y-73497363D01*
X189977097Y-73403135D01*
X190181828Y-73266338D01*
X190355938Y-73092228D01*
X190492735Y-72887497D01*
X190586963Y-72660011D01*
X190635000Y-72418514D01*
X190635000Y-72172286D01*
X190586963Y-71930789D01*
X190492735Y-71703303D01*
X190355938Y-71498572D01*
X190181828Y-71324462D01*
X189977097Y-71187665D01*
X189749611Y-71093437D01*
X189508114Y-71045400D01*
X189261886Y-71045400D01*
X189020389Y-71093437D01*
X188792903Y-71187665D01*
X188588172Y-71324462D01*
X188414062Y-71498572D01*
X188277265Y-71703303D01*
X188183037Y-71930789D01*
X188135000Y-72172286D01*
X186540214Y-72172286D01*
X186550000Y-72162500D01*
X186551694Y-71850000D01*
X186544936Y-71781388D01*
X186524923Y-71715413D01*
X186492423Y-71654609D01*
X186448685Y-71601315D01*
X186395391Y-71557577D01*
X186334587Y-71525077D01*
X186268612Y-71505064D01*
X186200000Y-71498306D01*
X186087500Y-71500000D01*
X186000000Y-71587500D01*
X185900000Y-71587500D01*
X185812500Y-71500000D01*
X185700000Y-71498306D01*
X185631388Y-71505064D01*
X185565413Y-71525077D01*
X185504609Y-71557577D01*
X185451315Y-71601315D01*
X185407577Y-71654609D01*
X185375077Y-71715413D01*
X185355064Y-71781388D01*
X185348306Y-71850000D01*
X185152177Y-71850000D01*
X185143489Y-71761785D01*
X185117757Y-71676959D01*
X185075971Y-71598784D01*
X185019737Y-71530263D01*
X184951216Y-71474029D01*
X184873041Y-71432243D01*
X184788215Y-71406511D01*
X184700000Y-71397823D01*
X184200000Y-71397823D01*
X184111785Y-71406511D01*
X184026959Y-71432243D01*
X183948784Y-71474029D01*
X183880263Y-71530263D01*
X183824029Y-71598784D01*
X183782243Y-71676959D01*
X183767670Y-71725000D01*
X183484082Y-71725000D01*
X183445664Y-71632251D01*
X183292451Y-71402952D01*
X183097448Y-71207949D01*
X182868149Y-71054736D01*
X182845610Y-71045400D01*
X182868149Y-71036064D01*
X183097448Y-70882851D01*
X183292451Y-70687848D01*
X183445664Y-70458549D01*
X183480271Y-70375000D01*
X183767670Y-70375000D01*
X183782243Y-70423041D01*
X183824029Y-70501216D01*
X183880263Y-70569737D01*
X183948784Y-70625971D01*
X184026959Y-70667757D01*
X184111785Y-70693489D01*
X184200000Y-70702177D01*
X184700000Y-70702177D01*
X184788215Y-70693489D01*
X184873041Y-70667757D01*
X184951216Y-70625971D01*
X185019737Y-70569737D01*
X185075971Y-70501216D01*
X185117757Y-70423041D01*
X185143489Y-70338215D01*
X185152177Y-70250000D01*
X185348306Y-70250000D01*
X185355064Y-70318612D01*
X185375077Y-70384587D01*
X185407577Y-70445391D01*
X185451315Y-70498685D01*
X185504609Y-70542423D01*
X185565413Y-70574923D01*
X185631388Y-70594936D01*
X185700000Y-70601694D01*
X185812500Y-70600000D01*
X185900000Y-70512500D01*
X185900000Y-69850000D01*
X186000000Y-69850000D01*
X186000000Y-70512500D01*
X186087500Y-70600000D01*
X186200000Y-70601694D01*
X186268612Y-70594936D01*
X186334587Y-70574923D01*
X186395391Y-70542423D01*
X186448685Y-70498685D01*
X186492423Y-70445391D01*
X186524923Y-70384587D01*
X186544936Y-70318612D01*
X186551694Y-70250000D01*
X186550000Y-69937500D01*
X186462500Y-69850000D01*
X186000000Y-69850000D01*
X185900000Y-69850000D01*
X185437500Y-69850000D01*
X185350000Y-69937500D01*
X185348306Y-70250000D01*
X185152177Y-70250000D01*
X185152177Y-69350000D01*
X185348306Y-69350000D01*
X185350000Y-69662500D01*
X185437500Y-69750000D01*
X185900000Y-69750000D01*
X185900000Y-69087500D01*
X186000000Y-69087500D01*
X186000000Y-69750000D01*
X186462500Y-69750000D01*
X186550000Y-69662500D01*
X186551694Y-69350000D01*
X186544936Y-69281388D01*
X186524923Y-69215413D01*
X186492423Y-69154609D01*
X186448685Y-69101315D01*
X186395391Y-69057577D01*
X186334587Y-69025077D01*
X186268612Y-69005064D01*
X186200000Y-68998306D01*
X186087500Y-69000000D01*
X186000000Y-69087500D01*
X185900000Y-69087500D01*
X185812500Y-69000000D01*
X185700000Y-68998306D01*
X185631388Y-69005064D01*
X185565413Y-69025077D01*
X185504609Y-69057577D01*
X185451315Y-69101315D01*
X185407577Y-69154609D01*
X185375077Y-69215413D01*
X185355064Y-69281388D01*
X185348306Y-69350000D01*
X185152177Y-69350000D01*
X185143489Y-69261785D01*
X185117757Y-69176959D01*
X185075971Y-69098784D01*
X185019737Y-69030263D01*
X184951216Y-68974029D01*
X184873041Y-68932243D01*
X184788215Y-68906511D01*
X184700000Y-68897823D01*
X184200000Y-68897823D01*
X184111785Y-68906511D01*
X184026959Y-68932243D01*
X183948784Y-68974029D01*
X183880263Y-69030263D01*
X183824029Y-69098784D01*
X183782243Y-69176959D01*
X183767670Y-69225000D01*
X183484082Y-69225000D01*
X183445664Y-69132251D01*
X183292451Y-68902952D01*
X183097448Y-68707949D01*
X182868149Y-68554736D01*
X182845610Y-68545400D01*
X182868149Y-68536064D01*
X183097448Y-68382851D01*
X183292451Y-68187848D01*
X183445664Y-67958549D01*
X183480271Y-67875000D01*
X183767670Y-67875000D01*
X183782243Y-67923041D01*
X183824029Y-68001216D01*
X183880263Y-68069737D01*
X183948784Y-68125971D01*
X184026959Y-68167757D01*
X184111785Y-68193489D01*
X184200000Y-68202177D01*
X184700000Y-68202177D01*
X184788215Y-68193489D01*
X184873041Y-68167757D01*
X184951216Y-68125971D01*
X185019737Y-68069737D01*
X185075971Y-68001216D01*
X185117757Y-67923041D01*
X185143489Y-67838215D01*
X185152177Y-67750000D01*
X185348306Y-67750000D01*
X185355064Y-67818612D01*
X185375077Y-67884587D01*
X185407577Y-67945391D01*
X185451315Y-67998685D01*
X185504609Y-68042423D01*
X185565413Y-68074923D01*
X185631388Y-68094936D01*
X185700000Y-68101694D01*
X185812500Y-68100000D01*
X185900000Y-68012500D01*
X185900000Y-67350000D01*
X186000000Y-67350000D01*
X186000000Y-68012500D01*
X186087500Y-68100000D01*
X186200000Y-68101694D01*
X186268612Y-68094936D01*
X186334587Y-68074923D01*
X186395391Y-68042423D01*
X186448685Y-67998685D01*
X186492423Y-67945391D01*
X186524923Y-67884587D01*
X186544936Y-67818612D01*
X186551694Y-67750000D01*
X186550000Y-67437500D01*
X186462500Y-67350000D01*
X186000000Y-67350000D01*
X185900000Y-67350000D01*
X185437500Y-67350000D01*
X185350000Y-67437500D01*
X185348306Y-67750000D01*
X185152177Y-67750000D01*
X185152177Y-66850000D01*
X185348306Y-66850000D01*
X185350000Y-67162500D01*
X185437500Y-67250000D01*
X185900000Y-67250000D01*
X185900000Y-66587500D01*
X186000000Y-66587500D01*
X186000000Y-67250000D01*
X186462500Y-67250000D01*
X186550000Y-67162500D01*
X186551694Y-66850000D01*
X186544936Y-66781388D01*
X186524923Y-66715413D01*
X186492423Y-66654609D01*
X186448685Y-66601315D01*
X186395391Y-66557577D01*
X186334587Y-66525077D01*
X186268612Y-66505064D01*
X186200000Y-66498306D01*
X186087500Y-66500000D01*
X186000000Y-66587500D01*
X185900000Y-66587500D01*
X185812500Y-66500000D01*
X185700000Y-66498306D01*
X185631388Y-66505064D01*
X185565413Y-66525077D01*
X185504609Y-66557577D01*
X185451315Y-66601315D01*
X185407577Y-66654609D01*
X185375077Y-66715413D01*
X185355064Y-66781388D01*
X185348306Y-66850000D01*
X185152177Y-66850000D01*
X185143489Y-66761785D01*
X185117757Y-66676959D01*
X185075971Y-66598784D01*
X185019737Y-66530263D01*
X184951216Y-66474029D01*
X184873041Y-66432243D01*
X184788215Y-66406511D01*
X184700000Y-66397823D01*
X184200000Y-66397823D01*
X184111785Y-66406511D01*
X184026959Y-66432243D01*
X183948784Y-66474029D01*
X183880263Y-66530263D01*
X183824029Y-66598784D01*
X183782243Y-66676959D01*
X183767670Y-66725000D01*
X183484082Y-66725000D01*
X183445664Y-66632251D01*
X183292451Y-66402952D01*
X183097448Y-66207949D01*
X182868149Y-66054736D01*
X182845610Y-66045400D01*
X182868149Y-66036064D01*
X183097448Y-65882851D01*
X183292451Y-65687848D01*
X183445664Y-65458549D01*
X183482177Y-65370400D01*
X183766274Y-65370400D01*
X183782243Y-65423041D01*
X183824029Y-65501216D01*
X183880263Y-65569737D01*
X183948784Y-65625971D01*
X184026959Y-65667757D01*
X184111785Y-65693489D01*
X184200000Y-65702177D01*
X184700000Y-65702177D01*
X184788215Y-65693489D01*
X184873041Y-65667757D01*
X184951216Y-65625971D01*
X185019737Y-65569737D01*
X185075971Y-65501216D01*
X185117757Y-65423041D01*
X185143489Y-65338215D01*
X185152177Y-65250000D01*
X185348306Y-65250000D01*
X185355064Y-65318612D01*
X185375077Y-65384587D01*
X185407577Y-65445391D01*
X185451315Y-65498685D01*
X185504609Y-65542423D01*
X185565413Y-65574923D01*
X185631388Y-65594936D01*
X185700000Y-65601694D01*
X185812500Y-65600000D01*
X185900000Y-65512500D01*
X185900000Y-64850000D01*
X186000000Y-64850000D01*
X186000000Y-65512500D01*
X186087500Y-65600000D01*
X186200000Y-65601694D01*
X186268612Y-65594936D01*
X186334587Y-65574923D01*
X186395391Y-65542423D01*
X186448685Y-65498685D01*
X186492423Y-65445391D01*
X186524923Y-65384587D01*
X186544936Y-65318612D01*
X186551694Y-65250000D01*
X186550000Y-64937500D01*
X186462500Y-64850000D01*
X186000000Y-64850000D01*
X185900000Y-64850000D01*
X185437500Y-64850000D01*
X185350000Y-64937500D01*
X185348306Y-65250000D01*
X185152177Y-65250000D01*
X185152177Y-64350000D01*
X185348306Y-64350000D01*
X185350000Y-64662500D01*
X185437500Y-64750000D01*
X185900000Y-64750000D01*
X185900000Y-64087500D01*
X186000000Y-64087500D01*
X186000000Y-64750000D01*
X186462500Y-64750000D01*
X186540214Y-64672286D01*
X188135000Y-64672286D01*
X188135000Y-64918514D01*
X188183037Y-65160011D01*
X188277265Y-65387497D01*
X188414062Y-65592228D01*
X188588172Y-65766338D01*
X188792903Y-65903135D01*
X189020389Y-65997363D01*
X189261886Y-66045400D01*
X189508114Y-66045400D01*
X189749611Y-65997363D01*
X189977097Y-65903135D01*
X190181828Y-65766338D01*
X190355938Y-65592228D01*
X190492735Y-65387497D01*
X190586963Y-65160011D01*
X190635000Y-64918514D01*
X190635000Y-64672286D01*
X190586963Y-64430789D01*
X190492735Y-64203303D01*
X190355938Y-63998572D01*
X190181828Y-63824462D01*
X189977097Y-63687665D01*
X189749611Y-63593437D01*
X189508114Y-63545400D01*
X189261886Y-63545400D01*
X189020389Y-63593437D01*
X188792903Y-63687665D01*
X188588172Y-63824462D01*
X188414062Y-63998572D01*
X188277265Y-64203303D01*
X188183037Y-64430789D01*
X188135000Y-64672286D01*
X186540214Y-64672286D01*
X186550000Y-64662500D01*
X186551694Y-64350000D01*
X186544936Y-64281388D01*
X186524923Y-64215413D01*
X186492423Y-64154609D01*
X186448685Y-64101315D01*
X186395391Y-64057577D01*
X186334587Y-64025077D01*
X186268612Y-64005064D01*
X186200000Y-63998306D01*
X186087500Y-64000000D01*
X186000000Y-64087500D01*
X185900000Y-64087500D01*
X185812500Y-64000000D01*
X185700000Y-63998306D01*
X185631388Y-64005064D01*
X185565413Y-64025077D01*
X185504609Y-64057577D01*
X185451315Y-64101315D01*
X185407577Y-64154609D01*
X185375077Y-64215413D01*
X185355064Y-64281388D01*
X185348306Y-64350000D01*
X185152177Y-64350000D01*
X185143489Y-64261785D01*
X185117757Y-64176959D01*
X185075971Y-64098784D01*
X185019737Y-64030263D01*
X184951216Y-63974029D01*
X184873041Y-63932243D01*
X184788215Y-63906511D01*
X184700000Y-63897823D01*
X184200000Y-63897823D01*
X184111785Y-63906511D01*
X184026959Y-63932243D01*
X183948784Y-63974029D01*
X183880263Y-64030263D01*
X183824029Y-64098784D01*
X183782243Y-64176959D01*
X183769065Y-64220400D01*
X183482177Y-64220400D01*
X183445664Y-64132251D01*
X183292451Y-63902952D01*
X183097448Y-63707949D01*
X182868149Y-63554736D01*
X182613365Y-63449201D01*
X182342888Y-63395400D01*
X182067112Y-63395400D01*
X181796635Y-63449201D01*
X181541851Y-63554736D01*
X181312552Y-63707949D01*
X181117549Y-63902952D01*
X181107177Y-63918475D01*
X181107177Y-63845400D01*
X181098489Y-63757185D01*
X181072757Y-63672359D01*
X181030971Y-63594184D01*
X180974737Y-63525663D01*
X180906216Y-63469429D01*
X180828041Y-63427643D01*
X180743215Y-63401911D01*
X180655000Y-63393223D01*
X178817078Y-63393223D01*
X178760238Y-63308156D01*
X178641844Y-63189762D01*
X178502626Y-63096740D01*
X178347936Y-63032665D01*
X178183718Y-63000000D01*
X178065574Y-63000000D01*
X178058554Y-62991446D01*
X177970998Y-62919592D01*
X177871108Y-62866199D01*
X177762720Y-62833320D01*
X177678246Y-62825000D01*
X177678243Y-62825000D01*
X177650000Y-62822218D01*
X177621757Y-62825000D01*
X173188173Y-62825000D01*
X172276565Y-61913393D01*
X172258554Y-61891446D01*
X172170998Y-61819592D01*
X172071108Y-61766199D01*
X171962720Y-61733320D01*
X171878246Y-61725000D01*
X171878243Y-61725000D01*
X171850000Y-61722218D01*
X171821757Y-61725000D01*
X170928242Y-61725000D01*
X170899999Y-61722218D01*
X170871756Y-61725000D01*
X170871754Y-61725000D01*
X170787280Y-61733320D01*
X170678892Y-61766199D01*
X170579001Y-61819592D01*
X170533153Y-61857218D01*
X170491446Y-61891446D01*
X170473439Y-61913388D01*
X170454614Y-61932213D01*
X170407042Y-61817365D01*
X170279963Y-61627178D01*
X170118222Y-61465437D01*
X169928035Y-61338358D01*
X169716710Y-61250824D01*
X169669801Y-61241493D01*
X169690552Y-61191395D01*
X169738280Y-60951452D01*
X170223439Y-61436612D01*
X170241446Y-61458554D01*
X170263386Y-61476559D01*
X170329001Y-61530408D01*
X170410900Y-61574184D01*
X170428892Y-61583801D01*
X170537280Y-61616680D01*
X170621754Y-61625000D01*
X170621756Y-61625000D01*
X170649999Y-61627782D01*
X170678242Y-61625000D01*
X172900000Y-61625000D01*
X172900000Y-61633718D01*
X172932665Y-61797936D01*
X172996740Y-61952626D01*
X173089762Y-62091844D01*
X173208156Y-62210238D01*
X173347374Y-62303260D01*
X173502064Y-62367335D01*
X173666282Y-62400000D01*
X173833718Y-62400000D01*
X173997936Y-62367335D01*
X174152626Y-62303260D01*
X174291844Y-62210238D01*
X174410238Y-62091844D01*
X174503260Y-61952626D01*
X174567335Y-61797936D01*
X174596761Y-61650000D01*
X174633718Y-61650000D01*
X174797936Y-61617335D01*
X174952626Y-61553260D01*
X175091844Y-61460238D01*
X175210238Y-61341844D01*
X175303260Y-61202626D01*
X175367335Y-61047936D01*
X175400000Y-60883718D01*
X175400000Y-60716282D01*
X175381843Y-60625000D01*
X183921757Y-60625000D01*
X183950000Y-60627782D01*
X183978243Y-60625000D01*
X183978246Y-60625000D01*
X184062720Y-60616680D01*
X184171108Y-60583801D01*
X184270998Y-60530408D01*
X184358554Y-60458554D01*
X184376565Y-60436607D01*
X185436613Y-59376560D01*
X185458554Y-59358554D01*
X185494722Y-59314482D01*
X185530408Y-59270999D01*
X185583801Y-59171108D01*
X185588733Y-59154848D01*
X185616680Y-59062720D01*
X185623589Y-58992570D01*
X185631388Y-58994936D01*
X185700000Y-59001694D01*
X185812500Y-59000000D01*
X185900000Y-58912500D01*
X185900000Y-58250000D01*
X186000000Y-58250000D01*
X186000000Y-58912500D01*
X186087500Y-59000000D01*
X186200000Y-59001694D01*
X186268612Y-58994936D01*
X186334587Y-58974923D01*
X186395391Y-58942423D01*
X186448685Y-58898685D01*
X186492423Y-58845391D01*
X186524923Y-58784587D01*
X186544936Y-58718612D01*
X186551694Y-58650000D01*
X186550000Y-58337500D01*
X186462500Y-58250000D01*
X186000000Y-58250000D01*
X185900000Y-58250000D01*
X185880000Y-58250000D01*
X185880000Y-58150000D01*
X185900000Y-58150000D01*
X185900000Y-57487500D01*
X186000000Y-57487500D01*
X186000000Y-58150000D01*
X186462500Y-58150000D01*
X186537214Y-58075286D01*
X188135000Y-58075286D01*
X188135000Y-58321514D01*
X188183037Y-58563011D01*
X188277265Y-58790497D01*
X188414062Y-58995228D01*
X188588172Y-59169338D01*
X188792903Y-59306135D01*
X189020389Y-59400363D01*
X189261886Y-59448400D01*
X189508114Y-59448400D01*
X189749611Y-59400363D01*
X189977097Y-59306135D01*
X190181828Y-59169338D01*
X190355938Y-58995228D01*
X190492735Y-58790497D01*
X190586963Y-58563011D01*
X190635000Y-58321514D01*
X190635000Y-58075286D01*
X190586963Y-57833789D01*
X190492735Y-57606303D01*
X190355938Y-57401572D01*
X190181828Y-57227462D01*
X189977097Y-57090665D01*
X189749611Y-56996437D01*
X189508114Y-56948400D01*
X189261886Y-56948400D01*
X189020389Y-56996437D01*
X188792903Y-57090665D01*
X188588172Y-57227462D01*
X188414062Y-57401572D01*
X188277265Y-57606303D01*
X188183037Y-57833789D01*
X188135000Y-58075286D01*
X186537214Y-58075286D01*
X186550000Y-58062500D01*
X186551694Y-57750000D01*
X186544936Y-57681388D01*
X186524923Y-57615413D01*
X186492423Y-57554609D01*
X186448685Y-57501315D01*
X186395391Y-57457577D01*
X186334587Y-57425077D01*
X186268612Y-57405064D01*
X186200000Y-57398306D01*
X186087500Y-57400000D01*
X186000000Y-57487500D01*
X185900000Y-57487500D01*
X185812500Y-57400000D01*
X185700000Y-57398306D01*
X185631388Y-57405064D01*
X185625000Y-57407002D01*
X185625000Y-56492998D01*
X185631388Y-56494936D01*
X185700000Y-56501694D01*
X185812500Y-56500000D01*
X185900000Y-56412500D01*
X185900000Y-55750000D01*
X186000000Y-55750000D01*
X186000000Y-56412500D01*
X186087500Y-56500000D01*
X186200000Y-56501694D01*
X186268612Y-56494936D01*
X186334587Y-56474923D01*
X186395391Y-56442423D01*
X186448685Y-56398685D01*
X186492423Y-56345391D01*
X186524923Y-56284587D01*
X186544936Y-56218612D01*
X186551694Y-56150000D01*
X186550000Y-55837500D01*
X186462500Y-55750000D01*
X186000000Y-55750000D01*
X185900000Y-55750000D01*
X185880000Y-55750000D01*
X185880000Y-55650000D01*
X185900000Y-55650000D01*
X185900000Y-54987500D01*
X186000000Y-54987500D01*
X186000000Y-55650000D01*
X186462500Y-55650000D01*
X186550000Y-55562500D01*
X186551694Y-55250000D01*
X186544936Y-55181388D01*
X186524923Y-55115413D01*
X186492423Y-55054609D01*
X186448685Y-55001315D01*
X186395391Y-54957577D01*
X186334587Y-54925077D01*
X186268612Y-54905064D01*
X186200000Y-54898306D01*
X186087500Y-54900000D01*
X186000000Y-54987500D01*
X185900000Y-54987500D01*
X185812500Y-54900000D01*
X185700000Y-54898306D01*
X185631388Y-54905064D01*
X185565413Y-54925077D01*
X185504609Y-54957577D01*
X185451315Y-55001315D01*
X185407577Y-55054609D01*
X185375077Y-55115413D01*
X185355064Y-55181388D01*
X185348306Y-55250000D01*
X185348486Y-55283183D01*
X185270998Y-55219592D01*
X185171108Y-55166199D01*
X185142165Y-55157419D01*
X185117757Y-55076959D01*
X185075971Y-54998784D01*
X185019737Y-54930263D01*
X184951216Y-54874029D01*
X184873041Y-54832243D01*
X184788215Y-54806511D01*
X184700000Y-54797823D01*
X184200000Y-54797823D01*
X184111785Y-54806511D01*
X184026959Y-54832243D01*
X183948784Y-54874029D01*
X183880263Y-54930263D01*
X183824029Y-54998784D01*
X183782243Y-55076959D01*
X183768155Y-55123400D01*
X183482177Y-55123400D01*
X183445664Y-55035251D01*
X183292451Y-54805952D01*
X183097448Y-54610949D01*
X182868149Y-54457736D01*
X182845610Y-54448400D01*
X182868149Y-54439064D01*
X183097448Y-54285851D01*
X183292451Y-54090848D01*
X183445664Y-53861549D01*
X183482177Y-53773400D01*
X183767184Y-53773400D01*
X183782243Y-53823041D01*
X183824029Y-53901216D01*
X183880263Y-53969737D01*
X183948784Y-54025971D01*
X184026959Y-54067757D01*
X184111785Y-54093489D01*
X184200000Y-54102177D01*
X184700000Y-54102177D01*
X184788215Y-54093489D01*
X184873041Y-54067757D01*
X184951216Y-54025971D01*
X185019737Y-53969737D01*
X185075971Y-53901216D01*
X185117757Y-53823041D01*
X185143489Y-53738215D01*
X185152177Y-53650000D01*
X185348306Y-53650000D01*
X185355064Y-53718612D01*
X185375077Y-53784587D01*
X185407577Y-53845391D01*
X185451315Y-53898685D01*
X185504609Y-53942423D01*
X185565413Y-53974923D01*
X185631388Y-53994936D01*
X185700000Y-54001694D01*
X185812500Y-54000000D01*
X185900000Y-53912500D01*
X185900000Y-53250000D01*
X186000000Y-53250000D01*
X186000000Y-53912500D01*
X186087500Y-54000000D01*
X186200000Y-54001694D01*
X186268612Y-53994936D01*
X186334587Y-53974923D01*
X186395391Y-53942423D01*
X186448685Y-53898685D01*
X186492423Y-53845391D01*
X186524923Y-53784587D01*
X186544936Y-53718612D01*
X186551694Y-53650000D01*
X186550000Y-53337500D01*
X186462500Y-53250000D01*
X186000000Y-53250000D01*
X185900000Y-53250000D01*
X185437500Y-53250000D01*
X185350000Y-53337500D01*
X185348306Y-53650000D01*
X185152177Y-53650000D01*
X185152177Y-52750000D01*
X185348306Y-52750000D01*
X185350000Y-53062500D01*
X185437500Y-53150000D01*
X185900000Y-53150000D01*
X185900000Y-52487500D01*
X186000000Y-52487500D01*
X186000000Y-53150000D01*
X186462500Y-53150000D01*
X186550000Y-53062500D01*
X186551694Y-52750000D01*
X186544936Y-52681388D01*
X186524923Y-52615413D01*
X186492423Y-52554609D01*
X186448685Y-52501315D01*
X186395391Y-52457577D01*
X186334587Y-52425077D01*
X186268612Y-52405064D01*
X186200000Y-52398306D01*
X186087500Y-52400000D01*
X186000000Y-52487500D01*
X185900000Y-52487500D01*
X185812500Y-52400000D01*
X185700000Y-52398306D01*
X185631388Y-52405064D01*
X185565413Y-52425077D01*
X185504609Y-52457577D01*
X185451315Y-52501315D01*
X185407577Y-52554609D01*
X185375077Y-52615413D01*
X185355064Y-52681388D01*
X185348306Y-52750000D01*
X185152177Y-52750000D01*
X185143489Y-52661785D01*
X185117757Y-52576959D01*
X185075971Y-52498784D01*
X185019737Y-52430263D01*
X184951216Y-52374029D01*
X184873041Y-52332243D01*
X184788215Y-52306511D01*
X184700000Y-52297823D01*
X184200000Y-52297823D01*
X184111785Y-52306511D01*
X184026959Y-52332243D01*
X183948784Y-52374029D01*
X183880263Y-52430263D01*
X183824029Y-52498784D01*
X183782243Y-52576959D01*
X183768155Y-52623400D01*
X183482177Y-52623400D01*
X183445664Y-52535251D01*
X183292451Y-52305952D01*
X183097448Y-52110949D01*
X182868149Y-51957736D01*
X182845610Y-51948400D01*
X182868149Y-51939064D01*
X183097448Y-51785851D01*
X183292451Y-51590848D01*
X183445664Y-51361549D01*
X183482177Y-51273400D01*
X183767184Y-51273400D01*
X183782243Y-51323041D01*
X183824029Y-51401216D01*
X183880263Y-51469737D01*
X183948784Y-51525971D01*
X184026959Y-51567757D01*
X184111785Y-51593489D01*
X184200000Y-51602177D01*
X184700000Y-51602177D01*
X184788215Y-51593489D01*
X184873041Y-51567757D01*
X184951216Y-51525971D01*
X185019737Y-51469737D01*
X185075971Y-51401216D01*
X185117757Y-51323041D01*
X185143489Y-51238215D01*
X185152177Y-51150000D01*
X185348306Y-51150000D01*
X185355064Y-51218612D01*
X185375077Y-51284587D01*
X185407577Y-51345391D01*
X185451315Y-51398685D01*
X185504609Y-51442423D01*
X185565413Y-51474923D01*
X185631388Y-51494936D01*
X185700000Y-51501694D01*
X185812500Y-51500000D01*
X185900000Y-51412500D01*
X185900000Y-50750000D01*
X186000000Y-50750000D01*
X186000000Y-51412500D01*
X186087500Y-51500000D01*
X186200000Y-51501694D01*
X186268612Y-51494936D01*
X186334587Y-51474923D01*
X186395391Y-51442423D01*
X186448685Y-51398685D01*
X186492423Y-51345391D01*
X186524923Y-51284587D01*
X186544936Y-51218612D01*
X186551694Y-51150000D01*
X186550000Y-50837500D01*
X186462500Y-50750000D01*
X186000000Y-50750000D01*
X185900000Y-50750000D01*
X185437500Y-50750000D01*
X185350000Y-50837500D01*
X185348306Y-51150000D01*
X185152177Y-51150000D01*
X185152177Y-50250000D01*
X185348306Y-50250000D01*
X185350000Y-50562500D01*
X185437500Y-50650000D01*
X185900000Y-50650000D01*
X185900000Y-49987500D01*
X186000000Y-49987500D01*
X186000000Y-50650000D01*
X186462500Y-50650000D01*
X186537214Y-50575286D01*
X188135000Y-50575286D01*
X188135000Y-50821514D01*
X188183037Y-51063011D01*
X188277265Y-51290497D01*
X188414062Y-51495228D01*
X188588172Y-51669338D01*
X188792903Y-51806135D01*
X189020389Y-51900363D01*
X189261886Y-51948400D01*
X189508114Y-51948400D01*
X189749611Y-51900363D01*
X189977097Y-51806135D01*
X190181828Y-51669338D01*
X190355938Y-51495228D01*
X190492735Y-51290497D01*
X190586963Y-51063011D01*
X190635000Y-50821514D01*
X190635000Y-50575286D01*
X190586963Y-50333789D01*
X190492735Y-50106303D01*
X190355938Y-49901572D01*
X190181828Y-49727462D01*
X189977097Y-49590665D01*
X189749611Y-49496437D01*
X189508114Y-49448400D01*
X189261886Y-49448400D01*
X189020389Y-49496437D01*
X188792903Y-49590665D01*
X188588172Y-49727462D01*
X188414062Y-49901572D01*
X188277265Y-50106303D01*
X188183037Y-50333789D01*
X188135000Y-50575286D01*
X186537214Y-50575286D01*
X186550000Y-50562500D01*
X186551694Y-50250000D01*
X186544936Y-50181388D01*
X186524923Y-50115413D01*
X186492423Y-50054609D01*
X186448685Y-50001315D01*
X186395391Y-49957577D01*
X186334587Y-49925077D01*
X186268612Y-49905064D01*
X186200000Y-49898306D01*
X186087500Y-49900000D01*
X186000000Y-49987500D01*
X185900000Y-49987500D01*
X185812500Y-49900000D01*
X185700000Y-49898306D01*
X185631388Y-49905064D01*
X185565413Y-49925077D01*
X185504609Y-49957577D01*
X185451315Y-50001315D01*
X185407577Y-50054609D01*
X185375077Y-50115413D01*
X185355064Y-50181388D01*
X185348306Y-50250000D01*
X185152177Y-50250000D01*
X185143489Y-50161785D01*
X185117757Y-50076959D01*
X185075971Y-49998784D01*
X185019737Y-49930263D01*
X184951216Y-49874029D01*
X184873041Y-49832243D01*
X184788215Y-49806511D01*
X184700000Y-49797823D01*
X184200000Y-49797823D01*
X184111785Y-49806511D01*
X184026959Y-49832243D01*
X183948784Y-49874029D01*
X183880263Y-49930263D01*
X183824029Y-49998784D01*
X183782243Y-50076959D01*
X183768155Y-50123400D01*
X183482177Y-50123400D01*
X183445664Y-50035251D01*
X183292451Y-49805952D01*
X183097448Y-49610949D01*
X182868149Y-49457736D01*
X182613365Y-49352201D01*
X182342888Y-49298400D01*
X182067112Y-49298400D01*
X181796635Y-49352201D01*
X181541851Y-49457736D01*
X181312552Y-49610949D01*
X181117549Y-49805952D01*
X181107177Y-49821475D01*
X181107177Y-49748400D01*
X181098489Y-49660185D01*
X181072757Y-49575359D01*
X181030971Y-49497184D01*
X180974737Y-49428663D01*
X180906216Y-49372429D01*
X180828041Y-49330643D01*
X180743215Y-49304911D01*
X180655000Y-49296223D01*
X178755000Y-49296223D01*
X178666785Y-49304911D01*
X178581959Y-49330643D01*
X178503784Y-49372429D01*
X178435263Y-49428663D01*
X178379029Y-49497184D01*
X178337243Y-49575359D01*
X178311511Y-49660185D01*
X178302823Y-49748400D01*
X178302823Y-50125000D01*
X178132330Y-50125000D01*
X178117757Y-50076959D01*
X178075971Y-49998784D01*
X178019737Y-49930263D01*
X177951216Y-49874029D01*
X177873041Y-49832243D01*
X177788215Y-49806511D01*
X177700000Y-49797823D01*
X177200000Y-49797823D01*
X177111785Y-49806511D01*
X177026959Y-49832243D01*
X176948784Y-49874029D01*
X176880263Y-49930263D01*
X176824029Y-49998784D01*
X176782243Y-50076959D01*
X176756511Y-50161785D01*
X176747823Y-50250000D01*
X176747823Y-51150000D01*
X176756511Y-51238215D01*
X176782243Y-51323041D01*
X176824029Y-51401216D01*
X176880263Y-51469737D01*
X176948784Y-51525971D01*
X177026959Y-51567757D01*
X177111785Y-51593489D01*
X177200000Y-51602177D01*
X177700000Y-51602177D01*
X177788215Y-51593489D01*
X177873041Y-51567757D01*
X177951216Y-51525971D01*
X178019737Y-51469737D01*
X178075971Y-51401216D01*
X178117757Y-51323041D01*
X178132330Y-51275000D01*
X178302823Y-51275000D01*
X178302823Y-51648400D01*
X178311511Y-51736615D01*
X178337243Y-51821441D01*
X178379029Y-51899616D01*
X178435263Y-51968137D01*
X178503784Y-52024371D01*
X178581959Y-52066157D01*
X178666785Y-52091889D01*
X178755000Y-52100577D01*
X178828075Y-52100577D01*
X178812552Y-52110949D01*
X178617549Y-52305952D01*
X178464336Y-52535251D01*
X178427161Y-52625000D01*
X178132330Y-52625000D01*
X178117757Y-52576959D01*
X178075971Y-52498784D01*
X178019737Y-52430263D01*
X177951216Y-52374029D01*
X177873041Y-52332243D01*
X177788215Y-52306511D01*
X177700000Y-52297823D01*
X177200000Y-52297823D01*
X177111785Y-52306511D01*
X177026959Y-52332243D01*
X176948784Y-52374029D01*
X176880263Y-52430263D01*
X176824029Y-52498784D01*
X176782243Y-52576959D01*
X176756511Y-52661785D01*
X176747823Y-52750000D01*
X176747823Y-53650000D01*
X176756511Y-53738215D01*
X176782243Y-53823041D01*
X176824029Y-53901216D01*
X176880263Y-53969737D01*
X176948784Y-54025971D01*
X177026959Y-54067757D01*
X177111785Y-54093489D01*
X177200000Y-54102177D01*
X177700000Y-54102177D01*
X177788215Y-54093489D01*
X177873041Y-54067757D01*
X177951216Y-54025971D01*
X178019737Y-53969737D01*
X178075971Y-53901216D01*
X178117757Y-53823041D01*
X178132330Y-53775000D01*
X178428486Y-53775000D01*
X178464336Y-53861549D01*
X178617549Y-54090848D01*
X178812552Y-54285851D01*
X179041851Y-54439064D01*
X179064390Y-54448400D01*
X179041851Y-54457736D01*
X178812552Y-54610949D01*
X178617549Y-54805952D01*
X178464336Y-55035251D01*
X178427161Y-55125000D01*
X178132330Y-55125000D01*
X178117757Y-55076959D01*
X178075971Y-54998784D01*
X178019737Y-54930263D01*
X177951216Y-54874029D01*
X177873041Y-54832243D01*
X177788215Y-54806511D01*
X177700000Y-54797823D01*
X177200000Y-54797823D01*
X177111785Y-54806511D01*
X177026959Y-54832243D01*
X176948784Y-54874029D01*
X176880263Y-54930263D01*
X176824029Y-54998784D01*
X176782243Y-55076959D01*
X176756511Y-55161785D01*
X176747823Y-55250000D01*
X176747823Y-56150000D01*
X176756511Y-56238215D01*
X176782243Y-56323041D01*
X176824029Y-56401216D01*
X176880263Y-56469737D01*
X176948784Y-56525971D01*
X177026959Y-56567757D01*
X177111785Y-56593489D01*
X177200000Y-56602177D01*
X177700000Y-56602177D01*
X177788215Y-56593489D01*
X177873041Y-56567757D01*
X177951216Y-56525971D01*
X178019737Y-56469737D01*
X178075971Y-56401216D01*
X178117757Y-56323041D01*
X178132330Y-56275000D01*
X178428486Y-56275000D01*
X178464336Y-56361549D01*
X178617549Y-56590848D01*
X178812552Y-56785851D01*
X179041851Y-56939064D01*
X179064390Y-56948400D01*
X179041851Y-56957736D01*
X178812552Y-57110949D01*
X178617549Y-57305952D01*
X178464336Y-57535251D01*
X178427161Y-57625000D01*
X178132330Y-57625000D01*
X178117757Y-57576959D01*
X178075971Y-57498784D01*
X178019737Y-57430263D01*
X177951216Y-57374029D01*
X177873041Y-57332243D01*
X177788215Y-57306511D01*
X177700000Y-57297823D01*
X177200000Y-57297823D01*
X177111785Y-57306511D01*
X177026959Y-57332243D01*
X176948784Y-57374029D01*
X176880263Y-57430263D01*
X176824029Y-57498784D01*
X176782243Y-57576959D01*
X176756511Y-57661785D01*
X176747823Y-57750000D01*
X176747823Y-58650000D01*
X176756511Y-58738215D01*
X176782243Y-58823041D01*
X176824029Y-58901216D01*
X176880263Y-58969737D01*
X176886676Y-58975000D01*
X176334333Y-58975000D01*
X176334587Y-58974923D01*
X176395391Y-58942423D01*
X176448685Y-58898685D01*
X176492423Y-58845391D01*
X176524923Y-58784587D01*
X176544936Y-58718612D01*
X176551694Y-58650000D01*
X176550000Y-58337500D01*
X176462500Y-58250000D01*
X176000000Y-58250000D01*
X176000000Y-58270000D01*
X175900000Y-58270000D01*
X175900000Y-58250000D01*
X175437500Y-58250000D01*
X175350000Y-58337500D01*
X175348306Y-58650000D01*
X175355064Y-58718612D01*
X175375077Y-58784587D01*
X175407577Y-58845391D01*
X175451315Y-58898685D01*
X175504609Y-58942423D01*
X175565413Y-58974923D01*
X175565667Y-58975000D01*
X173798773Y-58975000D01*
X172573773Y-57750000D01*
X175348306Y-57750000D01*
X175350000Y-58062500D01*
X175437500Y-58150000D01*
X175900000Y-58150000D01*
X175900000Y-57487500D01*
X176000000Y-57487500D01*
X176000000Y-58150000D01*
X176462500Y-58150000D01*
X176550000Y-58062500D01*
X176551694Y-57750000D01*
X176544936Y-57681388D01*
X176524923Y-57615413D01*
X176492423Y-57554609D01*
X176448685Y-57501315D01*
X176395391Y-57457577D01*
X176334587Y-57425077D01*
X176268612Y-57405064D01*
X176200000Y-57398306D01*
X176087500Y-57400000D01*
X176000000Y-57487500D01*
X175900000Y-57487500D01*
X175812500Y-57400000D01*
X175700000Y-57398306D01*
X175631388Y-57405064D01*
X175565413Y-57425077D01*
X175504609Y-57457577D01*
X175451315Y-57501315D01*
X175407577Y-57554609D01*
X175375077Y-57615413D01*
X175355064Y-57681388D01*
X175348306Y-57750000D01*
X172573773Y-57750000D01*
X172500434Y-57676661D01*
X172539200Y-57481768D01*
X172539200Y-57253032D01*
X172494576Y-57028690D01*
X172407042Y-56817365D01*
X172279963Y-56627178D01*
X172118222Y-56465437D01*
X171971499Y-56367400D01*
X172118222Y-56269363D01*
X172237585Y-56150000D01*
X175348306Y-56150000D01*
X175355064Y-56218612D01*
X175375077Y-56284587D01*
X175407577Y-56345391D01*
X175451315Y-56398685D01*
X175504609Y-56442423D01*
X175565413Y-56474923D01*
X175631388Y-56494936D01*
X175700000Y-56501694D01*
X175812500Y-56500000D01*
X175900000Y-56412500D01*
X175900000Y-55750000D01*
X176000000Y-55750000D01*
X176000000Y-56412500D01*
X176087500Y-56500000D01*
X176200000Y-56501694D01*
X176268612Y-56494936D01*
X176334587Y-56474923D01*
X176395391Y-56442423D01*
X176448685Y-56398685D01*
X176492423Y-56345391D01*
X176524923Y-56284587D01*
X176544936Y-56218612D01*
X176551694Y-56150000D01*
X176550000Y-55837500D01*
X176462500Y-55750000D01*
X176000000Y-55750000D01*
X175900000Y-55750000D01*
X175437500Y-55750000D01*
X175350000Y-55837500D01*
X175348306Y-56150000D01*
X172237585Y-56150000D01*
X172279963Y-56107622D01*
X172407042Y-55917435D01*
X172494576Y-55706110D01*
X172539200Y-55481768D01*
X172539200Y-55253032D01*
X172538597Y-55250000D01*
X175348306Y-55250000D01*
X175350000Y-55562500D01*
X175437500Y-55650000D01*
X175900000Y-55650000D01*
X175900000Y-54987500D01*
X176000000Y-54987500D01*
X176000000Y-55650000D01*
X176462500Y-55650000D01*
X176550000Y-55562500D01*
X176551694Y-55250000D01*
X176544936Y-55181388D01*
X176524923Y-55115413D01*
X176492423Y-55054609D01*
X176448685Y-55001315D01*
X176395391Y-54957577D01*
X176334587Y-54925077D01*
X176268612Y-54905064D01*
X176200000Y-54898306D01*
X176087500Y-54900000D01*
X176000000Y-54987500D01*
X175900000Y-54987500D01*
X175812500Y-54900000D01*
X175700000Y-54898306D01*
X175631388Y-54905064D01*
X175565413Y-54925077D01*
X175504609Y-54957577D01*
X175451315Y-55001315D01*
X175407577Y-55054609D01*
X175375077Y-55115413D01*
X175355064Y-55181388D01*
X175348306Y-55250000D01*
X172538597Y-55250000D01*
X172494576Y-55028690D01*
X172407042Y-54817365D01*
X172279963Y-54627178D01*
X172118222Y-54465437D01*
X171971499Y-54367400D01*
X172118222Y-54269363D01*
X172279963Y-54107622D01*
X172407042Y-53917435D01*
X172494576Y-53706110D01*
X172505736Y-53650000D01*
X175348306Y-53650000D01*
X175355064Y-53718612D01*
X175375077Y-53784587D01*
X175407577Y-53845391D01*
X175451315Y-53898685D01*
X175504609Y-53942423D01*
X175565413Y-53974923D01*
X175631388Y-53994936D01*
X175700000Y-54001694D01*
X175812500Y-54000000D01*
X175900000Y-53912500D01*
X175900000Y-53250000D01*
X176000000Y-53250000D01*
X176000000Y-53912500D01*
X176087500Y-54000000D01*
X176200000Y-54001694D01*
X176268612Y-53994936D01*
X176334587Y-53974923D01*
X176395391Y-53942423D01*
X176448685Y-53898685D01*
X176492423Y-53845391D01*
X176524923Y-53784587D01*
X176544936Y-53718612D01*
X176551694Y-53650000D01*
X176550000Y-53337500D01*
X176462500Y-53250000D01*
X176000000Y-53250000D01*
X175900000Y-53250000D01*
X175437500Y-53250000D01*
X175350000Y-53337500D01*
X175348306Y-53650000D01*
X172505736Y-53650000D01*
X172539200Y-53481768D01*
X172539200Y-53253032D01*
X172494576Y-53028690D01*
X172407042Y-52817365D01*
X172362031Y-52750000D01*
X175348306Y-52750000D01*
X175350000Y-53062500D01*
X175437500Y-53150000D01*
X175900000Y-53150000D01*
X175900000Y-52487500D01*
X176000000Y-52487500D01*
X176000000Y-53150000D01*
X176462500Y-53150000D01*
X176550000Y-53062500D01*
X176551694Y-52750000D01*
X176544936Y-52681388D01*
X176524923Y-52615413D01*
X176492423Y-52554609D01*
X176448685Y-52501315D01*
X176395391Y-52457577D01*
X176334587Y-52425077D01*
X176268612Y-52405064D01*
X176200000Y-52398306D01*
X176087500Y-52400000D01*
X176000000Y-52487500D01*
X175900000Y-52487500D01*
X175812500Y-52400000D01*
X175700000Y-52398306D01*
X175631388Y-52405064D01*
X175565413Y-52425077D01*
X175504609Y-52457577D01*
X175451315Y-52501315D01*
X175407577Y-52554609D01*
X175375077Y-52615413D01*
X175355064Y-52681388D01*
X175348306Y-52750000D01*
X172362031Y-52750000D01*
X172279963Y-52627178D01*
X172118222Y-52465437D01*
X171928035Y-52338358D01*
X171716710Y-52250824D01*
X171492368Y-52206200D01*
X171263632Y-52206200D01*
X171039290Y-52250824D01*
X170827965Y-52338358D01*
X170637778Y-52465437D01*
X170476037Y-52627178D01*
X170348958Y-52817365D01*
X170261424Y-53028690D01*
X170216800Y-53253032D01*
X170216800Y-53481768D01*
X170237222Y-53584437D01*
X170118222Y-53465437D01*
X169928035Y-53338358D01*
X169716710Y-53250824D01*
X169492368Y-53206200D01*
X169263632Y-53206200D01*
X169039290Y-53250824D01*
X168827965Y-53338358D01*
X168637778Y-53465437D01*
X168476037Y-53627178D01*
X168348958Y-53817365D01*
X168261424Y-54028690D01*
X168216800Y-54253032D01*
X168216800Y-54481768D01*
X168261424Y-54706110D01*
X168348958Y-54917435D01*
X168476037Y-55107622D01*
X168637778Y-55269363D01*
X168784501Y-55367400D01*
X168637778Y-55465437D01*
X168476037Y-55627178D01*
X168348958Y-55817365D01*
X168261424Y-56028690D01*
X168216800Y-56253032D01*
X168216800Y-56481768D01*
X168255566Y-56676661D01*
X167913393Y-57018835D01*
X167900000Y-57029826D01*
X167900000Y-56877974D01*
X167907042Y-56867435D01*
X167994576Y-56656110D01*
X168039200Y-56431768D01*
X168039200Y-56203032D01*
X167994576Y-55978690D01*
X167907042Y-55767365D01*
X167900000Y-55756826D01*
X167900000Y-54877974D01*
X167907042Y-54867435D01*
X167994576Y-54656110D01*
X168039200Y-54431768D01*
X168039200Y-54203032D01*
X167994576Y-53978690D01*
X167907042Y-53767365D01*
X167900000Y-53756826D01*
X167900000Y-53178884D01*
X167967951Y-53192400D01*
X168288049Y-53192400D01*
X168601995Y-53129952D01*
X168897726Y-53007457D01*
X169163877Y-52829620D01*
X169390220Y-52603277D01*
X169568057Y-52337126D01*
X169690552Y-52041395D01*
X169753000Y-51727449D01*
X169753000Y-51407351D01*
X169701810Y-51150000D01*
X175348306Y-51150000D01*
X175355064Y-51218612D01*
X175375077Y-51284587D01*
X175407577Y-51345391D01*
X175451315Y-51398685D01*
X175504609Y-51442423D01*
X175565413Y-51474923D01*
X175631388Y-51494936D01*
X175700000Y-51501694D01*
X175812500Y-51500000D01*
X175900000Y-51412500D01*
X175900000Y-50750000D01*
X176000000Y-50750000D01*
X176000000Y-51412500D01*
X176087500Y-51500000D01*
X176200000Y-51501694D01*
X176268612Y-51494936D01*
X176334587Y-51474923D01*
X176395391Y-51442423D01*
X176448685Y-51398685D01*
X176492423Y-51345391D01*
X176524923Y-51284587D01*
X176544936Y-51218612D01*
X176551694Y-51150000D01*
X176550000Y-50837500D01*
X176462500Y-50750000D01*
X176000000Y-50750000D01*
X175900000Y-50750000D01*
X175437500Y-50750000D01*
X175350000Y-50837500D01*
X175348306Y-51150000D01*
X169701810Y-51150000D01*
X169690552Y-51093405D01*
X169568057Y-50797674D01*
X169390220Y-50531523D01*
X169163877Y-50305180D01*
X169081295Y-50250000D01*
X175348306Y-50250000D01*
X175350000Y-50562500D01*
X175437500Y-50650000D01*
X175900000Y-50650000D01*
X175900000Y-49987500D01*
X176000000Y-49987500D01*
X176000000Y-50650000D01*
X176462500Y-50650000D01*
X176550000Y-50562500D01*
X176551694Y-50250000D01*
X176544936Y-50181388D01*
X176524923Y-50115413D01*
X176492423Y-50054609D01*
X176448685Y-50001315D01*
X176395391Y-49957577D01*
X176334587Y-49925077D01*
X176268612Y-49905064D01*
X176200000Y-49898306D01*
X176087500Y-49900000D01*
X176000000Y-49987500D01*
X175900000Y-49987500D01*
X175812500Y-49900000D01*
X175700000Y-49898306D01*
X175631388Y-49905064D01*
X175565413Y-49925077D01*
X175504609Y-49957577D01*
X175451315Y-50001315D01*
X175407577Y-50054609D01*
X175375077Y-50115413D01*
X175355064Y-50181388D01*
X175348306Y-50250000D01*
X169081295Y-50250000D01*
X168897726Y-50127343D01*
X168601995Y-50004848D01*
X168288049Y-49942400D01*
X167967951Y-49942400D01*
X167900000Y-49955916D01*
X167900000Y-45991000D01*
X192293000Y-45991000D01*
X192293001Y-77741000D01*
G37*
X192293001Y-77741000D02*
X157000000Y-77741000D01*
X157000000Y-75662000D01*
X160084757Y-75662000D01*
X160113000Y-75664782D01*
X160141243Y-75662000D01*
X160141246Y-75662000D01*
X160225720Y-75653680D01*
X160334108Y-75620801D01*
X160433998Y-75567408D01*
X160504043Y-75509925D01*
X160529001Y-75530408D01*
X160628892Y-75583801D01*
X160737280Y-75616680D01*
X160821754Y-75625000D01*
X160821757Y-75625000D01*
X160850000Y-75627782D01*
X160867977Y-75626011D01*
X160882243Y-75673041D01*
X160924029Y-75751216D01*
X160980263Y-75819737D01*
X161048784Y-75875971D01*
X161126959Y-75917757D01*
X161211785Y-75943489D01*
X161300000Y-75952177D01*
X161800000Y-75952177D01*
X161888215Y-75943489D01*
X161973041Y-75917757D01*
X162051216Y-75875971D01*
X162119737Y-75819737D01*
X162175971Y-75751216D01*
X162217757Y-75673041D01*
X162243489Y-75588215D01*
X162252177Y-75500000D01*
X162448306Y-75500000D01*
X162455064Y-75568612D01*
X162475077Y-75634587D01*
X162507577Y-75695391D01*
X162551315Y-75748685D01*
X162604609Y-75792423D01*
X162665413Y-75824923D01*
X162731388Y-75844936D01*
X162800000Y-75851694D01*
X162912500Y-75850000D01*
X163000000Y-75762500D01*
X163000000Y-75100000D01*
X163100000Y-75100000D01*
X163100000Y-75762500D01*
X163187500Y-75850000D01*
X163300000Y-75851694D01*
X163368612Y-75844936D01*
X163434587Y-75824923D01*
X163495391Y-75792423D01*
X163548685Y-75748685D01*
X163592423Y-75695391D01*
X163624923Y-75634587D01*
X163644936Y-75568612D01*
X163651694Y-75500000D01*
X163650000Y-75187500D01*
X163562500Y-75100000D01*
X163100000Y-75100000D01*
X163000000Y-75100000D01*
X162537500Y-75100000D01*
X162450000Y-75187500D01*
X162448306Y-75500000D01*
X162252177Y-75500000D01*
X162252177Y-74675000D01*
X162448713Y-74675000D01*
X162450000Y-74912500D01*
X162537500Y-75000000D01*
X163000000Y-75000000D01*
X163000000Y-74980000D01*
X163100000Y-74980000D01*
X163100000Y-75000000D01*
X163562500Y-75000000D01*
X163650000Y-74912500D01*
X163651287Y-74675000D01*
X164471757Y-74675000D01*
X164500000Y-74677782D01*
X164528243Y-74675000D01*
X164528246Y-74675000D01*
X164612720Y-74666680D01*
X164721108Y-74633801D01*
X164820998Y-74580408D01*
X164908554Y-74508554D01*
X164926565Y-74486607D01*
X165486612Y-73926561D01*
X165508554Y-73908554D01*
X165553932Y-73853260D01*
X165580408Y-73820999D01*
X165633801Y-73721108D01*
X165636143Y-73713387D01*
X165666680Y-73612720D01*
X165675000Y-73528246D01*
X165675000Y-73528244D01*
X165677782Y-73500001D01*
X165675000Y-73471758D01*
X165675000Y-72728242D01*
X165677782Y-72699999D01*
X165673843Y-72660011D01*
X165666680Y-72587280D01*
X165633801Y-72478892D01*
X165580408Y-72379002D01*
X165509187Y-72292218D01*
X165618222Y-72219363D01*
X165737222Y-72100363D01*
X165716800Y-72203032D01*
X165716800Y-72431768D01*
X165761424Y-72656110D01*
X165848958Y-72867435D01*
X165976037Y-73057622D01*
X166137778Y-73219363D01*
X166327965Y-73346442D01*
X166539290Y-73433976D01*
X166763632Y-73478600D01*
X166992368Y-73478600D01*
X167216710Y-73433976D01*
X167428035Y-73346442D01*
X167618222Y-73219363D01*
X167762206Y-73075379D01*
X168277373Y-73590545D01*
X168179762Y-73688156D01*
X168086740Y-73827374D01*
X168022665Y-73982064D01*
X167990000Y-74146282D01*
X167990000Y-74313718D01*
X168022665Y-74477936D01*
X168086740Y-74632626D01*
X168179762Y-74771844D01*
X168298156Y-74890238D01*
X168437374Y-74983260D01*
X168592064Y-75047335D01*
X168756282Y-75080000D01*
X168876828Y-75080000D01*
X169583439Y-75786612D01*
X169601446Y-75808554D01*
X169623386Y-75826559D01*
X169689001Y-75880408D01*
X169758876Y-75917757D01*
X169788892Y-75933801D01*
X169897280Y-75966680D01*
X169981754Y-75975000D01*
X169981757Y-75975000D01*
X170010000Y-75977782D01*
X170038243Y-75975000D01*
X171721757Y-75975000D01*
X171750000Y-75977782D01*
X171778243Y-75975000D01*
X171778246Y-75975000D01*
X171862720Y-75966680D01*
X171971108Y-75933801D01*
X172070998Y-75880408D01*
X172158554Y-75808554D01*
X172176565Y-75786607D01*
X173986612Y-73976561D01*
X174008554Y-73958554D01*
X174049587Y-73908554D01*
X174080408Y-73870999D01*
X174133801Y-73771108D01*
X174143485Y-73739184D01*
X174166680Y-73662720D01*
X174175000Y-73578246D01*
X174175000Y-73578244D01*
X174177782Y-73550001D01*
X174175000Y-73521758D01*
X174175000Y-72928243D01*
X174177782Y-72900000D01*
X174175000Y-72871754D01*
X174166680Y-72787280D01*
X174155372Y-72750000D01*
X175348306Y-72750000D01*
X175355064Y-72818612D01*
X175375077Y-72884587D01*
X175407577Y-72945391D01*
X175451315Y-72998685D01*
X175504609Y-73042423D01*
X175565413Y-73074923D01*
X175631388Y-73094936D01*
X175700000Y-73101694D01*
X175812500Y-73100000D01*
X175900000Y-73012500D01*
X175900000Y-72350000D01*
X176000000Y-72350000D01*
X176000000Y-73012500D01*
X176087500Y-73100000D01*
X176200000Y-73101694D01*
X176268612Y-73094936D01*
X176334587Y-73074923D01*
X176395391Y-73042423D01*
X176448685Y-72998685D01*
X176492423Y-72945391D01*
X176524923Y-72884587D01*
X176544936Y-72818612D01*
X176551694Y-72750000D01*
X176550000Y-72437500D01*
X176462500Y-72350000D01*
X176000000Y-72350000D01*
X175900000Y-72350000D01*
X175437500Y-72350000D01*
X175350000Y-72437500D01*
X175348306Y-72750000D01*
X174155372Y-72750000D01*
X174133801Y-72678892D01*
X174113233Y-72640413D01*
X174080408Y-72579001D01*
X174037170Y-72526315D01*
X174008554Y-72491446D01*
X173986613Y-72473440D01*
X173363173Y-71850000D01*
X175348306Y-71850000D01*
X175350000Y-72162500D01*
X175437500Y-72250000D01*
X175900000Y-72250000D01*
X175900000Y-71587500D01*
X176000000Y-71587500D01*
X176000000Y-72250000D01*
X176462500Y-72250000D01*
X176550000Y-72162500D01*
X176551694Y-71850000D01*
X176544936Y-71781388D01*
X176524923Y-71715413D01*
X176492423Y-71654609D01*
X176448685Y-71601315D01*
X176395391Y-71557577D01*
X176334587Y-71525077D01*
X176268612Y-71505064D01*
X176200000Y-71498306D01*
X176087500Y-71500000D01*
X176000000Y-71587500D01*
X175900000Y-71587500D01*
X175812500Y-71500000D01*
X175700000Y-71498306D01*
X175631388Y-71505064D01*
X175565413Y-71525077D01*
X175504609Y-71557577D01*
X175451315Y-71601315D01*
X175407577Y-71654609D01*
X175375077Y-71715413D01*
X175355064Y-71781388D01*
X175348306Y-71850000D01*
X173363173Y-71850000D01*
X173075000Y-71561828D01*
X173075000Y-70700141D01*
X173117335Y-70597936D01*
X173150000Y-70433718D01*
X173150000Y-70266282D01*
X173146762Y-70250000D01*
X175348306Y-70250000D01*
X175355064Y-70318612D01*
X175375077Y-70384587D01*
X175407577Y-70445391D01*
X175451315Y-70498685D01*
X175504609Y-70542423D01*
X175565413Y-70574923D01*
X175631388Y-70594936D01*
X175700000Y-70601694D01*
X175812500Y-70600000D01*
X175900000Y-70512500D01*
X175900000Y-69850000D01*
X176000000Y-69850000D01*
X176000000Y-70512500D01*
X176087500Y-70600000D01*
X176200000Y-70601694D01*
X176268612Y-70594936D01*
X176334587Y-70574923D01*
X176395391Y-70542423D01*
X176448685Y-70498685D01*
X176492423Y-70445391D01*
X176524923Y-70384587D01*
X176544936Y-70318612D01*
X176551694Y-70250000D01*
X176550000Y-69937500D01*
X176462500Y-69850000D01*
X176000000Y-69850000D01*
X175900000Y-69850000D01*
X175437500Y-69850000D01*
X175350000Y-69937500D01*
X175348306Y-70250000D01*
X173146762Y-70250000D01*
X173117335Y-70102064D01*
X173053260Y-69947374D01*
X172960238Y-69808156D01*
X172841844Y-69689762D01*
X172702626Y-69596740D01*
X172547936Y-69532665D01*
X172529794Y-69529056D01*
X172539200Y-69481768D01*
X172539200Y-69350000D01*
X175348306Y-69350000D01*
X175350000Y-69662500D01*
X175437500Y-69750000D01*
X175900000Y-69750000D01*
X175900000Y-69087500D01*
X176000000Y-69087500D01*
X176000000Y-69750000D01*
X176462500Y-69750000D01*
X176550000Y-69662500D01*
X176551694Y-69350000D01*
X176544936Y-69281388D01*
X176524923Y-69215413D01*
X176492423Y-69154609D01*
X176448685Y-69101315D01*
X176395391Y-69057577D01*
X176334587Y-69025077D01*
X176268612Y-69005064D01*
X176200000Y-68998306D01*
X176087500Y-69000000D01*
X176000000Y-69087500D01*
X175900000Y-69087500D01*
X175812500Y-69000000D01*
X175700000Y-68998306D01*
X175631388Y-69005064D01*
X175565413Y-69025077D01*
X175504609Y-69057577D01*
X175451315Y-69101315D01*
X175407577Y-69154609D01*
X175375077Y-69215413D01*
X175355064Y-69281388D01*
X175348306Y-69350000D01*
X172539200Y-69350000D01*
X172539200Y-69253032D01*
X172494576Y-69028690D01*
X172407042Y-68817365D01*
X172279963Y-68627178D01*
X172118222Y-68465437D01*
X171971499Y-68367400D01*
X172118222Y-68269363D01*
X172279963Y-68107622D01*
X172407042Y-67917435D01*
X172476396Y-67750000D01*
X175348306Y-67750000D01*
X175355064Y-67818612D01*
X175375077Y-67884587D01*
X175407577Y-67945391D01*
X175451315Y-67998685D01*
X175504609Y-68042423D01*
X175565413Y-68074923D01*
X175631388Y-68094936D01*
X175700000Y-68101694D01*
X175812500Y-68100000D01*
X175900000Y-68012500D01*
X175900000Y-67350000D01*
X175437500Y-67350000D01*
X175350000Y-67437500D01*
X175348306Y-67750000D01*
X172476396Y-67750000D01*
X172494576Y-67706110D01*
X172539200Y-67481768D01*
X172539200Y-67253032D01*
X172494576Y-67028690D01*
X172420560Y-66850000D01*
X175348306Y-66850000D01*
X175350000Y-67162500D01*
X175437500Y-67250000D01*
X175900000Y-67250000D01*
X175900000Y-66587500D01*
X175812500Y-66500000D01*
X175700000Y-66498306D01*
X175631388Y-66505064D01*
X175565413Y-66525077D01*
X175504609Y-66557577D01*
X175451315Y-66601315D01*
X175407577Y-66654609D01*
X175375077Y-66715413D01*
X175355064Y-66781388D01*
X175348306Y-66850000D01*
X172420560Y-66850000D01*
X172407042Y-66817365D01*
X172279963Y-66627178D01*
X172118222Y-66465437D01*
X171971499Y-66367400D01*
X172034955Y-66325000D01*
X176225000Y-66325000D01*
X176225000Y-66500768D01*
X176200000Y-66498306D01*
X176087500Y-66500000D01*
X176000000Y-66587500D01*
X176000000Y-67250000D01*
X176020000Y-67250000D01*
X176020000Y-67350000D01*
X176000000Y-67350000D01*
X176000000Y-68012500D01*
X176087500Y-68100000D01*
X176200000Y-68101694D01*
X176227048Y-68099030D01*
X176230425Y-68133320D01*
X176233321Y-68162720D01*
X176242655Y-68193489D01*
X176266199Y-68271107D01*
X176319592Y-68370998D01*
X176353652Y-68412500D01*
X176391447Y-68458554D01*
X176413389Y-68476561D01*
X176423434Y-68486606D01*
X176441446Y-68508554D01*
X176529002Y-68580408D01*
X176628892Y-68633801D01*
X176737280Y-68666680D01*
X176821754Y-68675000D01*
X176821757Y-68675000D01*
X176850000Y-68677782D01*
X176878243Y-68675000D01*
X177722918Y-68675000D01*
X177808156Y-68760238D01*
X177947374Y-68853260D01*
X178102064Y-68917335D01*
X178266282Y-68950000D01*
X178433718Y-68950000D01*
X178597936Y-68917335D01*
X178611766Y-68911606D01*
X178464336Y-69132251D01*
X178427823Y-69220400D01*
X178130935Y-69220400D01*
X178117757Y-69176959D01*
X178075971Y-69098784D01*
X178019737Y-69030263D01*
X177951216Y-68974029D01*
X177873041Y-68932243D01*
X177788215Y-68906511D01*
X177700000Y-68897823D01*
X177200000Y-68897823D01*
X177111785Y-68906511D01*
X177026959Y-68932243D01*
X176948784Y-68974029D01*
X176880263Y-69030263D01*
X176824029Y-69098784D01*
X176782243Y-69176959D01*
X176756511Y-69261785D01*
X176747823Y-69350000D01*
X176747823Y-70250000D01*
X176756511Y-70338215D01*
X176782243Y-70423041D01*
X176824029Y-70501216D01*
X176880263Y-70569737D01*
X176948784Y-70625971D01*
X177026959Y-70667757D01*
X177111785Y-70693489D01*
X177200000Y-70702177D01*
X177700000Y-70702177D01*
X177788215Y-70693489D01*
X177873041Y-70667757D01*
X177951216Y-70625971D01*
X178019737Y-70569737D01*
X178075971Y-70501216D01*
X178117757Y-70423041D01*
X178133726Y-70370400D01*
X178427823Y-70370400D01*
X178464336Y-70458549D01*
X178617549Y-70687848D01*
X178812552Y-70882851D01*
X179041851Y-71036064D01*
X179064390Y-71045400D01*
X179041851Y-71054736D01*
X178812552Y-71207949D01*
X178617549Y-71402952D01*
X178464336Y-71632251D01*
X178427823Y-71720400D01*
X178130935Y-71720400D01*
X178117757Y-71676959D01*
X178075971Y-71598784D01*
X178019737Y-71530263D01*
X177951216Y-71474029D01*
X177873041Y-71432243D01*
X177788215Y-71406511D01*
X177700000Y-71397823D01*
X177200000Y-71397823D01*
X177111785Y-71406511D01*
X177026959Y-71432243D01*
X176948784Y-71474029D01*
X176880263Y-71530263D01*
X176824029Y-71598784D01*
X176782243Y-71676959D01*
X176756511Y-71761785D01*
X176747823Y-71850000D01*
X176747823Y-72750000D01*
X176756511Y-72838215D01*
X176782243Y-72923041D01*
X176824029Y-73001216D01*
X176880263Y-73069737D01*
X176948784Y-73125971D01*
X177026959Y-73167757D01*
X177111785Y-73193489D01*
X177200000Y-73202177D01*
X177700000Y-73202177D01*
X177788215Y-73193489D01*
X177873041Y-73167757D01*
X177951216Y-73125971D01*
X178019737Y-73069737D01*
X178075971Y-73001216D01*
X178117757Y-72923041D01*
X178133726Y-72870400D01*
X178427823Y-72870400D01*
X178464336Y-72958549D01*
X178617549Y-73187848D01*
X178812552Y-73382851D01*
X179041851Y-73536064D01*
X179296635Y-73641599D01*
X179567112Y-73695400D01*
X179842888Y-73695400D01*
X180113365Y-73641599D01*
X180368149Y-73536064D01*
X180597448Y-73382851D01*
X180792451Y-73187848D01*
X180945664Y-72958549D01*
X180955000Y-72936010D01*
X180964336Y-72958549D01*
X181117549Y-73187848D01*
X181312552Y-73382851D01*
X181541851Y-73536064D01*
X181796635Y-73641599D01*
X182067112Y-73695400D01*
X182342888Y-73695400D01*
X182613365Y-73641599D01*
X182868149Y-73536064D01*
X183097448Y-73382851D01*
X183292451Y-73187848D01*
X183445664Y-72958549D01*
X183480271Y-72875000D01*
X183767670Y-72875000D01*
X183782243Y-72923041D01*
X183824029Y-73001216D01*
X183880263Y-73069737D01*
X183948784Y-73125971D01*
X184026959Y-73167757D01*
X184111785Y-73193489D01*
X184200000Y-73202177D01*
X184700000Y-73202177D01*
X184788215Y-73193489D01*
X184873041Y-73167757D01*
X184951216Y-73125971D01*
X185019737Y-73069737D01*
X185075971Y-73001216D01*
X185117757Y-72923041D01*
X185143489Y-72838215D01*
X185152177Y-72750000D01*
X185348306Y-72750000D01*
X185355064Y-72818612D01*
X185375077Y-72884587D01*
X185407577Y-72945391D01*
X185451315Y-72998685D01*
X185504609Y-73042423D01*
X185565413Y-73074923D01*
X185631388Y-73094936D01*
X185700000Y-73101694D01*
X185812500Y-73100000D01*
X185900000Y-73012500D01*
X185900000Y-72350000D01*
X186000000Y-72350000D01*
X186000000Y-73012500D01*
X186087500Y-73100000D01*
X186200000Y-73101694D01*
X186268612Y-73094936D01*
X186334587Y-73074923D01*
X186395391Y-73042423D01*
X186448685Y-72998685D01*
X186492423Y-72945391D01*
X186524923Y-72884587D01*
X186544936Y-72818612D01*
X186551694Y-72750000D01*
X186550000Y-72437500D01*
X186462500Y-72350000D01*
X186000000Y-72350000D01*
X185900000Y-72350000D01*
X185437500Y-72350000D01*
X185350000Y-72437500D01*
X185348306Y-72750000D01*
X185152177Y-72750000D01*
X185152177Y-71850000D01*
X185348306Y-71850000D01*
X185350000Y-72162500D01*
X185437500Y-72250000D01*
X185900000Y-72250000D01*
X185900000Y-71587500D01*
X186000000Y-71587500D01*
X186000000Y-72250000D01*
X186462500Y-72250000D01*
X186540214Y-72172286D01*
X188135000Y-72172286D01*
X188135000Y-72418514D01*
X188183037Y-72660011D01*
X188277265Y-72887497D01*
X188414062Y-73092228D01*
X188588172Y-73266338D01*
X188792903Y-73403135D01*
X189020389Y-73497363D01*
X189261886Y-73545400D01*
X189508114Y-73545400D01*
X189749611Y-73497363D01*
X189977097Y-73403135D01*
X190181828Y-73266338D01*
X190355938Y-73092228D01*
X190492735Y-72887497D01*
X190586963Y-72660011D01*
X190635000Y-72418514D01*
X190635000Y-72172286D01*
X190586963Y-71930789D01*
X190492735Y-71703303D01*
X190355938Y-71498572D01*
X190181828Y-71324462D01*
X189977097Y-71187665D01*
X189749611Y-71093437D01*
X189508114Y-71045400D01*
X189261886Y-71045400D01*
X189020389Y-71093437D01*
X188792903Y-71187665D01*
X188588172Y-71324462D01*
X188414062Y-71498572D01*
X188277265Y-71703303D01*
X188183037Y-71930789D01*
X188135000Y-72172286D01*
X186540214Y-72172286D01*
X186550000Y-72162500D01*
X186551694Y-71850000D01*
X186544936Y-71781388D01*
X186524923Y-71715413D01*
X186492423Y-71654609D01*
X186448685Y-71601315D01*
X186395391Y-71557577D01*
X186334587Y-71525077D01*
X186268612Y-71505064D01*
X186200000Y-71498306D01*
X186087500Y-71500000D01*
X186000000Y-71587500D01*
X185900000Y-71587500D01*
X185812500Y-71500000D01*
X185700000Y-71498306D01*
X185631388Y-71505064D01*
X185565413Y-71525077D01*
X185504609Y-71557577D01*
X185451315Y-71601315D01*
X185407577Y-71654609D01*
X185375077Y-71715413D01*
X185355064Y-71781388D01*
X185348306Y-71850000D01*
X185152177Y-71850000D01*
X185143489Y-71761785D01*
X185117757Y-71676959D01*
X185075971Y-71598784D01*
X185019737Y-71530263D01*
X184951216Y-71474029D01*
X184873041Y-71432243D01*
X184788215Y-71406511D01*
X184700000Y-71397823D01*
X184200000Y-71397823D01*
X184111785Y-71406511D01*
X184026959Y-71432243D01*
X183948784Y-71474029D01*
X183880263Y-71530263D01*
X183824029Y-71598784D01*
X183782243Y-71676959D01*
X183767670Y-71725000D01*
X183484082Y-71725000D01*
X183445664Y-71632251D01*
X183292451Y-71402952D01*
X183097448Y-71207949D01*
X182868149Y-71054736D01*
X182845610Y-71045400D01*
X182868149Y-71036064D01*
X183097448Y-70882851D01*
X183292451Y-70687848D01*
X183445664Y-70458549D01*
X183480271Y-70375000D01*
X183767670Y-70375000D01*
X183782243Y-70423041D01*
X183824029Y-70501216D01*
X183880263Y-70569737D01*
X183948784Y-70625971D01*
X184026959Y-70667757D01*
X184111785Y-70693489D01*
X184200000Y-70702177D01*
X184700000Y-70702177D01*
X184788215Y-70693489D01*
X184873041Y-70667757D01*
X184951216Y-70625971D01*
X185019737Y-70569737D01*
X185075971Y-70501216D01*
X185117757Y-70423041D01*
X185143489Y-70338215D01*
X185152177Y-70250000D01*
X185348306Y-70250000D01*
X185355064Y-70318612D01*
X185375077Y-70384587D01*
X185407577Y-70445391D01*
X185451315Y-70498685D01*
X185504609Y-70542423D01*
X185565413Y-70574923D01*
X185631388Y-70594936D01*
X185700000Y-70601694D01*
X185812500Y-70600000D01*
X185900000Y-70512500D01*
X185900000Y-69850000D01*
X186000000Y-69850000D01*
X186000000Y-70512500D01*
X186087500Y-70600000D01*
X186200000Y-70601694D01*
X186268612Y-70594936D01*
X186334587Y-70574923D01*
X186395391Y-70542423D01*
X186448685Y-70498685D01*
X186492423Y-70445391D01*
X186524923Y-70384587D01*
X186544936Y-70318612D01*
X186551694Y-70250000D01*
X186550000Y-69937500D01*
X186462500Y-69850000D01*
X186000000Y-69850000D01*
X185900000Y-69850000D01*
X185437500Y-69850000D01*
X185350000Y-69937500D01*
X185348306Y-70250000D01*
X185152177Y-70250000D01*
X185152177Y-69350000D01*
X185348306Y-69350000D01*
X185350000Y-69662500D01*
X185437500Y-69750000D01*
X185900000Y-69750000D01*
X185900000Y-69087500D01*
X186000000Y-69087500D01*
X186000000Y-69750000D01*
X186462500Y-69750000D01*
X186550000Y-69662500D01*
X186551694Y-69350000D01*
X186544936Y-69281388D01*
X186524923Y-69215413D01*
X186492423Y-69154609D01*
X186448685Y-69101315D01*
X186395391Y-69057577D01*
X186334587Y-69025077D01*
X186268612Y-69005064D01*
X186200000Y-68998306D01*
X186087500Y-69000000D01*
X186000000Y-69087500D01*
X185900000Y-69087500D01*
X185812500Y-69000000D01*
X185700000Y-68998306D01*
X185631388Y-69005064D01*
X185565413Y-69025077D01*
X185504609Y-69057577D01*
X185451315Y-69101315D01*
X185407577Y-69154609D01*
X185375077Y-69215413D01*
X185355064Y-69281388D01*
X185348306Y-69350000D01*
X185152177Y-69350000D01*
X185143489Y-69261785D01*
X185117757Y-69176959D01*
X185075971Y-69098784D01*
X185019737Y-69030263D01*
X184951216Y-68974029D01*
X184873041Y-68932243D01*
X184788215Y-68906511D01*
X184700000Y-68897823D01*
X184200000Y-68897823D01*
X184111785Y-68906511D01*
X184026959Y-68932243D01*
X183948784Y-68974029D01*
X183880263Y-69030263D01*
X183824029Y-69098784D01*
X183782243Y-69176959D01*
X183767670Y-69225000D01*
X183484082Y-69225000D01*
X183445664Y-69132251D01*
X183292451Y-68902952D01*
X183097448Y-68707949D01*
X182868149Y-68554736D01*
X182845610Y-68545400D01*
X182868149Y-68536064D01*
X183097448Y-68382851D01*
X183292451Y-68187848D01*
X183445664Y-67958549D01*
X183480271Y-67875000D01*
X183767670Y-67875000D01*
X183782243Y-67923041D01*
X183824029Y-68001216D01*
X183880263Y-68069737D01*
X183948784Y-68125971D01*
X184026959Y-68167757D01*
X184111785Y-68193489D01*
X184200000Y-68202177D01*
X184700000Y-68202177D01*
X184788215Y-68193489D01*
X184873041Y-68167757D01*
X184951216Y-68125971D01*
X185019737Y-68069737D01*
X185075971Y-68001216D01*
X185117757Y-67923041D01*
X185143489Y-67838215D01*
X185152177Y-67750000D01*
X185348306Y-67750000D01*
X185355064Y-67818612D01*
X185375077Y-67884587D01*
X185407577Y-67945391D01*
X185451315Y-67998685D01*
X185504609Y-68042423D01*
X185565413Y-68074923D01*
X185631388Y-68094936D01*
X185700000Y-68101694D01*
X185812500Y-68100000D01*
X185900000Y-68012500D01*
X185900000Y-67350000D01*
X186000000Y-67350000D01*
X186000000Y-68012500D01*
X186087500Y-68100000D01*
X186200000Y-68101694D01*
X186268612Y-68094936D01*
X186334587Y-68074923D01*
X186395391Y-68042423D01*
X186448685Y-67998685D01*
X186492423Y-67945391D01*
X186524923Y-67884587D01*
X186544936Y-67818612D01*
X186551694Y-67750000D01*
X186550000Y-67437500D01*
X186462500Y-67350000D01*
X186000000Y-67350000D01*
X185900000Y-67350000D01*
X185437500Y-67350000D01*
X185350000Y-67437500D01*
X185348306Y-67750000D01*
X185152177Y-67750000D01*
X185152177Y-66850000D01*
X185348306Y-66850000D01*
X185350000Y-67162500D01*
X185437500Y-67250000D01*
X185900000Y-67250000D01*
X185900000Y-66587500D01*
X186000000Y-66587500D01*
X186000000Y-67250000D01*
X186462500Y-67250000D01*
X186550000Y-67162500D01*
X186551694Y-66850000D01*
X186544936Y-66781388D01*
X186524923Y-66715413D01*
X186492423Y-66654609D01*
X186448685Y-66601315D01*
X186395391Y-66557577D01*
X186334587Y-66525077D01*
X186268612Y-66505064D01*
X186200000Y-66498306D01*
X186087500Y-66500000D01*
X186000000Y-66587500D01*
X185900000Y-66587500D01*
X185812500Y-66500000D01*
X185700000Y-66498306D01*
X185631388Y-66505064D01*
X185565413Y-66525077D01*
X185504609Y-66557577D01*
X185451315Y-66601315D01*
X185407577Y-66654609D01*
X185375077Y-66715413D01*
X185355064Y-66781388D01*
X185348306Y-66850000D01*
X185152177Y-66850000D01*
X185143489Y-66761785D01*
X185117757Y-66676959D01*
X185075971Y-66598784D01*
X185019737Y-66530263D01*
X184951216Y-66474029D01*
X184873041Y-66432243D01*
X184788215Y-66406511D01*
X184700000Y-66397823D01*
X184200000Y-66397823D01*
X184111785Y-66406511D01*
X184026959Y-66432243D01*
X183948784Y-66474029D01*
X183880263Y-66530263D01*
X183824029Y-66598784D01*
X183782243Y-66676959D01*
X183767670Y-66725000D01*
X183484082Y-66725000D01*
X183445664Y-66632251D01*
X183292451Y-66402952D01*
X183097448Y-66207949D01*
X182868149Y-66054736D01*
X182845610Y-66045400D01*
X182868149Y-66036064D01*
X183097448Y-65882851D01*
X183292451Y-65687848D01*
X183445664Y-65458549D01*
X183482177Y-65370400D01*
X183766274Y-65370400D01*
X183782243Y-65423041D01*
X183824029Y-65501216D01*
X183880263Y-65569737D01*
X183948784Y-65625971D01*
X184026959Y-65667757D01*
X184111785Y-65693489D01*
X184200000Y-65702177D01*
X184700000Y-65702177D01*
X184788215Y-65693489D01*
X184873041Y-65667757D01*
X184951216Y-65625971D01*
X185019737Y-65569737D01*
X185075971Y-65501216D01*
X185117757Y-65423041D01*
X185143489Y-65338215D01*
X185152177Y-65250000D01*
X185348306Y-65250000D01*
X185355064Y-65318612D01*
X185375077Y-65384587D01*
X185407577Y-65445391D01*
X185451315Y-65498685D01*
X185504609Y-65542423D01*
X185565413Y-65574923D01*
X185631388Y-65594936D01*
X185700000Y-65601694D01*
X185812500Y-65600000D01*
X185900000Y-65512500D01*
X185900000Y-64850000D01*
X186000000Y-64850000D01*
X186000000Y-65512500D01*
X186087500Y-65600000D01*
X186200000Y-65601694D01*
X186268612Y-65594936D01*
X186334587Y-65574923D01*
X186395391Y-65542423D01*
X186448685Y-65498685D01*
X186492423Y-65445391D01*
X186524923Y-65384587D01*
X186544936Y-65318612D01*
X186551694Y-65250000D01*
X186550000Y-64937500D01*
X186462500Y-64850000D01*
X186000000Y-64850000D01*
X185900000Y-64850000D01*
X185437500Y-64850000D01*
X185350000Y-64937500D01*
X185348306Y-65250000D01*
X185152177Y-65250000D01*
X185152177Y-64350000D01*
X185348306Y-64350000D01*
X185350000Y-64662500D01*
X185437500Y-64750000D01*
X185900000Y-64750000D01*
X185900000Y-64087500D01*
X186000000Y-64087500D01*
X186000000Y-64750000D01*
X186462500Y-64750000D01*
X186540214Y-64672286D01*
X188135000Y-64672286D01*
X188135000Y-64918514D01*
X188183037Y-65160011D01*
X188277265Y-65387497D01*
X188414062Y-65592228D01*
X188588172Y-65766338D01*
X188792903Y-65903135D01*
X189020389Y-65997363D01*
X189261886Y-66045400D01*
X189508114Y-66045400D01*
X189749611Y-65997363D01*
X189977097Y-65903135D01*
X190181828Y-65766338D01*
X190355938Y-65592228D01*
X190492735Y-65387497D01*
X190586963Y-65160011D01*
X190635000Y-64918514D01*
X190635000Y-64672286D01*
X190586963Y-64430789D01*
X190492735Y-64203303D01*
X190355938Y-63998572D01*
X190181828Y-63824462D01*
X189977097Y-63687665D01*
X189749611Y-63593437D01*
X189508114Y-63545400D01*
X189261886Y-63545400D01*
X189020389Y-63593437D01*
X188792903Y-63687665D01*
X188588172Y-63824462D01*
X188414062Y-63998572D01*
X188277265Y-64203303D01*
X188183037Y-64430789D01*
X188135000Y-64672286D01*
X186540214Y-64672286D01*
X186550000Y-64662500D01*
X186551694Y-64350000D01*
X186544936Y-64281388D01*
X186524923Y-64215413D01*
X186492423Y-64154609D01*
X186448685Y-64101315D01*
X186395391Y-64057577D01*
X186334587Y-64025077D01*
X186268612Y-64005064D01*
X186200000Y-63998306D01*
X186087500Y-64000000D01*
X186000000Y-64087500D01*
X185900000Y-64087500D01*
X185812500Y-64000000D01*
X185700000Y-63998306D01*
X185631388Y-64005064D01*
X185565413Y-64025077D01*
X185504609Y-64057577D01*
X185451315Y-64101315D01*
X185407577Y-64154609D01*
X185375077Y-64215413D01*
X185355064Y-64281388D01*
X185348306Y-64350000D01*
X185152177Y-64350000D01*
X185143489Y-64261785D01*
X185117757Y-64176959D01*
X185075971Y-64098784D01*
X185019737Y-64030263D01*
X184951216Y-63974029D01*
X184873041Y-63932243D01*
X184788215Y-63906511D01*
X184700000Y-63897823D01*
X184200000Y-63897823D01*
X184111785Y-63906511D01*
X184026959Y-63932243D01*
X183948784Y-63974029D01*
X183880263Y-64030263D01*
X183824029Y-64098784D01*
X183782243Y-64176959D01*
X183769065Y-64220400D01*
X183482177Y-64220400D01*
X183445664Y-64132251D01*
X183292451Y-63902952D01*
X183097448Y-63707949D01*
X182868149Y-63554736D01*
X182613365Y-63449201D01*
X182342888Y-63395400D01*
X182067112Y-63395400D01*
X181796635Y-63449201D01*
X181541851Y-63554736D01*
X181312552Y-63707949D01*
X181117549Y-63902952D01*
X181107177Y-63918475D01*
X181107177Y-63845400D01*
X181098489Y-63757185D01*
X181072757Y-63672359D01*
X181030971Y-63594184D01*
X180974737Y-63525663D01*
X180906216Y-63469429D01*
X180828041Y-63427643D01*
X180743215Y-63401911D01*
X180655000Y-63393223D01*
X178817078Y-63393223D01*
X178760238Y-63308156D01*
X178641844Y-63189762D01*
X178502626Y-63096740D01*
X178347936Y-63032665D01*
X178183718Y-63000000D01*
X178065574Y-63000000D01*
X178058554Y-62991446D01*
X177970998Y-62919592D01*
X177871108Y-62866199D01*
X177762720Y-62833320D01*
X177678246Y-62825000D01*
X177678243Y-62825000D01*
X177650000Y-62822218D01*
X177621757Y-62825000D01*
X173188173Y-62825000D01*
X172276565Y-61913393D01*
X172258554Y-61891446D01*
X172170998Y-61819592D01*
X172071108Y-61766199D01*
X171962720Y-61733320D01*
X171878246Y-61725000D01*
X171878243Y-61725000D01*
X171850000Y-61722218D01*
X171821757Y-61725000D01*
X170928242Y-61725000D01*
X170899999Y-61722218D01*
X170871756Y-61725000D01*
X170871754Y-61725000D01*
X170787280Y-61733320D01*
X170678892Y-61766199D01*
X170579001Y-61819592D01*
X170533153Y-61857218D01*
X170491446Y-61891446D01*
X170473439Y-61913388D01*
X170454614Y-61932213D01*
X170407042Y-61817365D01*
X170279963Y-61627178D01*
X170118222Y-61465437D01*
X169928035Y-61338358D01*
X169716710Y-61250824D01*
X169669801Y-61241493D01*
X169690552Y-61191395D01*
X169738280Y-60951452D01*
X170223439Y-61436612D01*
X170241446Y-61458554D01*
X170263386Y-61476559D01*
X170329001Y-61530408D01*
X170410900Y-61574184D01*
X170428892Y-61583801D01*
X170537280Y-61616680D01*
X170621754Y-61625000D01*
X170621756Y-61625000D01*
X170649999Y-61627782D01*
X170678242Y-61625000D01*
X172900000Y-61625000D01*
X172900000Y-61633718D01*
X172932665Y-61797936D01*
X172996740Y-61952626D01*
X173089762Y-62091844D01*
X173208156Y-62210238D01*
X173347374Y-62303260D01*
X173502064Y-62367335D01*
X173666282Y-62400000D01*
X173833718Y-62400000D01*
X173997936Y-62367335D01*
X174152626Y-62303260D01*
X174291844Y-62210238D01*
X174410238Y-62091844D01*
X174503260Y-61952626D01*
X174567335Y-61797936D01*
X174596761Y-61650000D01*
X174633718Y-61650000D01*
X174797936Y-61617335D01*
X174952626Y-61553260D01*
X175091844Y-61460238D01*
X175210238Y-61341844D01*
X175303260Y-61202626D01*
X175367335Y-61047936D01*
X175400000Y-60883718D01*
X175400000Y-60716282D01*
X175381843Y-60625000D01*
X183921757Y-60625000D01*
X183950000Y-60627782D01*
X183978243Y-60625000D01*
X183978246Y-60625000D01*
X184062720Y-60616680D01*
X184171108Y-60583801D01*
X184270998Y-60530408D01*
X184358554Y-60458554D01*
X184376565Y-60436607D01*
X185436613Y-59376560D01*
X185458554Y-59358554D01*
X185494722Y-59314482D01*
X185530408Y-59270999D01*
X185583801Y-59171108D01*
X185588733Y-59154848D01*
X185616680Y-59062720D01*
X185623589Y-58992570D01*
X185631388Y-58994936D01*
X185700000Y-59001694D01*
X185812500Y-59000000D01*
X185900000Y-58912500D01*
X185900000Y-58250000D01*
X186000000Y-58250000D01*
X186000000Y-58912500D01*
X186087500Y-59000000D01*
X186200000Y-59001694D01*
X186268612Y-58994936D01*
X186334587Y-58974923D01*
X186395391Y-58942423D01*
X186448685Y-58898685D01*
X186492423Y-58845391D01*
X186524923Y-58784587D01*
X186544936Y-58718612D01*
X186551694Y-58650000D01*
X186550000Y-58337500D01*
X186462500Y-58250000D01*
X186000000Y-58250000D01*
X185900000Y-58250000D01*
X185880000Y-58250000D01*
X185880000Y-58150000D01*
X185900000Y-58150000D01*
X185900000Y-57487500D01*
X186000000Y-57487500D01*
X186000000Y-58150000D01*
X186462500Y-58150000D01*
X186537214Y-58075286D01*
X188135000Y-58075286D01*
X188135000Y-58321514D01*
X188183037Y-58563011D01*
X188277265Y-58790497D01*
X188414062Y-58995228D01*
X188588172Y-59169338D01*
X188792903Y-59306135D01*
X189020389Y-59400363D01*
X189261886Y-59448400D01*
X189508114Y-59448400D01*
X189749611Y-59400363D01*
X189977097Y-59306135D01*
X190181828Y-59169338D01*
X190355938Y-58995228D01*
X190492735Y-58790497D01*
X190586963Y-58563011D01*
X190635000Y-58321514D01*
X190635000Y-58075286D01*
X190586963Y-57833789D01*
X190492735Y-57606303D01*
X190355938Y-57401572D01*
X190181828Y-57227462D01*
X189977097Y-57090665D01*
X189749611Y-56996437D01*
X189508114Y-56948400D01*
X189261886Y-56948400D01*
X189020389Y-56996437D01*
X188792903Y-57090665D01*
X188588172Y-57227462D01*
X188414062Y-57401572D01*
X188277265Y-57606303D01*
X188183037Y-57833789D01*
X188135000Y-58075286D01*
X186537214Y-58075286D01*
X186550000Y-58062500D01*
X186551694Y-57750000D01*
X186544936Y-57681388D01*
X186524923Y-57615413D01*
X186492423Y-57554609D01*
X186448685Y-57501315D01*
X186395391Y-57457577D01*
X186334587Y-57425077D01*
X186268612Y-57405064D01*
X186200000Y-57398306D01*
X186087500Y-57400000D01*
X186000000Y-57487500D01*
X185900000Y-57487500D01*
X185812500Y-57400000D01*
X185700000Y-57398306D01*
X185631388Y-57405064D01*
X185625000Y-57407002D01*
X185625000Y-56492998D01*
X185631388Y-56494936D01*
X185700000Y-56501694D01*
X185812500Y-56500000D01*
X185900000Y-56412500D01*
X185900000Y-55750000D01*
X186000000Y-55750000D01*
X186000000Y-56412500D01*
X186087500Y-56500000D01*
X186200000Y-56501694D01*
X186268612Y-56494936D01*
X186334587Y-56474923D01*
X186395391Y-56442423D01*
X186448685Y-56398685D01*
X186492423Y-56345391D01*
X186524923Y-56284587D01*
X186544936Y-56218612D01*
X186551694Y-56150000D01*
X186550000Y-55837500D01*
X186462500Y-55750000D01*
X186000000Y-55750000D01*
X185900000Y-55750000D01*
X185880000Y-55750000D01*
X185880000Y-55650000D01*
X185900000Y-55650000D01*
X185900000Y-54987500D01*
X186000000Y-54987500D01*
X186000000Y-55650000D01*
X186462500Y-55650000D01*
X186550000Y-55562500D01*
X186551694Y-55250000D01*
X186544936Y-55181388D01*
X186524923Y-55115413D01*
X186492423Y-55054609D01*
X186448685Y-55001315D01*
X186395391Y-54957577D01*
X186334587Y-54925077D01*
X186268612Y-54905064D01*
X186200000Y-54898306D01*
X186087500Y-54900000D01*
X186000000Y-54987500D01*
X185900000Y-54987500D01*
X185812500Y-54900000D01*
X185700000Y-54898306D01*
X185631388Y-54905064D01*
X185565413Y-54925077D01*
X185504609Y-54957577D01*
X185451315Y-55001315D01*
X185407577Y-55054609D01*
X185375077Y-55115413D01*
X185355064Y-55181388D01*
X185348306Y-55250000D01*
X185348486Y-55283183D01*
X185270998Y-55219592D01*
X185171108Y-55166199D01*
X185142165Y-55157419D01*
X185117757Y-55076959D01*
X185075971Y-54998784D01*
X185019737Y-54930263D01*
X184951216Y-54874029D01*
X184873041Y-54832243D01*
X184788215Y-54806511D01*
X184700000Y-54797823D01*
X184200000Y-54797823D01*
X184111785Y-54806511D01*
X184026959Y-54832243D01*
X183948784Y-54874029D01*
X183880263Y-54930263D01*
X183824029Y-54998784D01*
X183782243Y-55076959D01*
X183768155Y-55123400D01*
X183482177Y-55123400D01*
X183445664Y-55035251D01*
X183292451Y-54805952D01*
X183097448Y-54610949D01*
X182868149Y-54457736D01*
X182845610Y-54448400D01*
X182868149Y-54439064D01*
X183097448Y-54285851D01*
X183292451Y-54090848D01*
X183445664Y-53861549D01*
X183482177Y-53773400D01*
X183767184Y-53773400D01*
X183782243Y-53823041D01*
X183824029Y-53901216D01*
X183880263Y-53969737D01*
X183948784Y-54025971D01*
X184026959Y-54067757D01*
X184111785Y-54093489D01*
X184200000Y-54102177D01*
X184700000Y-54102177D01*
X184788215Y-54093489D01*
X184873041Y-54067757D01*
X184951216Y-54025971D01*
X185019737Y-53969737D01*
X185075971Y-53901216D01*
X185117757Y-53823041D01*
X185143489Y-53738215D01*
X185152177Y-53650000D01*
X185348306Y-53650000D01*
X185355064Y-53718612D01*
X185375077Y-53784587D01*
X185407577Y-53845391D01*
X185451315Y-53898685D01*
X185504609Y-53942423D01*
X185565413Y-53974923D01*
X185631388Y-53994936D01*
X185700000Y-54001694D01*
X185812500Y-54000000D01*
X185900000Y-53912500D01*
X185900000Y-53250000D01*
X186000000Y-53250000D01*
X186000000Y-53912500D01*
X186087500Y-54000000D01*
X186200000Y-54001694D01*
X186268612Y-53994936D01*
X186334587Y-53974923D01*
X186395391Y-53942423D01*
X186448685Y-53898685D01*
X186492423Y-53845391D01*
X186524923Y-53784587D01*
X186544936Y-53718612D01*
X186551694Y-53650000D01*
X186550000Y-53337500D01*
X186462500Y-53250000D01*
X186000000Y-53250000D01*
X185900000Y-53250000D01*
X185437500Y-53250000D01*
X185350000Y-53337500D01*
X185348306Y-53650000D01*
X185152177Y-53650000D01*
X185152177Y-52750000D01*
X185348306Y-52750000D01*
X185350000Y-53062500D01*
X185437500Y-53150000D01*
X185900000Y-53150000D01*
X185900000Y-52487500D01*
X186000000Y-52487500D01*
X186000000Y-53150000D01*
X186462500Y-53150000D01*
X186550000Y-53062500D01*
X186551694Y-52750000D01*
X186544936Y-52681388D01*
X186524923Y-52615413D01*
X186492423Y-52554609D01*
X186448685Y-52501315D01*
X186395391Y-52457577D01*
X186334587Y-52425077D01*
X186268612Y-52405064D01*
X186200000Y-52398306D01*
X186087500Y-52400000D01*
X186000000Y-52487500D01*
X185900000Y-52487500D01*
X185812500Y-52400000D01*
X185700000Y-52398306D01*
X185631388Y-52405064D01*
X185565413Y-52425077D01*
X185504609Y-52457577D01*
X185451315Y-52501315D01*
X185407577Y-52554609D01*
X185375077Y-52615413D01*
X185355064Y-52681388D01*
X185348306Y-52750000D01*
X185152177Y-52750000D01*
X185143489Y-52661785D01*
X185117757Y-52576959D01*
X185075971Y-52498784D01*
X185019737Y-52430263D01*
X184951216Y-52374029D01*
X184873041Y-52332243D01*
X184788215Y-52306511D01*
X184700000Y-52297823D01*
X184200000Y-52297823D01*
X184111785Y-52306511D01*
X184026959Y-52332243D01*
X183948784Y-52374029D01*
X183880263Y-52430263D01*
X183824029Y-52498784D01*
X183782243Y-52576959D01*
X183768155Y-52623400D01*
X183482177Y-52623400D01*
X183445664Y-52535251D01*
X183292451Y-52305952D01*
X183097448Y-52110949D01*
X182868149Y-51957736D01*
X182845610Y-51948400D01*
X182868149Y-51939064D01*
X183097448Y-51785851D01*
X183292451Y-51590848D01*
X183445664Y-51361549D01*
X183482177Y-51273400D01*
X183767184Y-51273400D01*
X183782243Y-51323041D01*
X183824029Y-51401216D01*
X183880263Y-51469737D01*
X183948784Y-51525971D01*
X184026959Y-51567757D01*
X184111785Y-51593489D01*
X184200000Y-51602177D01*
X184700000Y-51602177D01*
X184788215Y-51593489D01*
X184873041Y-51567757D01*
X184951216Y-51525971D01*
X185019737Y-51469737D01*
X185075971Y-51401216D01*
X185117757Y-51323041D01*
X185143489Y-51238215D01*
X185152177Y-51150000D01*
X185348306Y-51150000D01*
X185355064Y-51218612D01*
X185375077Y-51284587D01*
X185407577Y-51345391D01*
X185451315Y-51398685D01*
X185504609Y-51442423D01*
X185565413Y-51474923D01*
X185631388Y-51494936D01*
X185700000Y-51501694D01*
X185812500Y-51500000D01*
X185900000Y-51412500D01*
X185900000Y-50750000D01*
X186000000Y-50750000D01*
X186000000Y-51412500D01*
X186087500Y-51500000D01*
X186200000Y-51501694D01*
X186268612Y-51494936D01*
X186334587Y-51474923D01*
X186395391Y-51442423D01*
X186448685Y-51398685D01*
X186492423Y-51345391D01*
X186524923Y-51284587D01*
X186544936Y-51218612D01*
X186551694Y-51150000D01*
X186550000Y-50837500D01*
X186462500Y-50750000D01*
X186000000Y-50750000D01*
X185900000Y-50750000D01*
X185437500Y-50750000D01*
X185350000Y-50837500D01*
X185348306Y-51150000D01*
X185152177Y-51150000D01*
X185152177Y-50250000D01*
X185348306Y-50250000D01*
X185350000Y-50562500D01*
X185437500Y-50650000D01*
X185900000Y-50650000D01*
X185900000Y-49987500D01*
X186000000Y-49987500D01*
X186000000Y-50650000D01*
X186462500Y-50650000D01*
X186537214Y-50575286D01*
X188135000Y-50575286D01*
X188135000Y-50821514D01*
X188183037Y-51063011D01*
X188277265Y-51290497D01*
X188414062Y-51495228D01*
X188588172Y-51669338D01*
X188792903Y-51806135D01*
X189020389Y-51900363D01*
X189261886Y-51948400D01*
X189508114Y-51948400D01*
X189749611Y-51900363D01*
X189977097Y-51806135D01*
X190181828Y-51669338D01*
X190355938Y-51495228D01*
X190492735Y-51290497D01*
X190586963Y-51063011D01*
X190635000Y-50821514D01*
X190635000Y-50575286D01*
X190586963Y-50333789D01*
X190492735Y-50106303D01*
X190355938Y-49901572D01*
X190181828Y-49727462D01*
X189977097Y-49590665D01*
X189749611Y-49496437D01*
X189508114Y-49448400D01*
X189261886Y-49448400D01*
X189020389Y-49496437D01*
X188792903Y-49590665D01*
X188588172Y-49727462D01*
X188414062Y-49901572D01*
X188277265Y-50106303D01*
X188183037Y-50333789D01*
X188135000Y-50575286D01*
X186537214Y-50575286D01*
X186550000Y-50562500D01*
X186551694Y-50250000D01*
X186544936Y-50181388D01*
X186524923Y-50115413D01*
X186492423Y-50054609D01*
X186448685Y-50001315D01*
X186395391Y-49957577D01*
X186334587Y-49925077D01*
X186268612Y-49905064D01*
X186200000Y-49898306D01*
X186087500Y-49900000D01*
X186000000Y-49987500D01*
X185900000Y-49987500D01*
X185812500Y-49900000D01*
X185700000Y-49898306D01*
X185631388Y-49905064D01*
X185565413Y-49925077D01*
X185504609Y-49957577D01*
X185451315Y-50001315D01*
X185407577Y-50054609D01*
X185375077Y-50115413D01*
X185355064Y-50181388D01*
X185348306Y-50250000D01*
X185152177Y-50250000D01*
X185143489Y-50161785D01*
X185117757Y-50076959D01*
X185075971Y-49998784D01*
X185019737Y-49930263D01*
X184951216Y-49874029D01*
X184873041Y-49832243D01*
X184788215Y-49806511D01*
X184700000Y-49797823D01*
X184200000Y-49797823D01*
X184111785Y-49806511D01*
X184026959Y-49832243D01*
X183948784Y-49874029D01*
X183880263Y-49930263D01*
X183824029Y-49998784D01*
X183782243Y-50076959D01*
X183768155Y-50123400D01*
X183482177Y-50123400D01*
X183445664Y-50035251D01*
X183292451Y-49805952D01*
X183097448Y-49610949D01*
X182868149Y-49457736D01*
X182613365Y-49352201D01*
X182342888Y-49298400D01*
X182067112Y-49298400D01*
X181796635Y-49352201D01*
X181541851Y-49457736D01*
X181312552Y-49610949D01*
X181117549Y-49805952D01*
X181107177Y-49821475D01*
X181107177Y-49748400D01*
X181098489Y-49660185D01*
X181072757Y-49575359D01*
X181030971Y-49497184D01*
X180974737Y-49428663D01*
X180906216Y-49372429D01*
X180828041Y-49330643D01*
X180743215Y-49304911D01*
X180655000Y-49296223D01*
X178755000Y-49296223D01*
X178666785Y-49304911D01*
X178581959Y-49330643D01*
X178503784Y-49372429D01*
X178435263Y-49428663D01*
X178379029Y-49497184D01*
X178337243Y-49575359D01*
X178311511Y-49660185D01*
X178302823Y-49748400D01*
X178302823Y-50125000D01*
X178132330Y-50125000D01*
X178117757Y-50076959D01*
X178075971Y-49998784D01*
X178019737Y-49930263D01*
X177951216Y-49874029D01*
X177873041Y-49832243D01*
X177788215Y-49806511D01*
X177700000Y-49797823D01*
X177200000Y-49797823D01*
X177111785Y-49806511D01*
X177026959Y-49832243D01*
X176948784Y-49874029D01*
X176880263Y-49930263D01*
X176824029Y-49998784D01*
X176782243Y-50076959D01*
X176756511Y-50161785D01*
X176747823Y-50250000D01*
X176747823Y-51150000D01*
X176756511Y-51238215D01*
X176782243Y-51323041D01*
X176824029Y-51401216D01*
X176880263Y-51469737D01*
X176948784Y-51525971D01*
X177026959Y-51567757D01*
X177111785Y-51593489D01*
X177200000Y-51602177D01*
X177700000Y-51602177D01*
X177788215Y-51593489D01*
X177873041Y-51567757D01*
X177951216Y-51525971D01*
X178019737Y-51469737D01*
X178075971Y-51401216D01*
X178117757Y-51323041D01*
X178132330Y-51275000D01*
X178302823Y-51275000D01*
X178302823Y-51648400D01*
X178311511Y-51736615D01*
X178337243Y-51821441D01*
X178379029Y-51899616D01*
X178435263Y-51968137D01*
X178503784Y-52024371D01*
X178581959Y-52066157D01*
X178666785Y-52091889D01*
X178755000Y-52100577D01*
X178828075Y-52100577D01*
X178812552Y-52110949D01*
X178617549Y-52305952D01*
X178464336Y-52535251D01*
X178427161Y-52625000D01*
X178132330Y-52625000D01*
X178117757Y-52576959D01*
X178075971Y-52498784D01*
X178019737Y-52430263D01*
X177951216Y-52374029D01*
X177873041Y-52332243D01*
X177788215Y-52306511D01*
X177700000Y-52297823D01*
X177200000Y-52297823D01*
X177111785Y-52306511D01*
X177026959Y-52332243D01*
X176948784Y-52374029D01*
X176880263Y-52430263D01*
X176824029Y-52498784D01*
X176782243Y-52576959D01*
X176756511Y-52661785D01*
X176747823Y-52750000D01*
X176747823Y-53650000D01*
X176756511Y-53738215D01*
X176782243Y-53823041D01*
X176824029Y-53901216D01*
X176880263Y-53969737D01*
X176948784Y-54025971D01*
X177026959Y-54067757D01*
X177111785Y-54093489D01*
X177200000Y-54102177D01*
X177700000Y-54102177D01*
X177788215Y-54093489D01*
X177873041Y-54067757D01*
X177951216Y-54025971D01*
X178019737Y-53969737D01*
X178075971Y-53901216D01*
X178117757Y-53823041D01*
X178132330Y-53775000D01*
X178428486Y-53775000D01*
X178464336Y-53861549D01*
X178617549Y-54090848D01*
X178812552Y-54285851D01*
X179041851Y-54439064D01*
X179064390Y-54448400D01*
X179041851Y-54457736D01*
X178812552Y-54610949D01*
X178617549Y-54805952D01*
X178464336Y-55035251D01*
X178427161Y-55125000D01*
X178132330Y-55125000D01*
X178117757Y-55076959D01*
X178075971Y-54998784D01*
X178019737Y-54930263D01*
X177951216Y-54874029D01*
X177873041Y-54832243D01*
X177788215Y-54806511D01*
X177700000Y-54797823D01*
X177200000Y-54797823D01*
X177111785Y-54806511D01*
X177026959Y-54832243D01*
X176948784Y-54874029D01*
X176880263Y-54930263D01*
X176824029Y-54998784D01*
X176782243Y-55076959D01*
X176756511Y-55161785D01*
X176747823Y-55250000D01*
X176747823Y-56150000D01*
X176756511Y-56238215D01*
X176782243Y-56323041D01*
X176824029Y-56401216D01*
X176880263Y-56469737D01*
X176948784Y-56525971D01*
X177026959Y-56567757D01*
X177111785Y-56593489D01*
X177200000Y-56602177D01*
X177700000Y-56602177D01*
X177788215Y-56593489D01*
X177873041Y-56567757D01*
X177951216Y-56525971D01*
X178019737Y-56469737D01*
X178075971Y-56401216D01*
X178117757Y-56323041D01*
X178132330Y-56275000D01*
X178428486Y-56275000D01*
X178464336Y-56361549D01*
X178617549Y-56590848D01*
X178812552Y-56785851D01*
X179041851Y-56939064D01*
X179064390Y-56948400D01*
X179041851Y-56957736D01*
X178812552Y-57110949D01*
X178617549Y-57305952D01*
X178464336Y-57535251D01*
X178427161Y-57625000D01*
X178132330Y-57625000D01*
X178117757Y-57576959D01*
X178075971Y-57498784D01*
X178019737Y-57430263D01*
X177951216Y-57374029D01*
X177873041Y-57332243D01*
X177788215Y-57306511D01*
X177700000Y-57297823D01*
X177200000Y-57297823D01*
X177111785Y-57306511D01*
X177026959Y-57332243D01*
X176948784Y-57374029D01*
X176880263Y-57430263D01*
X176824029Y-57498784D01*
X176782243Y-57576959D01*
X176756511Y-57661785D01*
X176747823Y-57750000D01*
X176747823Y-58650000D01*
X176756511Y-58738215D01*
X176782243Y-58823041D01*
X176824029Y-58901216D01*
X176880263Y-58969737D01*
X176886676Y-58975000D01*
X176334333Y-58975000D01*
X176334587Y-58974923D01*
X176395391Y-58942423D01*
X176448685Y-58898685D01*
X176492423Y-58845391D01*
X176524923Y-58784587D01*
X176544936Y-58718612D01*
X176551694Y-58650000D01*
X176550000Y-58337500D01*
X176462500Y-58250000D01*
X176000000Y-58250000D01*
X176000000Y-58270000D01*
X175900000Y-58270000D01*
X175900000Y-58250000D01*
X175437500Y-58250000D01*
X175350000Y-58337500D01*
X175348306Y-58650000D01*
X175355064Y-58718612D01*
X175375077Y-58784587D01*
X175407577Y-58845391D01*
X175451315Y-58898685D01*
X175504609Y-58942423D01*
X175565413Y-58974923D01*
X175565667Y-58975000D01*
X173798773Y-58975000D01*
X172573773Y-57750000D01*
X175348306Y-57750000D01*
X175350000Y-58062500D01*
X175437500Y-58150000D01*
X175900000Y-58150000D01*
X175900000Y-57487500D01*
X176000000Y-57487500D01*
X176000000Y-58150000D01*
X176462500Y-58150000D01*
X176550000Y-58062500D01*
X176551694Y-57750000D01*
X176544936Y-57681388D01*
X176524923Y-57615413D01*
X176492423Y-57554609D01*
X176448685Y-57501315D01*
X176395391Y-57457577D01*
X176334587Y-57425077D01*
X176268612Y-57405064D01*
X176200000Y-57398306D01*
X176087500Y-57400000D01*
X176000000Y-57487500D01*
X175900000Y-57487500D01*
X175812500Y-57400000D01*
X175700000Y-57398306D01*
X175631388Y-57405064D01*
X175565413Y-57425077D01*
X175504609Y-57457577D01*
X175451315Y-57501315D01*
X175407577Y-57554609D01*
X175375077Y-57615413D01*
X175355064Y-57681388D01*
X175348306Y-57750000D01*
X172573773Y-57750000D01*
X172500434Y-57676661D01*
X172539200Y-57481768D01*
X172539200Y-57253032D01*
X172494576Y-57028690D01*
X172407042Y-56817365D01*
X172279963Y-56627178D01*
X172118222Y-56465437D01*
X171971499Y-56367400D01*
X172118222Y-56269363D01*
X172237585Y-56150000D01*
X175348306Y-56150000D01*
X175355064Y-56218612D01*
X175375077Y-56284587D01*
X175407577Y-56345391D01*
X175451315Y-56398685D01*
X175504609Y-56442423D01*
X175565413Y-56474923D01*
X175631388Y-56494936D01*
X175700000Y-56501694D01*
X175812500Y-56500000D01*
X175900000Y-56412500D01*
X175900000Y-55750000D01*
X176000000Y-55750000D01*
X176000000Y-56412500D01*
X176087500Y-56500000D01*
X176200000Y-56501694D01*
X176268612Y-56494936D01*
X176334587Y-56474923D01*
X176395391Y-56442423D01*
X176448685Y-56398685D01*
X176492423Y-56345391D01*
X176524923Y-56284587D01*
X176544936Y-56218612D01*
X176551694Y-56150000D01*
X176550000Y-55837500D01*
X176462500Y-55750000D01*
X176000000Y-55750000D01*
X175900000Y-55750000D01*
X175437500Y-55750000D01*
X175350000Y-55837500D01*
X175348306Y-56150000D01*
X172237585Y-56150000D01*
X172279963Y-56107622D01*
X172407042Y-55917435D01*
X172494576Y-55706110D01*
X172539200Y-55481768D01*
X172539200Y-55253032D01*
X172538597Y-55250000D01*
X175348306Y-55250000D01*
X175350000Y-55562500D01*
X175437500Y-55650000D01*
X175900000Y-55650000D01*
X175900000Y-54987500D01*
X176000000Y-54987500D01*
X176000000Y-55650000D01*
X176462500Y-55650000D01*
X176550000Y-55562500D01*
X176551694Y-55250000D01*
X176544936Y-55181388D01*
X176524923Y-55115413D01*
X176492423Y-55054609D01*
X176448685Y-55001315D01*
X176395391Y-54957577D01*
X176334587Y-54925077D01*
X176268612Y-54905064D01*
X176200000Y-54898306D01*
X176087500Y-54900000D01*
X176000000Y-54987500D01*
X175900000Y-54987500D01*
X175812500Y-54900000D01*
X175700000Y-54898306D01*
X175631388Y-54905064D01*
X175565413Y-54925077D01*
X175504609Y-54957577D01*
X175451315Y-55001315D01*
X175407577Y-55054609D01*
X175375077Y-55115413D01*
X175355064Y-55181388D01*
X175348306Y-55250000D01*
X172538597Y-55250000D01*
X172494576Y-55028690D01*
X172407042Y-54817365D01*
X172279963Y-54627178D01*
X172118222Y-54465437D01*
X171971499Y-54367400D01*
X172118222Y-54269363D01*
X172279963Y-54107622D01*
X172407042Y-53917435D01*
X172494576Y-53706110D01*
X172505736Y-53650000D01*
X175348306Y-53650000D01*
X175355064Y-53718612D01*
X175375077Y-53784587D01*
X175407577Y-53845391D01*
X175451315Y-53898685D01*
X175504609Y-53942423D01*
X175565413Y-53974923D01*
X175631388Y-53994936D01*
X175700000Y-54001694D01*
X175812500Y-54000000D01*
X175900000Y-53912500D01*
X175900000Y-53250000D01*
X176000000Y-53250000D01*
X176000000Y-53912500D01*
X176087500Y-54000000D01*
X176200000Y-54001694D01*
X176268612Y-53994936D01*
X176334587Y-53974923D01*
X176395391Y-53942423D01*
X176448685Y-53898685D01*
X176492423Y-53845391D01*
X176524923Y-53784587D01*
X176544936Y-53718612D01*
X176551694Y-53650000D01*
X176550000Y-53337500D01*
X176462500Y-53250000D01*
X176000000Y-53250000D01*
X175900000Y-53250000D01*
X175437500Y-53250000D01*
X175350000Y-53337500D01*
X175348306Y-53650000D01*
X172505736Y-53650000D01*
X172539200Y-53481768D01*
X172539200Y-53253032D01*
X172494576Y-53028690D01*
X172407042Y-52817365D01*
X172362031Y-52750000D01*
X175348306Y-52750000D01*
X175350000Y-53062500D01*
X175437500Y-53150000D01*
X175900000Y-53150000D01*
X175900000Y-52487500D01*
X176000000Y-52487500D01*
X176000000Y-53150000D01*
X176462500Y-53150000D01*
X176550000Y-53062500D01*
X176551694Y-52750000D01*
X176544936Y-52681388D01*
X176524923Y-52615413D01*
X176492423Y-52554609D01*
X176448685Y-52501315D01*
X176395391Y-52457577D01*
X176334587Y-52425077D01*
X176268612Y-52405064D01*
X176200000Y-52398306D01*
X176087500Y-52400000D01*
X176000000Y-52487500D01*
X175900000Y-52487500D01*
X175812500Y-52400000D01*
X175700000Y-52398306D01*
X175631388Y-52405064D01*
X175565413Y-52425077D01*
X175504609Y-52457577D01*
X175451315Y-52501315D01*
X175407577Y-52554609D01*
X175375077Y-52615413D01*
X175355064Y-52681388D01*
X175348306Y-52750000D01*
X172362031Y-52750000D01*
X172279963Y-52627178D01*
X172118222Y-52465437D01*
X171928035Y-52338358D01*
X171716710Y-52250824D01*
X171492368Y-52206200D01*
X171263632Y-52206200D01*
X171039290Y-52250824D01*
X170827965Y-52338358D01*
X170637778Y-52465437D01*
X170476037Y-52627178D01*
X170348958Y-52817365D01*
X170261424Y-53028690D01*
X170216800Y-53253032D01*
X170216800Y-53481768D01*
X170237222Y-53584437D01*
X170118222Y-53465437D01*
X169928035Y-53338358D01*
X169716710Y-53250824D01*
X169492368Y-53206200D01*
X169263632Y-53206200D01*
X169039290Y-53250824D01*
X168827965Y-53338358D01*
X168637778Y-53465437D01*
X168476037Y-53627178D01*
X168348958Y-53817365D01*
X168261424Y-54028690D01*
X168216800Y-54253032D01*
X168216800Y-54481768D01*
X168261424Y-54706110D01*
X168348958Y-54917435D01*
X168476037Y-55107622D01*
X168637778Y-55269363D01*
X168784501Y-55367400D01*
X168637778Y-55465437D01*
X168476037Y-55627178D01*
X168348958Y-55817365D01*
X168261424Y-56028690D01*
X168216800Y-56253032D01*
X168216800Y-56481768D01*
X168255566Y-56676661D01*
X167913393Y-57018835D01*
X167900000Y-57029826D01*
X167900000Y-56877974D01*
X167907042Y-56867435D01*
X167994576Y-56656110D01*
X168039200Y-56431768D01*
X168039200Y-56203032D01*
X167994576Y-55978690D01*
X167907042Y-55767365D01*
X167900000Y-55756826D01*
X167900000Y-54877974D01*
X167907042Y-54867435D01*
X167994576Y-54656110D01*
X168039200Y-54431768D01*
X168039200Y-54203032D01*
X167994576Y-53978690D01*
X167907042Y-53767365D01*
X167900000Y-53756826D01*
X167900000Y-53178884D01*
X167967951Y-53192400D01*
X168288049Y-53192400D01*
X168601995Y-53129952D01*
X168897726Y-53007457D01*
X169163877Y-52829620D01*
X169390220Y-52603277D01*
X169568057Y-52337126D01*
X169690552Y-52041395D01*
X169753000Y-51727449D01*
X169753000Y-51407351D01*
X169701810Y-51150000D01*
X175348306Y-51150000D01*
X175355064Y-51218612D01*
X175375077Y-51284587D01*
X175407577Y-51345391D01*
X175451315Y-51398685D01*
X175504609Y-51442423D01*
X175565413Y-51474923D01*
X175631388Y-51494936D01*
X175700000Y-51501694D01*
X175812500Y-51500000D01*
X175900000Y-51412500D01*
X175900000Y-50750000D01*
X176000000Y-50750000D01*
X176000000Y-51412500D01*
X176087500Y-51500000D01*
X176200000Y-51501694D01*
X176268612Y-51494936D01*
X176334587Y-51474923D01*
X176395391Y-51442423D01*
X176448685Y-51398685D01*
X176492423Y-51345391D01*
X176524923Y-51284587D01*
X176544936Y-51218612D01*
X176551694Y-51150000D01*
X176550000Y-50837500D01*
X176462500Y-50750000D01*
X176000000Y-50750000D01*
X175900000Y-50750000D01*
X175437500Y-50750000D01*
X175350000Y-50837500D01*
X175348306Y-51150000D01*
X169701810Y-51150000D01*
X169690552Y-51093405D01*
X169568057Y-50797674D01*
X169390220Y-50531523D01*
X169163877Y-50305180D01*
X169081295Y-50250000D01*
X175348306Y-50250000D01*
X175350000Y-50562500D01*
X175437500Y-50650000D01*
X175900000Y-50650000D01*
X175900000Y-49987500D01*
X176000000Y-49987500D01*
X176000000Y-50650000D01*
X176462500Y-50650000D01*
X176550000Y-50562500D01*
X176551694Y-50250000D01*
X176544936Y-50181388D01*
X176524923Y-50115413D01*
X176492423Y-50054609D01*
X176448685Y-50001315D01*
X176395391Y-49957577D01*
X176334587Y-49925077D01*
X176268612Y-49905064D01*
X176200000Y-49898306D01*
X176087500Y-49900000D01*
X176000000Y-49987500D01*
X175900000Y-49987500D01*
X175812500Y-49900000D01*
X175700000Y-49898306D01*
X175631388Y-49905064D01*
X175565413Y-49925077D01*
X175504609Y-49957577D01*
X175451315Y-50001315D01*
X175407577Y-50054609D01*
X175375077Y-50115413D01*
X175355064Y-50181388D01*
X175348306Y-50250000D01*
X169081295Y-50250000D01*
X168897726Y-50127343D01*
X168601995Y-50004848D01*
X168288049Y-49942400D01*
X167967951Y-49942400D01*
X167900000Y-49955916D01*
X167900000Y-45991000D01*
X192293000Y-45991000D01*
X192293001Y-77741000D01*
G36*
X159125000Y-70071757D02*
G01*
X159122218Y-70100000D01*
X159125000Y-70128243D01*
X159125000Y-70128245D01*
X159133320Y-70212719D01*
X159156265Y-70288358D01*
X159166199Y-70321107D01*
X159219592Y-70420998D01*
X159233135Y-70437500D01*
X159291446Y-70508554D01*
X159313394Y-70526566D01*
X159473434Y-70686606D01*
X159491446Y-70708554D01*
X159579002Y-70780408D01*
X159678892Y-70833801D01*
X159787280Y-70866680D01*
X159871754Y-70875000D01*
X159871757Y-70875000D01*
X159900000Y-70877782D01*
X159928243Y-70875000D01*
X160017670Y-70875000D01*
X160032243Y-70923041D01*
X160074029Y-71001216D01*
X160130263Y-71069737D01*
X160198784Y-71125971D01*
X160276959Y-71167757D01*
X160361785Y-71193489D01*
X160450000Y-71202177D01*
X160950000Y-71202177D01*
X161038215Y-71193489D01*
X161123041Y-71167757D01*
X161201216Y-71125971D01*
X161269737Y-71069737D01*
X161325971Y-71001216D01*
X161367757Y-70923041D01*
X161393489Y-70838215D01*
X161402177Y-70750000D01*
X161598306Y-70750000D01*
X161605064Y-70818612D01*
X161625077Y-70884587D01*
X161657577Y-70945391D01*
X161701315Y-70998685D01*
X161754609Y-71042423D01*
X161815413Y-71074923D01*
X161881388Y-71094936D01*
X161950000Y-71101694D01*
X162062500Y-71100000D01*
X162150000Y-71012500D01*
X162150000Y-70350000D01*
X162250000Y-70350000D01*
X162250000Y-71012500D01*
X162337500Y-71100000D01*
X162450000Y-71101694D01*
X162518612Y-71094936D01*
X162584587Y-71074923D01*
X162645391Y-71042423D01*
X162698685Y-70998685D01*
X162742423Y-70945391D01*
X162774923Y-70884587D01*
X162794936Y-70818612D01*
X162801694Y-70750000D01*
X162800000Y-70437500D01*
X162712500Y-70350000D01*
X162250000Y-70350000D01*
X162150000Y-70350000D01*
X161687500Y-70350000D01*
X161600000Y-70437500D01*
X161598306Y-70750000D01*
X161402177Y-70750000D01*
X161402177Y-69975000D01*
X161598984Y-69975000D01*
X161600000Y-70162500D01*
X161687500Y-70250000D01*
X162150000Y-70250000D01*
X162150000Y-70230000D01*
X162250000Y-70230000D01*
X162250000Y-70250000D01*
X162712500Y-70250000D01*
X162800000Y-70162500D01*
X162801016Y-69975000D01*
X163920831Y-69975000D01*
X163976037Y-70057622D01*
X164137778Y-70219363D01*
X164284501Y-70317400D01*
X164137778Y-70415437D01*
X163976037Y-70577178D01*
X163848958Y-70767365D01*
X163761424Y-70978690D01*
X163716800Y-71203032D01*
X163716800Y-71431768D01*
X163761424Y-71656110D01*
X163848958Y-71867435D01*
X163976037Y-72057622D01*
X164137778Y-72219363D01*
X164303001Y-72329761D01*
X164303001Y-72449747D01*
X164300218Y-72478000D01*
X164311321Y-72590719D01*
X164344199Y-72699107D01*
X164397592Y-72798998D01*
X164429777Y-72838215D01*
X164469447Y-72886554D01*
X164491389Y-72904561D01*
X164525000Y-72938172D01*
X164525000Y-73261827D01*
X164261828Y-73525000D01*
X163801694Y-73525000D01*
X163800000Y-73287500D01*
X163712500Y-73200000D01*
X163100000Y-73200000D01*
X163100000Y-73220000D01*
X163000000Y-73220000D01*
X163000000Y-73200000D01*
X162980000Y-73200000D01*
X162980000Y-73100000D01*
X163000000Y-73100000D01*
X163000000Y-72512500D01*
X163100000Y-72512500D01*
X163100000Y-73100000D01*
X163712500Y-73100000D01*
X163800000Y-73012500D01*
X163801694Y-72775000D01*
X163794936Y-72706388D01*
X163774923Y-72640413D01*
X163742423Y-72579609D01*
X163698685Y-72526315D01*
X163645391Y-72482577D01*
X163584587Y-72450077D01*
X163518612Y-72430064D01*
X163450000Y-72423306D01*
X163187500Y-72425000D01*
X163100000Y-72512500D01*
X163000000Y-72512500D01*
X162912500Y-72425000D01*
X162650000Y-72423306D01*
X162581388Y-72430064D01*
X162515413Y-72450077D01*
X162454609Y-72482577D01*
X162401315Y-72526315D01*
X162357577Y-72579609D01*
X162356694Y-72581261D01*
X162325971Y-72523784D01*
X162269737Y-72455263D01*
X162201216Y-72399029D01*
X162123041Y-72357243D01*
X162038215Y-72331511D01*
X161950000Y-72322823D01*
X161150000Y-72322823D01*
X161061785Y-72331511D01*
X160976959Y-72357243D01*
X160898784Y-72399029D01*
X160830263Y-72455263D01*
X160774029Y-72523784D01*
X160746653Y-72575000D01*
X160678242Y-72575000D01*
X160649999Y-72572218D01*
X160621756Y-72575000D01*
X160621754Y-72575000D01*
X160537280Y-72583320D01*
X160428892Y-72616199D01*
X160383561Y-72640429D01*
X160359757Y-72561959D01*
X160317971Y-72483784D01*
X160261737Y-72415263D01*
X160193216Y-72359029D01*
X160115041Y-72317243D01*
X160030215Y-72291511D01*
X159942000Y-72282823D01*
X158634000Y-72282823D01*
X158545785Y-72291511D01*
X158460959Y-72317243D01*
X158382784Y-72359029D01*
X158314263Y-72415263D01*
X158258029Y-72483784D01*
X158216243Y-72561959D01*
X158190511Y-72646785D01*
X158181823Y-72735000D01*
X158181823Y-74043000D01*
X158190511Y-74131215D01*
X158216243Y-74216041D01*
X158258029Y-74294216D01*
X158314263Y-74362737D01*
X158382784Y-74418971D01*
X158460959Y-74460757D01*
X158545785Y-74486489D01*
X158634000Y-74495177D01*
X159891651Y-74495177D01*
X159874828Y-74512000D01*
X157000000Y-74512000D01*
X157000000Y-69975000D01*
X159125000Y-69975000D01*
X159125000Y-70071757D01*
G37*
X159125000Y-70071757D02*
X159122218Y-70100000D01*
X159125000Y-70128243D01*
X159125000Y-70128245D01*
X159133320Y-70212719D01*
X159156265Y-70288358D01*
X159166199Y-70321107D01*
X159219592Y-70420998D01*
X159233135Y-70437500D01*
X159291446Y-70508554D01*
X159313394Y-70526566D01*
X159473434Y-70686606D01*
X159491446Y-70708554D01*
X159579002Y-70780408D01*
X159678892Y-70833801D01*
X159787280Y-70866680D01*
X159871754Y-70875000D01*
X159871757Y-70875000D01*
X159900000Y-70877782D01*
X159928243Y-70875000D01*
X160017670Y-70875000D01*
X160032243Y-70923041D01*
X160074029Y-71001216D01*
X160130263Y-71069737D01*
X160198784Y-71125971D01*
X160276959Y-71167757D01*
X160361785Y-71193489D01*
X160450000Y-71202177D01*
X160950000Y-71202177D01*
X161038215Y-71193489D01*
X161123041Y-71167757D01*
X161201216Y-71125971D01*
X161269737Y-71069737D01*
X161325971Y-71001216D01*
X161367757Y-70923041D01*
X161393489Y-70838215D01*
X161402177Y-70750000D01*
X161598306Y-70750000D01*
X161605064Y-70818612D01*
X161625077Y-70884587D01*
X161657577Y-70945391D01*
X161701315Y-70998685D01*
X161754609Y-71042423D01*
X161815413Y-71074923D01*
X161881388Y-71094936D01*
X161950000Y-71101694D01*
X162062500Y-71100000D01*
X162150000Y-71012500D01*
X162150000Y-70350000D01*
X162250000Y-70350000D01*
X162250000Y-71012500D01*
X162337500Y-71100000D01*
X162450000Y-71101694D01*
X162518612Y-71094936D01*
X162584587Y-71074923D01*
X162645391Y-71042423D01*
X162698685Y-70998685D01*
X162742423Y-70945391D01*
X162774923Y-70884587D01*
X162794936Y-70818612D01*
X162801694Y-70750000D01*
X162800000Y-70437500D01*
X162712500Y-70350000D01*
X162250000Y-70350000D01*
X162150000Y-70350000D01*
X161687500Y-70350000D01*
X161600000Y-70437500D01*
X161598306Y-70750000D01*
X161402177Y-70750000D01*
X161402177Y-69975000D01*
X161598984Y-69975000D01*
X161600000Y-70162500D01*
X161687500Y-70250000D01*
X162150000Y-70250000D01*
X162150000Y-70230000D01*
X162250000Y-70230000D01*
X162250000Y-70250000D01*
X162712500Y-70250000D01*
X162800000Y-70162500D01*
X162801016Y-69975000D01*
X163920831Y-69975000D01*
X163976037Y-70057622D01*
X164137778Y-70219363D01*
X164284501Y-70317400D01*
X164137778Y-70415437D01*
X163976037Y-70577178D01*
X163848958Y-70767365D01*
X163761424Y-70978690D01*
X163716800Y-71203032D01*
X163716800Y-71431768D01*
X163761424Y-71656110D01*
X163848958Y-71867435D01*
X163976037Y-72057622D01*
X164137778Y-72219363D01*
X164303001Y-72329761D01*
X164303001Y-72449747D01*
X164300218Y-72478000D01*
X164311321Y-72590719D01*
X164344199Y-72699107D01*
X164397592Y-72798998D01*
X164429777Y-72838215D01*
X164469447Y-72886554D01*
X164491389Y-72904561D01*
X164525000Y-72938172D01*
X164525000Y-73261827D01*
X164261828Y-73525000D01*
X163801694Y-73525000D01*
X163800000Y-73287500D01*
X163712500Y-73200000D01*
X163100000Y-73200000D01*
X163100000Y-73220000D01*
X163000000Y-73220000D01*
X163000000Y-73200000D01*
X162980000Y-73200000D01*
X162980000Y-73100000D01*
X163000000Y-73100000D01*
X163000000Y-72512500D01*
X163100000Y-72512500D01*
X163100000Y-73100000D01*
X163712500Y-73100000D01*
X163800000Y-73012500D01*
X163801694Y-72775000D01*
X163794936Y-72706388D01*
X163774923Y-72640413D01*
X163742423Y-72579609D01*
X163698685Y-72526315D01*
X163645391Y-72482577D01*
X163584587Y-72450077D01*
X163518612Y-72430064D01*
X163450000Y-72423306D01*
X163187500Y-72425000D01*
X163100000Y-72512500D01*
X163000000Y-72512500D01*
X162912500Y-72425000D01*
X162650000Y-72423306D01*
X162581388Y-72430064D01*
X162515413Y-72450077D01*
X162454609Y-72482577D01*
X162401315Y-72526315D01*
X162357577Y-72579609D01*
X162356694Y-72581261D01*
X162325971Y-72523784D01*
X162269737Y-72455263D01*
X162201216Y-72399029D01*
X162123041Y-72357243D01*
X162038215Y-72331511D01*
X161950000Y-72322823D01*
X161150000Y-72322823D01*
X161061785Y-72331511D01*
X160976959Y-72357243D01*
X160898784Y-72399029D01*
X160830263Y-72455263D01*
X160774029Y-72523784D01*
X160746653Y-72575000D01*
X160678242Y-72575000D01*
X160649999Y-72572218D01*
X160621756Y-72575000D01*
X160621754Y-72575000D01*
X160537280Y-72583320D01*
X160428892Y-72616199D01*
X160383561Y-72640429D01*
X160359757Y-72561959D01*
X160317971Y-72483784D01*
X160261737Y-72415263D01*
X160193216Y-72359029D01*
X160115041Y-72317243D01*
X160030215Y-72291511D01*
X159942000Y-72282823D01*
X158634000Y-72282823D01*
X158545785Y-72291511D01*
X158460959Y-72317243D01*
X158382784Y-72359029D01*
X158314263Y-72415263D01*
X158258029Y-72483784D01*
X158216243Y-72561959D01*
X158190511Y-72646785D01*
X158181823Y-72735000D01*
X158181823Y-74043000D01*
X158190511Y-74131215D01*
X158216243Y-74216041D01*
X158258029Y-74294216D01*
X158314263Y-74362737D01*
X158382784Y-74418971D01*
X158460959Y-74460757D01*
X158545785Y-74486489D01*
X158634000Y-74495177D01*
X159891651Y-74495177D01*
X159874828Y-74512000D01*
X157000000Y-74512000D01*
X157000000Y-69975000D01*
X159125000Y-69975000D01*
X159125000Y-70071757D01*
G36*
X159022218Y-66500000D02*
G01*
X159025000Y-66528243D01*
X159025000Y-66528245D01*
X159033320Y-66612719D01*
X159055938Y-66687280D01*
X159066199Y-66721107D01*
X159119592Y-66820998D01*
X159143393Y-66850000D01*
X159191446Y-66908554D01*
X159213394Y-66926566D01*
X159473434Y-67186606D01*
X159491446Y-67208554D01*
X159579002Y-67280408D01*
X159678892Y-67333801D01*
X159787280Y-67366680D01*
X159816004Y-67369509D01*
X159832243Y-67423041D01*
X159874029Y-67501216D01*
X159930263Y-67569737D01*
X159998784Y-67625971D01*
X160076959Y-67667757D01*
X160161785Y-67693489D01*
X160250000Y-67702177D01*
X160750000Y-67702177D01*
X160838215Y-67693489D01*
X160923041Y-67667757D01*
X161001216Y-67625971D01*
X161069737Y-67569737D01*
X161125971Y-67501216D01*
X161167757Y-67423041D01*
X161193489Y-67338215D01*
X161202177Y-67250000D01*
X161398306Y-67250000D01*
X161405064Y-67318612D01*
X161425077Y-67384587D01*
X161457577Y-67445391D01*
X161501315Y-67498685D01*
X161554609Y-67542423D01*
X161615413Y-67574923D01*
X161681388Y-67594936D01*
X161750000Y-67601694D01*
X161862500Y-67600000D01*
X161950000Y-67512500D01*
X161950000Y-66850000D01*
X162050000Y-66850000D01*
X162050000Y-67512500D01*
X162137500Y-67600000D01*
X162250000Y-67601694D01*
X162318612Y-67594936D01*
X162384587Y-67574923D01*
X162445391Y-67542423D01*
X162498685Y-67498685D01*
X162542423Y-67445391D01*
X162574923Y-67384587D01*
X162594936Y-67318612D01*
X162601694Y-67250000D01*
X162600000Y-66937500D01*
X162512500Y-66850000D01*
X162050000Y-66850000D01*
X161950000Y-66850000D01*
X161487500Y-66850000D01*
X161400000Y-66937500D01*
X161398306Y-67250000D01*
X161202177Y-67250000D01*
X161202177Y-66475000D01*
X161398984Y-66475000D01*
X161400000Y-66662500D01*
X161487500Y-66750000D01*
X161950000Y-66750000D01*
X161950000Y-66730000D01*
X162050000Y-66730000D01*
X162050000Y-66750000D01*
X162512500Y-66750000D01*
X162600000Y-66662500D01*
X162601016Y-66475000D01*
X163222428Y-66475000D01*
X163755566Y-67008139D01*
X163716800Y-67203032D01*
X163716800Y-67431768D01*
X163761424Y-67656110D01*
X163848958Y-67867435D01*
X163976037Y-68057622D01*
X164137778Y-68219363D01*
X164284501Y-68317400D01*
X164137778Y-68415437D01*
X163976037Y-68577178D01*
X163848958Y-68767365D01*
X163825085Y-68825000D01*
X162950981Y-68825000D01*
X162950000Y-68687500D01*
X162862500Y-68600000D01*
X162250000Y-68600000D01*
X162250000Y-68620000D01*
X162150000Y-68620000D01*
X162150000Y-68600000D01*
X162130000Y-68600000D01*
X162130000Y-68500000D01*
X162150000Y-68500000D01*
X162150000Y-67912500D01*
X162250000Y-67912500D01*
X162250000Y-68500000D01*
X162862500Y-68500000D01*
X162950000Y-68412500D01*
X162951694Y-68175000D01*
X162944936Y-68106388D01*
X162924923Y-68040413D01*
X162892423Y-67979609D01*
X162848685Y-67926315D01*
X162795391Y-67882577D01*
X162734587Y-67850077D01*
X162668612Y-67830064D01*
X162600000Y-67823306D01*
X162337500Y-67825000D01*
X162250000Y-67912500D01*
X162150000Y-67912500D01*
X162062500Y-67825000D01*
X161800000Y-67823306D01*
X161731388Y-67830064D01*
X161665413Y-67850077D01*
X161604609Y-67882577D01*
X161551315Y-67926315D01*
X161507577Y-67979609D01*
X161506694Y-67981261D01*
X161475971Y-67923784D01*
X161419737Y-67855263D01*
X161351216Y-67799029D01*
X161273041Y-67757243D01*
X161188215Y-67731511D01*
X161100000Y-67722823D01*
X160300000Y-67722823D01*
X160211785Y-67731511D01*
X160126959Y-67757243D01*
X160048784Y-67799029D01*
X159980263Y-67855263D01*
X159924029Y-67923784D01*
X159896653Y-67975000D01*
X159878242Y-67975000D01*
X159849999Y-67972218D01*
X159821756Y-67975000D01*
X159821754Y-67975000D01*
X159737280Y-67983320D01*
X159628892Y-68016199D01*
X159529002Y-68069592D01*
X159441446Y-68141446D01*
X159423434Y-68163394D01*
X159313394Y-68273434D01*
X159291446Y-68291446D01*
X159246313Y-68346442D01*
X159219592Y-68379002D01*
X159173391Y-68465437D01*
X159166199Y-68478893D01*
X159133320Y-68587281D01*
X159127946Y-68641844D01*
X159122218Y-68700000D01*
X159125000Y-68728243D01*
X159125000Y-68825000D01*
X157000000Y-68825000D01*
X157000000Y-66475000D01*
X159024681Y-66475000D01*
X159022218Y-66500000D01*
G37*
X159022218Y-66500000D02*
X159025000Y-66528243D01*
X159025000Y-66528245D01*
X159033320Y-66612719D01*
X159055938Y-66687280D01*
X159066199Y-66721107D01*
X159119592Y-66820998D01*
X159143393Y-66850000D01*
X159191446Y-66908554D01*
X159213394Y-66926566D01*
X159473434Y-67186606D01*
X159491446Y-67208554D01*
X159579002Y-67280408D01*
X159678892Y-67333801D01*
X159787280Y-67366680D01*
X159816004Y-67369509D01*
X159832243Y-67423041D01*
X159874029Y-67501216D01*
X159930263Y-67569737D01*
X159998784Y-67625971D01*
X160076959Y-67667757D01*
X160161785Y-67693489D01*
X160250000Y-67702177D01*
X160750000Y-67702177D01*
X160838215Y-67693489D01*
X160923041Y-67667757D01*
X161001216Y-67625971D01*
X161069737Y-67569737D01*
X161125971Y-67501216D01*
X161167757Y-67423041D01*
X161193489Y-67338215D01*
X161202177Y-67250000D01*
X161398306Y-67250000D01*
X161405064Y-67318612D01*
X161425077Y-67384587D01*
X161457577Y-67445391D01*
X161501315Y-67498685D01*
X161554609Y-67542423D01*
X161615413Y-67574923D01*
X161681388Y-67594936D01*
X161750000Y-67601694D01*
X161862500Y-67600000D01*
X161950000Y-67512500D01*
X161950000Y-66850000D01*
X162050000Y-66850000D01*
X162050000Y-67512500D01*
X162137500Y-67600000D01*
X162250000Y-67601694D01*
X162318612Y-67594936D01*
X162384587Y-67574923D01*
X162445391Y-67542423D01*
X162498685Y-67498685D01*
X162542423Y-67445391D01*
X162574923Y-67384587D01*
X162594936Y-67318612D01*
X162601694Y-67250000D01*
X162600000Y-66937500D01*
X162512500Y-66850000D01*
X162050000Y-66850000D01*
X161950000Y-66850000D01*
X161487500Y-66850000D01*
X161400000Y-66937500D01*
X161398306Y-67250000D01*
X161202177Y-67250000D01*
X161202177Y-66475000D01*
X161398984Y-66475000D01*
X161400000Y-66662500D01*
X161487500Y-66750000D01*
X161950000Y-66750000D01*
X161950000Y-66730000D01*
X162050000Y-66730000D01*
X162050000Y-66750000D01*
X162512500Y-66750000D01*
X162600000Y-66662500D01*
X162601016Y-66475000D01*
X163222428Y-66475000D01*
X163755566Y-67008139D01*
X163716800Y-67203032D01*
X163716800Y-67431768D01*
X163761424Y-67656110D01*
X163848958Y-67867435D01*
X163976037Y-68057622D01*
X164137778Y-68219363D01*
X164284501Y-68317400D01*
X164137778Y-68415437D01*
X163976037Y-68577178D01*
X163848958Y-68767365D01*
X163825085Y-68825000D01*
X162950981Y-68825000D01*
X162950000Y-68687500D01*
X162862500Y-68600000D01*
X162250000Y-68600000D01*
X162250000Y-68620000D01*
X162150000Y-68620000D01*
X162150000Y-68600000D01*
X162130000Y-68600000D01*
X162130000Y-68500000D01*
X162150000Y-68500000D01*
X162150000Y-67912500D01*
X162250000Y-67912500D01*
X162250000Y-68500000D01*
X162862500Y-68500000D01*
X162950000Y-68412500D01*
X162951694Y-68175000D01*
X162944936Y-68106388D01*
X162924923Y-68040413D01*
X162892423Y-67979609D01*
X162848685Y-67926315D01*
X162795391Y-67882577D01*
X162734587Y-67850077D01*
X162668612Y-67830064D01*
X162600000Y-67823306D01*
X162337500Y-67825000D01*
X162250000Y-67912500D01*
X162150000Y-67912500D01*
X162062500Y-67825000D01*
X161800000Y-67823306D01*
X161731388Y-67830064D01*
X161665413Y-67850077D01*
X161604609Y-67882577D01*
X161551315Y-67926315D01*
X161507577Y-67979609D01*
X161506694Y-67981261D01*
X161475971Y-67923784D01*
X161419737Y-67855263D01*
X161351216Y-67799029D01*
X161273041Y-67757243D01*
X161188215Y-67731511D01*
X161100000Y-67722823D01*
X160300000Y-67722823D01*
X160211785Y-67731511D01*
X160126959Y-67757243D01*
X160048784Y-67799029D01*
X159980263Y-67855263D01*
X159924029Y-67923784D01*
X159896653Y-67975000D01*
X159878242Y-67975000D01*
X159849999Y-67972218D01*
X159821756Y-67975000D01*
X159821754Y-67975000D01*
X159737280Y-67983320D01*
X159628892Y-68016199D01*
X159529002Y-68069592D01*
X159441446Y-68141446D01*
X159423434Y-68163394D01*
X159313394Y-68273434D01*
X159291446Y-68291446D01*
X159246313Y-68346442D01*
X159219592Y-68379002D01*
X159173391Y-68465437D01*
X159166199Y-68478893D01*
X159133320Y-68587281D01*
X159127946Y-68641844D01*
X159122218Y-68700000D01*
X159125000Y-68728243D01*
X159125000Y-68825000D01*
X157000000Y-68825000D01*
X157000000Y-66475000D01*
X159024681Y-66475000D01*
X159022218Y-66500000D01*
G36*
X143150000Y-53800000D02*
G01*
X143152882Y-53829264D01*
X143161418Y-53857403D01*
X143175280Y-53883336D01*
X143193934Y-53906066D01*
X143650000Y-54362132D01*
X143650000Y-54588752D01*
X143635129Y-54637777D01*
X143621613Y-54775000D01*
X143626472Y-54824332D01*
X143572374Y-54846740D01*
X143433156Y-54939762D01*
X143314762Y-55058156D01*
X143221740Y-55197374D01*
X143157665Y-55352064D01*
X143125000Y-55516282D01*
X143125000Y-55683718D01*
X143157665Y-55847936D01*
X143221740Y-56002626D01*
X143314762Y-56141844D01*
X143433156Y-56260238D01*
X143572374Y-56353260D01*
X143727064Y-56417335D01*
X143891282Y-56450000D01*
X144058718Y-56450000D01*
X144222936Y-56417335D01*
X144377626Y-56353260D01*
X144516844Y-56260238D01*
X144635238Y-56141844D01*
X144728260Y-56002626D01*
X144792335Y-55847936D01*
X144811038Y-55753911D01*
X144820653Y-55744296D01*
X144847370Y-55722370D01*
X144920783Y-55632915D01*
X149068934Y-59781066D01*
X149091664Y-59799720D01*
X149117597Y-59813582D01*
X149145736Y-59822118D01*
X149175000Y-59825000D01*
X153962868Y-59825000D01*
X156493934Y-62356066D01*
X156516664Y-62374720D01*
X156542597Y-62388582D01*
X156570736Y-62397118D01*
X156600000Y-62400000D01*
X164160881Y-62400000D01*
X164137778Y-62415437D01*
X163976037Y-62577178D01*
X163848958Y-62767365D01*
X163761424Y-62978690D01*
X163716800Y-63203032D01*
X163716800Y-63431768D01*
X163761424Y-63656110D01*
X163848958Y-63867435D01*
X163976037Y-64057622D01*
X164137778Y-64219363D01*
X164327965Y-64346442D01*
X164392057Y-64372990D01*
X164292364Y-64426277D01*
X164222118Y-64590807D01*
X164878000Y-65246689D01*
X165533882Y-64590807D01*
X165463636Y-64426277D01*
X165362905Y-64373420D01*
X165428035Y-64346442D01*
X165618222Y-64219363D01*
X165737222Y-64100363D01*
X165716800Y-64203032D01*
X165716800Y-64431768D01*
X165761424Y-64656110D01*
X165848958Y-64867435D01*
X165976037Y-65057622D01*
X166137778Y-65219363D01*
X166284501Y-65317400D01*
X166137778Y-65415437D01*
X165976037Y-65577178D01*
X165848958Y-65767365D01*
X165761424Y-65978690D01*
X165716800Y-66203032D01*
X165716800Y-66431768D01*
X165737222Y-66534437D01*
X165618222Y-66415437D01*
X165428035Y-66288358D01*
X165363943Y-66261810D01*
X165463636Y-66208523D01*
X165533882Y-66043993D01*
X164878000Y-65388111D01*
X164863858Y-65402253D01*
X164793147Y-65331542D01*
X164807289Y-65317400D01*
X164948711Y-65317400D01*
X165604593Y-65973282D01*
X165769123Y-65903036D01*
X165866252Y-65717934D01*
X165925403Y-65517439D01*
X165944304Y-65309258D01*
X165922226Y-65101388D01*
X165860020Y-64901821D01*
X165769123Y-64731764D01*
X165604593Y-64661518D01*
X164948711Y-65317400D01*
X164807289Y-65317400D01*
X164151407Y-64661518D01*
X163986877Y-64731764D01*
X163889748Y-64916866D01*
X163830597Y-65117361D01*
X163811696Y-65325542D01*
X163825513Y-65455631D01*
X163781598Y-65419592D01*
X163681708Y-65366199D01*
X163573320Y-65333320D01*
X163488846Y-65325000D01*
X163488843Y-65325000D01*
X163460600Y-65322218D01*
X163432357Y-65325000D01*
X162750981Y-65325000D01*
X162750000Y-65187500D01*
X162662500Y-65100000D01*
X162050000Y-65100000D01*
X162050000Y-65120000D01*
X161950000Y-65120000D01*
X161950000Y-65100000D01*
X161930000Y-65100000D01*
X161930000Y-65000000D01*
X161950000Y-65000000D01*
X161950000Y-64412500D01*
X162050000Y-64412500D01*
X162050000Y-65000000D01*
X162662500Y-65000000D01*
X162750000Y-64912500D01*
X162751694Y-64675000D01*
X162744936Y-64606388D01*
X162724923Y-64540413D01*
X162692423Y-64479609D01*
X162648685Y-64426315D01*
X162595391Y-64382577D01*
X162534587Y-64350077D01*
X162468612Y-64330064D01*
X162400000Y-64323306D01*
X162137500Y-64325000D01*
X162050000Y-64412500D01*
X161950000Y-64412500D01*
X161862500Y-64325000D01*
X161600000Y-64323306D01*
X161531388Y-64330064D01*
X161465413Y-64350077D01*
X161404609Y-64382577D01*
X161351315Y-64426315D01*
X161307577Y-64479609D01*
X161306694Y-64481261D01*
X161275971Y-64423784D01*
X161219737Y-64355263D01*
X161151216Y-64299029D01*
X161073041Y-64257243D01*
X160988215Y-64231511D01*
X160900000Y-64222823D01*
X160100000Y-64222823D01*
X160011785Y-64231511D01*
X159926959Y-64257243D01*
X159848784Y-64299029D01*
X159780263Y-64355263D01*
X159724029Y-64423784D01*
X159695258Y-64477610D01*
X159637280Y-64483320D01*
X159528892Y-64516199D01*
X159429002Y-64569592D01*
X159341446Y-64641446D01*
X159323434Y-64663394D01*
X159213394Y-64773434D01*
X159191446Y-64791446D01*
X159156853Y-64833599D01*
X159119592Y-64879002D01*
X159090153Y-64934079D01*
X159066199Y-64978893D01*
X159033320Y-65087281D01*
X159027508Y-65146293D01*
X159022218Y-65200000D01*
X159025000Y-65228243D01*
X159025000Y-65325000D01*
X157000000Y-65325000D01*
X157000000Y-64700000D01*
X156997118Y-64670736D01*
X156988582Y-64642597D01*
X156974720Y-64616664D01*
X156956066Y-64593934D01*
X154981066Y-62618934D01*
X154958336Y-62600280D01*
X154932403Y-62586418D01*
X154904264Y-62577882D01*
X154875000Y-62575000D01*
X145687132Y-62575000D01*
X136074764Y-52962632D01*
X136170575Y-52898613D01*
X136358613Y-52710575D01*
X136506354Y-52489465D01*
X136608120Y-52243780D01*
X136660000Y-51982963D01*
X136660000Y-51717037D01*
X136608120Y-51456220D01*
X136506354Y-51210535D01*
X136358613Y-50989425D01*
X136170575Y-50801387D01*
X135949465Y-50653646D01*
X135703780Y-50551880D01*
X135442963Y-50500000D01*
X135177037Y-50500000D01*
X134916220Y-50551880D01*
X134670535Y-50653646D01*
X134449425Y-50801387D01*
X134261387Y-50989425D01*
X134113646Y-51210535D01*
X134011880Y-51456220D01*
X133990083Y-51565799D01*
X133930174Y-51368695D01*
X133814748Y-51152750D01*
X133630887Y-51059824D01*
X133010711Y-51680000D01*
X132869289Y-51680000D01*
X133560176Y-50989113D01*
X133467250Y-50805252D01*
X133250033Y-50689299D01*
X133014368Y-50617951D01*
X132769311Y-50593951D01*
X132524282Y-50618220D01*
X132288695Y-50689826D01*
X132072750Y-50805252D01*
X131979824Y-50989113D01*
X132670711Y-51680000D01*
X132529289Y-51680000D01*
X131909113Y-51059824D01*
X131725252Y-51152750D01*
X131625000Y-51340554D01*
X131625000Y-47650000D01*
X143150000Y-47650000D01*
X143150000Y-53800000D01*
G37*
X143150000Y-53800000D02*
X143152882Y-53829264D01*
X143161418Y-53857403D01*
X143175280Y-53883336D01*
X143193934Y-53906066D01*
X143650000Y-54362132D01*
X143650000Y-54588752D01*
X143635129Y-54637777D01*
X143621613Y-54775000D01*
X143626472Y-54824332D01*
X143572374Y-54846740D01*
X143433156Y-54939762D01*
X143314762Y-55058156D01*
X143221740Y-55197374D01*
X143157665Y-55352064D01*
X143125000Y-55516282D01*
X143125000Y-55683718D01*
X143157665Y-55847936D01*
X143221740Y-56002626D01*
X143314762Y-56141844D01*
X143433156Y-56260238D01*
X143572374Y-56353260D01*
X143727064Y-56417335D01*
X143891282Y-56450000D01*
X144058718Y-56450000D01*
X144222936Y-56417335D01*
X144377626Y-56353260D01*
X144516844Y-56260238D01*
X144635238Y-56141844D01*
X144728260Y-56002626D01*
X144792335Y-55847936D01*
X144811038Y-55753911D01*
X144820653Y-55744296D01*
X144847370Y-55722370D01*
X144920783Y-55632915D01*
X149068934Y-59781066D01*
X149091664Y-59799720D01*
X149117597Y-59813582D01*
X149145736Y-59822118D01*
X149175000Y-59825000D01*
X153962868Y-59825000D01*
X156493934Y-62356066D01*
X156516664Y-62374720D01*
X156542597Y-62388582D01*
X156570736Y-62397118D01*
X156600000Y-62400000D01*
X164160881Y-62400000D01*
X164137778Y-62415437D01*
X163976037Y-62577178D01*
X163848958Y-62767365D01*
X163761424Y-62978690D01*
X163716800Y-63203032D01*
X163716800Y-63431768D01*
X163761424Y-63656110D01*
X163848958Y-63867435D01*
X163976037Y-64057622D01*
X164137778Y-64219363D01*
X164327965Y-64346442D01*
X164392057Y-64372990D01*
X164292364Y-64426277D01*
X164222118Y-64590807D01*
X164878000Y-65246689D01*
X165533882Y-64590807D01*
X165463636Y-64426277D01*
X165362905Y-64373420D01*
X165428035Y-64346442D01*
X165618222Y-64219363D01*
X165737222Y-64100363D01*
X165716800Y-64203032D01*
X165716800Y-64431768D01*
X165761424Y-64656110D01*
X165848958Y-64867435D01*
X165976037Y-65057622D01*
X166137778Y-65219363D01*
X166284501Y-65317400D01*
X166137778Y-65415437D01*
X165976037Y-65577178D01*
X165848958Y-65767365D01*
X165761424Y-65978690D01*
X165716800Y-66203032D01*
X165716800Y-66431768D01*
X165737222Y-66534437D01*
X165618222Y-66415437D01*
X165428035Y-66288358D01*
X165363943Y-66261810D01*
X165463636Y-66208523D01*
X165533882Y-66043993D01*
X164878000Y-65388111D01*
X164863858Y-65402253D01*
X164793147Y-65331542D01*
X164807289Y-65317400D01*
X164948711Y-65317400D01*
X165604593Y-65973282D01*
X165769123Y-65903036D01*
X165866252Y-65717934D01*
X165925403Y-65517439D01*
X165944304Y-65309258D01*
X165922226Y-65101388D01*
X165860020Y-64901821D01*
X165769123Y-64731764D01*
X165604593Y-64661518D01*
X164948711Y-65317400D01*
X164807289Y-65317400D01*
X164151407Y-64661518D01*
X163986877Y-64731764D01*
X163889748Y-64916866D01*
X163830597Y-65117361D01*
X163811696Y-65325542D01*
X163825513Y-65455631D01*
X163781598Y-65419592D01*
X163681708Y-65366199D01*
X163573320Y-65333320D01*
X163488846Y-65325000D01*
X163488843Y-65325000D01*
X163460600Y-65322218D01*
X163432357Y-65325000D01*
X162750981Y-65325000D01*
X162750000Y-65187500D01*
X162662500Y-65100000D01*
X162050000Y-65100000D01*
X162050000Y-65120000D01*
X161950000Y-65120000D01*
X161950000Y-65100000D01*
X161930000Y-65100000D01*
X161930000Y-65000000D01*
X161950000Y-65000000D01*
X161950000Y-64412500D01*
X162050000Y-64412500D01*
X162050000Y-65000000D01*
X162662500Y-65000000D01*
X162750000Y-64912500D01*
X162751694Y-64675000D01*
X162744936Y-64606388D01*
X162724923Y-64540413D01*
X162692423Y-64479609D01*
X162648685Y-64426315D01*
X162595391Y-64382577D01*
X162534587Y-64350077D01*
X162468612Y-64330064D01*
X162400000Y-64323306D01*
X162137500Y-64325000D01*
X162050000Y-64412500D01*
X161950000Y-64412500D01*
X161862500Y-64325000D01*
X161600000Y-64323306D01*
X161531388Y-64330064D01*
X161465413Y-64350077D01*
X161404609Y-64382577D01*
X161351315Y-64426315D01*
X161307577Y-64479609D01*
X161306694Y-64481261D01*
X161275971Y-64423784D01*
X161219737Y-64355263D01*
X161151216Y-64299029D01*
X161073041Y-64257243D01*
X160988215Y-64231511D01*
X160900000Y-64222823D01*
X160100000Y-64222823D01*
X160011785Y-64231511D01*
X159926959Y-64257243D01*
X159848784Y-64299029D01*
X159780263Y-64355263D01*
X159724029Y-64423784D01*
X159695258Y-64477610D01*
X159637280Y-64483320D01*
X159528892Y-64516199D01*
X159429002Y-64569592D01*
X159341446Y-64641446D01*
X159323434Y-64663394D01*
X159213394Y-64773434D01*
X159191446Y-64791446D01*
X159156853Y-64833599D01*
X159119592Y-64879002D01*
X159090153Y-64934079D01*
X159066199Y-64978893D01*
X159033320Y-65087281D01*
X159027508Y-65146293D01*
X159022218Y-65200000D01*
X159025000Y-65228243D01*
X159025000Y-65325000D01*
X157000000Y-65325000D01*
X157000000Y-64700000D01*
X156997118Y-64670736D01*
X156988582Y-64642597D01*
X156974720Y-64616664D01*
X156956066Y-64593934D01*
X154981066Y-62618934D01*
X154958336Y-62600280D01*
X154932403Y-62586418D01*
X154904264Y-62577882D01*
X154875000Y-62575000D01*
X145687132Y-62575000D01*
X136074764Y-52962632D01*
X136170575Y-52898613D01*
X136358613Y-52710575D01*
X136506354Y-52489465D01*
X136608120Y-52243780D01*
X136660000Y-51982963D01*
X136660000Y-51717037D01*
X136608120Y-51456220D01*
X136506354Y-51210535D01*
X136358613Y-50989425D01*
X136170575Y-50801387D01*
X135949465Y-50653646D01*
X135703780Y-50551880D01*
X135442963Y-50500000D01*
X135177037Y-50500000D01*
X134916220Y-50551880D01*
X134670535Y-50653646D01*
X134449425Y-50801387D01*
X134261387Y-50989425D01*
X134113646Y-51210535D01*
X134011880Y-51456220D01*
X133990083Y-51565799D01*
X133930174Y-51368695D01*
X133814748Y-51152750D01*
X133630887Y-51059824D01*
X133010711Y-51680000D01*
X132869289Y-51680000D01*
X133560176Y-50989113D01*
X133467250Y-50805252D01*
X133250033Y-50689299D01*
X133014368Y-50617951D01*
X132769311Y-50593951D01*
X132524282Y-50618220D01*
X132288695Y-50689826D01*
X132072750Y-50805252D01*
X131979824Y-50989113D01*
X132670711Y-51680000D01*
X132529289Y-51680000D01*
X131909113Y-51059824D01*
X131725252Y-51152750D01*
X131625000Y-51340554D01*
X131625000Y-47650000D01*
X143150000Y-47650000D01*
X143150000Y-53800000D01*
G36*
X175350000Y-64662500D02*
G01*
X175437500Y-64750000D01*
X175900000Y-64750000D01*
X175900000Y-64730000D01*
X176000000Y-64730000D01*
X176000000Y-64750000D01*
X176020000Y-64750000D01*
X176020000Y-64850000D01*
X176000000Y-64850000D01*
X176000000Y-64870000D01*
X175900000Y-64870000D01*
X175900000Y-64850000D01*
X175437500Y-64850000D01*
X175350000Y-64937500D01*
X175348713Y-65175000D01*
X172523679Y-65175000D01*
X172494576Y-65028690D01*
X172407042Y-64817365D01*
X172279963Y-64627178D01*
X172127785Y-64475000D01*
X175348984Y-64475000D01*
X175350000Y-64662500D01*
G37*
X175350000Y-64662500D02*
X175437500Y-64750000D01*
X175900000Y-64750000D01*
X175900000Y-64730000D01*
X176000000Y-64730000D01*
X176000000Y-64750000D01*
X176020000Y-64750000D01*
X176020000Y-64850000D01*
X176000000Y-64850000D01*
X176000000Y-64870000D01*
X175900000Y-64870000D01*
X175900000Y-64850000D01*
X175437500Y-64850000D01*
X175350000Y-64937500D01*
X175348713Y-65175000D01*
X172523679Y-65175000D01*
X172494576Y-65028690D01*
X172407042Y-64817365D01*
X172279963Y-64627178D01*
X172127785Y-64475000D01*
X175348984Y-64475000D01*
X175350000Y-64662500D01*
%TD*%
M02*
