G04 #@! TF.GenerationSoftware,KiCad,Pcbnew,(2017-09-19 revision dddaa7e69)-makepkg*
G04 #@! TF.CreationDate,2017-12-07T22:33:37+10:30*
G04 #@! TF.ProjectId,din_power_atm90e26,64696E5F706F7765725F61746D393065,rev?*
G04 #@! TF.SameCoordinates,Original*
G04 #@! TF.FileFunction,Copper,L2,Bot,Signal*
G04 #@! TF.FilePolarity,Positive*
%FSLAX46Y46*%
G04 Gerber Fmt 4.6, Leading zero omitted, Abs format (unit mm)*
G04 Created by KiCad (PCBNEW (2017-09-19 revision dddaa7e69)-makepkg) date 12/07/17 22:33:37*
%MOMM*%
%LPD*%
G01*
G04 APERTURE LIST*
%ADD10C,1.422400*%
%ADD11C,1.600000*%
%ADD12C,1.800000*%
%ADD13R,1.800000X1.800000*%
%ADD14R,1.308000X1.308000*%
%ADD15R,1.900000X1.900000*%
%ADD16C,1.900000*%
%ADD17O,3.600000X1.800000*%
%ADD18R,3.600000X1.800000*%
%ADD19R,0.500000X0.900000*%
%ADD20R,0.900000X1.700000*%
%ADD21R,0.800000X0.750000*%
%ADD22C,0.800000*%
%ADD23C,1.000000*%
%ADD24C,0.500000*%
%ADD25C,0.250000*%
%ADD26C,0.300000*%
G04 APERTURE END LIST*
D10*
X169378000Y-62367400D03*
X169378000Y-64367400D03*
X169378000Y-66367400D03*
X169378000Y-68367400D03*
X169378000Y-70367400D03*
X169378000Y-72367400D03*
X171378000Y-71367400D03*
X171378000Y-69367400D03*
X171378000Y-67367400D03*
X171378000Y-65367400D03*
X171378000Y-63367400D03*
X166878000Y-72317400D03*
X166878000Y-70317400D03*
X166878000Y-68317400D03*
X166878000Y-66317400D03*
X166878000Y-64317400D03*
X166878000Y-62317400D03*
X164878000Y-63317400D03*
X164878000Y-65317400D03*
X164878000Y-67317400D03*
X164878000Y-69317400D03*
X164878000Y-71317400D03*
X171378000Y-53367400D03*
X171378000Y-55367400D03*
X171378000Y-57367400D03*
X171378000Y-59367400D03*
X169378000Y-58367400D03*
X169378000Y-56367400D03*
X169378000Y-54367400D03*
X164878000Y-59317400D03*
X164878000Y-57317400D03*
X164878000Y-55317400D03*
X164878000Y-53317400D03*
X166878000Y-54317400D03*
X166878000Y-56317400D03*
X166878000Y-58317400D03*
D11*
X117450000Y-74500000D03*
X122450000Y-74500000D03*
D12*
X135310000Y-51850000D03*
X132770000Y-51850000D03*
X130230000Y-51850000D03*
D13*
X127690000Y-51850000D03*
D14*
X159288000Y-73389000D03*
X159288000Y-57989000D03*
X129888000Y-68189000D03*
X129888000Y-63189000D03*
D15*
X179705000Y-50698400D03*
D16*
X179705000Y-53198400D03*
X179705000Y-55698400D03*
X179705000Y-58198400D03*
X182205000Y-50698400D03*
X182205000Y-53198400D03*
X182205000Y-55698400D03*
X182205000Y-58198400D03*
X182205000Y-72295400D03*
X182205000Y-69795400D03*
X182205000Y-67295400D03*
X182205000Y-64795400D03*
X179705000Y-72295400D03*
X179705000Y-69795400D03*
X179705000Y-67295400D03*
D15*
X179705000Y-64795400D03*
D17*
X110490000Y-74574400D03*
X110490000Y-69494400D03*
X110490000Y-64414400D03*
X110490000Y-59334400D03*
X110490000Y-54254400D03*
D18*
X110490000Y-49174400D03*
D19*
X185950000Y-50700000D03*
X184450000Y-50700000D03*
X185950000Y-58200000D03*
X184450000Y-58200000D03*
X185950000Y-55700000D03*
X184450000Y-55700000D03*
X175950000Y-58200000D03*
X177450000Y-58200000D03*
X175950000Y-55700000D03*
X177450000Y-55700000D03*
X175950000Y-53200000D03*
X177450000Y-53200000D03*
X184450000Y-53200000D03*
X185950000Y-53200000D03*
X175950000Y-50700000D03*
X177450000Y-50700000D03*
D20*
X144750000Y-65100000D03*
X147650000Y-65100000D03*
X150550000Y-75550000D03*
X153450000Y-75550000D03*
X153450000Y-70450000D03*
X150550000Y-70450000D03*
X153450000Y-65100000D03*
X150550000Y-65100000D03*
X147650000Y-75550000D03*
X144750000Y-75550000D03*
X144750000Y-70450000D03*
X147650000Y-70450000D03*
X141850000Y-70450000D03*
X138950000Y-70450000D03*
X138950000Y-75550000D03*
X141850000Y-75550000D03*
X118950000Y-67950000D03*
X116050000Y-67950000D03*
X118950000Y-52700000D03*
X116050000Y-52700000D03*
X138950000Y-65100000D03*
X141850000Y-65100000D03*
X118950000Y-60300000D03*
X116050000Y-60300000D03*
D21*
X163050000Y-73150000D03*
X161550000Y-73150000D03*
X162000000Y-65050000D03*
X160500000Y-65050000D03*
X162200000Y-68550000D03*
X160700000Y-68550000D03*
D19*
X163050000Y-75050000D03*
X161550000Y-75050000D03*
X175950000Y-67300000D03*
X177450000Y-67300000D03*
X185950000Y-64800000D03*
X184450000Y-64800000D03*
X185950000Y-67300000D03*
X184450000Y-67300000D03*
X162000000Y-66800000D03*
X160500000Y-66800000D03*
X162200000Y-70300000D03*
X160700000Y-70300000D03*
X177450000Y-69800000D03*
X175950000Y-69800000D03*
X184450000Y-72300000D03*
X185950000Y-72300000D03*
X184450000Y-69800000D03*
X185950000Y-69800000D03*
X177450000Y-72300000D03*
X175950000Y-72300000D03*
X177450000Y-64800000D03*
X175950000Y-64800000D03*
D22*
X142825000Y-55600000D03*
X145750000Y-57300000D03*
X148900000Y-60375000D03*
X153775000Y-60425000D03*
X157425000Y-64400000D03*
X178300000Y-61600000D03*
X182850000Y-61700000D03*
X172300000Y-50350000D03*
X168600000Y-46350000D03*
X182250000Y-46500000D03*
X192150000Y-46250000D03*
X191000000Y-53550000D03*
X191050000Y-61650000D03*
X191100000Y-68600000D03*
X192250000Y-77750000D03*
X185200000Y-77550000D03*
X157450000Y-77600000D03*
X163500000Y-77600000D03*
X169000000Y-77650000D03*
X167250000Y-74750000D03*
X175050000Y-64800000D03*
X175050000Y-67300000D03*
X175050000Y-50700000D03*
X186850000Y-72300000D03*
X175050000Y-53200000D03*
X175050000Y-55700000D03*
X175050000Y-58200000D03*
X186850000Y-50700000D03*
X186850000Y-53200000D03*
X186850000Y-55700000D03*
X186850000Y-58200000D03*
X175050000Y-72300000D03*
X186850000Y-64800000D03*
X186850000Y-67300000D03*
X186850000Y-69800000D03*
X175050000Y-69800000D03*
X137150000Y-50600000D03*
X134700000Y-48025000D03*
X139650000Y-52600000D03*
X140150000Y-56150000D03*
X143175000Y-50200000D03*
X139650000Y-50250000D03*
X143175000Y-51425000D03*
X143175000Y-52675000D03*
X139650000Y-51450000D03*
X163100000Y-65000000D03*
X164100000Y-75000000D03*
X164200000Y-73100000D03*
X162900000Y-66800000D03*
X163300000Y-68500000D03*
X163100000Y-70300000D03*
X155875000Y-57275000D03*
X153525000Y-56450000D03*
X150525000Y-53800000D03*
X152375000Y-54725000D03*
X150775000Y-50775000D03*
X150875000Y-48475000D03*
X145875000Y-46925000D03*
X149825000Y-47975000D03*
X149825000Y-46725000D03*
X145875000Y-49025000D03*
X145866500Y-47991500D03*
X154650000Y-46500000D03*
X154875000Y-49925000D03*
X157775000Y-46500000D03*
X145350000Y-46300000D03*
X148025000Y-52025000D03*
X149875000Y-49150000D03*
X158325000Y-51275000D03*
X159550000Y-54100000D03*
X170400000Y-74650000D03*
X172100000Y-72500000D03*
X171400000Y-74650000D03*
X172850000Y-73200000D03*
X170500000Y-73100000D03*
X172300000Y-70350000D03*
X168840000Y-74230000D03*
X178100000Y-63850000D03*
X178350000Y-68100000D03*
X173750000Y-61550000D03*
X174550000Y-60800000D03*
X143975000Y-55600000D03*
X144350000Y-52800000D03*
X164000000Y-49700000D03*
X162275000Y-48425000D03*
D23*
X116050000Y-52700000D02*
X114000000Y-52700000D01*
X113174400Y-49174400D02*
X110490000Y-49174400D01*
X113750000Y-49750000D02*
X113174400Y-49174400D01*
X113750000Y-52450000D02*
X113750000Y-49750000D01*
X114000000Y-52700000D02*
X113750000Y-52450000D01*
X110758534Y-74842934D02*
X110490000Y-74574400D01*
X116050000Y-60300000D02*
X113850000Y-60300000D01*
X113334400Y-59334400D02*
X110490000Y-59334400D01*
X113700000Y-59700000D02*
X113334400Y-59334400D01*
X113700000Y-60150000D02*
X113700000Y-59700000D01*
X113850000Y-60300000D02*
X113700000Y-60150000D01*
X125850000Y-64150000D02*
X126811000Y-63189000D01*
X126811000Y-63189000D02*
X129888000Y-63189000D01*
X113950000Y-64800000D02*
X113950000Y-67950000D01*
X114600000Y-64150000D02*
X113950000Y-64800000D01*
X125850000Y-64150000D02*
X114600000Y-64150000D01*
X116050000Y-67950000D02*
X113950000Y-67950000D01*
X113505600Y-69494400D02*
X110490000Y-69494400D01*
X113750000Y-69250000D02*
X113505600Y-69494400D01*
X113750000Y-68150000D02*
X113750000Y-69250000D01*
X113950000Y-67950000D02*
X113750000Y-68150000D01*
D24*
X153775000Y-60425000D02*
X153775000Y-60750000D01*
X142825000Y-55600000D02*
X142825000Y-55950000D01*
X142825000Y-55950000D02*
X144175000Y-57300000D01*
X144175000Y-57300000D02*
X145750000Y-57300000D01*
X148900000Y-60375000D02*
X148950000Y-60425000D01*
X148950000Y-60425000D02*
X153775000Y-60425000D01*
X153775000Y-60750000D02*
X157425000Y-64400000D01*
X186850000Y-64800000D02*
X186850000Y-62600000D01*
X178300000Y-61600000D02*
X178350000Y-61600000D01*
X185950000Y-61700000D02*
X182850000Y-61700000D01*
X186850000Y-62600000D02*
X185950000Y-61700000D01*
X169000000Y-77650000D02*
X185100000Y-77650000D01*
X172300000Y-50050000D02*
X172300000Y-50350000D01*
X168600000Y-46350000D02*
X172300000Y-50050000D01*
X191900000Y-46500000D02*
X182250000Y-46500000D01*
X192150000Y-46250000D02*
X191900000Y-46500000D01*
X191000000Y-61600000D02*
X191000000Y-53550000D01*
X191050000Y-61650000D02*
X191000000Y-61600000D01*
X191100000Y-76600000D02*
X191100000Y-68600000D01*
X192250000Y-77750000D02*
X191100000Y-76600000D01*
X185100000Y-77650000D02*
X185200000Y-77550000D01*
X157450000Y-77600000D02*
X163500000Y-77600000D01*
X167250000Y-75900000D02*
X167250000Y-74750000D01*
X169000000Y-77650000D02*
X167250000Y-75900000D01*
X175950000Y-64800000D02*
X175050000Y-64800000D01*
X175950000Y-67300000D02*
X175050000Y-67300000D01*
X175050000Y-50700000D02*
X175950000Y-50700000D01*
X186850000Y-72300000D02*
X185950000Y-72300000D01*
X175950000Y-53200000D02*
X175050000Y-53200000D01*
X175950000Y-55700000D02*
X175050000Y-55700000D01*
X175950000Y-58200000D02*
X175050000Y-58200000D01*
X185950000Y-50700000D02*
X186850000Y-50700000D01*
X185950000Y-53200000D02*
X186850000Y-53200000D01*
X185950000Y-55700000D02*
X186850000Y-55700000D01*
X185950000Y-58200000D02*
X186850000Y-58200000D01*
X175050000Y-72300000D02*
X175950000Y-72300000D01*
X185950000Y-64800000D02*
X186850000Y-64800000D01*
X185950000Y-67300000D02*
X186850000Y-67300000D01*
X185950000Y-69800000D02*
X186850000Y-69800000D01*
X175950000Y-69800000D02*
X175050000Y-69800000D01*
X137150000Y-50600000D02*
X137150000Y-50475000D01*
X138000000Y-51450000D02*
X137150000Y-50600000D01*
X139650000Y-51450000D02*
X138000000Y-51450000D01*
X137150000Y-50475000D02*
X134700000Y-48025000D01*
X139650000Y-52600000D02*
X139650000Y-55650000D01*
X139650000Y-51450000D02*
X139650000Y-52600000D01*
X139650000Y-55650000D02*
X140150000Y-56150000D01*
X143175000Y-51425000D02*
X143175000Y-50200000D01*
X139650000Y-51450000D02*
X139650000Y-50250000D01*
X143175000Y-52675000D02*
X143175000Y-51425000D01*
X162000000Y-65050000D02*
X163050000Y-65050000D01*
X163050000Y-65050000D02*
X163100000Y-65000000D01*
X163050000Y-75050000D02*
X164050000Y-75050000D01*
X164050000Y-75050000D02*
X164100000Y-75000000D01*
X163050000Y-73150000D02*
X164150000Y-73150000D01*
X164150000Y-73150000D02*
X164200000Y-73100000D01*
X162000000Y-66800000D02*
X162900000Y-66800000D01*
X162200000Y-68550000D02*
X163250000Y-68550000D01*
X163250000Y-68550000D02*
X163300000Y-68500000D01*
X162200000Y-70300000D02*
X163100000Y-70300000D01*
X155875000Y-57275000D02*
X155050000Y-56450000D01*
X155050000Y-56450000D02*
X153525000Y-56450000D01*
X152375000Y-55300000D02*
X152375000Y-54725000D01*
X153525000Y-56450000D02*
X152375000Y-55300000D01*
X151450000Y-53800000D02*
X150525000Y-53800000D01*
X152375000Y-54725000D02*
X151450000Y-53800000D01*
X150875000Y-48475000D02*
X150875000Y-50675000D01*
X150875000Y-50675000D02*
X150775000Y-50775000D01*
X145866500Y-47991500D02*
X145866500Y-46933500D01*
X145866500Y-46933500D02*
X145875000Y-46925000D01*
X149825000Y-46725000D02*
X149825000Y-47975000D01*
X145866500Y-47991500D02*
X145866500Y-49016500D01*
X145866500Y-49016500D02*
X145875000Y-49025000D01*
X145866500Y-47991500D02*
X145875000Y-48000000D01*
X157775000Y-46500000D02*
X154650000Y-46500000D01*
X127675000Y-48350000D02*
X127690000Y-48365000D01*
X127675000Y-48350000D02*
X127675000Y-46375000D01*
X127675000Y-46375000D02*
X127900000Y-46150000D01*
X127900000Y-46150000D02*
X145200000Y-46150000D01*
X145200000Y-46150000D02*
X145350000Y-46300000D01*
X127690000Y-48365000D02*
X127690000Y-51850000D01*
X158325000Y-52875000D02*
X158325000Y-51275000D01*
X159550000Y-54100000D02*
X158325000Y-52875000D01*
D25*
X172100000Y-72900000D02*
X170400000Y-74600000D01*
X170400000Y-74600000D02*
X170400000Y-74650000D01*
X172100000Y-72500000D02*
X172100000Y-72900000D01*
X177450000Y-50700000D02*
X179703400Y-50700000D01*
X179703400Y-50700000D02*
X179705000Y-50698400D01*
X177450000Y-53200000D02*
X179703400Y-53200000D01*
X179703400Y-53200000D02*
X179705000Y-53198400D01*
X172850000Y-73200000D02*
X171400000Y-74650000D01*
X182205000Y-50698400D02*
X184448400Y-50698400D01*
X184448400Y-50698400D02*
X184450000Y-50700000D01*
X168100000Y-69645400D02*
X168100000Y-72600000D01*
X168100000Y-72600000D02*
X168950000Y-73450000D01*
X168950000Y-73450000D02*
X170150000Y-73450000D01*
X170150000Y-73450000D02*
X170500000Y-73100000D01*
X169378000Y-68367400D02*
X168100000Y-69645400D01*
X169378000Y-68367400D02*
X169378000Y-68728000D01*
X182205000Y-53198400D02*
X184448400Y-53198400D01*
X184448400Y-53198400D02*
X184450000Y-53200000D01*
X173600000Y-73550000D02*
X171750000Y-75400000D01*
X172500000Y-70550000D02*
X172500000Y-71800000D01*
X172500000Y-71800000D02*
X173600000Y-72900000D01*
X173600000Y-72900000D02*
X173600000Y-73550000D01*
X172300000Y-70350000D02*
X172500000Y-70550000D01*
X170010000Y-75400000D02*
X168840000Y-74230000D01*
X170100000Y-75400000D02*
X170010000Y-75400000D01*
X171750000Y-75400000D02*
X170100000Y-75400000D01*
X177450000Y-55700000D02*
X179703400Y-55700000D01*
X179703400Y-55700000D02*
X179705000Y-55698400D01*
X181050000Y-60050000D02*
X183950000Y-60050000D01*
X171378000Y-59367400D02*
X172667400Y-59367400D01*
X172667400Y-59367400D02*
X173350000Y-60050000D01*
X173350000Y-60050000D02*
X181050000Y-60050000D01*
X184950000Y-55700000D02*
X184450000Y-55700000D01*
X185050000Y-55800000D02*
X184950000Y-55700000D01*
X185050000Y-57450000D02*
X185050000Y-55800000D01*
X185050000Y-58950000D02*
X185050000Y-57450000D01*
X183950000Y-60050000D02*
X185050000Y-58950000D01*
X182205000Y-55698400D02*
X184448400Y-55698400D01*
X184448400Y-55698400D02*
X184450000Y-55700000D01*
X171378000Y-57367400D02*
X173560600Y-59550000D01*
X180853400Y-59550000D02*
X182205000Y-58198400D01*
X173560600Y-59550000D02*
X180853400Y-59550000D01*
X182205000Y-58198400D02*
X184448400Y-58198400D01*
X184448400Y-58198400D02*
X184450000Y-58200000D01*
X171378000Y-63367400D02*
X171910600Y-63900000D01*
X176900000Y-64800000D02*
X177450000Y-64800000D01*
X176700000Y-64600000D02*
X176900000Y-64800000D01*
X176700000Y-64050000D02*
X176700000Y-64600000D01*
X176550000Y-63900000D02*
X176700000Y-64050000D01*
X171910600Y-63900000D02*
X176550000Y-63900000D01*
X177450000Y-64800000D02*
X179700400Y-64800000D01*
X179700400Y-64800000D02*
X179705000Y-64795400D01*
X175200000Y-63400000D02*
X177650000Y-63400000D01*
X170300000Y-63445400D02*
X170300000Y-62900000D01*
X170300000Y-62900000D02*
X170900000Y-62300000D01*
X170900000Y-62300000D02*
X171850000Y-62300000D01*
X171850000Y-62300000D02*
X172950000Y-63400000D01*
X172950000Y-63400000D02*
X175200000Y-63400000D01*
X169378000Y-64367400D02*
X170300000Y-63445400D01*
X177650000Y-63400000D02*
X178100000Y-63850000D01*
X169378000Y-64367400D02*
X169378000Y-64072000D01*
X179705000Y-67295400D02*
X178250000Y-67295400D01*
X178250000Y-67295400D02*
X177454600Y-67295400D01*
X177454600Y-67295400D02*
X177450000Y-67300000D01*
X171378000Y-65367400D02*
X171760600Y-65750000D01*
X171760600Y-65750000D02*
X176500000Y-65750000D01*
X176850000Y-68100000D02*
X178350000Y-68100000D01*
X176800000Y-68050000D02*
X176850000Y-68100000D01*
X176800000Y-66050000D02*
X176800000Y-68050000D01*
X176500000Y-65750000D02*
X176800000Y-66050000D01*
X182205000Y-64795400D02*
X184445400Y-64795400D01*
X184445400Y-64795400D02*
X184450000Y-64800000D01*
X184450000Y-67300000D02*
X182209600Y-67300000D01*
X182209600Y-67300000D02*
X182205000Y-67295400D01*
X173050000Y-61050000D02*
X173250000Y-61050000D01*
X173250000Y-61050000D02*
X173750000Y-61550000D01*
X169378000Y-56367400D02*
X168300000Y-57445400D01*
X168800000Y-59350000D02*
X168950000Y-59350000D01*
X168300000Y-58850000D02*
X168800000Y-59350000D01*
X168300000Y-57445400D02*
X168300000Y-58850000D01*
X173050000Y-61050000D02*
X173050000Y-61050000D01*
X170650000Y-61050000D02*
X173050000Y-61050000D01*
X168950000Y-59350000D02*
X170650000Y-61050000D01*
X179705000Y-72295400D02*
X177454600Y-72295400D01*
X177454600Y-72295400D02*
X177450000Y-72300000D01*
X169378000Y-70367400D02*
X169378000Y-70878000D01*
X177450000Y-58200000D02*
X179703400Y-58200000D01*
X179703400Y-58200000D02*
X179705000Y-58198400D01*
X184450000Y-72300000D02*
X182209600Y-72300000D01*
X182209600Y-72300000D02*
X182205000Y-72295400D01*
X169378000Y-58367400D02*
X169378000Y-58878000D01*
X169378000Y-58878000D02*
X171050000Y-60550000D01*
X174300000Y-60550000D02*
X174550000Y-60800000D01*
X173200000Y-60550000D02*
X174300000Y-60550000D01*
X173200000Y-60550000D02*
X173200000Y-60550000D01*
X171050000Y-60550000D02*
X173200000Y-60550000D01*
X169378000Y-58367400D02*
X169378000Y-58978000D01*
X179705000Y-69795400D02*
X177454600Y-69795400D01*
X177454600Y-69795400D02*
X177450000Y-69800000D01*
X153450000Y-65100000D02*
X154900000Y-65100000D01*
X158900000Y-65900000D02*
X159600000Y-65900000D01*
X155700000Y-65900000D02*
X158900000Y-65900000D01*
X154900000Y-65100000D02*
X155700000Y-65900000D01*
X160500000Y-65050000D02*
X159750000Y-65050000D01*
X159600000Y-65200000D02*
X159600000Y-65900000D01*
X159750000Y-65050000D02*
X159600000Y-65200000D01*
X160500000Y-66800000D02*
X159900000Y-66800000D01*
X159600000Y-66500000D02*
X159600000Y-65900000D01*
X159900000Y-66800000D02*
X159600000Y-66500000D01*
X164878000Y-67317400D02*
X163460600Y-65900000D01*
X163460600Y-65900000D02*
X159600000Y-65900000D01*
X153450000Y-75550000D02*
X154450000Y-75550000D01*
X154450000Y-75550000D02*
X154913000Y-75087000D01*
X154913000Y-75087000D02*
X160113000Y-75087000D01*
X160113000Y-75087000D02*
X160500000Y-74700000D01*
X161550000Y-75050000D02*
X160850000Y-75050000D01*
X160500000Y-74700000D02*
X160500000Y-74100000D01*
X160850000Y-75050000D02*
X160500000Y-74700000D01*
X161550000Y-73150000D02*
X160650000Y-73150000D01*
X160500000Y-73300000D02*
X160500000Y-74100000D01*
X160650000Y-73150000D02*
X160500000Y-73300000D01*
X164878000Y-71317400D02*
X164878000Y-72478000D01*
X164500000Y-74100000D02*
X160500000Y-74100000D01*
X165100000Y-73500000D02*
X164500000Y-74100000D01*
X165100000Y-72700000D02*
X165100000Y-73500000D01*
X164878000Y-72478000D02*
X165100000Y-72700000D01*
X153450000Y-70450000D02*
X154650000Y-70450000D01*
X159300000Y-69400000D02*
X159700000Y-69400000D01*
X155700000Y-69400000D02*
X159300000Y-69400000D01*
X154650000Y-70450000D02*
X155700000Y-69400000D01*
X160700000Y-70300000D02*
X159900000Y-70300000D01*
X159700000Y-70100000D02*
X159700000Y-69400000D01*
X159900000Y-70300000D02*
X159700000Y-70100000D01*
X160700000Y-68550000D02*
X159850000Y-68550000D01*
X159700000Y-68700000D02*
X159700000Y-69400000D01*
X159850000Y-68550000D02*
X159700000Y-68700000D01*
X164878000Y-69317400D02*
X164795400Y-69400000D01*
X164795400Y-69400000D02*
X159700000Y-69400000D01*
X184450000Y-69800000D02*
X182209600Y-69800000D01*
X182209600Y-69800000D02*
X182205000Y-69795400D01*
D24*
X143975000Y-55600000D02*
X144350000Y-55225000D01*
X144350000Y-54750000D02*
X144350000Y-55225000D01*
X144350000Y-54750000D02*
X144350000Y-52800000D01*
X144325000Y-54775000D02*
X144350000Y-54750000D01*
X163550000Y-49700000D02*
X164000000Y-49700000D01*
X162275000Y-48425000D02*
X163550000Y-49700000D01*
D23*
X137000000Y-65100000D02*
X136600000Y-64700000D01*
X138950000Y-65100000D02*
X137000000Y-65100000D01*
X133420000Y-55500000D02*
X124500000Y-55500000D01*
X136600000Y-58680000D02*
X133420000Y-55500000D01*
X136600000Y-64700000D02*
X136600000Y-58680000D01*
X124500000Y-55500000D02*
X121700000Y-52700000D01*
X121700000Y-52700000D02*
X118950000Y-52700000D01*
X138950000Y-65100000D02*
X138900000Y-65150000D01*
X141850000Y-65100000D02*
X144750000Y-65100000D01*
X141850000Y-75550000D02*
X144750000Y-75550000D01*
X127350000Y-69300000D02*
X127350000Y-73350000D01*
X138950000Y-75550000D02*
X135600000Y-75550000D01*
X125550000Y-67950000D02*
X126000000Y-67950000D01*
X126000000Y-67950000D02*
X127350000Y-69300000D01*
X125550000Y-67950000D02*
X118950000Y-67950000D01*
X129550000Y-75550000D02*
X135600000Y-75550000D01*
X127350000Y-73350000D02*
X129550000Y-75550000D01*
X133450000Y-70450000D02*
X135450000Y-70450000D01*
X125850000Y-60300000D02*
X127750000Y-58400000D01*
X118950000Y-60300000D02*
X125850000Y-60300000D01*
X132900000Y-69900000D02*
X133450000Y-70450000D01*
X132900000Y-59800000D02*
X132900000Y-69900000D01*
X131500000Y-58400000D02*
X132900000Y-59800000D01*
X127750000Y-58400000D02*
X131500000Y-58400000D01*
X135450000Y-70450000D02*
X138950000Y-70450000D01*
X147650000Y-75550000D02*
X150550000Y-75550000D01*
X141850000Y-70450000D02*
X144750000Y-70450000D01*
X147650000Y-65100000D02*
X150550000Y-65100000D01*
X147650000Y-70450000D02*
X150550000Y-70450000D01*
D26*
G36*
X165800000Y-52597391D02*
X165536626Y-52333557D01*
X165109990Y-52156402D01*
X164648036Y-52155999D01*
X164221092Y-52332409D01*
X163894157Y-52658774D01*
X163717002Y-53085410D01*
X163716599Y-53547364D01*
X163893009Y-53974308D01*
X164219374Y-54301243D01*
X164257851Y-54317220D01*
X164221092Y-54332409D01*
X163894157Y-54658774D01*
X163717002Y-55085410D01*
X163716599Y-55547364D01*
X163893009Y-55974308D01*
X164219374Y-56301243D01*
X164257851Y-56317220D01*
X164221092Y-56332409D01*
X163894157Y-56658774D01*
X163717002Y-57085410D01*
X163716599Y-57547364D01*
X163893009Y-57974308D01*
X164219374Y-58301243D01*
X164386681Y-58370715D01*
X164283153Y-58413598D01*
X164211034Y-58579724D01*
X164878000Y-59246689D01*
X165544966Y-58579724D01*
X165472847Y-58413598D01*
X165368409Y-58371187D01*
X165534908Y-58302391D01*
X165716971Y-58120645D01*
X165716599Y-58547364D01*
X165800000Y-58749209D01*
X165800000Y-58766487D01*
X165781802Y-58722553D01*
X165615676Y-58650434D01*
X164948711Y-59317400D01*
X165615676Y-59984366D01*
X165781802Y-59912247D01*
X165800000Y-59867434D01*
X165800000Y-60425000D01*
X157112132Y-60425000D01*
X156742208Y-60055076D01*
X164211034Y-60055076D01*
X164283153Y-60221202D01*
X164674303Y-60380042D01*
X165096464Y-60377105D01*
X165472847Y-60221202D01*
X165544966Y-60055076D01*
X164878000Y-59388111D01*
X164211034Y-60055076D01*
X156742208Y-60055076D01*
X155800835Y-59113703D01*
X163815358Y-59113703D01*
X163818295Y-59535864D01*
X163974198Y-59912247D01*
X164140324Y-59984366D01*
X164807289Y-59317400D01*
X164140324Y-58650434D01*
X163974198Y-58722553D01*
X163815358Y-59113703D01*
X155800835Y-59113703D01*
X154813632Y-58126500D01*
X158284000Y-58126500D01*
X158284000Y-58712620D01*
X158337285Y-58841259D01*
X158435741Y-58939716D01*
X158564381Y-58993000D01*
X159150500Y-58993000D01*
X159238000Y-58905500D01*
X159238000Y-58039000D01*
X159338000Y-58039000D01*
X159338000Y-58905500D01*
X159425500Y-58993000D01*
X160011619Y-58993000D01*
X160140259Y-58939716D01*
X160238715Y-58841259D01*
X160292000Y-58712620D01*
X160292000Y-58126500D01*
X160204500Y-58039000D01*
X159338000Y-58039000D01*
X159238000Y-58039000D01*
X158371500Y-58039000D01*
X158284000Y-58126500D01*
X154813632Y-58126500D01*
X154756066Y-58068934D01*
X154707403Y-58036418D01*
X154650000Y-58025000D01*
X149837132Y-58025000D01*
X145780466Y-53968334D01*
X149674853Y-53968334D01*
X149803985Y-54280857D01*
X150042885Y-54520174D01*
X150355183Y-54649852D01*
X150693334Y-54650147D01*
X151005857Y-54521015D01*
X151026909Y-54500000D01*
X151160050Y-54500000D01*
X151524878Y-54864827D01*
X151524853Y-54893334D01*
X151653985Y-55205857D01*
X151675000Y-55226909D01*
X151675000Y-55300000D01*
X151728284Y-55567879D01*
X151880025Y-55794975D01*
X152674878Y-56589827D01*
X152674853Y-56618334D01*
X152803985Y-56930857D01*
X153042885Y-57170174D01*
X153355183Y-57299852D01*
X153693334Y-57300147D01*
X154005857Y-57171015D01*
X154026909Y-57150000D01*
X154760050Y-57150000D01*
X155024878Y-57414828D01*
X155024853Y-57443334D01*
X155153985Y-57755857D01*
X155392885Y-57995174D01*
X155705183Y-58124852D01*
X156043334Y-58125147D01*
X156355857Y-57996015D01*
X156595174Y-57757115D01*
X156724852Y-57444817D01*
X156725008Y-57265380D01*
X158284000Y-57265380D01*
X158284000Y-57851500D01*
X158371500Y-57939000D01*
X159238000Y-57939000D01*
X159238000Y-57072500D01*
X159338000Y-57072500D01*
X159338000Y-57939000D01*
X160204500Y-57939000D01*
X160292000Y-57851500D01*
X160292000Y-57265380D01*
X160238715Y-57136741D01*
X160140259Y-57038284D01*
X160011619Y-56985000D01*
X159425500Y-56985000D01*
X159338000Y-57072500D01*
X159238000Y-57072500D01*
X159150500Y-56985000D01*
X158564381Y-56985000D01*
X158435741Y-57038284D01*
X158337285Y-57136741D01*
X158284000Y-57265380D01*
X156725008Y-57265380D01*
X156725147Y-57106666D01*
X156596015Y-56794143D01*
X156357115Y-56554826D01*
X156044817Y-56425148D01*
X156015072Y-56425122D01*
X155544975Y-55955025D01*
X155317879Y-55803284D01*
X155050000Y-55750000D01*
X154027254Y-55750000D01*
X154007115Y-55729826D01*
X153694817Y-55600148D01*
X153665071Y-55600122D01*
X153147075Y-55082125D01*
X153224852Y-54894817D01*
X153225147Y-54556666D01*
X153096015Y-54244143D01*
X152857115Y-54004826D01*
X152544817Y-53875148D01*
X152515071Y-53875122D01*
X151944975Y-53305025D01*
X151717879Y-53153284D01*
X151450000Y-53100000D01*
X151027254Y-53100000D01*
X151007115Y-53079826D01*
X150694817Y-52950148D01*
X150356666Y-52949853D01*
X150044143Y-53078985D01*
X149804826Y-53317885D01*
X149675148Y-53630183D01*
X149674853Y-53968334D01*
X145780466Y-53968334D01*
X145077237Y-53265105D01*
X145199852Y-52969817D01*
X145200147Y-52631666D01*
X145071015Y-52319143D01*
X144975000Y-52222960D01*
X144975000Y-50943334D01*
X149924853Y-50943334D01*
X150053985Y-51255857D01*
X150292885Y-51495174D01*
X150605183Y-51624852D01*
X150943334Y-51625147D01*
X151255857Y-51496015D01*
X151495174Y-51257115D01*
X151624852Y-50944817D01*
X151625147Y-50606666D01*
X151575000Y-50485301D01*
X151575000Y-48977254D01*
X151595174Y-48957115D01*
X151724852Y-48644817D01*
X151724896Y-48593334D01*
X161424853Y-48593334D01*
X161553985Y-48905857D01*
X161792885Y-49145174D01*
X162105183Y-49274852D01*
X162134928Y-49274878D01*
X163055025Y-50194975D01*
X163282122Y-50346716D01*
X163484800Y-50387031D01*
X163517885Y-50420174D01*
X163830183Y-50549852D01*
X164168334Y-50550147D01*
X164480857Y-50421015D01*
X164720174Y-50182115D01*
X164849852Y-49869817D01*
X164850147Y-49531666D01*
X164721015Y-49219143D01*
X164482115Y-48979826D01*
X164169817Y-48850148D01*
X163831666Y-48849853D01*
X163731281Y-48891331D01*
X163125122Y-48285172D01*
X163125147Y-48256666D01*
X162996015Y-47944143D01*
X162757115Y-47704826D01*
X162444817Y-47575148D01*
X162106666Y-47574853D01*
X161794143Y-47703985D01*
X161554826Y-47942885D01*
X161425148Y-48255183D01*
X161424853Y-48593334D01*
X151724896Y-48593334D01*
X151725147Y-48306666D01*
X151596015Y-47994143D01*
X151357115Y-47754826D01*
X151044817Y-47625148D01*
X150706666Y-47624853D01*
X150394143Y-47753985D01*
X150154826Y-47992885D01*
X150025148Y-48305183D01*
X150024853Y-48643334D01*
X150153985Y-48955857D01*
X150175000Y-48976909D01*
X150175000Y-50172920D01*
X150054826Y-50292885D01*
X149925148Y-50605183D01*
X149924853Y-50943334D01*
X144975000Y-50943334D01*
X144975000Y-45991000D01*
X165800000Y-45991000D01*
X165800000Y-52597391D01*
X165800000Y-52597391D01*
G37*
X165800000Y-52597391D02*
X165536626Y-52333557D01*
X165109990Y-52156402D01*
X164648036Y-52155999D01*
X164221092Y-52332409D01*
X163894157Y-52658774D01*
X163717002Y-53085410D01*
X163716599Y-53547364D01*
X163893009Y-53974308D01*
X164219374Y-54301243D01*
X164257851Y-54317220D01*
X164221092Y-54332409D01*
X163894157Y-54658774D01*
X163717002Y-55085410D01*
X163716599Y-55547364D01*
X163893009Y-55974308D01*
X164219374Y-56301243D01*
X164257851Y-56317220D01*
X164221092Y-56332409D01*
X163894157Y-56658774D01*
X163717002Y-57085410D01*
X163716599Y-57547364D01*
X163893009Y-57974308D01*
X164219374Y-58301243D01*
X164386681Y-58370715D01*
X164283153Y-58413598D01*
X164211034Y-58579724D01*
X164878000Y-59246689D01*
X165544966Y-58579724D01*
X165472847Y-58413598D01*
X165368409Y-58371187D01*
X165534908Y-58302391D01*
X165716971Y-58120645D01*
X165716599Y-58547364D01*
X165800000Y-58749209D01*
X165800000Y-58766487D01*
X165781802Y-58722553D01*
X165615676Y-58650434D01*
X164948711Y-59317400D01*
X165615676Y-59984366D01*
X165781802Y-59912247D01*
X165800000Y-59867434D01*
X165800000Y-60425000D01*
X157112132Y-60425000D01*
X156742208Y-60055076D01*
X164211034Y-60055076D01*
X164283153Y-60221202D01*
X164674303Y-60380042D01*
X165096464Y-60377105D01*
X165472847Y-60221202D01*
X165544966Y-60055076D01*
X164878000Y-59388111D01*
X164211034Y-60055076D01*
X156742208Y-60055076D01*
X155800835Y-59113703D01*
X163815358Y-59113703D01*
X163818295Y-59535864D01*
X163974198Y-59912247D01*
X164140324Y-59984366D01*
X164807289Y-59317400D01*
X164140324Y-58650434D01*
X163974198Y-58722553D01*
X163815358Y-59113703D01*
X155800835Y-59113703D01*
X154813632Y-58126500D01*
X158284000Y-58126500D01*
X158284000Y-58712620D01*
X158337285Y-58841259D01*
X158435741Y-58939716D01*
X158564381Y-58993000D01*
X159150500Y-58993000D01*
X159238000Y-58905500D01*
X159238000Y-58039000D01*
X159338000Y-58039000D01*
X159338000Y-58905500D01*
X159425500Y-58993000D01*
X160011619Y-58993000D01*
X160140259Y-58939716D01*
X160238715Y-58841259D01*
X160292000Y-58712620D01*
X160292000Y-58126500D01*
X160204500Y-58039000D01*
X159338000Y-58039000D01*
X159238000Y-58039000D01*
X158371500Y-58039000D01*
X158284000Y-58126500D01*
X154813632Y-58126500D01*
X154756066Y-58068934D01*
X154707403Y-58036418D01*
X154650000Y-58025000D01*
X149837132Y-58025000D01*
X145780466Y-53968334D01*
X149674853Y-53968334D01*
X149803985Y-54280857D01*
X150042885Y-54520174D01*
X150355183Y-54649852D01*
X150693334Y-54650147D01*
X151005857Y-54521015D01*
X151026909Y-54500000D01*
X151160050Y-54500000D01*
X151524878Y-54864827D01*
X151524853Y-54893334D01*
X151653985Y-55205857D01*
X151675000Y-55226909D01*
X151675000Y-55300000D01*
X151728284Y-55567879D01*
X151880025Y-55794975D01*
X152674878Y-56589827D01*
X152674853Y-56618334D01*
X152803985Y-56930857D01*
X153042885Y-57170174D01*
X153355183Y-57299852D01*
X153693334Y-57300147D01*
X154005857Y-57171015D01*
X154026909Y-57150000D01*
X154760050Y-57150000D01*
X155024878Y-57414828D01*
X155024853Y-57443334D01*
X155153985Y-57755857D01*
X155392885Y-57995174D01*
X155705183Y-58124852D01*
X156043334Y-58125147D01*
X156355857Y-57996015D01*
X156595174Y-57757115D01*
X156724852Y-57444817D01*
X156725008Y-57265380D01*
X158284000Y-57265380D01*
X158284000Y-57851500D01*
X158371500Y-57939000D01*
X159238000Y-57939000D01*
X159238000Y-57072500D01*
X159338000Y-57072500D01*
X159338000Y-57939000D01*
X160204500Y-57939000D01*
X160292000Y-57851500D01*
X160292000Y-57265380D01*
X160238715Y-57136741D01*
X160140259Y-57038284D01*
X160011619Y-56985000D01*
X159425500Y-56985000D01*
X159338000Y-57072500D01*
X159238000Y-57072500D01*
X159150500Y-56985000D01*
X158564381Y-56985000D01*
X158435741Y-57038284D01*
X158337285Y-57136741D01*
X158284000Y-57265380D01*
X156725008Y-57265380D01*
X156725147Y-57106666D01*
X156596015Y-56794143D01*
X156357115Y-56554826D01*
X156044817Y-56425148D01*
X156015072Y-56425122D01*
X155544975Y-55955025D01*
X155317879Y-55803284D01*
X155050000Y-55750000D01*
X154027254Y-55750000D01*
X154007115Y-55729826D01*
X153694817Y-55600148D01*
X153665071Y-55600122D01*
X153147075Y-55082125D01*
X153224852Y-54894817D01*
X153225147Y-54556666D01*
X153096015Y-54244143D01*
X152857115Y-54004826D01*
X152544817Y-53875148D01*
X152515071Y-53875122D01*
X151944975Y-53305025D01*
X151717879Y-53153284D01*
X151450000Y-53100000D01*
X151027254Y-53100000D01*
X151007115Y-53079826D01*
X150694817Y-52950148D01*
X150356666Y-52949853D01*
X150044143Y-53078985D01*
X149804826Y-53317885D01*
X149675148Y-53630183D01*
X149674853Y-53968334D01*
X145780466Y-53968334D01*
X145077237Y-53265105D01*
X145199852Y-52969817D01*
X145200147Y-52631666D01*
X145071015Y-52319143D01*
X144975000Y-52222960D01*
X144975000Y-50943334D01*
X149924853Y-50943334D01*
X150053985Y-51255857D01*
X150292885Y-51495174D01*
X150605183Y-51624852D01*
X150943334Y-51625147D01*
X151255857Y-51496015D01*
X151495174Y-51257115D01*
X151624852Y-50944817D01*
X151625147Y-50606666D01*
X151575000Y-50485301D01*
X151575000Y-48977254D01*
X151595174Y-48957115D01*
X151724852Y-48644817D01*
X151724896Y-48593334D01*
X161424853Y-48593334D01*
X161553985Y-48905857D01*
X161792885Y-49145174D01*
X162105183Y-49274852D01*
X162134928Y-49274878D01*
X163055025Y-50194975D01*
X163282122Y-50346716D01*
X163484800Y-50387031D01*
X163517885Y-50420174D01*
X163830183Y-50549852D01*
X164168334Y-50550147D01*
X164480857Y-50421015D01*
X164720174Y-50182115D01*
X164849852Y-49869817D01*
X164850147Y-49531666D01*
X164721015Y-49219143D01*
X164482115Y-48979826D01*
X164169817Y-48850148D01*
X163831666Y-48849853D01*
X163731281Y-48891331D01*
X163125122Y-48285172D01*
X163125147Y-48256666D01*
X162996015Y-47944143D01*
X162757115Y-47704826D01*
X162444817Y-47575148D01*
X162106666Y-47574853D01*
X161794143Y-47703985D01*
X161554826Y-47942885D01*
X161425148Y-48255183D01*
X161424853Y-48593334D01*
X151724896Y-48593334D01*
X151725147Y-48306666D01*
X151596015Y-47994143D01*
X151357115Y-47754826D01*
X151044817Y-47625148D01*
X150706666Y-47624853D01*
X150394143Y-47753985D01*
X150154826Y-47992885D01*
X150025148Y-48305183D01*
X150024853Y-48643334D01*
X150153985Y-48955857D01*
X150175000Y-48976909D01*
X150175000Y-50172920D01*
X150054826Y-50292885D01*
X149925148Y-50605183D01*
X149924853Y-50943334D01*
X144975000Y-50943334D01*
X144975000Y-45991000D01*
X165800000Y-45991000D01*
X165800000Y-52597391D01*
G36*
X192293000Y-77741000D02*
X157000000Y-77741000D01*
X157000000Y-75662000D01*
X160113000Y-75662000D01*
X160333043Y-75618231D01*
X160509187Y-75500535D01*
X160629957Y-75581231D01*
X160850000Y-75625000D01*
X160866048Y-75625000D01*
X160876109Y-75675581D01*
X160975568Y-75824432D01*
X161124419Y-75923891D01*
X161300000Y-75958816D01*
X161800000Y-75958816D01*
X161975581Y-75923891D01*
X162124432Y-75824432D01*
X162223891Y-75675581D01*
X162258816Y-75500000D01*
X162258816Y-75187500D01*
X162450000Y-75187500D01*
X162450000Y-75569620D01*
X162503285Y-75698259D01*
X162601741Y-75796716D01*
X162730381Y-75850000D01*
X162912500Y-75850000D01*
X163000000Y-75762500D01*
X163000000Y-75100000D01*
X163100000Y-75100000D01*
X163100000Y-75762500D01*
X163187500Y-75850000D01*
X163369619Y-75850000D01*
X163498259Y-75796716D01*
X163596715Y-75698259D01*
X163650000Y-75569620D01*
X163650000Y-75187500D01*
X163562500Y-75100000D01*
X163100000Y-75100000D01*
X163000000Y-75100000D01*
X162537500Y-75100000D01*
X162450000Y-75187500D01*
X162258816Y-75187500D01*
X162258816Y-74675000D01*
X162450000Y-74675000D01*
X162450000Y-74912500D01*
X162537500Y-75000000D01*
X163000000Y-75000000D01*
X163000000Y-74980000D01*
X163100000Y-74980000D01*
X163100000Y-75000000D01*
X163562500Y-75000000D01*
X163650000Y-74912500D01*
X163650000Y-74675000D01*
X164500000Y-74675000D01*
X164720043Y-74631231D01*
X164906586Y-74506586D01*
X165506586Y-73906586D01*
X165631231Y-73720043D01*
X165638951Y-73681231D01*
X165675000Y-73500000D01*
X165675000Y-72700000D01*
X165631231Y-72479957D01*
X165594510Y-72425000D01*
X165517415Y-72309619D01*
X165534908Y-72302391D01*
X165716971Y-72120645D01*
X165716599Y-72547364D01*
X165893009Y-72974308D01*
X166219374Y-73301243D01*
X166646010Y-73478398D01*
X167107964Y-73478801D01*
X167534908Y-73302391D01*
X167762262Y-73075434D01*
X168277406Y-73590579D01*
X168119826Y-73747885D01*
X167990148Y-74060183D01*
X167989853Y-74398334D01*
X168118985Y-74710857D01*
X168357885Y-74950174D01*
X168670183Y-75079852D01*
X168876860Y-75080032D01*
X169603414Y-75806586D01*
X169789957Y-75931231D01*
X170010000Y-75975000D01*
X171750000Y-75975000D01*
X171970043Y-75931231D01*
X172156586Y-75806586D01*
X174006586Y-73956586D01*
X174131231Y-73770043D01*
X174135638Y-73747885D01*
X174175000Y-73550000D01*
X174175000Y-72900000D01*
X174131231Y-72679957D01*
X174006586Y-72493414D01*
X173950672Y-72437500D01*
X175350000Y-72437500D01*
X175350000Y-72819620D01*
X175403285Y-72948259D01*
X175501741Y-73046716D01*
X175630381Y-73100000D01*
X175812500Y-73100000D01*
X175900000Y-73012500D01*
X175900000Y-72350000D01*
X176000000Y-72350000D01*
X176000000Y-73012500D01*
X176087500Y-73100000D01*
X176269619Y-73100000D01*
X176398259Y-73046716D01*
X176496715Y-72948259D01*
X176550000Y-72819620D01*
X176550000Y-72437500D01*
X176462500Y-72350000D01*
X176000000Y-72350000D01*
X175900000Y-72350000D01*
X175437500Y-72350000D01*
X175350000Y-72437500D01*
X173950672Y-72437500D01*
X173293552Y-71780380D01*
X175350000Y-71780380D01*
X175350000Y-72162500D01*
X175437500Y-72250000D01*
X175900000Y-72250000D01*
X175900000Y-71587500D01*
X176000000Y-71587500D01*
X176000000Y-72250000D01*
X176462500Y-72250000D01*
X176550000Y-72162500D01*
X176550000Y-71780380D01*
X176496715Y-71651741D01*
X176398259Y-71553284D01*
X176269619Y-71500000D01*
X176087500Y-71500000D01*
X176000000Y-71587500D01*
X175900000Y-71587500D01*
X175812500Y-71500000D01*
X175630381Y-71500000D01*
X175501741Y-71553284D01*
X175403285Y-71651741D01*
X175350000Y-71780380D01*
X173293552Y-71780380D01*
X173075000Y-71561828D01*
X173075000Y-70700080D01*
X173149852Y-70519817D01*
X173150147Y-70181666D01*
X173049260Y-69937500D01*
X175350000Y-69937500D01*
X175350000Y-70319620D01*
X175403285Y-70448259D01*
X175501741Y-70546716D01*
X175630381Y-70600000D01*
X175812500Y-70600000D01*
X175900000Y-70512500D01*
X175900000Y-69850000D01*
X176000000Y-69850000D01*
X176000000Y-70512500D01*
X176087500Y-70600000D01*
X176269619Y-70600000D01*
X176398259Y-70546716D01*
X176496715Y-70448259D01*
X176550000Y-70319620D01*
X176550000Y-69937500D01*
X176462500Y-69850000D01*
X176000000Y-69850000D01*
X175900000Y-69850000D01*
X175437500Y-69850000D01*
X175350000Y-69937500D01*
X173049260Y-69937500D01*
X173021015Y-69869143D01*
X172782115Y-69629826D01*
X172539059Y-69528900D01*
X172539276Y-69280380D01*
X175350000Y-69280380D01*
X175350000Y-69662500D01*
X175437500Y-69750000D01*
X175900000Y-69750000D01*
X175900000Y-69087500D01*
X176000000Y-69087500D01*
X176000000Y-69750000D01*
X176462500Y-69750000D01*
X176550000Y-69662500D01*
X176550000Y-69280380D01*
X176496715Y-69151741D01*
X176398259Y-69053284D01*
X176269619Y-69000000D01*
X176087500Y-69000000D01*
X176000000Y-69087500D01*
X175900000Y-69087500D01*
X175812500Y-69000000D01*
X175630381Y-69000000D01*
X175501741Y-69053284D01*
X175403285Y-69151741D01*
X175350000Y-69280380D01*
X172539276Y-69280380D01*
X172539401Y-69137436D01*
X172362991Y-68710492D01*
X172036626Y-68383557D01*
X171998149Y-68367580D01*
X172034908Y-68352391D01*
X172361843Y-68026026D01*
X172538998Y-67599390D01*
X172539139Y-67437500D01*
X175350000Y-67437500D01*
X175350000Y-67819620D01*
X175403285Y-67948259D01*
X175501741Y-68046716D01*
X175630381Y-68100000D01*
X175812500Y-68100000D01*
X175900000Y-68012500D01*
X175900000Y-67350000D01*
X175437500Y-67350000D01*
X175350000Y-67437500D01*
X172539139Y-67437500D01*
X172539401Y-67137436D01*
X172391869Y-66780380D01*
X175350000Y-66780380D01*
X175350000Y-67162500D01*
X175437500Y-67250000D01*
X175900000Y-67250000D01*
X175900000Y-66587500D01*
X175812500Y-66500000D01*
X175630381Y-66500000D01*
X175501741Y-66553284D01*
X175403285Y-66651741D01*
X175350000Y-66780380D01*
X172391869Y-66780380D01*
X172362991Y-66710492D01*
X172036626Y-66383557D01*
X171998149Y-66367580D01*
X172034908Y-66352391D01*
X172062347Y-66325000D01*
X176225000Y-66325000D01*
X176225000Y-66500000D01*
X176087500Y-66500000D01*
X176000000Y-66587500D01*
X176000000Y-67250000D01*
X176020000Y-67250000D01*
X176020000Y-67350000D01*
X176000000Y-67350000D01*
X176000000Y-68012500D01*
X176087500Y-68100000D01*
X176234946Y-68100000D01*
X176264782Y-68250000D01*
X176268769Y-68270043D01*
X176393414Y-68456586D01*
X176443414Y-68506587D01*
X176597030Y-68609230D01*
X176629957Y-68631231D01*
X176850000Y-68675000D01*
X177722964Y-68675000D01*
X177867885Y-68820174D01*
X178180183Y-68949852D01*
X178518334Y-68950147D01*
X178606659Y-68913652D01*
X178518830Y-69001328D01*
X178427863Y-69220400D01*
X178133037Y-69220400D01*
X178123891Y-69174419D01*
X178024432Y-69025568D01*
X177875581Y-68926109D01*
X177700000Y-68891184D01*
X177200000Y-68891184D01*
X177024419Y-68926109D01*
X176875568Y-69025568D01*
X176776109Y-69174419D01*
X176741184Y-69350000D01*
X176741184Y-70250000D01*
X176776109Y-70425581D01*
X176875568Y-70574432D01*
X177024419Y-70673891D01*
X177200000Y-70708816D01*
X177700000Y-70708816D01*
X177875581Y-70673891D01*
X178024432Y-70574432D01*
X178123891Y-70425581D01*
X178134867Y-70370400D01*
X178427782Y-70370400D01*
X178517445Y-70587400D01*
X178910928Y-70981570D01*
X179064388Y-71045293D01*
X178913000Y-71107845D01*
X178518830Y-71501328D01*
X178427863Y-71720400D01*
X178133037Y-71720400D01*
X178123891Y-71674419D01*
X178024432Y-71525568D01*
X177875581Y-71426109D01*
X177700000Y-71391184D01*
X177200000Y-71391184D01*
X177024419Y-71426109D01*
X176875568Y-71525568D01*
X176776109Y-71674419D01*
X176741184Y-71850000D01*
X176741184Y-72750000D01*
X176776109Y-72925581D01*
X176875568Y-73074432D01*
X177024419Y-73173891D01*
X177200000Y-73208816D01*
X177700000Y-73208816D01*
X177875581Y-73173891D01*
X178024432Y-73074432D01*
X178123891Y-72925581D01*
X178134867Y-72870400D01*
X178427782Y-72870400D01*
X178517445Y-73087400D01*
X178910928Y-73481570D01*
X179425301Y-73695157D01*
X179982256Y-73695643D01*
X180497000Y-73482955D01*
X180891170Y-73089472D01*
X180954893Y-72936012D01*
X181017445Y-73087400D01*
X181410928Y-73481570D01*
X181925301Y-73695157D01*
X182482256Y-73695643D01*
X182997000Y-73482955D01*
X183391170Y-73089472D01*
X183480227Y-72875000D01*
X183766048Y-72875000D01*
X183776109Y-72925581D01*
X183875568Y-73074432D01*
X184024419Y-73173891D01*
X184200000Y-73208816D01*
X184700000Y-73208816D01*
X184875581Y-73173891D01*
X185024432Y-73074432D01*
X185123891Y-72925581D01*
X185158816Y-72750000D01*
X185158816Y-72437500D01*
X185350000Y-72437500D01*
X185350000Y-72819620D01*
X185403285Y-72948259D01*
X185501741Y-73046716D01*
X185630381Y-73100000D01*
X185812500Y-73100000D01*
X185900000Y-73012500D01*
X185900000Y-72350000D01*
X186000000Y-72350000D01*
X186000000Y-73012500D01*
X186087500Y-73100000D01*
X186269619Y-73100000D01*
X186398259Y-73046716D01*
X186496715Y-72948259D01*
X186550000Y-72819620D01*
X186550000Y-72542950D01*
X188134783Y-72542950D01*
X188324684Y-73002543D01*
X188676007Y-73354481D01*
X189135269Y-73545183D01*
X189632550Y-73545617D01*
X190092143Y-73355716D01*
X190444081Y-73004393D01*
X190634783Y-72545131D01*
X190635217Y-72047850D01*
X190445316Y-71588257D01*
X190093993Y-71236319D01*
X189634731Y-71045617D01*
X189137450Y-71045183D01*
X188677857Y-71235084D01*
X188325919Y-71586407D01*
X188135217Y-72045669D01*
X188134783Y-72542950D01*
X186550000Y-72542950D01*
X186550000Y-72437500D01*
X186462500Y-72350000D01*
X186000000Y-72350000D01*
X185900000Y-72350000D01*
X185437500Y-72350000D01*
X185350000Y-72437500D01*
X185158816Y-72437500D01*
X185158816Y-71850000D01*
X185144968Y-71780380D01*
X185350000Y-71780380D01*
X185350000Y-72162500D01*
X185437500Y-72250000D01*
X185900000Y-72250000D01*
X185900000Y-71587500D01*
X186000000Y-71587500D01*
X186000000Y-72250000D01*
X186462500Y-72250000D01*
X186550000Y-72162500D01*
X186550000Y-71780380D01*
X186496715Y-71651741D01*
X186398259Y-71553284D01*
X186269619Y-71500000D01*
X186087500Y-71500000D01*
X186000000Y-71587500D01*
X185900000Y-71587500D01*
X185812500Y-71500000D01*
X185630381Y-71500000D01*
X185501741Y-71553284D01*
X185403285Y-71651741D01*
X185350000Y-71780380D01*
X185144968Y-71780380D01*
X185123891Y-71674419D01*
X185024432Y-71525568D01*
X184875581Y-71426109D01*
X184700000Y-71391184D01*
X184200000Y-71391184D01*
X184024419Y-71426109D01*
X183875568Y-71525568D01*
X183776109Y-71674419D01*
X183766048Y-71725000D01*
X183484118Y-71725000D01*
X183392555Y-71503400D01*
X182999072Y-71109230D01*
X182845612Y-71045507D01*
X182997000Y-70982955D01*
X183391170Y-70589472D01*
X183480227Y-70375000D01*
X183766048Y-70375000D01*
X183776109Y-70425581D01*
X183875568Y-70574432D01*
X184024419Y-70673891D01*
X184200000Y-70708816D01*
X184700000Y-70708816D01*
X184875581Y-70673891D01*
X185024432Y-70574432D01*
X185123891Y-70425581D01*
X185158816Y-70250000D01*
X185158816Y-69937500D01*
X185350000Y-69937500D01*
X185350000Y-70319620D01*
X185403285Y-70448259D01*
X185501741Y-70546716D01*
X185630381Y-70600000D01*
X185812500Y-70600000D01*
X185900000Y-70512500D01*
X185900000Y-69850000D01*
X186000000Y-69850000D01*
X186000000Y-70512500D01*
X186087500Y-70600000D01*
X186269619Y-70600000D01*
X186398259Y-70546716D01*
X186496715Y-70448259D01*
X186550000Y-70319620D01*
X186550000Y-69937500D01*
X186462500Y-69850000D01*
X186000000Y-69850000D01*
X185900000Y-69850000D01*
X185437500Y-69850000D01*
X185350000Y-69937500D01*
X185158816Y-69937500D01*
X185158816Y-69350000D01*
X185144968Y-69280380D01*
X185350000Y-69280380D01*
X185350000Y-69662500D01*
X185437500Y-69750000D01*
X185900000Y-69750000D01*
X185900000Y-69087500D01*
X186000000Y-69087500D01*
X186000000Y-69750000D01*
X186462500Y-69750000D01*
X186550000Y-69662500D01*
X186550000Y-69280380D01*
X186496715Y-69151741D01*
X186398259Y-69053284D01*
X186269619Y-69000000D01*
X186087500Y-69000000D01*
X186000000Y-69087500D01*
X185900000Y-69087500D01*
X185812500Y-69000000D01*
X185630381Y-69000000D01*
X185501741Y-69053284D01*
X185403285Y-69151741D01*
X185350000Y-69280380D01*
X185144968Y-69280380D01*
X185123891Y-69174419D01*
X185024432Y-69025568D01*
X184875581Y-68926109D01*
X184700000Y-68891184D01*
X184200000Y-68891184D01*
X184024419Y-68926109D01*
X183875568Y-69025568D01*
X183776109Y-69174419D01*
X183766048Y-69225000D01*
X183484118Y-69225000D01*
X183392555Y-69003400D01*
X182999072Y-68609230D01*
X182845612Y-68545507D01*
X182997000Y-68482955D01*
X183391170Y-68089472D01*
X183480227Y-67875000D01*
X183766048Y-67875000D01*
X183776109Y-67925581D01*
X183875568Y-68074432D01*
X184024419Y-68173891D01*
X184200000Y-68208816D01*
X184700000Y-68208816D01*
X184875581Y-68173891D01*
X185024432Y-68074432D01*
X185123891Y-67925581D01*
X185158816Y-67750000D01*
X185158816Y-67437500D01*
X185350000Y-67437500D01*
X185350000Y-67819620D01*
X185403285Y-67948259D01*
X185501741Y-68046716D01*
X185630381Y-68100000D01*
X185812500Y-68100000D01*
X185900000Y-68012500D01*
X185900000Y-67350000D01*
X186000000Y-67350000D01*
X186000000Y-68012500D01*
X186087500Y-68100000D01*
X186269619Y-68100000D01*
X186398259Y-68046716D01*
X186496715Y-67948259D01*
X186550000Y-67819620D01*
X186550000Y-67437500D01*
X186462500Y-67350000D01*
X186000000Y-67350000D01*
X185900000Y-67350000D01*
X185437500Y-67350000D01*
X185350000Y-67437500D01*
X185158816Y-67437500D01*
X185158816Y-66850000D01*
X185144968Y-66780380D01*
X185350000Y-66780380D01*
X185350000Y-67162500D01*
X185437500Y-67250000D01*
X185900000Y-67250000D01*
X185900000Y-66587500D01*
X186000000Y-66587500D01*
X186000000Y-67250000D01*
X186462500Y-67250000D01*
X186550000Y-67162500D01*
X186550000Y-66780380D01*
X186496715Y-66651741D01*
X186398259Y-66553284D01*
X186269619Y-66500000D01*
X186087500Y-66500000D01*
X186000000Y-66587500D01*
X185900000Y-66587500D01*
X185812500Y-66500000D01*
X185630381Y-66500000D01*
X185501741Y-66553284D01*
X185403285Y-66651741D01*
X185350000Y-66780380D01*
X185144968Y-66780380D01*
X185123891Y-66674419D01*
X185024432Y-66525568D01*
X184875581Y-66426109D01*
X184700000Y-66391184D01*
X184200000Y-66391184D01*
X184024419Y-66426109D01*
X183875568Y-66525568D01*
X183776109Y-66674419D01*
X183766048Y-66725000D01*
X183484118Y-66725000D01*
X183392555Y-66503400D01*
X182999072Y-66109230D01*
X182845612Y-66045507D01*
X182997000Y-65982955D01*
X183391170Y-65589472D01*
X183482137Y-65370400D01*
X183765133Y-65370400D01*
X183776109Y-65425581D01*
X183875568Y-65574432D01*
X184024419Y-65673891D01*
X184200000Y-65708816D01*
X184700000Y-65708816D01*
X184875581Y-65673891D01*
X185024432Y-65574432D01*
X185123891Y-65425581D01*
X185158816Y-65250000D01*
X185158816Y-64937500D01*
X185350000Y-64937500D01*
X185350000Y-65319620D01*
X185403285Y-65448259D01*
X185501741Y-65546716D01*
X185630381Y-65600000D01*
X185812500Y-65600000D01*
X185900000Y-65512500D01*
X185900000Y-64850000D01*
X186000000Y-64850000D01*
X186000000Y-65512500D01*
X186087500Y-65600000D01*
X186269619Y-65600000D01*
X186398259Y-65546716D01*
X186496715Y-65448259D01*
X186550000Y-65319620D01*
X186550000Y-65042950D01*
X188134783Y-65042950D01*
X188324684Y-65502543D01*
X188676007Y-65854481D01*
X189135269Y-66045183D01*
X189632550Y-66045617D01*
X190092143Y-65855716D01*
X190444081Y-65504393D01*
X190634783Y-65045131D01*
X190635217Y-64547850D01*
X190445316Y-64088257D01*
X190093993Y-63736319D01*
X189634731Y-63545617D01*
X189137450Y-63545183D01*
X188677857Y-63735084D01*
X188325919Y-64086407D01*
X188135217Y-64545669D01*
X188134783Y-65042950D01*
X186550000Y-65042950D01*
X186550000Y-64937500D01*
X186462500Y-64850000D01*
X186000000Y-64850000D01*
X185900000Y-64850000D01*
X185437500Y-64850000D01*
X185350000Y-64937500D01*
X185158816Y-64937500D01*
X185158816Y-64350000D01*
X185144968Y-64280380D01*
X185350000Y-64280380D01*
X185350000Y-64662500D01*
X185437500Y-64750000D01*
X185900000Y-64750000D01*
X185900000Y-64087500D01*
X186000000Y-64087500D01*
X186000000Y-64750000D01*
X186462500Y-64750000D01*
X186550000Y-64662500D01*
X186550000Y-64280380D01*
X186496715Y-64151741D01*
X186398259Y-64053284D01*
X186269619Y-64000000D01*
X186087500Y-64000000D01*
X186000000Y-64087500D01*
X185900000Y-64087500D01*
X185812500Y-64000000D01*
X185630381Y-64000000D01*
X185501741Y-64053284D01*
X185403285Y-64151741D01*
X185350000Y-64280380D01*
X185144968Y-64280380D01*
X185123891Y-64174419D01*
X185024432Y-64025568D01*
X184875581Y-63926109D01*
X184700000Y-63891184D01*
X184200000Y-63891184D01*
X184024419Y-63926109D01*
X183875568Y-64025568D01*
X183776109Y-64174419D01*
X183766963Y-64220400D01*
X183482218Y-64220400D01*
X183392555Y-64003400D01*
X182999072Y-63609230D01*
X182484699Y-63395643D01*
X181927744Y-63395157D01*
X181413000Y-63607845D01*
X181113816Y-63906508D01*
X181113816Y-63845400D01*
X181078891Y-63669819D01*
X180979432Y-63520968D01*
X180830581Y-63421509D01*
X180655000Y-63386584D01*
X178828221Y-63386584D01*
X178821015Y-63369143D01*
X178582115Y-63129826D01*
X178269817Y-63000148D01*
X178063140Y-62999968D01*
X178056586Y-62993414D01*
X177870043Y-62868769D01*
X177650000Y-62825000D01*
X173188172Y-62825000D01*
X172256586Y-61893414D01*
X172070043Y-61768769D01*
X171850000Y-61725000D01*
X170900000Y-61725000D01*
X170679957Y-61768769D01*
X170493414Y-61893414D01*
X170454608Y-61932220D01*
X170362991Y-61710492D01*
X170036626Y-61383557D01*
X169673520Y-61232782D01*
X169752718Y-61042051D01*
X169752784Y-60965956D01*
X170243414Y-61456586D01*
X170429957Y-61581231D01*
X170650000Y-61625000D01*
X172899934Y-61625000D01*
X172899853Y-61718334D01*
X173028985Y-62030857D01*
X173267885Y-62270174D01*
X173580183Y-62399852D01*
X173918334Y-62400147D01*
X174230857Y-62271015D01*
X174470174Y-62032115D01*
X174599852Y-61719817D01*
X174599913Y-61650044D01*
X174718334Y-61650147D01*
X175030857Y-61521015D01*
X175270174Y-61282115D01*
X175399852Y-60969817D01*
X175400147Y-60631666D01*
X175397393Y-60625000D01*
X183950000Y-60625000D01*
X184170043Y-60581231D01*
X184356586Y-60456586D01*
X185456586Y-59356586D01*
X185581231Y-59170043D01*
X185588120Y-59135410D01*
X185616221Y-58994135D01*
X185630381Y-59000000D01*
X185812500Y-59000000D01*
X185900000Y-58912500D01*
X185900000Y-58250000D01*
X186000000Y-58250000D01*
X186000000Y-58912500D01*
X186087500Y-59000000D01*
X186269619Y-59000000D01*
X186398259Y-58946716D01*
X186496715Y-58848259D01*
X186550000Y-58719620D01*
X186550000Y-58445950D01*
X188134783Y-58445950D01*
X188324684Y-58905543D01*
X188676007Y-59257481D01*
X189135269Y-59448183D01*
X189632550Y-59448617D01*
X190092143Y-59258716D01*
X190444081Y-58907393D01*
X190634783Y-58448131D01*
X190635217Y-57950850D01*
X190445316Y-57491257D01*
X190093993Y-57139319D01*
X189634731Y-56948617D01*
X189137450Y-56948183D01*
X188677857Y-57138084D01*
X188325919Y-57489407D01*
X188135217Y-57948669D01*
X188134783Y-58445950D01*
X186550000Y-58445950D01*
X186550000Y-58337500D01*
X186462500Y-58250000D01*
X186000000Y-58250000D01*
X185900000Y-58250000D01*
X185880000Y-58250000D01*
X185880000Y-58150000D01*
X185900000Y-58150000D01*
X185900000Y-57487500D01*
X186000000Y-57487500D01*
X186000000Y-58150000D01*
X186462500Y-58150000D01*
X186550000Y-58062500D01*
X186550000Y-57680380D01*
X186496715Y-57551741D01*
X186398259Y-57453284D01*
X186269619Y-57400000D01*
X186087500Y-57400000D01*
X186000000Y-57487500D01*
X185900000Y-57487500D01*
X185812500Y-57400000D01*
X185630381Y-57400000D01*
X185625000Y-57402229D01*
X185625000Y-56497771D01*
X185630381Y-56500000D01*
X185812500Y-56500000D01*
X185900000Y-56412500D01*
X185900000Y-55750000D01*
X186000000Y-55750000D01*
X186000000Y-56412500D01*
X186087500Y-56500000D01*
X186269619Y-56500000D01*
X186398259Y-56446716D01*
X186496715Y-56348259D01*
X186550000Y-56219620D01*
X186550000Y-55837500D01*
X186462500Y-55750000D01*
X186000000Y-55750000D01*
X185900000Y-55750000D01*
X185880000Y-55750000D01*
X185880000Y-55650000D01*
X185900000Y-55650000D01*
X185900000Y-54987500D01*
X186000000Y-54987500D01*
X186000000Y-55650000D01*
X186462500Y-55650000D01*
X186550000Y-55562500D01*
X186550000Y-55180380D01*
X186496715Y-55051741D01*
X186398259Y-54953284D01*
X186269619Y-54900000D01*
X186087500Y-54900000D01*
X186000000Y-54987500D01*
X185900000Y-54987500D01*
X185812500Y-54900000D01*
X185630381Y-54900000D01*
X185501741Y-54953284D01*
X185403285Y-55051741D01*
X185350000Y-55180380D01*
X185350000Y-55289013D01*
X185170043Y-55168769D01*
X185161999Y-55167169D01*
X185141530Y-55163097D01*
X185123891Y-55074419D01*
X185024432Y-54925568D01*
X184875581Y-54826109D01*
X184700000Y-54791184D01*
X184200000Y-54791184D01*
X184024419Y-54826109D01*
X183875568Y-54925568D01*
X183776109Y-55074419D01*
X183766366Y-55123400D01*
X183482218Y-55123400D01*
X183392555Y-54906400D01*
X182999072Y-54512230D01*
X182845612Y-54448507D01*
X182997000Y-54385955D01*
X183391170Y-53992472D01*
X183482137Y-53773400D01*
X183765730Y-53773400D01*
X183776109Y-53825581D01*
X183875568Y-53974432D01*
X184024419Y-54073891D01*
X184200000Y-54108816D01*
X184700000Y-54108816D01*
X184875581Y-54073891D01*
X185024432Y-53974432D01*
X185123891Y-53825581D01*
X185158816Y-53650000D01*
X185158816Y-53337500D01*
X185350000Y-53337500D01*
X185350000Y-53719620D01*
X185403285Y-53848259D01*
X185501741Y-53946716D01*
X185630381Y-54000000D01*
X185812500Y-54000000D01*
X185900000Y-53912500D01*
X185900000Y-53250000D01*
X186000000Y-53250000D01*
X186000000Y-53912500D01*
X186087500Y-54000000D01*
X186269619Y-54000000D01*
X186398259Y-53946716D01*
X186496715Y-53848259D01*
X186550000Y-53719620D01*
X186550000Y-53337500D01*
X186462500Y-53250000D01*
X186000000Y-53250000D01*
X185900000Y-53250000D01*
X185437500Y-53250000D01*
X185350000Y-53337500D01*
X185158816Y-53337500D01*
X185158816Y-52750000D01*
X185144968Y-52680380D01*
X185350000Y-52680380D01*
X185350000Y-53062500D01*
X185437500Y-53150000D01*
X185900000Y-53150000D01*
X185900000Y-52487500D01*
X186000000Y-52487500D01*
X186000000Y-53150000D01*
X186462500Y-53150000D01*
X186550000Y-53062500D01*
X186550000Y-52680380D01*
X186496715Y-52551741D01*
X186398259Y-52453284D01*
X186269619Y-52400000D01*
X186087500Y-52400000D01*
X186000000Y-52487500D01*
X185900000Y-52487500D01*
X185812500Y-52400000D01*
X185630381Y-52400000D01*
X185501741Y-52453284D01*
X185403285Y-52551741D01*
X185350000Y-52680380D01*
X185144968Y-52680380D01*
X185123891Y-52574419D01*
X185024432Y-52425568D01*
X184875581Y-52326109D01*
X184700000Y-52291184D01*
X184200000Y-52291184D01*
X184024419Y-52326109D01*
X183875568Y-52425568D01*
X183776109Y-52574419D01*
X183766366Y-52623400D01*
X183482218Y-52623400D01*
X183392555Y-52406400D01*
X182999072Y-52012230D01*
X182845612Y-51948507D01*
X182997000Y-51885955D01*
X183391170Y-51492472D01*
X183482137Y-51273400D01*
X183765730Y-51273400D01*
X183776109Y-51325581D01*
X183875568Y-51474432D01*
X184024419Y-51573891D01*
X184200000Y-51608816D01*
X184700000Y-51608816D01*
X184875581Y-51573891D01*
X185024432Y-51474432D01*
X185123891Y-51325581D01*
X185158816Y-51150000D01*
X185158816Y-50837500D01*
X185350000Y-50837500D01*
X185350000Y-51219620D01*
X185403285Y-51348259D01*
X185501741Y-51446716D01*
X185630381Y-51500000D01*
X185812500Y-51500000D01*
X185900000Y-51412500D01*
X185900000Y-50750000D01*
X186000000Y-50750000D01*
X186000000Y-51412500D01*
X186087500Y-51500000D01*
X186269619Y-51500000D01*
X186398259Y-51446716D01*
X186496715Y-51348259D01*
X186550000Y-51219620D01*
X186550000Y-50945950D01*
X188134783Y-50945950D01*
X188324684Y-51405543D01*
X188676007Y-51757481D01*
X189135269Y-51948183D01*
X189632550Y-51948617D01*
X190092143Y-51758716D01*
X190444081Y-51407393D01*
X190634783Y-50948131D01*
X190635217Y-50450850D01*
X190445316Y-49991257D01*
X190093993Y-49639319D01*
X189634731Y-49448617D01*
X189137450Y-49448183D01*
X188677857Y-49638084D01*
X188325919Y-49989407D01*
X188135217Y-50448669D01*
X188134783Y-50945950D01*
X186550000Y-50945950D01*
X186550000Y-50837500D01*
X186462500Y-50750000D01*
X186000000Y-50750000D01*
X185900000Y-50750000D01*
X185437500Y-50750000D01*
X185350000Y-50837500D01*
X185158816Y-50837500D01*
X185158816Y-50250000D01*
X185144968Y-50180380D01*
X185350000Y-50180380D01*
X185350000Y-50562500D01*
X185437500Y-50650000D01*
X185900000Y-50650000D01*
X185900000Y-49987500D01*
X186000000Y-49987500D01*
X186000000Y-50650000D01*
X186462500Y-50650000D01*
X186550000Y-50562500D01*
X186550000Y-50180380D01*
X186496715Y-50051741D01*
X186398259Y-49953284D01*
X186269619Y-49900000D01*
X186087500Y-49900000D01*
X186000000Y-49987500D01*
X185900000Y-49987500D01*
X185812500Y-49900000D01*
X185630381Y-49900000D01*
X185501741Y-49953284D01*
X185403285Y-50051741D01*
X185350000Y-50180380D01*
X185144968Y-50180380D01*
X185123891Y-50074419D01*
X185024432Y-49925568D01*
X184875581Y-49826109D01*
X184700000Y-49791184D01*
X184200000Y-49791184D01*
X184024419Y-49826109D01*
X183875568Y-49925568D01*
X183776109Y-50074419D01*
X183766366Y-50123400D01*
X183482218Y-50123400D01*
X183392555Y-49906400D01*
X182999072Y-49512230D01*
X182484699Y-49298643D01*
X181927744Y-49298157D01*
X181413000Y-49510845D01*
X181113816Y-49809508D01*
X181113816Y-49748400D01*
X181078891Y-49572819D01*
X180979432Y-49423968D01*
X180830581Y-49324509D01*
X180655000Y-49289584D01*
X178755000Y-49289584D01*
X178579419Y-49324509D01*
X178430568Y-49423968D01*
X178331109Y-49572819D01*
X178296184Y-49748400D01*
X178296184Y-50125000D01*
X178133952Y-50125000D01*
X178123891Y-50074419D01*
X178024432Y-49925568D01*
X177875581Y-49826109D01*
X177700000Y-49791184D01*
X177200000Y-49791184D01*
X177024419Y-49826109D01*
X176875568Y-49925568D01*
X176776109Y-50074419D01*
X176741184Y-50250000D01*
X176741184Y-51150000D01*
X176776109Y-51325581D01*
X176875568Y-51474432D01*
X177024419Y-51573891D01*
X177200000Y-51608816D01*
X177700000Y-51608816D01*
X177875581Y-51573891D01*
X178024432Y-51474432D01*
X178123891Y-51325581D01*
X178133952Y-51275000D01*
X178296184Y-51275000D01*
X178296184Y-51648400D01*
X178331109Y-51823981D01*
X178430568Y-51972832D01*
X178579419Y-52072291D01*
X178755000Y-52107216D01*
X178816461Y-52107216D01*
X178518830Y-52404328D01*
X178427199Y-52625000D01*
X178133952Y-52625000D01*
X178123891Y-52574419D01*
X178024432Y-52425568D01*
X177875581Y-52326109D01*
X177700000Y-52291184D01*
X177200000Y-52291184D01*
X177024419Y-52326109D01*
X176875568Y-52425568D01*
X176776109Y-52574419D01*
X176741184Y-52750000D01*
X176741184Y-53650000D01*
X176776109Y-53825581D01*
X176875568Y-53974432D01*
X177024419Y-54073891D01*
X177200000Y-54108816D01*
X177700000Y-54108816D01*
X177875581Y-54073891D01*
X178024432Y-53974432D01*
X178123891Y-53825581D01*
X178133952Y-53775000D01*
X178428443Y-53775000D01*
X178517445Y-53990400D01*
X178910928Y-54384570D01*
X179064388Y-54448293D01*
X178913000Y-54510845D01*
X178518830Y-54904328D01*
X178427199Y-55125000D01*
X178133952Y-55125000D01*
X178123891Y-55074419D01*
X178024432Y-54925568D01*
X177875581Y-54826109D01*
X177700000Y-54791184D01*
X177200000Y-54791184D01*
X177024419Y-54826109D01*
X176875568Y-54925568D01*
X176776109Y-55074419D01*
X176741184Y-55250000D01*
X176741184Y-56150000D01*
X176776109Y-56325581D01*
X176875568Y-56474432D01*
X177024419Y-56573891D01*
X177200000Y-56608816D01*
X177700000Y-56608816D01*
X177875581Y-56573891D01*
X178024432Y-56474432D01*
X178123891Y-56325581D01*
X178133952Y-56275000D01*
X178428443Y-56275000D01*
X178517445Y-56490400D01*
X178910928Y-56884570D01*
X179064388Y-56948293D01*
X178913000Y-57010845D01*
X178518830Y-57404328D01*
X178427199Y-57625000D01*
X178133952Y-57625000D01*
X178123891Y-57574419D01*
X178024432Y-57425568D01*
X177875581Y-57326109D01*
X177700000Y-57291184D01*
X177200000Y-57291184D01*
X177024419Y-57326109D01*
X176875568Y-57425568D01*
X176776109Y-57574419D01*
X176741184Y-57750000D01*
X176741184Y-58650000D01*
X176776109Y-58825581D01*
X176875568Y-58974432D01*
X176876418Y-58975000D01*
X176329975Y-58975000D01*
X176398259Y-58946716D01*
X176496715Y-58848259D01*
X176550000Y-58719620D01*
X176550000Y-58337500D01*
X176462500Y-58250000D01*
X176000000Y-58250000D01*
X176000000Y-58270000D01*
X175900000Y-58270000D01*
X175900000Y-58250000D01*
X175437500Y-58250000D01*
X175350000Y-58337500D01*
X175350000Y-58719620D01*
X175403285Y-58848259D01*
X175501741Y-58946716D01*
X175570025Y-58975000D01*
X173798773Y-58975000D01*
X172505011Y-57681239D01*
X172505367Y-57680380D01*
X175350000Y-57680380D01*
X175350000Y-58062500D01*
X175437500Y-58150000D01*
X175900000Y-58150000D01*
X175900000Y-57487500D01*
X176000000Y-57487500D01*
X176000000Y-58150000D01*
X176462500Y-58150000D01*
X176550000Y-58062500D01*
X176550000Y-57680380D01*
X176496715Y-57551741D01*
X176398259Y-57453284D01*
X176269619Y-57400000D01*
X176087500Y-57400000D01*
X176000000Y-57487500D01*
X175900000Y-57487500D01*
X175812500Y-57400000D01*
X175630381Y-57400000D01*
X175501741Y-57453284D01*
X175403285Y-57551741D01*
X175350000Y-57680380D01*
X172505367Y-57680380D01*
X172538998Y-57599390D01*
X172539401Y-57137436D01*
X172362991Y-56710492D01*
X172036626Y-56383557D01*
X171998149Y-56367580D01*
X172034908Y-56352391D01*
X172361843Y-56026026D01*
X172440125Y-55837500D01*
X175350000Y-55837500D01*
X175350000Y-56219620D01*
X175403285Y-56348259D01*
X175501741Y-56446716D01*
X175630381Y-56500000D01*
X175812500Y-56500000D01*
X175900000Y-56412500D01*
X175900000Y-55750000D01*
X176000000Y-55750000D01*
X176000000Y-56412500D01*
X176087500Y-56500000D01*
X176269619Y-56500000D01*
X176398259Y-56446716D01*
X176496715Y-56348259D01*
X176550000Y-56219620D01*
X176550000Y-55837500D01*
X176462500Y-55750000D01*
X176000000Y-55750000D01*
X175900000Y-55750000D01*
X175437500Y-55750000D01*
X175350000Y-55837500D01*
X172440125Y-55837500D01*
X172538998Y-55599390D01*
X172539363Y-55180380D01*
X175350000Y-55180380D01*
X175350000Y-55562500D01*
X175437500Y-55650000D01*
X175900000Y-55650000D01*
X175900000Y-54987500D01*
X176000000Y-54987500D01*
X176000000Y-55650000D01*
X176462500Y-55650000D01*
X176550000Y-55562500D01*
X176550000Y-55180380D01*
X176496715Y-55051741D01*
X176398259Y-54953284D01*
X176269619Y-54900000D01*
X176087500Y-54900000D01*
X176000000Y-54987500D01*
X175900000Y-54987500D01*
X175812500Y-54900000D01*
X175630381Y-54900000D01*
X175501741Y-54953284D01*
X175403285Y-55051741D01*
X175350000Y-55180380D01*
X172539363Y-55180380D01*
X172539401Y-55137436D01*
X172362991Y-54710492D01*
X172036626Y-54383557D01*
X171998149Y-54367580D01*
X172034908Y-54352391D01*
X172361843Y-54026026D01*
X172538998Y-53599390D01*
X172539226Y-53337500D01*
X175350000Y-53337500D01*
X175350000Y-53719620D01*
X175403285Y-53848259D01*
X175501741Y-53946716D01*
X175630381Y-54000000D01*
X175812500Y-54000000D01*
X175900000Y-53912500D01*
X175900000Y-53250000D01*
X176000000Y-53250000D01*
X176000000Y-53912500D01*
X176087500Y-54000000D01*
X176269619Y-54000000D01*
X176398259Y-53946716D01*
X176496715Y-53848259D01*
X176550000Y-53719620D01*
X176550000Y-53337500D01*
X176462500Y-53250000D01*
X176000000Y-53250000D01*
X175900000Y-53250000D01*
X175437500Y-53250000D01*
X175350000Y-53337500D01*
X172539226Y-53337500D01*
X172539401Y-53137436D01*
X172362991Y-52710492D01*
X172332932Y-52680380D01*
X175350000Y-52680380D01*
X175350000Y-53062500D01*
X175437500Y-53150000D01*
X175900000Y-53150000D01*
X175900000Y-52487500D01*
X176000000Y-52487500D01*
X176000000Y-53150000D01*
X176462500Y-53150000D01*
X176550000Y-53062500D01*
X176550000Y-52680380D01*
X176496715Y-52551741D01*
X176398259Y-52453284D01*
X176269619Y-52400000D01*
X176087500Y-52400000D01*
X176000000Y-52487500D01*
X175900000Y-52487500D01*
X175812500Y-52400000D01*
X175630381Y-52400000D01*
X175501741Y-52453284D01*
X175403285Y-52551741D01*
X175350000Y-52680380D01*
X172332932Y-52680380D01*
X172036626Y-52383557D01*
X171609990Y-52206402D01*
X171148036Y-52205999D01*
X170721092Y-52382409D01*
X170394157Y-52708774D01*
X170217002Y-53135410D01*
X170216628Y-53563874D01*
X170036626Y-53383557D01*
X169609990Y-53206402D01*
X169148036Y-53205999D01*
X168721092Y-53382409D01*
X168394157Y-53708774D01*
X168217002Y-54135410D01*
X168216599Y-54597364D01*
X168393009Y-55024308D01*
X168719374Y-55351243D01*
X168757851Y-55367220D01*
X168721092Y-55382409D01*
X168394157Y-55708774D01*
X168217002Y-56135410D01*
X168216599Y-56597364D01*
X168251177Y-56681050D01*
X167900000Y-57032228D01*
X167900000Y-56884134D01*
X168038998Y-56549390D01*
X168039401Y-56087436D01*
X167900000Y-55750060D01*
X167900000Y-54884134D01*
X168038998Y-54549390D01*
X168039401Y-54087436D01*
X167900000Y-53750060D01*
X167900000Y-53192202D01*
X168449814Y-53192682D01*
X169047286Y-52945812D01*
X169504805Y-52489091D01*
X169752718Y-51892051D01*
X169753282Y-51245586D01*
X169584665Y-50837500D01*
X175350000Y-50837500D01*
X175350000Y-51219620D01*
X175403285Y-51348259D01*
X175501741Y-51446716D01*
X175630381Y-51500000D01*
X175812500Y-51500000D01*
X175900000Y-51412500D01*
X175900000Y-50750000D01*
X176000000Y-50750000D01*
X176000000Y-51412500D01*
X176087500Y-51500000D01*
X176269619Y-51500000D01*
X176398259Y-51446716D01*
X176496715Y-51348259D01*
X176550000Y-51219620D01*
X176550000Y-50837500D01*
X176462500Y-50750000D01*
X176000000Y-50750000D01*
X175900000Y-50750000D01*
X175437500Y-50750000D01*
X175350000Y-50837500D01*
X169584665Y-50837500D01*
X169506412Y-50648114D01*
X169049691Y-50190595D01*
X169025091Y-50180380D01*
X175350000Y-50180380D01*
X175350000Y-50562500D01*
X175437500Y-50650000D01*
X175900000Y-50650000D01*
X175900000Y-49987500D01*
X176000000Y-49987500D01*
X176000000Y-50650000D01*
X176462500Y-50650000D01*
X176550000Y-50562500D01*
X176550000Y-50180380D01*
X176496715Y-50051741D01*
X176398259Y-49953284D01*
X176269619Y-49900000D01*
X176087500Y-49900000D01*
X176000000Y-49987500D01*
X175900000Y-49987500D01*
X175812500Y-49900000D01*
X175630381Y-49900000D01*
X175501741Y-49953284D01*
X175403285Y-50051741D01*
X175350000Y-50180380D01*
X169025091Y-50180380D01*
X168452651Y-49942682D01*
X167900000Y-49942200D01*
X167900000Y-45991000D01*
X192293000Y-45991000D01*
X192293000Y-77741000D01*
X192293000Y-77741000D01*
G37*
X192293000Y-77741000D02*
X157000000Y-77741000D01*
X157000000Y-75662000D01*
X160113000Y-75662000D01*
X160333043Y-75618231D01*
X160509187Y-75500535D01*
X160629957Y-75581231D01*
X160850000Y-75625000D01*
X160866048Y-75625000D01*
X160876109Y-75675581D01*
X160975568Y-75824432D01*
X161124419Y-75923891D01*
X161300000Y-75958816D01*
X161800000Y-75958816D01*
X161975581Y-75923891D01*
X162124432Y-75824432D01*
X162223891Y-75675581D01*
X162258816Y-75500000D01*
X162258816Y-75187500D01*
X162450000Y-75187500D01*
X162450000Y-75569620D01*
X162503285Y-75698259D01*
X162601741Y-75796716D01*
X162730381Y-75850000D01*
X162912500Y-75850000D01*
X163000000Y-75762500D01*
X163000000Y-75100000D01*
X163100000Y-75100000D01*
X163100000Y-75762500D01*
X163187500Y-75850000D01*
X163369619Y-75850000D01*
X163498259Y-75796716D01*
X163596715Y-75698259D01*
X163650000Y-75569620D01*
X163650000Y-75187500D01*
X163562500Y-75100000D01*
X163100000Y-75100000D01*
X163000000Y-75100000D01*
X162537500Y-75100000D01*
X162450000Y-75187500D01*
X162258816Y-75187500D01*
X162258816Y-74675000D01*
X162450000Y-74675000D01*
X162450000Y-74912500D01*
X162537500Y-75000000D01*
X163000000Y-75000000D01*
X163000000Y-74980000D01*
X163100000Y-74980000D01*
X163100000Y-75000000D01*
X163562500Y-75000000D01*
X163650000Y-74912500D01*
X163650000Y-74675000D01*
X164500000Y-74675000D01*
X164720043Y-74631231D01*
X164906586Y-74506586D01*
X165506586Y-73906586D01*
X165631231Y-73720043D01*
X165638951Y-73681231D01*
X165675000Y-73500000D01*
X165675000Y-72700000D01*
X165631231Y-72479957D01*
X165594510Y-72425000D01*
X165517415Y-72309619D01*
X165534908Y-72302391D01*
X165716971Y-72120645D01*
X165716599Y-72547364D01*
X165893009Y-72974308D01*
X166219374Y-73301243D01*
X166646010Y-73478398D01*
X167107964Y-73478801D01*
X167534908Y-73302391D01*
X167762262Y-73075434D01*
X168277406Y-73590579D01*
X168119826Y-73747885D01*
X167990148Y-74060183D01*
X167989853Y-74398334D01*
X168118985Y-74710857D01*
X168357885Y-74950174D01*
X168670183Y-75079852D01*
X168876860Y-75080032D01*
X169603414Y-75806586D01*
X169789957Y-75931231D01*
X170010000Y-75975000D01*
X171750000Y-75975000D01*
X171970043Y-75931231D01*
X172156586Y-75806586D01*
X174006586Y-73956586D01*
X174131231Y-73770043D01*
X174135638Y-73747885D01*
X174175000Y-73550000D01*
X174175000Y-72900000D01*
X174131231Y-72679957D01*
X174006586Y-72493414D01*
X173950672Y-72437500D01*
X175350000Y-72437500D01*
X175350000Y-72819620D01*
X175403285Y-72948259D01*
X175501741Y-73046716D01*
X175630381Y-73100000D01*
X175812500Y-73100000D01*
X175900000Y-73012500D01*
X175900000Y-72350000D01*
X176000000Y-72350000D01*
X176000000Y-73012500D01*
X176087500Y-73100000D01*
X176269619Y-73100000D01*
X176398259Y-73046716D01*
X176496715Y-72948259D01*
X176550000Y-72819620D01*
X176550000Y-72437500D01*
X176462500Y-72350000D01*
X176000000Y-72350000D01*
X175900000Y-72350000D01*
X175437500Y-72350000D01*
X175350000Y-72437500D01*
X173950672Y-72437500D01*
X173293552Y-71780380D01*
X175350000Y-71780380D01*
X175350000Y-72162500D01*
X175437500Y-72250000D01*
X175900000Y-72250000D01*
X175900000Y-71587500D01*
X176000000Y-71587500D01*
X176000000Y-72250000D01*
X176462500Y-72250000D01*
X176550000Y-72162500D01*
X176550000Y-71780380D01*
X176496715Y-71651741D01*
X176398259Y-71553284D01*
X176269619Y-71500000D01*
X176087500Y-71500000D01*
X176000000Y-71587500D01*
X175900000Y-71587500D01*
X175812500Y-71500000D01*
X175630381Y-71500000D01*
X175501741Y-71553284D01*
X175403285Y-71651741D01*
X175350000Y-71780380D01*
X173293552Y-71780380D01*
X173075000Y-71561828D01*
X173075000Y-70700080D01*
X173149852Y-70519817D01*
X173150147Y-70181666D01*
X173049260Y-69937500D01*
X175350000Y-69937500D01*
X175350000Y-70319620D01*
X175403285Y-70448259D01*
X175501741Y-70546716D01*
X175630381Y-70600000D01*
X175812500Y-70600000D01*
X175900000Y-70512500D01*
X175900000Y-69850000D01*
X176000000Y-69850000D01*
X176000000Y-70512500D01*
X176087500Y-70600000D01*
X176269619Y-70600000D01*
X176398259Y-70546716D01*
X176496715Y-70448259D01*
X176550000Y-70319620D01*
X176550000Y-69937500D01*
X176462500Y-69850000D01*
X176000000Y-69850000D01*
X175900000Y-69850000D01*
X175437500Y-69850000D01*
X175350000Y-69937500D01*
X173049260Y-69937500D01*
X173021015Y-69869143D01*
X172782115Y-69629826D01*
X172539059Y-69528900D01*
X172539276Y-69280380D01*
X175350000Y-69280380D01*
X175350000Y-69662500D01*
X175437500Y-69750000D01*
X175900000Y-69750000D01*
X175900000Y-69087500D01*
X176000000Y-69087500D01*
X176000000Y-69750000D01*
X176462500Y-69750000D01*
X176550000Y-69662500D01*
X176550000Y-69280380D01*
X176496715Y-69151741D01*
X176398259Y-69053284D01*
X176269619Y-69000000D01*
X176087500Y-69000000D01*
X176000000Y-69087500D01*
X175900000Y-69087500D01*
X175812500Y-69000000D01*
X175630381Y-69000000D01*
X175501741Y-69053284D01*
X175403285Y-69151741D01*
X175350000Y-69280380D01*
X172539276Y-69280380D01*
X172539401Y-69137436D01*
X172362991Y-68710492D01*
X172036626Y-68383557D01*
X171998149Y-68367580D01*
X172034908Y-68352391D01*
X172361843Y-68026026D01*
X172538998Y-67599390D01*
X172539139Y-67437500D01*
X175350000Y-67437500D01*
X175350000Y-67819620D01*
X175403285Y-67948259D01*
X175501741Y-68046716D01*
X175630381Y-68100000D01*
X175812500Y-68100000D01*
X175900000Y-68012500D01*
X175900000Y-67350000D01*
X175437500Y-67350000D01*
X175350000Y-67437500D01*
X172539139Y-67437500D01*
X172539401Y-67137436D01*
X172391869Y-66780380D01*
X175350000Y-66780380D01*
X175350000Y-67162500D01*
X175437500Y-67250000D01*
X175900000Y-67250000D01*
X175900000Y-66587500D01*
X175812500Y-66500000D01*
X175630381Y-66500000D01*
X175501741Y-66553284D01*
X175403285Y-66651741D01*
X175350000Y-66780380D01*
X172391869Y-66780380D01*
X172362991Y-66710492D01*
X172036626Y-66383557D01*
X171998149Y-66367580D01*
X172034908Y-66352391D01*
X172062347Y-66325000D01*
X176225000Y-66325000D01*
X176225000Y-66500000D01*
X176087500Y-66500000D01*
X176000000Y-66587500D01*
X176000000Y-67250000D01*
X176020000Y-67250000D01*
X176020000Y-67350000D01*
X176000000Y-67350000D01*
X176000000Y-68012500D01*
X176087500Y-68100000D01*
X176234946Y-68100000D01*
X176264782Y-68250000D01*
X176268769Y-68270043D01*
X176393414Y-68456586D01*
X176443414Y-68506587D01*
X176597030Y-68609230D01*
X176629957Y-68631231D01*
X176850000Y-68675000D01*
X177722964Y-68675000D01*
X177867885Y-68820174D01*
X178180183Y-68949852D01*
X178518334Y-68950147D01*
X178606659Y-68913652D01*
X178518830Y-69001328D01*
X178427863Y-69220400D01*
X178133037Y-69220400D01*
X178123891Y-69174419D01*
X178024432Y-69025568D01*
X177875581Y-68926109D01*
X177700000Y-68891184D01*
X177200000Y-68891184D01*
X177024419Y-68926109D01*
X176875568Y-69025568D01*
X176776109Y-69174419D01*
X176741184Y-69350000D01*
X176741184Y-70250000D01*
X176776109Y-70425581D01*
X176875568Y-70574432D01*
X177024419Y-70673891D01*
X177200000Y-70708816D01*
X177700000Y-70708816D01*
X177875581Y-70673891D01*
X178024432Y-70574432D01*
X178123891Y-70425581D01*
X178134867Y-70370400D01*
X178427782Y-70370400D01*
X178517445Y-70587400D01*
X178910928Y-70981570D01*
X179064388Y-71045293D01*
X178913000Y-71107845D01*
X178518830Y-71501328D01*
X178427863Y-71720400D01*
X178133037Y-71720400D01*
X178123891Y-71674419D01*
X178024432Y-71525568D01*
X177875581Y-71426109D01*
X177700000Y-71391184D01*
X177200000Y-71391184D01*
X177024419Y-71426109D01*
X176875568Y-71525568D01*
X176776109Y-71674419D01*
X176741184Y-71850000D01*
X176741184Y-72750000D01*
X176776109Y-72925581D01*
X176875568Y-73074432D01*
X177024419Y-73173891D01*
X177200000Y-73208816D01*
X177700000Y-73208816D01*
X177875581Y-73173891D01*
X178024432Y-73074432D01*
X178123891Y-72925581D01*
X178134867Y-72870400D01*
X178427782Y-72870400D01*
X178517445Y-73087400D01*
X178910928Y-73481570D01*
X179425301Y-73695157D01*
X179982256Y-73695643D01*
X180497000Y-73482955D01*
X180891170Y-73089472D01*
X180954893Y-72936012D01*
X181017445Y-73087400D01*
X181410928Y-73481570D01*
X181925301Y-73695157D01*
X182482256Y-73695643D01*
X182997000Y-73482955D01*
X183391170Y-73089472D01*
X183480227Y-72875000D01*
X183766048Y-72875000D01*
X183776109Y-72925581D01*
X183875568Y-73074432D01*
X184024419Y-73173891D01*
X184200000Y-73208816D01*
X184700000Y-73208816D01*
X184875581Y-73173891D01*
X185024432Y-73074432D01*
X185123891Y-72925581D01*
X185158816Y-72750000D01*
X185158816Y-72437500D01*
X185350000Y-72437500D01*
X185350000Y-72819620D01*
X185403285Y-72948259D01*
X185501741Y-73046716D01*
X185630381Y-73100000D01*
X185812500Y-73100000D01*
X185900000Y-73012500D01*
X185900000Y-72350000D01*
X186000000Y-72350000D01*
X186000000Y-73012500D01*
X186087500Y-73100000D01*
X186269619Y-73100000D01*
X186398259Y-73046716D01*
X186496715Y-72948259D01*
X186550000Y-72819620D01*
X186550000Y-72542950D01*
X188134783Y-72542950D01*
X188324684Y-73002543D01*
X188676007Y-73354481D01*
X189135269Y-73545183D01*
X189632550Y-73545617D01*
X190092143Y-73355716D01*
X190444081Y-73004393D01*
X190634783Y-72545131D01*
X190635217Y-72047850D01*
X190445316Y-71588257D01*
X190093993Y-71236319D01*
X189634731Y-71045617D01*
X189137450Y-71045183D01*
X188677857Y-71235084D01*
X188325919Y-71586407D01*
X188135217Y-72045669D01*
X188134783Y-72542950D01*
X186550000Y-72542950D01*
X186550000Y-72437500D01*
X186462500Y-72350000D01*
X186000000Y-72350000D01*
X185900000Y-72350000D01*
X185437500Y-72350000D01*
X185350000Y-72437500D01*
X185158816Y-72437500D01*
X185158816Y-71850000D01*
X185144968Y-71780380D01*
X185350000Y-71780380D01*
X185350000Y-72162500D01*
X185437500Y-72250000D01*
X185900000Y-72250000D01*
X185900000Y-71587500D01*
X186000000Y-71587500D01*
X186000000Y-72250000D01*
X186462500Y-72250000D01*
X186550000Y-72162500D01*
X186550000Y-71780380D01*
X186496715Y-71651741D01*
X186398259Y-71553284D01*
X186269619Y-71500000D01*
X186087500Y-71500000D01*
X186000000Y-71587500D01*
X185900000Y-71587500D01*
X185812500Y-71500000D01*
X185630381Y-71500000D01*
X185501741Y-71553284D01*
X185403285Y-71651741D01*
X185350000Y-71780380D01*
X185144968Y-71780380D01*
X185123891Y-71674419D01*
X185024432Y-71525568D01*
X184875581Y-71426109D01*
X184700000Y-71391184D01*
X184200000Y-71391184D01*
X184024419Y-71426109D01*
X183875568Y-71525568D01*
X183776109Y-71674419D01*
X183766048Y-71725000D01*
X183484118Y-71725000D01*
X183392555Y-71503400D01*
X182999072Y-71109230D01*
X182845612Y-71045507D01*
X182997000Y-70982955D01*
X183391170Y-70589472D01*
X183480227Y-70375000D01*
X183766048Y-70375000D01*
X183776109Y-70425581D01*
X183875568Y-70574432D01*
X184024419Y-70673891D01*
X184200000Y-70708816D01*
X184700000Y-70708816D01*
X184875581Y-70673891D01*
X185024432Y-70574432D01*
X185123891Y-70425581D01*
X185158816Y-70250000D01*
X185158816Y-69937500D01*
X185350000Y-69937500D01*
X185350000Y-70319620D01*
X185403285Y-70448259D01*
X185501741Y-70546716D01*
X185630381Y-70600000D01*
X185812500Y-70600000D01*
X185900000Y-70512500D01*
X185900000Y-69850000D01*
X186000000Y-69850000D01*
X186000000Y-70512500D01*
X186087500Y-70600000D01*
X186269619Y-70600000D01*
X186398259Y-70546716D01*
X186496715Y-70448259D01*
X186550000Y-70319620D01*
X186550000Y-69937500D01*
X186462500Y-69850000D01*
X186000000Y-69850000D01*
X185900000Y-69850000D01*
X185437500Y-69850000D01*
X185350000Y-69937500D01*
X185158816Y-69937500D01*
X185158816Y-69350000D01*
X185144968Y-69280380D01*
X185350000Y-69280380D01*
X185350000Y-69662500D01*
X185437500Y-69750000D01*
X185900000Y-69750000D01*
X185900000Y-69087500D01*
X186000000Y-69087500D01*
X186000000Y-69750000D01*
X186462500Y-69750000D01*
X186550000Y-69662500D01*
X186550000Y-69280380D01*
X186496715Y-69151741D01*
X186398259Y-69053284D01*
X186269619Y-69000000D01*
X186087500Y-69000000D01*
X186000000Y-69087500D01*
X185900000Y-69087500D01*
X185812500Y-69000000D01*
X185630381Y-69000000D01*
X185501741Y-69053284D01*
X185403285Y-69151741D01*
X185350000Y-69280380D01*
X185144968Y-69280380D01*
X185123891Y-69174419D01*
X185024432Y-69025568D01*
X184875581Y-68926109D01*
X184700000Y-68891184D01*
X184200000Y-68891184D01*
X184024419Y-68926109D01*
X183875568Y-69025568D01*
X183776109Y-69174419D01*
X183766048Y-69225000D01*
X183484118Y-69225000D01*
X183392555Y-69003400D01*
X182999072Y-68609230D01*
X182845612Y-68545507D01*
X182997000Y-68482955D01*
X183391170Y-68089472D01*
X183480227Y-67875000D01*
X183766048Y-67875000D01*
X183776109Y-67925581D01*
X183875568Y-68074432D01*
X184024419Y-68173891D01*
X184200000Y-68208816D01*
X184700000Y-68208816D01*
X184875581Y-68173891D01*
X185024432Y-68074432D01*
X185123891Y-67925581D01*
X185158816Y-67750000D01*
X185158816Y-67437500D01*
X185350000Y-67437500D01*
X185350000Y-67819620D01*
X185403285Y-67948259D01*
X185501741Y-68046716D01*
X185630381Y-68100000D01*
X185812500Y-68100000D01*
X185900000Y-68012500D01*
X185900000Y-67350000D01*
X186000000Y-67350000D01*
X186000000Y-68012500D01*
X186087500Y-68100000D01*
X186269619Y-68100000D01*
X186398259Y-68046716D01*
X186496715Y-67948259D01*
X186550000Y-67819620D01*
X186550000Y-67437500D01*
X186462500Y-67350000D01*
X186000000Y-67350000D01*
X185900000Y-67350000D01*
X185437500Y-67350000D01*
X185350000Y-67437500D01*
X185158816Y-67437500D01*
X185158816Y-66850000D01*
X185144968Y-66780380D01*
X185350000Y-66780380D01*
X185350000Y-67162500D01*
X185437500Y-67250000D01*
X185900000Y-67250000D01*
X185900000Y-66587500D01*
X186000000Y-66587500D01*
X186000000Y-67250000D01*
X186462500Y-67250000D01*
X186550000Y-67162500D01*
X186550000Y-66780380D01*
X186496715Y-66651741D01*
X186398259Y-66553284D01*
X186269619Y-66500000D01*
X186087500Y-66500000D01*
X186000000Y-66587500D01*
X185900000Y-66587500D01*
X185812500Y-66500000D01*
X185630381Y-66500000D01*
X185501741Y-66553284D01*
X185403285Y-66651741D01*
X185350000Y-66780380D01*
X185144968Y-66780380D01*
X185123891Y-66674419D01*
X185024432Y-66525568D01*
X184875581Y-66426109D01*
X184700000Y-66391184D01*
X184200000Y-66391184D01*
X184024419Y-66426109D01*
X183875568Y-66525568D01*
X183776109Y-66674419D01*
X183766048Y-66725000D01*
X183484118Y-66725000D01*
X183392555Y-66503400D01*
X182999072Y-66109230D01*
X182845612Y-66045507D01*
X182997000Y-65982955D01*
X183391170Y-65589472D01*
X183482137Y-65370400D01*
X183765133Y-65370400D01*
X183776109Y-65425581D01*
X183875568Y-65574432D01*
X184024419Y-65673891D01*
X184200000Y-65708816D01*
X184700000Y-65708816D01*
X184875581Y-65673891D01*
X185024432Y-65574432D01*
X185123891Y-65425581D01*
X185158816Y-65250000D01*
X185158816Y-64937500D01*
X185350000Y-64937500D01*
X185350000Y-65319620D01*
X185403285Y-65448259D01*
X185501741Y-65546716D01*
X185630381Y-65600000D01*
X185812500Y-65600000D01*
X185900000Y-65512500D01*
X185900000Y-64850000D01*
X186000000Y-64850000D01*
X186000000Y-65512500D01*
X186087500Y-65600000D01*
X186269619Y-65600000D01*
X186398259Y-65546716D01*
X186496715Y-65448259D01*
X186550000Y-65319620D01*
X186550000Y-65042950D01*
X188134783Y-65042950D01*
X188324684Y-65502543D01*
X188676007Y-65854481D01*
X189135269Y-66045183D01*
X189632550Y-66045617D01*
X190092143Y-65855716D01*
X190444081Y-65504393D01*
X190634783Y-65045131D01*
X190635217Y-64547850D01*
X190445316Y-64088257D01*
X190093993Y-63736319D01*
X189634731Y-63545617D01*
X189137450Y-63545183D01*
X188677857Y-63735084D01*
X188325919Y-64086407D01*
X188135217Y-64545669D01*
X188134783Y-65042950D01*
X186550000Y-65042950D01*
X186550000Y-64937500D01*
X186462500Y-64850000D01*
X186000000Y-64850000D01*
X185900000Y-64850000D01*
X185437500Y-64850000D01*
X185350000Y-64937500D01*
X185158816Y-64937500D01*
X185158816Y-64350000D01*
X185144968Y-64280380D01*
X185350000Y-64280380D01*
X185350000Y-64662500D01*
X185437500Y-64750000D01*
X185900000Y-64750000D01*
X185900000Y-64087500D01*
X186000000Y-64087500D01*
X186000000Y-64750000D01*
X186462500Y-64750000D01*
X186550000Y-64662500D01*
X186550000Y-64280380D01*
X186496715Y-64151741D01*
X186398259Y-64053284D01*
X186269619Y-64000000D01*
X186087500Y-64000000D01*
X186000000Y-64087500D01*
X185900000Y-64087500D01*
X185812500Y-64000000D01*
X185630381Y-64000000D01*
X185501741Y-64053284D01*
X185403285Y-64151741D01*
X185350000Y-64280380D01*
X185144968Y-64280380D01*
X185123891Y-64174419D01*
X185024432Y-64025568D01*
X184875581Y-63926109D01*
X184700000Y-63891184D01*
X184200000Y-63891184D01*
X184024419Y-63926109D01*
X183875568Y-64025568D01*
X183776109Y-64174419D01*
X183766963Y-64220400D01*
X183482218Y-64220400D01*
X183392555Y-64003400D01*
X182999072Y-63609230D01*
X182484699Y-63395643D01*
X181927744Y-63395157D01*
X181413000Y-63607845D01*
X181113816Y-63906508D01*
X181113816Y-63845400D01*
X181078891Y-63669819D01*
X180979432Y-63520968D01*
X180830581Y-63421509D01*
X180655000Y-63386584D01*
X178828221Y-63386584D01*
X178821015Y-63369143D01*
X178582115Y-63129826D01*
X178269817Y-63000148D01*
X178063140Y-62999968D01*
X178056586Y-62993414D01*
X177870043Y-62868769D01*
X177650000Y-62825000D01*
X173188172Y-62825000D01*
X172256586Y-61893414D01*
X172070043Y-61768769D01*
X171850000Y-61725000D01*
X170900000Y-61725000D01*
X170679957Y-61768769D01*
X170493414Y-61893414D01*
X170454608Y-61932220D01*
X170362991Y-61710492D01*
X170036626Y-61383557D01*
X169673520Y-61232782D01*
X169752718Y-61042051D01*
X169752784Y-60965956D01*
X170243414Y-61456586D01*
X170429957Y-61581231D01*
X170650000Y-61625000D01*
X172899934Y-61625000D01*
X172899853Y-61718334D01*
X173028985Y-62030857D01*
X173267885Y-62270174D01*
X173580183Y-62399852D01*
X173918334Y-62400147D01*
X174230857Y-62271015D01*
X174470174Y-62032115D01*
X174599852Y-61719817D01*
X174599913Y-61650044D01*
X174718334Y-61650147D01*
X175030857Y-61521015D01*
X175270174Y-61282115D01*
X175399852Y-60969817D01*
X175400147Y-60631666D01*
X175397393Y-60625000D01*
X183950000Y-60625000D01*
X184170043Y-60581231D01*
X184356586Y-60456586D01*
X185456586Y-59356586D01*
X185581231Y-59170043D01*
X185588120Y-59135410D01*
X185616221Y-58994135D01*
X185630381Y-59000000D01*
X185812500Y-59000000D01*
X185900000Y-58912500D01*
X185900000Y-58250000D01*
X186000000Y-58250000D01*
X186000000Y-58912500D01*
X186087500Y-59000000D01*
X186269619Y-59000000D01*
X186398259Y-58946716D01*
X186496715Y-58848259D01*
X186550000Y-58719620D01*
X186550000Y-58445950D01*
X188134783Y-58445950D01*
X188324684Y-58905543D01*
X188676007Y-59257481D01*
X189135269Y-59448183D01*
X189632550Y-59448617D01*
X190092143Y-59258716D01*
X190444081Y-58907393D01*
X190634783Y-58448131D01*
X190635217Y-57950850D01*
X190445316Y-57491257D01*
X190093993Y-57139319D01*
X189634731Y-56948617D01*
X189137450Y-56948183D01*
X188677857Y-57138084D01*
X188325919Y-57489407D01*
X188135217Y-57948669D01*
X188134783Y-58445950D01*
X186550000Y-58445950D01*
X186550000Y-58337500D01*
X186462500Y-58250000D01*
X186000000Y-58250000D01*
X185900000Y-58250000D01*
X185880000Y-58250000D01*
X185880000Y-58150000D01*
X185900000Y-58150000D01*
X185900000Y-57487500D01*
X186000000Y-57487500D01*
X186000000Y-58150000D01*
X186462500Y-58150000D01*
X186550000Y-58062500D01*
X186550000Y-57680380D01*
X186496715Y-57551741D01*
X186398259Y-57453284D01*
X186269619Y-57400000D01*
X186087500Y-57400000D01*
X186000000Y-57487500D01*
X185900000Y-57487500D01*
X185812500Y-57400000D01*
X185630381Y-57400000D01*
X185625000Y-57402229D01*
X185625000Y-56497771D01*
X185630381Y-56500000D01*
X185812500Y-56500000D01*
X185900000Y-56412500D01*
X185900000Y-55750000D01*
X186000000Y-55750000D01*
X186000000Y-56412500D01*
X186087500Y-56500000D01*
X186269619Y-56500000D01*
X186398259Y-56446716D01*
X186496715Y-56348259D01*
X186550000Y-56219620D01*
X186550000Y-55837500D01*
X186462500Y-55750000D01*
X186000000Y-55750000D01*
X185900000Y-55750000D01*
X185880000Y-55750000D01*
X185880000Y-55650000D01*
X185900000Y-55650000D01*
X185900000Y-54987500D01*
X186000000Y-54987500D01*
X186000000Y-55650000D01*
X186462500Y-55650000D01*
X186550000Y-55562500D01*
X186550000Y-55180380D01*
X186496715Y-55051741D01*
X186398259Y-54953284D01*
X186269619Y-54900000D01*
X186087500Y-54900000D01*
X186000000Y-54987500D01*
X185900000Y-54987500D01*
X185812500Y-54900000D01*
X185630381Y-54900000D01*
X185501741Y-54953284D01*
X185403285Y-55051741D01*
X185350000Y-55180380D01*
X185350000Y-55289013D01*
X185170043Y-55168769D01*
X185161999Y-55167169D01*
X185141530Y-55163097D01*
X185123891Y-55074419D01*
X185024432Y-54925568D01*
X184875581Y-54826109D01*
X184700000Y-54791184D01*
X184200000Y-54791184D01*
X184024419Y-54826109D01*
X183875568Y-54925568D01*
X183776109Y-55074419D01*
X183766366Y-55123400D01*
X183482218Y-55123400D01*
X183392555Y-54906400D01*
X182999072Y-54512230D01*
X182845612Y-54448507D01*
X182997000Y-54385955D01*
X183391170Y-53992472D01*
X183482137Y-53773400D01*
X183765730Y-53773400D01*
X183776109Y-53825581D01*
X183875568Y-53974432D01*
X184024419Y-54073891D01*
X184200000Y-54108816D01*
X184700000Y-54108816D01*
X184875581Y-54073891D01*
X185024432Y-53974432D01*
X185123891Y-53825581D01*
X185158816Y-53650000D01*
X185158816Y-53337500D01*
X185350000Y-53337500D01*
X185350000Y-53719620D01*
X185403285Y-53848259D01*
X185501741Y-53946716D01*
X185630381Y-54000000D01*
X185812500Y-54000000D01*
X185900000Y-53912500D01*
X185900000Y-53250000D01*
X186000000Y-53250000D01*
X186000000Y-53912500D01*
X186087500Y-54000000D01*
X186269619Y-54000000D01*
X186398259Y-53946716D01*
X186496715Y-53848259D01*
X186550000Y-53719620D01*
X186550000Y-53337500D01*
X186462500Y-53250000D01*
X186000000Y-53250000D01*
X185900000Y-53250000D01*
X185437500Y-53250000D01*
X185350000Y-53337500D01*
X185158816Y-53337500D01*
X185158816Y-52750000D01*
X185144968Y-52680380D01*
X185350000Y-52680380D01*
X185350000Y-53062500D01*
X185437500Y-53150000D01*
X185900000Y-53150000D01*
X185900000Y-52487500D01*
X186000000Y-52487500D01*
X186000000Y-53150000D01*
X186462500Y-53150000D01*
X186550000Y-53062500D01*
X186550000Y-52680380D01*
X186496715Y-52551741D01*
X186398259Y-52453284D01*
X186269619Y-52400000D01*
X186087500Y-52400000D01*
X186000000Y-52487500D01*
X185900000Y-52487500D01*
X185812500Y-52400000D01*
X185630381Y-52400000D01*
X185501741Y-52453284D01*
X185403285Y-52551741D01*
X185350000Y-52680380D01*
X185144968Y-52680380D01*
X185123891Y-52574419D01*
X185024432Y-52425568D01*
X184875581Y-52326109D01*
X184700000Y-52291184D01*
X184200000Y-52291184D01*
X184024419Y-52326109D01*
X183875568Y-52425568D01*
X183776109Y-52574419D01*
X183766366Y-52623400D01*
X183482218Y-52623400D01*
X183392555Y-52406400D01*
X182999072Y-52012230D01*
X182845612Y-51948507D01*
X182997000Y-51885955D01*
X183391170Y-51492472D01*
X183482137Y-51273400D01*
X183765730Y-51273400D01*
X183776109Y-51325581D01*
X183875568Y-51474432D01*
X184024419Y-51573891D01*
X184200000Y-51608816D01*
X184700000Y-51608816D01*
X184875581Y-51573891D01*
X185024432Y-51474432D01*
X185123891Y-51325581D01*
X185158816Y-51150000D01*
X185158816Y-50837500D01*
X185350000Y-50837500D01*
X185350000Y-51219620D01*
X185403285Y-51348259D01*
X185501741Y-51446716D01*
X185630381Y-51500000D01*
X185812500Y-51500000D01*
X185900000Y-51412500D01*
X185900000Y-50750000D01*
X186000000Y-50750000D01*
X186000000Y-51412500D01*
X186087500Y-51500000D01*
X186269619Y-51500000D01*
X186398259Y-51446716D01*
X186496715Y-51348259D01*
X186550000Y-51219620D01*
X186550000Y-50945950D01*
X188134783Y-50945950D01*
X188324684Y-51405543D01*
X188676007Y-51757481D01*
X189135269Y-51948183D01*
X189632550Y-51948617D01*
X190092143Y-51758716D01*
X190444081Y-51407393D01*
X190634783Y-50948131D01*
X190635217Y-50450850D01*
X190445316Y-49991257D01*
X190093993Y-49639319D01*
X189634731Y-49448617D01*
X189137450Y-49448183D01*
X188677857Y-49638084D01*
X188325919Y-49989407D01*
X188135217Y-50448669D01*
X188134783Y-50945950D01*
X186550000Y-50945950D01*
X186550000Y-50837500D01*
X186462500Y-50750000D01*
X186000000Y-50750000D01*
X185900000Y-50750000D01*
X185437500Y-50750000D01*
X185350000Y-50837500D01*
X185158816Y-50837500D01*
X185158816Y-50250000D01*
X185144968Y-50180380D01*
X185350000Y-50180380D01*
X185350000Y-50562500D01*
X185437500Y-50650000D01*
X185900000Y-50650000D01*
X185900000Y-49987500D01*
X186000000Y-49987500D01*
X186000000Y-50650000D01*
X186462500Y-50650000D01*
X186550000Y-50562500D01*
X186550000Y-50180380D01*
X186496715Y-50051741D01*
X186398259Y-49953284D01*
X186269619Y-49900000D01*
X186087500Y-49900000D01*
X186000000Y-49987500D01*
X185900000Y-49987500D01*
X185812500Y-49900000D01*
X185630381Y-49900000D01*
X185501741Y-49953284D01*
X185403285Y-50051741D01*
X185350000Y-50180380D01*
X185144968Y-50180380D01*
X185123891Y-50074419D01*
X185024432Y-49925568D01*
X184875581Y-49826109D01*
X184700000Y-49791184D01*
X184200000Y-49791184D01*
X184024419Y-49826109D01*
X183875568Y-49925568D01*
X183776109Y-50074419D01*
X183766366Y-50123400D01*
X183482218Y-50123400D01*
X183392555Y-49906400D01*
X182999072Y-49512230D01*
X182484699Y-49298643D01*
X181927744Y-49298157D01*
X181413000Y-49510845D01*
X181113816Y-49809508D01*
X181113816Y-49748400D01*
X181078891Y-49572819D01*
X180979432Y-49423968D01*
X180830581Y-49324509D01*
X180655000Y-49289584D01*
X178755000Y-49289584D01*
X178579419Y-49324509D01*
X178430568Y-49423968D01*
X178331109Y-49572819D01*
X178296184Y-49748400D01*
X178296184Y-50125000D01*
X178133952Y-50125000D01*
X178123891Y-50074419D01*
X178024432Y-49925568D01*
X177875581Y-49826109D01*
X177700000Y-49791184D01*
X177200000Y-49791184D01*
X177024419Y-49826109D01*
X176875568Y-49925568D01*
X176776109Y-50074419D01*
X176741184Y-50250000D01*
X176741184Y-51150000D01*
X176776109Y-51325581D01*
X176875568Y-51474432D01*
X177024419Y-51573891D01*
X177200000Y-51608816D01*
X177700000Y-51608816D01*
X177875581Y-51573891D01*
X178024432Y-51474432D01*
X178123891Y-51325581D01*
X178133952Y-51275000D01*
X178296184Y-51275000D01*
X178296184Y-51648400D01*
X178331109Y-51823981D01*
X178430568Y-51972832D01*
X178579419Y-52072291D01*
X178755000Y-52107216D01*
X178816461Y-52107216D01*
X178518830Y-52404328D01*
X178427199Y-52625000D01*
X178133952Y-52625000D01*
X178123891Y-52574419D01*
X178024432Y-52425568D01*
X177875581Y-52326109D01*
X177700000Y-52291184D01*
X177200000Y-52291184D01*
X177024419Y-52326109D01*
X176875568Y-52425568D01*
X176776109Y-52574419D01*
X176741184Y-52750000D01*
X176741184Y-53650000D01*
X176776109Y-53825581D01*
X176875568Y-53974432D01*
X177024419Y-54073891D01*
X177200000Y-54108816D01*
X177700000Y-54108816D01*
X177875581Y-54073891D01*
X178024432Y-53974432D01*
X178123891Y-53825581D01*
X178133952Y-53775000D01*
X178428443Y-53775000D01*
X178517445Y-53990400D01*
X178910928Y-54384570D01*
X179064388Y-54448293D01*
X178913000Y-54510845D01*
X178518830Y-54904328D01*
X178427199Y-55125000D01*
X178133952Y-55125000D01*
X178123891Y-55074419D01*
X178024432Y-54925568D01*
X177875581Y-54826109D01*
X177700000Y-54791184D01*
X177200000Y-54791184D01*
X177024419Y-54826109D01*
X176875568Y-54925568D01*
X176776109Y-55074419D01*
X176741184Y-55250000D01*
X176741184Y-56150000D01*
X176776109Y-56325581D01*
X176875568Y-56474432D01*
X177024419Y-56573891D01*
X177200000Y-56608816D01*
X177700000Y-56608816D01*
X177875581Y-56573891D01*
X178024432Y-56474432D01*
X178123891Y-56325581D01*
X178133952Y-56275000D01*
X178428443Y-56275000D01*
X178517445Y-56490400D01*
X178910928Y-56884570D01*
X179064388Y-56948293D01*
X178913000Y-57010845D01*
X178518830Y-57404328D01*
X178427199Y-57625000D01*
X178133952Y-57625000D01*
X178123891Y-57574419D01*
X178024432Y-57425568D01*
X177875581Y-57326109D01*
X177700000Y-57291184D01*
X177200000Y-57291184D01*
X177024419Y-57326109D01*
X176875568Y-57425568D01*
X176776109Y-57574419D01*
X176741184Y-57750000D01*
X176741184Y-58650000D01*
X176776109Y-58825581D01*
X176875568Y-58974432D01*
X176876418Y-58975000D01*
X176329975Y-58975000D01*
X176398259Y-58946716D01*
X176496715Y-58848259D01*
X176550000Y-58719620D01*
X176550000Y-58337500D01*
X176462500Y-58250000D01*
X176000000Y-58250000D01*
X176000000Y-58270000D01*
X175900000Y-58270000D01*
X175900000Y-58250000D01*
X175437500Y-58250000D01*
X175350000Y-58337500D01*
X175350000Y-58719620D01*
X175403285Y-58848259D01*
X175501741Y-58946716D01*
X175570025Y-58975000D01*
X173798773Y-58975000D01*
X172505011Y-57681239D01*
X172505367Y-57680380D01*
X175350000Y-57680380D01*
X175350000Y-58062500D01*
X175437500Y-58150000D01*
X175900000Y-58150000D01*
X175900000Y-57487500D01*
X176000000Y-57487500D01*
X176000000Y-58150000D01*
X176462500Y-58150000D01*
X176550000Y-58062500D01*
X176550000Y-57680380D01*
X176496715Y-57551741D01*
X176398259Y-57453284D01*
X176269619Y-57400000D01*
X176087500Y-57400000D01*
X176000000Y-57487500D01*
X175900000Y-57487500D01*
X175812500Y-57400000D01*
X175630381Y-57400000D01*
X175501741Y-57453284D01*
X175403285Y-57551741D01*
X175350000Y-57680380D01*
X172505367Y-57680380D01*
X172538998Y-57599390D01*
X172539401Y-57137436D01*
X172362991Y-56710492D01*
X172036626Y-56383557D01*
X171998149Y-56367580D01*
X172034908Y-56352391D01*
X172361843Y-56026026D01*
X172440125Y-55837500D01*
X175350000Y-55837500D01*
X175350000Y-56219620D01*
X175403285Y-56348259D01*
X175501741Y-56446716D01*
X175630381Y-56500000D01*
X175812500Y-56500000D01*
X175900000Y-56412500D01*
X175900000Y-55750000D01*
X176000000Y-55750000D01*
X176000000Y-56412500D01*
X176087500Y-56500000D01*
X176269619Y-56500000D01*
X176398259Y-56446716D01*
X176496715Y-56348259D01*
X176550000Y-56219620D01*
X176550000Y-55837500D01*
X176462500Y-55750000D01*
X176000000Y-55750000D01*
X175900000Y-55750000D01*
X175437500Y-55750000D01*
X175350000Y-55837500D01*
X172440125Y-55837500D01*
X172538998Y-55599390D01*
X172539363Y-55180380D01*
X175350000Y-55180380D01*
X175350000Y-55562500D01*
X175437500Y-55650000D01*
X175900000Y-55650000D01*
X175900000Y-54987500D01*
X176000000Y-54987500D01*
X176000000Y-55650000D01*
X176462500Y-55650000D01*
X176550000Y-55562500D01*
X176550000Y-55180380D01*
X176496715Y-55051741D01*
X176398259Y-54953284D01*
X176269619Y-54900000D01*
X176087500Y-54900000D01*
X176000000Y-54987500D01*
X175900000Y-54987500D01*
X175812500Y-54900000D01*
X175630381Y-54900000D01*
X175501741Y-54953284D01*
X175403285Y-55051741D01*
X175350000Y-55180380D01*
X172539363Y-55180380D01*
X172539401Y-55137436D01*
X172362991Y-54710492D01*
X172036626Y-54383557D01*
X171998149Y-54367580D01*
X172034908Y-54352391D01*
X172361843Y-54026026D01*
X172538998Y-53599390D01*
X172539226Y-53337500D01*
X175350000Y-53337500D01*
X175350000Y-53719620D01*
X175403285Y-53848259D01*
X175501741Y-53946716D01*
X175630381Y-54000000D01*
X175812500Y-54000000D01*
X175900000Y-53912500D01*
X175900000Y-53250000D01*
X176000000Y-53250000D01*
X176000000Y-53912500D01*
X176087500Y-54000000D01*
X176269619Y-54000000D01*
X176398259Y-53946716D01*
X176496715Y-53848259D01*
X176550000Y-53719620D01*
X176550000Y-53337500D01*
X176462500Y-53250000D01*
X176000000Y-53250000D01*
X175900000Y-53250000D01*
X175437500Y-53250000D01*
X175350000Y-53337500D01*
X172539226Y-53337500D01*
X172539401Y-53137436D01*
X172362991Y-52710492D01*
X172332932Y-52680380D01*
X175350000Y-52680380D01*
X175350000Y-53062500D01*
X175437500Y-53150000D01*
X175900000Y-53150000D01*
X175900000Y-52487500D01*
X176000000Y-52487500D01*
X176000000Y-53150000D01*
X176462500Y-53150000D01*
X176550000Y-53062500D01*
X176550000Y-52680380D01*
X176496715Y-52551741D01*
X176398259Y-52453284D01*
X176269619Y-52400000D01*
X176087500Y-52400000D01*
X176000000Y-52487500D01*
X175900000Y-52487500D01*
X175812500Y-52400000D01*
X175630381Y-52400000D01*
X175501741Y-52453284D01*
X175403285Y-52551741D01*
X175350000Y-52680380D01*
X172332932Y-52680380D01*
X172036626Y-52383557D01*
X171609990Y-52206402D01*
X171148036Y-52205999D01*
X170721092Y-52382409D01*
X170394157Y-52708774D01*
X170217002Y-53135410D01*
X170216628Y-53563874D01*
X170036626Y-53383557D01*
X169609990Y-53206402D01*
X169148036Y-53205999D01*
X168721092Y-53382409D01*
X168394157Y-53708774D01*
X168217002Y-54135410D01*
X168216599Y-54597364D01*
X168393009Y-55024308D01*
X168719374Y-55351243D01*
X168757851Y-55367220D01*
X168721092Y-55382409D01*
X168394157Y-55708774D01*
X168217002Y-56135410D01*
X168216599Y-56597364D01*
X168251177Y-56681050D01*
X167900000Y-57032228D01*
X167900000Y-56884134D01*
X168038998Y-56549390D01*
X168039401Y-56087436D01*
X167900000Y-55750060D01*
X167900000Y-54884134D01*
X168038998Y-54549390D01*
X168039401Y-54087436D01*
X167900000Y-53750060D01*
X167900000Y-53192202D01*
X168449814Y-53192682D01*
X169047286Y-52945812D01*
X169504805Y-52489091D01*
X169752718Y-51892051D01*
X169753282Y-51245586D01*
X169584665Y-50837500D01*
X175350000Y-50837500D01*
X175350000Y-51219620D01*
X175403285Y-51348259D01*
X175501741Y-51446716D01*
X175630381Y-51500000D01*
X175812500Y-51500000D01*
X175900000Y-51412500D01*
X175900000Y-50750000D01*
X176000000Y-50750000D01*
X176000000Y-51412500D01*
X176087500Y-51500000D01*
X176269619Y-51500000D01*
X176398259Y-51446716D01*
X176496715Y-51348259D01*
X176550000Y-51219620D01*
X176550000Y-50837500D01*
X176462500Y-50750000D01*
X176000000Y-50750000D01*
X175900000Y-50750000D01*
X175437500Y-50750000D01*
X175350000Y-50837500D01*
X169584665Y-50837500D01*
X169506412Y-50648114D01*
X169049691Y-50190595D01*
X169025091Y-50180380D01*
X175350000Y-50180380D01*
X175350000Y-50562500D01*
X175437500Y-50650000D01*
X175900000Y-50650000D01*
X175900000Y-49987500D01*
X176000000Y-49987500D01*
X176000000Y-50650000D01*
X176462500Y-50650000D01*
X176550000Y-50562500D01*
X176550000Y-50180380D01*
X176496715Y-50051741D01*
X176398259Y-49953284D01*
X176269619Y-49900000D01*
X176087500Y-49900000D01*
X176000000Y-49987500D01*
X175900000Y-49987500D01*
X175812500Y-49900000D01*
X175630381Y-49900000D01*
X175501741Y-49953284D01*
X175403285Y-50051741D01*
X175350000Y-50180380D01*
X169025091Y-50180380D01*
X168452651Y-49942682D01*
X167900000Y-49942200D01*
X167900000Y-45991000D01*
X192293000Y-45991000D01*
X192293000Y-77741000D01*
G36*
X159125000Y-70100000D02*
X159165258Y-70302391D01*
X159168769Y-70320043D01*
X159293414Y-70506586D01*
X159493414Y-70706587D01*
X159588383Y-70770043D01*
X159679957Y-70831231D01*
X159900000Y-70875000D01*
X160016048Y-70875000D01*
X160026109Y-70925581D01*
X160125568Y-71074432D01*
X160274419Y-71173891D01*
X160450000Y-71208816D01*
X160950000Y-71208816D01*
X161125581Y-71173891D01*
X161274432Y-71074432D01*
X161373891Y-70925581D01*
X161408816Y-70750000D01*
X161408816Y-70437500D01*
X161600000Y-70437500D01*
X161600000Y-70819620D01*
X161653285Y-70948259D01*
X161751741Y-71046716D01*
X161880381Y-71100000D01*
X162062500Y-71100000D01*
X162150000Y-71012500D01*
X162150000Y-70350000D01*
X162250000Y-70350000D01*
X162250000Y-71012500D01*
X162337500Y-71100000D01*
X162519619Y-71100000D01*
X162648259Y-71046716D01*
X162746715Y-70948259D01*
X162800000Y-70819620D01*
X162800000Y-70437500D01*
X162712500Y-70350000D01*
X162250000Y-70350000D01*
X162150000Y-70350000D01*
X161687500Y-70350000D01*
X161600000Y-70437500D01*
X161408816Y-70437500D01*
X161408816Y-69975000D01*
X161600000Y-69975000D01*
X161600000Y-70162500D01*
X161687500Y-70250000D01*
X162150000Y-70250000D01*
X162150000Y-70230000D01*
X162250000Y-70230000D01*
X162250000Y-70250000D01*
X162712500Y-70250000D01*
X162800000Y-70162500D01*
X162800000Y-69975000D01*
X163893700Y-69975000D01*
X164219374Y-70301243D01*
X164257851Y-70317220D01*
X164221092Y-70332409D01*
X163894157Y-70658774D01*
X163717002Y-71085410D01*
X163716599Y-71547364D01*
X163893009Y-71974308D01*
X164219374Y-72301243D01*
X164303000Y-72335968D01*
X164303000Y-72478000D01*
X164345848Y-72693413D01*
X164346769Y-72698043D01*
X164471414Y-72884586D01*
X164525000Y-72938172D01*
X164525000Y-73261828D01*
X164261828Y-73525000D01*
X163800000Y-73525000D01*
X163800000Y-73287500D01*
X163712500Y-73200000D01*
X163100000Y-73200000D01*
X163100000Y-73220000D01*
X163000000Y-73220000D01*
X163000000Y-73200000D01*
X162980000Y-73200000D01*
X162980000Y-73100000D01*
X163000000Y-73100000D01*
X163000000Y-72512500D01*
X163100000Y-72512500D01*
X163100000Y-73100000D01*
X163712500Y-73100000D01*
X163800000Y-73012500D01*
X163800000Y-72705380D01*
X163746715Y-72576741D01*
X163648259Y-72478284D01*
X163519619Y-72425000D01*
X163187500Y-72425000D01*
X163100000Y-72512500D01*
X163000000Y-72512500D01*
X162912500Y-72425000D01*
X162580381Y-72425000D01*
X162451741Y-72478284D01*
X162356554Y-72573472D01*
X162274432Y-72450568D01*
X162125581Y-72351109D01*
X161950000Y-72316184D01*
X161150000Y-72316184D01*
X160974419Y-72351109D01*
X160825568Y-72450568D01*
X160742425Y-72575000D01*
X160650000Y-72575000D01*
X160434401Y-72617885D01*
X160429957Y-72618769D01*
X160383827Y-72649592D01*
X160365891Y-72559419D01*
X160266432Y-72410568D01*
X160117581Y-72311109D01*
X159942000Y-72276184D01*
X158634000Y-72276184D01*
X158458419Y-72311109D01*
X158309568Y-72410568D01*
X158210109Y-72559419D01*
X158175184Y-72735000D01*
X158175184Y-74043000D01*
X158210109Y-74218581D01*
X158309568Y-74367432D01*
X158458419Y-74466891D01*
X158634000Y-74501816D01*
X159885012Y-74501816D01*
X159874828Y-74512000D01*
X157000000Y-74512000D01*
X157000000Y-69975000D01*
X159125000Y-69975000D01*
X159125000Y-70100000D01*
X159125000Y-70100000D01*
G37*
X159125000Y-70100000D02*
X159165258Y-70302391D01*
X159168769Y-70320043D01*
X159293414Y-70506586D01*
X159493414Y-70706587D01*
X159588383Y-70770043D01*
X159679957Y-70831231D01*
X159900000Y-70875000D01*
X160016048Y-70875000D01*
X160026109Y-70925581D01*
X160125568Y-71074432D01*
X160274419Y-71173891D01*
X160450000Y-71208816D01*
X160950000Y-71208816D01*
X161125581Y-71173891D01*
X161274432Y-71074432D01*
X161373891Y-70925581D01*
X161408816Y-70750000D01*
X161408816Y-70437500D01*
X161600000Y-70437500D01*
X161600000Y-70819620D01*
X161653285Y-70948259D01*
X161751741Y-71046716D01*
X161880381Y-71100000D01*
X162062500Y-71100000D01*
X162150000Y-71012500D01*
X162150000Y-70350000D01*
X162250000Y-70350000D01*
X162250000Y-71012500D01*
X162337500Y-71100000D01*
X162519619Y-71100000D01*
X162648259Y-71046716D01*
X162746715Y-70948259D01*
X162800000Y-70819620D01*
X162800000Y-70437500D01*
X162712500Y-70350000D01*
X162250000Y-70350000D01*
X162150000Y-70350000D01*
X161687500Y-70350000D01*
X161600000Y-70437500D01*
X161408816Y-70437500D01*
X161408816Y-69975000D01*
X161600000Y-69975000D01*
X161600000Y-70162500D01*
X161687500Y-70250000D01*
X162150000Y-70250000D01*
X162150000Y-70230000D01*
X162250000Y-70230000D01*
X162250000Y-70250000D01*
X162712500Y-70250000D01*
X162800000Y-70162500D01*
X162800000Y-69975000D01*
X163893700Y-69975000D01*
X164219374Y-70301243D01*
X164257851Y-70317220D01*
X164221092Y-70332409D01*
X163894157Y-70658774D01*
X163717002Y-71085410D01*
X163716599Y-71547364D01*
X163893009Y-71974308D01*
X164219374Y-72301243D01*
X164303000Y-72335968D01*
X164303000Y-72478000D01*
X164345848Y-72693413D01*
X164346769Y-72698043D01*
X164471414Y-72884586D01*
X164525000Y-72938172D01*
X164525000Y-73261828D01*
X164261828Y-73525000D01*
X163800000Y-73525000D01*
X163800000Y-73287500D01*
X163712500Y-73200000D01*
X163100000Y-73200000D01*
X163100000Y-73220000D01*
X163000000Y-73220000D01*
X163000000Y-73200000D01*
X162980000Y-73200000D01*
X162980000Y-73100000D01*
X163000000Y-73100000D01*
X163000000Y-72512500D01*
X163100000Y-72512500D01*
X163100000Y-73100000D01*
X163712500Y-73100000D01*
X163800000Y-73012500D01*
X163800000Y-72705380D01*
X163746715Y-72576741D01*
X163648259Y-72478284D01*
X163519619Y-72425000D01*
X163187500Y-72425000D01*
X163100000Y-72512500D01*
X163000000Y-72512500D01*
X162912500Y-72425000D01*
X162580381Y-72425000D01*
X162451741Y-72478284D01*
X162356554Y-72573472D01*
X162274432Y-72450568D01*
X162125581Y-72351109D01*
X161950000Y-72316184D01*
X161150000Y-72316184D01*
X160974419Y-72351109D01*
X160825568Y-72450568D01*
X160742425Y-72575000D01*
X160650000Y-72575000D01*
X160434401Y-72617885D01*
X160429957Y-72618769D01*
X160383827Y-72649592D01*
X160365891Y-72559419D01*
X160266432Y-72410568D01*
X160117581Y-72311109D01*
X159942000Y-72276184D01*
X158634000Y-72276184D01*
X158458419Y-72311109D01*
X158309568Y-72410568D01*
X158210109Y-72559419D01*
X158175184Y-72735000D01*
X158175184Y-74043000D01*
X158210109Y-74218581D01*
X158309568Y-74367432D01*
X158458419Y-74466891D01*
X158634000Y-74501816D01*
X159885012Y-74501816D01*
X159874828Y-74512000D01*
X157000000Y-74512000D01*
X157000000Y-69975000D01*
X159125000Y-69975000D01*
X159125000Y-70100000D01*
G36*
X159025000Y-66500000D02*
X159066869Y-66710492D01*
X159068769Y-66720043D01*
X159193414Y-66906586D01*
X159493414Y-67206586D01*
X159679957Y-67331231D01*
X159812589Y-67357613D01*
X159826109Y-67425581D01*
X159925568Y-67574432D01*
X160074419Y-67673891D01*
X160250000Y-67708816D01*
X160750000Y-67708816D01*
X160925581Y-67673891D01*
X161074432Y-67574432D01*
X161173891Y-67425581D01*
X161208816Y-67250000D01*
X161208816Y-66937500D01*
X161400000Y-66937500D01*
X161400000Y-67319620D01*
X161453285Y-67448259D01*
X161551741Y-67546716D01*
X161680381Y-67600000D01*
X161862500Y-67600000D01*
X161950000Y-67512500D01*
X161950000Y-66850000D01*
X162050000Y-66850000D01*
X162050000Y-67512500D01*
X162137500Y-67600000D01*
X162319619Y-67600000D01*
X162448259Y-67546716D01*
X162546715Y-67448259D01*
X162600000Y-67319620D01*
X162600000Y-66937500D01*
X162512500Y-66850000D01*
X162050000Y-66850000D01*
X161950000Y-66850000D01*
X161487500Y-66850000D01*
X161400000Y-66937500D01*
X161208816Y-66937500D01*
X161208816Y-66475000D01*
X161400000Y-66475000D01*
X161400000Y-66662500D01*
X161487500Y-66750000D01*
X161950000Y-66750000D01*
X161950000Y-66730000D01*
X162050000Y-66730000D01*
X162050000Y-66750000D01*
X162512500Y-66750000D01*
X162600000Y-66662500D01*
X162600000Y-66475000D01*
X163222428Y-66475000D01*
X163750989Y-67003561D01*
X163717002Y-67085410D01*
X163716599Y-67547364D01*
X163893009Y-67974308D01*
X164219374Y-68301243D01*
X164257851Y-68317220D01*
X164221092Y-68332409D01*
X163894157Y-68658774D01*
X163825134Y-68825000D01*
X162950000Y-68825000D01*
X162950000Y-68687500D01*
X162862500Y-68600000D01*
X162250000Y-68600000D01*
X162250000Y-68620000D01*
X162150000Y-68620000D01*
X162150000Y-68600000D01*
X162130000Y-68600000D01*
X162130000Y-68500000D01*
X162150000Y-68500000D01*
X162150000Y-67912500D01*
X162250000Y-67912500D01*
X162250000Y-68500000D01*
X162862500Y-68500000D01*
X162950000Y-68412500D01*
X162950000Y-68105380D01*
X162896715Y-67976741D01*
X162798259Y-67878284D01*
X162669619Y-67825000D01*
X162337500Y-67825000D01*
X162250000Y-67912500D01*
X162150000Y-67912500D01*
X162062500Y-67825000D01*
X161730381Y-67825000D01*
X161601741Y-67878284D01*
X161506554Y-67973472D01*
X161424432Y-67850568D01*
X161275581Y-67751109D01*
X161100000Y-67716184D01*
X160300000Y-67716184D01*
X160124419Y-67751109D01*
X159975568Y-67850568D01*
X159892425Y-67975000D01*
X159850000Y-67975000D01*
X159661474Y-68012500D01*
X159629957Y-68018769D01*
X159443414Y-68143414D01*
X159293414Y-68293414D01*
X159168769Y-68479957D01*
X159125000Y-68700000D01*
X159125000Y-68825000D01*
X157000000Y-68825000D01*
X157000000Y-66475000D01*
X159025000Y-66475000D01*
X159025000Y-66500000D01*
X159025000Y-66500000D01*
G37*
X159025000Y-66500000D02*
X159066869Y-66710492D01*
X159068769Y-66720043D01*
X159193414Y-66906586D01*
X159493414Y-67206586D01*
X159679957Y-67331231D01*
X159812589Y-67357613D01*
X159826109Y-67425581D01*
X159925568Y-67574432D01*
X160074419Y-67673891D01*
X160250000Y-67708816D01*
X160750000Y-67708816D01*
X160925581Y-67673891D01*
X161074432Y-67574432D01*
X161173891Y-67425581D01*
X161208816Y-67250000D01*
X161208816Y-66937500D01*
X161400000Y-66937500D01*
X161400000Y-67319620D01*
X161453285Y-67448259D01*
X161551741Y-67546716D01*
X161680381Y-67600000D01*
X161862500Y-67600000D01*
X161950000Y-67512500D01*
X161950000Y-66850000D01*
X162050000Y-66850000D01*
X162050000Y-67512500D01*
X162137500Y-67600000D01*
X162319619Y-67600000D01*
X162448259Y-67546716D01*
X162546715Y-67448259D01*
X162600000Y-67319620D01*
X162600000Y-66937500D01*
X162512500Y-66850000D01*
X162050000Y-66850000D01*
X161950000Y-66850000D01*
X161487500Y-66850000D01*
X161400000Y-66937500D01*
X161208816Y-66937500D01*
X161208816Y-66475000D01*
X161400000Y-66475000D01*
X161400000Y-66662500D01*
X161487500Y-66750000D01*
X161950000Y-66750000D01*
X161950000Y-66730000D01*
X162050000Y-66730000D01*
X162050000Y-66750000D01*
X162512500Y-66750000D01*
X162600000Y-66662500D01*
X162600000Y-66475000D01*
X163222428Y-66475000D01*
X163750989Y-67003561D01*
X163717002Y-67085410D01*
X163716599Y-67547364D01*
X163893009Y-67974308D01*
X164219374Y-68301243D01*
X164257851Y-68317220D01*
X164221092Y-68332409D01*
X163894157Y-68658774D01*
X163825134Y-68825000D01*
X162950000Y-68825000D01*
X162950000Y-68687500D01*
X162862500Y-68600000D01*
X162250000Y-68600000D01*
X162250000Y-68620000D01*
X162150000Y-68620000D01*
X162150000Y-68600000D01*
X162130000Y-68600000D01*
X162130000Y-68500000D01*
X162150000Y-68500000D01*
X162150000Y-67912500D01*
X162250000Y-67912500D01*
X162250000Y-68500000D01*
X162862500Y-68500000D01*
X162950000Y-68412500D01*
X162950000Y-68105380D01*
X162896715Y-67976741D01*
X162798259Y-67878284D01*
X162669619Y-67825000D01*
X162337500Y-67825000D01*
X162250000Y-67912500D01*
X162150000Y-67912500D01*
X162062500Y-67825000D01*
X161730381Y-67825000D01*
X161601741Y-67878284D01*
X161506554Y-67973472D01*
X161424432Y-67850568D01*
X161275581Y-67751109D01*
X161100000Y-67716184D01*
X160300000Y-67716184D01*
X160124419Y-67751109D01*
X159975568Y-67850568D01*
X159892425Y-67975000D01*
X159850000Y-67975000D01*
X159661474Y-68012500D01*
X159629957Y-68018769D01*
X159443414Y-68143414D01*
X159293414Y-68293414D01*
X159168769Y-68479957D01*
X159125000Y-68700000D01*
X159125000Y-68825000D01*
X157000000Y-68825000D01*
X157000000Y-66475000D01*
X159025000Y-66475000D01*
X159025000Y-66500000D01*
G36*
X143150000Y-53800000D02*
X143161418Y-53857403D01*
X143193934Y-53906066D01*
X143650000Y-54362132D01*
X143650000Y-54649315D01*
X143625000Y-54775000D01*
X143634175Y-54821125D01*
X143494143Y-54878985D01*
X143254826Y-55117885D01*
X143125148Y-55430183D01*
X143124853Y-55768334D01*
X143253985Y-56080857D01*
X143492885Y-56320174D01*
X143805183Y-56449852D01*
X144143334Y-56450147D01*
X144455857Y-56321015D01*
X144695174Y-56082115D01*
X144824852Y-55769817D01*
X144824878Y-55740072D01*
X144844975Y-55719975D01*
X144910211Y-55622343D01*
X149068934Y-59781066D01*
X149117597Y-59813582D01*
X149175000Y-59825000D01*
X153962868Y-59825000D01*
X156493934Y-62356066D01*
X156542597Y-62388582D01*
X156600000Y-62400000D01*
X164153383Y-62400000D01*
X163894157Y-62658774D01*
X163717002Y-63085410D01*
X163716599Y-63547364D01*
X163893009Y-63974308D01*
X164219374Y-64301243D01*
X164386681Y-64370715D01*
X164283153Y-64413598D01*
X164211034Y-64579724D01*
X164878000Y-65246689D01*
X165544966Y-64579724D01*
X165472847Y-64413598D01*
X165368409Y-64371187D01*
X165534908Y-64302391D01*
X165716971Y-64120645D01*
X165716599Y-64547364D01*
X165893009Y-64974308D01*
X166219374Y-65301243D01*
X166257851Y-65317220D01*
X166221092Y-65332409D01*
X165894157Y-65658774D01*
X165717002Y-66085410D01*
X165716628Y-66513874D01*
X165536626Y-66333557D01*
X165369319Y-66264085D01*
X165472847Y-66221202D01*
X165544966Y-66055076D01*
X164878000Y-65388111D01*
X164863858Y-65402253D01*
X164793147Y-65331542D01*
X164807289Y-65317400D01*
X164948711Y-65317400D01*
X165615676Y-65984366D01*
X165781802Y-65912247D01*
X165940642Y-65521097D01*
X165937705Y-65098936D01*
X165781802Y-64722553D01*
X165615676Y-64650434D01*
X164948711Y-65317400D01*
X164807289Y-65317400D01*
X164140324Y-64650434D01*
X163974198Y-64722553D01*
X163815358Y-65113703D01*
X163817770Y-65460395D01*
X163680643Y-65368769D01*
X163460600Y-65325000D01*
X162750000Y-65325000D01*
X162750000Y-65187500D01*
X162662500Y-65100000D01*
X162050000Y-65100000D01*
X162050000Y-65120000D01*
X161950000Y-65120000D01*
X161950000Y-65100000D01*
X161930000Y-65100000D01*
X161930000Y-65000000D01*
X161950000Y-65000000D01*
X161950000Y-64412500D01*
X162050000Y-64412500D01*
X162050000Y-65000000D01*
X162662500Y-65000000D01*
X162750000Y-64912500D01*
X162750000Y-64605380D01*
X162696715Y-64476741D01*
X162598259Y-64378284D01*
X162469619Y-64325000D01*
X162137500Y-64325000D01*
X162050000Y-64412500D01*
X161950000Y-64412500D01*
X161862500Y-64325000D01*
X161530381Y-64325000D01*
X161401741Y-64378284D01*
X161306554Y-64473472D01*
X161224432Y-64350568D01*
X161075581Y-64251109D01*
X160900000Y-64216184D01*
X160100000Y-64216184D01*
X159924419Y-64251109D01*
X159775568Y-64350568D01*
X159683600Y-64488208D01*
X159545381Y-64515701D01*
X159529957Y-64518769D01*
X159343414Y-64643414D01*
X159193414Y-64793414D01*
X159068769Y-64979957D01*
X159025000Y-65200000D01*
X159025000Y-65325000D01*
X157000000Y-65325000D01*
X157000000Y-64700000D01*
X156988582Y-64642597D01*
X156956066Y-64593934D01*
X154981066Y-62618934D01*
X154932403Y-62586418D01*
X154875000Y-62575000D01*
X145687132Y-62575000D01*
X136090509Y-52978377D01*
X136453807Y-52615712D01*
X136659765Y-52119710D01*
X136660234Y-51582647D01*
X136455142Y-51086285D01*
X136075712Y-50706193D01*
X135579710Y-50500235D01*
X135042647Y-50499766D01*
X134546285Y-50704858D01*
X134166193Y-51084288D01*
X133985783Y-51518764D01*
X133829719Y-51141962D01*
X133829679Y-51141902D01*
X133643938Y-51046773D01*
X133010711Y-51680000D01*
X132869289Y-51680000D01*
X133573227Y-50976062D01*
X133478098Y-50790321D01*
X133018676Y-50600007D01*
X132521395Y-50599993D01*
X132061962Y-50790281D01*
X132061902Y-50790321D01*
X131966773Y-50976062D01*
X132670711Y-51680000D01*
X132529289Y-51680000D01*
X131896062Y-51046773D01*
X131710321Y-51141902D01*
X131625000Y-51347868D01*
X131625000Y-47650000D01*
X143150000Y-47650000D01*
X143150000Y-53800000D01*
X143150000Y-53800000D01*
G37*
X143150000Y-53800000D02*
X143161418Y-53857403D01*
X143193934Y-53906066D01*
X143650000Y-54362132D01*
X143650000Y-54649315D01*
X143625000Y-54775000D01*
X143634175Y-54821125D01*
X143494143Y-54878985D01*
X143254826Y-55117885D01*
X143125148Y-55430183D01*
X143124853Y-55768334D01*
X143253985Y-56080857D01*
X143492885Y-56320174D01*
X143805183Y-56449852D01*
X144143334Y-56450147D01*
X144455857Y-56321015D01*
X144695174Y-56082115D01*
X144824852Y-55769817D01*
X144824878Y-55740072D01*
X144844975Y-55719975D01*
X144910211Y-55622343D01*
X149068934Y-59781066D01*
X149117597Y-59813582D01*
X149175000Y-59825000D01*
X153962868Y-59825000D01*
X156493934Y-62356066D01*
X156542597Y-62388582D01*
X156600000Y-62400000D01*
X164153383Y-62400000D01*
X163894157Y-62658774D01*
X163717002Y-63085410D01*
X163716599Y-63547364D01*
X163893009Y-63974308D01*
X164219374Y-64301243D01*
X164386681Y-64370715D01*
X164283153Y-64413598D01*
X164211034Y-64579724D01*
X164878000Y-65246689D01*
X165544966Y-64579724D01*
X165472847Y-64413598D01*
X165368409Y-64371187D01*
X165534908Y-64302391D01*
X165716971Y-64120645D01*
X165716599Y-64547364D01*
X165893009Y-64974308D01*
X166219374Y-65301243D01*
X166257851Y-65317220D01*
X166221092Y-65332409D01*
X165894157Y-65658774D01*
X165717002Y-66085410D01*
X165716628Y-66513874D01*
X165536626Y-66333557D01*
X165369319Y-66264085D01*
X165472847Y-66221202D01*
X165544966Y-66055076D01*
X164878000Y-65388111D01*
X164863858Y-65402253D01*
X164793147Y-65331542D01*
X164807289Y-65317400D01*
X164948711Y-65317400D01*
X165615676Y-65984366D01*
X165781802Y-65912247D01*
X165940642Y-65521097D01*
X165937705Y-65098936D01*
X165781802Y-64722553D01*
X165615676Y-64650434D01*
X164948711Y-65317400D01*
X164807289Y-65317400D01*
X164140324Y-64650434D01*
X163974198Y-64722553D01*
X163815358Y-65113703D01*
X163817770Y-65460395D01*
X163680643Y-65368769D01*
X163460600Y-65325000D01*
X162750000Y-65325000D01*
X162750000Y-65187500D01*
X162662500Y-65100000D01*
X162050000Y-65100000D01*
X162050000Y-65120000D01*
X161950000Y-65120000D01*
X161950000Y-65100000D01*
X161930000Y-65100000D01*
X161930000Y-65000000D01*
X161950000Y-65000000D01*
X161950000Y-64412500D01*
X162050000Y-64412500D01*
X162050000Y-65000000D01*
X162662500Y-65000000D01*
X162750000Y-64912500D01*
X162750000Y-64605380D01*
X162696715Y-64476741D01*
X162598259Y-64378284D01*
X162469619Y-64325000D01*
X162137500Y-64325000D01*
X162050000Y-64412500D01*
X161950000Y-64412500D01*
X161862500Y-64325000D01*
X161530381Y-64325000D01*
X161401741Y-64378284D01*
X161306554Y-64473472D01*
X161224432Y-64350568D01*
X161075581Y-64251109D01*
X160900000Y-64216184D01*
X160100000Y-64216184D01*
X159924419Y-64251109D01*
X159775568Y-64350568D01*
X159683600Y-64488208D01*
X159545381Y-64515701D01*
X159529957Y-64518769D01*
X159343414Y-64643414D01*
X159193414Y-64793414D01*
X159068769Y-64979957D01*
X159025000Y-65200000D01*
X159025000Y-65325000D01*
X157000000Y-65325000D01*
X157000000Y-64700000D01*
X156988582Y-64642597D01*
X156956066Y-64593934D01*
X154981066Y-62618934D01*
X154932403Y-62586418D01*
X154875000Y-62575000D01*
X145687132Y-62575000D01*
X136090509Y-52978377D01*
X136453807Y-52615712D01*
X136659765Y-52119710D01*
X136660234Y-51582647D01*
X136455142Y-51086285D01*
X136075712Y-50706193D01*
X135579710Y-50500235D01*
X135042647Y-50499766D01*
X134546285Y-50704858D01*
X134166193Y-51084288D01*
X133985783Y-51518764D01*
X133829719Y-51141962D01*
X133829679Y-51141902D01*
X133643938Y-51046773D01*
X133010711Y-51680000D01*
X132869289Y-51680000D01*
X133573227Y-50976062D01*
X133478098Y-50790321D01*
X133018676Y-50600007D01*
X132521395Y-50599993D01*
X132061962Y-50790281D01*
X132061902Y-50790321D01*
X131966773Y-50976062D01*
X132670711Y-51680000D01*
X132529289Y-51680000D01*
X131896062Y-51046773D01*
X131710321Y-51141902D01*
X131625000Y-51347868D01*
X131625000Y-47650000D01*
X143150000Y-47650000D01*
X143150000Y-53800000D01*
G36*
X175350000Y-64662500D02*
X175437500Y-64750000D01*
X175900000Y-64750000D01*
X175900000Y-64730000D01*
X176000000Y-64730000D01*
X176000000Y-64750000D01*
X176020000Y-64750000D01*
X176020000Y-64850000D01*
X176000000Y-64850000D01*
X176000000Y-64870000D01*
X175900000Y-64870000D01*
X175900000Y-64850000D01*
X175437500Y-64850000D01*
X175350000Y-64937500D01*
X175350000Y-65175000D01*
X172539368Y-65175000D01*
X172539401Y-65137436D01*
X172362991Y-64710492D01*
X172127910Y-64475000D01*
X175350000Y-64475000D01*
X175350000Y-64662500D01*
X175350000Y-64662500D01*
G37*
X175350000Y-64662500D02*
X175437500Y-64750000D01*
X175900000Y-64750000D01*
X175900000Y-64730000D01*
X176000000Y-64730000D01*
X176000000Y-64750000D01*
X176020000Y-64750000D01*
X176020000Y-64850000D01*
X176000000Y-64850000D01*
X176000000Y-64870000D01*
X175900000Y-64870000D01*
X175900000Y-64850000D01*
X175437500Y-64850000D01*
X175350000Y-64937500D01*
X175350000Y-65175000D01*
X172539368Y-65175000D01*
X172539401Y-65137436D01*
X172362991Y-64710492D01*
X172127910Y-64475000D01*
X175350000Y-64475000D01*
X175350000Y-64662500D01*
M02*
