G04 #@! TF.GenerationSoftware,KiCad,Pcbnew,(2017-09-19 revision dddaa7e69)-makepkg*
G04 #@! TF.CreationDate,2017-12-07T22:33:37+10:30*
G04 #@! TF.ProjectId,din_power_atm90e26,64696E5F706F7765725F61746D393065,rev?*
G04 #@! TF.SameCoordinates,Original*
G04 #@! TF.FileFunction,Paste,Bot*
G04 #@! TF.FilePolarity,Positive*
%FSLAX46Y46*%
G04 Gerber Fmt 4.6, Leading zero omitted, Abs format (unit mm)*
G04 Created by KiCad (PCBNEW (2017-09-19 revision dddaa7e69)-makepkg) date 12/07/17 22:33:37*
%MOMM*%
%LPD*%
G01*
G04 APERTURE LIST*
%ADD10R,0.500000X0.900000*%
%ADD11R,0.900000X1.700000*%
%ADD12R,0.800000X0.750000*%
G04 APERTURE END LIST*
D10*
X185950000Y-50700000D03*
X184450000Y-50700000D03*
X185950000Y-58200000D03*
X184450000Y-58200000D03*
X185950000Y-55700000D03*
X184450000Y-55700000D03*
X175950000Y-58200000D03*
X177450000Y-58200000D03*
X175950000Y-55700000D03*
X177450000Y-55700000D03*
X175950000Y-53200000D03*
X177450000Y-53200000D03*
X184450000Y-53200000D03*
X185950000Y-53200000D03*
X175950000Y-50700000D03*
X177450000Y-50700000D03*
D11*
X144750000Y-65100000D03*
X147650000Y-65100000D03*
X150550000Y-75550000D03*
X153450000Y-75550000D03*
X153450000Y-70450000D03*
X150550000Y-70450000D03*
X153450000Y-65100000D03*
X150550000Y-65100000D03*
X147650000Y-75550000D03*
X144750000Y-75550000D03*
X144750000Y-70450000D03*
X147650000Y-70450000D03*
X141850000Y-70450000D03*
X138950000Y-70450000D03*
X138950000Y-75550000D03*
X141850000Y-75550000D03*
X118950000Y-67950000D03*
X116050000Y-67950000D03*
X118950000Y-52700000D03*
X116050000Y-52700000D03*
X138950000Y-65100000D03*
X141850000Y-65100000D03*
X118950000Y-60300000D03*
X116050000Y-60300000D03*
D12*
X163050000Y-73150000D03*
X161550000Y-73150000D03*
X162000000Y-65050000D03*
X160500000Y-65050000D03*
X162200000Y-68550000D03*
X160700000Y-68550000D03*
D10*
X163050000Y-75050000D03*
X161550000Y-75050000D03*
X175950000Y-67300000D03*
X177450000Y-67300000D03*
X185950000Y-64800000D03*
X184450000Y-64800000D03*
X185950000Y-67300000D03*
X184450000Y-67300000D03*
X162000000Y-66800000D03*
X160500000Y-66800000D03*
X162200000Y-70300000D03*
X160700000Y-70300000D03*
X177450000Y-69800000D03*
X175950000Y-69800000D03*
X184450000Y-72300000D03*
X185950000Y-72300000D03*
X184450000Y-69800000D03*
X185950000Y-69800000D03*
X177450000Y-72300000D03*
X175950000Y-72300000D03*
X177450000Y-64800000D03*
X175950000Y-64800000D03*
M02*
