solid (STL file generated from eDrawings)
  facet normal 0.000000e+000 -1.000000e+000 -0.000000e+000
    outer loop
      vertex 1.225000e-002 -5.000000e-004 -7.000000e-003
      vertex 1.225000e-002 -5.000000e-004 0.000000e+000
      vertex -1.225000e-002 -5.000000e-004 -7.000000e-003
    endloop
  endfacet
  facet normal -0.000000e+000 -1.000000e+000 0.000000e+000
    outer loop
      vertex -1.225000e-002 -5.000000e-004 -7.000000e-003
      vertex 1.225000e-002 -5.000000e-004 0.000000e+000
      vertex -1.225000e-002 -5.000000e-004 0.000000e+000
    endloop
  endfacet
  facet normal 0.000000e+000 1.000000e+000 0.000000e+000
    outer loop
      vertex -8.250000e-003 0.000000e+000 -5.250000e-003
      vertex -9.050000e-003 0.000000e+000 -5.250000e-003
      vertex -8.250000e-003 0.000000e+000 -7.500000e-004
    endloop
  endfacet
  facet normal 0.000000e+000 1.000000e+000 -0.000000e+000
    outer loop
      vertex -8.250000e-003 0.000000e+000 -7.500000e-004
      vertex -9.050000e-003 0.000000e+000 -5.250000e-003
      vertex -1.095000e-002 0.000000e+000 -5.250000e-003
    endloop
  endfacet
  facet normal 0.000000e+000 1.000000e+000 -0.000000e+000
    outer loop
      vertex -8.250000e-003 0.000000e+000 -7.500000e-004
      vertex -1.095000e-002 0.000000e+000 -5.250000e-003
      vertex -1.175000e-002 0.000000e+000 -7.500000e-004
    endloop
  endfacet
  facet normal 0.000000e+000 1.000000e+000 0.000000e+000
    outer loop
      vertex -1.175000e-002 0.000000e+000 -7.500000e-004
      vertex -1.095000e-002 0.000000e+000 -5.250000e-003
      vertex -1.175000e-002 0.000000e+000 -5.250000e-003
    endloop
  endfacet
  facet normal 0.000000e+000 1.000000e+000 0.000000e+000
    outer loop
      vertex -8.250000e-003 0.000000e+000 -6.500000e-003
      vertex -1.175000e-002 0.000000e+000 -6.500000e-003
      vertex -9.050000e-003 0.000000e+000 -5.650000e-003
    endloop
  endfacet
  facet normal 0.000000e+000 1.000000e+000 0.000000e+000
    outer loop
      vertex -9.050000e-003 0.000000e+000 -5.650000e-003
      vertex -1.175000e-002 0.000000e+000 -6.500000e-003
      vertex -1.095000e-002 0.000000e+000 -5.650000e-003
    endloop
  endfacet
  facet normal 0.000000e+000 1.000000e+000 0.000000e+000
    outer loop
      vertex -9.050000e-003 0.000000e+000 -5.650000e-003
      vertex -1.095000e-002 0.000000e+000 -5.650000e-003
      vertex -9.050000e-003 0.000000e+000 -5.250000e-003
    endloop
  endfacet
  facet normal 0.000000e+000 1.000000e+000 0.000000e+000
    outer loop
      vertex -9.050000e-003 0.000000e+000 -5.250000e-003
      vertex -1.095000e-002 0.000000e+000 -5.650000e-003
      vertex -1.095000e-002 0.000000e+000 -5.250000e-003
    endloop
  endfacet
  facet normal 0.000000e+000 1.000000e+000 0.000000e+000
    outer loop
      vertex -4.250000e-003 0.000000e+000 -5.250000e-003
      vertex -5.050000e-003 0.000000e+000 -5.250000e-003
      vertex -4.250000e-003 0.000000e+000 -7.500000e-004
    endloop
  endfacet
  facet normal 0.000000e+000 1.000000e+000 -0.000000e+000
    outer loop
      vertex -4.250000e-003 0.000000e+000 -7.500000e-004
      vertex -5.050000e-003 0.000000e+000 -5.250000e-003
      vertex -6.950000e-003 0.000000e+000 -5.250000e-003
    endloop
  endfacet
  facet normal 0.000000e+000 1.000000e+000 -0.000000e+000
    outer loop
      vertex -4.250000e-003 0.000000e+000 -7.500000e-004
      vertex -6.950000e-003 0.000000e+000 -5.250000e-003
      vertex -7.750000e-003 0.000000e+000 -7.500000e-004
    endloop
  endfacet
  facet normal 0.000000e+000 1.000000e+000 0.000000e+000
    outer loop
      vertex -7.750000e-003 0.000000e+000 -7.500000e-004
      vertex -6.950000e-003 0.000000e+000 -5.250000e-003
      vertex -7.750000e-003 0.000000e+000 -5.250000e-003
    endloop
  endfacet
  facet normal 0.000000e+000 1.000000e+000 0.000000e+000
    outer loop
      vertex -4.250000e-003 0.000000e+000 -6.500000e-003
      vertex -7.750000e-003 0.000000e+000 -6.500000e-003
      vertex -5.050000e-003 0.000000e+000 -5.650000e-003
    endloop
  endfacet
  facet normal 0.000000e+000 1.000000e+000 0.000000e+000
    outer loop
      vertex -5.050000e-003 0.000000e+000 -5.650000e-003
      vertex -7.750000e-003 0.000000e+000 -6.500000e-003
      vertex -6.950000e-003 0.000000e+000 -5.650000e-003
    endloop
  endfacet
  facet normal 0.000000e+000 1.000000e+000 0.000000e+000
    outer loop
      vertex -5.050000e-003 0.000000e+000 -5.650000e-003
      vertex -6.950000e-003 0.000000e+000 -5.650000e-003
      vertex -5.050000e-003 0.000000e+000 -5.250000e-003
    endloop
  endfacet
  facet normal 0.000000e+000 1.000000e+000 0.000000e+000
    outer loop
      vertex -5.050000e-003 0.000000e+000 -5.250000e-003
      vertex -6.950000e-003 0.000000e+000 -5.650000e-003
      vertex -6.950000e-003 0.000000e+000 -5.250000e-003
    endloop
  endfacet
  facet normal 0.000000e+000 1.000000e+000 -0.000000e+000
    outer loop
      vertex -2.500000e-004 0.000000e+000 -7.500000e-004
      vertex -2.500000e-004 0.000000e+000 -5.250000e-003
      vertex -3.750000e-003 0.000000e+000 -7.500000e-004
    endloop
  endfacet
  facet normal 0.000000e+000 1.000000e+000 0.000000e+000
    outer loop
      vertex -3.750000e-003 0.000000e+000 -7.500000e-004
      vertex -2.500000e-004 0.000000e+000 -5.250000e-003
      vertex -1.050000e-003 0.000000e+000 -5.250000e-003
    endloop
  endfacet
  facet normal 0.000000e+000 1.000000e+000 0.000000e+000
    outer loop
      vertex -3.750000e-003 0.000000e+000 -7.500000e-004
      vertex -1.050000e-003 0.000000e+000 -5.250000e-003
      vertex -2.950000e-003 0.000000e+000 -5.250000e-003
    endloop
  endfacet
  facet normal 0.000000e+000 1.000000e+000 0.000000e+000
    outer loop
      vertex -2.950000e-003 0.000000e+000 -5.250000e-003
      vertex -1.050000e-003 0.000000e+000 -5.250000e-003
      vertex -2.950000e-003 0.000000e+000 -5.650000e-003
    endloop
  endfacet
  facet normal 0.000000e+000 1.000000e+000 0.000000e+000
    outer loop
      vertex -2.950000e-003 0.000000e+000 -5.250000e-003
      vertex -3.750000e-003 0.000000e+000 -5.250000e-003
      vertex -3.750000e-003 0.000000e+000 -7.500000e-004
    endloop
  endfacet
  facet normal 0.000000e+000 1.000000e+000 0.000000e+000
    outer loop
      vertex -2.500000e-004 0.000000e+000 -6.500000e-003
      vertex -3.750000e-003 0.000000e+000 -6.500000e-003
      vertex -1.050000e-003 0.000000e+000 -5.650000e-003
    endloop
  endfacet
  facet normal 0.000000e+000 1.000000e+000 0.000000e+000
    outer loop
      vertex -1.050000e-003 0.000000e+000 -5.650000e-003
      vertex -3.750000e-003 0.000000e+000 -6.500000e-003
      vertex -2.950000e-003 0.000000e+000 -5.650000e-003
    endloop
  endfacet
  facet normal 0.000000e+000 1.000000e+000 0.000000e+000
    outer loop
      vertex -1.050000e-003 0.000000e+000 -5.650000e-003
      vertex -2.950000e-003 0.000000e+000 -5.650000e-003
      vertex -1.050000e-003 0.000000e+000 -5.250000e-003
    endloop
  endfacet
  facet normal 0.000000e+000 1.000000e+000 -0.000000e+000
    outer loop
      vertex 3.750000e-003 0.000000e+000 -7.500000e-004
      vertex 3.750000e-003 0.000000e+000 -5.250000e-003
      vertex 2.500000e-004 0.000000e+000 -7.500000e-004
    endloop
  endfacet
  facet normal 0.000000e+000 1.000000e+000 0.000000e+000
    outer loop
      vertex 2.500000e-004 0.000000e+000 -7.500000e-004
      vertex 3.750000e-003 0.000000e+000 -5.250000e-003
      vertex 2.950000e-003 0.000000e+000 -5.250000e-003
    endloop
  endfacet
  facet normal 0.000000e+000 1.000000e+000 0.000000e+000
    outer loop
      vertex 2.500000e-004 0.000000e+000 -7.500000e-004
      vertex 2.950000e-003 0.000000e+000 -5.250000e-003
      vertex 1.050000e-003 0.000000e+000 -5.250000e-003
    endloop
  endfacet
  facet normal 0.000000e+000 1.000000e+000 0.000000e+000
    outer loop
      vertex 1.050000e-003 0.000000e+000 -5.250000e-003
      vertex 2.950000e-003 0.000000e+000 -5.250000e-003
      vertex 1.050000e-003 0.000000e+000 -5.650000e-003
    endloop
  endfacet
  facet normal 0.000000e+000 1.000000e+000 0.000000e+000
    outer loop
      vertex 1.050000e-003 0.000000e+000 -5.250000e-003
      vertex 2.500000e-004 0.000000e+000 -5.250000e-003
      vertex 2.500000e-004 0.000000e+000 -7.500000e-004
    endloop
  endfacet
  facet normal 0.000000e+000 1.000000e+000 0.000000e+000
    outer loop
      vertex 3.750000e-003 0.000000e+000 -6.500000e-003
      vertex 2.500000e-004 0.000000e+000 -6.500000e-003
      vertex 2.950000e-003 0.000000e+000 -5.650000e-003
    endloop
  endfacet
  facet normal 0.000000e+000 1.000000e+000 0.000000e+000
    outer loop
      vertex 2.950000e-003 0.000000e+000 -5.650000e-003
      vertex 2.500000e-004 0.000000e+000 -6.500000e-003
      vertex 1.050000e-003 0.000000e+000 -5.650000e-003
    endloop
  endfacet
  facet normal 0.000000e+000 1.000000e+000 0.000000e+000
    outer loop
      vertex 2.950000e-003 0.000000e+000 -5.650000e-003
      vertex 1.050000e-003 0.000000e+000 -5.650000e-003
      vertex 2.950000e-003 0.000000e+000 -5.250000e-003
    endloop
  endfacet
  facet normal 0.000000e+000 1.000000e+000 0.000000e+000
    outer loop
      vertex 7.750000e-003 0.000000e+000 -5.250000e-003
      vertex 6.950000e-003 0.000000e+000 -5.250000e-003
      vertex 7.750000e-003 0.000000e+000 -7.500000e-004
    endloop
  endfacet
  facet normal 0.000000e+000 1.000000e+000 -0.000000e+000
    outer loop
      vertex 7.750000e-003 0.000000e+000 -7.500000e-004
      vertex 6.950000e-003 0.000000e+000 -5.250000e-003
      vertex 5.050000e-003 0.000000e+000 -5.250000e-003
    endloop
  endfacet
  facet normal 0.000000e+000 1.000000e+000 -0.000000e+000
    outer loop
      vertex 7.750000e-003 0.000000e+000 -7.500000e-004
      vertex 5.050000e-003 0.000000e+000 -5.250000e-003
      vertex 4.250000e-003 0.000000e+000 -7.500000e-004
    endloop
  endfacet
  facet normal 0.000000e+000 1.000000e+000 0.000000e+000
    outer loop
      vertex 4.250000e-003 0.000000e+000 -7.500000e-004
      vertex 5.050000e-003 0.000000e+000 -5.250000e-003
      vertex 4.250000e-003 0.000000e+000 -5.250000e-003
    endloop
  endfacet
  facet normal 0.000000e+000 1.000000e+000 0.000000e+000
    outer loop
      vertex 7.750000e-003 0.000000e+000 -6.500000e-003
      vertex 4.250000e-003 0.000000e+000 -6.500000e-003
      vertex 6.950000e-003 0.000000e+000 -5.650000e-003
    endloop
  endfacet
  facet normal 0.000000e+000 1.000000e+000 0.000000e+000
    outer loop
      vertex 6.950000e-003 0.000000e+000 -5.650000e-003
      vertex 4.250000e-003 0.000000e+000 -6.500000e-003
      vertex 5.050000e-003 0.000000e+000 -5.650000e-003
    endloop
  endfacet
  facet normal 0.000000e+000 1.000000e+000 0.000000e+000
    outer loop
      vertex 6.950000e-003 0.000000e+000 -5.650000e-003
      vertex 5.050000e-003 0.000000e+000 -5.650000e-003
      vertex 6.950000e-003 0.000000e+000 -5.250000e-003
    endloop
  endfacet
  facet normal 0.000000e+000 1.000000e+000 0.000000e+000
    outer loop
      vertex 6.950000e-003 0.000000e+000 -5.250000e-003
      vertex 5.050000e-003 0.000000e+000 -5.650000e-003
      vertex 5.050000e-003 0.000000e+000 -5.250000e-003
    endloop
  endfacet
  facet normal 0.000000e+000 1.000000e+000 0.000000e+000
    outer loop
      vertex 1.175000e-002 0.000000e+000 -5.250000e-003
      vertex 1.095000e-002 0.000000e+000 -5.250000e-003
      vertex 1.175000e-002 0.000000e+000 -7.500000e-004
    endloop
  endfacet
  facet normal 0.000000e+000 1.000000e+000 -0.000000e+000
    outer loop
      vertex 1.175000e-002 0.000000e+000 -7.500000e-004
      vertex 1.095000e-002 0.000000e+000 -5.250000e-003
      vertex 9.050000e-003 0.000000e+000 -5.250000e-003
    endloop
  endfacet
  facet normal 0.000000e+000 1.000000e+000 -0.000000e+000
    outer loop
      vertex 1.175000e-002 0.000000e+000 -7.500000e-004
      vertex 9.050000e-003 0.000000e+000 -5.250000e-003
      vertex 8.250000e-003 0.000000e+000 -7.500000e-004
    endloop
  endfacet
  facet normal 0.000000e+000 1.000000e+000 0.000000e+000
    outer loop
      vertex 8.250000e-003 0.000000e+000 -7.500000e-004
      vertex 9.050000e-003 0.000000e+000 -5.250000e-003
      vertex 8.250000e-003 0.000000e+000 -5.250000e-003
    endloop
  endfacet
  facet normal 0.000000e+000 1.000000e+000 0.000000e+000
    outer loop
      vertex 1.175000e-002 0.000000e+000 -6.500000e-003
      vertex 8.250000e-003 0.000000e+000 -6.500000e-003
      vertex 1.095000e-002 0.000000e+000 -5.650000e-003
    endloop
  endfacet
  facet normal 0.000000e+000 1.000000e+000 0.000000e+000
    outer loop
      vertex 1.095000e-002 0.000000e+000 -5.650000e-003
      vertex 8.250000e-003 0.000000e+000 -6.500000e-003
      vertex 9.050000e-003 0.000000e+000 -5.650000e-003
    endloop
  endfacet
  facet normal 0.000000e+000 1.000000e+000 0.000000e+000
    outer loop
      vertex 1.095000e-002 0.000000e+000 -5.650000e-003
      vertex 9.050000e-003 0.000000e+000 -5.650000e-003
      vertex 1.095000e-002 0.000000e+000 -5.250000e-003
    endloop
  endfacet
  facet normal 0.000000e+000 1.000000e+000 0.000000e+000
    outer loop
      vertex 1.095000e-002 0.000000e+000 -5.250000e-003
      vertex 9.050000e-003 0.000000e+000 -5.650000e-003
      vertex 9.050000e-003 0.000000e+000 -5.250000e-003
    endloop
  endfacet
  facet normal 1.000000e+000 0.000000e+000 0.000000e+000
    outer loop
      vertex 9.050000e-003 0.000000e+000 -5.250000e-003
      vertex 9.050000e-003 0.000000e+000 -5.650000e-003
      vertex 9.050000e-003 9.250000e-003 -5.250000e-003
    endloop
  endfacet
  facet normal 1.000000e+000 0.000000e+000 0.000000e+000
    outer loop
      vertex 9.050000e-003 9.250000e-003 -5.250000e-003
      vertex 9.050000e-003 0.000000e+000 -5.650000e-003
      vertex 9.050000e-003 9.250000e-003 -5.650000e-003
    endloop
  endfacet
  facet normal 7.281998e-001 0.000000e+000 -6.853650e-001
    outer loop
      vertex 9.050000e-003 -3.469447e-018 -5.650000e-003
      vertex 8.250000e-003 -3.469447e-018 -6.500000e-003
      vertex 9.050000e-003 9.250000e-003 -5.650000e-003
    endloop
  endfacet
  facet normal 7.281998e-001 0.000000e+000 -6.853650e-001
    outer loop
      vertex 9.050000e-003 9.250000e-003 -5.650000e-003
      vertex 8.250000e-003 -3.469447e-018 -6.500000e-003
      vertex 8.250000e-003 9.250000e-003 -6.500000e-003
    endloop
  endfacet
  facet normal 0.000000e+000 0.000000e+000 1.000000e+000
    outer loop
      vertex 8.250000e-003 0.000000e+000 -6.500000e-003
      vertex 1.175000e-002 0.000000e+000 -6.500000e-003
      vertex 8.250000e-003 9.250000e-003 -6.500000e-003
    endloop
  endfacet
  facet normal 0.000000e+000 -0.000000e+000 1.000000e+000
    outer loop
      vertex 8.250000e-003 9.250000e-003 -6.500000e-003
      vertex 1.175000e-002 0.000000e+000 -6.500000e-003
      vertex 1.175000e-002 9.250000e-003 -6.500000e-003
    endloop
  endfacet
  facet normal -7.282001e-001 0.000000e+000 -6.853645e-001
    outer loop
      vertex 1.175000e-002 0.000000e+000 -6.500000e-003
      vertex 1.095000e-002 0.000000e+000 -5.650000e-003
      vertex 1.175000e-002 9.250000e-003 -6.500000e-003
    endloop
  endfacet
  facet normal -7.282001e-001 0.000000e+000 -6.853645e-001
    outer loop
      vertex 1.175000e-002 9.250000e-003 -6.500000e-003
      vertex 1.095000e-002 0.000000e+000 -5.650000e-003
      vertex 1.095000e-002 9.250000e-003 -5.650000e-003
    endloop
  endfacet
  facet normal -1.000000e+000 0.000000e+000 0.000000e+000
    outer loop
      vertex 1.095000e-002 0.000000e+000 -5.650000e-003
      vertex 1.095000e-002 0.000000e+000 -5.250000e-003
      vertex 1.095000e-002 9.250000e-003 -5.650000e-003
    endloop
  endfacet
  facet normal -1.000000e+000 0.000000e+000 0.000000e+000
    outer loop
      vertex 1.095000e-002 9.250000e-003 -5.650000e-003
      vertex 1.095000e-002 0.000000e+000 -5.250000e-003
      vertex 1.095000e-002 9.250000e-003 -5.250000e-003
    endloop
  endfacet
  facet normal 0.000000e+000 0.000000e+000 1.000000e+000
    outer loop
      vertex 1.095000e-002 0.000000e+000 -5.250000e-003
      vertex 1.175000e-002 0.000000e+000 -5.250000e-003
      vertex 1.095000e-002 9.250000e-003 -5.250000e-003
    endloop
  endfacet
  facet normal 0.000000e+000 -0.000000e+000 1.000000e+000
    outer loop
      vertex 1.095000e-002 9.250000e-003 -5.250000e-003
      vertex 1.175000e-002 0.000000e+000 -5.250000e-003
      vertex 1.175000e-002 9.250000e-003 -5.250000e-003
    endloop
  endfacet
  facet normal -1.000000e+000 0.000000e+000 0.000000e+000
    outer loop
      vertex 1.175000e-002 0.000000e+000 -5.250000e-003
      vertex 1.175000e-002 0.000000e+000 -7.500000e-004
      vertex 1.175000e-002 9.250000e-003 -5.250000e-003
    endloop
  endfacet
  facet normal -1.000000e+000 0.000000e+000 0.000000e+000
    outer loop
      vertex 1.175000e-002 9.250000e-003 -5.250000e-003
      vertex 1.175000e-002 0.000000e+000 -7.500000e-004
      vertex 1.175000e-002 9.250000e-003 -7.500000e-004
    endloop
  endfacet
  facet normal 0.000000e+000 0.000000e+000 -1.000000e+000
    outer loop
      vertex 1.175000e-002 0.000000e+000 -7.500000e-004
      vertex 8.250000e-003 0.000000e+000 -7.500000e-004
      vertex 1.175000e-002 9.250000e-003 -7.500000e-004
    endloop
  endfacet
  facet normal 0.000000e+000 0.000000e+000 -1.000000e+000
    outer loop
      vertex 1.175000e-002 9.250000e-003 -7.500000e-004
      vertex 8.250000e-003 0.000000e+000 -7.500000e-004
      vertex 8.250000e-003 9.250000e-003 -7.500000e-004
    endloop
  endfacet
  facet normal 1.000000e+000 0.000000e+000 0.000000e+000
    outer loop
      vertex 8.250000e-003 0.000000e+000 -7.500000e-004
      vertex 8.250000e-003 0.000000e+000 -5.250000e-003
      vertex 8.250000e-003 9.250000e-003 -7.500000e-004
    endloop
  endfacet
  facet normal 1.000000e+000 0.000000e+000 0.000000e+000
    outer loop
      vertex 8.250000e-003 9.250000e-003 -7.500000e-004
      vertex 8.250000e-003 0.000000e+000 -5.250000e-003
      vertex 8.250000e-003 9.250000e-003 -5.250000e-003
    endloop
  endfacet
  facet normal 0.000000e+000 0.000000e+000 1.000000e+000
    outer loop
      vertex 8.250000e-003 0.000000e+000 -5.250000e-003
      vertex 9.050000e-003 0.000000e+000 -5.250000e-003
      vertex 8.250000e-003 9.250000e-003 -5.250000e-003
    endloop
  endfacet
  facet normal 0.000000e+000 -0.000000e+000 1.000000e+000
    outer loop
      vertex 8.250000e-003 9.250000e-003 -5.250000e-003
      vertex 9.050000e-003 0.000000e+000 -5.250000e-003
      vertex 9.050000e-003 9.250000e-003 -5.250000e-003
    endloop
  endfacet
  facet normal 1.000000e+000 0.000000e+000 0.000000e+000
    outer loop
      vertex 5.050000e-003 0.000000e+000 -5.250000e-003
      vertex 5.050000e-003 0.000000e+000 -5.650000e-003
      vertex 5.050000e-003 9.250000e-003 -5.250000e-003
    endloop
  endfacet
  facet normal 1.000000e+000 0.000000e+000 0.000000e+000
    outer loop
      vertex 5.050000e-003 9.250000e-003 -5.250000e-003
      vertex 5.050000e-003 0.000000e+000 -5.650000e-003
      vertex 5.050000e-003 9.250000e-003 -5.650000e-003
    endloop
  endfacet
  facet normal 7.282001e-001 0.000000e+000 -6.853645e-001
    outer loop
      vertex 5.050000e-003 -3.469447e-018 -5.650000e-003
      vertex 4.250000e-003 -3.469447e-018 -6.500000e-003
      vertex 5.050000e-003 9.250000e-003 -5.650000e-003
    endloop
  endfacet
  facet normal 7.282001e-001 0.000000e+000 -6.853645e-001
    outer loop
      vertex 5.050000e-003 9.250000e-003 -5.650000e-003
      vertex 4.250000e-003 -3.469447e-018 -6.500000e-003
      vertex 4.250000e-003 9.250000e-003 -6.500000e-003
    endloop
  endfacet
  facet normal 0.000000e+000 0.000000e+000 1.000000e+000
    outer loop
      vertex 4.250000e-003 0.000000e+000 -6.500000e-003
      vertex 7.750000e-003 0.000000e+000 -6.500000e-003
      vertex 4.250000e-003 9.250000e-003 -6.500000e-003
    endloop
  endfacet
  facet normal 0.000000e+000 -0.000000e+000 1.000000e+000
    outer loop
      vertex 4.250000e-003 9.250000e-003 -6.500000e-003
      vertex 7.750000e-003 0.000000e+000 -6.500000e-003
      vertex 7.750000e-003 9.250000e-003 -6.500000e-003
    endloop
  endfacet
  facet normal -7.282000e-001 0.000000e+000 -6.853647e-001
    outer loop
      vertex 7.750000e-003 -3.469447e-018 -6.500000e-003
      vertex 6.950000e-003 -3.469447e-018 -5.650000e-003
      vertex 7.750000e-003 9.250000e-003 -6.500000e-003
    endloop
  endfacet
  facet normal -7.282000e-001 0.000000e+000 -6.853647e-001
    outer loop
      vertex 7.750000e-003 9.250000e-003 -6.500000e-003
      vertex 6.950000e-003 -3.469447e-018 -5.650000e-003
      vertex 6.950000e-003 9.250000e-003 -5.650000e-003
    endloop
  endfacet
  facet normal -1.000000e+000 0.000000e+000 0.000000e+000
    outer loop
      vertex 6.950000e-003 0.000000e+000 -5.650000e-003
      vertex 6.950000e-003 0.000000e+000 -5.250000e-003
      vertex 6.950000e-003 9.250000e-003 -5.650000e-003
    endloop
  endfacet
  facet normal -1.000000e+000 0.000000e+000 0.000000e+000
    outer loop
      vertex 6.950000e-003 9.250000e-003 -5.650000e-003
      vertex 6.950000e-003 0.000000e+000 -5.250000e-003
      vertex 6.950000e-003 9.250000e-003 -5.250000e-003
    endloop
  endfacet
  facet normal 0.000000e+000 0.000000e+000 1.000000e+000
    outer loop
      vertex 6.950000e-003 0.000000e+000 -5.250000e-003
      vertex 7.750000e-003 0.000000e+000 -5.250000e-003
      vertex 6.950000e-003 9.250000e-003 -5.250000e-003
    endloop
  endfacet
  facet normal 0.000000e+000 -0.000000e+000 1.000000e+000
    outer loop
      vertex 6.950000e-003 9.250000e-003 -5.250000e-003
      vertex 7.750000e-003 0.000000e+000 -5.250000e-003
      vertex 7.750000e-003 9.250000e-003 -5.250000e-003
    endloop
  endfacet
  facet normal -1.000000e+000 0.000000e+000 0.000000e+000
    outer loop
      vertex 7.750000e-003 0.000000e+000 -5.250000e-003
      vertex 7.750000e-003 0.000000e+000 -7.500000e-004
      vertex 7.750000e-003 9.250000e-003 -5.250000e-003
    endloop
  endfacet
  facet normal -1.000000e+000 0.000000e+000 0.000000e+000
    outer loop
      vertex 7.750000e-003 9.250000e-003 -5.250000e-003
      vertex 7.750000e-003 0.000000e+000 -7.500000e-004
      vertex 7.750000e-003 9.250000e-003 -7.500000e-004
    endloop
  endfacet
  facet normal 0.000000e+000 0.000000e+000 -1.000000e+000
    outer loop
      vertex 7.750000e-003 0.000000e+000 -7.500000e-004
      vertex 4.250000e-003 0.000000e+000 -7.500000e-004
      vertex 7.750000e-003 9.250000e-003 -7.500000e-004
    endloop
  endfacet
  facet normal 0.000000e+000 0.000000e+000 -1.000000e+000
    outer loop
      vertex 7.750000e-003 9.250000e-003 -7.500000e-004
      vertex 4.250000e-003 0.000000e+000 -7.500000e-004
      vertex 4.250000e-003 9.250000e-003 -7.500000e-004
    endloop
  endfacet
  facet normal 1.000000e+000 0.000000e+000 0.000000e+000
    outer loop
      vertex 4.250000e-003 0.000000e+000 -7.500000e-004
      vertex 4.250000e-003 0.000000e+000 -5.250000e-003
      vertex 4.250000e-003 9.250000e-003 -7.500000e-004
    endloop
  endfacet
  facet normal 1.000000e+000 0.000000e+000 0.000000e+000
    outer loop
      vertex 4.250000e-003 9.250000e-003 -7.500000e-004
      vertex 4.250000e-003 0.000000e+000 -5.250000e-003
      vertex 4.250000e-003 9.250000e-003 -5.250000e-003
    endloop
  endfacet
  facet normal 0.000000e+000 0.000000e+000 1.000000e+000
    outer loop
      vertex 4.250000e-003 0.000000e+000 -5.250000e-003
      vertex 5.050000e-003 0.000000e+000 -5.250000e-003
      vertex 4.250000e-003 9.250000e-003 -5.250000e-003
    endloop
  endfacet
  facet normal 0.000000e+000 -0.000000e+000 1.000000e+000
    outer loop
      vertex 4.250000e-003 9.250000e-003 -5.250000e-003
      vertex 5.050000e-003 0.000000e+000 -5.250000e-003
      vertex 5.050000e-003 9.250000e-003 -5.250000e-003
    endloop
  endfacet
  facet normal 1.000000e+000 0.000000e+000 0.000000e+000
    outer loop
      vertex 1.050000e-003 0.000000e+000 -5.250000e-003
      vertex 1.050000e-003 0.000000e+000 -5.650000e-003
      vertex 1.050000e-003 9.250000e-003 -5.250000e-003
    endloop
  endfacet
  facet normal 1.000000e+000 0.000000e+000 0.000000e+000
    outer loop
      vertex 1.050000e-003 9.250000e-003 -5.250000e-003
      vertex 1.050000e-003 0.000000e+000 -5.650000e-003
      vertex 1.050000e-003 9.250000e-003 -5.650000e-003
    endloop
  endfacet
  facet normal 7.282000e-001 0.000000e+000 -6.853647e-001
    outer loop
      vertex 1.050000e-003 -3.469447e-018 -5.650000e-003
      vertex 2.500000e-004 -3.469447e-018 -6.500000e-003
      vertex 1.050000e-003 9.250000e-003 -5.650000e-003
    endloop
  endfacet
  facet normal 7.282000e-001 0.000000e+000 -6.853647e-001
    outer loop
      vertex 1.050000e-003 9.250000e-003 -5.650000e-003
      vertex 2.500000e-004 -3.469447e-018 -6.500000e-003
      vertex 2.500000e-004 9.250000e-003 -6.500000e-003
    endloop
  endfacet
  facet normal 0.000000e+000 0.000000e+000 1.000000e+000
    outer loop
      vertex 2.500000e-004 0.000000e+000 -6.500000e-003
      vertex 3.750000e-003 0.000000e+000 -6.500000e-003
      vertex 2.500000e-004 9.250000e-003 -6.500000e-003
    endloop
  endfacet
  facet normal 0.000000e+000 -0.000000e+000 1.000000e+000
    outer loop
      vertex 2.500000e-004 9.250000e-003 -6.500000e-003
      vertex 3.750000e-003 0.000000e+000 -6.500000e-003
      vertex 3.750000e-003 9.250000e-003 -6.500000e-003
    endloop
  endfacet
  facet normal -7.282001e-001 0.000000e+000 -6.853646e-001
    outer loop
      vertex 3.750000e-003 0.000000e+000 -6.500000e-003
      vertex 2.950000e-003 0.000000e+000 -5.650000e-003
      vertex 3.750000e-003 9.250000e-003 -6.500000e-003
    endloop
  endfacet
  facet normal -7.282001e-001 0.000000e+000 -6.853646e-001
    outer loop
      vertex 3.750000e-003 9.250000e-003 -6.500000e-003
      vertex 2.950000e-003 0.000000e+000 -5.650000e-003
      vertex 2.950000e-003 9.250000e-003 -5.650000e-003
    endloop
  endfacet
  facet normal -1.000000e+000 0.000000e+000 0.000000e+000
    outer loop
      vertex 2.950000e-003 0.000000e+000 -5.650000e-003
      vertex 2.950000e-003 0.000000e+000 -5.250000e-003
      vertex 2.950000e-003 9.250000e-003 -5.650000e-003
    endloop
  endfacet
  facet normal -1.000000e+000 0.000000e+000 0.000000e+000
    outer loop
      vertex 2.950000e-003 9.250000e-003 -5.650000e-003
      vertex 2.950000e-003 0.000000e+000 -5.250000e-003
      vertex 2.950000e-003 9.250000e-003 -5.250000e-003
    endloop
  endfacet
  facet normal 0.000000e+000 0.000000e+000 1.000000e+000
    outer loop
      vertex 2.950000e-003 0.000000e+000 -5.250000e-003
      vertex 3.750000e-003 0.000000e+000 -5.250000e-003
      vertex 2.950000e-003 9.250000e-003 -5.250000e-003
    endloop
  endfacet
  facet normal 0.000000e+000 -0.000000e+000 1.000000e+000
    outer loop
      vertex 2.950000e-003 9.250000e-003 -5.250000e-003
      vertex 3.750000e-003 0.000000e+000 -5.250000e-003
      vertex 3.750000e-003 9.250000e-003 -5.250000e-003
    endloop
  endfacet
  facet normal -1.000000e+000 0.000000e+000 0.000000e+000
    outer loop
      vertex 3.750000e-003 0.000000e+000 -5.250000e-003
      vertex 3.750000e-003 0.000000e+000 -7.500000e-004
      vertex 3.750000e-003 9.250000e-003 -5.250000e-003
    endloop
  endfacet
  facet normal -1.000000e+000 0.000000e+000 0.000000e+000
    outer loop
      vertex 3.750000e-003 9.250000e-003 -5.250000e-003
      vertex 3.750000e-003 0.000000e+000 -7.500000e-004
      vertex 3.750000e-003 9.250000e-003 -7.500000e-004
    endloop
  endfacet
  facet normal 0.000000e+000 0.000000e+000 -1.000000e+000
    outer loop
      vertex 3.750000e-003 0.000000e+000 -7.500000e-004
      vertex 2.500000e-004 0.000000e+000 -7.500000e-004
      vertex 3.750000e-003 9.250000e-003 -7.500000e-004
    endloop
  endfacet
  facet normal 0.000000e+000 0.000000e+000 -1.000000e+000
    outer loop
      vertex 3.750000e-003 9.250000e-003 -7.500000e-004
      vertex 2.500000e-004 0.000000e+000 -7.500000e-004
      vertex 2.500000e-004 9.250000e-003 -7.500000e-004
    endloop
  endfacet
  facet normal 1.000000e+000 0.000000e+000 0.000000e+000
    outer loop
      vertex 2.500000e-004 0.000000e+000 -7.500000e-004
      vertex 2.500000e-004 0.000000e+000 -5.250000e-003
      vertex 2.500000e-004 9.250000e-003 -7.500000e-004
    endloop
  endfacet
  facet normal 1.000000e+000 0.000000e+000 0.000000e+000
    outer loop
      vertex 2.500000e-004 9.250000e-003 -7.500000e-004
      vertex 2.500000e-004 0.000000e+000 -5.250000e-003
      vertex 2.500000e-004 9.250000e-003 -5.250000e-003
    endloop
  endfacet
  facet normal 0.000000e+000 0.000000e+000 1.000000e+000
    outer loop
      vertex 2.500000e-004 0.000000e+000 -5.250000e-003
      vertex 1.050000e-003 0.000000e+000 -5.250000e-003
      vertex 2.500000e-004 9.250000e-003 -5.250000e-003
    endloop
  endfacet
  facet normal 0.000000e+000 -0.000000e+000 1.000000e+000
    outer loop
      vertex 2.500000e-004 9.250000e-003 -5.250000e-003
      vertex 1.050000e-003 0.000000e+000 -5.250000e-003
      vertex 1.050000e-003 9.250000e-003 -5.250000e-003
    endloop
  endfacet
  facet normal 1.000000e+000 0.000000e+000 0.000000e+000
    outer loop
      vertex -2.950000e-003 0.000000e+000 -5.250000e-003
      vertex -2.950000e-003 0.000000e+000 -5.650000e-003
      vertex -2.950000e-003 9.250000e-003 -5.250000e-003
    endloop
  endfacet
  facet normal 1.000000e+000 0.000000e+000 0.000000e+000
    outer loop
      vertex -2.950000e-003 9.250000e-003 -5.250000e-003
      vertex -2.950000e-003 0.000000e+000 -5.650000e-003
      vertex -2.950000e-003 9.250000e-003 -5.650000e-003
    endloop
  endfacet
  facet normal 7.282001e-001 0.000000e+000 -6.853646e-001
    outer loop
      vertex -2.950000e-003 0.000000e+000 -5.650000e-003
      vertex -3.750000e-003 0.000000e+000 -6.500000e-003
      vertex -2.950000e-003 9.250000e-003 -5.650000e-003
    endloop
  endfacet
  facet normal 7.282001e-001 0.000000e+000 -6.853646e-001
    outer loop
      vertex -2.950000e-003 9.250000e-003 -5.650000e-003
      vertex -3.750000e-003 0.000000e+000 -6.500000e-003
      vertex -3.750000e-003 9.250000e-003 -6.500000e-003
    endloop
  endfacet
  facet normal 0.000000e+000 0.000000e+000 1.000000e+000
    outer loop
      vertex -3.750000e-003 0.000000e+000 -6.500000e-003
      vertex -2.500000e-004 0.000000e+000 -6.500000e-003
      vertex -3.750000e-003 9.250000e-003 -6.500000e-003
    endloop
  endfacet
  facet normal 0.000000e+000 -0.000000e+000 1.000000e+000
    outer loop
      vertex -3.750000e-003 9.250000e-003 -6.500000e-003
      vertex -2.500000e-004 0.000000e+000 -6.500000e-003
      vertex -2.500000e-004 9.250000e-003 -6.500000e-003
    endloop
  endfacet
  facet normal -7.282000e-001 0.000000e+000 -6.853647e-001
    outer loop
      vertex -2.500000e-004 0.000000e+000 -6.500000e-003
      vertex -1.050000e-003 0.000000e+000 -5.650000e-003
      vertex -2.500000e-004 9.250000e-003 -6.500000e-003
    endloop
  endfacet
  facet normal -7.282000e-001 0.000000e+000 -6.853647e-001
    outer loop
      vertex -2.500000e-004 9.250000e-003 -6.500000e-003
      vertex -1.050000e-003 0.000000e+000 -5.650000e-003
      vertex -1.050000e-003 9.250000e-003 -5.650000e-003
    endloop
  endfacet
  facet normal -1.000000e+000 0.000000e+000 0.000000e+000
    outer loop
      vertex -1.050000e-003 0.000000e+000 -5.650000e-003
      vertex -1.050000e-003 0.000000e+000 -5.250000e-003
      vertex -1.050000e-003 9.250000e-003 -5.650000e-003
    endloop
  endfacet
  facet normal -1.000000e+000 0.000000e+000 0.000000e+000
    outer loop
      vertex -1.050000e-003 9.250000e-003 -5.650000e-003
      vertex -1.050000e-003 0.000000e+000 -5.250000e-003
      vertex -1.050000e-003 9.250000e-003 -5.250000e-003
    endloop
  endfacet
  facet normal 0.000000e+000 0.000000e+000 1.000000e+000
    outer loop
      vertex -1.050000e-003 0.000000e+000 -5.250000e-003
      vertex -2.500000e-004 0.000000e+000 -5.250000e-003
      vertex -1.050000e-003 9.250000e-003 -5.250000e-003
    endloop
  endfacet
  facet normal 0.000000e+000 -0.000000e+000 1.000000e+000
    outer loop
      vertex -1.050000e-003 9.250000e-003 -5.250000e-003
      vertex -2.500000e-004 0.000000e+000 -5.250000e-003
      vertex -2.500000e-004 9.250000e-003 -5.250000e-003
    endloop
  endfacet
  facet normal -1.000000e+000 0.000000e+000 0.000000e+000
    outer loop
      vertex -2.500000e-004 0.000000e+000 -5.250000e-003
      vertex -2.500000e-004 0.000000e+000 -7.500000e-004
      vertex -2.500000e-004 9.250000e-003 -5.250000e-003
    endloop
  endfacet
  facet normal -1.000000e+000 0.000000e+000 0.000000e+000
    outer loop
      vertex -2.500000e-004 9.250000e-003 -5.250000e-003
      vertex -2.500000e-004 0.000000e+000 -7.500000e-004
      vertex -2.500000e-004 9.250000e-003 -7.500000e-004
    endloop
  endfacet
  facet normal 0.000000e+000 0.000000e+000 -1.000000e+000
    outer loop
      vertex -2.500000e-004 0.000000e+000 -7.500000e-004
      vertex -3.750000e-003 0.000000e+000 -7.500000e-004
      vertex -2.500000e-004 9.250000e-003 -7.500000e-004
    endloop
  endfacet
  facet normal 0.000000e+000 0.000000e+000 -1.000000e+000
    outer loop
      vertex -2.500000e-004 9.250000e-003 -7.500000e-004
      vertex -3.750000e-003 0.000000e+000 -7.500000e-004
      vertex -3.750000e-003 9.250000e-003 -7.500000e-004
    endloop
  endfacet
  facet normal 1.000000e+000 0.000000e+000 0.000000e+000
    outer loop
      vertex -3.750000e-003 0.000000e+000 -7.500000e-004
      vertex -3.750000e-003 0.000000e+000 -5.250000e-003
      vertex -3.750000e-003 9.250000e-003 -7.500000e-004
    endloop
  endfacet
  facet normal 1.000000e+000 0.000000e+000 0.000000e+000
    outer loop
      vertex -3.750000e-003 9.250000e-003 -7.500000e-004
      vertex -3.750000e-003 0.000000e+000 -5.250000e-003
      vertex -3.750000e-003 9.250000e-003 -5.250000e-003
    endloop
  endfacet
  facet normal 0.000000e+000 0.000000e+000 1.000000e+000
    outer loop
      vertex -3.750000e-003 0.000000e+000 -5.250000e-003
      vertex -2.950000e-003 0.000000e+000 -5.250000e-003
      vertex -3.750000e-003 9.250000e-003 -5.250000e-003
    endloop
  endfacet
  facet normal 0.000000e+000 -0.000000e+000 1.000000e+000
    outer loop
      vertex -3.750000e-003 9.250000e-003 -5.250000e-003
      vertex -2.950000e-003 0.000000e+000 -5.250000e-003
      vertex -2.950000e-003 9.250000e-003 -5.250000e-003
    endloop
  endfacet
  facet normal 1.000000e+000 0.000000e+000 0.000000e+000
    outer loop
      vertex -6.950000e-003 0.000000e+000 -5.250000e-003
      vertex -6.950000e-003 0.000000e+000 -5.650000e-003
      vertex -6.950000e-003 9.250000e-003 -5.250000e-003
    endloop
  endfacet
  facet normal 1.000000e+000 0.000000e+000 0.000000e+000
    outer loop
      vertex -6.950000e-003 9.250000e-003 -5.250000e-003
      vertex -6.950000e-003 0.000000e+000 -5.650000e-003
      vertex -6.950000e-003 9.250000e-003 -5.650000e-003
    endloop
  endfacet
  facet normal 7.282000e-001 0.000000e+000 -6.853647e-001
    outer loop
      vertex -6.950000e-003 -3.469447e-018 -5.650000e-003
      vertex -7.750000e-003 -3.469447e-018 -6.500000e-003
      vertex -6.950000e-003 9.250000e-003 -5.650000e-003
    endloop
  endfacet
  facet normal 7.282000e-001 0.000000e+000 -6.853647e-001
    outer loop
      vertex -6.950000e-003 9.250000e-003 -5.650000e-003
      vertex -7.750000e-003 -3.469447e-018 -6.500000e-003
      vertex -7.750000e-003 9.250000e-003 -6.500000e-003
    endloop
  endfacet
  facet normal 0.000000e+000 0.000000e+000 1.000000e+000
    outer loop
      vertex -7.750000e-003 0.000000e+000 -6.500000e-003
      vertex -4.250000e-003 0.000000e+000 -6.500000e-003
      vertex -7.750000e-003 9.250000e-003 -6.500000e-003
    endloop
  endfacet
  facet normal 0.000000e+000 -0.000000e+000 1.000000e+000
    outer loop
      vertex -7.750000e-003 9.250000e-003 -6.500000e-003
      vertex -4.250000e-003 0.000000e+000 -6.500000e-003
      vertex -4.250000e-003 9.250000e-003 -6.500000e-003
    endloop
  endfacet
  facet normal -7.282001e-001 0.000000e+000 -6.853645e-001
    outer loop
      vertex -4.250000e-003 0.000000e+000 -6.500000e-003
      vertex -5.050000e-003 0.000000e+000 -5.650000e-003
      vertex -4.250000e-003 9.250000e-003 -6.500000e-003
    endloop
  endfacet
  facet normal -7.282001e-001 0.000000e+000 -6.853645e-001
    outer loop
      vertex -4.250000e-003 9.250000e-003 -6.500000e-003
      vertex -5.050000e-003 0.000000e+000 -5.650000e-003
      vertex -5.050000e-003 9.250000e-003 -5.650000e-003
    endloop
  endfacet
  facet normal -1.000000e+000 0.000000e+000 0.000000e+000
    outer loop
      vertex -5.050000e-003 0.000000e+000 -5.650000e-003
      vertex -5.050000e-003 0.000000e+000 -5.250000e-003
      vertex -5.050000e-003 9.250000e-003 -5.650000e-003
    endloop
  endfacet
  facet normal -1.000000e+000 0.000000e+000 0.000000e+000
    outer loop
      vertex -5.050000e-003 9.250000e-003 -5.650000e-003
      vertex -5.050000e-003 0.000000e+000 -5.250000e-003
      vertex -5.050000e-003 9.250000e-003 -5.250000e-003
    endloop
  endfacet
  facet normal 0.000000e+000 0.000000e+000 1.000000e+000
    outer loop
      vertex -5.050000e-003 0.000000e+000 -5.250000e-003
      vertex -4.250000e-003 0.000000e+000 -5.250000e-003
      vertex -5.050000e-003 9.250000e-003 -5.250000e-003
    endloop
  endfacet
  facet normal 0.000000e+000 -0.000000e+000 1.000000e+000
    outer loop
      vertex -5.050000e-003 9.250000e-003 -5.250000e-003
      vertex -4.250000e-003 0.000000e+000 -5.250000e-003
      vertex -4.250000e-003 9.250000e-003 -5.250000e-003
    endloop
  endfacet
  facet normal -1.000000e+000 0.000000e+000 0.000000e+000
    outer loop
      vertex -4.250000e-003 0.000000e+000 -5.250000e-003
      vertex -4.250000e-003 0.000000e+000 -7.500000e-004
      vertex -4.250000e-003 9.250000e-003 -5.250000e-003
    endloop
  endfacet
  facet normal -1.000000e+000 0.000000e+000 0.000000e+000
    outer loop
      vertex -4.250000e-003 9.250000e-003 -5.250000e-003
      vertex -4.250000e-003 0.000000e+000 -7.500000e-004
      vertex -4.250000e-003 9.250000e-003 -7.500000e-004
    endloop
  endfacet
  facet normal 0.000000e+000 0.000000e+000 -1.000000e+000
    outer loop
      vertex -4.250000e-003 0.000000e+000 -7.500000e-004
      vertex -7.750000e-003 0.000000e+000 -7.500000e-004
      vertex -4.250000e-003 9.250000e-003 -7.500000e-004
    endloop
  endfacet
  facet normal 0.000000e+000 0.000000e+000 -1.000000e+000
    outer loop
      vertex -4.250000e-003 9.250000e-003 -7.500000e-004
      vertex -7.750000e-003 0.000000e+000 -7.500000e-004
      vertex -7.750000e-003 9.250000e-003 -7.500000e-004
    endloop
  endfacet
  facet normal 1.000000e+000 0.000000e+000 0.000000e+000
    outer loop
      vertex -7.750000e-003 0.000000e+000 -7.500000e-004
      vertex -7.750000e-003 0.000000e+000 -5.250000e-003
      vertex -7.750000e-003 9.250000e-003 -7.500000e-004
    endloop
  endfacet
  facet normal 1.000000e+000 0.000000e+000 0.000000e+000
    outer loop
      vertex -7.750000e-003 9.250000e-003 -7.500000e-004
      vertex -7.750000e-003 0.000000e+000 -5.250000e-003
      vertex -7.750000e-003 9.250000e-003 -5.250000e-003
    endloop
  endfacet
  facet normal 0.000000e+000 0.000000e+000 1.000000e+000
    outer loop
      vertex -7.750000e-003 0.000000e+000 -5.250000e-003
      vertex -6.950000e-003 0.000000e+000 -5.250000e-003
      vertex -7.750000e-003 9.250000e-003 -5.250000e-003
    endloop
  endfacet
  facet normal 0.000000e+000 -0.000000e+000 1.000000e+000
    outer loop
      vertex -7.750000e-003 9.250000e-003 -5.250000e-003
      vertex -6.950000e-003 0.000000e+000 -5.250000e-003
      vertex -6.950000e-003 9.250000e-003 -5.250000e-003
    endloop
  endfacet
  facet normal 1.000000e+000 0.000000e+000 0.000000e+000
    outer loop
      vertex -1.095000e-002 0.000000e+000 -5.250000e-003
      vertex -1.095000e-002 0.000000e+000 -5.650000e-003
      vertex -1.095000e-002 9.250000e-003 -5.250000e-003
    endloop
  endfacet
  facet normal 1.000000e+000 0.000000e+000 0.000000e+000
    outer loop
      vertex -1.095000e-002 9.250000e-003 -5.250000e-003
      vertex -1.095000e-002 0.000000e+000 -5.650000e-003
      vertex -1.095000e-002 9.250000e-003 -5.650000e-003
    endloop
  endfacet
  facet normal 7.282001e-001 0.000000e+000 -6.853645e-001
    outer loop
      vertex -1.095000e-002 -3.469447e-018 -5.650000e-003
      vertex -1.175000e-002 -3.469447e-018 -6.500000e-003
      vertex -1.095000e-002 9.250000e-003 -5.650000e-003
    endloop
  endfacet
  facet normal 7.282001e-001 0.000000e+000 -6.853645e-001
    outer loop
      vertex -1.095000e-002 9.250000e-003 -5.650000e-003
      vertex -1.175000e-002 -3.469447e-018 -6.500000e-003
      vertex -1.175000e-002 9.250000e-003 -6.500000e-003
    endloop
  endfacet
  facet normal 0.000000e+000 0.000000e+000 1.000000e+000
    outer loop
      vertex -1.175000e-002 0.000000e+000 -6.500000e-003
      vertex -8.250000e-003 0.000000e+000 -6.500000e-003
      vertex -1.175000e-002 9.250000e-003 -6.500000e-003
    endloop
  endfacet
  facet normal 0.000000e+000 -0.000000e+000 1.000000e+000
    outer loop
      vertex -1.175000e-002 9.250000e-003 -6.500000e-003
      vertex -8.250000e-003 0.000000e+000 -6.500000e-003
      vertex -8.250000e-003 9.250000e-003 -6.500000e-003
    endloop
  endfacet
  facet normal -7.281998e-001 0.000000e+000 -6.853650e-001
    outer loop
      vertex -8.250000e-003 -3.469447e-018 -6.500000e-003
      vertex -9.050000e-003 -3.469447e-018 -5.650000e-003
      vertex -8.250000e-003 9.250000e-003 -6.500000e-003
    endloop
  endfacet
  facet normal -7.281998e-001 0.000000e+000 -6.853650e-001
    outer loop
      vertex -8.250000e-003 9.250000e-003 -6.500000e-003
      vertex -9.050000e-003 -3.469447e-018 -5.650000e-003
      vertex -9.050000e-003 9.250000e-003 -5.650000e-003
    endloop
  endfacet
  facet normal -1.000000e+000 0.000000e+000 0.000000e+000
    outer loop
      vertex -9.050000e-003 0.000000e+000 -5.650000e-003
      vertex -9.050000e-003 0.000000e+000 -5.250000e-003
      vertex -9.050000e-003 9.250000e-003 -5.650000e-003
    endloop
  endfacet
  facet normal -1.000000e+000 0.000000e+000 0.000000e+000
    outer loop
      vertex -9.050000e-003 9.250000e-003 -5.650000e-003
      vertex -9.050000e-003 0.000000e+000 -5.250000e-003
      vertex -9.050000e-003 9.250000e-003 -5.250000e-003
    endloop
  endfacet
  facet normal 0.000000e+000 0.000000e+000 1.000000e+000
    outer loop
      vertex -9.050000e-003 0.000000e+000 -5.250000e-003
      vertex -8.250000e-003 0.000000e+000 -5.250000e-003
      vertex -9.050000e-003 9.250000e-003 -5.250000e-003
    endloop
  endfacet
  facet normal 0.000000e+000 -0.000000e+000 1.000000e+000
    outer loop
      vertex -9.050000e-003 9.250000e-003 -5.250000e-003
      vertex -8.250000e-003 0.000000e+000 -5.250000e-003
      vertex -8.250000e-003 9.250000e-003 -5.250000e-003
    endloop
  endfacet
  facet normal -1.000000e+000 0.000000e+000 0.000000e+000
    outer loop
      vertex -8.250000e-003 0.000000e+000 -5.250000e-003
      vertex -8.250000e-003 0.000000e+000 -7.500000e-004
      vertex -8.250000e-003 9.250000e-003 -5.250000e-003
    endloop
  endfacet
  facet normal -1.000000e+000 0.000000e+000 0.000000e+000
    outer loop
      vertex -8.250000e-003 9.250000e-003 -5.250000e-003
      vertex -8.250000e-003 0.000000e+000 -7.500000e-004
      vertex -8.250000e-003 9.250000e-003 -7.500000e-004
    endloop
  endfacet
  facet normal 0.000000e+000 0.000000e+000 -1.000000e+000
    outer loop
      vertex -8.250000e-003 0.000000e+000 -7.500000e-004
      vertex -1.175000e-002 0.000000e+000 -7.500000e-004
      vertex -8.250000e-003 9.250000e-003 -7.500000e-004
    endloop
  endfacet
  facet normal 0.000000e+000 0.000000e+000 -1.000000e+000
    outer loop
      vertex -8.250000e-003 9.250000e-003 -7.500000e-004
      vertex -1.175000e-002 0.000000e+000 -7.500000e-004
      vertex -1.175000e-002 9.250000e-003 -7.500000e-004
    endloop
  endfacet
  facet normal 1.000000e+000 0.000000e+000 0.000000e+000
    outer loop
      vertex -1.175000e-002 0.000000e+000 -7.500000e-004
      vertex -1.175000e-002 0.000000e+000 -5.250000e-003
      vertex -1.175000e-002 9.250000e-003 -7.500000e-004
    endloop
  endfacet
  facet normal 1.000000e+000 0.000000e+000 0.000000e+000
    outer loop
      vertex -1.175000e-002 9.250000e-003 -7.500000e-004
      vertex -1.175000e-002 0.000000e+000 -5.250000e-003
      vertex -1.175000e-002 9.250000e-003 -5.250000e-003
    endloop
  endfacet
  facet normal 0.000000e+000 0.000000e+000 1.000000e+000
    outer loop
      vertex -1.175000e-002 0.000000e+000 -5.250000e-003
      vertex -1.095000e-002 0.000000e+000 -5.250000e-003
      vertex -1.175000e-002 9.250000e-003 -5.250000e-003
    endloop
  endfacet
  facet normal 0.000000e+000 -0.000000e+000 1.000000e+000
    outer loop
      vertex -1.175000e-002 9.250000e-003 -5.250000e-003
      vertex -1.095000e-002 0.000000e+000 -5.250000e-003
      vertex -1.095000e-002 9.250000e-003 -5.250000e-003
    endloop
  endfacet
  facet normal -1.000000e+000 0.000000e+000 0.000000e+000
    outer loop
      vertex -1.225000e-002 9.250000e-003 0.000000e+000
      vertex -1.225000e-002 9.250000e-003 -6.750000e-003
      vertex -1.225000e-002 -5.000000e-004 0.000000e+000
    endloop
  endfacet
  facet normal -1.000000e+000 -0.000000e+000 0.000000e+000
    outer loop
      vertex -1.225000e-002 -5.000000e-004 0.000000e+000
      vertex -1.225000e-002 9.250000e-003 -6.750000e-003
      vertex -1.225000e-002 -5.000000e-004 -7.000000e-003
    endloop
  endfacet
  facet normal -1.000000e+000 0.000000e+000 0.000000e+000
    outer loop
      vertex -1.225000e-002 9.250000e-003 -6.750000e-003
      vertex -1.225000e-002 9.250000e-003 -7.000000e-003
      vertex -1.225000e-002 -5.000000e-004 -7.000000e-003
    endloop
  endfacet
  facet normal 0.000000e+000 0.000000e+000 -1.000000e+000
    outer loop
      vertex 1.225000e-002 9.250000e-003 -7.000000e-003
      vertex 1.225000e-002 -5.000000e-004 -7.000000e-003
      vertex 8.000000e-003 9.250000e-003 -7.000000e-003
    endloop
  endfacet
  facet normal 0.000000e+000 0.000000e+000 -1.000000e+000
    outer loop
      vertex 8.000000e-003 9.250000e-003 -7.000000e-003
      vertex 1.225000e-002 -5.000000e-004 -7.000000e-003
      vertex 4.000000e-003 9.250000e-003 -7.000000e-003
    endloop
  endfacet
  facet normal 0.000000e+000 0.000000e+000 -1.000000e+000
    outer loop
      vertex -8.000000e-003 9.250000e-003 -7.000000e-003
      vertex -1.225000e-002 -5.000000e-004 -7.000000e-003
      vertex -1.200000e-002 9.250000e-003 -7.000000e-003
    endloop
  endfacet
  facet normal 0.000000e+000 0.000000e+000 -1.000000e+000
    outer loop
      vertex -1.200000e-002 9.250000e-003 -7.000000e-003
      vertex -1.225000e-002 -5.000000e-004 -7.000000e-003
      vertex -1.225000e-002 9.250000e-003 -7.000000e-003
    endloop
  endfacet
  facet normal -0.000000e+000 0.000000e+000 -1.000000e+000
    outer loop
      vertex -8.000000e-003 9.250000e-003 -7.000000e-003
      vertex -4.000000e-003 9.250000e-003 -7.000000e-003
      vertex -1.225000e-002 -5.000000e-004 -7.000000e-003
    endloop
  endfacet
  facet normal 0.000000e+000 -0.000000e+000 -1.000000e+000
    outer loop
      vertex -1.225000e-002 -5.000000e-004 -7.000000e-003
      vertex -4.000000e-003 9.250000e-003 -7.000000e-003
      vertex -5.377643e-017 9.250000e-003 -7.000000e-003
    endloop
  endfacet
  facet normal 0.000000e+000 -0.000000e+000 -1.000000e+000
    outer loop
      vertex -1.225000e-002 -5.000000e-004 -7.000000e-003
      vertex -5.377643e-017 9.250000e-003 -7.000000e-003
      vertex 1.225000e-002 -5.000000e-004 -7.000000e-003
    endloop
  endfacet
  facet normal 0.000000e+000 0.000000e+000 -1.000000e+000
    outer loop
      vertex 1.225000e-002 -5.000000e-004 -7.000000e-003
      vertex -5.377643e-017 9.250000e-003 -7.000000e-003
      vertex 4.000000e-003 9.250000e-003 -7.000000e-003
    endloop
  endfacet
  facet normal 1.000000e+000 -0.000000e+000 0.000000e+000
    outer loop
      vertex 1.225000e-002 9.250000e-003 0.000000e+000
      vertex 1.225000e-002 -5.000000e-004 0.000000e+000
      vertex 1.225000e-002 9.250000e-003 -6.750000e-003
    endloop
  endfacet
  facet normal 1.000000e+000 0.000000e+000 0.000000e+000
    outer loop
      vertex 1.225000e-002 9.250000e-003 -6.750000e-003
      vertex 1.225000e-002 -5.000000e-004 0.000000e+000
      vertex 1.225000e-002 -5.000000e-004 -7.000000e-003
    endloop
  endfacet
  facet normal 1.000000e+000 0.000000e+000 0.000000e+000
    outer loop
      vertex 1.225000e-002 9.250000e-003 -6.750000e-003
      vertex 1.225000e-002 -5.000000e-004 -7.000000e-003
      vertex 1.225000e-002 9.250000e-003 -7.000000e-003
    endloop
  endfacet
  facet normal -0.000000e+000 0.000000e+000 1.000000e+000
    outer loop
      vertex 4.000000e-003 9.250000e-003 0.000000e+000
      vertex -5.377643e-017 9.250000e-003 0.000000e+000
      vertex -1.225000e-002 -5.000000e-004 0.000000e+000
    endloop
  endfacet
  facet normal 0.000000e+000 0.000000e+000 1.000000e+000
    outer loop
      vertex -1.225000e-002 -5.000000e-004 0.000000e+000
      vertex -5.377643e-017 9.250000e-003 0.000000e+000
      vertex -4.000000e-003 9.250000e-003 0.000000e+000
    endloop
  endfacet
  facet normal 0.000000e+000 0.000000e+000 1.000000e+000
    outer loop
      vertex -1.225000e-002 -5.000000e-004 0.000000e+000
      vertex -4.000000e-003 9.250000e-003 0.000000e+000
      vertex -8.000000e-003 9.250000e-003 0.000000e+000
    endloop
  endfacet
  facet normal 0.000000e+000 0.000000e+000 1.000000e+000
    outer loop
      vertex -1.225000e-002 9.250000e-003 0.000000e+000
      vertex -1.225000e-002 -5.000000e-004 0.000000e+000
      vertex -1.200000e-002 9.250000e-003 0.000000e+000
    endloop
  endfacet
  facet normal 0.000000e+000 0.000000e+000 1.000000e+000
    outer loop
      vertex -1.200000e-002 9.250000e-003 0.000000e+000
      vertex -1.225000e-002 -5.000000e-004 0.000000e+000
      vertex -8.000000e-003 9.250000e-003 0.000000e+000
    endloop
  endfacet
  facet normal -0.000000e+000 0.000000e+000 1.000000e+000
    outer loop
      vertex 1.225000e-002 9.250000e-003 0.000000e+000
      vertex 8.000000e-003 9.250000e-003 0.000000e+000
      vertex 1.225000e-002 -5.000000e-004 0.000000e+000
    endloop
  endfacet
  facet normal 0.000000e+000 0.000000e+000 1.000000e+000
    outer loop
      vertex 1.225000e-002 -5.000000e-004 0.000000e+000
      vertex 8.000000e-003 9.250000e-003 0.000000e+000
      vertex 4.000000e-003 9.250000e-003 0.000000e+000
    endloop
  endfacet
  facet normal 0.000000e+000 0.000000e+000 1.000000e+000
    outer loop
      vertex 1.225000e-002 -5.000000e-004 0.000000e+000
      vertex 4.000000e-003 9.250000e-003 0.000000e+000
      vertex -1.225000e-002 -5.000000e-004 0.000000e+000
    endloop
  endfacet
  facet normal 0.000000e+000 1.000000e+000 0.000000e+000
    outer loop
      vertex 5.050000e-003 9.250000e-003 -5.650000e-003
      vertex 4.250000e-003 9.250000e-003 -6.500000e-003
      vertex 4.250000e-003 9.250000e-003 -5.250000e-003
    endloop
  endfacet
  facet normal 0.000000e+000 1.000000e+000 -0.000000e+000
    outer loop
      vertex 4.250000e-003 9.250000e-003 -5.250000e-003
      vertex 4.250000e-003 9.250000e-003 -6.500000e-003
      vertex 4.000000e-003 9.250000e-003 -6.750000e-003
    endloop
  endfacet
  facet normal 0.000000e+000 1.000000e+000 0.000000e+000
    outer loop
      vertex 4.250000e-003 9.250000e-003 -5.250000e-003
      vertex 4.000000e-003 9.250000e-003 -6.750000e-003
      vertex 4.000000e-003 9.250000e-003 0.000000e+000
    endloop
  endfacet
  facet normal 0.000000e+000 1.000000e+000 -0.000000e+000
    outer loop
      vertex 4.000000e-003 9.250000e-003 0.000000e+000
      vertex 4.000000e-003 9.250000e-003 -6.750000e-003
      vertex 3.750000e-003 9.250000e-003 -5.250000e-003
    endloop
  endfacet
  facet normal 0.000000e+000 1.000000e+000 0.000000e+000
    outer loop
      vertex 4.000000e-003 9.250000e-003 0.000000e+000
      vertex 3.750000e-003 9.250000e-003 -5.250000e-003
      vertex 3.750000e-003 9.250000e-003 -7.500000e-004
    endloop
  endfacet
  facet normal 0.000000e+000 1.000000e+000 0.000000e+000
    outer loop
      vertex -1.175000e-002 9.250000e-003 -5.250000e-003
      vertex -1.095000e-002 9.250000e-003 -5.250000e-003
      vertex -1.095000e-002 9.250000e-003 -5.650000e-003
    endloop
  endfacet
  facet normal 0.000000e+000 1.000000e+000 -0.000000e+000
    outer loop
      vertex -5.421011e-017 9.250000e-003 0.000000e+000
      vertex -5.421011e-017 9.250000e-003 -6.750000e-003
      vertex -2.500000e-004 9.250000e-003 -5.250000e-003
    endloop
  endfacet
  facet normal -0.000000e+000 1.000000e+000 0.000000e+000
    outer loop
      vertex -2.500000e-004 9.250000e-003 -6.500000e-003
      vertex -1.050000e-003 9.250000e-003 -5.650000e-003
      vertex -1.050000e-003 9.250000e-003 -5.250000e-003
    endloop
  endfacet
  facet normal -0.000000e+000 1.000000e+000 0.000000e+000
    outer loop
      vertex -4.250000e-003 9.250000e-003 -6.500000e-003
      vertex -5.050000e-003 9.250000e-003 -5.650000e-003
      vertex -5.050000e-003 9.250000e-003 -5.250000e-003
    endloop
  endfacet
  facet normal -0.000000e+000 1.000000e+000 0.000000e+000
    outer loop
      vertex 7.750000e-003 9.250000e-003 -6.500000e-003
      vertex 6.950000e-003 9.250000e-003 -5.650000e-003
      vertex 6.950000e-003 9.250000e-003 -5.250000e-003
    endloop
  endfacet
  facet normal 0.000000e+000 1.000000e+000 0.000000e+000
    outer loop
      vertex -5.421011e-017 9.250000e-003 0.000000e+000
      vertex 4.000000e-003 9.250000e-003 0.000000e+000
      vertex 3.750000e-003 9.250000e-003 -7.500000e-004
    endloop
  endfacet
  facet normal -0.000000e+000 1.000000e+000 0.000000e+000
    outer loop
      vertex 1.175000e-002 9.250000e-003 -6.500000e-003
      vertex 1.095000e-002 9.250000e-003 -5.650000e-003
      vertex 1.095000e-002 9.250000e-003 -5.250000e-003
    endloop
  endfacet
  facet normal 0.000000e+000 1.000000e+000 0.000000e+000
    outer loop
      vertex 4.250000e-003 9.250000e-003 -5.250000e-003
      vertex 5.050000e-003 9.250000e-003 -5.250000e-003
      vertex 5.050000e-003 9.250000e-003 -5.650000e-003
    endloop
  endfacet
  facet normal -0.000000e+000 1.000000e+000 0.000000e+000
    outer loop
      vertex 3.750000e-003 9.250000e-003 -6.500000e-003
      vertex 2.950000e-003 9.250000e-003 -5.650000e-003
      vertex 2.950000e-003 9.250000e-003 -5.250000e-003
    endloop
  endfacet
  facet normal 0.000000e+000 1.000000e+000 0.000000e+000
    outer loop
      vertex -1.200000e-002 9.250000e-003 -6.750000e-003
      vertex -1.175000e-002 9.250000e-003 -6.500000e-003
      vertex -8.000000e-003 9.250000e-003 -6.750000e-003
    endloop
  endfacet
  facet normal 0.000000e+000 1.000000e+000 0.000000e+000
    outer loop
      vertex 2.500000e-004 9.250000e-003 -6.500000e-003
      vertex 2.500000e-004 9.250000e-003 -5.250000e-003
      vertex 1.050000e-003 9.250000e-003 -5.650000e-003
    endloop
  endfacet
  facet normal -0.000000e+000 1.000000e+000 0.000000e+000
    outer loop
      vertex 1.050000e-003 9.250000e-003 -5.650000e-003
      vertex 2.500000e-004 9.250000e-003 -5.250000e-003
      vertex 1.050000e-003 9.250000e-003 -5.250000e-003
    endloop
  endfacet
  facet normal 0.000000e+000 1.000000e+000 -0.000000e+000
    outer loop
      vertex -8.250000e-003 9.250000e-003 -5.250000e-003
      vertex -8.250000e-003 9.250000e-003 -6.500000e-003
      vertex -9.050000e-003 9.250000e-003 -5.250000e-003
    endloop
  endfacet
  facet normal 0.000000e+000 1.000000e+000 0.000000e+000
    outer loop
      vertex -9.050000e-003 9.250000e-003 -5.250000e-003
      vertex -8.250000e-003 9.250000e-003 -6.500000e-003
      vertex -9.050000e-003 9.250000e-003 -5.650000e-003
    endloop
  endfacet
  facet normal 0.000000e+000 1.000000e+000 0.000000e+000
    outer loop
      vertex -7.750000e-003 9.250000e-003 -6.500000e-003
      vertex -7.750000e-003 9.250000e-003 -5.250000e-003
      vertex -6.950000e-003 9.250000e-003 -5.650000e-003
    endloop
  endfacet
  facet normal -0.000000e+000 1.000000e+000 0.000000e+000
    outer loop
      vertex -6.950000e-003 9.250000e-003 -5.650000e-003
      vertex -7.750000e-003 9.250000e-003 -5.250000e-003
      vertex -6.950000e-003 9.250000e-003 -5.250000e-003
    endloop
  endfacet
  facet normal 0.000000e+000 1.000000e+000 0.000000e+000
    outer loop
      vertex 8.250000e-003 9.250000e-003 -6.500000e-003
      vertex 8.250000e-003 9.250000e-003 -5.250000e-003
      vertex 9.050000e-003 9.250000e-003 -5.650000e-003
    endloop
  endfacet
  facet normal -0.000000e+000 1.000000e+000 0.000000e+000
    outer loop
      vertex 9.050000e-003 9.250000e-003 -5.650000e-003
      vertex 8.250000e-003 9.250000e-003 -5.250000e-003
      vertex 9.050000e-003 9.250000e-003 -5.250000e-003
    endloop
  endfacet
  facet normal -0.000000e+000 1.000000e+000 0.000000e+000
    outer loop
      vertex -4.000000e-003 9.250000e-003 -6.750000e-003
      vertex -4.250000e-003 9.250000e-003 -5.250000e-003
      vertex -4.000000e-003 9.250000e-003 0.000000e+000
    endloop
  endfacet
  facet normal 0.000000e+000 1.000000e+000 0.000000e+000
    outer loop
      vertex -4.000000e-003 9.250000e-003 0.000000e+000
      vertex -4.250000e-003 9.250000e-003 -5.250000e-003
      vertex -4.250000e-003 9.250000e-003 -7.500000e-004
    endloop
  endfacet
  facet normal 0.000000e+000 1.000000e+000 -0.000000e+000
    outer loop
      vertex -4.000000e-003 9.250000e-003 0.000000e+000
      vertex -4.250000e-003 9.250000e-003 -7.500000e-004
      vertex -8.000000e-003 9.250000e-003 0.000000e+000
    endloop
  endfacet
  facet normal 0.000000e+000 1.000000e+000 0.000000e+000
    outer loop
      vertex -4.000000e-003 9.250000e-003 0.000000e+000
      vertex -5.421011e-017 9.250000e-003 0.000000e+000
      vertex -2.500000e-004 9.250000e-003 -7.500000e-004
    endloop
  endfacet
  facet normal 0.000000e+000 1.000000e+000 0.000000e+000
    outer loop
      vertex -2.500000e-004 9.250000e-003 -7.500000e-004
      vertex -5.421011e-017 9.250000e-003 0.000000e+000
      vertex -2.500000e-004 9.250000e-003 -5.250000e-003
    endloop
  endfacet
  facet normal -0.000000e+000 1.000000e+000 0.000000e+000
    outer loop
      vertex 1.225000e-002 9.250000e-003 -6.750000e-003
      vertex 1.175000e-002 9.250000e-003 -5.250000e-003
      vertex 1.225000e-002 9.250000e-003 0.000000e+000
    endloop
  endfacet
  facet normal 0.000000e+000 1.000000e+000 0.000000e+000
    outer loop
      vertex 1.225000e-002 9.250000e-003 0.000000e+000
      vertex 1.175000e-002 9.250000e-003 -5.250000e-003
      vertex 1.175000e-002 9.250000e-003 -7.500000e-004
    endloop
  endfacet
  facet normal 0.000000e+000 1.000000e+000 -0.000000e+000
    outer loop
      vertex 1.225000e-002 9.250000e-003 0.000000e+000
      vertex 1.175000e-002 9.250000e-003 -7.500000e-004
      vertex 8.000000e-003 9.250000e-003 0.000000e+000
    endloop
  endfacet
  facet normal -0.000000e+000 1.000000e+000 0.000000e+000
    outer loop
      vertex 8.000000e-003 9.250000e-003 -6.750000e-003
      vertex 7.750000e-003 9.250000e-003 -5.250000e-003
      vertex 8.000000e-003 9.250000e-003 0.000000e+000
    endloop
  endfacet
  facet normal 0.000000e+000 1.000000e+000 0.000000e+000
    outer loop
      vertex 8.000000e-003 9.250000e-003 0.000000e+000
      vertex 7.750000e-003 9.250000e-003 -5.250000e-003
      vertex 7.750000e-003 9.250000e-003 -7.500000e-004
    endloop
  endfacet
  facet normal 0.000000e+000 1.000000e+000 -0.000000e+000
    outer loop
      vertex 8.000000e-003 9.250000e-003 0.000000e+000
      vertex 7.750000e-003 9.250000e-003 -7.500000e-004
      vertex 4.000000e-003 9.250000e-003 0.000000e+000
    endloop
  endfacet
  facet normal 0.000000e+000 1.000000e+000 0.000000e+000
    outer loop
      vertex 4.000000e-003 9.250000e-003 0.000000e+000
      vertex 7.750000e-003 9.250000e-003 -7.500000e-004
      vertex 4.250000e-003 9.250000e-003 -7.500000e-004
    endloop
  endfacet
  facet normal 0.000000e+000 1.000000e+000 0.000000e+000
    outer loop
      vertex 4.000000e-003 9.250000e-003 0.000000e+000
      vertex 4.250000e-003 9.250000e-003 -7.500000e-004
      vertex 4.250000e-003 9.250000e-003 -5.250000e-003
    endloop
  endfacet
  facet normal 0.000000e+000 1.000000e+000 0.000000e+000
    outer loop
      vertex -3.750000e-003 9.250000e-003 -6.500000e-003
      vertex -3.750000e-003 9.250000e-003 -5.250000e-003
      vertex -2.950000e-003 9.250000e-003 -5.650000e-003
    endloop
  endfacet
  facet normal -0.000000e+000 1.000000e+000 0.000000e+000
    outer loop
      vertex -2.950000e-003 9.250000e-003 -5.650000e-003
      vertex -3.750000e-003 9.250000e-003 -5.250000e-003
      vertex -2.950000e-003 9.250000e-003 -5.250000e-003
    endloop
  endfacet
  facet normal 0.000000e+000 1.000000e+000 0.000000e+000
    outer loop
      vertex -1.200000e-002 9.250000e-003 -7.000000e-003
      vertex -1.200000e-002 9.250000e-003 -6.750000e-003
      vertex -8.000000e-003 9.250000e-003 -7.000000e-003
    endloop
  endfacet
  facet normal -0.000000e+000 1.000000e+000 0.000000e+000
    outer loop
      vertex -8.000000e-003 9.250000e-003 -7.000000e-003
      vertex -1.200000e-002 9.250000e-003 -6.750000e-003
      vertex -8.000000e-003 9.250000e-003 -6.750000e-003
    endloop
  endfacet
  facet normal 0.000000e+000 1.000000e+000 0.000000e+000
    outer loop
      vertex -8.000000e-003 9.250000e-003 -7.000000e-003
      vertex -8.000000e-003 9.250000e-003 -6.750000e-003
      vertex -4.000000e-003 9.250000e-003 -7.000000e-003
    endloop
  endfacet
  facet normal -0.000000e+000 1.000000e+000 0.000000e+000
    outer loop
      vertex -4.000000e-003 9.250000e-003 -7.000000e-003
      vertex -8.000000e-003 9.250000e-003 -6.750000e-003
      vertex -4.000000e-003 9.250000e-003 -6.750000e-003
    endloop
  endfacet
  facet normal 0.000000e+000 1.000000e+000 0.000000e+000
    outer loop
      vertex -4.000000e-003 9.250000e-003 -7.000000e-003
      vertex -4.000000e-003 9.250000e-003 -6.750000e-003
      vertex -5.421011e-017 9.250000e-003 -7.000000e-003
    endloop
  endfacet
  facet normal -0.000000e+000 1.000000e+000 0.000000e+000
    outer loop
      vertex -5.421011e-017 9.250000e-003 -7.000000e-003
      vertex -4.000000e-003 9.250000e-003 -6.750000e-003
      vertex -5.421011e-017 9.250000e-003 -6.750000e-003
    endloop
  endfacet
  facet normal 0.000000e+000 1.000000e+000 0.000000e+000
    outer loop
      vertex -5.421011e-017 9.250000e-003 -7.000000e-003
      vertex -5.421011e-017 9.250000e-003 -6.750000e-003
      vertex 4.000000e-003 9.250000e-003 -7.000000e-003
    endloop
  endfacet
  facet normal -0.000000e+000 1.000000e+000 0.000000e+000
    outer loop
      vertex 4.000000e-003 9.250000e-003 -7.000000e-003
      vertex -5.421011e-017 9.250000e-003 -6.750000e-003
      vertex 4.000000e-003 9.250000e-003 -6.750000e-003
    endloop
  endfacet
  facet normal 0.000000e+000 1.000000e+000 0.000000e+000
    outer loop
      vertex 4.000000e-003 9.250000e-003 -7.000000e-003
      vertex 4.000000e-003 9.250000e-003 -6.750000e-003
      vertex 8.000000e-003 9.250000e-003 -7.000000e-003
    endloop
  endfacet
  facet normal -0.000000e+000 1.000000e+000 0.000000e+000
    outer loop
      vertex 8.000000e-003 9.250000e-003 -7.000000e-003
      vertex 4.000000e-003 9.250000e-003 -6.750000e-003
      vertex 8.000000e-003 9.250000e-003 -6.750000e-003
    endloop
  endfacet
  facet normal 0.000000e+000 1.000000e+000 0.000000e+000
    outer loop
      vertex 8.000000e-003 9.250000e-003 -7.000000e-003
      vertex 8.000000e-003 9.250000e-003 -6.750000e-003
      vertex 1.225000e-002 9.250000e-003 -7.000000e-003
    endloop
  endfacet
  facet normal -0.000000e+000 1.000000e+000 0.000000e+000
    outer loop
      vertex 1.225000e-002 9.250000e-003 -7.000000e-003
      vertex 8.000000e-003 9.250000e-003 -6.750000e-003
      vertex 1.225000e-002 9.250000e-003 -6.750000e-003
    endloop
  endfacet
  facet normal 0.000000e+000 1.000000e+000 0.000000e+000
    outer loop
      vertex -1.225000e-002 9.250000e-003 0.000000e+000
      vertex -1.200000e-002 9.250000e-003 0.000000e+000
      vertex -1.200000e-002 9.250000e-003 -6.750000e-003
    endloop
  endfacet
  facet normal 0.000000e+000 1.000000e+000 0.000000e+000
    outer loop
      vertex -1.200000e-002 9.250000e-003 -6.750000e-003
      vertex -1.200000e-002 9.250000e-003 0.000000e+000
      vertex -1.175000e-002 9.250000e-003 -5.250000e-003
    endloop
  endfacet
  facet normal 0.000000e+000 1.000000e+000 0.000000e+000
    outer loop
      vertex -1.200000e-002 9.250000e-003 -6.750000e-003
      vertex -1.175000e-002 9.250000e-003 -5.250000e-003
      vertex -1.175000e-002 9.250000e-003 -6.500000e-003
    endloop
  endfacet
  facet normal 0.000000e+000 1.000000e+000 0.000000e+000
    outer loop
      vertex -1.175000e-002 9.250000e-003 -6.500000e-003
      vertex -1.175000e-002 9.250000e-003 -5.250000e-003
      vertex -1.095000e-002 9.250000e-003 -5.650000e-003
    endloop
  endfacet
  facet normal 0.000000e+000 1.000000e+000 0.000000e+000
    outer loop
      vertex -1.225000e-002 9.250000e-003 0.000000e+000
      vertex -1.200000e-002 9.250000e-003 -6.750000e-003
      vertex -1.225000e-002 9.250000e-003 -6.750000e-003
    endloop
  endfacet
  facet normal 0.000000e+000 1.000000e+000 0.000000e+000
    outer loop
      vertex -1.225000e-002 9.250000e-003 -6.750000e-003
      vertex -1.200000e-002 9.250000e-003 -6.750000e-003
      vertex -1.200000e-002 9.250000e-003 -7.000000e-003
    endloop
  endfacet
  facet normal 0.000000e+000 1.000000e+000 0.000000e+000
    outer loop
      vertex -1.225000e-002 9.250000e-003 -6.750000e-003
      vertex -1.200000e-002 9.250000e-003 -7.000000e-003
      vertex -1.225000e-002 9.250000e-003 -7.000000e-003
    endloop
  endfacet
  facet normal 0.000000e+000 1.000000e+000 -0.000000e+000
    outer loop
      vertex -4.250000e-003 9.250000e-003 -7.500000e-004
      vertex -7.750000e-003 9.250000e-003 -7.500000e-004
      vertex -8.000000e-003 9.250000e-003 0.000000e+000
    endloop
  endfacet
  facet normal 0.000000e+000 1.000000e+000 0.000000e+000
    outer loop
      vertex -8.000000e-003 9.250000e-003 0.000000e+000
      vertex -7.750000e-003 9.250000e-003 -7.500000e-004
      vertex -7.750000e-003 9.250000e-003 -5.250000e-003
    endloop
  endfacet
  facet normal 0.000000e+000 1.000000e+000 0.000000e+000
    outer loop
      vertex -8.000000e-003 9.250000e-003 0.000000e+000
      vertex -7.750000e-003 9.250000e-003 -5.250000e-003
      vertex -8.000000e-003 9.250000e-003 -6.750000e-003
    endloop
  endfacet
  facet normal 0.000000e+000 1.000000e+000 0.000000e+000
    outer loop
      vertex -8.000000e-003 9.250000e-003 -6.750000e-003
      vertex -7.750000e-003 9.250000e-003 -5.250000e-003
      vertex -7.750000e-003 9.250000e-003 -6.500000e-003
    endloop
  endfacet
  facet normal 0.000000e+000 1.000000e+000 0.000000e+000
    outer loop
      vertex -8.000000e-003 9.250000e-003 -6.750000e-003
      vertex -7.750000e-003 9.250000e-003 -6.500000e-003
      vertex -4.000000e-003 9.250000e-003 -6.750000e-003
    endloop
  endfacet
  facet normal -0.000000e+000 1.000000e+000 0.000000e+000
    outer loop
      vertex -4.000000e-003 9.250000e-003 -6.750000e-003
      vertex -7.750000e-003 9.250000e-003 -6.500000e-003
      vertex -4.250000e-003 9.250000e-003 -6.500000e-003
    endloop
  endfacet
  facet normal -0.000000e+000 1.000000e+000 0.000000e+000
    outer loop
      vertex -4.000000e-003 9.250000e-003 -6.750000e-003
      vertex -4.250000e-003 9.250000e-003 -6.500000e-003
      vertex -4.250000e-003 9.250000e-003 -5.250000e-003
    endloop
  endfacet
  facet normal 0.000000e+000 1.000000e+000 -0.000000e+000
    outer loop
      vertex -4.250000e-003 9.250000e-003 -5.250000e-003
      vertex -4.250000e-003 9.250000e-003 -6.500000e-003
      vertex -5.050000e-003 9.250000e-003 -5.250000e-003
    endloop
  endfacet
  facet normal 0.000000e+000 1.000000e+000 0.000000e+000
    outer loop
      vertex 2.950000e-003 9.250000e-003 -5.250000e-003
      vertex 3.750000e-003 9.250000e-003 -5.250000e-003
      vertex 3.750000e-003 9.250000e-003 -6.500000e-003
    endloop
  endfacet
  facet normal 0.000000e+000 1.000000e+000 0.000000e+000
    outer loop
      vertex 3.750000e-003 9.250000e-003 -6.500000e-003
      vertex 3.750000e-003 9.250000e-003 -5.250000e-003
      vertex 4.000000e-003 9.250000e-003 -6.750000e-003
    endloop
  endfacet
  facet normal 0.000000e+000 1.000000e+000 0.000000e+000
    outer loop
      vertex 3.750000e-003 9.250000e-003 -6.500000e-003
      vertex 4.000000e-003 9.250000e-003 -6.750000e-003
      vertex 2.500000e-004 9.250000e-003 -6.500000e-003
    endloop
  endfacet
  facet normal 0.000000e+000 1.000000e+000 0.000000e+000
    outer loop
      vertex 2.500000e-004 9.250000e-003 -6.500000e-003
      vertex 4.000000e-003 9.250000e-003 -6.750000e-003
      vertex -5.421011e-017 9.250000e-003 -6.750000e-003
    endloop
  endfacet
  facet normal 0.000000e+000 1.000000e+000 0.000000e+000
    outer loop
      vertex 2.500000e-004 9.250000e-003 -6.500000e-003
      vertex -5.421011e-017 9.250000e-003 -6.750000e-003
      vertex 2.500000e-004 9.250000e-003 -5.250000e-003
    endloop
  endfacet
  facet normal 0.000000e+000 1.000000e+000 0.000000e+000
    outer loop
      vertex 2.500000e-004 9.250000e-003 -5.250000e-003
      vertex -5.421011e-017 9.250000e-003 -6.750000e-003
      vertex -5.421011e-017 9.250000e-003 0.000000e+000
    endloop
  endfacet
  facet normal 0.000000e+000 1.000000e+000 0.000000e+000
    outer loop
      vertex 2.500000e-004 9.250000e-003 -5.250000e-003
      vertex -5.421011e-017 9.250000e-003 0.000000e+000
      vertex 2.500000e-004 9.250000e-003 -7.500000e-004
    endloop
  endfacet
  facet normal 0.000000e+000 1.000000e+000 0.000000e+000
    outer loop
      vertex 2.500000e-004 9.250000e-003 -7.500000e-004
      vertex -5.421011e-017 9.250000e-003 0.000000e+000
      vertex 3.750000e-003 9.250000e-003 -7.500000e-004
    endloop
  endfacet
  facet normal 0.000000e+000 1.000000e+000 -0.000000e+000
    outer loop
      vertex 1.175000e-002 9.250000e-003 -7.500000e-004
      vertex 8.250000e-003 9.250000e-003 -7.500000e-004
      vertex 8.000000e-003 9.250000e-003 0.000000e+000
    endloop
  endfacet
  facet normal 0.000000e+000 1.000000e+000 0.000000e+000
    outer loop
      vertex 8.000000e-003 9.250000e-003 0.000000e+000
      vertex 8.250000e-003 9.250000e-003 -7.500000e-004
      vertex 8.250000e-003 9.250000e-003 -5.250000e-003
    endloop
  endfacet
  facet normal 0.000000e+000 1.000000e+000 0.000000e+000
    outer loop
      vertex 8.000000e-003 9.250000e-003 0.000000e+000
      vertex 8.250000e-003 9.250000e-003 -5.250000e-003
      vertex 8.000000e-003 9.250000e-003 -6.750000e-003
    endloop
  endfacet
  facet normal 0.000000e+000 1.000000e+000 0.000000e+000
    outer loop
      vertex 8.000000e-003 9.250000e-003 -6.750000e-003
      vertex 8.250000e-003 9.250000e-003 -5.250000e-003
      vertex 8.250000e-003 9.250000e-003 -6.500000e-003
    endloop
  endfacet
  facet normal 0.000000e+000 1.000000e+000 0.000000e+000
    outer loop
      vertex 8.000000e-003 9.250000e-003 -6.750000e-003
      vertex 8.250000e-003 9.250000e-003 -6.500000e-003
      vertex 1.225000e-002 9.250000e-003 -6.750000e-003
    endloop
  endfacet
  facet normal -0.000000e+000 1.000000e+000 0.000000e+000
    outer loop
      vertex 1.225000e-002 9.250000e-003 -6.750000e-003
      vertex 8.250000e-003 9.250000e-003 -6.500000e-003
      vertex 1.175000e-002 9.250000e-003 -6.500000e-003
    endloop
  endfacet
  facet normal -0.000000e+000 1.000000e+000 0.000000e+000
    outer loop
      vertex 1.225000e-002 9.250000e-003 -6.750000e-003
      vertex 1.175000e-002 9.250000e-003 -6.500000e-003
      vertex 1.175000e-002 9.250000e-003 -5.250000e-003
    endloop
  endfacet
  facet normal 0.000000e+000 1.000000e+000 -0.000000e+000
    outer loop
      vertex 1.175000e-002 9.250000e-003 -5.250000e-003
      vertex 1.175000e-002 9.250000e-003 -6.500000e-003
      vertex 1.095000e-002 9.250000e-003 -5.250000e-003
    endloop
  endfacet
  facet normal 0.000000e+000 1.000000e+000 0.000000e+000
    outer loop
      vertex -1.175000e-002 9.250000e-003 -6.500000e-003
      vertex -8.250000e-003 9.250000e-003 -6.500000e-003
      vertex -8.000000e-003 9.250000e-003 -6.750000e-003
    endloop
  endfacet
  facet normal -0.000000e+000 1.000000e+000 0.000000e+000
    outer loop
      vertex -8.000000e-003 9.250000e-003 -6.750000e-003
      vertex -8.250000e-003 9.250000e-003 -6.500000e-003
      vertex -8.250000e-003 9.250000e-003 -5.250000e-003
    endloop
  endfacet
  facet normal -0.000000e+000 1.000000e+000 0.000000e+000
    outer loop
      vertex -8.000000e-003 9.250000e-003 -6.750000e-003
      vertex -8.250000e-003 9.250000e-003 -5.250000e-003
      vertex -8.000000e-003 9.250000e-003 0.000000e+000
    endloop
  endfacet
  facet normal 0.000000e+000 1.000000e+000 0.000000e+000
    outer loop
      vertex -8.000000e-003 9.250000e-003 0.000000e+000
      vertex -8.250000e-003 9.250000e-003 -5.250000e-003
      vertex -8.250000e-003 9.250000e-003 -7.500000e-004
    endloop
  endfacet
  facet normal 0.000000e+000 1.000000e+000 -0.000000e+000
    outer loop
      vertex -8.000000e-003 9.250000e-003 0.000000e+000
      vertex -8.250000e-003 9.250000e-003 -7.500000e-004
      vertex -1.200000e-002 9.250000e-003 0.000000e+000
    endloop
  endfacet
  facet normal 0.000000e+000 1.000000e+000 0.000000e+000
    outer loop
      vertex -1.200000e-002 9.250000e-003 0.000000e+000
      vertex -8.250000e-003 9.250000e-003 -7.500000e-004
      vertex -1.175000e-002 9.250000e-003 -7.500000e-004
    endloop
  endfacet
  facet normal 0.000000e+000 1.000000e+000 0.000000e+000
    outer loop
      vertex -1.200000e-002 9.250000e-003 0.000000e+000
      vertex -1.175000e-002 9.250000e-003 -7.500000e-004
      vertex -1.175000e-002 9.250000e-003 -5.250000e-003
    endloop
  endfacet
  facet normal 0.000000e+000 1.000000e+000 0.000000e+000
    outer loop
      vertex 6.950000e-003 9.250000e-003 -5.250000e-003
      vertex 7.750000e-003 9.250000e-003 -5.250000e-003
      vertex 7.750000e-003 9.250000e-003 -6.500000e-003
    endloop
  endfacet
  facet normal 0.000000e+000 1.000000e+000 0.000000e+000
    outer loop
      vertex 7.750000e-003 9.250000e-003 -6.500000e-003
      vertex 7.750000e-003 9.250000e-003 -5.250000e-003
      vertex 8.000000e-003 9.250000e-003 -6.750000e-003
    endloop
  endfacet
  facet normal 0.000000e+000 1.000000e+000 0.000000e+000
    outer loop
      vertex 7.750000e-003 9.250000e-003 -6.500000e-003
      vertex 8.000000e-003 9.250000e-003 -6.750000e-003
      vertex 4.250000e-003 9.250000e-003 -6.500000e-003
    endloop
  endfacet
  facet normal 0.000000e+000 1.000000e+000 0.000000e+000
    outer loop
      vertex 4.250000e-003 9.250000e-003 -6.500000e-003
      vertex 8.000000e-003 9.250000e-003 -6.750000e-003
      vertex 4.000000e-003 9.250000e-003 -6.750000e-003
    endloop
  endfacet
  facet normal 0.000000e+000 1.000000e+000 0.000000e+000
    outer loop
      vertex -1.050000e-003 9.250000e-003 -5.250000e-003
      vertex -2.500000e-004 9.250000e-003 -5.250000e-003
      vertex -2.500000e-004 9.250000e-003 -6.500000e-003
    endloop
  endfacet
  facet normal 0.000000e+000 1.000000e+000 0.000000e+000
    outer loop
      vertex -2.500000e-004 9.250000e-003 -6.500000e-003
      vertex -2.500000e-004 9.250000e-003 -5.250000e-003
      vertex -5.421011e-017 9.250000e-003 -6.750000e-003
    endloop
  endfacet
  facet normal 0.000000e+000 1.000000e+000 0.000000e+000
    outer loop
      vertex -2.500000e-004 9.250000e-003 -6.500000e-003
      vertex -5.421011e-017 9.250000e-003 -6.750000e-003
      vertex -3.750000e-003 9.250000e-003 -6.500000e-003
    endloop
  endfacet
  facet normal 0.000000e+000 1.000000e+000 0.000000e+000
    outer loop
      vertex -3.750000e-003 9.250000e-003 -6.500000e-003
      vertex -5.421011e-017 9.250000e-003 -6.750000e-003
      vertex -4.000000e-003 9.250000e-003 -6.750000e-003
    endloop
  endfacet
  facet normal 0.000000e+000 1.000000e+000 0.000000e+000
    outer loop
      vertex -3.750000e-003 9.250000e-003 -6.500000e-003
      vertex -4.000000e-003 9.250000e-003 -6.750000e-003
      vertex -3.750000e-003 9.250000e-003 -5.250000e-003
    endloop
  endfacet
  facet normal 0.000000e+000 1.000000e+000 0.000000e+000
    outer loop
      vertex -3.750000e-003 9.250000e-003 -5.250000e-003
      vertex -4.000000e-003 9.250000e-003 -6.750000e-003
      vertex -4.000000e-003 9.250000e-003 0.000000e+000
    endloop
  endfacet
  facet normal 0.000000e+000 1.000000e+000 0.000000e+000
    outer loop
      vertex -3.750000e-003 9.250000e-003 -5.250000e-003
      vertex -4.000000e-003 9.250000e-003 0.000000e+000
      vertex -3.750000e-003 9.250000e-003 -7.500000e-004
    endloop
  endfacet
  facet normal 0.000000e+000 1.000000e+000 0.000000e+000
    outer loop
      vertex -3.750000e-003 9.250000e-003 -7.500000e-004
      vertex -4.000000e-003 9.250000e-003 0.000000e+000
      vertex -2.500000e-004 9.250000e-003 -7.500000e-004
    endloop
  endfacet
endsolid
